G75*
%MOIN*%
%OFA0B0*%
%FSLAX24Y24*%
%IPPOS*%
%LPD*%
%AMOC8*
5,1,8,0,0,1.08239X$1,22.5*
%
%ADD10C,0.0000*%
%ADD11R,0.0433X0.0394*%
%ADD12R,0.0984X0.0197*%
%ADD13R,0.0984X0.0787*%
%ADD14R,0.0394X0.0433*%
%ADD15R,0.0512X0.0591*%
%ADD16R,0.0410X0.0110*%
%ADD17R,0.0110X0.0410*%
%ADD18R,0.0354X0.0472*%
%ADD19R,0.0600X0.0600*%
%ADD20OC8,0.0600*%
%ADD21R,0.0315X0.0315*%
%ADD22R,0.0551X0.0394*%
%ADD23R,0.0394X0.0610*%
%ADD24R,0.0400X0.0200*%
%ADD25C,0.0100*%
%ADD26C,0.0277*%
%ADD27C,0.0160*%
D10*
X005150Y004018D02*
X005150Y012639D01*
X020645Y012639D01*
X020645Y004018D01*
X005150Y004018D01*
X005336Y008143D02*
X005338Y008167D01*
X005344Y008190D01*
X005353Y008212D01*
X005366Y008232D01*
X005381Y008250D01*
X005400Y008265D01*
X005421Y008277D01*
X005443Y008285D01*
X005466Y008290D01*
X005490Y008291D01*
X005514Y008288D01*
X005536Y008281D01*
X005558Y008271D01*
X005578Y008258D01*
X005595Y008241D01*
X005609Y008222D01*
X005620Y008201D01*
X005628Y008178D01*
X005632Y008155D01*
X005632Y008131D01*
X005628Y008108D01*
X005620Y008085D01*
X005609Y008064D01*
X005595Y008045D01*
X005578Y008028D01*
X005558Y008015D01*
X005536Y008005D01*
X005514Y007998D01*
X005490Y007995D01*
X005466Y007996D01*
X005443Y008001D01*
X005421Y008009D01*
X005400Y008021D01*
X005381Y008036D01*
X005366Y008054D01*
X005353Y008074D01*
X005344Y008096D01*
X005338Y008119D01*
X005336Y008143D01*
X006418Y008143D02*
X006420Y008167D01*
X006426Y008190D01*
X006435Y008212D01*
X006448Y008232D01*
X006463Y008250D01*
X006482Y008265D01*
X006503Y008277D01*
X006525Y008285D01*
X006548Y008290D01*
X006572Y008291D01*
X006596Y008288D01*
X006618Y008281D01*
X006640Y008271D01*
X006660Y008258D01*
X006677Y008241D01*
X006691Y008222D01*
X006702Y008201D01*
X006710Y008178D01*
X006714Y008155D01*
X006714Y008131D01*
X006710Y008108D01*
X006702Y008085D01*
X006691Y008064D01*
X006677Y008045D01*
X006660Y008028D01*
X006640Y008015D01*
X006618Y008005D01*
X006596Y007998D01*
X006572Y007995D01*
X006548Y007996D01*
X006525Y008001D01*
X006503Y008009D01*
X006482Y008021D01*
X006463Y008036D01*
X006448Y008054D01*
X006435Y008074D01*
X006426Y008096D01*
X006420Y008119D01*
X006418Y008143D01*
X018598Y009527D02*
X018600Y009553D01*
X018606Y009579D01*
X018616Y009604D01*
X018629Y009627D01*
X018645Y009647D01*
X018665Y009665D01*
X018687Y009680D01*
X018710Y009692D01*
X018736Y009700D01*
X018762Y009704D01*
X018788Y009704D01*
X018814Y009700D01*
X018840Y009692D01*
X018864Y009680D01*
X018885Y009665D01*
X018905Y009647D01*
X018921Y009627D01*
X018934Y009604D01*
X018944Y009579D01*
X018950Y009553D01*
X018952Y009527D01*
X018950Y009501D01*
X018944Y009475D01*
X018934Y009450D01*
X018921Y009427D01*
X018905Y009407D01*
X018885Y009389D01*
X018863Y009374D01*
X018840Y009362D01*
X018814Y009354D01*
X018788Y009350D01*
X018762Y009350D01*
X018736Y009354D01*
X018710Y009362D01*
X018686Y009374D01*
X018665Y009389D01*
X018645Y009407D01*
X018629Y009427D01*
X018616Y009450D01*
X018606Y009475D01*
X018600Y009501D01*
X018598Y009527D01*
X018598Y011259D02*
X018600Y011285D01*
X018606Y011311D01*
X018616Y011336D01*
X018629Y011359D01*
X018645Y011379D01*
X018665Y011397D01*
X018687Y011412D01*
X018710Y011424D01*
X018736Y011432D01*
X018762Y011436D01*
X018788Y011436D01*
X018814Y011432D01*
X018840Y011424D01*
X018864Y011412D01*
X018885Y011397D01*
X018905Y011379D01*
X018921Y011359D01*
X018934Y011336D01*
X018944Y011311D01*
X018950Y011285D01*
X018952Y011259D01*
X018950Y011233D01*
X018944Y011207D01*
X018934Y011182D01*
X018921Y011159D01*
X018905Y011139D01*
X018885Y011121D01*
X018863Y011106D01*
X018840Y011094D01*
X018814Y011086D01*
X018788Y011082D01*
X018762Y011082D01*
X018736Y011086D01*
X018710Y011094D01*
X018686Y011106D01*
X018665Y011121D01*
X018645Y011139D01*
X018629Y011159D01*
X018616Y011182D01*
X018606Y011207D01*
X018600Y011233D01*
X018598Y011259D01*
D11*
X016150Y009478D03*
X015400Y009478D03*
X015400Y008809D03*
X016150Y008809D03*
X016900Y008353D03*
X016900Y007684D03*
X016900Y007103D03*
X016900Y006434D03*
X014735Y004893D03*
X014065Y004893D03*
X012485Y005018D03*
X011815Y005018D03*
X010985Y004643D03*
X010315Y004643D03*
X010235Y005518D03*
X009565Y005518D03*
X009860Y006393D03*
X009190Y006393D03*
X009190Y009393D03*
X009860Y009393D03*
X010940Y009893D03*
X011610Y009893D03*
D12*
X017791Y009763D03*
X017791Y010078D03*
X017791Y010393D03*
X017791Y010708D03*
X017791Y011023D03*
D13*
X017791Y012165D03*
X019956Y012165D03*
X019956Y008622D03*
X017791Y008622D03*
D14*
X015485Y010393D03*
X014815Y010393D03*
X012485Y011768D03*
X011815Y011768D03*
X015275Y006353D03*
X015275Y005684D03*
D15*
X009649Y004643D03*
X008901Y004643D03*
X010901Y010893D03*
X011649Y010893D03*
D16*
X011260Y008598D03*
X011260Y008408D03*
X011260Y008208D03*
X011260Y008008D03*
X011260Y007818D03*
X011260Y007618D03*
X011260Y007418D03*
X011260Y007218D03*
X011260Y007028D03*
X011260Y006828D03*
X011260Y006628D03*
X011260Y006438D03*
X014540Y006438D03*
X014540Y006628D03*
X014540Y006828D03*
X014540Y007028D03*
X014540Y007218D03*
X014540Y007418D03*
X014540Y007618D03*
X014540Y007818D03*
X014540Y008008D03*
X014540Y008208D03*
X014540Y008408D03*
X014540Y008598D03*
D17*
X013980Y009158D03*
X013790Y009158D03*
X013590Y009158D03*
X013390Y009158D03*
X013200Y009158D03*
X013000Y009158D03*
X012800Y009158D03*
X012600Y009158D03*
X012410Y009158D03*
X012210Y009158D03*
X012010Y009158D03*
X011820Y009158D03*
X011820Y005878D03*
X012010Y005878D03*
X012210Y005878D03*
X012410Y005878D03*
X012600Y005878D03*
X012800Y005878D03*
X013000Y005878D03*
X013200Y005878D03*
X013390Y005878D03*
X013590Y005878D03*
X013790Y005878D03*
X013980Y005878D03*
D18*
X009958Y007165D03*
X009092Y007165D03*
X009092Y008622D03*
X009958Y008622D03*
D19*
X019650Y005143D03*
D20*
X019650Y006143D03*
D21*
X006320Y006268D03*
X005730Y006268D03*
X005730Y005518D03*
X006320Y005518D03*
X006320Y004768D03*
X005730Y004768D03*
D22*
X013217Y010769D03*
X014083Y011143D03*
X013217Y011517D03*
D23*
X006360Y009177D03*
X005690Y009177D03*
X005690Y007110D03*
X006360Y007110D03*
D24*
X007000Y005963D03*
X007000Y005648D03*
X007000Y005333D03*
X007000Y005018D03*
X007650Y005018D03*
X007650Y005333D03*
X007650Y005648D03*
X007650Y005963D03*
D25*
X007650Y006393D01*
X006985Y007059D01*
X006485Y007059D01*
X006666Y007219D02*
X006666Y007461D01*
X006602Y007525D01*
X006117Y007525D01*
X006053Y007461D01*
X006053Y006759D01*
X006117Y006695D01*
X006602Y006695D01*
X006666Y006759D01*
X006666Y006899D01*
X006918Y006899D01*
X007490Y006327D01*
X007490Y006173D01*
X007404Y006173D01*
X007340Y006109D01*
X007340Y005818D01*
X007352Y005806D01*
X007340Y005794D01*
X007340Y005503D01*
X007352Y005491D01*
X007340Y005479D01*
X007340Y005188D01*
X007352Y005176D01*
X007340Y005164D01*
X007340Y004873D01*
X007404Y004808D01*
X007896Y004808D01*
X007910Y004823D01*
X007939Y004752D01*
X008009Y004682D01*
X008101Y004645D01*
X008199Y004645D01*
X008291Y004682D01*
X008361Y004752D01*
X008399Y004844D01*
X008399Y004943D01*
X008361Y005034D01*
X008361Y005035D01*
X008416Y005057D01*
X008486Y005127D01*
X008524Y005219D01*
X008524Y005318D01*
X008486Y005409D01*
X008416Y005479D01*
X008324Y005517D01*
X008226Y005517D01*
X008173Y005495D01*
X008155Y005496D01*
X007953Y005496D01*
X007951Y005493D02*
X007960Y005503D01*
X007960Y005794D01*
X007948Y005806D01*
X007960Y005818D01*
X007960Y006109D01*
X007896Y006173D01*
X007810Y006173D01*
X007810Y006460D01*
X007051Y007219D01*
X006666Y007219D01*
X006666Y007269D02*
X008805Y007269D01*
X008805Y007367D02*
X006666Y007367D01*
X006661Y007466D02*
X008824Y007466D01*
X008805Y007447D02*
X008805Y006883D01*
X008869Y006819D01*
X009315Y006819D01*
X009379Y006883D01*
X009379Y007447D01*
X009315Y007511D01*
X008869Y007511D01*
X008805Y007447D01*
X008805Y007170D02*
X007099Y007170D01*
X007198Y007072D02*
X008805Y007072D01*
X008805Y006973D02*
X007296Y006973D01*
X007395Y006875D02*
X008813Y006875D01*
X008916Y006730D02*
X008882Y006710D01*
X008854Y006682D01*
X008834Y006648D01*
X008824Y006610D01*
X008824Y006442D01*
X009142Y006442D01*
X009142Y006740D01*
X008954Y006740D01*
X008916Y006730D01*
X008851Y006678D02*
X007592Y006678D01*
X007690Y006579D02*
X008824Y006579D01*
X008824Y006481D02*
X007789Y006481D01*
X007810Y006382D02*
X009142Y006382D01*
X009142Y006345D02*
X008824Y006345D01*
X008824Y006177D01*
X008834Y006139D01*
X008854Y006104D01*
X008882Y006076D01*
X008916Y006057D01*
X008954Y006046D01*
X009142Y006046D01*
X009142Y006345D01*
X009142Y006442D01*
X009239Y006442D01*
X009239Y006740D01*
X009427Y006740D01*
X009465Y006730D01*
X009499Y006710D01*
X009527Y006682D01*
X009546Y006649D01*
X009598Y006700D01*
X009740Y006700D01*
X009740Y006819D01*
X009735Y006819D01*
X009671Y006883D01*
X009671Y007447D01*
X009735Y007511D01*
X010042Y007511D01*
X010189Y007658D01*
X009534Y007658D01*
X009084Y008108D01*
X008990Y008202D01*
X008990Y008275D01*
X008869Y008275D01*
X008805Y008340D01*
X008805Y008903D01*
X008869Y008968D01*
X008990Y008968D01*
X008990Y009086D01*
X008928Y009086D01*
X008864Y009151D01*
X008864Y009636D01*
X008928Y009700D01*
X009452Y009700D01*
X009504Y009649D01*
X009523Y009682D01*
X009551Y009710D01*
X009585Y009730D01*
X009623Y009740D01*
X009811Y009740D01*
X009811Y009442D01*
X009908Y009442D01*
X009908Y009740D01*
X010096Y009740D01*
X010134Y009730D01*
X010168Y009710D01*
X010196Y009682D01*
X010216Y009648D01*
X010226Y009610D01*
X010226Y009442D01*
X009908Y009442D01*
X009908Y009345D01*
X010226Y009345D01*
X010226Y009177D01*
X010216Y009139D01*
X010196Y009104D01*
X010168Y009076D01*
X010134Y009057D01*
X010096Y009046D01*
X009908Y009046D01*
X009908Y009345D01*
X009811Y009345D01*
X009811Y009046D01*
X009623Y009046D01*
X009585Y009057D01*
X009551Y009076D01*
X009523Y009104D01*
X009504Y009138D01*
X009452Y009086D01*
X009310Y009086D01*
X009310Y008968D01*
X009315Y008968D01*
X009379Y008903D01*
X009379Y008340D01*
X009342Y008303D01*
X009666Y007978D01*
X010945Y007978D01*
X010945Y008699D01*
X011009Y008763D01*
X011511Y008763D01*
X011516Y008758D01*
X011660Y008758D01*
X011660Y008903D01*
X011655Y008908D01*
X011655Y009409D01*
X011660Y009414D01*
X011660Y009586D01*
X011348Y009586D01*
X011296Y009638D01*
X011277Y009604D01*
X011249Y009576D01*
X011215Y009557D01*
X011177Y009546D01*
X010989Y009546D01*
X010989Y009845D01*
X010892Y009845D01*
X010574Y009845D01*
X010574Y009677D01*
X010584Y009639D01*
X010604Y009604D01*
X010632Y009576D01*
X010666Y009557D01*
X010704Y009546D01*
X010892Y009546D01*
X010892Y009845D01*
X010892Y009942D01*
X010892Y010240D01*
X010704Y010240D01*
X010666Y010230D01*
X010632Y010210D01*
X010604Y010182D01*
X010584Y010148D01*
X010574Y010110D01*
X010574Y009942D01*
X010892Y009942D01*
X010989Y009942D01*
X010989Y010240D01*
X011177Y010240D01*
X011215Y010230D01*
X011249Y010210D01*
X011277Y010182D01*
X011296Y010149D01*
X011348Y010200D01*
X011534Y010200D01*
X011526Y010219D01*
X011526Y010318D01*
X011564Y010409D01*
X011615Y010460D01*
X011615Y010488D01*
X011348Y010488D01*
X011296Y010539D01*
X011277Y010506D01*
X011249Y010478D01*
X011215Y010458D01*
X011177Y010448D01*
X010951Y010448D01*
X010951Y010843D01*
X010851Y010843D01*
X010851Y010448D01*
X010625Y010448D01*
X010587Y010458D01*
X010553Y010478D01*
X010525Y010506D01*
X010505Y010540D01*
X010495Y010578D01*
X010495Y010843D01*
X010851Y010843D01*
X010851Y010943D01*
X010495Y010943D01*
X010495Y011208D01*
X010505Y011246D01*
X010525Y011281D01*
X010553Y011309D01*
X010587Y011328D01*
X010625Y011339D01*
X010851Y011339D01*
X010851Y010943D01*
X010951Y010943D01*
X010951Y011339D01*
X011177Y011339D01*
X011215Y011328D01*
X011249Y011309D01*
X011277Y011281D01*
X011296Y011247D01*
X011348Y011299D01*
X011950Y011299D01*
X012015Y011234D01*
X012015Y011053D01*
X012591Y011053D01*
X012685Y010960D01*
X012716Y010928D01*
X012831Y010929D01*
X012831Y011012D01*
X012896Y011076D01*
X013538Y011076D01*
X013603Y011012D01*
X013603Y010527D01*
X013538Y010462D01*
X012896Y010462D01*
X012831Y010527D01*
X012831Y010609D01*
X012716Y010608D01*
X012716Y010608D01*
X012650Y010608D01*
X012584Y010608D01*
X012584Y010608D01*
X012584Y010608D01*
X012537Y010655D01*
X012490Y010702D01*
X012490Y010702D01*
X012459Y010733D01*
X012015Y010733D01*
X012015Y010552D01*
X011950Y010488D01*
X011935Y010488D01*
X011935Y010460D01*
X011986Y010409D01*
X012024Y010318D01*
X012024Y010219D01*
X011986Y010127D01*
X011936Y010078D01*
X011936Y009833D01*
X011980Y009790D01*
X011980Y009513D01*
X012010Y009513D01*
X012010Y009158D01*
X012010Y008803D01*
X012085Y008803D01*
X012123Y008814D01*
X012157Y008833D01*
X012167Y008843D01*
X012440Y008843D01*
X012440Y008785D01*
X012422Y008767D01*
X012351Y008767D01*
X012259Y008729D01*
X012189Y008659D01*
X012151Y008568D01*
X012151Y008469D01*
X012189Y008377D01*
X012259Y008307D01*
X012351Y008270D01*
X012449Y008270D01*
X012541Y008307D01*
X012611Y008377D01*
X012649Y008469D01*
X012649Y008541D01*
X012760Y008652D01*
X012760Y008843D01*
X014081Y008843D01*
X014145Y008908D01*
X014145Y009409D01*
X014140Y009414D01*
X014140Y009797D01*
X014166Y009807D01*
X014236Y009877D01*
X014274Y009969D01*
X014274Y010068D01*
X014236Y010159D01*
X014166Y010229D01*
X014074Y010267D01*
X013976Y010267D01*
X013884Y010229D01*
X013814Y010159D01*
X013776Y010068D01*
X013776Y009969D01*
X013814Y009877D01*
X013820Y009872D01*
X013820Y009473D01*
X012570Y009473D01*
X012570Y009520D01*
X012574Y009520D01*
X012666Y009557D01*
X012736Y009627D01*
X012774Y009719D01*
X012774Y009818D01*
X012736Y009909D01*
X012666Y009979D01*
X012574Y010017D01*
X012476Y010017D01*
X012384Y009979D01*
X012370Y009965D01*
X012370Y010163D01*
X012416Y010182D01*
X012486Y010252D01*
X012524Y010344D01*
X012524Y010443D01*
X012486Y010534D01*
X012416Y010604D01*
X012324Y010642D01*
X012226Y010642D01*
X012134Y010604D01*
X012064Y010534D01*
X012026Y010443D01*
X012026Y010344D01*
X012050Y010287D01*
X012050Y009513D01*
X012010Y009513D01*
X012010Y009158D01*
X012010Y009158D01*
X012010Y008803D01*
X011980Y008803D01*
X011980Y008415D01*
X012216Y008178D01*
X012591Y008178D01*
X012685Y008085D01*
X013091Y007678D01*
X013583Y007678D01*
X013634Y007729D01*
X013726Y007767D01*
X013824Y007767D01*
X013916Y007729D01*
X013986Y007659D01*
X014024Y007568D01*
X014024Y007469D01*
X014015Y007448D01*
X014015Y006835D01*
X014066Y006784D01*
X014104Y006693D01*
X014104Y006594D01*
X014088Y006556D01*
X014140Y006505D01*
X014140Y006134D01*
X014145Y006129D01*
X014145Y005628D01*
X014140Y005623D01*
X014140Y005200D01*
X014327Y005200D01*
X014379Y005149D01*
X014398Y005182D01*
X014426Y005210D01*
X014460Y005230D01*
X014498Y005240D01*
X014686Y005240D01*
X014686Y004942D01*
X014783Y004942D01*
X014783Y005240D01*
X014971Y005240D01*
X015009Y005230D01*
X015043Y005210D01*
X015071Y005182D01*
X015091Y005148D01*
X015101Y005110D01*
X015101Y004942D01*
X014783Y004942D01*
X014783Y004845D01*
X015101Y004845D01*
X015101Y004677D01*
X015091Y004639D01*
X015071Y004604D01*
X015043Y004576D01*
X015009Y004557D01*
X014971Y004546D01*
X014783Y004546D01*
X014783Y004845D01*
X014686Y004845D01*
X014686Y004546D01*
X014498Y004546D01*
X014460Y004557D01*
X014426Y004576D01*
X014398Y004604D01*
X014379Y004638D01*
X014327Y004586D01*
X013944Y004586D01*
X013685Y004327D01*
X013591Y004233D01*
X011209Y004233D01*
X011115Y004327D01*
X011106Y004336D01*
X010723Y004336D01*
X010658Y004401D01*
X010658Y004886D01*
X010723Y004950D01*
X011247Y004950D01*
X011311Y004886D01*
X011311Y004583D01*
X011341Y004553D01*
X012365Y004553D01*
X012365Y004711D01*
X012223Y004711D01*
X012171Y004763D01*
X012152Y004729D01*
X012124Y004701D01*
X012090Y004682D01*
X012052Y004671D01*
X011864Y004671D01*
X011864Y004970D01*
X011767Y004970D01*
X011449Y004970D01*
X011449Y004802D01*
X011459Y004764D01*
X011479Y004729D01*
X011507Y004701D01*
X011541Y004682D01*
X011579Y004671D01*
X011767Y004671D01*
X011767Y004970D01*
X011767Y005067D01*
X011767Y005365D01*
X011579Y005365D01*
X011541Y005355D01*
X011507Y005335D01*
X011479Y005307D01*
X011459Y005273D01*
X011449Y005235D01*
X011449Y005067D01*
X011767Y005067D01*
X011864Y005067D01*
X011864Y005365D01*
X012052Y005365D01*
X012090Y005355D01*
X012124Y005335D01*
X012152Y005307D01*
X012171Y005274D01*
X012223Y005325D01*
X012440Y005325D01*
X012440Y005563D01*
X011719Y005563D01*
X011655Y005628D01*
X011655Y005718D01*
X011576Y005718D01*
X011274Y005416D01*
X011274Y005344D01*
X011236Y005252D01*
X011166Y005182D01*
X011074Y005145D01*
X010976Y005145D01*
X010884Y005182D01*
X010814Y005252D01*
X010776Y005344D01*
X010776Y005443D01*
X010814Y005534D01*
X010884Y005604D01*
X010976Y005642D01*
X011047Y005642D01*
X011444Y006038D01*
X011655Y006038D01*
X011655Y006129D01*
X011719Y006193D01*
X012623Y006193D01*
X012564Y006252D01*
X012526Y006344D01*
X012526Y006443D01*
X012564Y006534D01*
X012634Y006604D01*
X012726Y006642D01*
X012824Y006642D01*
X012916Y006604D01*
X012986Y006534D01*
X013024Y006443D01*
X013024Y006344D01*
X012986Y006252D01*
X012960Y006227D01*
X012960Y006193D01*
X013633Y006193D01*
X013643Y006203D01*
X013677Y006223D01*
X013715Y006233D01*
X013790Y006233D01*
X013790Y005878D01*
X013790Y005523D01*
X013820Y005523D01*
X013820Y005200D01*
X013803Y005200D01*
X013739Y005136D01*
X013739Y004833D01*
X013459Y004553D01*
X012685Y004553D01*
X012685Y004711D01*
X012747Y004711D01*
X012811Y004776D01*
X012811Y005261D01*
X012760Y005312D01*
X012760Y005563D01*
X012840Y005563D01*
X012840Y005227D01*
X013026Y005041D01*
X013026Y004969D01*
X013064Y004877D01*
X013134Y004807D01*
X013226Y004770D01*
X013324Y004770D01*
X013416Y004807D01*
X013486Y004877D01*
X013524Y004969D01*
X013524Y005068D01*
X013486Y005159D01*
X013416Y005229D01*
X013324Y005267D01*
X013253Y005267D01*
X013160Y005360D01*
X013160Y005563D01*
X013633Y005563D01*
X013643Y005553D01*
X013677Y005534D01*
X013715Y005523D01*
X013790Y005523D01*
X013790Y005878D01*
X013790Y005878D01*
X013790Y006233D01*
X013820Y006233D01*
X013820Y006372D01*
X013807Y006385D01*
X013772Y006402D01*
X013769Y006410D01*
X013714Y006432D01*
X013644Y006502D01*
X013606Y006594D01*
X013606Y006693D01*
X013644Y006784D01*
X013695Y006835D01*
X013695Y007282D01*
X013634Y007307D01*
X013583Y007358D01*
X012959Y007358D01*
X012459Y007858D01*
X012084Y007858D01*
X011660Y008282D01*
X011660Y008438D01*
X011575Y008438D01*
X011575Y007578D01*
X011609Y007578D01*
X011615Y007585D01*
X011709Y007678D01*
X011958Y007678D01*
X012009Y007729D01*
X012101Y007767D01*
X012199Y007767D01*
X012291Y007729D01*
X012361Y007659D01*
X012399Y007568D01*
X012399Y007469D01*
X012361Y007377D01*
X012291Y007307D01*
X012199Y007270D01*
X012101Y007270D01*
X012009Y007307D01*
X011958Y007358D01*
X011841Y007358D01*
X011741Y007258D01*
X011615Y007258D01*
X011615Y007218D01*
X011260Y007218D01*
X011260Y007218D01*
X010905Y007218D01*
X010905Y007188D01*
X010719Y007188D01*
X010537Y007007D01*
X010490Y006960D01*
X010490Y006960D01*
X010490Y006960D01*
X010490Y006893D01*
X010489Y005959D01*
X010356Y005825D01*
X009973Y005825D01*
X009921Y005774D01*
X009902Y005807D01*
X009874Y005835D01*
X009840Y005855D01*
X009802Y005865D01*
X009614Y005865D01*
X009614Y005567D01*
X009517Y005567D01*
X009517Y005865D01*
X009329Y005865D01*
X009291Y005855D01*
X009257Y005835D01*
X009229Y005807D01*
X009209Y005773D01*
X009199Y005735D01*
X009199Y005567D01*
X009517Y005567D01*
X009517Y005470D01*
X009199Y005470D01*
X009199Y005302D01*
X009209Y005264D01*
X009229Y005229D01*
X009257Y005201D01*
X009291Y005182D01*
X009329Y005171D01*
X009517Y005171D01*
X009517Y005470D01*
X009614Y005470D01*
X009614Y005171D01*
X009802Y005171D01*
X009840Y005182D01*
X009874Y005201D01*
X009902Y005229D01*
X009921Y005263D01*
X009973Y005211D01*
X010115Y005211D01*
X010115Y004950D01*
X010053Y004950D01*
X010015Y004912D01*
X010015Y004984D01*
X009950Y005049D01*
X009348Y005049D01*
X009296Y004997D01*
X009277Y005031D01*
X009249Y005059D01*
X009215Y005078D01*
X009177Y005089D01*
X008951Y005089D01*
X008951Y004693D01*
X008851Y004693D01*
X008851Y004593D01*
X008951Y004593D01*
X008951Y004198D01*
X009177Y004198D01*
X009215Y004208D01*
X009249Y004228D01*
X009277Y004256D01*
X009296Y004289D01*
X009348Y004238D01*
X009950Y004238D01*
X010015Y004302D01*
X010015Y004375D01*
X010053Y004336D01*
X010577Y004336D01*
X010642Y004401D01*
X010642Y004886D01*
X010577Y004950D01*
X010435Y004950D01*
X010435Y005211D01*
X010497Y005211D01*
X010561Y005276D01*
X010561Y005578D01*
X010762Y005779D01*
X010809Y005826D01*
X010809Y005892D01*
X010810Y006827D01*
X010851Y006868D01*
X010945Y006868D01*
X010945Y006338D01*
X011009Y006273D01*
X011511Y006273D01*
X011516Y006278D01*
X011704Y006278D01*
X011726Y006270D01*
X011824Y006270D01*
X011916Y006307D01*
X011986Y006377D01*
X012024Y006469D01*
X012024Y006568D01*
X011986Y006659D01*
X011939Y006706D01*
X011986Y006752D01*
X012024Y006844D01*
X012024Y006943D01*
X011986Y007034D01*
X011916Y007104D01*
X011824Y007142D01*
X011753Y007142D01*
X011706Y007188D01*
X011615Y007188D01*
X011615Y007218D01*
X011260Y007218D01*
X011260Y007218D01*
X010905Y007218D01*
X010905Y007293D01*
X010915Y007331D01*
X010935Y007365D01*
X010945Y007375D01*
X010945Y007458D01*
X010441Y007458D01*
X010245Y007262D01*
X010245Y006883D01*
X010181Y006819D01*
X010060Y006819D01*
X010060Y006700D01*
X010122Y006700D01*
X010186Y006636D01*
X010186Y006151D01*
X010122Y006086D01*
X009598Y006086D01*
X009546Y006138D01*
X009527Y006104D01*
X009499Y006076D01*
X009465Y006057D01*
X009427Y006046D01*
X009239Y006046D01*
X009239Y006345D01*
X009142Y006345D01*
X009142Y006284D02*
X009239Y006284D01*
X009239Y006185D02*
X009142Y006185D01*
X009142Y006087D02*
X009239Y006087D01*
X009509Y006087D02*
X009597Y006087D01*
X009614Y005791D02*
X009517Y005791D01*
X009517Y005693D02*
X009614Y005693D01*
X009614Y005594D02*
X009517Y005594D01*
X009517Y005496D02*
X008376Y005496D01*
X008491Y005397D02*
X009199Y005397D01*
X009200Y005299D02*
X008524Y005299D01*
X008516Y005200D02*
X009259Y005200D01*
X009293Y005003D02*
X009302Y005003D01*
X009517Y005200D02*
X009614Y005200D01*
X009614Y005299D02*
X009517Y005299D01*
X009517Y005397D02*
X009614Y005397D01*
X009199Y005594D02*
X007960Y005594D01*
X007960Y005693D02*
X009199Y005693D01*
X009220Y005791D02*
X007960Y005791D01*
X007960Y005890D02*
X010420Y005890D01*
X010489Y005988D02*
X007960Y005988D01*
X007960Y006087D02*
X008871Y006087D01*
X008824Y006185D02*
X007810Y006185D01*
X007810Y006284D02*
X008824Y006284D01*
X009142Y006481D02*
X009239Y006481D01*
X009239Y006579D02*
X009142Y006579D01*
X009142Y006678D02*
X009239Y006678D01*
X009371Y006875D02*
X009679Y006875D01*
X009671Y006973D02*
X009379Y006973D01*
X009379Y007072D02*
X009671Y007072D01*
X009671Y007170D02*
X009379Y007170D01*
X009379Y007269D02*
X009671Y007269D01*
X009671Y007367D02*
X009379Y007367D01*
X009360Y007466D02*
X009690Y007466D01*
X009529Y007663D02*
X005300Y007663D01*
X005300Y007761D02*
X009431Y007761D01*
X009332Y007860D02*
X006660Y007860D01*
X006626Y007846D02*
X006735Y007891D01*
X006819Y007975D01*
X006864Y008084D01*
X006864Y008203D01*
X006819Y008312D01*
X006772Y008358D01*
X008216Y008358D01*
X008503Y008645D01*
X008574Y008645D01*
X008666Y008682D01*
X008736Y008752D01*
X008774Y008844D01*
X008774Y008943D01*
X008736Y009034D01*
X008666Y009104D01*
X008574Y009142D01*
X008476Y009142D01*
X008384Y009104D01*
X008314Y009034D01*
X008276Y008943D01*
X008276Y008871D01*
X008084Y008678D01*
X006091Y008678D01*
X005975Y008794D01*
X005975Y008804D01*
X005997Y008826D01*
X005997Y009527D01*
X005933Y009592D01*
X005448Y009592D01*
X005384Y009527D01*
X005384Y008826D01*
X005448Y008762D01*
X005655Y008762D01*
X005655Y008662D01*
X005865Y008452D01*
X005959Y008358D01*
X006360Y008358D01*
X006314Y008312D01*
X006269Y008203D01*
X006269Y008084D01*
X006314Y007975D01*
X006398Y007891D01*
X006507Y007846D01*
X006626Y007846D01*
X006473Y007860D02*
X005577Y007860D01*
X005543Y007846D02*
X005652Y007891D01*
X005736Y007975D01*
X005781Y008084D01*
X005781Y008203D01*
X005736Y008312D01*
X005652Y008396D01*
X005543Y008441D01*
X005424Y008441D01*
X005315Y008396D01*
X005300Y008381D01*
X005300Y012489D01*
X017189Y012489D01*
X017189Y011726D01*
X017253Y011661D01*
X018328Y011661D01*
X018393Y011726D01*
X018393Y012489D01*
X019354Y012489D01*
X019354Y011726D01*
X019418Y011661D01*
X020494Y011661D01*
X020495Y011663D01*
X020495Y009124D01*
X020494Y009125D01*
X019418Y009125D01*
X019354Y009061D01*
X019354Y008182D01*
X019418Y008118D01*
X020494Y008118D01*
X020495Y008119D01*
X020495Y004168D01*
X005300Y004168D01*
X005300Y007906D01*
X005315Y007891D01*
X005424Y007846D01*
X005543Y007846D01*
X005390Y007860D02*
X005300Y007860D01*
X005300Y007564D02*
X010095Y007564D01*
X010375Y007618D02*
X010025Y007268D01*
X009936Y007268D01*
X009958Y007165D01*
X009900Y007223D01*
X009900Y006518D01*
X009860Y006478D01*
X009860Y006393D01*
X010186Y006382D02*
X010489Y006382D01*
X010489Y006284D02*
X010186Y006284D01*
X010186Y006185D02*
X010489Y006185D01*
X010489Y006087D02*
X010122Y006087D01*
X009939Y005791D02*
X009911Y005791D01*
X010235Y005518D02*
X010275Y005517D01*
X010275Y004643D01*
X010315Y004643D01*
X010275Y004643D02*
X009649Y004643D01*
X009996Y005003D02*
X010115Y005003D01*
X010115Y005102D02*
X008460Y005102D01*
X008525Y005031D02*
X008505Y004996D01*
X008495Y004958D01*
X008495Y004693D01*
X008851Y004693D01*
X008851Y005089D01*
X008625Y005089D01*
X008587Y005078D01*
X008553Y005059D01*
X008525Y005031D01*
X008509Y005003D02*
X008374Y005003D01*
X008399Y004905D02*
X008495Y004905D01*
X008495Y004806D02*
X008383Y004806D01*
X008316Y004708D02*
X008495Y004708D01*
X008495Y004593D02*
X008495Y004328D01*
X008505Y004290D01*
X008525Y004256D01*
X008553Y004228D01*
X008587Y004208D01*
X008625Y004198D01*
X008851Y004198D01*
X008851Y004593D01*
X008495Y004593D01*
X008495Y004511D02*
X006533Y004511D01*
X006523Y004501D02*
X006588Y004565D01*
X006588Y004810D01*
X006637Y004858D01*
X006704Y004858D01*
X006754Y004808D01*
X007246Y004808D01*
X007310Y004873D01*
X007310Y005164D01*
X007298Y005176D01*
X007310Y005188D01*
X007310Y005479D01*
X007298Y005491D01*
X007310Y005503D01*
X007310Y005794D01*
X007298Y005806D01*
X007310Y005818D01*
X007310Y006109D01*
X007246Y006173D01*
X006754Y006173D01*
X006704Y006123D01*
X006692Y006123D01*
X006588Y006227D01*
X006588Y006471D01*
X006523Y006536D01*
X006117Y006536D01*
X006053Y006471D01*
X006053Y006065D01*
X006117Y006001D01*
X006361Y006001D01*
X006559Y005803D01*
X006699Y005803D01*
X006690Y005794D01*
X006690Y005503D01*
X006699Y005493D01*
X006588Y005493D01*
X006588Y005721D01*
X006523Y005786D01*
X006117Y005786D01*
X006053Y005721D01*
X006053Y005315D01*
X006117Y005251D01*
X006361Y005251D01*
X006439Y005173D01*
X006499Y005173D01*
X006361Y005036D01*
X006117Y005036D01*
X006053Y004971D01*
X006053Y004565D01*
X006117Y004501D01*
X006523Y004501D01*
X006588Y004609D02*
X008851Y004609D01*
X008851Y004511D02*
X008951Y004511D01*
X008951Y004412D02*
X008851Y004412D01*
X008851Y004314D02*
X008951Y004314D01*
X008951Y004215D02*
X008851Y004215D01*
X008575Y004215D02*
X005300Y004215D01*
X005300Y004314D02*
X008499Y004314D01*
X008495Y004412D02*
X005300Y004412D01*
X005300Y004511D02*
X005460Y004511D01*
X005452Y004519D02*
X005480Y004491D01*
X005514Y004471D01*
X005552Y004461D01*
X005701Y004461D01*
X005701Y004740D01*
X005422Y004740D01*
X005422Y004591D01*
X005432Y004553D01*
X005452Y004519D01*
X005422Y004609D02*
X005300Y004609D01*
X005300Y004708D02*
X005422Y004708D01*
X005422Y004797D02*
X005422Y004946D01*
X005432Y004984D01*
X005452Y005018D01*
X005480Y005046D01*
X005514Y005066D01*
X005552Y005076D01*
X005701Y005076D01*
X005701Y004797D01*
X005701Y004740D01*
X005758Y004740D01*
X005758Y004461D01*
X005907Y004461D01*
X005945Y004471D01*
X005979Y004491D01*
X006007Y004519D01*
X006027Y004553D01*
X006037Y004591D01*
X006037Y004740D01*
X005758Y004740D01*
X005758Y004797D01*
X005701Y004797D01*
X005422Y004797D01*
X005422Y004806D02*
X005300Y004806D01*
X005300Y004905D02*
X005422Y004905D01*
X005444Y005003D02*
X005300Y005003D01*
X005300Y005102D02*
X006428Y005102D01*
X006412Y005200D02*
X005300Y005200D01*
X005300Y005299D02*
X005435Y005299D01*
X005432Y005303D02*
X005452Y005269D01*
X005480Y005241D01*
X005514Y005221D01*
X005552Y005211D01*
X005701Y005211D01*
X005701Y005490D01*
X005422Y005490D01*
X005422Y005341D01*
X005432Y005303D01*
X005422Y005397D02*
X005300Y005397D01*
X005300Y005496D02*
X005701Y005496D01*
X005701Y005490D02*
X005701Y005547D01*
X005422Y005547D01*
X005422Y005696D01*
X005432Y005734D01*
X005452Y005768D01*
X005480Y005796D01*
X005514Y005816D01*
X005552Y005826D01*
X005701Y005826D01*
X005701Y005547D01*
X005758Y005547D01*
X005758Y005826D01*
X005907Y005826D01*
X005945Y005816D01*
X005979Y005796D01*
X006007Y005768D01*
X006027Y005734D01*
X006037Y005696D01*
X006037Y005547D01*
X005758Y005547D01*
X005758Y005490D01*
X005758Y005211D01*
X005907Y005211D01*
X005945Y005221D01*
X005979Y005241D01*
X006007Y005269D01*
X006027Y005303D01*
X006037Y005341D01*
X006037Y005490D01*
X005758Y005490D01*
X005701Y005490D01*
X005758Y005496D02*
X006053Y005496D01*
X006053Y005594D02*
X006037Y005594D01*
X006037Y005693D02*
X006053Y005693D01*
X005984Y005791D02*
X006690Y005791D01*
X006690Y005693D02*
X006588Y005693D01*
X006588Y005594D02*
X006690Y005594D01*
X006697Y005496D02*
X006588Y005496D01*
X006505Y005333D02*
X006320Y005518D01*
X006505Y005333D02*
X007000Y005333D01*
X007310Y005299D02*
X007340Y005299D01*
X007340Y005397D02*
X007310Y005397D01*
X007303Y005496D02*
X007347Y005496D01*
X007340Y005594D02*
X007310Y005594D01*
X007310Y005693D02*
X007340Y005693D01*
X007340Y005791D02*
X007310Y005791D01*
X007310Y005890D02*
X007340Y005890D01*
X007340Y005988D02*
X007310Y005988D01*
X007310Y006087D02*
X007340Y006087D01*
X007490Y006185D02*
X006630Y006185D01*
X006588Y006284D02*
X007490Y006284D01*
X007435Y006382D02*
X006588Y006382D01*
X006578Y006481D02*
X007336Y006481D01*
X007238Y006579D02*
X005300Y006579D01*
X005300Y006481D02*
X005432Y006481D01*
X005432Y006484D02*
X005422Y006446D01*
X005422Y006297D01*
X005701Y006297D01*
X005701Y006240D01*
X005422Y006240D01*
X005422Y006091D01*
X005432Y006053D01*
X005452Y006019D01*
X005480Y005991D01*
X005514Y005971D01*
X005552Y005961D01*
X005701Y005961D01*
X005701Y006240D01*
X005758Y006240D01*
X005758Y005961D01*
X005907Y005961D01*
X005945Y005971D01*
X005979Y005991D01*
X006007Y006019D01*
X006027Y006053D01*
X006037Y006091D01*
X006037Y006240D01*
X005758Y006240D01*
X005758Y006297D01*
X005701Y006297D01*
X005701Y006576D01*
X005552Y006576D01*
X005514Y006566D01*
X005480Y006546D01*
X005452Y006518D01*
X005432Y006484D01*
X005422Y006382D02*
X005300Y006382D01*
X005300Y006284D02*
X005701Y006284D01*
X005758Y006284D02*
X006053Y006284D01*
X006037Y006297D02*
X006037Y006446D01*
X006027Y006484D01*
X006007Y006518D01*
X005979Y006546D01*
X005945Y006566D01*
X005907Y006576D01*
X005758Y006576D01*
X005758Y006297D01*
X006037Y006297D01*
X006037Y006382D02*
X006053Y006382D01*
X006062Y006481D02*
X006028Y006481D01*
X005933Y006695D02*
X005997Y006759D01*
X005997Y007461D01*
X005933Y007525D01*
X005448Y007525D01*
X005384Y007461D01*
X005384Y006759D01*
X005448Y006695D01*
X005933Y006695D01*
X005997Y006776D02*
X006053Y006776D01*
X006053Y006875D02*
X005997Y006875D01*
X005997Y006973D02*
X006053Y006973D01*
X006053Y007072D02*
X005997Y007072D01*
X005997Y007170D02*
X006053Y007170D01*
X006053Y007269D02*
X005997Y007269D01*
X005997Y007367D02*
X006053Y007367D01*
X006058Y007466D02*
X005992Y007466D01*
X005389Y007466D02*
X005300Y007466D01*
X005300Y007367D02*
X005384Y007367D01*
X005384Y007269D02*
X005300Y007269D01*
X005300Y007170D02*
X005384Y007170D01*
X005384Y007072D02*
X005300Y007072D01*
X005300Y006973D02*
X005384Y006973D01*
X005384Y006875D02*
X005300Y006875D01*
X005300Y006776D02*
X005384Y006776D01*
X005300Y006678D02*
X007139Y006678D01*
X007041Y006776D02*
X006666Y006776D01*
X006666Y006875D02*
X006942Y006875D01*
X007493Y006776D02*
X009740Y006776D01*
X009575Y006678D02*
X009529Y006678D01*
X010060Y006776D02*
X010490Y006776D01*
X010490Y006678D02*
X010144Y006678D01*
X010186Y006579D02*
X010490Y006579D01*
X010490Y006481D02*
X010186Y006481D01*
X010237Y006875D02*
X010490Y006875D01*
X010504Y006973D02*
X010245Y006973D01*
X010245Y007072D02*
X010602Y007072D01*
X010701Y007170D02*
X010245Y007170D01*
X010252Y007269D02*
X010905Y007269D01*
X010937Y007367D02*
X010350Y007367D01*
X010025Y007268D02*
X009900Y007143D01*
X010375Y007618D02*
X011260Y007618D01*
X011260Y007418D02*
X011675Y007418D01*
X011775Y007518D01*
X012150Y007518D01*
X012351Y007367D02*
X012950Y007367D01*
X012851Y007466D02*
X012397Y007466D01*
X012399Y007564D02*
X012753Y007564D01*
X012654Y007663D02*
X012357Y007663D01*
X012213Y007761D02*
X012556Y007761D01*
X012811Y007958D02*
X014225Y007958D01*
X014225Y008048D02*
X014225Y006338D01*
X014289Y006273D01*
X014791Y006273D01*
X014796Y006278D01*
X014968Y006278D01*
X014968Y006091D01*
X015019Y006040D01*
X014986Y006020D01*
X014958Y005992D01*
X014938Y005958D01*
X014928Y005920D01*
X014928Y005732D01*
X015227Y005732D01*
X015227Y005635D01*
X015323Y005635D01*
X015323Y005317D01*
X015492Y005317D01*
X015530Y005327D01*
X015564Y005347D01*
X015592Y005375D01*
X015612Y005409D01*
X015622Y005447D01*
X015622Y005635D01*
X015323Y005635D01*
X015323Y005732D01*
X015622Y005732D01*
X015622Y005920D01*
X015612Y005958D01*
X015592Y005992D01*
X015564Y006020D01*
X015531Y006040D01*
X015582Y006091D01*
X015582Y006615D01*
X015517Y006679D01*
X015507Y006679D01*
X015524Y006719D01*
X015524Y006818D01*
X015503Y006868D01*
X015824Y006868D01*
X016115Y006577D01*
X016115Y005702D01*
X016740Y005077D01*
X016834Y004983D01*
X019240Y004983D01*
X019240Y004798D01*
X019304Y004733D01*
X019996Y004733D01*
X020060Y004798D01*
X020060Y005489D01*
X019996Y005553D01*
X019304Y005553D01*
X019240Y005489D01*
X019240Y005303D01*
X016966Y005303D01*
X016435Y005835D01*
X016435Y006710D01*
X016341Y006803D01*
X016086Y007058D01*
X016573Y007058D01*
X016573Y006861D01*
X016638Y006796D01*
X017162Y006796D01*
X017227Y006861D01*
X017227Y007345D01*
X017179Y007393D01*
X017227Y007441D01*
X017227Y007926D01*
X017162Y007991D01*
X016638Y007991D01*
X016573Y007926D01*
X016573Y007441D01*
X016621Y007393D01*
X016606Y007378D01*
X016111Y007378D01*
X016128Y007395D01*
X016199Y007395D01*
X016291Y007432D01*
X016361Y007502D01*
X016399Y007594D01*
X016399Y007693D01*
X016361Y007784D01*
X016291Y007854D01*
X016199Y007892D01*
X016101Y007892D01*
X016024Y007860D01*
X016024Y007943D01*
X015986Y008034D01*
X015916Y008104D01*
X015824Y008142D01*
X015750Y008142D01*
X016110Y008502D01*
X016412Y008502D01*
X016477Y008566D01*
X016477Y009051D01*
X016412Y009116D01*
X015888Y009116D01*
X015823Y009051D01*
X015823Y008668D01*
X015727Y008571D01*
X015727Y009051D01*
X015662Y009116D01*
X015138Y009116D01*
X015073Y009051D01*
X015073Y008566D01*
X015138Y008502D01*
X015240Y008502D01*
X015240Y008460D01*
X014949Y008168D01*
X014855Y008168D01*
X014855Y008699D01*
X014791Y008763D01*
X014700Y008763D01*
X014700Y009270D01*
X014791Y009307D01*
X014861Y009377D01*
X014899Y009469D01*
X014899Y009568D01*
X014861Y009659D01*
X014791Y009729D01*
X014699Y009767D01*
X014601Y009767D01*
X014509Y009729D01*
X014439Y009659D01*
X014401Y009568D01*
X014401Y009469D01*
X014402Y009467D01*
X014380Y009445D01*
X014380Y009434D01*
X014373Y009425D01*
X014380Y009369D01*
X014380Y008763D01*
X014289Y008763D01*
X014225Y008699D01*
X014225Y008368D01*
X013780Y008368D01*
X013774Y008374D01*
X013774Y008443D01*
X013736Y008534D01*
X013666Y008604D01*
X013574Y008642D01*
X013476Y008642D01*
X013384Y008604D01*
X013314Y008534D01*
X013276Y008443D01*
X013276Y008344D01*
X013314Y008252D01*
X013384Y008182D01*
X013476Y008145D01*
X013551Y008145D01*
X013603Y008094D01*
X013649Y008048D01*
X013650Y008048D01*
X013651Y008047D01*
X013716Y008048D01*
X014225Y008048D01*
X014540Y008008D02*
X015015Y008008D01*
X015400Y008393D01*
X015400Y008809D01*
X015727Y008845D02*
X015823Y008845D01*
X015823Y008943D02*
X015727Y008943D01*
X015727Y009042D02*
X015823Y009042D01*
X015888Y009171D02*
X015823Y009236D01*
X015823Y009720D01*
X015888Y009785D01*
X016181Y009785D01*
X016187Y009793D01*
X016200Y009794D01*
X016639Y010233D01*
X015791Y010233D01*
X015791Y010131D01*
X015727Y010067D01*
X015560Y010067D01*
X015560Y009785D01*
X015662Y009785D01*
X015727Y009720D01*
X015727Y009236D01*
X015662Y009171D01*
X015138Y009171D01*
X015073Y009236D01*
X015073Y009720D01*
X015138Y009785D01*
X015240Y009785D01*
X015240Y010069D01*
X015178Y010131D01*
X015178Y010655D01*
X015242Y010720D01*
X015727Y010720D01*
X015791Y010655D01*
X015791Y010553D01*
X017200Y010553D01*
X017189Y010564D01*
X017189Y010823D01*
X017179Y010833D01*
X017159Y010867D01*
X017149Y010905D01*
X017149Y011023D01*
X017791Y011023D01*
X017791Y011023D01*
X018433Y011023D01*
X018433Y010905D01*
X018423Y010867D01*
X018403Y010833D01*
X018393Y010823D01*
X018393Y010564D01*
X018379Y010551D01*
X018393Y010537D01*
X018393Y010249D01*
X018379Y010236D01*
X018393Y010222D01*
X018393Y009934D01*
X018379Y009921D01*
X018393Y009907D01*
X018393Y009619D01*
X018328Y009555D01*
X017253Y009555D01*
X017235Y009573D01*
X017177Y009573D01*
X017173Y009565D01*
X017103Y009495D01*
X017060Y009477D01*
X017060Y008660D01*
X017162Y008660D01*
X017189Y008633D01*
X017189Y009061D01*
X017253Y009125D01*
X018328Y009125D01*
X018393Y009061D01*
X018393Y008182D01*
X018328Y008118D01*
X017253Y008118D01*
X017227Y008144D01*
X017227Y008111D01*
X017162Y008046D01*
X016638Y008046D01*
X016573Y008111D01*
X016573Y008595D01*
X016638Y008660D01*
X016740Y008660D01*
X016740Y009593D01*
X016714Y009656D01*
X016714Y009755D01*
X016752Y009847D01*
X016822Y009917D01*
X016826Y009918D01*
X016776Y009918D01*
X016477Y009619D01*
X016477Y009236D01*
X016412Y009171D01*
X015888Y009171D01*
X015823Y009239D02*
X015727Y009239D01*
X015727Y009337D02*
X015823Y009337D01*
X015823Y009436D02*
X015727Y009436D01*
X015727Y009534D02*
X015823Y009534D01*
X015823Y009633D02*
X015727Y009633D01*
X015716Y009731D02*
X015834Y009731D01*
X015560Y009830D02*
X016235Y009830D01*
X016334Y009928D02*
X015560Y009928D01*
X015560Y010027D02*
X016432Y010027D01*
X016531Y010125D02*
X015786Y010125D01*
X015791Y010224D02*
X016629Y010224D01*
X016710Y010078D02*
X016275Y009643D01*
X016150Y009478D01*
X016477Y009436D02*
X016740Y009436D01*
X016740Y009534D02*
X016477Y009534D01*
X016491Y009633D02*
X016723Y009633D01*
X016714Y009731D02*
X016589Y009731D01*
X016688Y009830D02*
X016745Y009830D01*
X016900Y009643D02*
X016963Y009706D01*
X016900Y009643D02*
X016900Y008353D01*
X016573Y008352D02*
X015960Y008352D01*
X015862Y008254D02*
X016573Y008254D01*
X016573Y008155D02*
X015763Y008155D01*
X015963Y008057D02*
X016627Y008057D01*
X016606Y007958D02*
X016017Y007958D01*
X015775Y007893D02*
X015500Y007618D01*
X014540Y007618D01*
X014540Y007418D02*
X015925Y007418D01*
X016150Y007643D01*
X016324Y007466D02*
X016573Y007466D01*
X016573Y007564D02*
X016387Y007564D01*
X016399Y007663D02*
X016573Y007663D01*
X016573Y007761D02*
X016370Y007761D01*
X016277Y007860D02*
X016573Y007860D01*
X016900Y007684D02*
X016900Y007143D01*
X016900Y007103D01*
X016900Y007143D02*
X016825Y007218D01*
X014540Y007218D01*
X014540Y007028D02*
X015890Y007028D01*
X016275Y006643D01*
X016275Y005768D01*
X016900Y005143D01*
X019650Y005143D01*
X020060Y005102D02*
X020495Y005102D01*
X020495Y005200D02*
X020060Y005200D01*
X020060Y005299D02*
X020495Y005299D01*
X020495Y005397D02*
X020060Y005397D01*
X020053Y005496D02*
X020495Y005496D01*
X020495Y005594D02*
X016675Y005594D01*
X016774Y005496D02*
X019247Y005496D01*
X019240Y005397D02*
X016872Y005397D01*
X016617Y005200D02*
X015053Y005200D01*
X015101Y005102D02*
X016715Y005102D01*
X016814Y005003D02*
X015101Y005003D01*
X015101Y004806D02*
X019240Y004806D01*
X019240Y004905D02*
X014783Y004905D01*
X014783Y005003D02*
X014686Y005003D01*
X014686Y005102D02*
X014783Y005102D01*
X014783Y005200D02*
X014686Y005200D01*
X014416Y005200D02*
X014140Y005200D01*
X014140Y005299D02*
X016518Y005299D01*
X016420Y005397D02*
X015605Y005397D01*
X015622Y005496D02*
X016321Y005496D01*
X016223Y005594D02*
X015622Y005594D01*
X015622Y005791D02*
X016115Y005791D01*
X016124Y005693D02*
X015323Y005693D01*
X015227Y005693D02*
X014145Y005693D01*
X014145Y005791D02*
X014928Y005791D01*
X014928Y005890D02*
X014145Y005890D01*
X014145Y005988D02*
X014956Y005988D01*
X014972Y006087D02*
X014145Y006087D01*
X014140Y006185D02*
X014968Y006185D01*
X015275Y006353D02*
X015275Y006768D01*
X015524Y006776D02*
X015916Y006776D01*
X016014Y006678D02*
X015519Y006678D01*
X015582Y006579D02*
X016113Y006579D01*
X016115Y006481D02*
X015582Y006481D01*
X015582Y006382D02*
X016115Y006382D01*
X016115Y006284D02*
X015582Y006284D01*
X015582Y006185D02*
X016115Y006185D01*
X016115Y006087D02*
X015578Y006087D01*
X015594Y005988D02*
X016115Y005988D01*
X016115Y005890D02*
X015622Y005890D01*
X015323Y005594D02*
X015227Y005594D01*
X015227Y005635D02*
X015227Y005317D01*
X015058Y005317D01*
X015020Y005327D01*
X014986Y005347D01*
X014958Y005375D01*
X014938Y005409D01*
X014928Y005447D01*
X014928Y005635D01*
X015227Y005635D01*
X015227Y005496D02*
X015323Y005496D01*
X015323Y005397D02*
X015227Y005397D01*
X014945Y005397D02*
X014140Y005397D01*
X014140Y005496D02*
X014928Y005496D01*
X014928Y005594D02*
X014140Y005594D01*
X013820Y005496D02*
X013160Y005496D01*
X013160Y005397D02*
X013820Y005397D01*
X013820Y005299D02*
X013221Y005299D01*
X013000Y005293D02*
X013275Y005018D01*
X013445Y005200D02*
X013820Y005200D01*
X013739Y005102D02*
X013510Y005102D01*
X013524Y005003D02*
X013739Y005003D01*
X013739Y004905D02*
X013497Y004905D01*
X013413Y004806D02*
X013712Y004806D01*
X013613Y004708D02*
X012685Y004708D01*
X012685Y004609D02*
X013515Y004609D01*
X013525Y004393D02*
X012525Y004393D01*
X012525Y004978D01*
X012485Y005018D01*
X012600Y005153D01*
X012600Y005878D01*
X012800Y005878D02*
X012800Y006368D01*
X012775Y006393D01*
X013024Y006382D02*
X013810Y006382D01*
X013820Y006284D02*
X012999Y006284D01*
X012551Y006284D02*
X011859Y006284D01*
X011988Y006382D02*
X012526Y006382D01*
X012542Y006481D02*
X012024Y006481D01*
X012019Y006579D02*
X012609Y006579D01*
X012941Y006579D02*
X013612Y006579D01*
X013606Y006678D02*
X011967Y006678D01*
X011996Y006776D02*
X013641Y006776D01*
X013695Y006875D02*
X012024Y006875D01*
X012011Y006973D02*
X013695Y006973D01*
X013695Y007072D02*
X011948Y007072D01*
X011724Y007170D02*
X013695Y007170D01*
X013695Y007269D02*
X011752Y007269D01*
X011640Y007028D02*
X011260Y007028D01*
X010785Y007028D01*
X010650Y006893D01*
X010649Y005892D01*
X010275Y005518D01*
X010275Y005517D01*
X010275Y005518D02*
X010235Y005518D01*
X010561Y005496D02*
X010798Y005496D01*
X010776Y005397D02*
X010561Y005397D01*
X010561Y005299D02*
X010795Y005299D01*
X010866Y005200D02*
X010435Y005200D01*
X010435Y005102D02*
X011449Y005102D01*
X011449Y005200D02*
X011184Y005200D01*
X011255Y005299D02*
X011474Y005299D01*
X011274Y005397D02*
X012440Y005397D01*
X012440Y005496D02*
X011354Y005496D01*
X011452Y005594D02*
X011688Y005594D01*
X011655Y005693D02*
X011551Y005693D01*
X011510Y005878D02*
X011025Y005393D01*
X010874Y005594D02*
X010577Y005594D01*
X010676Y005693D02*
X011098Y005693D01*
X011197Y005791D02*
X010774Y005791D01*
X010809Y005826D02*
X010809Y005826D01*
X010809Y005826D01*
X010809Y005890D02*
X011295Y005890D01*
X011394Y005988D02*
X010809Y005988D01*
X010809Y006087D02*
X011655Y006087D01*
X011711Y006185D02*
X010809Y006185D01*
X010809Y006284D02*
X010999Y006284D01*
X010945Y006382D02*
X010809Y006382D01*
X010810Y006481D02*
X010945Y006481D01*
X010945Y006579D02*
X010810Y006579D01*
X010810Y006678D02*
X010945Y006678D01*
X010945Y006776D02*
X010810Y006776D01*
X011260Y006438D02*
X011695Y006438D01*
X011775Y006518D01*
X011775Y006893D02*
X011640Y007028D01*
X011693Y007663D02*
X011575Y007663D01*
X011575Y007761D02*
X012087Y007761D01*
X012082Y007860D02*
X011575Y007860D01*
X011575Y007958D02*
X011984Y007958D01*
X011885Y008057D02*
X011575Y008057D01*
X011575Y008155D02*
X011787Y008155D01*
X011688Y008254D02*
X011575Y008254D01*
X011575Y008352D02*
X011660Y008352D01*
X011820Y008348D02*
X012150Y008018D01*
X012525Y008018D01*
X013025Y007518D01*
X013775Y007518D01*
X013855Y007438D01*
X013855Y006643D01*
X013900Y006518D01*
X013980Y006438D01*
X013980Y005878D01*
X013980Y004813D01*
X014025Y004893D01*
X013525Y004393D01*
X013672Y004314D02*
X020495Y004314D01*
X020495Y004412D02*
X013770Y004412D01*
X013869Y004511D02*
X020495Y004511D01*
X020495Y004609D02*
X015074Y004609D01*
X015101Y004708D02*
X020495Y004708D01*
X020495Y004806D02*
X020060Y004806D01*
X020060Y004905D02*
X020495Y004905D01*
X020495Y005003D02*
X020060Y005003D01*
X019836Y005693D02*
X020100Y005957D01*
X020100Y006093D01*
X019700Y006093D01*
X019700Y005693D01*
X019836Y005693D01*
X019934Y005791D02*
X020495Y005791D01*
X020495Y005693D02*
X016577Y005693D01*
X016478Y005791D02*
X019366Y005791D01*
X019464Y005693D02*
X019200Y005957D01*
X019200Y006093D01*
X019600Y006093D01*
X019700Y006093D01*
X019700Y006193D01*
X020100Y006193D01*
X020100Y006330D01*
X019836Y006593D01*
X019700Y006593D01*
X019700Y006193D01*
X019600Y006193D01*
X019600Y006093D01*
X019600Y005693D01*
X019464Y005693D01*
X019600Y005791D02*
X019700Y005791D01*
X019700Y005890D02*
X019600Y005890D01*
X019600Y005988D02*
X019700Y005988D01*
X019700Y006087D02*
X019600Y006087D01*
X019600Y006185D02*
X017258Y006185D01*
X017256Y006179D02*
X017267Y006217D01*
X017267Y006385D01*
X016948Y006385D01*
X016948Y006087D01*
X016852Y006087D01*
X016852Y006385D01*
X016948Y006385D01*
X016948Y006482D01*
X016852Y006482D01*
X016852Y006781D01*
X016664Y006781D01*
X016626Y006770D01*
X016591Y006751D01*
X016563Y006723D01*
X016544Y006688D01*
X016533Y006650D01*
X016533Y006482D01*
X016852Y006482D01*
X016852Y006385D01*
X016533Y006385D01*
X016533Y006217D01*
X016544Y006179D01*
X016563Y006145D01*
X016591Y006117D01*
X016626Y006097D01*
X016664Y006087D01*
X016852Y006087D01*
X016948Y006087D02*
X017136Y006087D01*
X017174Y006097D01*
X017209Y006117D01*
X017237Y006145D01*
X017256Y006179D01*
X017267Y006284D02*
X019200Y006284D01*
X019200Y006330D02*
X019200Y006193D01*
X019600Y006193D01*
X019600Y006593D01*
X019464Y006593D01*
X019200Y006330D01*
X019253Y006382D02*
X017267Y006382D01*
X017267Y006482D02*
X016948Y006482D01*
X016948Y006781D01*
X017136Y006781D01*
X017174Y006770D01*
X017209Y006751D01*
X017237Y006723D01*
X017256Y006688D01*
X017267Y006650D01*
X017267Y006482D01*
X017267Y006579D02*
X019450Y006579D01*
X019351Y006481D02*
X016948Y006481D01*
X016852Y006481D02*
X016435Y006481D01*
X016435Y006579D02*
X016533Y006579D01*
X016541Y006678D02*
X016435Y006678D01*
X016368Y006776D02*
X016648Y006776D01*
X016573Y006875D02*
X016270Y006875D01*
X016171Y006973D02*
X016573Y006973D01*
X016852Y006776D02*
X016948Y006776D01*
X016948Y006678D02*
X016852Y006678D01*
X016852Y006579D02*
X016948Y006579D01*
X016948Y006382D02*
X016852Y006382D01*
X016852Y006284D02*
X016948Y006284D01*
X016948Y006185D02*
X016852Y006185D01*
X016664Y006087D02*
X016435Y006087D01*
X016435Y006185D02*
X016542Y006185D01*
X016533Y006284D02*
X016435Y006284D01*
X016435Y006382D02*
X016533Y006382D01*
X016435Y005988D02*
X019200Y005988D01*
X019200Y006087D02*
X017136Y006087D01*
X016435Y005890D02*
X019267Y005890D01*
X019600Y006284D02*
X019700Y006284D01*
X019700Y006382D02*
X019600Y006382D01*
X019600Y006481D02*
X019700Y006481D01*
X019700Y006579D02*
X019600Y006579D01*
X019850Y006579D02*
X020495Y006579D01*
X020495Y006481D02*
X019949Y006481D01*
X020047Y006382D02*
X020495Y006382D01*
X020495Y006284D02*
X020100Y006284D01*
X020100Y006087D02*
X020495Y006087D01*
X020495Y006185D02*
X019700Y006185D01*
X020033Y005890D02*
X020495Y005890D01*
X020495Y005988D02*
X020100Y005988D01*
X020495Y006678D02*
X017259Y006678D01*
X017152Y006776D02*
X020495Y006776D01*
X020495Y006875D02*
X017227Y006875D01*
X017227Y006973D02*
X020495Y006973D01*
X020495Y007072D02*
X017227Y007072D01*
X017227Y007170D02*
X020495Y007170D01*
X020495Y007269D02*
X017227Y007269D01*
X017205Y007367D02*
X020495Y007367D01*
X020495Y007466D02*
X017227Y007466D01*
X017227Y007564D02*
X020495Y007564D01*
X020495Y007663D02*
X017227Y007663D01*
X017227Y007761D02*
X020495Y007761D01*
X020495Y007860D02*
X017227Y007860D01*
X017194Y007958D02*
X020495Y007958D01*
X020495Y008057D02*
X017173Y008057D01*
X016573Y008451D02*
X016059Y008451D01*
X015803Y008648D02*
X015727Y008648D01*
X015727Y008746D02*
X015823Y008746D01*
X016150Y008768D02*
X016150Y008809D01*
X016150Y008768D02*
X015200Y007818D01*
X014540Y007818D01*
X014225Y007860D02*
X012910Y007860D01*
X013008Y007761D02*
X013712Y007761D01*
X013838Y007761D02*
X014225Y007761D01*
X014225Y007663D02*
X013982Y007663D01*
X014024Y007564D02*
X014225Y007564D01*
X014225Y007466D02*
X014022Y007466D01*
X014015Y007367D02*
X014225Y007367D01*
X014225Y007269D02*
X014015Y007269D01*
X014015Y007170D02*
X014225Y007170D01*
X014225Y007072D02*
X014015Y007072D01*
X014015Y006973D02*
X014225Y006973D01*
X014225Y006875D02*
X014015Y006875D01*
X014069Y006776D02*
X014225Y006776D01*
X014225Y006678D02*
X014104Y006678D01*
X014098Y006579D02*
X014225Y006579D01*
X014225Y006481D02*
X014140Y006481D01*
X014140Y006382D02*
X014225Y006382D01*
X014279Y006284D02*
X014140Y006284D01*
X014540Y006438D02*
X015315Y006438D01*
X015275Y006353D01*
X013790Y006185D02*
X013790Y006185D01*
X013790Y006087D02*
X013790Y006087D01*
X013790Y005988D02*
X013790Y005988D01*
X013790Y005890D02*
X013790Y005890D01*
X013790Y005878D02*
X013790Y005878D01*
X013790Y005791D02*
X013790Y005791D01*
X013790Y005693D02*
X013790Y005693D01*
X013790Y005594D02*
X013790Y005594D01*
X013000Y005878D02*
X013000Y005293D01*
X012840Y005299D02*
X012773Y005299D01*
X012760Y005397D02*
X012840Y005397D01*
X012840Y005496D02*
X012760Y005496D01*
X012811Y005200D02*
X012867Y005200D01*
X012811Y005102D02*
X012965Y005102D01*
X013026Y005003D02*
X012811Y005003D01*
X012811Y004905D02*
X013053Y004905D01*
X013137Y004806D02*
X012811Y004806D01*
X012365Y004708D02*
X012130Y004708D01*
X012365Y004609D02*
X011311Y004609D01*
X011311Y004708D02*
X011500Y004708D01*
X011449Y004806D02*
X011311Y004806D01*
X011292Y004905D02*
X011449Y004905D01*
X011767Y004905D02*
X011864Y004905D01*
X011864Y004806D02*
X011767Y004806D01*
X011767Y004708D02*
X011864Y004708D01*
X011767Y005003D02*
X010435Y005003D01*
X010623Y004905D02*
X010677Y004905D01*
X010658Y004806D02*
X010642Y004806D01*
X010642Y004708D02*
X010658Y004708D01*
X010658Y004609D02*
X010642Y004609D01*
X010642Y004511D02*
X010658Y004511D01*
X010658Y004412D02*
X010642Y004412D01*
X010985Y004643D02*
X011150Y004518D01*
X011275Y004393D01*
X012525Y004393D01*
X011864Y005102D02*
X011767Y005102D01*
X011767Y005200D02*
X011864Y005200D01*
X011864Y005299D02*
X011767Y005299D01*
X012157Y005299D02*
X012196Y005299D01*
X011820Y005878D02*
X011510Y005878D01*
X013008Y006481D02*
X013666Y006481D01*
X011260Y007818D02*
X009600Y007818D01*
X009150Y008268D01*
X009150Y008439D01*
X009092Y008622D01*
X009092Y008701D01*
X009150Y008643D01*
X009150Y008439D01*
X009379Y008451D02*
X009671Y008451D01*
X009671Y008549D02*
X009379Y008549D01*
X009379Y008648D02*
X009671Y008648D01*
X009671Y008746D02*
X009379Y008746D01*
X009379Y008845D02*
X009671Y008845D01*
X009671Y008903D02*
X009671Y008340D01*
X009735Y008275D01*
X010181Y008275D01*
X010245Y008340D01*
X010245Y008903D01*
X010181Y008968D01*
X009735Y008968D01*
X009671Y008903D01*
X009711Y008943D02*
X009339Y008943D01*
X009310Y009042D02*
X011655Y009042D01*
X011655Y009140D02*
X010216Y009140D01*
X010226Y009239D02*
X011655Y009239D01*
X011655Y009337D02*
X010226Y009337D01*
X010226Y009534D02*
X011660Y009534D01*
X011660Y009436D02*
X009908Y009436D01*
X009908Y009534D02*
X009811Y009534D01*
X009811Y009633D02*
X009908Y009633D01*
X009908Y009731D02*
X009811Y009731D01*
X009590Y009731D02*
X008714Y009731D01*
X008616Y009633D02*
X008864Y009633D01*
X008864Y009534D02*
X008517Y009534D01*
X008419Y009436D02*
X008864Y009436D01*
X008864Y009337D02*
X008320Y009337D01*
X008222Y009239D02*
X008864Y009239D01*
X008874Y009140D02*
X008579Y009140D01*
X008471Y009140D02*
X006666Y009140D01*
X006666Y009233D02*
X008216Y009233D01*
X009091Y010108D01*
X010083Y010108D01*
X010134Y010057D01*
X010226Y010020D01*
X010324Y010020D01*
X010416Y010057D01*
X010486Y010127D01*
X010524Y010219D01*
X010524Y010318D01*
X010486Y010409D01*
X010416Y010479D01*
X010324Y010517D01*
X010226Y010517D01*
X010134Y010479D01*
X010083Y010428D01*
X008959Y010428D01*
X008865Y010335D01*
X008084Y009553D01*
X006641Y009553D01*
X006602Y009592D01*
X006117Y009592D01*
X006053Y009527D01*
X006053Y008826D01*
X006117Y008762D01*
X006602Y008762D01*
X006666Y008826D01*
X006666Y009233D01*
X006666Y009042D02*
X008322Y009042D01*
X008276Y008943D02*
X006666Y008943D01*
X006666Y008845D02*
X008250Y008845D01*
X008152Y008746D02*
X006023Y008746D01*
X005997Y008845D02*
X006053Y008845D01*
X006053Y008943D02*
X005997Y008943D01*
X005997Y009042D02*
X006053Y009042D01*
X006053Y009140D02*
X005997Y009140D01*
X005997Y009239D02*
X006053Y009239D01*
X006053Y009337D02*
X005997Y009337D01*
X005997Y009436D02*
X006053Y009436D01*
X006060Y009534D02*
X005990Y009534D01*
X005815Y009103D02*
X005815Y008728D01*
X006025Y008518D01*
X008150Y008518D01*
X008525Y008893D01*
X008582Y008648D02*
X008805Y008648D01*
X008805Y008746D02*
X008730Y008746D01*
X008774Y008845D02*
X008805Y008845D01*
X008774Y008943D02*
X008845Y008943D01*
X008728Y009042D02*
X008990Y009042D01*
X009150Y009393D02*
X009150Y008643D01*
X008805Y008549D02*
X008407Y008549D01*
X008309Y008451D02*
X008805Y008451D01*
X008805Y008352D02*
X006778Y008352D01*
X006843Y008254D02*
X008990Y008254D01*
X009037Y008155D02*
X006864Y008155D01*
X006853Y008057D02*
X009135Y008057D01*
X009234Y007958D02*
X006802Y007958D01*
X006330Y007958D02*
X005720Y007958D01*
X005770Y008057D02*
X006280Y008057D01*
X006269Y008155D02*
X005781Y008155D01*
X005760Y008254D02*
X006290Y008254D01*
X006354Y008352D02*
X005696Y008352D01*
X005865Y008452D02*
X005865Y008452D01*
X005866Y008451D02*
X005300Y008451D01*
X005300Y008549D02*
X005768Y008549D01*
X005669Y008648D02*
X005300Y008648D01*
X005300Y008746D02*
X005655Y008746D01*
X005384Y008845D02*
X005300Y008845D01*
X005300Y008943D02*
X005384Y008943D01*
X005384Y009042D02*
X005300Y009042D01*
X005300Y009140D02*
X005384Y009140D01*
X005384Y009239D02*
X005300Y009239D01*
X005300Y009337D02*
X005384Y009337D01*
X005384Y009436D02*
X005300Y009436D01*
X005300Y009534D02*
X005390Y009534D01*
X005300Y009633D02*
X008163Y009633D01*
X008262Y009731D02*
X005300Y009731D01*
X005300Y009830D02*
X008360Y009830D01*
X008459Y009928D02*
X005300Y009928D01*
X005300Y010027D02*
X008557Y010027D01*
X008656Y010125D02*
X005300Y010125D01*
X005300Y010224D02*
X008754Y010224D01*
X008853Y010322D02*
X005300Y010322D01*
X005300Y010421D02*
X008951Y010421D01*
X009025Y010268D02*
X010275Y010268D01*
X010342Y010027D02*
X010574Y010027D01*
X010578Y010125D02*
X010484Y010125D01*
X010524Y010224D02*
X010655Y010224D01*
X010522Y010322D02*
X011528Y010322D01*
X011526Y010224D02*
X011225Y010224D01*
X010989Y010224D02*
X010892Y010224D01*
X010892Y010125D02*
X010989Y010125D01*
X010989Y010027D02*
X010892Y010027D01*
X010892Y009928D02*
X008911Y009928D01*
X008813Y009830D02*
X010574Y009830D01*
X010574Y009731D02*
X010129Y009731D01*
X010220Y009633D02*
X010587Y009633D01*
X010892Y009633D02*
X010989Y009633D01*
X010989Y009731D02*
X010892Y009731D01*
X010892Y009830D02*
X010989Y009830D01*
X011293Y009633D02*
X011301Y009633D01*
X011610Y009893D02*
X011650Y009853D01*
X011650Y009893D01*
X011775Y010018D01*
X011775Y010268D01*
X011775Y010893D01*
X011649Y010893D01*
X011775Y010893D02*
X012525Y010893D01*
X012650Y010768D01*
X013217Y010769D01*
X012839Y010519D02*
X012492Y010519D01*
X012524Y010421D02*
X014509Y010421D01*
X014509Y010519D02*
X013595Y010519D01*
X013603Y010618D02*
X014449Y010618D01*
X014509Y010559D02*
X014509Y010131D01*
X014573Y010067D01*
X015058Y010067D01*
X015122Y010131D01*
X015122Y010655D01*
X015058Y010720D01*
X014800Y010720D01*
X014469Y011051D01*
X014469Y011386D01*
X014404Y011450D01*
X013762Y011450D01*
X013697Y011386D01*
X013697Y010901D01*
X013762Y010836D01*
X014231Y010836D01*
X014509Y010559D01*
X014351Y010716D02*
X013603Y010716D01*
X013603Y010815D02*
X014252Y010815D01*
X014275Y011018D02*
X014900Y010393D01*
X014815Y010393D01*
X014775Y010268D01*
X014509Y010224D02*
X014171Y010224D01*
X014250Y010125D02*
X014514Y010125D01*
X014509Y010322D02*
X012515Y010322D01*
X012457Y010224D02*
X013879Y010224D01*
X013800Y010125D02*
X012370Y010125D01*
X012370Y010027D02*
X013776Y010027D01*
X013793Y009928D02*
X012717Y009928D01*
X012769Y009830D02*
X013820Y009830D01*
X013820Y009731D02*
X012774Y009731D01*
X012738Y009633D02*
X013820Y009633D01*
X013820Y009534D02*
X012610Y009534D01*
X012410Y009653D02*
X012525Y009768D01*
X012410Y009653D02*
X012410Y009158D01*
X012600Y009158D02*
X012600Y008718D01*
X012400Y008518D01*
X012586Y008352D02*
X013276Y008352D01*
X013280Y008451D02*
X012641Y008451D01*
X012657Y008549D02*
X013329Y008549D01*
X013525Y008393D02*
X013715Y008208D01*
X014540Y008208D01*
X014225Y008451D02*
X013770Y008451D01*
X013721Y008549D02*
X014225Y008549D01*
X014225Y008648D02*
X012756Y008648D01*
X012760Y008746D02*
X014272Y008746D01*
X014380Y008845D02*
X014082Y008845D01*
X014145Y008943D02*
X014380Y008943D01*
X014380Y009042D02*
X014145Y009042D01*
X014145Y009140D02*
X014380Y009140D01*
X014380Y009239D02*
X014145Y009239D01*
X014145Y009337D02*
X014380Y009337D01*
X014380Y009436D02*
X014140Y009436D01*
X014140Y009534D02*
X014401Y009534D01*
X014428Y009633D02*
X014140Y009633D01*
X014140Y009731D02*
X014514Y009731D01*
X014786Y009731D02*
X015084Y009731D01*
X015073Y009633D02*
X014872Y009633D01*
X014899Y009534D02*
X015073Y009534D01*
X015073Y009436D02*
X014885Y009436D01*
X014821Y009337D02*
X015073Y009337D01*
X015073Y009239D02*
X014700Y009239D01*
X014700Y009140D02*
X016740Y009140D01*
X016740Y009042D02*
X016477Y009042D01*
X016477Y008943D02*
X016740Y008943D01*
X016740Y008845D02*
X016477Y008845D01*
X016477Y008746D02*
X016740Y008746D01*
X016626Y008648D02*
X016477Y008648D01*
X016460Y008549D02*
X016573Y008549D01*
X017060Y008746D02*
X017189Y008746D01*
X017189Y008648D02*
X017174Y008648D01*
X017189Y008845D02*
X017060Y008845D01*
X017060Y008943D02*
X017189Y008943D01*
X017189Y009042D02*
X017060Y009042D01*
X017060Y009140D02*
X020495Y009140D01*
X020495Y009239D02*
X018934Y009239D01*
X018960Y009250D02*
X019052Y009342D01*
X019102Y009462D01*
X019102Y009592D01*
X019052Y009712D01*
X018960Y009805D01*
X018840Y009854D01*
X018710Y009854D01*
X018590Y009805D01*
X018498Y009712D01*
X018448Y009592D01*
X018448Y009462D01*
X018498Y009342D01*
X018590Y009250D01*
X018710Y009200D01*
X018840Y009200D01*
X018960Y009250D01*
X019048Y009337D02*
X020495Y009337D01*
X020495Y009436D02*
X019091Y009436D01*
X019102Y009534D02*
X020495Y009534D01*
X020495Y009633D02*
X019085Y009633D01*
X019034Y009731D02*
X020495Y009731D01*
X020495Y009830D02*
X018899Y009830D01*
X018651Y009830D02*
X018393Y009830D01*
X018387Y009928D02*
X020495Y009928D01*
X020495Y010027D02*
X018393Y010027D01*
X018393Y010125D02*
X020495Y010125D01*
X020495Y010224D02*
X018391Y010224D01*
X018393Y010322D02*
X020495Y010322D01*
X020495Y010421D02*
X018393Y010421D01*
X018393Y010519D02*
X020495Y010519D01*
X020495Y010618D02*
X018393Y010618D01*
X018393Y010716D02*
X020495Y010716D01*
X020495Y010815D02*
X018393Y010815D01*
X018433Y010913D02*
X020495Y010913D01*
X020495Y011012D02*
X018990Y011012D01*
X018960Y010982D02*
X019052Y011074D01*
X019102Y011194D01*
X019102Y011325D01*
X019052Y011445D01*
X018960Y011537D01*
X018840Y011587D01*
X018710Y011587D01*
X018590Y011537D01*
X018498Y011445D01*
X018448Y011325D01*
X018448Y011194D01*
X018498Y011074D01*
X018590Y010982D01*
X018710Y010932D01*
X018840Y010932D01*
X018960Y010982D01*
X019067Y011110D02*
X020495Y011110D01*
X020495Y011209D02*
X019102Y011209D01*
X019102Y011307D02*
X020495Y011307D01*
X020495Y011406D02*
X019068Y011406D01*
X018993Y011504D02*
X020495Y011504D01*
X020495Y011603D02*
X014917Y011603D01*
X014916Y011604D02*
X014824Y011642D01*
X014753Y011642D01*
X014466Y011928D01*
X013459Y011928D01*
X013365Y011835D01*
X013355Y011824D01*
X012896Y011824D01*
X012831Y011760D01*
X012831Y011688D01*
X012791Y011728D01*
X012791Y012030D01*
X012727Y012095D01*
X012242Y012095D01*
X012178Y012030D01*
X012178Y011506D01*
X012242Y011442D01*
X012625Y011442D01*
X012709Y011358D01*
X012831Y011358D01*
X012831Y011275D01*
X012896Y011210D01*
X013538Y011210D01*
X013603Y011275D01*
X013603Y011608D01*
X014334Y011608D01*
X014526Y011416D01*
X014526Y011344D01*
X014564Y011252D01*
X014634Y011182D01*
X014726Y011145D01*
X014824Y011145D01*
X014916Y011182D01*
X014986Y011252D01*
X015024Y011344D01*
X015024Y011443D01*
X014986Y011534D01*
X014916Y011604D01*
X014998Y011504D02*
X018557Y011504D01*
X018482Y011406D02*
X015024Y011406D01*
X015009Y011307D02*
X018448Y011307D01*
X018375Y011242D02*
X018341Y011261D01*
X018303Y011272D01*
X017791Y011272D01*
X017791Y011023D01*
X018433Y011023D01*
X018433Y011141D01*
X018423Y011180D01*
X018403Y011214D01*
X018375Y011242D01*
X018406Y011209D02*
X018448Y011209D01*
X018433Y011110D02*
X018483Y011110D01*
X018433Y011012D02*
X018560Y011012D01*
X017791Y011023D02*
X017791Y011023D01*
X017791Y011023D01*
X017149Y011023D01*
X017149Y011141D01*
X017159Y011180D01*
X017179Y011214D01*
X017207Y011242D01*
X017241Y011261D01*
X017279Y011272D01*
X017791Y011272D01*
X017791Y011023D01*
X017791Y011110D02*
X017791Y011110D01*
X017791Y011209D02*
X017791Y011209D01*
X017176Y011209D02*
X014942Y011209D01*
X014775Y011393D02*
X014400Y011768D01*
X013525Y011768D01*
X013275Y011518D01*
X013274Y011433D01*
X013217Y011517D01*
X013216Y011518D01*
X012775Y011518D01*
X012485Y011809D01*
X012485Y011768D01*
X012178Y011800D02*
X011864Y011800D01*
X011864Y011817D02*
X012162Y011817D01*
X012162Y012005D01*
X012152Y012043D01*
X012132Y012077D01*
X012104Y012105D01*
X012070Y012125D01*
X012032Y012135D01*
X011864Y012135D01*
X011864Y011817D01*
X011767Y011817D01*
X011767Y012135D01*
X011599Y012135D01*
X011561Y012125D01*
X011526Y012105D01*
X011498Y012077D01*
X011479Y012043D01*
X011469Y012005D01*
X011469Y011817D01*
X011767Y011817D01*
X011767Y011720D01*
X011469Y011720D01*
X011469Y011532D01*
X011479Y011494D01*
X011498Y011460D01*
X011526Y011432D01*
X011561Y011412D01*
X011599Y011402D01*
X011767Y011402D01*
X011767Y011720D01*
X011864Y011720D01*
X011864Y011817D01*
X011864Y011898D02*
X011767Y011898D01*
X011767Y011800D02*
X005300Y011800D01*
X005300Y011898D02*
X011469Y011898D01*
X011469Y011997D02*
X005300Y011997D01*
X005300Y012095D02*
X011517Y012095D01*
X011767Y012095D02*
X011864Y012095D01*
X011864Y011997D02*
X011767Y011997D01*
X011864Y011720D02*
X012162Y011720D01*
X012162Y011532D01*
X012152Y011494D01*
X012132Y011460D01*
X012104Y011432D01*
X012070Y011412D01*
X012032Y011402D01*
X011864Y011402D01*
X011864Y011720D01*
X011864Y011701D02*
X011767Y011701D01*
X011767Y011603D02*
X011864Y011603D01*
X011864Y011504D02*
X011767Y011504D01*
X011767Y011406D02*
X011864Y011406D01*
X012047Y011406D02*
X012661Y011406D01*
X012831Y011307D02*
X011250Y011307D01*
X011476Y011504D02*
X005300Y011504D01*
X005300Y011406D02*
X011584Y011406D01*
X011469Y011603D02*
X005300Y011603D01*
X005300Y011701D02*
X011469Y011701D01*
X010951Y011307D02*
X010851Y011307D01*
X010851Y011209D02*
X010951Y011209D01*
X010951Y011110D02*
X010851Y011110D01*
X010851Y011012D02*
X010951Y011012D01*
X010851Y010913D02*
X005300Y010913D01*
X005300Y010815D02*
X010495Y010815D01*
X010495Y010716D02*
X005300Y010716D01*
X005300Y010618D02*
X010495Y010618D01*
X010517Y010519D02*
X005300Y010519D01*
X005300Y011012D02*
X010495Y011012D01*
X010495Y011110D02*
X005300Y011110D01*
X005300Y011209D02*
X010495Y011209D01*
X010552Y011307D02*
X005300Y011307D01*
X005300Y012194D02*
X017189Y012194D01*
X017189Y012292D02*
X005300Y012292D01*
X005300Y012391D02*
X017189Y012391D01*
X017189Y012489D02*
X005300Y012489D01*
X008150Y009393D02*
X009025Y010268D01*
X009010Y010027D02*
X010208Y010027D01*
X010474Y010421D02*
X011576Y010421D01*
X011316Y010519D02*
X011285Y010519D01*
X010951Y010519D02*
X010851Y010519D01*
X010851Y010618D02*
X010951Y010618D01*
X010951Y010716D02*
X010851Y010716D01*
X010851Y010815D02*
X010951Y010815D01*
X011982Y010519D02*
X012058Y010519D01*
X012026Y010421D02*
X011974Y010421D01*
X012022Y010322D02*
X012035Y010322D01*
X012024Y010224D02*
X012050Y010224D01*
X012050Y010125D02*
X011984Y010125D01*
X011936Y010027D02*
X012050Y010027D01*
X012050Y009928D02*
X011936Y009928D01*
X011940Y009830D02*
X012050Y009830D01*
X012050Y009731D02*
X011980Y009731D01*
X011980Y009633D02*
X012050Y009633D01*
X012050Y009534D02*
X011980Y009534D01*
X012010Y009436D02*
X012010Y009436D01*
X012010Y009337D02*
X012010Y009337D01*
X012010Y009239D02*
X012010Y009239D01*
X012010Y009158D02*
X012010Y009158D01*
X012010Y009140D02*
X012010Y009140D01*
X012010Y009042D02*
X012010Y009042D01*
X012010Y008943D02*
X012010Y008943D01*
X012010Y008845D02*
X012010Y008845D01*
X011980Y008746D02*
X012300Y008746D01*
X012184Y008648D02*
X011980Y008648D01*
X011980Y008549D02*
X012151Y008549D01*
X012159Y008451D02*
X011980Y008451D01*
X012042Y008352D02*
X012214Y008352D01*
X012141Y008254D02*
X013314Y008254D01*
X013450Y008155D02*
X012614Y008155D01*
X012713Y008057D02*
X013640Y008057D01*
X014540Y008598D02*
X014540Y009378D01*
X014650Y009518D01*
X014188Y009830D02*
X015240Y009830D01*
X015240Y009928D02*
X014257Y009928D01*
X014274Y010027D02*
X015240Y010027D01*
X015184Y010125D02*
X015116Y010125D01*
X015122Y010224D02*
X015178Y010224D01*
X015178Y010322D02*
X015122Y010322D01*
X015122Y010421D02*
X015178Y010421D01*
X015178Y010519D02*
X015122Y010519D01*
X015122Y010618D02*
X015178Y010618D01*
X015239Y010716D02*
X015061Y010716D01*
X014705Y010815D02*
X017189Y010815D01*
X017189Y010716D02*
X015731Y010716D01*
X015791Y010618D02*
X017189Y010618D01*
X017149Y010913D02*
X014606Y010913D01*
X014508Y011012D02*
X017149Y011012D01*
X017149Y011110D02*
X014469Y011110D01*
X014469Y011209D02*
X014608Y011209D01*
X014541Y011307D02*
X014469Y011307D01*
X014449Y011406D02*
X014526Y011406D01*
X014438Y011504D02*
X013603Y011504D01*
X013603Y011406D02*
X013718Y011406D01*
X013697Y011307D02*
X013603Y011307D01*
X013697Y011209D02*
X012015Y011209D01*
X012015Y011110D02*
X013697Y011110D01*
X013697Y011012D02*
X013602Y011012D01*
X013603Y010913D02*
X013697Y010913D01*
X014025Y011143D02*
X014150Y011018D01*
X014275Y011143D01*
X014275Y011018D01*
X014083Y011143D02*
X014083Y011210D01*
X014025Y011143D01*
X014339Y011603D02*
X013603Y011603D01*
X013429Y011898D02*
X012791Y011898D01*
X012791Y011800D02*
X012871Y011800D01*
X012831Y011701D02*
X012818Y011701D01*
X012791Y011997D02*
X017189Y011997D01*
X017189Y012095D02*
X012114Y012095D01*
X012162Y011997D02*
X012178Y011997D01*
X012178Y011898D02*
X012162Y011898D01*
X012162Y011701D02*
X012178Y011701D01*
X012178Y011603D02*
X012162Y011603D01*
X012155Y011504D02*
X012180Y011504D01*
X012633Y011012D02*
X012831Y011012D01*
X012476Y010716D02*
X012015Y010716D01*
X012015Y010618D02*
X012167Y010618D01*
X012383Y010618D02*
X012574Y010618D01*
X012275Y010393D02*
X012210Y010328D01*
X012210Y009158D01*
X011820Y009158D02*
X011820Y009723D01*
X011775Y009768D01*
X011650Y009853D01*
X011650Y009893D02*
X011610Y009893D01*
X011820Y009158D02*
X011820Y008643D01*
X011775Y008598D01*
X011260Y008598D01*
X010992Y008746D02*
X010245Y008746D01*
X010245Y008648D02*
X010945Y008648D01*
X010945Y008549D02*
X010245Y008549D01*
X010245Y008451D02*
X010945Y008451D01*
X010945Y008352D02*
X010245Y008352D01*
X010945Y008254D02*
X009391Y008254D01*
X009379Y008352D02*
X009671Y008352D01*
X009489Y008155D02*
X010945Y008155D01*
X010945Y008057D02*
X009588Y008057D01*
X010245Y008845D02*
X011660Y008845D01*
X011655Y008943D02*
X010205Y008943D01*
X009908Y009140D02*
X009811Y009140D01*
X009811Y009239D02*
X009908Y009239D01*
X009908Y009337D02*
X009811Y009337D01*
X009190Y009393D02*
X009150Y009393D01*
X008150Y009393D02*
X006525Y009393D01*
X006308Y009177D01*
X006360Y009177D01*
X005815Y009103D02*
X005814Y009113D01*
X005810Y009123D01*
X005803Y009131D01*
X005795Y009138D01*
X005785Y009142D01*
X005775Y009143D01*
X005758Y006481D02*
X005701Y006481D01*
X005701Y006382D02*
X005758Y006382D01*
X005758Y006185D02*
X005701Y006185D01*
X005701Y006087D02*
X005758Y006087D01*
X005758Y005988D02*
X005701Y005988D01*
X005701Y005791D02*
X005758Y005791D01*
X005758Y005693D02*
X005701Y005693D01*
X005701Y005594D02*
X005758Y005594D01*
X005758Y005397D02*
X005701Y005397D01*
X005701Y005299D02*
X005758Y005299D01*
X006025Y005299D02*
X006069Y005299D01*
X006053Y005397D02*
X006037Y005397D01*
X005422Y005594D02*
X005300Y005594D01*
X005300Y005693D02*
X005422Y005693D01*
X005476Y005791D02*
X005300Y005791D01*
X005300Y005890D02*
X006472Y005890D01*
X006374Y005988D02*
X005975Y005988D01*
X006036Y006087D02*
X006053Y006087D01*
X006053Y006185D02*
X006037Y006185D01*
X006320Y006268D02*
X006625Y005963D01*
X007000Y005963D01*
X007650Y005333D02*
X008215Y005333D01*
X008275Y005268D01*
X008174Y005496D02*
X008156Y005496D01*
X008155Y005496D02*
X008152Y005493D01*
X007951Y005493D01*
X008025Y005018D02*
X007650Y005018D01*
X007340Y005003D02*
X007310Y005003D01*
X007310Y004905D02*
X007340Y004905D01*
X007000Y005018D02*
X006570Y005018D01*
X006320Y004768D01*
X006053Y004806D02*
X006037Y004806D01*
X006037Y004797D02*
X006037Y004946D01*
X006027Y004984D01*
X006007Y005018D01*
X005979Y005046D01*
X005945Y005066D01*
X005907Y005076D01*
X005758Y005076D01*
X005758Y004797D01*
X006037Y004797D01*
X006037Y004708D02*
X006053Y004708D01*
X006053Y004609D02*
X006037Y004609D01*
X005999Y004511D02*
X006107Y004511D01*
X005758Y004511D02*
X005701Y004511D01*
X005701Y004609D02*
X005758Y004609D01*
X005758Y004708D02*
X005701Y004708D01*
X005701Y004806D02*
X005758Y004806D01*
X005758Y004905D02*
X005701Y004905D01*
X005701Y005003D02*
X005758Y005003D01*
X006016Y005003D02*
X006085Y005003D01*
X006053Y004905D02*
X006037Y004905D01*
X006588Y004806D02*
X007917Y004806D01*
X007984Y004708D02*
X006588Y004708D01*
X007310Y005102D02*
X007340Y005102D01*
X007340Y005200D02*
X007310Y005200D01*
X008025Y005018D02*
X008150Y004893D01*
X008851Y004905D02*
X008951Y004905D01*
X008951Y005003D02*
X008851Y005003D01*
X008851Y004806D02*
X008951Y004806D01*
X008951Y004708D02*
X008851Y004708D01*
X009227Y004215D02*
X020495Y004215D01*
X014783Y004609D02*
X014686Y004609D01*
X014686Y004708D02*
X014783Y004708D01*
X014783Y004806D02*
X014686Y004806D01*
X014395Y004609D02*
X014350Y004609D01*
X014065Y004893D02*
X014025Y004934D01*
X014025Y004893D01*
X011128Y004314D02*
X010015Y004314D01*
X010115Y005200D02*
X009872Y005200D01*
X005484Y005988D02*
X005300Y005988D01*
X005300Y006087D02*
X005423Y006087D01*
X005422Y006185D02*
X005300Y006185D01*
X011820Y008348D02*
X011820Y008643D01*
X013980Y009158D02*
X013980Y009938D01*
X014025Y010018D01*
X014700Y009042D02*
X015073Y009042D01*
X015073Y008943D02*
X014700Y008943D01*
X014700Y008845D02*
X015073Y008845D01*
X015073Y008746D02*
X014808Y008746D01*
X014855Y008648D02*
X015073Y008648D01*
X015090Y008549D02*
X014855Y008549D01*
X014855Y008451D02*
X015231Y008451D01*
X015133Y008352D02*
X014855Y008352D01*
X014855Y008254D02*
X015034Y008254D01*
X016477Y009239D02*
X016740Y009239D01*
X016740Y009337D02*
X016477Y009337D01*
X017060Y009337D02*
X018502Y009337D01*
X018459Y009436D02*
X017060Y009436D01*
X017143Y009534D02*
X018448Y009534D01*
X018465Y009633D02*
X018393Y009633D01*
X018393Y009731D02*
X018516Y009731D01*
X017791Y010078D02*
X016710Y010078D01*
X017791Y010393D02*
X015525Y010393D01*
X015400Y010268D01*
X015485Y010393D01*
X015400Y010268D02*
X015400Y009393D01*
X015406Y009524D01*
X015400Y009478D01*
X017060Y009239D02*
X018616Y009239D01*
X018393Y009042D02*
X019354Y009042D01*
X019354Y008943D02*
X018393Y008943D01*
X018393Y008845D02*
X019354Y008845D01*
X019354Y008746D02*
X018393Y008746D01*
X018393Y008648D02*
X019354Y008648D01*
X019354Y008549D02*
X018393Y008549D01*
X018393Y008451D02*
X019354Y008451D01*
X019354Y008352D02*
X018393Y008352D01*
X018393Y008254D02*
X019354Y008254D01*
X019381Y008155D02*
X018366Y008155D01*
X018369Y011701D02*
X019378Y011701D01*
X019354Y011800D02*
X018393Y011800D01*
X018393Y011898D02*
X019354Y011898D01*
X019354Y011997D02*
X018393Y011997D01*
X018393Y012095D02*
X019354Y012095D01*
X019354Y012194D02*
X018393Y012194D01*
X018393Y012292D02*
X019354Y012292D01*
X019354Y012391D02*
X018393Y012391D01*
X018393Y012489D02*
X019354Y012489D01*
X017189Y011898D02*
X014496Y011898D01*
X014595Y011800D02*
X017189Y011800D01*
X017213Y011701D02*
X014693Y011701D01*
D26*
X014775Y011393D03*
X016025Y011393D03*
X016025Y010018D03*
X016963Y009706D03*
X017650Y009268D03*
X016275Y008268D03*
X015775Y007893D03*
X016150Y007643D03*
X015275Y006768D03*
X013855Y006643D03*
X013275Y006518D03*
X012775Y006393D03*
X012275Y006518D03*
X011775Y006518D03*
X011775Y006893D03*
X012275Y007143D03*
X012150Y007518D03*
X011775Y008018D03*
X012400Y008518D03*
X012900Y008643D03*
X013525Y008393D03*
X013275Y008018D03*
X013775Y007518D03*
X011025Y006018D03*
X011525Y005518D03*
X011025Y005393D03*
X013275Y005018D03*
X013400Y005393D03*
X016025Y005393D03*
X016025Y004768D03*
X017025Y005643D03*
X018275Y004768D03*
X018275Y006893D03*
X017650Y006893D03*
X019775Y007893D03*
X020025Y009893D03*
X020025Y011143D03*
X014900Y009143D03*
X014650Y009518D03*
X014275Y009143D03*
X014025Y010018D03*
X013025Y009768D03*
X012525Y009768D03*
X011775Y010268D03*
X012275Y010393D03*
X010650Y009393D03*
X010275Y010268D03*
X009525Y010893D03*
X007900Y011143D03*
X006525Y011143D03*
X005525Y010518D03*
X007150Y009018D03*
X008525Y008893D03*
X007150Y007893D03*
X008150Y007143D03*
X008650Y006643D03*
X010400Y007143D03*
X010525Y008393D03*
X008275Y005268D03*
X008150Y004893D03*
X007525Y004393D03*
X011150Y012143D03*
X013525Y012143D03*
D27*
X016963Y009706D02*
X017020Y009763D01*
X017791Y009763D01*
X017775Y009268D02*
X017775Y008643D01*
X020025Y008643D01*
X020025Y009893D01*
X020025Y011143D02*
X020025Y012143D01*
X017775Y012143D01*
X017775Y011518D01*
X006400Y009143D02*
X006400Y009136D01*
X006360Y009177D01*
X005775Y009143D02*
X005690Y009228D01*
X005690Y009177D01*
X005690Y007110D02*
X005650Y007069D01*
X006360Y007110D02*
X006485Y007059D01*
X006400Y007143D01*
M02*
