G75*
%MOIN*%
%OFA0B0*%
%FSLAX24Y24*%
%IPPOS*%
%LPD*%
%AMOC8*
5,1,8,0,0,1.08239X$1,22.5*
%
%ADD10C,0.0000*%
%ADD11R,0.0433X0.0394*%
%ADD12R,0.0390X0.0272*%
%ADD13R,0.0551X0.0394*%
%ADD14R,0.0591X0.0512*%
%ADD15R,0.0512X0.0591*%
%ADD16R,0.0394X0.0433*%
%ADD17R,0.0236X0.0610*%
%ADD18R,0.0472X0.0709*%
%ADD19R,0.0780X0.0220*%
%ADD20R,0.0610X0.0236*%
%ADD21R,0.0709X0.0472*%
%ADD22R,0.0600X0.0600*%
%ADD23OC8,0.0600*%
%ADD24C,0.0100*%
%ADD25C,0.0277*%
%ADD26C,0.0160*%
D10*
X005150Y004018D02*
X005150Y012639D01*
X020645Y012639D01*
X020645Y004018D01*
X005150Y004018D01*
X005336Y008143D02*
X005338Y008167D01*
X005344Y008190D01*
X005353Y008212D01*
X005366Y008232D01*
X005381Y008250D01*
X005400Y008265D01*
X005421Y008277D01*
X005443Y008285D01*
X005466Y008290D01*
X005490Y008291D01*
X005514Y008288D01*
X005536Y008281D01*
X005558Y008271D01*
X005578Y008258D01*
X005595Y008241D01*
X005609Y008222D01*
X005620Y008201D01*
X005628Y008178D01*
X005632Y008155D01*
X005632Y008131D01*
X005628Y008108D01*
X005620Y008085D01*
X005609Y008064D01*
X005595Y008045D01*
X005578Y008028D01*
X005558Y008015D01*
X005536Y008005D01*
X005514Y007998D01*
X005490Y007995D01*
X005466Y007996D01*
X005443Y008001D01*
X005421Y008009D01*
X005400Y008021D01*
X005381Y008036D01*
X005366Y008054D01*
X005353Y008074D01*
X005344Y008096D01*
X005338Y008119D01*
X005336Y008143D01*
X006418Y008143D02*
X006420Y008167D01*
X006426Y008190D01*
X006435Y008212D01*
X006448Y008232D01*
X006463Y008250D01*
X006482Y008265D01*
X006503Y008277D01*
X006525Y008285D01*
X006548Y008290D01*
X006572Y008291D01*
X006596Y008288D01*
X006618Y008281D01*
X006640Y008271D01*
X006660Y008258D01*
X006677Y008241D01*
X006691Y008222D01*
X006702Y008201D01*
X006710Y008178D01*
X006714Y008155D01*
X006714Y008131D01*
X006710Y008108D01*
X006702Y008085D01*
X006691Y008064D01*
X006677Y008045D01*
X006660Y008028D01*
X006640Y008015D01*
X006618Y008005D01*
X006596Y007998D01*
X006572Y007995D01*
X006548Y007996D01*
X006525Y008001D01*
X006503Y008009D01*
X006482Y008021D01*
X006463Y008036D01*
X006448Y008054D01*
X006435Y008074D01*
X006426Y008096D01*
X006420Y008119D01*
X006418Y008143D01*
X018598Y009527D02*
X018600Y009553D01*
X018606Y009579D01*
X018616Y009604D01*
X018629Y009627D01*
X018645Y009647D01*
X018665Y009665D01*
X018687Y009680D01*
X018710Y009692D01*
X018736Y009700D01*
X018762Y009704D01*
X018788Y009704D01*
X018814Y009700D01*
X018840Y009692D01*
X018864Y009680D01*
X018885Y009665D01*
X018905Y009647D01*
X018921Y009627D01*
X018934Y009604D01*
X018944Y009579D01*
X018950Y009553D01*
X018952Y009527D01*
X018950Y009501D01*
X018944Y009475D01*
X018934Y009450D01*
X018921Y009427D01*
X018905Y009407D01*
X018885Y009389D01*
X018863Y009374D01*
X018840Y009362D01*
X018814Y009354D01*
X018788Y009350D01*
X018762Y009350D01*
X018736Y009354D01*
X018710Y009362D01*
X018686Y009374D01*
X018665Y009389D01*
X018645Y009407D01*
X018629Y009427D01*
X018616Y009450D01*
X018606Y009475D01*
X018600Y009501D01*
X018598Y009527D01*
X018598Y011259D02*
X018600Y011285D01*
X018606Y011311D01*
X018616Y011336D01*
X018629Y011359D01*
X018645Y011379D01*
X018665Y011397D01*
X018687Y011412D01*
X018710Y011424D01*
X018736Y011432D01*
X018762Y011436D01*
X018788Y011436D01*
X018814Y011432D01*
X018840Y011424D01*
X018864Y011412D01*
X018885Y011397D01*
X018905Y011379D01*
X018921Y011359D01*
X018934Y011336D01*
X018944Y011311D01*
X018950Y011285D01*
X018952Y011259D01*
X018950Y011233D01*
X018944Y011207D01*
X018934Y011182D01*
X018921Y011159D01*
X018905Y011139D01*
X018885Y011121D01*
X018863Y011106D01*
X018840Y011094D01*
X018814Y011086D01*
X018788Y011082D01*
X018762Y011082D01*
X018736Y011086D01*
X018710Y011094D01*
X018686Y011106D01*
X018665Y011121D01*
X018645Y011139D01*
X018629Y011159D01*
X018616Y011182D01*
X018606Y011207D01*
X018600Y011233D01*
X018598Y011259D01*
D11*
X011610Y007518D03*
X010940Y007518D03*
X011150Y008309D03*
X011150Y008978D03*
X014190Y006018D03*
X014860Y006018D03*
X014860Y005268D03*
X014190Y005268D03*
D12*
X015513Y005269D03*
X016537Y005269D03*
X016537Y005643D03*
X016537Y006017D03*
X015513Y006017D03*
D13*
X016958Y008519D03*
X016092Y008893D03*
X016958Y009267D03*
D14*
X014275Y008267D03*
X014275Y007519D03*
D15*
X017526Y005643D03*
X018274Y005643D03*
X008649Y007893D03*
X007901Y007893D03*
D16*
X012690Y007518D03*
X013360Y007518D03*
D17*
X013294Y010643D03*
X013687Y010643D03*
X014081Y010643D03*
X012900Y010643D03*
D18*
X012388Y012169D03*
X014593Y012169D03*
D19*
X010870Y011268D03*
X010870Y010768D03*
X010870Y010268D03*
X010870Y009768D03*
X008930Y009768D03*
X008930Y010268D03*
X008930Y010768D03*
X008930Y011268D03*
D20*
X007150Y010699D03*
X007150Y010306D03*
X007150Y009912D03*
X007150Y009518D03*
X007150Y006824D03*
X007150Y006431D03*
X007150Y006037D03*
X007150Y005643D03*
X018650Y007587D03*
X018650Y007981D03*
X018650Y008375D03*
X018650Y008768D03*
D21*
X020176Y009280D03*
X020176Y007075D03*
X005624Y007336D03*
X005624Y009006D03*
X005624Y011211D03*
X005624Y005131D03*
D22*
X019650Y005143D03*
D23*
X019650Y006143D03*
D24*
X019700Y006185D02*
X020495Y006185D01*
X020495Y006087D02*
X020100Y006087D01*
X020100Y006093D02*
X019700Y006093D01*
X019700Y005693D01*
X019836Y005693D01*
X020100Y005957D01*
X020100Y006093D01*
X020100Y006193D02*
X019700Y006193D01*
X019700Y006093D01*
X019600Y006093D01*
X019600Y005693D01*
X019464Y005693D01*
X019200Y005957D01*
X019200Y006093D01*
X019600Y006093D01*
X019600Y006193D01*
X019200Y006193D01*
X019200Y006330D01*
X019464Y006593D01*
X019600Y006593D01*
X019600Y006193D01*
X019700Y006193D01*
X019700Y006593D01*
X019836Y006593D01*
X020100Y006330D01*
X020100Y006193D01*
X020100Y006284D02*
X020495Y006284D01*
X020495Y006382D02*
X020047Y006382D01*
X019949Y006481D02*
X020495Y006481D01*
X020495Y006579D02*
X019850Y006579D01*
X019700Y006579D02*
X019600Y006579D01*
X019600Y006481D02*
X019700Y006481D01*
X019700Y006382D02*
X019600Y006382D01*
X019600Y006284D02*
X019700Y006284D01*
X019600Y006185D02*
X019090Y006185D01*
X019090Y006087D02*
X019200Y006087D01*
X019200Y005988D02*
X019090Y005988D01*
X019090Y005890D02*
X019267Y005890D01*
X019366Y005791D02*
X019090Y005791D01*
X019090Y005693D02*
X020495Y005693D01*
X020495Y005791D02*
X019934Y005791D01*
X020033Y005890D02*
X020495Y005890D01*
X020495Y005988D02*
X020100Y005988D01*
X019700Y005988D02*
X019600Y005988D01*
X019600Y005890D02*
X019700Y005890D01*
X019700Y005791D02*
X019600Y005791D01*
X019304Y005553D02*
X019240Y005489D01*
X019240Y004798D01*
X019304Y004733D01*
X019996Y004733D01*
X020060Y004798D01*
X020060Y005489D01*
X019996Y005553D01*
X019304Y005553D01*
X019247Y005496D02*
X019090Y005496D01*
X019090Y005594D02*
X020495Y005594D01*
X020495Y005496D02*
X020053Y005496D01*
X020060Y005397D02*
X020495Y005397D01*
X020495Y005299D02*
X020060Y005299D01*
X020060Y005200D02*
X020495Y005200D01*
X020495Y005102D02*
X020060Y005102D01*
X020060Y005003D02*
X020495Y005003D01*
X020495Y004905D02*
X020060Y004905D01*
X020060Y004806D02*
X020495Y004806D01*
X020495Y004708D02*
X019090Y004708D01*
X019090Y004806D02*
X019240Y004806D01*
X019240Y004905D02*
X019090Y004905D01*
X019090Y005003D02*
X019240Y005003D01*
X019240Y005102D02*
X019090Y005102D01*
X019090Y005200D02*
X019240Y005200D01*
X019240Y005299D02*
X019090Y005299D01*
X019090Y005397D02*
X019240Y005397D01*
X018710Y005397D02*
X018680Y005397D01*
X018680Y005328D02*
X018680Y005593D01*
X018324Y005593D01*
X018324Y005198D01*
X018550Y005198D01*
X018588Y005208D01*
X018622Y005228D01*
X018650Y005256D01*
X018670Y005290D01*
X018680Y005328D01*
X018672Y005299D02*
X018710Y005299D01*
X018710Y005200D02*
X018558Y005200D01*
X018710Y005102D02*
X017251Y005102D01*
X017226Y005077D02*
X017282Y005132D01*
X017338Y005188D01*
X017338Y005188D01*
X017388Y005238D01*
X017827Y005238D01*
X017879Y005289D01*
X017898Y005256D01*
X017926Y005228D01*
X017960Y005208D01*
X017998Y005198D01*
X018224Y005198D01*
X018224Y005593D01*
X018324Y005593D01*
X018324Y005693D01*
X018710Y005693D01*
X018680Y005693D02*
X018680Y005958D01*
X018670Y005996D01*
X018650Y006031D01*
X018622Y006059D01*
X018588Y006078D01*
X018550Y006089D01*
X018324Y006089D01*
X018324Y005693D01*
X018680Y005693D01*
X018680Y005791D02*
X018710Y005791D01*
X018710Y005890D02*
X018680Y005890D01*
X018672Y005988D02*
X018710Y005988D01*
X018710Y006087D02*
X018556Y006087D01*
X018710Y006185D02*
X017253Y006185D01*
X017228Y006210D02*
X017227Y006210D01*
X017227Y006211D01*
X017148Y006210D01*
X017070Y006210D01*
X016832Y006209D01*
X016777Y006263D01*
X016424Y006263D01*
X016215Y006472D01*
X016215Y006847D01*
X016104Y006958D01*
X015465Y007597D01*
X015465Y008440D01*
X015706Y008681D01*
X015706Y008651D01*
X015771Y008586D01*
X016413Y008586D01*
X016478Y008651D01*
X016478Y009136D01*
X016413Y009200D01*
X015771Y009200D01*
X015706Y009136D01*
X015706Y009083D01*
X015571Y009083D01*
X015196Y008708D01*
X015085Y008597D01*
X015085Y007440D01*
X015835Y006690D01*
X015835Y006315D01*
X016211Y005939D01*
X016232Y005918D01*
X016232Y005881D01*
X016222Y005871D01*
X016202Y005837D01*
X016192Y005799D01*
X016192Y005661D01*
X016519Y005661D01*
X016519Y005625D01*
X016192Y005625D01*
X016192Y005488D01*
X016202Y005450D01*
X016222Y005415D01*
X016232Y005405D01*
X016232Y005088D01*
X016296Y005023D01*
X016777Y005023D01*
X016832Y005078D01*
X017069Y005078D01*
X017069Y005078D01*
X017147Y005077D01*
X017226Y005077D01*
X017226Y005077D01*
X017226Y005077D01*
X017350Y005200D02*
X017990Y005200D01*
X018224Y005200D02*
X018324Y005200D01*
X018324Y005299D02*
X018224Y005299D01*
X018224Y005397D02*
X018324Y005397D01*
X018324Y005496D02*
X018224Y005496D01*
X018324Y005594D02*
X018710Y005594D01*
X018710Y005496D02*
X018680Y005496D01*
X018324Y005693D02*
X018224Y005693D01*
X018224Y006089D01*
X017998Y006089D01*
X017960Y006078D01*
X017926Y006059D01*
X017898Y006031D01*
X017879Y005997D01*
X017827Y006049D01*
X017389Y006049D01*
X017339Y006099D01*
X017339Y006100D01*
X017283Y006155D01*
X017228Y006210D01*
X017070Y006210D02*
X017070Y006210D01*
X017351Y006087D02*
X017992Y006087D01*
X018224Y006087D02*
X018324Y006087D01*
X018324Y005988D02*
X018224Y005988D01*
X018224Y005890D02*
X018324Y005890D01*
X018324Y005791D02*
X018224Y005791D01*
X018710Y006284D02*
X016403Y006284D01*
X016305Y006382D02*
X018710Y006382D01*
X018710Y006481D02*
X016215Y006481D01*
X016215Y006579D02*
X018710Y006579D01*
X018710Y006678D02*
X016215Y006678D01*
X016215Y006776D02*
X018764Y006776D01*
X018710Y006722D02*
X018710Y004722D01*
X018571Y004583D01*
X008229Y004583D01*
X008167Y004645D01*
X008199Y004645D01*
X008291Y004682D01*
X008342Y004733D01*
X013216Y004733D01*
X013253Y004770D01*
X013324Y004770D01*
X013416Y004807D01*
X013486Y004877D01*
X013524Y004969D01*
X013524Y005068D01*
X013486Y005159D01*
X013416Y005229D01*
X013324Y005267D01*
X013226Y005267D01*
X013134Y005229D01*
X013064Y005159D01*
X013026Y005068D01*
X013026Y005053D01*
X011911Y005053D01*
X012841Y005983D01*
X012935Y006077D01*
X012935Y006202D01*
X012986Y006252D01*
X013024Y006344D01*
X013024Y006443D01*
X012986Y006534D01*
X012916Y006604D01*
X012824Y006642D01*
X012726Y006642D01*
X012634Y006604D01*
X012564Y006534D01*
X012526Y006443D01*
X012526Y006344D01*
X012564Y006252D01*
X012611Y006206D01*
X011709Y005303D01*
X011257Y005303D01*
X011274Y005344D01*
X011274Y005443D01*
X011236Y005534D01*
X011166Y005604D01*
X011074Y005642D01*
X010976Y005642D01*
X010884Y005604D01*
X010833Y005553D01*
X010161Y005553D01*
X010966Y006358D01*
X011583Y006358D01*
X011634Y006307D01*
X011726Y006270D01*
X011824Y006270D01*
X011916Y006307D01*
X011986Y006377D01*
X012024Y006469D01*
X012024Y006568D01*
X011986Y006659D01*
X011939Y006706D01*
X011967Y006733D01*
X013623Y006733D01*
X013606Y006693D01*
X013606Y006594D01*
X013644Y006502D01*
X013714Y006432D01*
X013806Y006395D01*
X013904Y006395D01*
X013996Y006432D01*
X014047Y006483D01*
X014584Y006483D01*
X014615Y006452D01*
X014615Y006325D01*
X014598Y006325D01*
X014546Y006274D01*
X014527Y006307D01*
X014499Y006335D01*
X014465Y006355D01*
X014427Y006365D01*
X014239Y006365D01*
X014239Y006067D01*
X014142Y006067D01*
X014142Y006365D01*
X013954Y006365D01*
X013916Y006355D01*
X013882Y006335D01*
X013854Y006307D01*
X013834Y006273D01*
X013824Y006235D01*
X013824Y006067D01*
X014142Y006067D01*
X014142Y005970D01*
X013824Y005970D01*
X013824Y005802D01*
X013834Y005764D01*
X013854Y005729D01*
X013882Y005701D01*
X013916Y005682D01*
X013954Y005671D01*
X014142Y005671D01*
X014142Y005970D01*
X014239Y005970D01*
X014239Y005671D01*
X014427Y005671D01*
X014465Y005682D01*
X014499Y005701D01*
X014527Y005729D01*
X014546Y005763D01*
X014598Y005711D01*
X015122Y005711D01*
X015186Y005776D01*
X015186Y005829D01*
X015216Y005829D01*
X015273Y005771D01*
X015754Y005771D01*
X015818Y005836D01*
X015818Y006199D01*
X015754Y006263D01*
X015273Y006263D01*
X015218Y006209D01*
X015186Y006209D01*
X015186Y006261D01*
X015122Y006325D01*
X014935Y006325D01*
X014935Y006585D01*
X014810Y006710D01*
X014786Y006733D01*
X015026Y006733D01*
X015026Y006719D01*
X015064Y006627D01*
X015134Y006557D01*
X015226Y006520D01*
X015324Y006520D01*
X015416Y006557D01*
X015486Y006627D01*
X015524Y006719D01*
X015524Y006818D01*
X015486Y006909D01*
X015416Y006979D01*
X015324Y007017D01*
X015253Y007017D01*
X015216Y007053D01*
X011967Y007053D01*
X011916Y007104D01*
X011824Y007142D01*
X011726Y007142D01*
X011634Y007104D01*
X011564Y007034D01*
X011526Y006943D01*
X011526Y006844D01*
X011564Y006752D01*
X011611Y006706D01*
X011583Y006678D01*
X010834Y006678D01*
X010740Y006585D01*
X009959Y005803D01*
X008841Y005803D01*
X007754Y006891D01*
X007660Y006984D01*
X007565Y006984D01*
X007565Y006988D01*
X007501Y007053D01*
X006799Y007053D01*
X006735Y006988D01*
X006735Y006661D01*
X006768Y006628D01*
X006735Y006594D01*
X006735Y006267D01*
X006768Y006234D01*
X006761Y006227D01*
X006606Y006227D01*
X006590Y006239D01*
X006590Y007065D01*
X006729Y007203D01*
X007479Y007203D01*
X007590Y007315D01*
X007763Y007488D01*
X008202Y007488D01*
X008254Y007539D01*
X008273Y007506D01*
X008301Y007478D01*
X008335Y007458D01*
X008373Y007448D01*
X008599Y007448D01*
X008599Y007843D01*
X008699Y007843D01*
X008699Y007448D01*
X008925Y007448D01*
X008963Y007458D01*
X008997Y007478D01*
X009025Y007506D01*
X009045Y007540D01*
X009055Y007578D01*
X009055Y007843D01*
X008699Y007843D01*
X008699Y007943D01*
X009055Y007943D01*
X009055Y008208D01*
X009045Y008246D01*
X009025Y008281D01*
X008997Y008309D01*
X008963Y008328D01*
X008925Y008339D01*
X008699Y008339D01*
X008699Y007943D01*
X008599Y007943D01*
X008599Y008339D01*
X008373Y008339D01*
X008335Y008328D01*
X008301Y008309D01*
X008273Y008281D01*
X008254Y008247D01*
X008202Y008299D01*
X008090Y008299D01*
X008090Y009847D01*
X007835Y010102D01*
X007539Y010102D01*
X007532Y010109D01*
X007565Y010142D01*
X007565Y010146D01*
X008430Y010146D01*
X008430Y010113D01*
X008494Y010048D01*
X009366Y010048D01*
X009430Y010113D01*
X009430Y010424D01*
X009366Y010488D01*
X008494Y010488D01*
X008472Y010466D01*
X007565Y010466D01*
X007565Y010469D01*
X007532Y010503D01*
X007565Y010536D01*
X007565Y010539D01*
X008647Y010539D01*
X008656Y010548D01*
X009366Y010548D01*
X009430Y010613D01*
X009430Y010924D01*
X009366Y010988D01*
X008494Y010988D01*
X008430Y010924D01*
X008430Y010859D01*
X007565Y010859D01*
X007565Y010863D01*
X007501Y010928D01*
X006799Y010928D01*
X006735Y010863D01*
X006735Y010536D01*
X006768Y010503D01*
X006735Y010469D01*
X006735Y010142D01*
X006768Y010109D01*
X006735Y010076D01*
X006735Y009748D01*
X006740Y009743D01*
X006725Y009729D01*
X006705Y009694D01*
X006695Y009656D01*
X006695Y009527D01*
X007141Y009527D01*
X007141Y009509D01*
X007159Y009509D01*
X007159Y009250D01*
X007475Y009250D01*
X007513Y009260D01*
X007547Y009280D01*
X007575Y009308D01*
X007595Y009342D01*
X007605Y009380D01*
X007605Y009509D01*
X007159Y009509D01*
X007159Y009527D01*
X007605Y009527D01*
X007605Y009656D01*
X007595Y009694D01*
X007579Y009722D01*
X007678Y009722D01*
X007710Y009690D01*
X007710Y008299D01*
X007600Y008299D01*
X007535Y008234D01*
X007535Y007797D01*
X007321Y007583D01*
X006571Y007583D01*
X006321Y007333D01*
X006210Y007222D01*
X006210Y006206D01*
X006200Y006193D01*
X006210Y006129D01*
X006210Y006065D01*
X006221Y006053D01*
X006224Y006037D01*
X006276Y005999D01*
X006321Y005953D01*
X006337Y005953D01*
X006419Y005893D01*
X006465Y005847D01*
X006481Y005847D01*
X006494Y005837D01*
X006558Y005847D01*
X006721Y005847D01*
X006705Y005819D01*
X006695Y005781D01*
X006695Y005652D01*
X007141Y005652D01*
X007141Y005634D01*
X007159Y005634D01*
X007159Y005375D01*
X007475Y005375D01*
X007513Y005385D01*
X007547Y005405D01*
X007575Y005433D01*
X007585Y005450D01*
X007585Y004690D01*
X007696Y004578D01*
X008071Y004203D01*
X018729Y004203D01*
X018840Y004315D01*
X019090Y004565D01*
X019090Y006565D01*
X019465Y006940D01*
X019465Y008347D01*
X019359Y008453D01*
X019359Y008453D01*
X019247Y008565D01*
X019079Y008565D01*
X019095Y008592D01*
X019105Y008630D01*
X019105Y008759D01*
X018659Y008759D01*
X018659Y008777D01*
X019105Y008777D01*
X019105Y008906D01*
X019095Y008944D01*
X019075Y008979D01*
X019047Y009006D01*
X019013Y009026D01*
X018975Y009036D01*
X018659Y009036D01*
X018659Y008777D01*
X018641Y008777D01*
X018641Y008759D01*
X018195Y008759D01*
X018195Y008630D01*
X018200Y008612D01*
X018103Y008709D01*
X017344Y008709D01*
X017344Y008762D01*
X017279Y008826D01*
X016637Y008826D01*
X016572Y008762D01*
X016572Y008277D01*
X016637Y008212D01*
X017279Y008212D01*
X017344Y008277D01*
X017344Y008329D01*
X017945Y008329D01*
X017979Y008296D01*
X018090Y008185D01*
X018261Y008185D01*
X018268Y008178D01*
X018235Y008145D01*
X018235Y008141D01*
X015827Y008141D01*
X015824Y008142D01*
X015726Y008142D01*
X015634Y008104D01*
X015564Y008034D01*
X015526Y007943D01*
X015526Y007844D01*
X015564Y007752D01*
X015634Y007682D01*
X015726Y007645D01*
X015824Y007645D01*
X015901Y007676D01*
X015901Y007594D01*
X015939Y007502D01*
X016009Y007432D01*
X016101Y007395D01*
X016199Y007395D01*
X016278Y007427D01*
X018235Y007427D01*
X018235Y007424D01*
X018299Y007359D01*
X019001Y007359D01*
X019065Y007424D01*
X019065Y007751D01*
X019032Y007784D01*
X019065Y007817D01*
X019065Y008145D01*
X019032Y008178D01*
X019039Y008185D01*
X019085Y008185D01*
X019085Y007097D01*
X018821Y006833D01*
X018710Y006722D01*
X018863Y006875D02*
X016187Y006875D01*
X016089Y006973D02*
X018961Y006973D01*
X019060Y007072D02*
X015990Y007072D01*
X015892Y007170D02*
X019085Y007170D01*
X019085Y007269D02*
X015793Y007269D01*
X015695Y007367D02*
X018291Y007367D01*
X018650Y007587D02*
X016219Y007587D01*
X016150Y007643D01*
X015976Y007466D02*
X015596Y007466D01*
X015498Y007564D02*
X015913Y007564D01*
X015901Y007663D02*
X015869Y007663D01*
X015681Y007663D02*
X015465Y007663D01*
X015465Y007761D02*
X015560Y007761D01*
X015526Y007860D02*
X015465Y007860D01*
X015465Y007958D02*
X015533Y007958D01*
X015587Y008057D02*
X015465Y008057D01*
X015465Y008155D02*
X018246Y008155D01*
X018021Y008254D02*
X017321Y008254D01*
X017344Y008746D02*
X018195Y008746D01*
X018195Y008777D02*
X018641Y008777D01*
X018641Y009036D01*
X018325Y009036D01*
X018287Y009026D01*
X018253Y009006D01*
X018225Y008979D01*
X018205Y008944D01*
X018195Y008906D01*
X018195Y008777D01*
X018195Y008845D02*
X016478Y008845D01*
X016478Y008943D02*
X018205Y008943D01*
X018641Y008943D02*
X018659Y008943D01*
X018659Y008845D02*
X018641Y008845D01*
X018195Y008648D02*
X018164Y008648D01*
X018590Y009250D02*
X018710Y009200D01*
X018840Y009200D01*
X018960Y009250D01*
X019052Y009342D01*
X019102Y009462D01*
X019102Y009592D01*
X019052Y009712D01*
X018960Y009805D01*
X018840Y009854D01*
X018710Y009854D01*
X018590Y009805D01*
X018498Y009712D01*
X018448Y009592D01*
X018448Y009462D01*
X018498Y009342D01*
X018590Y009250D01*
X018616Y009239D02*
X017344Y009239D01*
X017344Y009337D02*
X018502Y009337D01*
X018459Y009436D02*
X017344Y009436D01*
X017344Y009510D02*
X017279Y009574D01*
X017177Y009574D01*
X017211Y009656D01*
X017211Y009755D01*
X017173Y009847D01*
X017103Y009917D01*
X017012Y009955D01*
X016913Y009955D01*
X016822Y009917D01*
X016752Y009847D01*
X016714Y009755D01*
X016714Y009656D01*
X016748Y009574D01*
X016637Y009574D01*
X016572Y009510D01*
X016572Y009025D01*
X016637Y008960D01*
X017279Y008960D01*
X017344Y009025D01*
X017344Y009510D01*
X017319Y009534D02*
X018448Y009534D01*
X018465Y009633D02*
X017202Y009633D01*
X017211Y009731D02*
X018516Y009731D01*
X018651Y009830D02*
X017180Y009830D01*
X017075Y009928D02*
X020495Y009928D01*
X020495Y009830D02*
X018899Y009830D01*
X019034Y009731D02*
X020495Y009731D01*
X020495Y009633D02*
X019085Y009633D01*
X019102Y009534D02*
X019711Y009534D01*
X019711Y009562D02*
X019711Y008998D01*
X019776Y008934D01*
X020495Y008934D01*
X020495Y007422D01*
X019776Y007422D01*
X019711Y007357D01*
X019711Y006794D01*
X019776Y006729D01*
X020495Y006729D01*
X020495Y004168D01*
X005300Y004168D01*
X005300Y004785D01*
X006024Y004785D01*
X006089Y004850D01*
X006089Y005413D01*
X006024Y005478D01*
X005300Y005478D01*
X005300Y006990D01*
X006024Y006990D01*
X006089Y007054D01*
X006089Y007618D01*
X006024Y007682D01*
X005300Y007682D01*
X005300Y007906D01*
X005315Y007891D01*
X005424Y007846D01*
X005543Y007846D01*
X005652Y007891D01*
X005736Y007975D01*
X005781Y008084D01*
X005781Y008203D01*
X005736Y008312D01*
X005652Y008396D01*
X005543Y008441D01*
X005424Y008441D01*
X005315Y008396D01*
X005300Y008381D01*
X005300Y008660D01*
X006024Y008660D01*
X006089Y008725D01*
X006089Y009288D01*
X006024Y009353D01*
X005300Y009353D01*
X005300Y010865D01*
X006024Y010865D01*
X006089Y010929D01*
X006089Y011493D01*
X006024Y011557D01*
X005300Y011557D01*
X005300Y012489D01*
X012042Y012489D01*
X012042Y011769D01*
X012106Y011705D01*
X012670Y011705D01*
X012734Y011769D01*
X012734Y012489D01*
X014247Y012489D01*
X014247Y011769D01*
X014311Y011705D01*
X014875Y011705D01*
X014939Y011769D01*
X014939Y012489D01*
X020495Y012489D01*
X014939Y012489D01*
X014939Y012391D02*
X020495Y012391D01*
X020495Y012489D02*
X020495Y009626D01*
X019776Y009626D01*
X019711Y009562D01*
X019711Y009436D02*
X019091Y009436D01*
X019048Y009337D02*
X019711Y009337D01*
X019711Y009239D02*
X018934Y009239D01*
X019095Y008943D02*
X019766Y008943D01*
X019711Y009042D02*
X017344Y009042D01*
X017344Y009140D02*
X019711Y009140D01*
X019105Y008845D02*
X020495Y008845D01*
X020495Y008746D02*
X019105Y008746D01*
X019105Y008648D02*
X020495Y008648D01*
X020495Y008549D02*
X019263Y008549D01*
X019361Y008451D02*
X020495Y008451D01*
X020495Y008352D02*
X019460Y008352D01*
X019465Y008254D02*
X020495Y008254D01*
X020495Y008155D02*
X019465Y008155D01*
X019465Y008057D02*
X020495Y008057D01*
X020495Y007958D02*
X019465Y007958D01*
X019465Y007860D02*
X020495Y007860D01*
X020495Y007761D02*
X019465Y007761D01*
X019465Y007663D02*
X020495Y007663D01*
X020495Y007564D02*
X019465Y007564D01*
X019465Y007466D02*
X020495Y007466D01*
X019721Y007367D02*
X019465Y007367D01*
X019465Y007269D02*
X019711Y007269D01*
X019711Y007170D02*
X019465Y007170D01*
X019465Y007072D02*
X019711Y007072D01*
X019711Y006973D02*
X019465Y006973D01*
X019400Y006875D02*
X019711Y006875D01*
X019729Y006776D02*
X019302Y006776D01*
X019203Y006678D02*
X020495Y006678D01*
X019700Y006087D02*
X019600Y006087D01*
X019200Y006284D02*
X019090Y006284D01*
X019090Y006382D02*
X019253Y006382D01*
X019351Y006481D02*
X019090Y006481D01*
X019105Y006579D02*
X019450Y006579D01*
X019085Y007367D02*
X019009Y007367D01*
X019065Y007466D02*
X019085Y007466D01*
X019085Y007564D02*
X019065Y007564D01*
X019065Y007663D02*
X019085Y007663D01*
X019085Y007761D02*
X019055Y007761D01*
X019065Y007860D02*
X019085Y007860D01*
X019085Y007958D02*
X019065Y007958D01*
X019065Y008057D02*
X019085Y008057D01*
X019085Y008155D02*
X019054Y008155D01*
X018650Y007981D02*
X015863Y007981D01*
X015775Y007893D01*
X015465Y008254D02*
X016596Y008254D01*
X016572Y008352D02*
X015465Y008352D01*
X015476Y008451D02*
X016572Y008451D01*
X016572Y008549D02*
X015575Y008549D01*
X015673Y008648D02*
X015709Y008648D01*
X015333Y008845D02*
X013810Y008845D01*
X013810Y008943D02*
X015431Y008943D01*
X015530Y009042D02*
X013810Y009042D01*
X013810Y009140D02*
X015711Y009140D01*
X015234Y008746D02*
X013810Y008746D01*
X013810Y008648D02*
X013896Y008648D01*
X013888Y008643D02*
X013860Y008615D01*
X013840Y008581D01*
X013830Y008543D01*
X013830Y008317D01*
X014225Y008317D01*
X014225Y008217D01*
X013830Y008217D01*
X013830Y007992D01*
X013840Y007954D01*
X013860Y007919D01*
X013888Y007891D01*
X013921Y007872D01*
X013870Y007821D01*
X013870Y007748D01*
X013824Y007767D01*
X013726Y007767D01*
X013666Y007743D01*
X013666Y007780D01*
X013602Y007845D01*
X013117Y007845D01*
X013053Y007780D01*
X013053Y007256D01*
X013117Y007192D01*
X013602Y007192D01*
X013666Y007256D01*
X013666Y007294D01*
X013726Y007270D01*
X013824Y007270D01*
X013870Y007288D01*
X013870Y007218D01*
X013934Y007153D01*
X014616Y007153D01*
X014680Y007218D01*
X014680Y007821D01*
X014629Y007872D01*
X014662Y007891D01*
X014690Y007919D01*
X014710Y007954D01*
X014720Y007992D01*
X014720Y008217D01*
X014325Y008217D01*
X014325Y008317D01*
X014720Y008317D01*
X014720Y008543D01*
X014710Y008581D01*
X014690Y008615D01*
X014662Y008643D01*
X014628Y008663D01*
X014590Y008673D01*
X014325Y008673D01*
X014325Y008317D01*
X014225Y008317D01*
X014225Y008673D01*
X013960Y008673D01*
X013922Y008663D01*
X013888Y008643D01*
X013831Y008549D02*
X013810Y008549D01*
X013810Y008452D02*
X013774Y008416D01*
X013774Y008344D01*
X013736Y008252D01*
X013666Y008182D01*
X013574Y008145D01*
X013476Y008145D01*
X013384Y008182D01*
X013314Y008252D01*
X013291Y008308D01*
X012850Y007867D01*
X012850Y007845D01*
X012933Y007845D01*
X012997Y007780D01*
X012997Y007256D01*
X012933Y007192D01*
X012448Y007192D01*
X012384Y007256D01*
X012384Y007358D01*
X012342Y007358D01*
X012291Y007307D01*
X012199Y007270D01*
X012101Y007270D01*
X012009Y007307D01*
X011958Y007358D01*
X011936Y007358D01*
X011936Y007276D01*
X011872Y007211D01*
X011348Y007211D01*
X011296Y007263D01*
X011277Y007229D01*
X011249Y007201D01*
X011215Y007182D01*
X011177Y007171D01*
X010989Y007171D01*
X010989Y007470D01*
X010892Y007470D01*
X010574Y007470D01*
X010574Y007302D01*
X010584Y007264D01*
X010604Y007229D01*
X010632Y007201D01*
X010666Y007182D01*
X010704Y007171D01*
X010892Y007171D01*
X010892Y007470D01*
X010892Y007567D01*
X010892Y007865D01*
X010704Y007865D01*
X010666Y007855D01*
X010632Y007835D01*
X010604Y007807D01*
X010584Y007773D01*
X010574Y007735D01*
X010574Y007567D01*
X010892Y007567D01*
X010989Y007567D01*
X010989Y007865D01*
X011177Y007865D01*
X011215Y007855D01*
X011249Y007835D01*
X011277Y007807D01*
X011296Y007774D01*
X011348Y007825D01*
X011872Y007825D01*
X011936Y007761D01*
X011936Y007678D01*
X011958Y007678D01*
X012009Y007729D01*
X012101Y007767D01*
X012199Y007767D01*
X012291Y007729D01*
X012342Y007678D01*
X012384Y007678D01*
X012384Y007780D01*
X012448Y007845D01*
X012530Y007845D01*
X012530Y008000D01*
X013240Y008710D01*
X013240Y009952D01*
X013134Y010058D01*
X013134Y010228D01*
X013130Y010228D01*
X013125Y010233D01*
X013110Y010218D01*
X013076Y010198D01*
X013038Y010188D01*
X012909Y010188D01*
X012909Y010634D01*
X012891Y010634D01*
X012891Y010188D01*
X012762Y010188D01*
X012724Y010198D01*
X012690Y010218D01*
X012662Y010246D01*
X012642Y010280D01*
X012632Y010318D01*
X012632Y010634D01*
X012891Y010634D01*
X012891Y010652D01*
X012632Y010652D01*
X012632Y010968D01*
X012642Y011006D01*
X012662Y011041D01*
X012690Y011068D01*
X012724Y011088D01*
X012762Y011098D01*
X012891Y011098D01*
X012891Y010652D01*
X012909Y010652D01*
X012909Y011098D01*
X013038Y011098D01*
X013076Y011088D01*
X013110Y011068D01*
X013125Y011054D01*
X013130Y011058D01*
X013457Y011058D01*
X013491Y011025D01*
X013524Y011058D01*
X013851Y011058D01*
X013884Y011025D01*
X013917Y011058D01*
X014245Y011058D01*
X014309Y010994D01*
X014309Y010293D01*
X014245Y010228D01*
X014241Y010228D01*
X014241Y010147D01*
X014274Y010068D01*
X014274Y009969D01*
X014236Y009877D01*
X014166Y009807D01*
X014074Y009770D01*
X013976Y009770D01*
X013884Y009807D01*
X013814Y009877D01*
X013810Y009887D01*
X013810Y008452D01*
X013809Y008451D02*
X013830Y008451D01*
X013830Y008352D02*
X013774Y008352D01*
X013736Y008254D02*
X014225Y008254D01*
X014225Y008352D02*
X014325Y008352D01*
X014325Y008254D02*
X015085Y008254D01*
X015085Y008352D02*
X014720Y008352D01*
X014720Y008451D02*
X015085Y008451D01*
X015085Y008549D02*
X014719Y008549D01*
X014654Y008648D02*
X015136Y008648D01*
X014325Y008648D02*
X014225Y008648D01*
X014225Y008549D02*
X014325Y008549D01*
X014325Y008451D02*
X014225Y008451D01*
X013830Y008155D02*
X013600Y008155D01*
X013450Y008155D02*
X013138Y008155D01*
X013040Y008057D02*
X013830Y008057D01*
X013839Y007958D02*
X012941Y007958D01*
X012850Y007860D02*
X013909Y007860D01*
X013870Y007761D02*
X013838Y007761D01*
X013712Y007761D02*
X013666Y007761D01*
X013776Y007519D02*
X013775Y007518D01*
X013360Y007518D01*
X013400Y007518D01*
X013053Y007564D02*
X012997Y007564D01*
X012997Y007466D02*
X013053Y007466D01*
X013053Y007367D02*
X012997Y007367D01*
X012997Y007269D02*
X013053Y007269D01*
X013053Y007663D02*
X012997Y007663D01*
X012997Y007761D02*
X013053Y007761D01*
X012690Y007934D02*
X012690Y007518D01*
X012650Y007518D02*
X012150Y007518D01*
X011610Y007518D01*
X011929Y007269D02*
X012384Y007269D01*
X011948Y007072D02*
X015453Y007072D01*
X015422Y006973D02*
X015551Y006973D01*
X015500Y006875D02*
X015650Y006875D01*
X015748Y006776D02*
X015524Y006776D01*
X015507Y006678D02*
X015835Y006678D01*
X015835Y006579D02*
X015438Y006579D01*
X015275Y006768D02*
X015150Y006893D01*
X011775Y006893D01*
X011602Y007072D02*
X006597Y007072D01*
X006590Y006973D02*
X006735Y006973D01*
X006735Y006875D02*
X006590Y006875D01*
X006590Y006776D02*
X006735Y006776D01*
X006735Y006678D02*
X006590Y006678D01*
X006590Y006579D02*
X006735Y006579D01*
X006735Y006481D02*
X006590Y006481D01*
X006590Y006382D02*
X006735Y006382D01*
X006735Y006284D02*
X006590Y006284D01*
X006210Y006284D02*
X005300Y006284D01*
X005300Y006382D02*
X006210Y006382D01*
X006210Y006481D02*
X005300Y006481D01*
X005300Y006579D02*
X006210Y006579D01*
X006210Y006678D02*
X005300Y006678D01*
X005300Y006776D02*
X006210Y006776D01*
X006210Y006875D02*
X005300Y006875D01*
X005300Y006973D02*
X006210Y006973D01*
X006210Y007072D02*
X006089Y007072D01*
X006089Y007170D02*
X006210Y007170D01*
X006257Y007269D02*
X006089Y007269D01*
X006089Y007367D02*
X006355Y007367D01*
X006454Y007466D02*
X006089Y007466D01*
X006089Y007564D02*
X006552Y007564D01*
X006507Y007846D02*
X006626Y007846D01*
X006735Y007891D01*
X006819Y007975D01*
X006864Y008084D01*
X006864Y008203D01*
X006819Y008312D01*
X006735Y008396D01*
X006626Y008441D01*
X006507Y008441D01*
X006398Y008396D01*
X006314Y008312D01*
X006269Y008203D01*
X006269Y008084D01*
X006314Y007975D01*
X006398Y007891D01*
X006507Y007846D01*
X006473Y007860D02*
X005577Y007860D01*
X005720Y007958D02*
X006330Y007958D01*
X006280Y008057D02*
X005770Y008057D01*
X005781Y008155D02*
X006269Y008155D01*
X006290Y008254D02*
X005760Y008254D01*
X005696Y008352D02*
X006354Y008352D01*
X006778Y008352D02*
X007710Y008352D01*
X007710Y008451D02*
X005300Y008451D01*
X005300Y008549D02*
X007710Y008549D01*
X007710Y008648D02*
X005300Y008648D01*
X006089Y008746D02*
X007710Y008746D01*
X007710Y008845D02*
X006089Y008845D01*
X006089Y008943D02*
X007710Y008943D01*
X007710Y009042D02*
X006089Y009042D01*
X006089Y009140D02*
X007710Y009140D01*
X007710Y009239D02*
X006089Y009239D01*
X006040Y009337D02*
X006708Y009337D01*
X006705Y009342D02*
X006725Y009308D01*
X006753Y009280D01*
X006787Y009260D01*
X006825Y009250D01*
X007141Y009250D01*
X007141Y009509D01*
X006695Y009509D01*
X006695Y009380D01*
X006705Y009342D01*
X006695Y009436D02*
X005300Y009436D01*
X005300Y009534D02*
X006695Y009534D01*
X006695Y009633D02*
X005300Y009633D01*
X005300Y009731D02*
X006728Y009731D01*
X006735Y009830D02*
X005300Y009830D01*
X005300Y009928D02*
X006735Y009928D01*
X006735Y010027D02*
X005300Y010027D01*
X005300Y010125D02*
X006752Y010125D01*
X006735Y010224D02*
X005300Y010224D01*
X005300Y010322D02*
X006735Y010322D01*
X006735Y010421D02*
X005300Y010421D01*
X005300Y010519D02*
X006751Y010519D01*
X006735Y010618D02*
X005300Y010618D01*
X005300Y010716D02*
X006735Y010716D01*
X006735Y010815D02*
X005300Y010815D01*
X006073Y010913D02*
X006785Y010913D01*
X007150Y010699D02*
X008581Y010699D01*
X008650Y010768D01*
X008930Y010768D01*
X009430Y010815D02*
X010330Y010815D01*
X010330Y010773D02*
X010330Y010898D01*
X010340Y010936D01*
X010360Y010970D01*
X010388Y010998D01*
X010422Y011018D01*
X010460Y011028D01*
X010865Y011028D01*
X010865Y010773D01*
X010865Y010763D01*
X010875Y010763D01*
X010875Y010508D01*
X011280Y010508D01*
X011318Y010519D01*
X011352Y010538D01*
X011380Y010566D01*
X011400Y010600D01*
X011410Y010639D01*
X011410Y010763D01*
X010875Y010763D01*
X010875Y010773D01*
X011410Y010773D01*
X011410Y010898D01*
X011400Y010936D01*
X011380Y010970D01*
X011352Y010998D01*
X011318Y011018D01*
X011280Y011028D01*
X010875Y011028D01*
X010875Y010773D01*
X010865Y010773D01*
X010330Y010773D01*
X010330Y010763D02*
X010330Y010639D01*
X010340Y010600D01*
X010360Y010566D01*
X010388Y010538D01*
X010422Y010519D01*
X010460Y010508D01*
X010865Y010508D01*
X010865Y010763D01*
X010330Y010763D01*
X010330Y010716D02*
X009430Y010716D01*
X009430Y010618D02*
X010336Y010618D01*
X010324Y010517D02*
X010226Y010517D01*
X010134Y010479D01*
X010064Y010409D01*
X010026Y010318D01*
X010026Y010219D01*
X010064Y010127D01*
X010134Y010057D01*
X010226Y010020D01*
X010324Y010020D01*
X010416Y010057D01*
X010421Y010062D01*
X010434Y010048D01*
X011306Y010048D01*
X011366Y010108D01*
X011583Y010108D01*
X011634Y010057D01*
X011726Y010020D01*
X011824Y010020D01*
X011916Y010057D01*
X011986Y010127D01*
X012024Y010219D01*
X012024Y010318D01*
X011986Y010409D01*
X011916Y010479D01*
X011824Y010517D01*
X011726Y010517D01*
X011634Y010479D01*
X011583Y010428D01*
X011366Y010428D01*
X011306Y010488D01*
X010434Y010488D01*
X010421Y010474D01*
X010416Y010479D01*
X010324Y010517D01*
X010421Y010519D02*
X007549Y010519D01*
X007515Y010913D02*
X008430Y010913D01*
X008494Y011048D02*
X009366Y011048D01*
X009430Y011113D01*
X009430Y011424D01*
X009366Y011488D01*
X008494Y011488D01*
X008430Y011424D01*
X008430Y011113D01*
X008494Y011048D01*
X008432Y011110D02*
X006089Y011110D01*
X006089Y011012D02*
X010411Y011012D01*
X010434Y011048D02*
X011306Y011048D01*
X011350Y011092D01*
X012026Y010416D01*
X012026Y010344D01*
X012064Y010252D01*
X012134Y010182D01*
X012226Y010145D01*
X012324Y010145D01*
X012416Y010182D01*
X012486Y010252D01*
X012524Y010344D01*
X012524Y010443D01*
X012486Y010534D01*
X012416Y010604D01*
X012324Y010642D01*
X012253Y010642D01*
X011466Y011428D01*
X011366Y011428D01*
X011306Y011488D01*
X010434Y011488D01*
X010370Y011424D01*
X010370Y011113D01*
X010434Y011048D01*
X010372Y011110D02*
X009428Y011110D01*
X009430Y011209D02*
X010370Y011209D01*
X010370Y011307D02*
X009430Y011307D01*
X009430Y011406D02*
X010370Y011406D01*
X010870Y011268D02*
X011400Y011268D01*
X012275Y010393D01*
X012457Y010224D02*
X012684Y010224D01*
X012632Y010322D02*
X012515Y010322D01*
X012524Y010421D02*
X012632Y010421D01*
X012632Y010519D02*
X012492Y010519D01*
X012383Y010618D02*
X012632Y010618D01*
X012632Y010716D02*
X012178Y010716D01*
X012080Y010815D02*
X012632Y010815D01*
X012632Y010913D02*
X011981Y010913D01*
X011883Y011012D02*
X012645Y011012D01*
X012891Y011012D02*
X012909Y011012D01*
X012909Y010913D02*
X012891Y010913D01*
X012891Y010815D02*
X012909Y010815D01*
X012909Y010716D02*
X012891Y010716D01*
X012891Y010618D02*
X012909Y010618D01*
X012909Y010519D02*
X012891Y010519D01*
X012891Y010421D02*
X012909Y010421D01*
X012909Y010322D02*
X012891Y010322D01*
X012891Y010224D02*
X012909Y010224D01*
X013116Y010224D02*
X013134Y010224D01*
X013134Y010125D02*
X011984Y010125D01*
X012024Y010224D02*
X012093Y010224D01*
X012035Y010322D02*
X012022Y010322D01*
X012021Y010421D02*
X011974Y010421D01*
X011923Y010519D02*
X011319Y010519D01*
X011404Y010618D02*
X011824Y010618D01*
X011726Y010716D02*
X011410Y010716D01*
X011410Y010815D02*
X011627Y010815D01*
X011529Y010913D02*
X011406Y010913D01*
X011430Y011012D02*
X011329Y011012D01*
X011686Y011209D02*
X014490Y011209D01*
X014490Y011307D02*
X011587Y011307D01*
X011489Y011406D02*
X014526Y011406D01*
X014526Y011371D02*
X014490Y011335D01*
X014490Y009710D01*
X014439Y009659D01*
X014401Y009568D01*
X014401Y009469D01*
X014439Y009377D01*
X014509Y009307D01*
X014601Y009270D01*
X014699Y009270D01*
X014791Y009307D01*
X014861Y009377D01*
X014899Y009469D01*
X014899Y009568D01*
X014861Y009659D01*
X014810Y009710D01*
X014810Y011145D01*
X014824Y011145D01*
X014916Y011182D01*
X014986Y011252D01*
X015024Y011344D01*
X015024Y011443D01*
X014986Y011534D01*
X014916Y011604D01*
X014824Y011642D01*
X014726Y011642D01*
X014634Y011604D01*
X014564Y011534D01*
X014526Y011443D01*
X014526Y011371D01*
X014552Y011504D02*
X006077Y011504D01*
X006089Y011406D02*
X008430Y011406D01*
X008430Y011307D02*
X006089Y011307D01*
X006089Y011209D02*
X008430Y011209D01*
X009430Y010913D02*
X010334Y010913D01*
X010865Y010913D02*
X010875Y010913D01*
X010865Y010815D02*
X010875Y010815D01*
X010865Y010716D02*
X010875Y010716D01*
X010865Y010618D02*
X010875Y010618D01*
X010865Y010519D02*
X010875Y010519D01*
X010870Y010268D02*
X010275Y010268D01*
X010342Y010027D02*
X011708Y010027D01*
X011842Y010027D02*
X013165Y010027D01*
X013240Y009928D02*
X012717Y009928D01*
X012736Y009909D02*
X012666Y009979D01*
X012574Y010017D01*
X012476Y010017D01*
X012384Y009979D01*
X012333Y009928D01*
X011366Y009928D01*
X011306Y009988D01*
X010434Y009988D01*
X010370Y009924D01*
X010370Y009613D01*
X010434Y009548D01*
X011306Y009548D01*
X011366Y009608D01*
X012333Y009608D01*
X012384Y009557D01*
X012476Y009520D01*
X012574Y009520D01*
X012666Y009557D01*
X012736Y009627D01*
X012774Y009719D01*
X012774Y009818D01*
X012736Y009909D01*
X012769Y009830D02*
X013240Y009830D01*
X013240Y009731D02*
X012774Y009731D01*
X012738Y009633D02*
X013240Y009633D01*
X013240Y009534D02*
X012610Y009534D01*
X012440Y009534D02*
X008090Y009534D01*
X008090Y009436D02*
X013240Y009436D01*
X013240Y009337D02*
X008090Y009337D01*
X008090Y009239D02*
X010842Y009239D01*
X010823Y009220D02*
X010823Y009053D01*
X008717Y009053D01*
X008666Y009104D01*
X008574Y009142D01*
X008476Y009142D01*
X008384Y009104D01*
X008314Y009034D01*
X008276Y008943D01*
X008276Y008844D01*
X008314Y008752D01*
X008384Y008682D01*
X008476Y008645D01*
X008574Y008645D01*
X008666Y008682D01*
X008717Y008733D01*
X010826Y008733D01*
X010888Y008671D01*
X011412Y008671D01*
X011474Y008733D01*
X011959Y008733D01*
X012151Y008541D01*
X012151Y008469D01*
X012189Y008377D01*
X012259Y008307D01*
X012351Y008270D01*
X012449Y008270D01*
X012541Y008307D01*
X012611Y008377D01*
X012649Y008469D01*
X012649Y008568D01*
X012611Y008659D01*
X012541Y008729D01*
X012449Y008767D01*
X012378Y008767D01*
X012185Y008960D01*
X012091Y009053D01*
X011477Y009053D01*
X011477Y009220D01*
X011412Y009285D01*
X010888Y009285D01*
X010823Y009220D01*
X010823Y009140D02*
X008579Y009140D01*
X008471Y009140D02*
X008090Y009140D01*
X008090Y009042D02*
X008322Y009042D01*
X008276Y008943D02*
X008090Y008943D01*
X008090Y008845D02*
X008276Y008845D01*
X008320Y008746D02*
X008090Y008746D01*
X008090Y008648D02*
X008468Y008648D01*
X008582Y008648D02*
X010885Y008648D01*
X010876Y008645D02*
X010841Y008626D01*
X010813Y008598D01*
X010794Y008563D01*
X010783Y008525D01*
X010783Y008357D01*
X011102Y008357D01*
X011102Y008656D01*
X010914Y008656D01*
X010876Y008645D01*
X010790Y008549D02*
X008090Y008549D01*
X008090Y008451D02*
X010783Y008451D01*
X010783Y008260D02*
X010783Y008092D01*
X010794Y008054D01*
X010813Y008020D01*
X010841Y007992D01*
X010876Y007972D01*
X010914Y007962D01*
X011102Y007962D01*
X011102Y008260D01*
X011198Y008260D01*
X011198Y007962D01*
X011386Y007962D01*
X011424Y007972D01*
X011459Y007992D01*
X011487Y008020D01*
X011506Y008054D01*
X011517Y008092D01*
X011517Y008260D01*
X011198Y008260D01*
X011198Y008357D01*
X011102Y008357D01*
X011102Y008260D01*
X010783Y008260D01*
X010783Y008254D02*
X009040Y008254D01*
X009055Y008155D02*
X010783Y008155D01*
X010793Y008057D02*
X009055Y008057D01*
X009055Y007958D02*
X012530Y007958D01*
X012530Y007860D02*
X011197Y007860D01*
X010989Y007860D02*
X010892Y007860D01*
X010892Y007761D02*
X010989Y007761D01*
X010989Y007663D02*
X010892Y007663D01*
X010892Y007564D02*
X009051Y007564D01*
X009055Y007663D02*
X010574Y007663D01*
X010581Y007761D02*
X009055Y007761D01*
X008699Y007761D02*
X008599Y007761D01*
X008599Y007663D02*
X008699Y007663D01*
X008699Y007564D02*
X008599Y007564D01*
X008599Y007466D02*
X008699Y007466D01*
X008976Y007466D02*
X010574Y007466D01*
X010574Y007367D02*
X007643Y007367D01*
X007544Y007269D02*
X010583Y007269D01*
X010892Y007269D02*
X010989Y007269D01*
X010989Y007367D02*
X010892Y007367D01*
X010892Y007466D02*
X010989Y007466D01*
X010684Y007860D02*
X008699Y007860D01*
X008699Y007958D02*
X008599Y007958D01*
X008599Y008057D02*
X008699Y008057D01*
X008699Y008155D02*
X008599Y008155D01*
X008599Y008254D02*
X008699Y008254D01*
X008258Y008254D02*
X008247Y008254D01*
X008090Y008352D02*
X011102Y008352D01*
X011198Y008352D02*
X012214Y008352D01*
X012159Y008451D02*
X011517Y008451D01*
X011517Y008525D02*
X011517Y008357D01*
X011198Y008357D01*
X011198Y008656D01*
X011386Y008656D01*
X011424Y008645D01*
X011459Y008626D01*
X011487Y008598D01*
X011506Y008563D01*
X011517Y008525D01*
X011510Y008549D02*
X012143Y008549D01*
X012044Y008648D02*
X011415Y008648D01*
X011198Y008648D02*
X011102Y008648D01*
X011102Y008549D02*
X011198Y008549D01*
X011198Y008451D02*
X011102Y008451D01*
X011102Y008254D02*
X011198Y008254D01*
X011198Y008155D02*
X011102Y008155D01*
X011102Y008057D02*
X011198Y008057D01*
X011507Y008057D02*
X012587Y008057D01*
X012686Y008155D02*
X011517Y008155D01*
X011517Y008254D02*
X012784Y008254D01*
X012883Y008352D02*
X012586Y008352D01*
X012641Y008451D02*
X012981Y008451D01*
X013080Y008549D02*
X012649Y008549D01*
X012616Y008648D02*
X013178Y008648D01*
X013240Y008746D02*
X012500Y008746D01*
X012300Y008845D02*
X013240Y008845D01*
X013240Y008943D02*
X012201Y008943D01*
X012103Y009042D02*
X013240Y009042D01*
X013240Y009140D02*
X011477Y009140D01*
X011458Y009239D02*
X013240Y009239D01*
X013810Y009239D02*
X016572Y009239D01*
X016572Y009337D02*
X014821Y009337D01*
X014885Y009436D02*
X016572Y009436D01*
X016597Y009534D02*
X014899Y009534D01*
X014872Y009633D02*
X016723Y009633D01*
X016714Y009731D02*
X014810Y009731D01*
X014810Y009830D02*
X016745Y009830D01*
X016850Y009928D02*
X014810Y009928D01*
X014810Y010027D02*
X020495Y010027D01*
X020495Y010125D02*
X014810Y010125D01*
X014810Y010224D02*
X020495Y010224D01*
X020495Y010322D02*
X014810Y010322D01*
X014810Y010421D02*
X020495Y010421D01*
X020495Y010519D02*
X014810Y010519D01*
X014810Y010618D02*
X020495Y010618D01*
X020495Y010716D02*
X014810Y010716D01*
X014810Y010815D02*
X020495Y010815D01*
X020495Y010913D02*
X014810Y010913D01*
X014810Y011012D02*
X018560Y011012D01*
X018590Y010982D02*
X018710Y010932D01*
X018840Y010932D01*
X018960Y010982D01*
X019052Y011074D01*
X019102Y011194D01*
X019102Y011325D01*
X019052Y011445D01*
X018960Y011537D01*
X018840Y011587D01*
X018710Y011587D01*
X018590Y011537D01*
X018498Y011445D01*
X018448Y011325D01*
X018448Y011194D01*
X018498Y011074D01*
X018590Y010982D01*
X018483Y011110D02*
X014810Y011110D01*
X014942Y011209D02*
X018448Y011209D01*
X018448Y011307D02*
X015009Y011307D01*
X015024Y011406D02*
X018482Y011406D01*
X018557Y011504D02*
X014998Y011504D01*
X014917Y011603D02*
X020495Y011603D01*
X020495Y011701D02*
X005300Y011701D01*
X005300Y011603D02*
X014633Y011603D01*
X014939Y011800D02*
X020495Y011800D01*
X020495Y011898D02*
X014939Y011898D01*
X014939Y011997D02*
X020495Y011997D01*
X020495Y012095D02*
X014939Y012095D01*
X014939Y012194D02*
X020495Y012194D01*
X020495Y012292D02*
X014939Y012292D01*
X014247Y012292D02*
X012734Y012292D01*
X012734Y012194D02*
X014247Y012194D01*
X014247Y012095D02*
X012734Y012095D01*
X012734Y011997D02*
X014247Y011997D01*
X014247Y011898D02*
X012734Y011898D01*
X012734Y011800D02*
X014247Y011800D01*
X014775Y011393D02*
X014650Y011268D01*
X014650Y009518D01*
X014479Y009337D02*
X013810Y009337D01*
X013810Y009436D02*
X014415Y009436D01*
X014401Y009534D02*
X013810Y009534D01*
X013810Y009633D02*
X014428Y009633D01*
X014490Y009731D02*
X013810Y009731D01*
X013810Y009830D02*
X013862Y009830D01*
X014025Y010018D02*
X014081Y010087D01*
X014081Y010643D01*
X014309Y010618D02*
X014490Y010618D01*
X014490Y010716D02*
X014309Y010716D01*
X014309Y010815D02*
X014490Y010815D01*
X014490Y010913D02*
X014309Y010913D01*
X014291Y011012D02*
X014490Y011012D01*
X014490Y011110D02*
X011784Y011110D01*
X012042Y011800D02*
X005300Y011800D01*
X005300Y011898D02*
X012042Y011898D01*
X012042Y011997D02*
X005300Y011997D01*
X005300Y012095D02*
X012042Y012095D01*
X012042Y012194D02*
X005300Y012194D01*
X005300Y012292D02*
X012042Y012292D01*
X012042Y012391D02*
X005300Y012391D01*
X005300Y012489D02*
X012042Y012489D01*
X012734Y012489D02*
X014247Y012489D01*
X014247Y012391D02*
X012734Y012391D01*
X010875Y011012D02*
X010865Y011012D01*
X010076Y010421D02*
X009430Y010421D01*
X009430Y010322D02*
X010028Y010322D01*
X010026Y010224D02*
X009430Y010224D01*
X009430Y010125D02*
X010066Y010125D01*
X010208Y010027D02*
X007910Y010027D01*
X008009Y009928D02*
X008434Y009928D01*
X008430Y009924D02*
X008494Y009988D01*
X009366Y009988D01*
X009430Y009924D01*
X009430Y009613D01*
X009366Y009548D01*
X008494Y009548D01*
X008430Y009613D01*
X008430Y009924D01*
X008430Y009830D02*
X008090Y009830D01*
X008090Y009731D02*
X008430Y009731D01*
X008430Y009633D02*
X008090Y009633D01*
X007710Y009633D02*
X007605Y009633D01*
X007605Y009534D02*
X007710Y009534D01*
X007710Y009436D02*
X007605Y009436D01*
X007592Y009337D02*
X007710Y009337D01*
X007159Y009337D02*
X007141Y009337D01*
X007141Y009436D02*
X007159Y009436D01*
X007548Y010125D02*
X008430Y010125D01*
X008613Y010306D02*
X008650Y010268D01*
X008930Y010268D01*
X008613Y010306D02*
X007150Y010306D01*
X008525Y008893D02*
X011150Y008893D01*
X011150Y008978D01*
X011150Y008893D02*
X012025Y008893D01*
X012400Y008518D01*
X013237Y008254D02*
X013314Y008254D01*
X013525Y008393D02*
X013562Y008356D01*
X013525Y008393D02*
X013650Y008518D01*
X013650Y010393D01*
X013687Y010431D01*
X013687Y010643D01*
X013294Y010643D02*
X013294Y010125D01*
X013400Y010018D01*
X013400Y008643D01*
X012690Y007934D01*
X012384Y007761D02*
X012213Y007761D01*
X012087Y007761D02*
X011936Y007761D01*
X011539Y006973D02*
X007671Y006973D01*
X007770Y006875D02*
X011526Y006875D01*
X011554Y006776D02*
X007868Y006776D01*
X007967Y006678D02*
X010833Y006678D01*
X010735Y006579D02*
X008065Y006579D01*
X008164Y006481D02*
X010636Y006481D01*
X010538Y006382D02*
X008262Y006382D01*
X008361Y006284D02*
X010439Y006284D01*
X010341Y006185D02*
X008459Y006185D01*
X008558Y006087D02*
X010242Y006087D01*
X010144Y005988D02*
X008656Y005988D01*
X008755Y005890D02*
X010045Y005890D01*
X010399Y005791D02*
X012197Y005791D01*
X012098Y005693D02*
X010301Y005693D01*
X010202Y005594D02*
X010874Y005594D01*
X011176Y005594D02*
X012000Y005594D01*
X011901Y005496D02*
X011252Y005496D01*
X011274Y005397D02*
X011803Y005397D01*
X012157Y005299D02*
X014142Y005299D01*
X014142Y005317D02*
X014142Y005220D01*
X013824Y005220D01*
X013824Y005052D01*
X013834Y005014D01*
X013854Y004979D01*
X013882Y004951D01*
X013916Y004932D01*
X013954Y004921D01*
X014142Y004921D01*
X014142Y005220D01*
X014239Y005220D01*
X014239Y004921D01*
X014427Y004921D01*
X014465Y004932D01*
X014499Y004951D01*
X014527Y004979D01*
X014546Y005013D01*
X014598Y004961D01*
X015122Y004961D01*
X015186Y005026D01*
X015186Y005079D01*
X015217Y005079D01*
X015273Y005023D01*
X015754Y005023D01*
X015818Y005088D01*
X015818Y005451D01*
X015754Y005515D01*
X015273Y005515D01*
X015217Y005459D01*
X015186Y005459D01*
X015186Y005511D01*
X015122Y005575D01*
X014598Y005575D01*
X014546Y005524D01*
X014527Y005557D01*
X014499Y005585D01*
X014465Y005605D01*
X014427Y005615D01*
X014239Y005615D01*
X014239Y005317D01*
X014142Y005317D01*
X014142Y005615D01*
X013954Y005615D01*
X013916Y005605D01*
X013882Y005585D01*
X013854Y005557D01*
X013834Y005523D01*
X013824Y005485D01*
X013824Y005317D01*
X014142Y005317D01*
X014142Y005397D02*
X014239Y005397D01*
X014239Y005496D02*
X014142Y005496D01*
X014142Y005594D02*
X014239Y005594D01*
X014239Y005693D02*
X014142Y005693D01*
X014142Y005791D02*
X014239Y005791D01*
X014239Y005890D02*
X014142Y005890D01*
X014142Y005988D02*
X012846Y005988D01*
X012935Y006087D02*
X013824Y006087D01*
X013824Y006185D02*
X012935Y006185D01*
X012999Y006284D02*
X013840Y006284D01*
X014142Y006284D02*
X014239Y006284D01*
X014239Y006185D02*
X014142Y006185D01*
X014142Y006087D02*
X014239Y006087D01*
X014540Y006284D02*
X014556Y006284D01*
X014615Y006382D02*
X013024Y006382D01*
X013008Y006481D02*
X013666Y006481D01*
X013612Y006579D02*
X012941Y006579D01*
X012775Y006393D02*
X012775Y006143D01*
X011775Y005143D01*
X008400Y005143D01*
X008275Y005268D01*
X008650Y005393D02*
X007613Y006431D01*
X007150Y006431D01*
X007150Y006824D02*
X007594Y006824D01*
X008775Y005643D01*
X010025Y005643D01*
X010900Y006518D01*
X011775Y006518D01*
X011967Y006678D02*
X013606Y006678D01*
X013855Y006643D02*
X014650Y006643D01*
X014775Y006518D01*
X014775Y006017D01*
X014860Y006018D01*
X014814Y006017D01*
X015513Y006017D01*
X015818Y005988D02*
X016161Y005988D01*
X016232Y005890D02*
X015818Y005890D01*
X015773Y005791D02*
X016192Y005791D01*
X016192Y005693D02*
X014484Y005693D01*
X014483Y005594D02*
X016192Y005594D01*
X016192Y005496D02*
X015773Y005496D01*
X015818Y005397D02*
X016232Y005397D01*
X016232Y005299D02*
X015818Y005299D01*
X015818Y005200D02*
X016232Y005200D01*
X016232Y005102D02*
X015818Y005102D01*
X015164Y005003D02*
X018710Y005003D01*
X018710Y004905D02*
X013497Y004905D01*
X013524Y005003D02*
X013840Y005003D01*
X013824Y005102D02*
X013510Y005102D01*
X013445Y005200D02*
X013824Y005200D01*
X014142Y005200D02*
X014239Y005200D01*
X014239Y005102D02*
X014142Y005102D01*
X014142Y005003D02*
X014239Y005003D01*
X014541Y005003D02*
X014556Y005003D01*
X015186Y005496D02*
X015253Y005496D01*
X015253Y005791D02*
X015186Y005791D01*
X015818Y006087D02*
X016063Y006087D01*
X015964Y006185D02*
X015818Y006185D01*
X015866Y006284D02*
X015163Y006284D01*
X014935Y006382D02*
X015835Y006382D01*
X015835Y006481D02*
X014935Y006481D01*
X014935Y006579D02*
X015112Y006579D01*
X015043Y006678D02*
X014842Y006678D01*
X014586Y006481D02*
X014044Y006481D01*
X013824Y005890D02*
X012748Y005890D01*
X012649Y005791D02*
X013827Y005791D01*
X013897Y005693D02*
X012551Y005693D01*
X012452Y005594D02*
X013898Y005594D01*
X013827Y005496D02*
X012354Y005496D01*
X012255Y005397D02*
X013824Y005397D01*
X013275Y005018D02*
X013150Y004893D01*
X008150Y004893D01*
X008316Y004708D02*
X018696Y004708D01*
X018710Y004806D02*
X013413Y004806D01*
X013040Y005102D02*
X011960Y005102D01*
X012058Y005200D02*
X013105Y005200D01*
X012394Y005988D02*
X010596Y005988D01*
X010498Y005890D02*
X012295Y005890D01*
X012492Y006087D02*
X010695Y006087D01*
X010793Y006185D02*
X012591Y006185D01*
X012551Y006284D02*
X011859Y006284D01*
X011988Y006382D02*
X012526Y006382D01*
X012542Y006481D02*
X012024Y006481D01*
X012019Y006579D02*
X012609Y006579D01*
X011691Y006284D02*
X010892Y006284D01*
X011025Y005393D02*
X008650Y005393D01*
X007585Y005397D02*
X007534Y005397D01*
X007585Y005299D02*
X006089Y005299D01*
X006089Y005397D02*
X006766Y005397D01*
X006753Y005405D02*
X006787Y005385D01*
X006825Y005375D01*
X007141Y005375D01*
X007141Y005634D01*
X006695Y005634D01*
X006695Y005505D01*
X006705Y005467D01*
X006725Y005433D01*
X006753Y005405D01*
X006697Y005496D02*
X005300Y005496D01*
X005300Y005594D02*
X006695Y005594D01*
X006695Y005693D02*
X005300Y005693D01*
X005300Y005791D02*
X006698Y005791D01*
X006422Y005890D02*
X005300Y005890D01*
X005300Y005988D02*
X006286Y005988D01*
X006210Y006087D02*
X005300Y006087D01*
X005300Y006185D02*
X006202Y006185D01*
X007141Y005594D02*
X007159Y005594D01*
X007159Y005496D02*
X007141Y005496D01*
X007141Y005397D02*
X007159Y005397D01*
X007585Y005200D02*
X006089Y005200D01*
X006089Y005102D02*
X007585Y005102D01*
X007585Y005003D02*
X006089Y005003D01*
X006089Y004905D02*
X007585Y004905D01*
X007585Y004806D02*
X006045Y004806D01*
X005300Y004708D02*
X007585Y004708D01*
X007665Y004609D02*
X005300Y004609D01*
X005300Y004511D02*
X007764Y004511D01*
X007862Y004412D02*
X005300Y004412D01*
X005300Y004314D02*
X007961Y004314D01*
X008059Y004215D02*
X005300Y004215D01*
X008203Y004609D02*
X018597Y004609D01*
X018839Y004314D02*
X020495Y004314D01*
X020495Y004412D02*
X018938Y004412D01*
X019036Y004511D02*
X020495Y004511D01*
X020495Y004609D02*
X019090Y004609D01*
X018741Y004215D02*
X020495Y004215D01*
X017160Y005547D02*
X017070Y005458D01*
X016874Y005458D01*
X016882Y005488D01*
X016882Y005625D01*
X016555Y005625D01*
X016555Y005661D01*
X016882Y005661D01*
X016882Y005799D01*
X016874Y005829D01*
X017071Y005830D01*
X017160Y005741D01*
X017160Y005547D01*
X017160Y005594D02*
X016882Y005594D01*
X016882Y005496D02*
X017108Y005496D01*
X017160Y005693D02*
X016882Y005693D01*
X016882Y005791D02*
X017109Y005791D01*
X015354Y007170D02*
X014633Y007170D01*
X014680Y007269D02*
X015256Y007269D01*
X015157Y007367D02*
X014680Y007367D01*
X014680Y007466D02*
X015085Y007466D01*
X015085Y007564D02*
X014680Y007564D01*
X014680Y007663D02*
X015085Y007663D01*
X015085Y007761D02*
X014680Y007761D01*
X014641Y007860D02*
X015085Y007860D01*
X015085Y007958D02*
X014711Y007958D01*
X014720Y008057D02*
X015085Y008057D01*
X015085Y008155D02*
X014720Y008155D01*
X014275Y007519D02*
X013776Y007519D01*
X013870Y007269D02*
X013666Y007269D01*
X013917Y007170D02*
X006696Y007170D01*
X006044Y007663D02*
X007401Y007663D01*
X007499Y007761D02*
X005300Y007761D01*
X005300Y007860D02*
X005390Y007860D01*
X006660Y007860D02*
X007535Y007860D01*
X007535Y007958D02*
X006802Y007958D01*
X006853Y008057D02*
X007535Y008057D01*
X007535Y008155D02*
X006864Y008155D01*
X006843Y008254D02*
X007555Y008254D01*
X007900Y007893D02*
X007901Y007893D01*
X007741Y007466D02*
X008322Y007466D01*
X009430Y009633D02*
X010370Y009633D01*
X010370Y009731D02*
X009430Y009731D01*
X009430Y009830D02*
X010370Y009830D01*
X010374Y009928D02*
X009426Y009928D01*
X010870Y009768D02*
X012525Y009768D01*
X012333Y009928D02*
X011366Y009928D01*
X011775Y010268D02*
X010870Y010268D01*
X014188Y009830D02*
X014490Y009830D01*
X014490Y009928D02*
X014257Y009928D01*
X014274Y010027D02*
X014490Y010027D01*
X014490Y010125D02*
X014250Y010125D01*
X014241Y010224D02*
X014490Y010224D01*
X014490Y010322D02*
X014309Y010322D01*
X014309Y010421D02*
X014490Y010421D01*
X014490Y010519D02*
X014309Y010519D01*
X016473Y009140D02*
X016572Y009140D01*
X016572Y009042D02*
X016478Y009042D01*
X016478Y008746D02*
X016572Y008746D01*
X016572Y008648D02*
X016474Y008648D01*
X018990Y011012D02*
X020495Y011012D01*
X020495Y011110D02*
X019067Y011110D01*
X019102Y011209D02*
X020495Y011209D01*
X020495Y011307D02*
X019102Y011307D01*
X019068Y011406D02*
X020495Y011406D01*
X020495Y011504D02*
X018993Y011504D01*
D25*
X020025Y011143D03*
X020025Y009893D03*
X017650Y009268D03*
X016963Y009706D03*
X016025Y010018D03*
X014900Y009143D03*
X014650Y009518D03*
X014275Y009143D03*
X014025Y010018D03*
X013025Y009768D03*
X012525Y009768D03*
X011775Y010268D03*
X012275Y010393D03*
X010650Y009393D03*
X010275Y010268D03*
X009525Y010893D03*
X007900Y011143D03*
X006525Y011143D03*
X005525Y010518D03*
X007150Y009018D03*
X008525Y008893D03*
X007150Y007893D03*
X008150Y007143D03*
X008650Y006643D03*
X010400Y007143D03*
X011775Y006893D03*
X011775Y006518D03*
X012275Y006518D03*
X012775Y006393D03*
X013275Y006518D03*
X013855Y006643D03*
X013775Y007518D03*
X013275Y008018D03*
X013525Y008393D03*
X012900Y008643D03*
X012400Y008518D03*
X011775Y008018D03*
X012150Y007518D03*
X012275Y007143D03*
X011025Y006018D03*
X011525Y005518D03*
X011025Y005393D03*
X013275Y005018D03*
X013400Y005393D03*
X015275Y006768D03*
X016150Y007643D03*
X015775Y007893D03*
X016275Y008268D03*
X017650Y006893D03*
X018275Y006893D03*
X019775Y007893D03*
X017025Y005643D03*
X016025Y005393D03*
X016025Y004768D03*
X018275Y004768D03*
X010525Y008393D03*
X014775Y011393D03*
X016025Y011393D03*
X013525Y012143D03*
X011150Y012143D03*
X008275Y005268D03*
X008150Y004893D03*
X007525Y004393D03*
D26*
X007775Y004768D02*
X007775Y005893D01*
X007631Y006037D01*
X007150Y006037D01*
X006544Y006037D01*
X006400Y006143D01*
X006400Y007143D01*
X006650Y007393D01*
X007400Y007393D01*
X007900Y007893D01*
X007900Y009768D01*
X007756Y009912D01*
X007150Y009912D01*
X005650Y008518D02*
X005650Y011643D01*
X011650Y012143D02*
X013525Y012143D01*
X015525Y012143D01*
X016958Y009705D02*
X016958Y009518D01*
X016963Y009523D01*
X016963Y009706D01*
X016958Y009518D02*
X016958Y009267D01*
X016092Y008893D02*
X015650Y008893D01*
X015275Y008518D01*
X015275Y007518D01*
X016025Y006768D01*
X016025Y006393D01*
X016401Y006017D01*
X016537Y006017D01*
X017149Y006020D01*
X017526Y005643D01*
X017148Y005267D01*
X016537Y005269D01*
X015513Y005269D02*
X014901Y005269D01*
X014900Y005268D01*
X014888Y005195D01*
X014860Y005268D01*
X014939Y005267D01*
X015024Y006019D02*
X015513Y006017D01*
X018650Y004393D02*
X008150Y004393D01*
X007775Y004768D01*
X005650Y004393D02*
X005650Y007768D01*
X016958Y008519D02*
X018024Y008519D01*
X018169Y008375D01*
X018650Y008375D01*
X019169Y008375D01*
X019275Y008268D01*
X019275Y007018D01*
X018900Y006643D01*
X018900Y004643D01*
X018650Y004393D01*
X020150Y006518D02*
X020150Y009893D01*
X020025Y009893D01*
M02*
