%
M48
M72
T01C0.0157
T02C0.0295
T03C0.0354
T04C0.0400
%
T01
X7525Y4393
X8150Y4893
X8275Y5268
X8650Y6643
X8150Y7143
X7150Y7893
X8525Y8893
X7150Y9018
X5525Y10518
X6525Y11143
X7900Y11143
X9525Y10893
X10275Y10268
X10650Y9393
X10525Y8393
X11775Y8018
X12400Y8518
X12900Y8643
X13525Y8393
X13275Y8018
X13775Y7518
X13855Y6643
X13275Y6518
X12775Y6393
X12275Y6518
X11775Y6518
X11775Y6893
X12275Y7143
X12150Y7518
X10400Y7143
X11025Y6018
X11525Y5518
X11025Y5393
X13275Y5018
X13400Y5393
X15275Y6768
X16150Y7643
X15775Y7893
X16275Y8268
X14900Y9143
X14650Y9518
X14275Y9143
X14025Y10018
X13025Y9768
X12525Y9768
X11775Y10268
X12275Y10393
X14775Y11393
X16025Y11393
X16025Y10018
X16963Y9706
X17650Y9268
X20025Y9893
X20025Y11143
X19775Y7893
X18275Y6893
X17650Y6893
X17025Y5643
X16025Y5393
X16025Y4768
X18275Y4768
X13525Y12143
X11150Y12143
T02
X6566Y8143
X5484Y8143
T03
X18775Y9527
X18775Y11259
T04
X19650Y6143
X19650Y5143
M30
