G75*
%MOIN*%
%OFA0B0*%
%FSLAX24Y24*%
%IPPOS*%
%LPD*%
%AMOC8*
5,1,8,0,0,1.08239X$1,22.5*
%
%ADD10C,0.0000*%
%ADD11C,0.1221*%
%ADD12R,0.0276X0.0473*%
%ADD13R,0.0237X0.0276*%
%ADD14R,0.0355X0.0154*%
%ADD15R,0.0154X0.0355*%
%ADD16R,0.0394X0.0394*%
%ADD17R,0.0276X0.0394*%
%ADD18R,0.0394X0.0276*%
%ADD19R,0.0276X0.0237*%
%ADD20R,0.0512X0.0158*%
%ADD21R,0.0158X0.0512*%
%ADD22R,0.0276X0.0650*%
%ADD23R,0.0512X0.0749*%
%ADD24R,0.0260X0.0540*%
%ADD25R,0.0434X0.0591*%
%ADD26R,0.0650X0.0276*%
%ADD27R,0.0749X0.0512*%
%ADD28R,0.1040X0.0790*%
%ADD29R,0.0552X0.0316*%
%ADD30R,0.0434X0.0217*%
%ADD31R,0.0583X0.0217*%
%ADD32R,0.0867X0.0621*%
%ADD33R,0.0788X0.0975*%
%ADD34R,0.0788X0.0503*%
%ADD35R,0.0650X0.0180*%
%ADD36R,0.1102X0.0236*%
%ADD37R,0.0434X0.0473*%
%ADD38C,0.0335*%
%ADD39R,0.0355X0.0355*%
D10*
X006957Y004150D02*
X018965Y004150D01*
X018374Y005232D02*
X018376Y005280D01*
X018382Y005328D01*
X018392Y005375D01*
X018405Y005421D01*
X018423Y005466D01*
X018443Y005510D01*
X018468Y005552D01*
X018496Y005591D01*
X018526Y005628D01*
X018560Y005662D01*
X018597Y005694D01*
X018635Y005723D01*
X018676Y005748D01*
X018719Y005770D01*
X018764Y005788D01*
X018810Y005802D01*
X018857Y005813D01*
X018905Y005820D01*
X018953Y005823D01*
X019001Y005822D01*
X019049Y005817D01*
X019097Y005808D01*
X019143Y005796D01*
X019188Y005779D01*
X019232Y005759D01*
X019274Y005736D01*
X019314Y005709D01*
X019352Y005679D01*
X019387Y005646D01*
X019419Y005610D01*
X019449Y005572D01*
X019475Y005531D01*
X019497Y005488D01*
X019517Y005444D01*
X019532Y005399D01*
X019544Y005352D01*
X019552Y005304D01*
X019556Y005256D01*
X019556Y005208D01*
X019552Y005160D01*
X019544Y005112D01*
X019532Y005065D01*
X019517Y005020D01*
X019497Y004976D01*
X019475Y004933D01*
X019449Y004892D01*
X019419Y004854D01*
X019387Y004818D01*
X019352Y004785D01*
X019314Y004755D01*
X019274Y004728D01*
X019232Y004705D01*
X019188Y004685D01*
X019143Y004668D01*
X019097Y004656D01*
X019049Y004647D01*
X019001Y004642D01*
X018953Y004641D01*
X018905Y004644D01*
X018857Y004651D01*
X018810Y004662D01*
X018764Y004676D01*
X018719Y004694D01*
X018676Y004716D01*
X018635Y004741D01*
X018597Y004770D01*
X018560Y004802D01*
X018526Y004836D01*
X018496Y004873D01*
X018468Y004912D01*
X018443Y004954D01*
X018423Y004998D01*
X018405Y005043D01*
X018392Y005089D01*
X018382Y005136D01*
X018376Y005184D01*
X018374Y005232D01*
X018965Y004149D02*
X019028Y004151D01*
X019091Y004156D01*
X019153Y004165D01*
X019215Y004178D01*
X019276Y004194D01*
X019335Y004214D01*
X019394Y004238D01*
X019451Y004264D01*
X019507Y004294D01*
X019560Y004327D01*
X019612Y004363D01*
X019661Y004402D01*
X019708Y004444D01*
X019753Y004489D01*
X019795Y004536D01*
X019834Y004585D01*
X019870Y004637D01*
X019903Y004691D01*
X019933Y004746D01*
X019959Y004803D01*
X019983Y004862D01*
X020003Y004921D01*
X020019Y004982D01*
X020032Y005044D01*
X020041Y005106D01*
X020046Y005169D01*
X020048Y005232D01*
X020047Y005232D02*
X020047Y017240D01*
X018374Y017240D02*
X018376Y017288D01*
X018382Y017336D01*
X018392Y017383D01*
X018405Y017429D01*
X018423Y017474D01*
X018443Y017518D01*
X018468Y017560D01*
X018496Y017599D01*
X018526Y017636D01*
X018560Y017670D01*
X018597Y017702D01*
X018635Y017731D01*
X018676Y017756D01*
X018719Y017778D01*
X018764Y017796D01*
X018810Y017810D01*
X018857Y017821D01*
X018905Y017828D01*
X018953Y017831D01*
X019001Y017830D01*
X019049Y017825D01*
X019097Y017816D01*
X019143Y017804D01*
X019188Y017787D01*
X019232Y017767D01*
X019274Y017744D01*
X019314Y017717D01*
X019352Y017687D01*
X019387Y017654D01*
X019419Y017618D01*
X019449Y017580D01*
X019475Y017539D01*
X019497Y017496D01*
X019517Y017452D01*
X019532Y017407D01*
X019544Y017360D01*
X019552Y017312D01*
X019556Y017264D01*
X019556Y017216D01*
X019552Y017168D01*
X019544Y017120D01*
X019532Y017073D01*
X019517Y017028D01*
X019497Y016984D01*
X019475Y016941D01*
X019449Y016900D01*
X019419Y016862D01*
X019387Y016826D01*
X019352Y016793D01*
X019314Y016763D01*
X019274Y016736D01*
X019232Y016713D01*
X019188Y016693D01*
X019143Y016676D01*
X019097Y016664D01*
X019049Y016655D01*
X019001Y016650D01*
X018953Y016649D01*
X018905Y016652D01*
X018857Y016659D01*
X018810Y016670D01*
X018764Y016684D01*
X018719Y016702D01*
X018676Y016724D01*
X018635Y016749D01*
X018597Y016778D01*
X018560Y016810D01*
X018526Y016844D01*
X018496Y016881D01*
X018468Y016920D01*
X018443Y016962D01*
X018423Y017006D01*
X018405Y017051D01*
X018392Y017097D01*
X018382Y017144D01*
X018376Y017192D01*
X018374Y017240D01*
X018965Y018323D02*
X019028Y018321D01*
X019091Y018316D01*
X019153Y018307D01*
X019215Y018294D01*
X019276Y018278D01*
X019335Y018258D01*
X019394Y018234D01*
X019451Y018208D01*
X019507Y018178D01*
X019560Y018145D01*
X019612Y018109D01*
X019661Y018070D01*
X019708Y018028D01*
X019753Y017983D01*
X019795Y017936D01*
X019834Y017887D01*
X019870Y017835D01*
X019903Y017782D01*
X019933Y017726D01*
X019959Y017669D01*
X019983Y017610D01*
X020003Y017551D01*
X020019Y017490D01*
X020032Y017428D01*
X020041Y017366D01*
X020046Y017303D01*
X020048Y017240D01*
X018965Y018323D02*
X006957Y018323D01*
X006366Y017240D02*
X006368Y017288D01*
X006374Y017336D01*
X006384Y017383D01*
X006397Y017429D01*
X006415Y017474D01*
X006435Y017518D01*
X006460Y017560D01*
X006488Y017599D01*
X006518Y017636D01*
X006552Y017670D01*
X006589Y017702D01*
X006627Y017731D01*
X006668Y017756D01*
X006711Y017778D01*
X006756Y017796D01*
X006802Y017810D01*
X006849Y017821D01*
X006897Y017828D01*
X006945Y017831D01*
X006993Y017830D01*
X007041Y017825D01*
X007089Y017816D01*
X007135Y017804D01*
X007180Y017787D01*
X007224Y017767D01*
X007266Y017744D01*
X007306Y017717D01*
X007344Y017687D01*
X007379Y017654D01*
X007411Y017618D01*
X007441Y017580D01*
X007467Y017539D01*
X007489Y017496D01*
X007509Y017452D01*
X007524Y017407D01*
X007536Y017360D01*
X007544Y017312D01*
X007548Y017264D01*
X007548Y017216D01*
X007544Y017168D01*
X007536Y017120D01*
X007524Y017073D01*
X007509Y017028D01*
X007489Y016984D01*
X007467Y016941D01*
X007441Y016900D01*
X007411Y016862D01*
X007379Y016826D01*
X007344Y016793D01*
X007306Y016763D01*
X007266Y016736D01*
X007224Y016713D01*
X007180Y016693D01*
X007135Y016676D01*
X007089Y016664D01*
X007041Y016655D01*
X006993Y016650D01*
X006945Y016649D01*
X006897Y016652D01*
X006849Y016659D01*
X006802Y016670D01*
X006756Y016684D01*
X006711Y016702D01*
X006668Y016724D01*
X006627Y016749D01*
X006589Y016778D01*
X006552Y016810D01*
X006518Y016844D01*
X006488Y016881D01*
X006460Y016920D01*
X006435Y016962D01*
X006415Y017006D01*
X006397Y017051D01*
X006384Y017097D01*
X006374Y017144D01*
X006368Y017192D01*
X006366Y017240D01*
X005874Y017240D02*
X005874Y005232D01*
X006366Y005232D02*
X006368Y005280D01*
X006374Y005328D01*
X006384Y005375D01*
X006397Y005421D01*
X006415Y005466D01*
X006435Y005510D01*
X006460Y005552D01*
X006488Y005591D01*
X006518Y005628D01*
X006552Y005662D01*
X006589Y005694D01*
X006627Y005723D01*
X006668Y005748D01*
X006711Y005770D01*
X006756Y005788D01*
X006802Y005802D01*
X006849Y005813D01*
X006897Y005820D01*
X006945Y005823D01*
X006993Y005822D01*
X007041Y005817D01*
X007089Y005808D01*
X007135Y005796D01*
X007180Y005779D01*
X007224Y005759D01*
X007266Y005736D01*
X007306Y005709D01*
X007344Y005679D01*
X007379Y005646D01*
X007411Y005610D01*
X007441Y005572D01*
X007467Y005531D01*
X007489Y005488D01*
X007509Y005444D01*
X007524Y005399D01*
X007536Y005352D01*
X007544Y005304D01*
X007548Y005256D01*
X007548Y005208D01*
X007544Y005160D01*
X007536Y005112D01*
X007524Y005065D01*
X007509Y005020D01*
X007489Y004976D01*
X007467Y004933D01*
X007441Y004892D01*
X007411Y004854D01*
X007379Y004818D01*
X007344Y004785D01*
X007306Y004755D01*
X007266Y004728D01*
X007224Y004705D01*
X007180Y004685D01*
X007135Y004668D01*
X007089Y004656D01*
X007041Y004647D01*
X006993Y004642D01*
X006945Y004641D01*
X006897Y004644D01*
X006849Y004651D01*
X006802Y004662D01*
X006756Y004676D01*
X006711Y004694D01*
X006668Y004716D01*
X006627Y004741D01*
X006589Y004770D01*
X006552Y004802D01*
X006518Y004836D01*
X006488Y004873D01*
X006460Y004912D01*
X006435Y004954D01*
X006415Y004998D01*
X006397Y005043D01*
X006384Y005089D01*
X006374Y005136D01*
X006368Y005184D01*
X006366Y005232D01*
X005874Y005232D02*
X005876Y005169D01*
X005881Y005106D01*
X005890Y005044D01*
X005903Y004982D01*
X005919Y004921D01*
X005939Y004862D01*
X005963Y004803D01*
X005989Y004746D01*
X006019Y004691D01*
X006052Y004637D01*
X006088Y004585D01*
X006127Y004536D01*
X006169Y004489D01*
X006214Y004444D01*
X006261Y004402D01*
X006310Y004363D01*
X006362Y004327D01*
X006415Y004294D01*
X006471Y004264D01*
X006528Y004238D01*
X006587Y004214D01*
X006646Y004194D01*
X006707Y004178D01*
X006769Y004165D01*
X006831Y004156D01*
X006894Y004151D01*
X006957Y004149D01*
X015804Y004411D02*
X015806Y004435D01*
X015812Y004458D01*
X015821Y004480D01*
X015834Y004500D01*
X015849Y004518D01*
X015868Y004533D01*
X015889Y004545D01*
X015911Y004553D01*
X015934Y004558D01*
X015958Y004559D01*
X015982Y004556D01*
X016004Y004549D01*
X016026Y004539D01*
X016046Y004526D01*
X016063Y004509D01*
X016077Y004490D01*
X016088Y004469D01*
X016096Y004446D01*
X016100Y004423D01*
X016100Y004399D01*
X016096Y004376D01*
X016088Y004353D01*
X016077Y004332D01*
X016063Y004313D01*
X016046Y004296D01*
X016026Y004283D01*
X016004Y004273D01*
X015982Y004266D01*
X015958Y004263D01*
X015934Y004264D01*
X015911Y004269D01*
X015889Y004277D01*
X015868Y004289D01*
X015849Y004304D01*
X015834Y004322D01*
X015821Y004342D01*
X015812Y004364D01*
X015806Y004387D01*
X015804Y004411D01*
X015804Y005493D02*
X015806Y005517D01*
X015812Y005540D01*
X015821Y005562D01*
X015834Y005582D01*
X015849Y005600D01*
X015868Y005615D01*
X015889Y005627D01*
X015911Y005635D01*
X015934Y005640D01*
X015958Y005641D01*
X015982Y005638D01*
X016004Y005631D01*
X016026Y005621D01*
X016046Y005608D01*
X016063Y005591D01*
X016077Y005572D01*
X016088Y005551D01*
X016096Y005528D01*
X016100Y005505D01*
X016100Y005481D01*
X016096Y005458D01*
X016088Y005435D01*
X016077Y005414D01*
X016063Y005395D01*
X016046Y005378D01*
X016026Y005365D01*
X016004Y005355D01*
X015982Y005348D01*
X015958Y005345D01*
X015934Y005346D01*
X015911Y005351D01*
X015889Y005359D01*
X015868Y005371D01*
X015849Y005386D01*
X015834Y005404D01*
X015821Y005424D01*
X015812Y005446D01*
X015806Y005469D01*
X015804Y005493D01*
X005874Y017240D02*
X005876Y017303D01*
X005881Y017366D01*
X005890Y017428D01*
X005903Y017490D01*
X005919Y017551D01*
X005939Y017610D01*
X005963Y017669D01*
X005989Y017726D01*
X006019Y017782D01*
X006052Y017835D01*
X006088Y017887D01*
X006127Y017936D01*
X006169Y017983D01*
X006214Y018028D01*
X006261Y018070D01*
X006310Y018109D01*
X006362Y018145D01*
X006416Y018178D01*
X006471Y018208D01*
X006528Y018234D01*
X006587Y018258D01*
X006646Y018278D01*
X006707Y018294D01*
X006769Y018307D01*
X006831Y018316D01*
X006894Y018321D01*
X006957Y018323D01*
D11*
X006957Y017240D03*
X018965Y017240D03*
X018965Y005232D03*
X006957Y005232D03*
D12*
X008839Y016519D03*
X009331Y016519D03*
X009823Y016519D03*
X010315Y016519D03*
X010315Y017385D03*
X009823Y017385D03*
X009331Y017385D03*
X008839Y017385D03*
D13*
X010318Y017889D03*
X010711Y017889D03*
X012130Y015327D03*
X012524Y015327D03*
X012274Y014514D03*
X011880Y014514D03*
X012005Y014139D03*
X012399Y014139D03*
X011086Y014014D03*
X010693Y014014D03*
X014005Y014389D03*
X014399Y014389D03*
X017005Y012139D03*
X017399Y012139D03*
X017399Y011702D03*
X017005Y011702D03*
X015961Y009889D03*
X015568Y009889D03*
X016505Y009202D03*
X016899Y009202D03*
X014461Y007327D03*
X014068Y007327D03*
X014068Y006827D03*
X014461Y006827D03*
X013336Y007577D03*
X012943Y007577D03*
X009961Y009452D03*
X009568Y009452D03*
X008336Y007077D03*
X007943Y007077D03*
D14*
X012539Y016085D03*
X012539Y016282D03*
X012539Y016478D03*
X012539Y016675D03*
X012539Y016872D03*
X012539Y017069D03*
X014114Y017069D03*
X014114Y016872D03*
X014114Y016675D03*
X014114Y016478D03*
X014114Y016282D03*
X014114Y016085D03*
D15*
X013819Y015789D03*
X013622Y015789D03*
X013425Y015789D03*
X013228Y015789D03*
X013032Y015789D03*
X012835Y015789D03*
X012835Y017364D03*
X013032Y017364D03*
X013228Y017364D03*
X013425Y017364D03*
X013622Y017364D03*
X013819Y017364D03*
D16*
X013327Y016577D03*
D17*
X012747Y017889D03*
X012157Y017889D03*
X009997Y010014D03*
X009407Y010014D03*
D18*
X011452Y014282D03*
X011452Y014872D03*
X011639Y017032D03*
X011639Y017622D03*
X016389Y012372D03*
X016389Y011782D03*
D19*
X015827Y011943D03*
X015827Y012336D03*
X015764Y015443D03*
X015764Y015836D03*
X016202Y015836D03*
X016202Y015443D03*
X016639Y015443D03*
X016639Y015836D03*
X011014Y016693D03*
X011014Y017086D03*
X010702Y015524D03*
X010702Y015130D03*
X008764Y011211D03*
X008764Y010818D03*
X008202Y010818D03*
X008202Y011211D03*
X008577Y010211D03*
X008577Y009818D03*
X009014Y009818D03*
X009014Y010211D03*
X008452Y008274D03*
X008452Y007880D03*
X013577Y008005D03*
X014014Y008005D03*
X014014Y008399D03*
X013577Y008399D03*
X014452Y008399D03*
X014452Y008005D03*
X015077Y008505D03*
X015077Y008899D03*
X017639Y008399D03*
X017639Y008005D03*
D20*
X015091Y009850D03*
X015091Y010047D03*
X015091Y010244D03*
X015091Y010441D03*
X015091Y010638D03*
X015091Y010835D03*
X015091Y011032D03*
X015091Y011228D03*
X015091Y011425D03*
X015091Y011622D03*
X015091Y011819D03*
X015091Y012016D03*
X015091Y012213D03*
X015091Y012410D03*
X015091Y012606D03*
X015091Y012803D03*
X010563Y012803D03*
X010563Y012606D03*
X010563Y012410D03*
X010563Y012213D03*
X010563Y012016D03*
X010563Y011819D03*
X010563Y011622D03*
X010563Y011425D03*
X010563Y011228D03*
X010563Y011032D03*
X010563Y010835D03*
X010563Y010638D03*
X010563Y010441D03*
X010563Y010244D03*
X010563Y010047D03*
X010563Y009850D03*
D21*
X011350Y009063D03*
X011547Y009063D03*
X011744Y009063D03*
X011941Y009063D03*
X012138Y009063D03*
X012335Y009063D03*
X012532Y009063D03*
X012728Y009063D03*
X012925Y009063D03*
X013122Y009063D03*
X013319Y009063D03*
X013516Y009063D03*
X013713Y009063D03*
X013910Y009063D03*
X014106Y009063D03*
X014303Y009063D03*
X014303Y013591D03*
X014106Y013591D03*
X013910Y013591D03*
X013713Y013591D03*
X013516Y013591D03*
X013319Y013591D03*
X013122Y013591D03*
X012925Y013591D03*
X012728Y013591D03*
X012532Y013591D03*
X012335Y013591D03*
X012138Y013591D03*
X011941Y013591D03*
X011744Y013591D03*
X011547Y013591D03*
X011350Y013591D03*
D22*
X015799Y016343D03*
X016193Y016343D03*
X016586Y016343D03*
X016980Y016343D03*
X017105Y006186D03*
X016711Y006186D03*
X016318Y006186D03*
X015924Y006186D03*
X014330Y006186D03*
X013936Y006186D03*
X013542Y006186D03*
X013149Y006186D03*
X012755Y006186D03*
X012361Y006186D03*
X011968Y006186D03*
X011574Y006186D03*
X009980Y006186D03*
X009586Y006186D03*
X009193Y006186D03*
X008799Y006186D03*
D23*
X008287Y004660D03*
X010492Y004660D03*
X011062Y004660D03*
X014842Y004660D03*
X015412Y004660D03*
X017617Y004660D03*
X017492Y017869D03*
X015287Y017869D03*
D24*
X016394Y008524D03*
X017134Y008524D03*
X017134Y007504D03*
X016764Y007504D03*
X016394Y007504D03*
D25*
X017140Y014019D03*
X017888Y014019D03*
X017514Y014885D03*
D26*
X007873Y014811D03*
X007873Y015205D03*
X007873Y014417D03*
X007873Y014024D03*
X007873Y013630D03*
X007873Y013236D03*
X007873Y012843D03*
X007873Y012449D03*
D27*
X006348Y011937D03*
X006348Y015717D03*
D28*
X019227Y015327D03*
X019227Y014327D03*
X019227Y013327D03*
X019227Y012327D03*
X019227Y011327D03*
X019227Y010327D03*
X019227Y009327D03*
X019227Y008327D03*
X019227Y007327D03*
D29*
X017827Y007513D03*
X017827Y006765D03*
X015702Y008328D03*
X015702Y009076D03*
D30*
X010059Y014568D03*
X010059Y014824D03*
X010059Y015080D03*
X010059Y015336D03*
X009095Y015336D03*
X009095Y015080D03*
X009095Y014824D03*
X009095Y014568D03*
D31*
X007514Y010026D03*
X007514Y009770D03*
X007514Y009514D03*
X007514Y009258D03*
X007514Y009003D03*
D32*
X007373Y008545D03*
X007373Y010484D03*
D33*
X006467Y010661D03*
X006467Y008368D03*
D34*
X006467Y009180D03*
X006467Y009837D03*
D35*
X009282Y008269D03*
X009282Y008019D03*
X009282Y007759D03*
X009282Y007509D03*
X010622Y007509D03*
X010622Y007759D03*
X010622Y008019D03*
X010622Y008269D03*
D36*
X017014Y010104D03*
X017014Y010577D03*
X017014Y011049D03*
D37*
X011639Y015867D03*
X011639Y016537D03*
D38*
X015952Y005493D03*
X015952Y004411D03*
D39*
X015435Y006827D03*
X014844Y006827D03*
X014844Y007514D03*
X015435Y007514D03*
X007185Y007077D03*
X006594Y007077D03*
M02*
