G75*
%MOIN*%
%OFA0B0*%
%FSLAX24Y24*%
%IPPOS*%
%LPD*%
%AMOC8*
5,1,8,0,0,1.08239X$1,22.5*
%
%ADD10C,0.0000*%
%ADD11C,0.0238*%
%ADD12C,0.0100*%
%ADD13C,0.0317*%
%ADD14C,0.0356*%
D10*
X006957Y004150D02*
X018965Y004150D01*
X018374Y005232D02*
X018376Y005280D01*
X018382Y005328D01*
X018392Y005375D01*
X018405Y005421D01*
X018423Y005466D01*
X018443Y005510D01*
X018468Y005552D01*
X018496Y005591D01*
X018526Y005628D01*
X018560Y005662D01*
X018597Y005694D01*
X018635Y005723D01*
X018676Y005748D01*
X018719Y005770D01*
X018764Y005788D01*
X018810Y005802D01*
X018857Y005813D01*
X018905Y005820D01*
X018953Y005823D01*
X019001Y005822D01*
X019049Y005817D01*
X019097Y005808D01*
X019143Y005796D01*
X019188Y005779D01*
X019232Y005759D01*
X019274Y005736D01*
X019314Y005709D01*
X019352Y005679D01*
X019387Y005646D01*
X019419Y005610D01*
X019449Y005572D01*
X019475Y005531D01*
X019497Y005488D01*
X019517Y005444D01*
X019532Y005399D01*
X019544Y005352D01*
X019552Y005304D01*
X019556Y005256D01*
X019556Y005208D01*
X019552Y005160D01*
X019544Y005112D01*
X019532Y005065D01*
X019517Y005020D01*
X019497Y004976D01*
X019475Y004933D01*
X019449Y004892D01*
X019419Y004854D01*
X019387Y004818D01*
X019352Y004785D01*
X019314Y004755D01*
X019274Y004728D01*
X019232Y004705D01*
X019188Y004685D01*
X019143Y004668D01*
X019097Y004656D01*
X019049Y004647D01*
X019001Y004642D01*
X018953Y004641D01*
X018905Y004644D01*
X018857Y004651D01*
X018810Y004662D01*
X018764Y004676D01*
X018719Y004694D01*
X018676Y004716D01*
X018635Y004741D01*
X018597Y004770D01*
X018560Y004802D01*
X018526Y004836D01*
X018496Y004873D01*
X018468Y004912D01*
X018443Y004954D01*
X018423Y004998D01*
X018405Y005043D01*
X018392Y005089D01*
X018382Y005136D01*
X018376Y005184D01*
X018374Y005232D01*
X018965Y004149D02*
X019028Y004151D01*
X019091Y004156D01*
X019153Y004165D01*
X019215Y004178D01*
X019276Y004194D01*
X019335Y004214D01*
X019394Y004238D01*
X019451Y004264D01*
X019507Y004294D01*
X019560Y004327D01*
X019612Y004363D01*
X019661Y004402D01*
X019708Y004444D01*
X019753Y004489D01*
X019795Y004536D01*
X019834Y004585D01*
X019870Y004637D01*
X019903Y004691D01*
X019933Y004746D01*
X019959Y004803D01*
X019983Y004862D01*
X020003Y004921D01*
X020019Y004982D01*
X020032Y005044D01*
X020041Y005106D01*
X020046Y005169D01*
X020048Y005232D01*
X020047Y005232D02*
X020047Y017240D01*
X018374Y017240D02*
X018376Y017288D01*
X018382Y017336D01*
X018392Y017383D01*
X018405Y017429D01*
X018423Y017474D01*
X018443Y017518D01*
X018468Y017560D01*
X018496Y017599D01*
X018526Y017636D01*
X018560Y017670D01*
X018597Y017702D01*
X018635Y017731D01*
X018676Y017756D01*
X018719Y017778D01*
X018764Y017796D01*
X018810Y017810D01*
X018857Y017821D01*
X018905Y017828D01*
X018953Y017831D01*
X019001Y017830D01*
X019049Y017825D01*
X019097Y017816D01*
X019143Y017804D01*
X019188Y017787D01*
X019232Y017767D01*
X019274Y017744D01*
X019314Y017717D01*
X019352Y017687D01*
X019387Y017654D01*
X019419Y017618D01*
X019449Y017580D01*
X019475Y017539D01*
X019497Y017496D01*
X019517Y017452D01*
X019532Y017407D01*
X019544Y017360D01*
X019552Y017312D01*
X019556Y017264D01*
X019556Y017216D01*
X019552Y017168D01*
X019544Y017120D01*
X019532Y017073D01*
X019517Y017028D01*
X019497Y016984D01*
X019475Y016941D01*
X019449Y016900D01*
X019419Y016862D01*
X019387Y016826D01*
X019352Y016793D01*
X019314Y016763D01*
X019274Y016736D01*
X019232Y016713D01*
X019188Y016693D01*
X019143Y016676D01*
X019097Y016664D01*
X019049Y016655D01*
X019001Y016650D01*
X018953Y016649D01*
X018905Y016652D01*
X018857Y016659D01*
X018810Y016670D01*
X018764Y016684D01*
X018719Y016702D01*
X018676Y016724D01*
X018635Y016749D01*
X018597Y016778D01*
X018560Y016810D01*
X018526Y016844D01*
X018496Y016881D01*
X018468Y016920D01*
X018443Y016962D01*
X018423Y017006D01*
X018405Y017051D01*
X018392Y017097D01*
X018382Y017144D01*
X018376Y017192D01*
X018374Y017240D01*
X018965Y018323D02*
X019028Y018321D01*
X019091Y018316D01*
X019153Y018307D01*
X019215Y018294D01*
X019276Y018278D01*
X019335Y018258D01*
X019394Y018234D01*
X019451Y018208D01*
X019507Y018178D01*
X019560Y018145D01*
X019612Y018109D01*
X019661Y018070D01*
X019708Y018028D01*
X019753Y017983D01*
X019795Y017936D01*
X019834Y017887D01*
X019870Y017835D01*
X019903Y017782D01*
X019933Y017726D01*
X019959Y017669D01*
X019983Y017610D01*
X020003Y017551D01*
X020019Y017490D01*
X020032Y017428D01*
X020041Y017366D01*
X020046Y017303D01*
X020048Y017240D01*
X018965Y018323D02*
X006957Y018323D01*
X006366Y017240D02*
X006368Y017288D01*
X006374Y017336D01*
X006384Y017383D01*
X006397Y017429D01*
X006415Y017474D01*
X006435Y017518D01*
X006460Y017560D01*
X006488Y017599D01*
X006518Y017636D01*
X006552Y017670D01*
X006589Y017702D01*
X006627Y017731D01*
X006668Y017756D01*
X006711Y017778D01*
X006756Y017796D01*
X006802Y017810D01*
X006849Y017821D01*
X006897Y017828D01*
X006945Y017831D01*
X006993Y017830D01*
X007041Y017825D01*
X007089Y017816D01*
X007135Y017804D01*
X007180Y017787D01*
X007224Y017767D01*
X007266Y017744D01*
X007306Y017717D01*
X007344Y017687D01*
X007379Y017654D01*
X007411Y017618D01*
X007441Y017580D01*
X007467Y017539D01*
X007489Y017496D01*
X007509Y017452D01*
X007524Y017407D01*
X007536Y017360D01*
X007544Y017312D01*
X007548Y017264D01*
X007548Y017216D01*
X007544Y017168D01*
X007536Y017120D01*
X007524Y017073D01*
X007509Y017028D01*
X007489Y016984D01*
X007467Y016941D01*
X007441Y016900D01*
X007411Y016862D01*
X007379Y016826D01*
X007344Y016793D01*
X007306Y016763D01*
X007266Y016736D01*
X007224Y016713D01*
X007180Y016693D01*
X007135Y016676D01*
X007089Y016664D01*
X007041Y016655D01*
X006993Y016650D01*
X006945Y016649D01*
X006897Y016652D01*
X006849Y016659D01*
X006802Y016670D01*
X006756Y016684D01*
X006711Y016702D01*
X006668Y016724D01*
X006627Y016749D01*
X006589Y016778D01*
X006552Y016810D01*
X006518Y016844D01*
X006488Y016881D01*
X006460Y016920D01*
X006435Y016962D01*
X006415Y017006D01*
X006397Y017051D01*
X006384Y017097D01*
X006374Y017144D01*
X006368Y017192D01*
X006366Y017240D01*
X005874Y017240D02*
X005874Y005232D01*
X006366Y005232D02*
X006368Y005280D01*
X006374Y005328D01*
X006384Y005375D01*
X006397Y005421D01*
X006415Y005466D01*
X006435Y005510D01*
X006460Y005552D01*
X006488Y005591D01*
X006518Y005628D01*
X006552Y005662D01*
X006589Y005694D01*
X006627Y005723D01*
X006668Y005748D01*
X006711Y005770D01*
X006756Y005788D01*
X006802Y005802D01*
X006849Y005813D01*
X006897Y005820D01*
X006945Y005823D01*
X006993Y005822D01*
X007041Y005817D01*
X007089Y005808D01*
X007135Y005796D01*
X007180Y005779D01*
X007224Y005759D01*
X007266Y005736D01*
X007306Y005709D01*
X007344Y005679D01*
X007379Y005646D01*
X007411Y005610D01*
X007441Y005572D01*
X007467Y005531D01*
X007489Y005488D01*
X007509Y005444D01*
X007524Y005399D01*
X007536Y005352D01*
X007544Y005304D01*
X007548Y005256D01*
X007548Y005208D01*
X007544Y005160D01*
X007536Y005112D01*
X007524Y005065D01*
X007509Y005020D01*
X007489Y004976D01*
X007467Y004933D01*
X007441Y004892D01*
X007411Y004854D01*
X007379Y004818D01*
X007344Y004785D01*
X007306Y004755D01*
X007266Y004728D01*
X007224Y004705D01*
X007180Y004685D01*
X007135Y004668D01*
X007089Y004656D01*
X007041Y004647D01*
X006993Y004642D01*
X006945Y004641D01*
X006897Y004644D01*
X006849Y004651D01*
X006802Y004662D01*
X006756Y004676D01*
X006711Y004694D01*
X006668Y004716D01*
X006627Y004741D01*
X006589Y004770D01*
X006552Y004802D01*
X006518Y004836D01*
X006488Y004873D01*
X006460Y004912D01*
X006435Y004954D01*
X006415Y004998D01*
X006397Y005043D01*
X006384Y005089D01*
X006374Y005136D01*
X006368Y005184D01*
X006366Y005232D01*
X005874Y005232D02*
X005876Y005169D01*
X005881Y005106D01*
X005890Y005044D01*
X005903Y004982D01*
X005919Y004921D01*
X005939Y004862D01*
X005963Y004803D01*
X005989Y004746D01*
X006019Y004691D01*
X006052Y004637D01*
X006088Y004585D01*
X006127Y004536D01*
X006169Y004489D01*
X006214Y004444D01*
X006261Y004402D01*
X006310Y004363D01*
X006362Y004327D01*
X006415Y004294D01*
X006471Y004264D01*
X006528Y004238D01*
X006587Y004214D01*
X006646Y004194D01*
X006707Y004178D01*
X006769Y004165D01*
X006831Y004156D01*
X006894Y004151D01*
X006957Y004149D01*
X015804Y004411D02*
X015806Y004435D01*
X015812Y004458D01*
X015821Y004480D01*
X015834Y004500D01*
X015849Y004518D01*
X015868Y004533D01*
X015889Y004545D01*
X015911Y004553D01*
X015934Y004558D01*
X015958Y004559D01*
X015982Y004556D01*
X016004Y004549D01*
X016026Y004539D01*
X016046Y004526D01*
X016063Y004509D01*
X016077Y004490D01*
X016088Y004469D01*
X016096Y004446D01*
X016100Y004423D01*
X016100Y004399D01*
X016096Y004376D01*
X016088Y004353D01*
X016077Y004332D01*
X016063Y004313D01*
X016046Y004296D01*
X016026Y004283D01*
X016004Y004273D01*
X015982Y004266D01*
X015958Y004263D01*
X015934Y004264D01*
X015911Y004269D01*
X015889Y004277D01*
X015868Y004289D01*
X015849Y004304D01*
X015834Y004322D01*
X015821Y004342D01*
X015812Y004364D01*
X015806Y004387D01*
X015804Y004411D01*
X015804Y005493D02*
X015806Y005517D01*
X015812Y005540D01*
X015821Y005562D01*
X015834Y005582D01*
X015849Y005600D01*
X015868Y005615D01*
X015889Y005627D01*
X015911Y005635D01*
X015934Y005640D01*
X015958Y005641D01*
X015982Y005638D01*
X016004Y005631D01*
X016026Y005621D01*
X016046Y005608D01*
X016063Y005591D01*
X016077Y005572D01*
X016088Y005551D01*
X016096Y005528D01*
X016100Y005505D01*
X016100Y005481D01*
X016096Y005458D01*
X016088Y005435D01*
X016077Y005414D01*
X016063Y005395D01*
X016046Y005378D01*
X016026Y005365D01*
X016004Y005355D01*
X015982Y005348D01*
X015958Y005345D01*
X015934Y005346D01*
X015911Y005351D01*
X015889Y005359D01*
X015868Y005371D01*
X015849Y005386D01*
X015834Y005404D01*
X015821Y005424D01*
X015812Y005446D01*
X015806Y005469D01*
X015804Y005493D01*
X005874Y017240D02*
X005876Y017303D01*
X005881Y017366D01*
X005890Y017428D01*
X005903Y017490D01*
X005919Y017551D01*
X005939Y017610D01*
X005963Y017669D01*
X005989Y017726D01*
X006019Y017782D01*
X006052Y017835D01*
X006088Y017887D01*
X006127Y017936D01*
X006169Y017983D01*
X006214Y018028D01*
X006261Y018070D01*
X006310Y018109D01*
X006362Y018145D01*
X006416Y018178D01*
X006471Y018208D01*
X006528Y018234D01*
X006587Y018258D01*
X006646Y018278D01*
X006707Y018294D01*
X006769Y018307D01*
X006831Y018316D01*
X006894Y018321D01*
X006957Y018323D01*
D11*
X008389Y017889D03*
X008327Y017077D03*
X008014Y016389D03*
X008702Y015952D03*
X009202Y015952D03*
X009764Y016014D03*
X009702Y015577D03*
X010327Y015764D03*
X010952Y015764D03*
X011202Y015452D03*
X011639Y015452D03*
X012077Y015702D03*
X012077Y016077D03*
X012077Y016702D03*
X012202Y017452D03*
X011639Y017952D03*
X011139Y017827D03*
X010952Y016264D03*
X012389Y014889D03*
X012889Y014764D03*
X013202Y014702D03*
X012639Y014264D03*
X014077Y014764D03*
X013889Y015327D03*
X014827Y015452D03*
X015264Y015514D03*
X015264Y015952D03*
X015764Y015139D03*
X016202Y015139D03*
X016639Y015139D03*
X017077Y015139D03*
X017077Y015702D03*
X017952Y015702D03*
X017952Y015139D03*
X018452Y013639D03*
X018264Y013264D03*
X017639Y012577D03*
X017764Y012139D03*
X017764Y011327D03*
X016764Y012327D03*
X015952Y011452D03*
X015577Y011452D03*
X014639Y012077D03*
X014639Y012452D03*
X013952Y013077D03*
X013139Y013077D03*
X012702Y013014D03*
X012452Y012764D03*
X012452Y012264D03*
X013014Y012264D03*
X013639Y012264D03*
X013389Y011202D03*
X014014Y011014D03*
X014327Y009952D03*
X014014Y009827D03*
X013202Y009639D03*
X012577Y009639D03*
X012077Y009639D03*
X011764Y010077D03*
X011452Y009764D03*
X011389Y010514D03*
X011077Y010514D03*
X011202Y010889D03*
X011639Y010827D03*
X011202Y011264D03*
X011202Y012264D03*
X011514Y012577D03*
X011452Y013077D03*
X010889Y013639D03*
X009952Y014077D03*
X009827Y013639D03*
X009202Y014077D03*
X008577Y014889D03*
X008577Y015264D03*
X007264Y015202D03*
X007139Y013764D03*
X008014Y011764D03*
X007327Y011202D03*
X008202Y010452D03*
X009139Y010952D03*
X009639Y010952D03*
X010702Y009577D03*
X010264Y009077D03*
X010139Y008639D03*
X009764Y008639D03*
X009202Y009264D03*
X008827Y008264D03*
X008014Y009014D03*
X007327Y007827D03*
X008639Y007077D03*
X009202Y006827D03*
X010577Y006827D03*
X011202Y006639D03*
X010639Y006202D03*
X010827Y005514D03*
X011452Y005514D03*
X012327Y005514D03*
X012702Y005514D03*
X013202Y005514D03*
X014702Y006139D03*
X015514Y006139D03*
X015764Y006952D03*
X016389Y006952D03*
X016702Y006577D03*
X017077Y006577D03*
X015764Y007577D03*
X015952Y007889D03*
X014702Y008452D03*
X014639Y008827D03*
X015014Y009514D03*
X015514Y009452D03*
X016327Y009577D03*
X017702Y009702D03*
X017639Y008764D03*
X018889Y006702D03*
X019514Y006702D03*
X014452Y007702D03*
X014077Y007702D03*
X013514Y007327D03*
X013202Y007139D03*
X012639Y007889D03*
X012639Y008452D03*
X013014Y008452D03*
X011139Y007514D03*
X011014Y008764D03*
X012577Y010077D03*
X015264Y013264D03*
X015077Y013577D03*
X014764Y013702D03*
X014139Y014077D03*
X014952Y014514D03*
X014889Y015014D03*
X015327Y015014D03*
X016077Y013577D03*
X016514Y013577D03*
X016827Y017139D03*
X015827Y017139D03*
X010952Y014514D03*
X010702Y014764D03*
D12*
X010724Y014667D02*
X010683Y014568D01*
X010683Y014461D01*
X010724Y014362D01*
X010799Y014286D01*
X010898Y014245D01*
X011005Y014245D01*
X011104Y014286D01*
X011180Y014362D01*
X011221Y014461D01*
X011221Y014568D01*
X011180Y014667D01*
X011104Y014742D01*
X011005Y014783D01*
X010898Y014783D01*
X010799Y014742D01*
X010724Y014667D01*
X010722Y014662D02*
X008730Y014662D01*
X008729Y014661D02*
X008805Y014737D01*
X008846Y014836D01*
X008846Y014943D01*
X008805Y015042D01*
X008770Y015077D01*
X008805Y015112D01*
X008846Y015211D01*
X008846Y015318D01*
X008805Y015417D01*
X008729Y015492D01*
X008630Y015533D01*
X008523Y015533D01*
X008424Y015492D01*
X008349Y015417D01*
X008308Y015318D01*
X008308Y015211D01*
X008349Y015112D01*
X008384Y015077D01*
X008349Y015042D01*
X008308Y014943D01*
X008308Y014836D01*
X008349Y014737D01*
X008424Y014661D01*
X008523Y014620D01*
X008630Y014620D01*
X008729Y014661D01*
X008815Y014760D02*
X010843Y014760D01*
X011061Y014760D02*
X012152Y014760D01*
X012161Y014737D02*
X012237Y014661D01*
X012336Y014620D01*
X012443Y014620D01*
X012542Y014661D01*
X012617Y014737D01*
X012620Y014744D01*
X012620Y014711D01*
X012661Y014612D01*
X012737Y014536D01*
X012836Y014495D01*
X012943Y014495D01*
X013003Y014520D01*
X013049Y014474D01*
X013148Y014433D01*
X013255Y014433D01*
X013354Y014474D01*
X013430Y014549D01*
X013471Y014648D01*
X013471Y014755D01*
X013430Y014854D01*
X013354Y014930D01*
X013255Y014971D01*
X013148Y014971D01*
X013088Y014946D01*
X013042Y014992D01*
X012943Y015033D01*
X012836Y015033D01*
X012737Y014992D01*
X012661Y014917D01*
X012658Y014910D01*
X012658Y014943D01*
X012617Y015042D01*
X012542Y015117D01*
X012443Y015158D01*
X012336Y015158D01*
X012237Y015117D01*
X012161Y015042D01*
X012120Y014943D01*
X012120Y014836D01*
X012161Y014737D01*
X012236Y014662D02*
X011182Y014662D01*
X011221Y014563D02*
X012710Y014563D01*
X012693Y014533D02*
X012586Y014533D01*
X012487Y014492D01*
X012411Y014417D01*
X012370Y014318D01*
X012370Y014211D01*
X012411Y014112D01*
X012487Y014036D01*
X012586Y013995D01*
X012693Y013995D01*
X012792Y014036D01*
X012867Y014112D01*
X012908Y014211D01*
X012908Y014318D01*
X012867Y014417D01*
X012792Y014492D01*
X012693Y014533D01*
X012641Y014662D02*
X012542Y014662D01*
X012459Y014465D02*
X011221Y014465D01*
X011182Y014366D02*
X012390Y014366D01*
X012370Y014268D02*
X011060Y014268D01*
X010844Y014268D02*
X007446Y014268D01*
X007448Y014263D02*
X007401Y014377D01*
X007326Y014452D01*
X007401Y014527D01*
X007448Y014641D01*
X007448Y014763D01*
X007401Y014877D01*
X007314Y014963D01*
X007201Y015010D01*
X007078Y015010D01*
X006965Y014963D01*
X006878Y014877D01*
X006831Y014763D01*
X006831Y014641D01*
X006878Y014527D01*
X006953Y014452D01*
X006878Y014377D01*
X006831Y014263D01*
X006831Y014141D01*
X006878Y014027D01*
X006965Y013940D01*
X007078Y013893D01*
X007201Y013893D01*
X007314Y013940D01*
X007401Y014027D01*
X007448Y014141D01*
X007448Y014263D01*
X007448Y014169D02*
X012387Y014169D01*
X012452Y014071D02*
X007419Y014071D01*
X007346Y013972D02*
X019897Y013972D01*
X019897Y013874D02*
X018589Y013874D01*
X018604Y013867D02*
X018505Y013908D01*
X018398Y013908D01*
X018299Y013867D01*
X018224Y013792D01*
X018183Y013693D01*
X018183Y013586D01*
X018205Y013531D01*
X018112Y013492D01*
X018036Y013417D01*
X017995Y013318D01*
X017995Y013211D01*
X018036Y013112D01*
X018112Y013036D01*
X018211Y012995D01*
X018318Y012995D01*
X018417Y013036D01*
X018492Y013112D01*
X018533Y013211D01*
X018533Y013318D01*
X018511Y013373D01*
X018604Y013411D01*
X018680Y013487D01*
X018721Y013586D01*
X018721Y013693D01*
X018680Y013792D01*
X018604Y013867D01*
X018687Y013775D02*
X019897Y013775D01*
X019897Y013677D02*
X018721Y013677D01*
X018718Y013578D02*
X019897Y013578D01*
X019897Y013480D02*
X018673Y013480D01*
X018532Y013381D02*
X019897Y013381D01*
X019897Y013283D02*
X018533Y013283D01*
X018522Y013184D02*
X019897Y013184D01*
X019897Y013086D02*
X018466Y013086D01*
X018062Y013086D02*
X015466Y013086D01*
X015492Y013112D02*
X015533Y013211D01*
X015533Y013318D01*
X015492Y013417D01*
X015417Y013492D01*
X015345Y013522D01*
X015346Y013523D01*
X015346Y013630D01*
X015305Y013729D01*
X015229Y013805D01*
X015130Y013846D01*
X015023Y013846D01*
X015000Y013836D01*
X014992Y013854D01*
X014917Y013930D01*
X014818Y013971D01*
X014711Y013971D01*
X014612Y013930D01*
X014536Y013854D01*
X014495Y013755D01*
X014495Y013648D01*
X014536Y013549D01*
X014612Y013474D01*
X014711Y013433D01*
X014818Y013433D01*
X014841Y013443D01*
X014849Y013424D01*
X014924Y013349D01*
X014996Y013319D01*
X014995Y013318D01*
X014995Y013211D01*
X015036Y013112D01*
X015112Y013036D01*
X015211Y012995D01*
X015318Y012995D01*
X015417Y013036D01*
X015492Y013112D01*
X015522Y013184D02*
X018006Y013184D01*
X017995Y013283D02*
X015533Y013283D01*
X015507Y013381D02*
X018022Y013381D01*
X018099Y013480D02*
X015429Y013480D01*
X015346Y013578D02*
X018186Y013578D01*
X018183Y013677D02*
X015327Y013677D01*
X015259Y013775D02*
X018217Y013775D01*
X018315Y013874D02*
X014973Y013874D01*
X014556Y013874D02*
X009964Y013874D01*
X009979Y013867D02*
X009880Y013908D01*
X009773Y013908D01*
X009674Y013867D01*
X009599Y013792D01*
X009558Y013693D01*
X009558Y013586D01*
X009599Y013487D01*
X009674Y013411D01*
X009773Y013370D01*
X009880Y013370D01*
X009979Y013411D01*
X010055Y013487D01*
X010096Y013586D01*
X010096Y013693D01*
X010055Y013792D01*
X009979Y013867D01*
X010062Y013775D02*
X014504Y013775D01*
X014495Y013677D02*
X010096Y013677D01*
X010093Y013578D02*
X014524Y013578D01*
X014606Y013480D02*
X010048Y013480D01*
X009907Y013381D02*
X014892Y013381D01*
X014995Y013283D02*
X012757Y013283D01*
X012755Y013283D02*
X012648Y013283D01*
X012549Y013242D01*
X012474Y013167D01*
X012433Y013068D01*
X012433Y013033D01*
X012398Y013033D01*
X012299Y012992D01*
X012224Y012917D01*
X012183Y012818D01*
X012183Y012711D01*
X012224Y012612D01*
X012299Y012536D01*
X012398Y012495D01*
X012505Y012495D01*
X012604Y012536D01*
X012680Y012612D01*
X012721Y012711D01*
X012721Y012745D01*
X012755Y012745D01*
X012854Y012786D01*
X012930Y012862D01*
X012971Y012961D01*
X012971Y013068D01*
X012930Y013167D01*
X012854Y013242D01*
X012755Y013283D01*
X012647Y013283D02*
X006024Y013283D01*
X006024Y013381D02*
X009747Y013381D01*
X009606Y013480D02*
X006024Y013480D01*
X006024Y013578D02*
X009561Y013578D01*
X009558Y013677D02*
X006024Y013677D01*
X006024Y013775D02*
X009592Y013775D01*
X009690Y013874D02*
X006024Y013874D01*
X006024Y013972D02*
X006933Y013972D01*
X006860Y014071D02*
X006024Y014071D01*
X006024Y014169D02*
X006831Y014169D01*
X006833Y014268D02*
X006024Y014268D01*
X006024Y014366D02*
X006874Y014366D01*
X006940Y014465D02*
X006024Y014465D01*
X006024Y014563D02*
X006863Y014563D01*
X006831Y014662D02*
X006024Y014662D01*
X006024Y014760D02*
X006831Y014760D01*
X006871Y014859D02*
X006024Y014859D01*
X006024Y014957D02*
X006959Y014957D01*
X007320Y014957D02*
X008314Y014957D01*
X008308Y014859D02*
X007408Y014859D01*
X007448Y014760D02*
X008339Y014760D01*
X008424Y014662D02*
X007448Y014662D01*
X007416Y014563D02*
X010683Y014563D01*
X010683Y014465D02*
X007339Y014465D01*
X007405Y014366D02*
X010722Y014366D01*
X011487Y015224D02*
X011586Y015183D01*
X011693Y015183D01*
X011792Y015224D01*
X011867Y015299D01*
X011908Y015398D01*
X011908Y015505D01*
X011867Y015604D01*
X011792Y015680D01*
X011693Y015721D01*
X011586Y015721D01*
X011487Y015680D01*
X011411Y015604D01*
X011370Y015505D01*
X011370Y015398D01*
X011411Y015299D01*
X011487Y015224D01*
X011458Y015253D02*
X008846Y015253D01*
X008832Y015351D02*
X009547Y015351D01*
X009549Y015349D02*
X009648Y015308D01*
X009755Y015308D01*
X009854Y015349D01*
X009930Y015424D01*
X009971Y015523D01*
X009971Y015630D01*
X009930Y015729D01*
X009886Y015773D01*
X009917Y015786D01*
X009992Y015862D01*
X010033Y015961D01*
X010033Y016068D01*
X009992Y016167D01*
X009917Y016242D01*
X009818Y016283D01*
X009711Y016283D01*
X009612Y016242D01*
X009536Y016167D01*
X009495Y016068D01*
X009495Y015961D01*
X009536Y015862D01*
X009580Y015818D01*
X009549Y015805D01*
X009474Y015729D01*
X009433Y015630D01*
X009433Y015523D01*
X009474Y015424D01*
X009549Y015349D01*
X009463Y015450D02*
X008772Y015450D01*
X008823Y015154D02*
X012326Y015154D01*
X012453Y015154D02*
X013681Y015154D01*
X013661Y015174D02*
X013737Y015099D01*
X013836Y015058D01*
X013943Y015058D01*
X014042Y015099D01*
X014117Y015174D01*
X014158Y015273D01*
X014158Y015380D01*
X014117Y015479D01*
X014042Y015555D01*
X013943Y015596D01*
X013836Y015596D01*
X013737Y015555D01*
X013661Y015479D01*
X013620Y015380D01*
X013620Y015273D01*
X013661Y015174D01*
X013629Y015253D02*
X011821Y015253D01*
X011889Y015351D02*
X013620Y015351D01*
X013649Y015450D02*
X011908Y015450D01*
X011891Y015548D02*
X013730Y015548D01*
X014048Y015548D02*
X014576Y015548D01*
X014558Y015505D02*
X014558Y015398D01*
X014599Y015299D01*
X014674Y015224D01*
X014773Y015183D01*
X014880Y015183D01*
X014979Y015224D01*
X015055Y015299D01*
X015096Y015398D01*
X015096Y015505D01*
X015055Y015604D01*
X014979Y015680D01*
X014880Y015721D01*
X014773Y015721D01*
X014674Y015680D01*
X014599Y015604D01*
X014558Y015505D01*
X014558Y015450D02*
X014130Y015450D01*
X014158Y015351D02*
X014577Y015351D01*
X014645Y015253D02*
X014150Y015253D01*
X014097Y015154D02*
X015495Y015154D01*
X015495Y015193D02*
X015495Y015086D01*
X015536Y014987D01*
X015612Y014911D01*
X015711Y014870D01*
X015818Y014870D01*
X015917Y014911D01*
X015983Y014978D01*
X016049Y014911D01*
X016148Y014870D01*
X016255Y014870D01*
X016354Y014911D01*
X016421Y014978D01*
X016487Y014911D01*
X016586Y014870D01*
X016693Y014870D01*
X016792Y014911D01*
X016867Y014987D01*
X016908Y015086D01*
X016908Y015193D01*
X016867Y015292D01*
X016792Y015367D01*
X016693Y015408D01*
X016586Y015408D01*
X016487Y015367D01*
X016421Y015301D01*
X016354Y015367D01*
X016255Y015408D01*
X016148Y015408D01*
X016049Y015367D01*
X015983Y015301D01*
X015917Y015367D01*
X015818Y015408D01*
X015711Y015408D01*
X015612Y015367D01*
X015536Y015292D01*
X015495Y015193D01*
X015520Y015253D02*
X015008Y015253D01*
X015076Y015351D02*
X015596Y015351D01*
X015508Y015056D02*
X012603Y015056D01*
X012652Y014957D02*
X012702Y014957D01*
X013077Y014957D02*
X013116Y014957D01*
X013288Y014957D02*
X013889Y014957D01*
X013924Y014992D02*
X013849Y014917D01*
X013808Y014818D01*
X013808Y014711D01*
X013849Y014612D01*
X013924Y014536D01*
X014023Y014495D01*
X014130Y014495D01*
X014229Y014536D01*
X014305Y014612D01*
X014346Y014711D01*
X014346Y014818D01*
X014305Y014917D01*
X014229Y014992D01*
X014130Y015033D01*
X014023Y015033D01*
X013924Y014992D01*
X013825Y014859D02*
X013425Y014859D01*
X013469Y014760D02*
X013808Y014760D01*
X013828Y014662D02*
X013471Y014662D01*
X013436Y014563D02*
X013897Y014563D01*
X014256Y014563D02*
X014683Y014563D01*
X014683Y014568D02*
X014683Y014461D01*
X014724Y014362D01*
X014799Y014286D01*
X014898Y014245D01*
X015005Y014245D01*
X015104Y014286D01*
X015180Y014362D01*
X015221Y014461D01*
X015221Y014568D01*
X015180Y014667D01*
X015104Y014742D01*
X015005Y014783D01*
X014898Y014783D01*
X014799Y014742D01*
X014724Y014667D01*
X014683Y014568D01*
X014722Y014662D02*
X014326Y014662D01*
X014346Y014760D02*
X014843Y014760D01*
X015061Y014760D02*
X019897Y014760D01*
X019897Y014662D02*
X015182Y014662D01*
X015221Y014563D02*
X018287Y014563D01*
X018329Y014605D02*
X018236Y014513D01*
X018186Y014392D01*
X018186Y014262D01*
X018236Y014141D01*
X018329Y014049D01*
X018449Y013999D01*
X018580Y013999D01*
X018700Y014049D01*
X018793Y014141D01*
X018842Y014262D01*
X018842Y014392D01*
X018793Y014513D01*
X018700Y014605D01*
X018580Y014655D01*
X018449Y014655D01*
X018329Y014605D01*
X018216Y014465D02*
X015221Y014465D01*
X015182Y014366D02*
X018186Y014366D01*
X018186Y014268D02*
X015060Y014268D01*
X014844Y014268D02*
X012908Y014268D01*
X012891Y014169D02*
X018224Y014169D01*
X018306Y014071D02*
X012826Y014071D01*
X012888Y014366D02*
X014722Y014366D01*
X014683Y014465D02*
X013333Y014465D01*
X013071Y014465D02*
X012819Y014465D01*
X012120Y014859D02*
X008846Y014859D01*
X008840Y014957D02*
X012126Y014957D01*
X012175Y015056D02*
X008791Y015056D01*
X008363Y015056D02*
X006024Y015056D01*
X006024Y015154D02*
X008331Y015154D01*
X008308Y015253D02*
X006024Y015253D01*
X006024Y015351D02*
X008322Y015351D01*
X008382Y015450D02*
X006024Y015450D01*
X006024Y015548D02*
X009433Y015548D01*
X009440Y015647D02*
X006024Y015647D01*
X006024Y015745D02*
X009490Y015745D01*
X009554Y015844D02*
X006024Y015844D01*
X006024Y015914D02*
X006977Y015914D01*
X006980Y015912D01*
X007018Y015914D01*
X007056Y015914D01*
X007059Y015917D01*
X007148Y015924D01*
X007155Y015919D01*
X007189Y015927D01*
X007223Y015929D01*
X007228Y015935D01*
X007320Y015955D01*
X007327Y015952D01*
X007360Y015964D01*
X007393Y015971D01*
X007397Y015978D01*
X007485Y016011D01*
X007493Y016008D01*
X007523Y016025D01*
X007555Y016037D01*
X007559Y016044D01*
X007641Y016089D01*
X007649Y016088D01*
X007677Y016109D01*
X007707Y016125D01*
X007709Y016133D01*
X007784Y016189D01*
X007793Y016189D01*
X007817Y016213D01*
X007844Y016234D01*
X007845Y016242D01*
X007912Y016308D01*
X007920Y016310D01*
X007940Y016337D01*
X007965Y016361D01*
X007965Y016369D01*
X008021Y016445D01*
X008029Y016447D01*
X008045Y016477D01*
X008066Y016504D01*
X008064Y016512D01*
X008110Y016595D01*
X008117Y016598D01*
X008129Y016630D01*
X008145Y016660D01*
X008143Y016668D01*
X008176Y016756D01*
X008183Y016761D01*
X008190Y016794D01*
X008202Y016826D01*
X008199Y016834D01*
X008219Y016925D01*
X008225Y016931D01*
X008227Y016965D01*
X008234Y016998D01*
X008230Y017005D01*
X008236Y017095D01*
X008239Y017098D01*
X008239Y017136D01*
X008242Y017174D01*
X008239Y017177D01*
X008239Y018173D01*
X017664Y018173D01*
X017664Y017239D01*
X017662Y017236D01*
X017664Y017198D01*
X017664Y017160D01*
X017667Y017158D01*
X017674Y017068D01*
X017669Y017061D01*
X017677Y017027D01*
X017679Y016993D01*
X017685Y016988D01*
X017705Y016896D01*
X017702Y016889D01*
X017714Y016857D01*
X017721Y016823D01*
X017728Y016819D01*
X017761Y016731D01*
X017758Y016723D01*
X017775Y016693D01*
X017787Y016661D01*
X017794Y016657D01*
X017839Y016575D01*
X017838Y016567D01*
X017859Y016539D01*
X017875Y016509D01*
X017883Y016507D01*
X017939Y016432D01*
X017939Y016424D01*
X017963Y016399D01*
X017984Y016372D01*
X017992Y016371D01*
X018058Y016304D01*
X018060Y016296D01*
X018087Y016276D01*
X018111Y016252D01*
X018119Y016252D01*
X018195Y016195D01*
X018197Y016188D01*
X018227Y016171D01*
X018254Y016151D01*
X018262Y016152D01*
X018345Y016107D01*
X018348Y016099D01*
X018380Y016087D01*
X018410Y016071D01*
X018418Y016073D01*
X018506Y016040D01*
X018511Y016034D01*
X018544Y016026D01*
X018576Y016014D01*
X018584Y016018D01*
X018675Y015998D01*
X018681Y015992D01*
X018715Y015989D01*
X018748Y015982D01*
X018755Y015986D01*
X018845Y015980D01*
X018848Y015977D01*
X018886Y015977D01*
X018924Y015974D01*
X018927Y015977D01*
X019897Y015977D01*
X019897Y006427D01*
X018989Y006427D01*
X018986Y006430D01*
X018948Y006427D01*
X018910Y006427D01*
X018908Y006424D01*
X018818Y006418D01*
X018811Y006422D01*
X018777Y006415D01*
X018743Y006412D01*
X018738Y006406D01*
X018646Y006386D01*
X018639Y006389D01*
X018607Y006377D01*
X018573Y006370D01*
X018569Y006363D01*
X018481Y006331D01*
X018473Y006333D01*
X018443Y006316D01*
X018411Y006304D01*
X018407Y006297D01*
X018325Y006252D01*
X018317Y006253D01*
X018289Y006233D01*
X018259Y006216D01*
X018257Y006208D01*
X018182Y006152D01*
X018174Y006152D01*
X018149Y006128D01*
X018122Y006107D01*
X018121Y006099D01*
X018054Y006033D01*
X018046Y006032D01*
X018026Y006004D01*
X018002Y005980D01*
X018002Y005972D01*
X017945Y005897D01*
X017938Y005894D01*
X017921Y005864D01*
X017901Y005837D01*
X017902Y005829D01*
X017857Y005746D01*
X017849Y005743D01*
X017837Y005711D01*
X017823Y005684D01*
X017823Y005763D01*
X017776Y005877D01*
X017689Y005963D01*
X017576Y006010D01*
X017453Y006010D01*
X017340Y005963D01*
X017253Y005877D01*
X017206Y005763D01*
X017206Y005641D01*
X017253Y005527D01*
X017340Y005440D01*
X017453Y005393D01*
X017576Y005393D01*
X017689Y005440D01*
X017765Y005516D01*
X017764Y005515D01*
X017768Y005508D01*
X017748Y005416D01*
X017742Y005410D01*
X017739Y005376D01*
X017732Y005343D01*
X017736Y005336D01*
X017730Y005246D01*
X017727Y005243D01*
X017727Y005205D01*
X017724Y005168D01*
X017727Y005165D01*
X017727Y004300D01*
X016228Y004300D01*
X016250Y004351D01*
X016250Y004470D01*
X016204Y004579D01*
X016120Y004663D01*
X016011Y004708D01*
X015893Y004708D01*
X015783Y004663D01*
X015700Y004579D01*
X015654Y004470D01*
X015654Y004351D01*
X015676Y004300D01*
X008239Y004300D01*
X008239Y005165D01*
X008242Y005168D01*
X008239Y005205D01*
X008239Y005243D01*
X008236Y005246D01*
X008230Y005336D01*
X008234Y005343D01*
X008227Y005376D01*
X008225Y005410D01*
X008219Y005416D01*
X008199Y005508D01*
X008202Y005515D01*
X008190Y005547D01*
X008183Y005581D01*
X008176Y005585D01*
X008143Y005673D01*
X008145Y005681D01*
X008129Y005711D01*
X008117Y005743D01*
X008110Y005746D01*
X008064Y005829D01*
X008066Y005837D01*
X008045Y005864D01*
X008029Y005894D01*
X008021Y005897D01*
X007965Y005972D01*
X007965Y005980D01*
X007940Y006004D01*
X007920Y006032D01*
X007912Y006033D01*
X007845Y006099D01*
X007844Y006107D01*
X007817Y006128D01*
X007793Y006152D01*
X007784Y006152D01*
X007709Y006208D01*
X007707Y006216D01*
X007677Y006233D01*
X007649Y006253D01*
X007641Y006252D01*
X007559Y006297D01*
X007555Y006304D01*
X007523Y006316D01*
X007493Y006333D01*
X007485Y006331D01*
X007397Y006363D01*
X007393Y006370D01*
X007360Y006377D01*
X007327Y006389D01*
X007320Y006386D01*
X007228Y006406D01*
X007223Y006412D01*
X007189Y006415D01*
X007155Y006422D01*
X007148Y006418D01*
X007059Y006424D01*
X007056Y006427D01*
X007018Y006427D01*
X006980Y006430D01*
X006977Y006427D01*
X006024Y006427D01*
X006024Y015914D01*
X007261Y015942D02*
X009503Y015942D01*
X009495Y016041D02*
X007557Y016041D01*
X007718Y016139D02*
X009525Y016139D01*
X009607Y016238D02*
X007845Y016238D01*
X007940Y016336D02*
X018026Y016336D01*
X017937Y016435D02*
X008014Y016435D01*
X008076Y016533D02*
X017862Y016533D01*
X017808Y016632D02*
X008130Y016632D01*
X008166Y016730D02*
X017761Y016730D01*
X017720Y016829D02*
X008201Y016829D01*
X008221Y016927D02*
X017698Y016927D01*
X017677Y017026D02*
X008232Y017026D01*
X008239Y017124D02*
X017670Y017124D01*
X017663Y017223D02*
X012352Y017223D01*
X012354Y017224D02*
X012430Y017299D01*
X012471Y017398D01*
X012471Y017505D01*
X012430Y017604D01*
X012354Y017680D01*
X012255Y017721D01*
X012148Y017721D01*
X012049Y017680D01*
X011974Y017604D01*
X011933Y017505D01*
X011933Y017398D01*
X011974Y017299D01*
X012049Y017224D01*
X012148Y017183D01*
X012255Y017183D01*
X012354Y017224D01*
X012439Y017321D02*
X017664Y017321D01*
X017664Y017420D02*
X012471Y017420D01*
X012466Y017518D02*
X017664Y017518D01*
X017664Y017617D02*
X012417Y017617D01*
X012269Y017715D02*
X017664Y017715D01*
X017664Y017814D02*
X008239Y017814D01*
X008239Y017912D02*
X017664Y017912D01*
X017664Y018011D02*
X008239Y018011D01*
X008239Y018109D02*
X017664Y018109D01*
X018138Y016238D02*
X009921Y016238D01*
X010004Y016139D02*
X018285Y016139D01*
X018505Y016041D02*
X010033Y016041D01*
X010026Y015942D02*
X010124Y015942D01*
X010099Y015917D02*
X010058Y015818D01*
X010058Y015711D01*
X010099Y015612D01*
X010174Y015536D01*
X010273Y015495D01*
X010380Y015495D01*
X010479Y015536D01*
X010555Y015612D01*
X010596Y015711D01*
X010596Y015818D01*
X010555Y015917D01*
X010479Y015992D01*
X010380Y016033D01*
X010273Y016033D01*
X010174Y015992D01*
X010099Y015917D01*
X010069Y015844D02*
X009974Y015844D01*
X009914Y015745D02*
X010058Y015745D01*
X010084Y015647D02*
X009964Y015647D01*
X009971Y015548D02*
X010162Y015548D01*
X009940Y015450D02*
X011370Y015450D01*
X011388Y015548D02*
X010491Y015548D01*
X010569Y015647D02*
X011454Y015647D01*
X011390Y015351D02*
X009857Y015351D01*
X010596Y015745D02*
X017366Y015745D01*
X017329Y015730D02*
X017236Y015638D01*
X017186Y015517D01*
X017186Y015387D01*
X017236Y015266D01*
X017329Y015174D01*
X017449Y015124D01*
X017580Y015124D01*
X017700Y015174D01*
X017793Y015266D01*
X017842Y015387D01*
X017842Y015517D01*
X017793Y015638D01*
X017700Y015730D01*
X017580Y015780D01*
X017449Y015780D01*
X017329Y015730D01*
X017245Y015647D02*
X015012Y015647D01*
X015078Y015548D02*
X017199Y015548D01*
X017186Y015450D02*
X015096Y015450D01*
X014641Y015647D02*
X011825Y015647D01*
X010585Y015844D02*
X019897Y015844D01*
X019897Y015942D02*
X010529Y015942D01*
X012052Y017223D02*
X008239Y017223D01*
X008239Y017321D02*
X011965Y017321D01*
X011933Y017420D02*
X008239Y017420D01*
X008239Y017518D02*
X011938Y017518D01*
X011986Y017617D02*
X008239Y017617D01*
X008239Y017715D02*
X012135Y017715D01*
X014264Y014957D02*
X015566Y014957D01*
X015963Y014957D02*
X016003Y014957D01*
X016400Y014957D02*
X016441Y014957D01*
X016471Y015351D02*
X016370Y015351D01*
X016033Y015351D02*
X015933Y015351D01*
X016808Y015351D02*
X017201Y015351D01*
X017249Y015253D02*
X016884Y015253D01*
X016908Y015154D02*
X017375Y015154D01*
X017654Y015154D02*
X019897Y015154D01*
X019897Y015056D02*
X016896Y015056D01*
X016838Y014957D02*
X019897Y014957D01*
X019897Y014859D02*
X014329Y014859D01*
X015006Y013184D02*
X012912Y013184D01*
X012963Y013086D02*
X015062Y013086D01*
X016536Y012479D02*
X016495Y012380D01*
X016495Y012273D01*
X016536Y012174D01*
X016612Y012099D01*
X016711Y012058D01*
X016818Y012058D01*
X016917Y012099D01*
X016992Y012174D01*
X017033Y012273D01*
X017033Y012380D01*
X016992Y012479D01*
X016917Y012555D01*
X016818Y012596D01*
X016711Y012596D01*
X016612Y012555D01*
X016536Y012479D01*
X016552Y012495D02*
X011772Y012495D01*
X011783Y012523D02*
X011783Y012630D01*
X011742Y012729D01*
X011667Y012805D01*
X011568Y012846D01*
X011461Y012846D01*
X011362Y012805D01*
X011286Y012729D01*
X011245Y012630D01*
X011245Y012533D01*
X011148Y012533D01*
X011049Y012492D01*
X010974Y012417D01*
X010933Y012318D01*
X010933Y012211D01*
X010974Y012112D01*
X011049Y012036D01*
X011148Y011995D01*
X011255Y011995D01*
X011354Y012036D01*
X011430Y012112D01*
X011471Y012211D01*
X011471Y012308D01*
X011568Y012308D01*
X011667Y012349D01*
X011742Y012424D01*
X011783Y012523D01*
X011783Y012593D02*
X012242Y012593D01*
X012191Y012692D02*
X011758Y012692D01*
X011681Y012790D02*
X012183Y012790D01*
X012212Y012889D02*
X006024Y012889D01*
X006024Y012987D02*
X012294Y012987D01*
X012440Y013086D02*
X006024Y013086D01*
X006024Y013184D02*
X012491Y013184D01*
X012971Y012987D02*
X019897Y012987D01*
X019897Y012889D02*
X012941Y012889D01*
X012858Y012790D02*
X017472Y012790D01*
X017487Y012805D02*
X017411Y012729D01*
X017370Y012630D01*
X017370Y012523D01*
X017411Y012424D01*
X017487Y012349D01*
X017586Y012308D01*
X017693Y012308D01*
X017792Y012349D01*
X017867Y012424D01*
X017908Y012523D01*
X017908Y012630D01*
X017867Y012729D01*
X017792Y012805D01*
X017693Y012846D01*
X017586Y012846D01*
X017487Y012805D01*
X017396Y012692D02*
X012713Y012692D01*
X012661Y012593D02*
X016705Y012593D01*
X016824Y012593D02*
X017370Y012593D01*
X017382Y012495D02*
X016977Y012495D01*
X017027Y012396D02*
X017439Y012396D01*
X017839Y012396D02*
X019897Y012396D01*
X019897Y012298D02*
X017033Y012298D01*
X017003Y012199D02*
X019897Y012199D01*
X019897Y012101D02*
X016919Y012101D01*
X016610Y012101D02*
X011419Y012101D01*
X011466Y012199D02*
X016526Y012199D01*
X016495Y012298D02*
X011471Y012298D01*
X011714Y012396D02*
X016502Y012396D01*
X015729Y011680D02*
X015630Y011721D01*
X015523Y011721D01*
X015424Y011680D01*
X015349Y011604D01*
X015308Y011505D01*
X015308Y011398D01*
X015349Y011299D01*
X015424Y011224D01*
X015523Y011183D01*
X015630Y011183D01*
X015729Y011224D01*
X015805Y011299D01*
X015846Y011398D01*
X015846Y011505D01*
X015805Y011604D01*
X015729Y011680D01*
X015664Y011707D02*
X019897Y011707D01*
X019897Y011805D02*
X006024Y011805D01*
X006024Y011707D02*
X015489Y011707D01*
X015353Y011608D02*
X006024Y011608D01*
X006024Y011510D02*
X011092Y011510D01*
X011049Y011492D02*
X010974Y011417D01*
X010933Y011318D01*
X010933Y011211D01*
X010974Y011112D01*
X011009Y011077D01*
X010974Y011042D01*
X010933Y010943D01*
X010933Y010836D01*
X010974Y010737D01*
X011049Y010661D01*
X011148Y010620D01*
X011255Y010620D01*
X011354Y010661D01*
X011430Y010737D01*
X011471Y010836D01*
X011471Y010943D01*
X011430Y011042D01*
X011395Y011077D01*
X011430Y011112D01*
X011471Y011211D01*
X011471Y011318D01*
X011430Y011417D01*
X011354Y011492D01*
X011255Y011533D01*
X011148Y011533D01*
X011049Y011492D01*
X010972Y011411D02*
X006024Y011411D01*
X006024Y011313D02*
X010933Y011313D01*
X010933Y011214D02*
X006024Y011214D01*
X006024Y011116D02*
X010972Y011116D01*
X010964Y011017D02*
X006024Y011017D01*
X006024Y010919D02*
X010933Y010919D01*
X010939Y010820D02*
X006024Y010820D01*
X006024Y010722D02*
X010989Y010722D01*
X011141Y010623D02*
X008411Y010623D01*
X008430Y010604D02*
X008354Y010680D01*
X008255Y010721D01*
X008148Y010721D01*
X008049Y010680D01*
X007974Y010604D01*
X007933Y010505D01*
X007933Y010398D01*
X007974Y010299D01*
X008049Y010224D01*
X008148Y010183D01*
X008255Y010183D01*
X008354Y010224D01*
X008430Y010299D01*
X008471Y010398D01*
X008471Y010505D01*
X008430Y010604D01*
X008463Y010525D02*
X019897Y010525D01*
X019897Y010623D02*
X011263Y010623D01*
X011415Y010722D02*
X019897Y010722D01*
X019897Y010820D02*
X014201Y010820D01*
X014167Y010786D02*
X014242Y010862D01*
X014283Y010961D01*
X014283Y011068D01*
X014242Y011167D01*
X014167Y011242D01*
X014068Y011283D01*
X013961Y011283D01*
X013862Y011242D01*
X013786Y011167D01*
X013745Y011068D01*
X013745Y010961D01*
X013786Y010862D01*
X013862Y010786D01*
X013961Y010745D01*
X014068Y010745D01*
X014167Y010786D01*
X014266Y010919D02*
X019897Y010919D01*
X019897Y011017D02*
X014283Y011017D01*
X014264Y011116D02*
X019897Y011116D01*
X019897Y011214D02*
X015707Y011214D01*
X015811Y011313D02*
X019897Y011313D01*
X019897Y011411D02*
X015846Y011411D01*
X015844Y011510D02*
X019897Y011510D01*
X019897Y011608D02*
X015801Y011608D01*
X015447Y011214D02*
X014195Y011214D01*
X013834Y011214D02*
X011471Y011214D01*
X011471Y011313D02*
X015343Y011313D01*
X015308Y011411D02*
X011432Y011411D01*
X011312Y011510D02*
X015310Y011510D01*
X013828Y010820D02*
X011465Y010820D01*
X011471Y010919D02*
X013763Y010919D01*
X013745Y011017D02*
X011440Y011017D01*
X011432Y011116D02*
X013765Y011116D01*
X014174Y010180D02*
X014099Y010104D01*
X014091Y010086D01*
X014068Y010096D01*
X013961Y010096D01*
X013862Y010055D01*
X013786Y009979D01*
X013745Y009880D01*
X013745Y009773D01*
X013786Y009674D01*
X013862Y009599D01*
X013961Y009558D01*
X014068Y009558D01*
X014167Y009599D01*
X014242Y009674D01*
X014250Y009693D01*
X014273Y009683D01*
X014380Y009683D01*
X014479Y009724D01*
X014555Y009799D01*
X014596Y009898D01*
X014596Y010005D01*
X014555Y010104D01*
X014479Y010180D01*
X014380Y010221D01*
X014273Y010221D01*
X014174Y010180D01*
X014125Y010131D02*
X012846Y010131D01*
X012846Y010130D02*
X012805Y010229D01*
X012729Y010305D01*
X012630Y010346D01*
X012523Y010346D01*
X012424Y010305D01*
X012349Y010229D01*
X012308Y010130D01*
X012308Y010023D01*
X012349Y009924D01*
X012415Y009858D01*
X012349Y009792D01*
X012327Y009739D01*
X012305Y009792D01*
X012229Y009867D01*
X012130Y009908D01*
X012023Y009908D01*
X011924Y009867D01*
X011849Y009792D01*
X011808Y009693D01*
X011808Y009586D01*
X011849Y009487D01*
X011924Y009411D01*
X012023Y009370D01*
X012130Y009370D01*
X012229Y009411D01*
X012305Y009487D01*
X012327Y009540D01*
X012349Y009487D01*
X012424Y009411D01*
X012523Y009370D01*
X012630Y009370D01*
X012729Y009411D01*
X012805Y009487D01*
X012846Y009586D01*
X012846Y009693D01*
X012805Y009792D01*
X012739Y009858D01*
X012805Y009924D01*
X012846Y010023D01*
X012846Y010130D01*
X012846Y010032D02*
X013839Y010032D01*
X013767Y009934D02*
X012809Y009934D01*
X012761Y009835D02*
X013017Y009835D01*
X013049Y009867D02*
X012974Y009792D01*
X012933Y009693D01*
X012933Y009586D01*
X012974Y009487D01*
X013049Y009411D01*
X013148Y009370D01*
X013255Y009370D01*
X013354Y009411D01*
X013430Y009487D01*
X013471Y009586D01*
X013471Y009693D01*
X013430Y009792D01*
X013354Y009867D01*
X013255Y009908D01*
X013148Y009908D01*
X013049Y009867D01*
X012951Y009737D02*
X012828Y009737D01*
X012846Y009638D02*
X012933Y009638D01*
X012952Y009540D02*
X012827Y009540D01*
X012759Y009441D02*
X013019Y009441D01*
X013384Y009441D02*
X015245Y009441D01*
X015245Y009398D02*
X015286Y009299D01*
X015362Y009224D01*
X015461Y009183D01*
X015568Y009183D01*
X015667Y009224D01*
X015742Y009299D01*
X015783Y009398D01*
X015783Y009505D01*
X015742Y009604D01*
X015667Y009680D01*
X015568Y009721D01*
X015461Y009721D01*
X015362Y009680D01*
X015286Y009604D01*
X015245Y009505D01*
X015245Y009398D01*
X015268Y009343D02*
X010325Y009343D01*
X010318Y009346D02*
X010211Y009346D01*
X010112Y009305D01*
X010036Y009229D01*
X009995Y009130D01*
X009995Y009023D01*
X010036Y008924D01*
X010062Y008899D01*
X009987Y008867D01*
X009952Y008832D01*
X009917Y008867D01*
X009818Y008908D01*
X009711Y008908D01*
X009612Y008867D01*
X009536Y008792D01*
X009495Y008693D01*
X009495Y008586D01*
X009536Y008487D01*
X009612Y008411D01*
X009711Y008370D01*
X009818Y008370D01*
X009917Y008411D01*
X009952Y008446D01*
X009987Y008411D01*
X010086Y008370D01*
X010193Y008370D01*
X010292Y008411D01*
X010367Y008487D01*
X010408Y008586D01*
X010408Y008693D01*
X010367Y008792D01*
X010342Y008818D01*
X010417Y008849D01*
X010492Y008924D01*
X010533Y009023D01*
X010533Y009130D01*
X010492Y009229D01*
X010417Y009305D01*
X010318Y009346D01*
X010204Y009343D02*
X006024Y009343D01*
X006024Y009441D02*
X011894Y009441D01*
X011827Y009540D02*
X011608Y009540D01*
X011604Y009536D02*
X011680Y009612D01*
X011721Y009711D01*
X011721Y009818D01*
X011680Y009917D01*
X011604Y009992D01*
X011505Y010033D01*
X011398Y010033D01*
X011299Y009992D01*
X011224Y009917D01*
X011183Y009818D01*
X011183Y009711D01*
X011224Y009612D01*
X011299Y009536D01*
X011398Y009495D01*
X011505Y009495D01*
X011604Y009536D01*
X011691Y009638D02*
X011808Y009638D01*
X011826Y009737D02*
X011721Y009737D01*
X011714Y009835D02*
X011892Y009835D01*
X011663Y009934D02*
X012345Y009934D01*
X012308Y010032D02*
X011508Y010032D01*
X011396Y010032D02*
X006024Y010032D01*
X006024Y009934D02*
X011241Y009934D01*
X011190Y009835D02*
X006024Y009835D01*
X006024Y009737D02*
X011183Y009737D01*
X011213Y009638D02*
X006024Y009638D01*
X006024Y009540D02*
X011296Y009540D01*
X010527Y009146D02*
X018119Y009146D01*
X018141Y009168D02*
X018049Y009075D01*
X017999Y008955D01*
X017999Y008824D01*
X018049Y008704D01*
X018141Y008611D01*
X018262Y008561D01*
X018392Y008561D01*
X018513Y008611D01*
X018605Y008704D01*
X018655Y008824D01*
X018655Y008955D01*
X018605Y009075D01*
X018513Y009168D01*
X018392Y009217D01*
X018262Y009217D01*
X018141Y009168D01*
X018037Y009047D02*
X010533Y009047D01*
X010503Y008949D02*
X017999Y008949D01*
X017999Y008850D02*
X010418Y008850D01*
X010384Y008752D02*
X018029Y008752D01*
X018099Y008653D02*
X014881Y008653D01*
X014854Y008680D02*
X014930Y008604D01*
X014971Y008505D01*
X014971Y008398D01*
X014930Y008299D01*
X014854Y008224D01*
X014755Y008183D01*
X014648Y008183D01*
X014549Y008224D01*
X014474Y008299D01*
X014433Y008398D01*
X014433Y008505D01*
X014474Y008604D01*
X014549Y008680D01*
X014648Y008721D01*
X014755Y008721D01*
X014854Y008680D01*
X014950Y008555D02*
X019897Y008555D01*
X019897Y008653D02*
X018555Y008653D01*
X018625Y008752D02*
X019897Y008752D01*
X019897Y008850D02*
X018655Y008850D01*
X018655Y008949D02*
X019897Y008949D01*
X019897Y009047D02*
X018617Y009047D01*
X018534Y009146D02*
X019897Y009146D01*
X019897Y009244D02*
X015687Y009244D01*
X015760Y009343D02*
X019897Y009343D01*
X019897Y009441D02*
X015783Y009441D01*
X015769Y009540D02*
X019897Y009540D01*
X019897Y009638D02*
X015708Y009638D01*
X015320Y009638D02*
X014206Y009638D01*
X014492Y009737D02*
X019897Y009737D01*
X019897Y009835D02*
X014570Y009835D01*
X014596Y009934D02*
X019897Y009934D01*
X019897Y010032D02*
X014585Y010032D01*
X014528Y010131D02*
X019897Y010131D01*
X019897Y010229D02*
X012805Y010229D01*
X012674Y010328D02*
X019897Y010328D01*
X019897Y010426D02*
X008471Y010426D01*
X008442Y010328D02*
X012480Y010328D01*
X012349Y010229D02*
X008360Y010229D01*
X008044Y010229D02*
X006024Y010229D01*
X006024Y010131D02*
X012308Y010131D01*
X012261Y009835D02*
X012392Y009835D01*
X012394Y009441D02*
X012259Y009441D01*
X012586Y008721D02*
X012487Y008680D01*
X012411Y008604D01*
X012370Y008505D01*
X012370Y008398D01*
X012411Y008299D01*
X012487Y008224D01*
X012586Y008183D01*
X012693Y008183D01*
X012792Y008224D01*
X012827Y008259D01*
X012862Y008224D01*
X012961Y008183D01*
X013068Y008183D01*
X013167Y008224D01*
X013242Y008299D01*
X013283Y008398D01*
X013283Y008505D01*
X013242Y008604D01*
X013167Y008680D01*
X013068Y008721D01*
X012961Y008721D01*
X012862Y008680D01*
X012827Y008645D01*
X012792Y008680D01*
X012693Y008721D01*
X012586Y008721D01*
X012460Y008653D02*
X010408Y008653D01*
X010396Y008555D02*
X012391Y008555D01*
X012370Y008456D02*
X010337Y008456D01*
X009970Y008850D02*
X009934Y008850D01*
X010026Y008949D02*
X006024Y008949D01*
X006024Y009047D02*
X009995Y009047D01*
X010002Y009146D02*
X006024Y009146D01*
X006024Y009244D02*
X010051Y009244D01*
X010477Y009244D02*
X015341Y009244D01*
X015260Y009540D02*
X013452Y009540D01*
X013471Y009638D02*
X013822Y009638D01*
X013760Y009737D02*
X013453Y009737D01*
X013386Y009835D02*
X013745Y009835D01*
X013193Y008653D02*
X014523Y008653D01*
X014453Y008555D02*
X013263Y008555D01*
X013283Y008456D02*
X014433Y008456D01*
X014450Y008358D02*
X013267Y008358D01*
X013202Y008259D02*
X014514Y008259D01*
X014890Y008259D02*
X017771Y008259D01*
X017749Y008205D02*
X017799Y008325D01*
X017891Y008418D01*
X018012Y008467D01*
X018142Y008467D01*
X018263Y008418D01*
X018355Y008325D01*
X018405Y008205D01*
X018405Y008074D01*
X018355Y007954D01*
X018263Y007861D01*
X018142Y007811D01*
X018012Y007811D01*
X017891Y007861D01*
X017799Y007954D01*
X017749Y008074D01*
X017749Y008205D01*
X017749Y008161D02*
X009075Y008161D01*
X009055Y008112D02*
X009096Y008211D01*
X009096Y008318D01*
X009055Y008417D01*
X008979Y008492D01*
X008880Y008533D01*
X008773Y008533D01*
X008674Y008492D01*
X008599Y008417D01*
X008558Y008318D01*
X008558Y008211D01*
X008599Y008112D01*
X008674Y008036D01*
X008773Y007995D01*
X008880Y007995D01*
X008979Y008036D01*
X009055Y008112D01*
X009005Y008062D02*
X017754Y008062D01*
X017794Y007964D02*
X014147Y007964D01*
X014130Y007971D02*
X014023Y007971D01*
X013924Y007930D01*
X013849Y007854D01*
X013808Y007755D01*
X013808Y007648D01*
X013849Y007549D01*
X013924Y007474D01*
X014023Y007433D01*
X014130Y007433D01*
X014229Y007474D01*
X014305Y007549D01*
X014346Y007648D01*
X014346Y007755D01*
X014305Y007854D01*
X014229Y007930D01*
X014130Y007971D01*
X014006Y007964D02*
X006024Y007964D01*
X006024Y008062D02*
X008648Y008062D01*
X008579Y008161D02*
X006024Y008161D01*
X006024Y008259D02*
X008558Y008259D01*
X008574Y008358D02*
X006024Y008358D01*
X006024Y008456D02*
X008638Y008456D01*
X009015Y008456D02*
X009567Y008456D01*
X009508Y008555D02*
X006024Y008555D01*
X006024Y008653D02*
X009495Y008653D01*
X009520Y008752D02*
X006024Y008752D01*
X006024Y008850D02*
X009595Y008850D01*
X009079Y008358D02*
X012387Y008358D01*
X012451Y008259D02*
X009096Y008259D01*
X008693Y007346D02*
X008586Y007346D01*
X008487Y007305D01*
X008411Y007229D01*
X008370Y007130D01*
X008370Y007023D01*
X008411Y006924D01*
X008487Y006849D01*
X008586Y006808D01*
X008693Y006808D01*
X008792Y006849D01*
X008867Y006924D01*
X008908Y007023D01*
X008908Y007130D01*
X008867Y007229D01*
X008792Y007305D01*
X008693Y007346D01*
X008822Y007274D02*
X011016Y007274D01*
X010987Y007286D02*
X011086Y007245D01*
X011193Y007245D01*
X011292Y007286D01*
X011367Y007362D01*
X011408Y007461D01*
X011408Y007568D01*
X011367Y007667D01*
X011292Y007742D01*
X011193Y007783D01*
X011086Y007783D01*
X010987Y007742D01*
X010911Y007667D01*
X010870Y007568D01*
X010870Y007461D01*
X010911Y007362D01*
X010987Y007286D01*
X010907Y007373D02*
X006024Y007373D01*
X006024Y007471D02*
X010870Y007471D01*
X010871Y007570D02*
X006024Y007570D01*
X006024Y007668D02*
X010913Y007668D01*
X011046Y007767D02*
X006024Y007767D01*
X006024Y007865D02*
X013860Y007865D01*
X013813Y007767D02*
X011233Y007767D01*
X011366Y007668D02*
X013808Y007668D01*
X013840Y007570D02*
X013631Y007570D01*
X013667Y007555D02*
X013568Y007596D01*
X013461Y007596D01*
X013362Y007555D01*
X013286Y007479D01*
X013245Y007380D01*
X013245Y007273D01*
X013286Y007174D01*
X013362Y007099D01*
X013461Y007058D01*
X013568Y007058D01*
X013667Y007099D01*
X013742Y007174D01*
X013783Y007273D01*
X013783Y007380D01*
X013742Y007479D01*
X013667Y007555D01*
X013746Y007471D02*
X013930Y007471D01*
X013783Y007373D02*
X015588Y007373D01*
X015612Y007349D02*
X015711Y007308D01*
X015818Y007308D01*
X015917Y007349D01*
X015992Y007424D01*
X016033Y007523D01*
X016033Y007630D01*
X015992Y007729D01*
X015917Y007805D01*
X015818Y007846D01*
X015711Y007846D01*
X015612Y007805D01*
X015536Y007729D01*
X015495Y007630D01*
X015495Y007523D01*
X015536Y007424D01*
X015612Y007349D01*
X015517Y007471D02*
X014223Y007471D01*
X014313Y007570D02*
X015495Y007570D01*
X015511Y007668D02*
X014346Y007668D01*
X014341Y007767D02*
X015574Y007767D01*
X015955Y007767D02*
X019897Y007767D01*
X019897Y007865D02*
X018267Y007865D01*
X018359Y007964D02*
X019897Y007964D01*
X019897Y008062D02*
X018400Y008062D01*
X018405Y008161D02*
X019897Y008161D01*
X019897Y008259D02*
X018382Y008259D01*
X018322Y008358D02*
X019897Y008358D01*
X019897Y008456D02*
X018169Y008456D01*
X017985Y008456D02*
X014971Y008456D01*
X014954Y008358D02*
X017831Y008358D01*
X017887Y007865D02*
X014294Y007865D01*
X013783Y007274D02*
X019897Y007274D01*
X019897Y007176D02*
X015921Y007176D01*
X015917Y007180D02*
X015818Y007221D01*
X015711Y007221D01*
X015612Y007180D01*
X015536Y007104D01*
X015495Y007005D01*
X015495Y006898D01*
X015536Y006799D01*
X015612Y006724D01*
X015711Y006683D01*
X015818Y006683D01*
X015917Y006724D01*
X015992Y006799D01*
X016033Y006898D01*
X016033Y007005D01*
X015992Y007104D01*
X015917Y007180D01*
X016004Y007077D02*
X019897Y007077D01*
X019897Y006979D02*
X016033Y006979D01*
X016026Y006880D02*
X019897Y006880D01*
X019897Y006782D02*
X017252Y006782D01*
X017229Y006805D02*
X017130Y006846D01*
X017023Y006846D01*
X016924Y006805D01*
X016889Y006770D01*
X016854Y006805D01*
X016755Y006846D01*
X016648Y006846D01*
X016549Y006805D01*
X016474Y006729D01*
X016433Y006630D01*
X016433Y006523D01*
X016474Y006424D01*
X016549Y006349D01*
X016648Y006308D01*
X016755Y006308D01*
X016854Y006349D01*
X016889Y006384D01*
X016924Y006349D01*
X017023Y006308D01*
X017130Y006308D01*
X017229Y006349D01*
X017305Y006424D01*
X017346Y006523D01*
X017346Y006630D01*
X017305Y006729D01*
X017229Y006805D01*
X017324Y006683D02*
X019897Y006683D01*
X019897Y006585D02*
X017346Y006585D01*
X017331Y006486D02*
X019897Y006486D01*
X019897Y007373D02*
X015941Y007373D01*
X016012Y007471D02*
X019897Y007471D01*
X019897Y007570D02*
X016033Y007570D01*
X016018Y007668D02*
X019897Y007668D01*
X018654Y006388D02*
X018642Y006388D01*
X018635Y006388D02*
X017268Y006388D01*
X017413Y005994D02*
X007951Y005994D01*
X008025Y005895D02*
X017272Y005895D01*
X017220Y005797D02*
X008082Y005797D01*
X008136Y005698D02*
X013762Y005698D01*
X013777Y005713D02*
X013690Y005627D01*
X013643Y005513D01*
X013643Y005391D01*
X013690Y005277D01*
X013777Y005190D01*
X013891Y005143D01*
X014013Y005143D01*
X014127Y005190D01*
X014213Y005277D01*
X014260Y005391D01*
X014260Y005513D01*
X014213Y005627D01*
X014127Y005713D01*
X014013Y005760D01*
X013891Y005760D01*
X013777Y005713D01*
X013679Y005600D02*
X012053Y005600D01*
X012088Y005564D02*
X012002Y005651D01*
X011888Y005698D01*
X011766Y005698D01*
X011652Y005651D01*
X011565Y005564D01*
X011518Y005451D01*
X011518Y005328D01*
X011565Y005215D01*
X011652Y005128D01*
X011766Y005081D01*
X011888Y005081D01*
X012002Y005128D01*
X012088Y005215D01*
X012135Y005328D01*
X012135Y005451D01*
X012088Y005564D01*
X012114Y005501D02*
X013643Y005501D01*
X013643Y005403D02*
X012135Y005403D01*
X012125Y005304D02*
X013679Y005304D01*
X013762Y005206D02*
X012080Y005206D01*
X011952Y005107D02*
X017727Y005107D01*
X017727Y005009D02*
X008239Y005009D01*
X008239Y005107D02*
X008952Y005107D01*
X008902Y005128D02*
X009016Y005081D01*
X009138Y005081D01*
X009252Y005128D01*
X009338Y005215D01*
X009385Y005328D01*
X009385Y005451D01*
X009338Y005564D01*
X009252Y005651D01*
X009138Y005698D01*
X009016Y005698D01*
X008902Y005651D01*
X008815Y005564D01*
X008768Y005451D01*
X008768Y005328D01*
X008815Y005215D01*
X008902Y005128D01*
X008824Y005206D02*
X008239Y005206D01*
X008232Y005304D02*
X008778Y005304D01*
X008768Y005403D02*
X008225Y005403D01*
X008200Y005501D02*
X008789Y005501D01*
X008851Y005600D02*
X008170Y005600D01*
X007852Y006092D02*
X018114Y006092D01*
X018016Y005994D02*
X017615Y005994D01*
X017757Y005895D02*
X017941Y005895D01*
X017884Y005797D02*
X017809Y005797D01*
X017823Y005698D02*
X017831Y005698D01*
X017766Y005501D02*
X017750Y005501D01*
X017741Y005403D02*
X017598Y005403D01*
X017430Y005403D02*
X016237Y005403D01*
X016250Y005434D02*
X016204Y005325D01*
X016120Y005241D01*
X016011Y005196D01*
X015893Y005196D01*
X015783Y005241D01*
X015700Y005325D01*
X015654Y005434D01*
X015654Y005552D01*
X015700Y005662D01*
X015783Y005746D01*
X015893Y005791D01*
X016011Y005791D01*
X016120Y005746D01*
X016204Y005662D01*
X016250Y005552D01*
X016250Y005434D01*
X016250Y005501D02*
X017279Y005501D01*
X017223Y005600D02*
X016230Y005600D01*
X016168Y005698D02*
X017206Y005698D01*
X017734Y005304D02*
X016184Y005304D01*
X016036Y005206D02*
X017727Y005206D01*
X017727Y004910D02*
X008239Y004910D01*
X008239Y004812D02*
X017727Y004812D01*
X017727Y004713D02*
X008239Y004713D01*
X008239Y004615D02*
X015735Y004615D01*
X015674Y004516D02*
X008239Y004516D01*
X008239Y004418D02*
X015654Y004418D01*
X015667Y004319D02*
X008239Y004319D01*
X009202Y005107D02*
X011702Y005107D01*
X011574Y005206D02*
X009330Y005206D01*
X009375Y005304D02*
X011528Y005304D01*
X011518Y005403D02*
X009385Y005403D01*
X009364Y005501D02*
X011539Y005501D01*
X011601Y005600D02*
X009303Y005600D01*
X007733Y006191D02*
X018234Y006191D01*
X018393Y006289D02*
X007573Y006289D01*
X007332Y006388D02*
X011106Y006388D01*
X011148Y006370D02*
X011049Y006411D01*
X010974Y006487D01*
X010933Y006586D01*
X010933Y006693D01*
X010974Y006792D01*
X011049Y006867D01*
X011148Y006908D01*
X011255Y006908D01*
X011354Y006867D01*
X011430Y006792D01*
X011471Y006693D01*
X011471Y006586D01*
X011430Y006487D01*
X011354Y006411D01*
X011255Y006370D01*
X011148Y006370D01*
X011298Y006388D02*
X016510Y006388D01*
X016448Y006486D02*
X011429Y006486D01*
X011471Y006585D02*
X016433Y006585D01*
X016455Y006683D02*
X015819Y006683D01*
X015709Y006683D02*
X011471Y006683D01*
X011434Y006782D02*
X015554Y006782D01*
X015503Y006880D02*
X011323Y006880D01*
X011081Y006880D02*
X008823Y006880D01*
X008890Y006979D02*
X015495Y006979D01*
X015525Y007077D02*
X013615Y007077D01*
X013743Y007176D02*
X015608Y007176D01*
X015975Y006782D02*
X016526Y006782D01*
X016877Y006782D02*
X016901Y006782D01*
X015736Y005698D02*
X014142Y005698D01*
X014224Y005600D02*
X015674Y005600D01*
X015654Y005501D02*
X014260Y005501D01*
X014260Y005403D02*
X015667Y005403D01*
X015720Y005304D02*
X014225Y005304D01*
X014142Y005206D02*
X015868Y005206D01*
X016168Y004615D02*
X017727Y004615D01*
X017727Y004516D02*
X016230Y004516D01*
X016250Y004418D02*
X017727Y004418D01*
X017727Y004319D02*
X016236Y004319D01*
X013414Y007077D02*
X008908Y007077D01*
X008890Y007176D02*
X013286Y007176D01*
X013245Y007274D02*
X011263Y007274D01*
X011372Y007373D02*
X013245Y007373D01*
X013283Y007471D02*
X011408Y007471D01*
X011408Y007570D02*
X013398Y007570D01*
X012835Y008653D02*
X012818Y008653D01*
X010970Y006782D02*
X006024Y006782D01*
X006024Y006880D02*
X008455Y006880D01*
X008389Y006979D02*
X006024Y006979D01*
X006024Y007077D02*
X008370Y007077D01*
X008389Y007176D02*
X006024Y007176D01*
X006024Y007274D02*
X008456Y007274D01*
X007324Y006388D02*
X007312Y006388D01*
X006024Y006486D02*
X010974Y006486D01*
X010933Y006585D02*
X006024Y006585D01*
X006024Y006683D02*
X010933Y006683D01*
X007962Y010328D02*
X006024Y010328D01*
X006024Y010426D02*
X007933Y010426D01*
X007941Y010525D02*
X006024Y010525D01*
X006024Y010623D02*
X007993Y010623D01*
X006024Y011904D02*
X019897Y011904D01*
X019897Y012002D02*
X011272Y012002D01*
X011131Y012002D02*
X006024Y012002D01*
X006024Y012101D02*
X010985Y012101D01*
X010938Y012199D02*
X006024Y012199D01*
X006024Y012298D02*
X010933Y012298D01*
X010965Y012396D02*
X006024Y012396D01*
X006024Y012495D02*
X011055Y012495D01*
X011245Y012593D02*
X006024Y012593D01*
X006024Y012692D02*
X011271Y012692D01*
X011347Y012790D02*
X006024Y012790D01*
X017663Y015745D02*
X019897Y015745D01*
X019897Y015647D02*
X017783Y015647D01*
X017830Y015548D02*
X019897Y015548D01*
X019897Y015450D02*
X017842Y015450D01*
X017828Y015351D02*
X019897Y015351D01*
X019897Y015253D02*
X017779Y015253D01*
X018742Y014563D02*
X019897Y014563D01*
X019897Y014465D02*
X018812Y014465D01*
X018842Y014366D02*
X019897Y014366D01*
X019897Y014268D02*
X018842Y014268D01*
X018804Y014169D02*
X019897Y014169D01*
X019897Y014071D02*
X018722Y014071D01*
X017806Y012790D02*
X019897Y012790D01*
X019897Y012692D02*
X017883Y012692D01*
X017908Y012593D02*
X019897Y012593D01*
X019897Y012495D02*
X017897Y012495D01*
D13*
X017514Y005702D03*
X013952Y005452D03*
X011827Y005389D03*
X009077Y005389D03*
X007139Y014202D03*
X007139Y014702D03*
D14*
X017514Y015452D03*
X018514Y014327D03*
X018327Y008889D03*
X018077Y008139D03*
M02*
