%
M48
M72
T01C0.0118
T02C0.0197
T03C0.0236
T04C0.0295
T05C0.1181
%
T01
X9202Y6827
X8639Y7077
X7327Y7827
X8014Y9014
X8827Y8264
X9764Y8639
X10139Y8639
X10264Y9077
X11014Y8764
X10702Y9577
X11452Y9764
X11764Y10077
X12077Y9639
X12577Y9639
X12577Y10077
X13202Y9639
X14014Y9827
X14327Y9952
X15014Y9514
X15514Y9452
X16327Y9577
X17702Y9702
X17639Y8764
X15952Y7889
X15764Y7577
X15764Y6952
X16389Y6952
X16702Y6577
X17077Y6577
X15514Y6139
X14702Y6139
X13202Y5514
X12702Y5514
X12327Y5514
X11452Y5514
X10827Y5514
X10639Y6202
X11202Y6639
X10577Y6827
X11139Y7514
X12639Y7889
X12639Y8452
X13014Y8452
X14077Y7702
X14452Y7702
X14702Y8452
X14639Y8827
X13514Y7327
X13202Y7139
X9202Y9264
X8202Y10452
X9139Y10952
X9639Y10952
X11077Y10514
X11389Y10514
X11639Y10827
X11202Y10889
X11202Y11264
X11202Y12264
X11514Y12577
X11452Y13077
X10889Y13639
X9952Y14077
X9827Y13639
X9202Y14077
X8577Y14889
X8577Y15264
X8702Y15952
X9202Y15952
X9764Y16014
X9702Y15577
X10327Y15764
X10952Y15764
X11202Y15452
X11639Y15452
X12077Y15702
X12077Y16077
X12077Y16702
X12202Y17452
X11639Y17952
X11139Y17827
X10952Y16264
X12389Y14889
X12889Y14764
X13202Y14702
X12639Y14264
X14077Y14764
X13889Y15327
X14827Y15452
X15264Y15514
X15264Y15952
X15764Y15139
X16202Y15139
X16639Y15139
X17077Y15139
X17077Y15702
X17952Y15702
X17952Y15139
X18452Y13639
X18264Y13264
X17639Y12577
X17764Y12139
X17764Y11327
X16764Y12327
X15952Y11452
X15577Y11452
X14639Y12077
X14639Y12452
X13952Y13077
X13139Y13077
X12702Y13014
X12452Y12764
X12452Y12264
X13014Y12264
X13639Y12264
X13389Y11202
X14014Y11014
X15264Y13264
X15077Y13577
X14764Y13702
X14139Y14077
X14952Y14514
X14889Y15014
X15327Y15014
X16077Y13577
X16514Y13577
X16827Y17139
X15827Y17139
X10952Y14514
X10702Y14764
X8014Y16389
X8327Y17077
X8389Y17889
X7264Y15202
X7139Y13764
X8014Y11764
X7327Y11202
X18889Y6702
X19514Y6702
T02
X17514Y5702
X13952Y5452
X11827Y5389
X9077Y5389
X7139Y14202
X7139Y14702
T03
X17514Y15452
X18514Y14327
X18327Y8889
X18077Y8139
T04
X15952Y5493
X15952Y4411
T05
X6957Y5232
X18965Y5232
X18965Y17240
X6957Y17240
M30
