G75*
%MOIN*%
%OFA0B0*%
%FSLAX24Y24*%
%IPPOS*%
%LPD*%
%AMOC8*
5,1,8,0,0,1.08239X$1,22.5*
%
%ADD10C,0.0000*%
%ADD11R,0.0236X0.0610*%
%ADD12R,0.0472X0.0709*%
%ADD13R,0.1000X0.0750*%
%ADD14R,0.0610X0.0236*%
%ADD15R,0.0709X0.0472*%
%ADD16R,0.0610X0.0394*%
%ADD17C,0.0079*%
%ADD18C,0.0238*%
%ADD19C,0.0100*%
%ADD20C,0.0317*%
%ADD21C,0.0356*%
%ADD22C,0.0400*%
D10*
X006957Y004150D02*
X018965Y004150D01*
X018374Y005232D02*
X018376Y005280D01*
X018382Y005328D01*
X018392Y005375D01*
X018405Y005421D01*
X018423Y005466D01*
X018443Y005510D01*
X018468Y005552D01*
X018496Y005591D01*
X018526Y005628D01*
X018560Y005662D01*
X018597Y005694D01*
X018635Y005723D01*
X018676Y005748D01*
X018719Y005770D01*
X018764Y005788D01*
X018810Y005802D01*
X018857Y005813D01*
X018905Y005820D01*
X018953Y005823D01*
X019001Y005822D01*
X019049Y005817D01*
X019097Y005808D01*
X019143Y005796D01*
X019188Y005779D01*
X019232Y005759D01*
X019274Y005736D01*
X019314Y005709D01*
X019352Y005679D01*
X019387Y005646D01*
X019419Y005610D01*
X019449Y005572D01*
X019475Y005531D01*
X019497Y005488D01*
X019517Y005444D01*
X019532Y005399D01*
X019544Y005352D01*
X019552Y005304D01*
X019556Y005256D01*
X019556Y005208D01*
X019552Y005160D01*
X019544Y005112D01*
X019532Y005065D01*
X019517Y005020D01*
X019497Y004976D01*
X019475Y004933D01*
X019449Y004892D01*
X019419Y004854D01*
X019387Y004818D01*
X019352Y004785D01*
X019314Y004755D01*
X019274Y004728D01*
X019232Y004705D01*
X019188Y004685D01*
X019143Y004668D01*
X019097Y004656D01*
X019049Y004647D01*
X019001Y004642D01*
X018953Y004641D01*
X018905Y004644D01*
X018857Y004651D01*
X018810Y004662D01*
X018764Y004676D01*
X018719Y004694D01*
X018676Y004716D01*
X018635Y004741D01*
X018597Y004770D01*
X018560Y004802D01*
X018526Y004836D01*
X018496Y004873D01*
X018468Y004912D01*
X018443Y004954D01*
X018423Y004998D01*
X018405Y005043D01*
X018392Y005089D01*
X018382Y005136D01*
X018376Y005184D01*
X018374Y005232D01*
X018965Y004149D02*
X019028Y004151D01*
X019091Y004156D01*
X019153Y004165D01*
X019215Y004178D01*
X019276Y004194D01*
X019335Y004214D01*
X019394Y004238D01*
X019451Y004264D01*
X019507Y004294D01*
X019560Y004327D01*
X019612Y004363D01*
X019661Y004402D01*
X019708Y004444D01*
X019753Y004489D01*
X019795Y004536D01*
X019834Y004585D01*
X019870Y004637D01*
X019903Y004691D01*
X019933Y004746D01*
X019959Y004803D01*
X019983Y004862D01*
X020003Y004921D01*
X020019Y004982D01*
X020032Y005044D01*
X020041Y005106D01*
X020046Y005169D01*
X020048Y005232D01*
X020047Y005232D02*
X020047Y017240D01*
X018374Y017240D02*
X018376Y017288D01*
X018382Y017336D01*
X018392Y017383D01*
X018405Y017429D01*
X018423Y017474D01*
X018443Y017518D01*
X018468Y017560D01*
X018496Y017599D01*
X018526Y017636D01*
X018560Y017670D01*
X018597Y017702D01*
X018635Y017731D01*
X018676Y017756D01*
X018719Y017778D01*
X018764Y017796D01*
X018810Y017810D01*
X018857Y017821D01*
X018905Y017828D01*
X018953Y017831D01*
X019001Y017830D01*
X019049Y017825D01*
X019097Y017816D01*
X019143Y017804D01*
X019188Y017787D01*
X019232Y017767D01*
X019274Y017744D01*
X019314Y017717D01*
X019352Y017687D01*
X019387Y017654D01*
X019419Y017618D01*
X019449Y017580D01*
X019475Y017539D01*
X019497Y017496D01*
X019517Y017452D01*
X019532Y017407D01*
X019544Y017360D01*
X019552Y017312D01*
X019556Y017264D01*
X019556Y017216D01*
X019552Y017168D01*
X019544Y017120D01*
X019532Y017073D01*
X019517Y017028D01*
X019497Y016984D01*
X019475Y016941D01*
X019449Y016900D01*
X019419Y016862D01*
X019387Y016826D01*
X019352Y016793D01*
X019314Y016763D01*
X019274Y016736D01*
X019232Y016713D01*
X019188Y016693D01*
X019143Y016676D01*
X019097Y016664D01*
X019049Y016655D01*
X019001Y016650D01*
X018953Y016649D01*
X018905Y016652D01*
X018857Y016659D01*
X018810Y016670D01*
X018764Y016684D01*
X018719Y016702D01*
X018676Y016724D01*
X018635Y016749D01*
X018597Y016778D01*
X018560Y016810D01*
X018526Y016844D01*
X018496Y016881D01*
X018468Y016920D01*
X018443Y016962D01*
X018423Y017006D01*
X018405Y017051D01*
X018392Y017097D01*
X018382Y017144D01*
X018376Y017192D01*
X018374Y017240D01*
X018965Y018323D02*
X019028Y018321D01*
X019091Y018316D01*
X019153Y018307D01*
X019215Y018294D01*
X019276Y018278D01*
X019335Y018258D01*
X019394Y018234D01*
X019451Y018208D01*
X019507Y018178D01*
X019560Y018145D01*
X019612Y018109D01*
X019661Y018070D01*
X019708Y018028D01*
X019753Y017983D01*
X019795Y017936D01*
X019834Y017887D01*
X019870Y017835D01*
X019903Y017782D01*
X019933Y017726D01*
X019959Y017669D01*
X019983Y017610D01*
X020003Y017551D01*
X020019Y017490D01*
X020032Y017428D01*
X020041Y017366D01*
X020046Y017303D01*
X020048Y017240D01*
X018965Y018323D02*
X006957Y018323D01*
X006366Y017240D02*
X006368Y017288D01*
X006374Y017336D01*
X006384Y017383D01*
X006397Y017429D01*
X006415Y017474D01*
X006435Y017518D01*
X006460Y017560D01*
X006488Y017599D01*
X006518Y017636D01*
X006552Y017670D01*
X006589Y017702D01*
X006627Y017731D01*
X006668Y017756D01*
X006711Y017778D01*
X006756Y017796D01*
X006802Y017810D01*
X006849Y017821D01*
X006897Y017828D01*
X006945Y017831D01*
X006993Y017830D01*
X007041Y017825D01*
X007089Y017816D01*
X007135Y017804D01*
X007180Y017787D01*
X007224Y017767D01*
X007266Y017744D01*
X007306Y017717D01*
X007344Y017687D01*
X007379Y017654D01*
X007411Y017618D01*
X007441Y017580D01*
X007467Y017539D01*
X007489Y017496D01*
X007509Y017452D01*
X007524Y017407D01*
X007536Y017360D01*
X007544Y017312D01*
X007548Y017264D01*
X007548Y017216D01*
X007544Y017168D01*
X007536Y017120D01*
X007524Y017073D01*
X007509Y017028D01*
X007489Y016984D01*
X007467Y016941D01*
X007441Y016900D01*
X007411Y016862D01*
X007379Y016826D01*
X007344Y016793D01*
X007306Y016763D01*
X007266Y016736D01*
X007224Y016713D01*
X007180Y016693D01*
X007135Y016676D01*
X007089Y016664D01*
X007041Y016655D01*
X006993Y016650D01*
X006945Y016649D01*
X006897Y016652D01*
X006849Y016659D01*
X006802Y016670D01*
X006756Y016684D01*
X006711Y016702D01*
X006668Y016724D01*
X006627Y016749D01*
X006589Y016778D01*
X006552Y016810D01*
X006518Y016844D01*
X006488Y016881D01*
X006460Y016920D01*
X006435Y016962D01*
X006415Y017006D01*
X006397Y017051D01*
X006384Y017097D01*
X006374Y017144D01*
X006368Y017192D01*
X006366Y017240D01*
X005874Y017240D02*
X005874Y005232D01*
X006366Y005232D02*
X006368Y005280D01*
X006374Y005328D01*
X006384Y005375D01*
X006397Y005421D01*
X006415Y005466D01*
X006435Y005510D01*
X006460Y005552D01*
X006488Y005591D01*
X006518Y005628D01*
X006552Y005662D01*
X006589Y005694D01*
X006627Y005723D01*
X006668Y005748D01*
X006711Y005770D01*
X006756Y005788D01*
X006802Y005802D01*
X006849Y005813D01*
X006897Y005820D01*
X006945Y005823D01*
X006993Y005822D01*
X007041Y005817D01*
X007089Y005808D01*
X007135Y005796D01*
X007180Y005779D01*
X007224Y005759D01*
X007266Y005736D01*
X007306Y005709D01*
X007344Y005679D01*
X007379Y005646D01*
X007411Y005610D01*
X007441Y005572D01*
X007467Y005531D01*
X007489Y005488D01*
X007509Y005444D01*
X007524Y005399D01*
X007536Y005352D01*
X007544Y005304D01*
X007548Y005256D01*
X007548Y005208D01*
X007544Y005160D01*
X007536Y005112D01*
X007524Y005065D01*
X007509Y005020D01*
X007489Y004976D01*
X007467Y004933D01*
X007441Y004892D01*
X007411Y004854D01*
X007379Y004818D01*
X007344Y004785D01*
X007306Y004755D01*
X007266Y004728D01*
X007224Y004705D01*
X007180Y004685D01*
X007135Y004668D01*
X007089Y004656D01*
X007041Y004647D01*
X006993Y004642D01*
X006945Y004641D01*
X006897Y004644D01*
X006849Y004651D01*
X006802Y004662D01*
X006756Y004676D01*
X006711Y004694D01*
X006668Y004716D01*
X006627Y004741D01*
X006589Y004770D01*
X006552Y004802D01*
X006518Y004836D01*
X006488Y004873D01*
X006460Y004912D01*
X006435Y004954D01*
X006415Y004998D01*
X006397Y005043D01*
X006384Y005089D01*
X006374Y005136D01*
X006368Y005184D01*
X006366Y005232D01*
X005874Y005232D02*
X005876Y005169D01*
X005881Y005106D01*
X005890Y005044D01*
X005903Y004982D01*
X005919Y004921D01*
X005939Y004862D01*
X005963Y004803D01*
X005989Y004746D01*
X006019Y004691D01*
X006052Y004637D01*
X006088Y004585D01*
X006127Y004536D01*
X006169Y004489D01*
X006214Y004444D01*
X006261Y004402D01*
X006310Y004363D01*
X006362Y004327D01*
X006415Y004294D01*
X006471Y004264D01*
X006528Y004238D01*
X006587Y004214D01*
X006646Y004194D01*
X006707Y004178D01*
X006769Y004165D01*
X006831Y004156D01*
X006894Y004151D01*
X006957Y004149D01*
X015804Y004411D02*
X015806Y004435D01*
X015812Y004458D01*
X015821Y004480D01*
X015834Y004500D01*
X015849Y004518D01*
X015868Y004533D01*
X015889Y004545D01*
X015911Y004553D01*
X015934Y004558D01*
X015958Y004559D01*
X015982Y004556D01*
X016004Y004549D01*
X016026Y004539D01*
X016046Y004526D01*
X016063Y004509D01*
X016077Y004490D01*
X016088Y004469D01*
X016096Y004446D01*
X016100Y004423D01*
X016100Y004399D01*
X016096Y004376D01*
X016088Y004353D01*
X016077Y004332D01*
X016063Y004313D01*
X016046Y004296D01*
X016026Y004283D01*
X016004Y004273D01*
X015982Y004266D01*
X015958Y004263D01*
X015934Y004264D01*
X015911Y004269D01*
X015889Y004277D01*
X015868Y004289D01*
X015849Y004304D01*
X015834Y004322D01*
X015821Y004342D01*
X015812Y004364D01*
X015806Y004387D01*
X015804Y004411D01*
X015804Y005493D02*
X015806Y005517D01*
X015812Y005540D01*
X015821Y005562D01*
X015834Y005582D01*
X015849Y005600D01*
X015868Y005615D01*
X015889Y005627D01*
X015911Y005635D01*
X015934Y005640D01*
X015958Y005641D01*
X015982Y005638D01*
X016004Y005631D01*
X016026Y005621D01*
X016046Y005608D01*
X016063Y005591D01*
X016077Y005572D01*
X016088Y005551D01*
X016096Y005528D01*
X016100Y005505D01*
X016100Y005481D01*
X016096Y005458D01*
X016088Y005435D01*
X016077Y005414D01*
X016063Y005395D01*
X016046Y005378D01*
X016026Y005365D01*
X016004Y005355D01*
X015982Y005348D01*
X015958Y005345D01*
X015934Y005346D01*
X015911Y005351D01*
X015889Y005359D01*
X015868Y005371D01*
X015849Y005386D01*
X015834Y005404D01*
X015821Y005424D01*
X015812Y005446D01*
X015806Y005469D01*
X015804Y005493D01*
X005874Y017240D02*
X005876Y017303D01*
X005881Y017366D01*
X005890Y017428D01*
X005903Y017490D01*
X005919Y017551D01*
X005939Y017610D01*
X005963Y017669D01*
X005989Y017726D01*
X006019Y017782D01*
X006052Y017835D01*
X006088Y017887D01*
X006127Y017936D01*
X006169Y017983D01*
X006214Y018028D01*
X006261Y018070D01*
X006310Y018109D01*
X006362Y018145D01*
X006416Y018178D01*
X006471Y018208D01*
X006528Y018234D01*
X006587Y018258D01*
X006646Y018278D01*
X006707Y018294D01*
X006769Y018307D01*
X006831Y018316D01*
X006894Y018321D01*
X006957Y018323D01*
D11*
X011174Y006186D03*
X011568Y006186D03*
X011961Y006186D03*
X012355Y006186D03*
D12*
X012867Y004660D03*
X010662Y004660D03*
D13*
X019227Y007327D03*
X019227Y008327D03*
X019227Y009327D03*
X019227Y010327D03*
X019227Y011327D03*
X019227Y012327D03*
X019227Y013327D03*
X019227Y014327D03*
X019227Y015327D03*
D14*
X007873Y015167D03*
X007873Y014774D03*
X007873Y014380D03*
X007873Y013986D03*
D15*
X006348Y013475D03*
X006348Y015679D03*
D16*
X014918Y005287D03*
X014918Y004617D03*
X016985Y004617D03*
X016985Y005287D03*
D17*
X017390Y005294D02*
X017804Y005294D01*
X017793Y005232D02*
X017793Y005232D01*
X017863Y004832D01*
X017863Y004832D01*
X018067Y004479D01*
X018293Y004289D01*
X016212Y004289D01*
X016239Y004353D01*
X016239Y004468D01*
X016581Y004468D01*
X016581Y004379D01*
X016639Y004321D01*
X017332Y004321D01*
X017390Y004379D01*
X017390Y004855D01*
X017332Y004913D01*
X016639Y004913D01*
X016581Y004855D01*
X016581Y004767D01*
X016286Y004767D01*
X016226Y004826D01*
X016139Y004914D01*
X015765Y004914D01*
X015618Y004767D01*
X015323Y004767D01*
X015323Y004855D01*
X015265Y004913D01*
X014572Y004913D01*
X014514Y004855D01*
X014514Y004726D01*
X014076Y004726D01*
X013664Y005139D01*
X013664Y007167D01*
X013733Y007236D01*
X013733Y007335D01*
X014015Y007053D01*
X015452Y007053D01*
X015546Y006959D01*
X015546Y006861D01*
X015674Y006733D01*
X015855Y006733D01*
X015983Y006861D01*
X015983Y007042D01*
X015855Y007170D01*
X015757Y007170D01*
X015664Y007264D01*
X015576Y007351D01*
X014139Y007351D01*
X014007Y007483D01*
X014167Y007483D01*
X014295Y007611D01*
X014295Y007792D01*
X014167Y007920D01*
X013986Y007920D01*
X013858Y007792D01*
X013858Y007632D01*
X013181Y008309D01*
X013233Y008361D01*
X013233Y008542D01*
X013105Y008670D01*
X013039Y008670D01*
X013039Y009494D01*
X013111Y009421D01*
X013209Y009421D01*
X013365Y009265D01*
X013365Y008265D01*
X013452Y008178D01*
X013453Y008178D01*
X013702Y007928D01*
X015202Y007928D01*
X015546Y007584D01*
X015546Y007486D01*
X015674Y007358D01*
X015855Y007358D01*
X015983Y007486D01*
X015983Y007667D01*
X015855Y007795D01*
X015757Y007795D01*
X015326Y008226D01*
X013826Y008226D01*
X013664Y008389D01*
X013664Y009389D01*
X013420Y009632D01*
X013420Y009730D01*
X013292Y009858D01*
X013257Y009858D01*
X013451Y010053D01*
X014119Y010053D01*
X014108Y010042D01*
X014105Y010045D01*
X013924Y010045D01*
X013796Y009917D01*
X013796Y009736D01*
X013924Y009608D01*
X014022Y009608D01*
X014952Y008678D01*
X016327Y008678D01*
X016490Y008515D01*
X016490Y007077D01*
X016577Y006990D01*
X016772Y006795D01*
X016611Y006795D01*
X016483Y006667D01*
X016483Y006486D01*
X016553Y006417D01*
X016553Y006390D01*
X016740Y006202D01*
X016827Y006115D01*
X017201Y006115D01*
X017389Y006303D01*
X017476Y006390D01*
X017476Y006764D01*
X016976Y007264D01*
X016976Y008701D01*
X016601Y009076D01*
X016514Y009164D01*
X015139Y009164D01*
X014493Y009809D01*
X014545Y009861D01*
X014545Y010042D01*
X014535Y010053D01*
X018140Y010053D01*
X018628Y009565D01*
X018628Y008950D01*
X018625Y008952D01*
X018581Y009059D01*
X018496Y009143D01*
X018386Y009189D01*
X018267Y009189D01*
X018157Y009143D01*
X018073Y009059D01*
X018028Y008949D01*
X018028Y008767D01*
X018073Y008657D01*
X018628Y008103D01*
X018628Y007911D01*
X018686Y007853D01*
X019768Y007853D01*
X019790Y007874D01*
X019908Y007874D01*
X019908Y007780D01*
X019790Y007780D01*
X019783Y007786D01*
X019747Y007801D01*
X019266Y007801D01*
X019266Y007366D01*
X019188Y007366D01*
X019188Y007801D01*
X018707Y007801D01*
X018671Y007786D01*
X018643Y007758D01*
X018628Y007722D01*
X018628Y007366D01*
X019187Y007366D01*
X019187Y007288D01*
X018628Y007288D01*
X018628Y006932D01*
X018643Y006896D01*
X018671Y006868D01*
X018707Y006853D01*
X019188Y006853D01*
X019188Y007287D01*
X019266Y007287D01*
X019266Y006853D01*
X019747Y006853D01*
X019783Y006868D01*
X019790Y006874D01*
X019908Y006874D01*
X019908Y005907D01*
X019863Y005986D01*
X019863Y005986D01*
X019863Y005986D01*
X019551Y006247D01*
X019168Y006387D01*
X018761Y006387D01*
X018379Y006247D01*
X018379Y006247D01*
X018067Y005986D01*
X018067Y005986D01*
X017863Y005633D01*
X017793Y005232D01*
X017795Y005217D02*
X017390Y005217D01*
X017390Y005140D02*
X017809Y005140D01*
X017823Y005063D02*
X017390Y005063D01*
X017390Y005049D02*
X017390Y005474D01*
X017463Y005444D01*
X017566Y005444D01*
X017660Y005483D01*
X017733Y005556D01*
X017772Y005651D01*
X017772Y005753D01*
X017733Y005848D01*
X017660Y005920D01*
X017566Y005960D01*
X017463Y005960D01*
X017368Y005920D01*
X017296Y005848D01*
X017257Y005753D01*
X017257Y005651D01*
X017285Y005583D01*
X016639Y005583D01*
X016581Y005525D01*
X016581Y005436D01*
X016239Y005436D01*
X016239Y005436D01*
X016239Y005550D01*
X016195Y005656D01*
X016114Y005737D01*
X016009Y005780D01*
X015895Y005780D01*
X015789Y005737D01*
X015709Y005656D01*
X015665Y005550D01*
X015665Y005436D01*
X015323Y005436D01*
X015323Y005525D01*
X015265Y005583D01*
X014572Y005583D01*
X014514Y005525D01*
X014514Y005414D01*
X014210Y005414D01*
X014210Y005503D01*
X014170Y005598D01*
X014098Y005670D01*
X014003Y005710D01*
X013901Y005710D01*
X013806Y005670D01*
X013733Y005598D01*
X013694Y005503D01*
X013694Y005401D01*
X013733Y005306D01*
X013806Y005233D01*
X013901Y005194D01*
X013998Y005194D01*
X014077Y005115D01*
X014514Y005115D01*
X014514Y005049D01*
X014572Y004990D01*
X015265Y004990D01*
X015323Y005049D01*
X015323Y005137D01*
X015618Y005137D01*
X015765Y004990D01*
X016139Y004990D01*
X016226Y005077D01*
X016286Y005137D01*
X016581Y005137D01*
X016581Y005049D01*
X016639Y004990D01*
X017332Y004990D01*
X017390Y005049D01*
X017337Y004908D02*
X017850Y004908D01*
X017864Y004831D02*
X017390Y004831D01*
X017390Y004754D02*
X017908Y004754D01*
X017953Y004677D02*
X017390Y004677D01*
X017390Y004599D02*
X017997Y004599D01*
X018042Y004522D02*
X017390Y004522D01*
X017390Y004445D02*
X018108Y004445D01*
X018067Y004479D02*
X018067Y004479D01*
X018067Y004479D01*
X018200Y004368D02*
X017378Y004368D01*
X016593Y004368D02*
X016239Y004368D01*
X016239Y004445D02*
X016581Y004445D01*
X016239Y004468D02*
X016239Y004468D01*
X016213Y004290D02*
X018292Y004290D01*
X017836Y004985D02*
X013817Y004985D01*
X013894Y004908D02*
X014567Y004908D01*
X014514Y004831D02*
X013971Y004831D01*
X014049Y004754D02*
X014514Y004754D01*
X014514Y005063D02*
X013740Y005063D01*
X013664Y005140D02*
X014053Y005140D01*
X013845Y005217D02*
X013664Y005217D01*
X013664Y005294D02*
X013745Y005294D01*
X013706Y005372D02*
X013664Y005372D01*
X013664Y005449D02*
X013694Y005449D01*
X013704Y005526D02*
X013664Y005526D01*
X013664Y005603D02*
X013739Y005603D01*
X013664Y005681D02*
X013831Y005681D01*
X013664Y005758D02*
X015841Y005758D01*
X015733Y005681D02*
X014073Y005681D01*
X014165Y005603D02*
X015687Y005603D01*
X015665Y005526D02*
X015321Y005526D01*
X015323Y005449D02*
X015665Y005449D01*
X015665Y005436D02*
X015665Y005436D01*
X016170Y005681D02*
X017257Y005681D01*
X017259Y005758D02*
X016063Y005758D01*
X016217Y005603D02*
X017276Y005603D01*
X017390Y005449D02*
X017451Y005449D01*
X017390Y005372D02*
X017817Y005372D01*
X017831Y005449D02*
X017577Y005449D01*
X017703Y005526D02*
X017844Y005526D01*
X017858Y005603D02*
X017753Y005603D01*
X017772Y005681D02*
X017891Y005681D01*
X017863Y005633D02*
X017863Y005633D01*
X017935Y005758D02*
X017770Y005758D01*
X017738Y005835D02*
X017980Y005835D01*
X018024Y005912D02*
X017668Y005912D01*
X017360Y005912D02*
X013664Y005912D01*
X013664Y005835D02*
X017291Y005835D01*
X017230Y006144D02*
X018256Y006144D01*
X018348Y006221D02*
X017308Y006221D01*
X017385Y006299D02*
X018519Y006299D01*
X018731Y006376D02*
X017462Y006376D01*
X017476Y006453D02*
X019908Y006453D01*
X019908Y006376D02*
X019198Y006376D01*
X019410Y006299D02*
X019908Y006299D01*
X019908Y006221D02*
X019582Y006221D01*
X019551Y006247D02*
X019551Y006247D01*
X019674Y006144D02*
X019908Y006144D01*
X019908Y006067D02*
X019766Y006067D01*
X019858Y005990D02*
X019908Y005990D01*
X019905Y005912D02*
X019908Y005912D01*
X019908Y006530D02*
X017476Y006530D01*
X017476Y006608D02*
X019908Y006608D01*
X019908Y006685D02*
X017476Y006685D01*
X017476Y006762D02*
X019908Y006762D01*
X019908Y006839D02*
X017401Y006839D01*
X017323Y006916D02*
X018634Y006916D01*
X018628Y006994D02*
X017246Y006994D01*
X017169Y007071D02*
X018628Y007071D01*
X018628Y007148D02*
X017092Y007148D01*
X017015Y007225D02*
X018628Y007225D01*
X018628Y007380D02*
X016976Y007380D01*
X016976Y007457D02*
X018628Y007457D01*
X018628Y007534D02*
X016976Y007534D01*
X016976Y007612D02*
X018628Y007612D01*
X018628Y007689D02*
X016976Y007689D01*
X016976Y007766D02*
X018651Y007766D01*
X018628Y007921D02*
X018251Y007921D01*
X018234Y007904D02*
X018312Y007982D01*
X018354Y008084D01*
X018354Y008195D01*
X018312Y008297D01*
X018234Y008375D01*
X018132Y008417D01*
X018022Y008417D01*
X017920Y008375D01*
X017842Y008297D01*
X017799Y008195D01*
X017799Y008084D01*
X017842Y007982D01*
X017920Y007904D01*
X018022Y007862D01*
X018132Y007862D01*
X018234Y007904D01*
X018319Y007998D02*
X018628Y007998D01*
X018628Y008075D02*
X018351Y008075D01*
X018354Y008152D02*
X018578Y008152D01*
X018501Y008230D02*
X018340Y008230D01*
X018302Y008307D02*
X018424Y008307D01*
X018346Y008384D02*
X018211Y008384D01*
X018269Y008461D02*
X016976Y008461D01*
X016976Y008384D02*
X017943Y008384D01*
X017852Y008307D02*
X016976Y008307D01*
X016976Y008230D02*
X017814Y008230D01*
X017799Y008152D02*
X016976Y008152D01*
X016976Y008075D02*
X017803Y008075D01*
X017835Y007998D02*
X016976Y007998D01*
X016976Y007921D02*
X017903Y007921D01*
X018192Y008539D02*
X016976Y008539D01*
X016976Y008616D02*
X018115Y008616D01*
X018058Y008693D02*
X016976Y008693D01*
X016907Y008770D02*
X018028Y008770D01*
X018028Y008847D02*
X016830Y008847D01*
X016753Y008925D02*
X018028Y008925D01*
X018049Y009002D02*
X016676Y009002D01*
X016598Y009079D02*
X018093Y009079D01*
X018189Y009156D02*
X016521Y009156D01*
X016389Y008616D02*
X014847Y008616D01*
X014792Y008670D02*
X014611Y008670D01*
X014483Y008542D01*
X014483Y008361D01*
X014611Y008233D01*
X014792Y008233D01*
X014920Y008361D01*
X014920Y008542D01*
X014792Y008670D01*
X014860Y008770D02*
X013664Y008770D01*
X013664Y008693D02*
X014937Y008693D01*
X014920Y008539D02*
X016466Y008539D01*
X016490Y008461D02*
X014920Y008461D01*
X014920Y008384D02*
X016490Y008384D01*
X016490Y008307D02*
X014866Y008307D01*
X014538Y008307D02*
X013746Y008307D01*
X013823Y008230D02*
X016490Y008230D01*
X016490Y008152D02*
X015400Y008152D01*
X015477Y008075D02*
X016490Y008075D01*
X016490Y007998D02*
X015555Y007998D01*
X015632Y007921D02*
X016490Y007921D01*
X016490Y007843D02*
X015709Y007843D01*
X015884Y007766D02*
X016490Y007766D01*
X016490Y007689D02*
X015961Y007689D01*
X015983Y007612D02*
X016490Y007612D01*
X016490Y007534D02*
X015983Y007534D01*
X015954Y007457D02*
X016490Y007457D01*
X016490Y007380D02*
X015876Y007380D01*
X015652Y007380D02*
X014110Y007380D01*
X014033Y007457D02*
X015575Y007457D01*
X015546Y007534D02*
X014218Y007534D01*
X014295Y007612D02*
X015518Y007612D01*
X015441Y007689D02*
X014295Y007689D01*
X014295Y007766D02*
X015364Y007766D01*
X015287Y007843D02*
X014244Y007843D01*
X013909Y007843D02*
X013647Y007843D01*
X013724Y007766D02*
X013858Y007766D01*
X013858Y007689D02*
X013801Y007689D01*
X013522Y007545D02*
X013424Y007545D01*
X013296Y007417D01*
X013296Y007236D01*
X013365Y007167D01*
X013365Y005015D01*
X013452Y004928D01*
X013952Y004428D01*
X014514Y004428D01*
X014514Y004379D01*
X014572Y004321D01*
X015265Y004321D01*
X015323Y004379D01*
X015323Y004468D01*
X015665Y004468D01*
X015665Y004468D01*
X015665Y004353D01*
X015692Y004289D01*
X013202Y004289D01*
X013202Y005056D01*
X013144Y005114D01*
X012589Y005114D01*
X012531Y005056D01*
X012531Y004289D01*
X010998Y004289D01*
X010998Y005056D01*
X010939Y005114D01*
X010385Y005114D01*
X010326Y005056D01*
X010326Y004289D01*
X007628Y004289D01*
X007855Y004479D01*
X008058Y004832D01*
X008129Y005232D01*
X008129Y005232D01*
X008058Y005633D01*
X007855Y005986D01*
X007855Y005986D01*
X007543Y006247D01*
X007543Y006247D01*
X007160Y006387D01*
X006753Y006387D01*
X006371Y006247D01*
X006059Y005986D01*
X006059Y005986D01*
X006013Y005907D01*
X006013Y013139D01*
X006743Y013139D01*
X006801Y013197D01*
X006801Y013752D01*
X006743Y013810D01*
X006013Y013810D01*
X006013Y015344D01*
X006743Y015344D01*
X006801Y015402D01*
X006801Y015957D01*
X006743Y016015D01*
X006013Y016015D01*
X006013Y016566D01*
X006059Y016487D01*
X006059Y016487D01*
X006371Y016225D01*
X006753Y016086D01*
X007160Y016086D01*
X007543Y016225D01*
X007855Y016487D01*
X008058Y016839D01*
X008129Y017240D01*
X008058Y017641D01*
X008058Y017641D01*
X007855Y017994D01*
X007855Y017994D01*
X007855Y017994D01*
X007628Y018184D01*
X018293Y018184D01*
X018067Y017994D01*
X018067Y017994D01*
X017863Y017641D01*
X017793Y017240D01*
X017863Y016839D01*
X018067Y016487D01*
X018379Y016225D01*
X018761Y016086D01*
X019168Y016086D01*
X019551Y016225D01*
X019863Y016487D01*
X019908Y016566D01*
X019908Y015780D01*
X019790Y015780D01*
X019783Y015786D01*
X019747Y015801D01*
X019266Y015801D01*
X019266Y015366D01*
X019188Y015366D01*
X019188Y015801D01*
X018707Y015801D01*
X018671Y015786D01*
X018643Y015758D01*
X018628Y015722D01*
X017588Y015722D01*
X017570Y015729D02*
X017459Y015729D01*
X017357Y015687D01*
X017279Y015609D01*
X017237Y015507D01*
X017237Y015397D01*
X017279Y015295D01*
X017357Y015217D01*
X017459Y015174D01*
X017570Y015174D01*
X017672Y015217D01*
X017750Y015295D01*
X017792Y015397D01*
X017792Y015507D01*
X017750Y015609D01*
X017672Y015687D01*
X017570Y015729D01*
X017441Y015722D02*
X012539Y015722D01*
X012539Y015799D02*
X018702Y015799D01*
X018628Y015722D02*
X018628Y015366D01*
X019187Y015366D01*
X019187Y015288D01*
X018628Y015288D01*
X018628Y014932D01*
X018643Y014896D01*
X018671Y014868D01*
X018707Y014853D01*
X019188Y014853D01*
X019188Y015287D01*
X019266Y015287D01*
X019266Y014853D01*
X019747Y014853D01*
X019783Y014868D01*
X019790Y014874D01*
X019908Y014874D01*
X019908Y014780D01*
X019790Y014780D01*
X019768Y014801D01*
X018686Y014801D01*
X018628Y014743D01*
X018628Y014626D01*
X018455Y014626D01*
X018345Y014581D01*
X018261Y014496D01*
X018215Y014386D01*
X018215Y014267D01*
X018261Y014157D01*
X018345Y014073D01*
X018455Y014028D01*
X018628Y014028D01*
X018628Y013911D01*
X018686Y013853D01*
X019768Y013853D01*
X019790Y013874D01*
X019908Y013874D01*
X019908Y013780D01*
X019790Y013780D01*
X019768Y013801D01*
X018686Y013801D01*
X018642Y013758D01*
X018542Y013858D01*
X018361Y013858D01*
X018233Y013730D01*
X018233Y013549D01*
X018300Y013483D01*
X018174Y013483D01*
X018046Y013355D01*
X018046Y013257D01*
X017952Y013164D01*
X016452Y013164D01*
X016365Y013076D01*
X016140Y012851D01*
X015139Y012851D01*
X014951Y013039D01*
X014265Y013039D01*
X014178Y012951D01*
X014077Y012851D01*
X013076Y012851D01*
X012920Y013007D01*
X012920Y013105D01*
X012792Y013233D01*
X012611Y013233D01*
X012483Y013105D01*
X012483Y012983D01*
X012361Y012983D01*
X012233Y012855D01*
X012233Y012674D01*
X012361Y012546D01*
X012459Y012546D01*
X012553Y012452D01*
X012640Y012365D01*
X014264Y012365D01*
X014451Y012553D01*
X014765Y012553D01*
X014865Y012452D01*
X014952Y012365D01*
X016326Y012365D01*
X016639Y012678D01*
X017431Y012678D01*
X017421Y012667D01*
X017421Y012486D01*
X017549Y012358D01*
X017730Y012358D01*
X017858Y012486D01*
X017858Y012490D01*
X018451Y012490D01*
X018628Y012666D01*
X018628Y012089D01*
X018178Y011639D01*
X018178Y011014D01*
X018077Y010914D01*
X014223Y010914D01*
X014233Y010924D01*
X014233Y011105D01*
X014105Y011233D01*
X013924Y011233D01*
X013796Y011105D01*
X013796Y011101D01*
X012765Y011101D01*
X012678Y011014D01*
X011865Y010201D01*
X011865Y010014D01*
X011678Y009826D01*
X011678Y009452D01*
X011765Y009365D01*
X011803Y009327D01*
X011811Y006590D01*
X011802Y006590D01*
X011764Y006553D01*
X011727Y006590D01*
X011717Y006590D01*
X011717Y009336D01*
X011629Y009423D01*
X011592Y009461D01*
X011592Y009595D01*
X011670Y009674D01*
X011670Y009855D01*
X011542Y009983D01*
X011520Y009983D01*
X012887Y011303D01*
X015417Y011303D01*
X015486Y011233D01*
X015667Y011233D01*
X015795Y011361D01*
X015795Y011542D01*
X015667Y011670D01*
X015486Y011670D01*
X015417Y011601D01*
X012828Y011601D01*
X012768Y011602D01*
X012767Y011601D01*
X012765Y011601D01*
X012722Y011558D01*
X010954Y009851D01*
X010952Y009851D01*
X010910Y009808D01*
X010866Y009766D01*
X010866Y009765D01*
X010865Y009764D01*
X010865Y009703D01*
X010864Y009643D01*
X010865Y009642D01*
X010865Y009389D01*
X010490Y009014D01*
X010490Y007976D01*
X009326Y007976D01*
X009045Y008257D01*
X009045Y008355D01*
X008917Y008483D01*
X008736Y008483D01*
X008608Y008355D01*
X008608Y008174D01*
X008736Y008046D01*
X008834Y008046D01*
X009115Y007765D01*
X009202Y007678D01*
X010577Y007678D01*
X010803Y007452D01*
X010890Y007365D01*
X010980Y007365D01*
X011049Y007296D01*
X011230Y007296D01*
X011358Y007424D01*
X011358Y007605D01*
X011230Y007733D01*
X011049Y007733D01*
X010997Y007681D01*
X010789Y007889D01*
X010789Y008890D01*
X011076Y009178D01*
X011164Y009265D01*
X011164Y009638D01*
X011233Y009706D01*
X011233Y009674D01*
X011293Y009614D01*
X011293Y009337D01*
X011381Y009249D01*
X011418Y009212D01*
X011418Y006732D01*
X011292Y006858D01*
X011111Y006858D01*
X010983Y006730D01*
X010983Y006559D01*
X010956Y006532D01*
X010956Y005839D01*
X011015Y005781D01*
X011333Y005781D01*
X011371Y005819D01*
X011408Y005781D01*
X011727Y005781D01*
X011764Y005819D01*
X011802Y005781D01*
X012120Y005781D01*
X012158Y005819D01*
X012181Y005796D01*
X012217Y005781D01*
X012335Y005781D01*
X012335Y006166D01*
X012375Y006166D01*
X012375Y006205D01*
X012572Y006205D01*
X012572Y006511D01*
X012557Y006547D01*
X012529Y006575D01*
X012493Y006590D01*
X012375Y006590D01*
X012375Y006205D01*
X012335Y006205D01*
X012335Y006590D01*
X012217Y006590D01*
X012181Y006575D01*
X012158Y006553D01*
X012120Y006590D01*
X012109Y006590D01*
X012101Y009390D01*
X012101Y009421D01*
X012167Y009421D01*
X012295Y009549D01*
X012295Y009647D01*
X012351Y009702D01*
X012351Y010015D01*
X012358Y010022D01*
X012358Y009986D01*
X012486Y009858D01*
X012358Y009730D01*
X012358Y009549D01*
X012486Y009421D01*
X012667Y009421D01*
X012740Y009494D01*
X012740Y008764D01*
X012647Y008670D01*
X012549Y008670D01*
X012421Y008542D01*
X012421Y008361D01*
X012549Y008233D01*
X012730Y008233D01*
X012827Y008330D01*
X012865Y008292D01*
X012865Y008202D01*
X012952Y008115D01*
X013522Y007545D01*
X013456Y007612D02*
X012106Y007612D01*
X012106Y007689D02*
X013379Y007689D01*
X013301Y007766D02*
X012106Y007766D01*
X012106Y007843D02*
X013224Y007843D01*
X013147Y007921D02*
X012106Y007921D01*
X012105Y007998D02*
X013070Y007998D01*
X012992Y008075D02*
X012105Y008075D01*
X012105Y008152D02*
X012915Y008152D01*
X012865Y008230D02*
X012105Y008230D01*
X012104Y008307D02*
X012476Y008307D01*
X012421Y008384D02*
X012104Y008384D01*
X012104Y008461D02*
X012421Y008461D01*
X012421Y008539D02*
X012104Y008539D01*
X012103Y008616D02*
X012494Y008616D01*
X012669Y008693D02*
X012103Y008693D01*
X012103Y008770D02*
X012740Y008770D01*
X012740Y008847D02*
X012103Y008847D01*
X012103Y008925D02*
X012740Y008925D01*
X012740Y009002D02*
X012102Y009002D01*
X012102Y009079D02*
X012740Y009079D01*
X012740Y009156D02*
X012102Y009156D01*
X012102Y009234D02*
X012740Y009234D01*
X012740Y009311D02*
X012101Y009311D01*
X012101Y009388D02*
X012740Y009388D01*
X012740Y009465D02*
X012712Y009465D01*
X012442Y009465D02*
X012212Y009465D01*
X012289Y009543D02*
X012365Y009543D01*
X012358Y009620D02*
X012295Y009620D01*
X012346Y009697D02*
X012358Y009697D01*
X012351Y009774D02*
X012403Y009774D01*
X012351Y009852D02*
X012480Y009852D01*
X012486Y009858D02*
X012584Y009858D01*
X012585Y009858D01*
X012486Y009858D01*
X012416Y009929D02*
X012351Y009929D01*
X012351Y010006D02*
X012358Y010006D01*
X011979Y010315D02*
X011865Y010315D01*
X011902Y010238D02*
X011785Y010238D01*
X011705Y010161D02*
X011865Y010161D01*
X011865Y010083D02*
X011625Y010083D01*
X011545Y010006D02*
X011857Y010006D01*
X011780Y009929D02*
X011596Y009929D01*
X011670Y009852D02*
X011703Y009852D01*
X011678Y009774D02*
X011670Y009774D01*
X011670Y009697D02*
X011678Y009697D01*
X011678Y009620D02*
X011616Y009620D01*
X011592Y009543D02*
X011678Y009543D01*
X011678Y009465D02*
X011592Y009465D01*
X011629Y009423D02*
X011629Y009423D01*
X011664Y009388D02*
X011742Y009388D01*
X011717Y009311D02*
X011803Y009311D01*
X011803Y009234D02*
X011717Y009234D01*
X011717Y009156D02*
X011803Y009156D01*
X011803Y009079D02*
X011717Y009079D01*
X011717Y009002D02*
X011804Y009002D01*
X011804Y008925D02*
X011717Y008925D01*
X011717Y008847D02*
X011804Y008847D01*
X011804Y008770D02*
X011717Y008770D01*
X011717Y008693D02*
X011805Y008693D01*
X011805Y008616D02*
X011717Y008616D01*
X011717Y008539D02*
X011805Y008539D01*
X011805Y008461D02*
X011717Y008461D01*
X011717Y008384D02*
X011805Y008384D01*
X011806Y008307D02*
X011717Y008307D01*
X011717Y008230D02*
X011806Y008230D01*
X011806Y008152D02*
X011717Y008152D01*
X011717Y008075D02*
X011806Y008075D01*
X011807Y007998D02*
X011717Y007998D01*
X011717Y007921D02*
X011807Y007921D01*
X011807Y007843D02*
X011717Y007843D01*
X011717Y007766D02*
X011807Y007766D01*
X011807Y007689D02*
X011717Y007689D01*
X011717Y007612D02*
X011808Y007612D01*
X011808Y007534D02*
X011717Y007534D01*
X011717Y007457D02*
X011808Y007457D01*
X011808Y007380D02*
X011717Y007380D01*
X011717Y007303D02*
X011809Y007303D01*
X011809Y007225D02*
X011717Y007225D01*
X011717Y007148D02*
X011809Y007148D01*
X011809Y007071D02*
X011717Y007071D01*
X011717Y006994D02*
X011809Y006994D01*
X011810Y006916D02*
X011717Y006916D01*
X011717Y006839D02*
X011810Y006839D01*
X011810Y006762D02*
X011717Y006762D01*
X011717Y006685D02*
X011810Y006685D01*
X011811Y006608D02*
X011717Y006608D01*
X011418Y006762D02*
X011388Y006762D01*
X011418Y006839D02*
X011311Y006839D01*
X011418Y006916D02*
X008788Y006916D01*
X008730Y006858D02*
X008858Y006986D01*
X008858Y007167D01*
X008730Y007295D01*
X008549Y007295D01*
X008421Y007167D01*
X008421Y006986D01*
X008549Y006858D01*
X008730Y006858D01*
X008858Y006994D02*
X011418Y006994D01*
X011418Y007071D02*
X008858Y007071D01*
X008858Y007148D02*
X011418Y007148D01*
X011418Y007225D02*
X008800Y007225D01*
X008479Y007225D02*
X006013Y007225D01*
X006013Y007148D02*
X008421Y007148D01*
X008421Y007071D02*
X006013Y007071D01*
X006013Y006994D02*
X008421Y006994D01*
X008491Y006916D02*
X006013Y006916D01*
X006013Y006839D02*
X011093Y006839D01*
X011016Y006762D02*
X006013Y006762D01*
X006013Y006685D02*
X010983Y006685D01*
X010983Y006608D02*
X006013Y006608D01*
X006013Y006530D02*
X010956Y006530D01*
X010956Y006453D02*
X006013Y006453D01*
X006013Y006376D02*
X006724Y006376D01*
X006511Y006299D02*
X006013Y006299D01*
X006013Y006221D02*
X006340Y006221D01*
X006371Y006247D02*
X006371Y006247D01*
X006248Y006144D02*
X006013Y006144D01*
X006013Y006067D02*
X006156Y006067D01*
X006064Y005990D02*
X006013Y005990D01*
X006013Y005912D02*
X006017Y005912D01*
X007190Y006376D02*
X010956Y006376D01*
X010956Y006299D02*
X007402Y006299D01*
X007574Y006221D02*
X010956Y006221D01*
X010956Y006144D02*
X007666Y006144D01*
X007758Y006067D02*
X010956Y006067D01*
X010956Y005990D02*
X007850Y005990D01*
X007897Y005912D02*
X010956Y005912D01*
X010961Y005835D02*
X007942Y005835D01*
X007986Y005758D02*
X013365Y005758D01*
X013365Y005835D02*
X012562Y005835D01*
X012557Y005824D02*
X012572Y005861D01*
X012572Y006166D01*
X012375Y006166D01*
X012375Y005781D01*
X012493Y005781D01*
X012529Y005796D01*
X012557Y005824D01*
X012572Y005912D02*
X013365Y005912D01*
X013365Y005990D02*
X012572Y005990D01*
X012572Y006067D02*
X013365Y006067D01*
X013365Y006144D02*
X012572Y006144D01*
X012572Y006221D02*
X013365Y006221D01*
X013365Y006299D02*
X012572Y006299D01*
X012572Y006376D02*
X013365Y006376D01*
X013365Y006453D02*
X012572Y006453D01*
X012564Y006530D02*
X013365Y006530D01*
X013365Y006608D02*
X012109Y006608D01*
X012109Y006685D02*
X013365Y006685D01*
X013365Y006762D02*
X012109Y006762D01*
X012109Y006839D02*
X013365Y006839D01*
X013365Y006916D02*
X012108Y006916D01*
X012108Y006994D02*
X013365Y006994D01*
X013365Y007071D02*
X012108Y007071D01*
X012108Y007148D02*
X013365Y007148D01*
X013307Y007225D02*
X012108Y007225D01*
X012107Y007303D02*
X013296Y007303D01*
X013296Y007380D02*
X012107Y007380D01*
X012107Y007457D02*
X013336Y007457D01*
X013413Y007534D02*
X012107Y007534D01*
X011418Y007534D02*
X011358Y007534D01*
X011358Y007457D02*
X011418Y007457D01*
X011418Y007380D02*
X011314Y007380D01*
X011237Y007303D02*
X011418Y007303D01*
X011418Y007612D02*
X011351Y007612D01*
X011418Y007689D02*
X011274Y007689D01*
X011418Y007766D02*
X010911Y007766D01*
X010834Y007843D02*
X011418Y007843D01*
X011418Y007921D02*
X010789Y007921D01*
X010789Y007998D02*
X011418Y007998D01*
X011418Y008075D02*
X010789Y008075D01*
X010789Y008152D02*
X011418Y008152D01*
X011418Y008230D02*
X010789Y008230D01*
X010789Y008307D02*
X011418Y008307D01*
X011418Y008384D02*
X010789Y008384D01*
X010789Y008461D02*
X011418Y008461D01*
X011418Y008539D02*
X010789Y008539D01*
X010789Y008616D02*
X011418Y008616D01*
X011418Y008693D02*
X010789Y008693D01*
X010789Y008770D02*
X011418Y008770D01*
X011418Y008847D02*
X010789Y008847D01*
X010823Y008925D02*
X011418Y008925D01*
X011418Y009002D02*
X010901Y009002D01*
X010978Y009079D02*
X011418Y009079D01*
X011418Y009156D02*
X011055Y009156D01*
X011132Y009234D02*
X011396Y009234D01*
X011381Y009249D02*
X011381Y009249D01*
X011319Y009311D02*
X011164Y009311D01*
X011164Y009388D02*
X011293Y009388D01*
X011293Y009465D02*
X011164Y009465D01*
X011164Y009543D02*
X011293Y009543D01*
X011287Y009620D02*
X011164Y009620D01*
X011225Y009697D02*
X011233Y009697D01*
X011034Y009929D02*
X010265Y009929D01*
X010342Y010006D02*
X011114Y010006D01*
X011194Y010083D02*
X010420Y010083D01*
X010497Y010161D02*
X011274Y010161D01*
X011354Y010238D02*
X010574Y010238D01*
X010651Y010315D02*
X011434Y010315D01*
X011514Y010392D02*
X010729Y010392D01*
X010806Y010470D02*
X011594Y010470D01*
X011674Y010547D02*
X010883Y010547D01*
X010960Y010624D02*
X011754Y010624D01*
X011834Y010701D02*
X011323Y010701D01*
X011292Y010671D02*
X011420Y010799D01*
X011420Y010980D01*
X011323Y011077D01*
X011420Y011174D01*
X011420Y011355D01*
X011292Y011483D01*
X011111Y011483D01*
X010983Y011355D01*
X010983Y011320D01*
X009615Y009951D01*
X009615Y008799D01*
X009546Y008730D01*
X009546Y008549D01*
X009674Y008421D01*
X009855Y008421D01*
X009952Y008518D01*
X010049Y008421D01*
X010230Y008421D01*
X010358Y008549D01*
X010358Y008730D01*
X010230Y008858D01*
X010132Y008858D01*
X010101Y008889D01*
X010101Y008931D01*
X010174Y008858D01*
X010355Y008858D01*
X010483Y008986D01*
X010483Y009167D01*
X010355Y009295D01*
X010174Y009295D01*
X010101Y009223D01*
X010101Y009765D01*
X011059Y010723D01*
X011111Y010671D01*
X011292Y010671D01*
X011400Y010779D02*
X011914Y010779D01*
X011994Y010856D02*
X011420Y010856D01*
X011420Y010933D02*
X012074Y010933D01*
X012154Y011010D02*
X011390Y011010D01*
X011334Y011087D02*
X012234Y011087D01*
X012314Y011165D02*
X011411Y011165D01*
X011420Y011242D02*
X012394Y011242D01*
X012474Y011319D02*
X011420Y011319D01*
X011379Y011396D02*
X012554Y011396D01*
X012634Y011474D02*
X011301Y011474D01*
X011102Y011474D02*
X009435Y011474D01*
X009512Y011551D02*
X012714Y011551D01*
X012824Y011242D02*
X015478Y011242D01*
X015676Y011242D02*
X018178Y011242D01*
X018178Y011319D02*
X015753Y011319D01*
X015795Y011396D02*
X018178Y011396D01*
X018178Y011474D02*
X015795Y011474D01*
X015787Y011551D02*
X018178Y011551D01*
X018178Y011628D02*
X015709Y011628D01*
X015444Y011628D02*
X009589Y011628D01*
X009639Y011678D02*
X011451Y011678D01*
X012014Y012240D01*
X012101Y012327D01*
X012101Y012890D01*
X012889Y013678D01*
X014326Y013678D01*
X014945Y014296D01*
X015042Y014296D01*
X015170Y014424D01*
X015170Y014605D01*
X015042Y014733D01*
X014861Y014733D01*
X014733Y014605D01*
X014733Y014507D01*
X014202Y013976D01*
X012765Y013976D01*
X012678Y013889D01*
X011803Y013014D01*
X011803Y012451D01*
X011327Y011976D01*
X009515Y011976D01*
X009428Y011889D01*
X008209Y010670D01*
X008111Y010670D01*
X007983Y010542D01*
X007983Y010361D01*
X008111Y010233D01*
X008292Y010233D01*
X008420Y010361D01*
X008420Y010459D01*
X009639Y011678D01*
X009399Y011860D02*
X006013Y011860D01*
X006013Y011937D02*
X009476Y011937D01*
X009321Y011783D02*
X006013Y011783D01*
X006013Y011705D02*
X009244Y011705D01*
X009167Y011628D02*
X006013Y011628D01*
X006013Y011551D02*
X009090Y011551D01*
X009012Y011474D02*
X006013Y011474D01*
X006013Y011396D02*
X008935Y011396D01*
X008858Y011319D02*
X006013Y011319D01*
X006013Y011242D02*
X008781Y011242D01*
X008703Y011165D02*
X006013Y011165D01*
X006013Y011087D02*
X008626Y011087D01*
X008549Y011010D02*
X006013Y011010D01*
X006013Y010933D02*
X008472Y010933D01*
X008395Y010856D02*
X006013Y010856D01*
X006013Y010779D02*
X008317Y010779D01*
X008240Y010701D02*
X006013Y010701D01*
X006013Y010624D02*
X008065Y010624D01*
X007988Y010547D02*
X006013Y010547D01*
X006013Y010470D02*
X007983Y010470D01*
X007983Y010392D02*
X006013Y010392D01*
X006013Y010315D02*
X008030Y010315D01*
X008107Y010238D02*
X006013Y010238D01*
X006013Y010161D02*
X009824Y010161D01*
X009902Y010238D02*
X008297Y010238D01*
X008374Y010315D02*
X009979Y010315D01*
X010056Y010392D02*
X008420Y010392D01*
X008431Y010470D02*
X010133Y010470D01*
X010211Y010547D02*
X008508Y010547D01*
X008585Y010624D02*
X010288Y010624D01*
X010365Y010701D02*
X008663Y010701D01*
X008740Y010779D02*
X010442Y010779D01*
X010520Y010856D02*
X008817Y010856D01*
X008894Y010933D02*
X010597Y010933D01*
X010674Y011010D02*
X008971Y011010D01*
X009049Y011087D02*
X010751Y011087D01*
X010828Y011165D02*
X009126Y011165D01*
X009203Y011242D02*
X010906Y011242D01*
X010983Y011319D02*
X009280Y011319D01*
X009358Y011396D02*
X011025Y011396D01*
X011479Y011705D02*
X018244Y011705D01*
X018321Y011783D02*
X011556Y011783D01*
X011634Y011860D02*
X018399Y011860D01*
X018476Y011937D02*
X011711Y011937D01*
X011788Y012014D02*
X018553Y012014D01*
X018628Y012092D02*
X011865Y012092D01*
X011943Y012169D02*
X016614Y012169D01*
X016674Y012108D02*
X016855Y012108D01*
X016983Y012236D01*
X016983Y012417D01*
X016855Y012545D01*
X016674Y012545D01*
X016546Y012417D01*
X016546Y012236D01*
X016674Y012108D01*
X016546Y012246D02*
X012020Y012246D01*
X012097Y012323D02*
X016546Y012323D01*
X016546Y012401D02*
X016362Y012401D01*
X016439Y012478D02*
X016606Y012478D01*
X016516Y012555D02*
X017421Y012555D01*
X017421Y012632D02*
X016594Y012632D01*
X016922Y012478D02*
X017430Y012478D01*
X017507Y012401D02*
X016983Y012401D01*
X016983Y012323D02*
X018628Y012323D01*
X018628Y012246D02*
X016983Y012246D01*
X016915Y012169D02*
X018628Y012169D01*
X018628Y012401D02*
X017772Y012401D01*
X017849Y012478D02*
X018628Y012478D01*
X018628Y012555D02*
X018516Y012555D01*
X018594Y012632D02*
X018628Y012632D01*
X018039Y013250D02*
X015483Y013250D01*
X015483Y013272D02*
X016789Y014577D01*
X016789Y014980D01*
X016858Y015049D01*
X016858Y015230D01*
X016730Y015358D01*
X016549Y015358D01*
X016421Y015230D01*
X016421Y015049D01*
X016490Y014980D01*
X016490Y014701D01*
X015295Y013507D01*
X015295Y013584D01*
X016351Y014640D01*
X016351Y014980D01*
X016420Y015049D01*
X016420Y015230D01*
X016292Y015358D01*
X016111Y015358D01*
X015983Y015230D01*
X015855Y015358D01*
X015674Y015358D01*
X015546Y015230D01*
X015546Y015049D01*
X015615Y014980D01*
X015615Y014764D01*
X014772Y013920D01*
X014674Y013920D01*
X014546Y013792D01*
X014546Y013611D01*
X014674Y013483D01*
X014855Y013483D01*
X014858Y013487D01*
X014858Y013486D01*
X014986Y013358D01*
X015050Y013358D01*
X015046Y013355D01*
X015046Y013174D01*
X015174Y013046D01*
X015355Y013046D01*
X015483Y013174D01*
X015483Y013272D01*
X015539Y013327D02*
X018046Y013327D01*
X018096Y013405D02*
X015616Y013405D01*
X015693Y013482D02*
X018173Y013482D01*
X018233Y013559D02*
X015770Y013559D01*
X015848Y013636D02*
X018233Y013636D01*
X018233Y013714D02*
X015925Y013714D01*
X016002Y013791D02*
X018294Y013791D01*
X018318Y014100D02*
X016311Y014100D01*
X016388Y014177D02*
X018252Y014177D01*
X018220Y014254D02*
X016466Y014254D01*
X016543Y014332D02*
X018215Y014332D01*
X018224Y014409D02*
X016620Y014409D01*
X016697Y014486D02*
X018256Y014486D01*
X018327Y014563D02*
X016775Y014563D01*
X016789Y014641D02*
X018628Y014641D01*
X018628Y014718D02*
X016789Y014718D01*
X016789Y014795D02*
X018679Y014795D01*
X018666Y014872D02*
X016789Y014872D01*
X016789Y014949D02*
X018628Y014949D01*
X018628Y015027D02*
X016836Y015027D01*
X016858Y015104D02*
X018628Y015104D01*
X018628Y015181D02*
X017586Y015181D01*
X017443Y015181D02*
X016858Y015181D01*
X016829Y015258D02*
X017315Y015258D01*
X017262Y015336D02*
X016752Y015336D01*
X016527Y015336D02*
X016314Y015336D01*
X016392Y015258D02*
X016450Y015258D01*
X016420Y015181D02*
X016421Y015181D01*
X016420Y015104D02*
X016421Y015104D01*
X016398Y015027D02*
X016443Y015027D01*
X016490Y014949D02*
X016351Y014949D01*
X016351Y014872D02*
X016490Y014872D01*
X016490Y014795D02*
X016351Y014795D01*
X016351Y014718D02*
X016490Y014718D01*
X016429Y014641D02*
X016351Y014641D01*
X016352Y014563D02*
X016275Y014563D01*
X016275Y014486D02*
X016197Y014486D01*
X016198Y014409D02*
X016120Y014409D01*
X016120Y014332D02*
X016043Y014332D01*
X016043Y014254D02*
X015966Y014254D01*
X015966Y014177D02*
X015888Y014177D01*
X015889Y014100D02*
X015811Y014100D01*
X015811Y014023D02*
X015734Y014023D01*
X015734Y013945D02*
X015657Y013945D01*
X015657Y013868D02*
X015579Y013868D01*
X015580Y013791D02*
X015502Y013791D01*
X015502Y013714D02*
X015425Y013714D01*
X015425Y013636D02*
X015348Y013636D01*
X015348Y013559D02*
X015295Y013559D01*
X015084Y013795D02*
X015069Y013795D01*
X015914Y014640D01*
X015914Y014980D01*
X015983Y015049D01*
X015983Y015230D01*
X015983Y015049D01*
X016053Y014980D01*
X016053Y014764D01*
X015084Y013795D01*
X015142Y013868D02*
X015157Y013868D01*
X015219Y013945D02*
X015234Y013945D01*
X015296Y014023D02*
X015311Y014023D01*
X015374Y014100D02*
X015389Y014100D01*
X015451Y014177D02*
X015466Y014177D01*
X015528Y014254D02*
X015543Y014254D01*
X015605Y014332D02*
X015620Y014332D01*
X015683Y014409D02*
X015698Y014409D01*
X015760Y014486D02*
X015775Y014486D01*
X015837Y014563D02*
X015852Y014563D01*
X015914Y014641D02*
X015929Y014641D01*
X015914Y014718D02*
X016007Y014718D01*
X016053Y014795D02*
X015914Y014795D01*
X015914Y014872D02*
X016053Y014872D01*
X016053Y014949D02*
X015914Y014949D01*
X015961Y015027D02*
X016006Y015027D01*
X015983Y015104D02*
X015983Y015104D01*
X015983Y015181D02*
X015983Y015181D01*
X015954Y015258D02*
X016012Y015258D01*
X016089Y015336D02*
X015877Y015336D01*
X015652Y015336D02*
X015020Y015336D01*
X015045Y015361D02*
X015045Y015542D01*
X014917Y015670D01*
X014736Y015670D01*
X014608Y015542D01*
X014608Y015445D01*
X014390Y015226D01*
X014098Y015226D01*
X014108Y015236D01*
X014108Y015417D01*
X013980Y015545D01*
X013799Y015545D01*
X013730Y015476D01*
X013390Y015476D01*
X013303Y015389D01*
X012897Y014983D01*
X012799Y014983D01*
X012671Y014855D01*
X012671Y014674D01*
X012799Y014546D01*
X012980Y014546D01*
X013014Y014580D01*
X013111Y014483D01*
X013292Y014483D01*
X013420Y014611D01*
X013420Y014772D01*
X013576Y014928D01*
X013931Y014928D01*
X013858Y014855D01*
X013858Y014674D01*
X013986Y014546D01*
X014167Y014546D01*
X014295Y014674D01*
X014295Y014855D01*
X014223Y014928D01*
X014514Y014928D01*
X014601Y015015D01*
X014820Y015233D01*
X014917Y015233D01*
X015045Y015361D01*
X015045Y015413D02*
X017237Y015413D01*
X017237Y015490D02*
X015045Y015490D01*
X015020Y015567D02*
X017262Y015567D01*
X017315Y015645D02*
X014943Y015645D01*
X014711Y015645D02*
X012539Y015645D01*
X012539Y015567D02*
X014634Y015567D01*
X014608Y015490D02*
X014035Y015490D01*
X014108Y015413D02*
X014577Y015413D01*
X014499Y015336D02*
X014108Y015336D01*
X014108Y015258D02*
X014422Y015258D01*
X014613Y015027D02*
X015568Y015027D01*
X015546Y015104D02*
X014690Y015104D01*
X014767Y015181D02*
X015546Y015181D01*
X015575Y015258D02*
X014942Y015258D01*
X014536Y014949D02*
X015615Y014949D01*
X015615Y014872D02*
X014278Y014872D01*
X014295Y014795D02*
X015615Y014795D01*
X015569Y014718D02*
X015057Y014718D01*
X015135Y014641D02*
X015492Y014641D01*
X015415Y014563D02*
X015170Y014563D01*
X015170Y014486D02*
X015337Y014486D01*
X015260Y014409D02*
X015155Y014409D01*
X015183Y014332D02*
X015078Y014332D01*
X015106Y014254D02*
X014903Y014254D01*
X014826Y014177D02*
X015028Y014177D01*
X014951Y014100D02*
X014749Y014100D01*
X014671Y014023D02*
X014874Y014023D01*
X014797Y013945D02*
X014594Y013945D01*
X014622Y013868D02*
X014517Y013868D01*
X014546Y013791D02*
X014440Y013791D01*
X014362Y013714D02*
X014546Y013714D01*
X014546Y013636D02*
X012848Y013636D01*
X012770Y013559D02*
X014598Y013559D01*
X014863Y013482D02*
X012693Y013482D01*
X012616Y013405D02*
X014940Y013405D01*
X015046Y013327D02*
X012539Y013327D01*
X012461Y013250D02*
X015046Y013250D01*
X015047Y013173D02*
X012852Y013173D01*
X012920Y013096D02*
X015124Y013096D01*
X014972Y013018D02*
X016307Y013018D01*
X016230Y012941D02*
X015049Y012941D01*
X015126Y012864D02*
X016153Y012864D01*
X016384Y013096D02*
X015405Y013096D01*
X015482Y013173D02*
X017962Y013173D01*
X018609Y013791D02*
X018675Y013791D01*
X018670Y013868D02*
X016079Y013868D01*
X016157Y013945D02*
X018628Y013945D01*
X018628Y014023D02*
X016234Y014023D01*
X014846Y014718D02*
X014295Y014718D01*
X014262Y014641D02*
X014769Y014641D01*
X014733Y014563D02*
X014185Y014563D01*
X013969Y014563D02*
X013372Y014563D01*
X013420Y014641D02*
X013892Y014641D01*
X013858Y014718D02*
X013420Y014718D01*
X013444Y014795D02*
X013858Y014795D01*
X013876Y014872D02*
X013521Y014872D01*
X013295Y014486D02*
X014712Y014486D01*
X014635Y014409D02*
X012804Y014409D01*
X012858Y014355D02*
X012730Y014483D01*
X012549Y014483D01*
X012421Y014355D01*
X012421Y014174D01*
X012549Y014046D01*
X012730Y014046D01*
X012858Y014174D01*
X012858Y014355D01*
X012858Y014332D02*
X014558Y014332D01*
X014481Y014254D02*
X012858Y014254D01*
X012858Y014177D02*
X014403Y014177D01*
X014326Y014100D02*
X012784Y014100D01*
X012734Y013945D02*
X010539Y013945D01*
X010539Y013868D02*
X012657Y013868D01*
X012580Y013791D02*
X010539Y013791D01*
X010539Y013714D02*
X012502Y013714D01*
X012425Y013636D02*
X010539Y013636D01*
X010539Y013559D02*
X012348Y013559D01*
X012271Y013482D02*
X010539Y013482D01*
X010539Y013405D02*
X012193Y013405D01*
X012116Y013327D02*
X010600Y013327D01*
X010539Y013389D02*
X010539Y015390D01*
X010639Y015490D01*
X011421Y015490D01*
X011421Y015542D02*
X011421Y015361D01*
X011549Y015233D01*
X011730Y015233D01*
X011858Y015361D01*
X011858Y015542D01*
X011730Y015670D01*
X011549Y015670D01*
X011421Y015542D01*
X011446Y015567D02*
X010716Y015567D01*
X010726Y015577D02*
X010726Y015951D01*
X010514Y016164D01*
X009924Y016164D01*
X009855Y016233D01*
X009674Y016233D01*
X009546Y016105D01*
X009546Y015924D01*
X009674Y015796D01*
X009855Y015796D01*
X009924Y015865D01*
X010119Y015865D01*
X010108Y015855D01*
X010108Y015757D01*
X010053Y015701D01*
X010053Y013202D01*
X010983Y012272D01*
X010983Y012174D01*
X011111Y012046D01*
X011292Y012046D01*
X011420Y012174D01*
X011420Y012355D01*
X011348Y012428D01*
X011355Y012428D01*
X011424Y012358D01*
X011605Y012358D01*
X011733Y012486D01*
X011733Y012667D01*
X011605Y012795D01*
X011424Y012795D01*
X011355Y012726D01*
X011201Y012726D01*
X010539Y013389D01*
X010677Y013250D02*
X012039Y013250D01*
X011962Y013173D02*
X010755Y013173D01*
X010832Y013096D02*
X011884Y013096D01*
X011807Y013018D02*
X010909Y013018D01*
X010986Y012941D02*
X011803Y012941D01*
X011803Y012864D02*
X011063Y012864D01*
X011141Y012787D02*
X011415Y012787D01*
X011613Y012787D02*
X011803Y012787D01*
X011803Y012710D02*
X011691Y012710D01*
X011733Y012632D02*
X011803Y012632D01*
X011803Y012555D02*
X011733Y012555D01*
X011724Y012478D02*
X011803Y012478D01*
X011752Y012401D02*
X011647Y012401D01*
X011675Y012323D02*
X011420Y012323D01*
X011420Y012246D02*
X011597Y012246D01*
X011520Y012169D02*
X011415Y012169D01*
X011443Y012092D02*
X011338Y012092D01*
X011366Y012014D02*
X006013Y012014D01*
X006013Y012092D02*
X011066Y012092D01*
X010989Y012169D02*
X006013Y012169D01*
X006013Y012246D02*
X010983Y012246D01*
X010932Y012323D02*
X006013Y012323D01*
X006013Y012401D02*
X010854Y012401D01*
X010777Y012478D02*
X006013Y012478D01*
X006013Y012555D02*
X010700Y012555D01*
X010623Y012632D02*
X006013Y012632D01*
X006013Y012710D02*
X010545Y012710D01*
X010468Y012787D02*
X006013Y012787D01*
X006013Y012864D02*
X010391Y012864D01*
X010314Y012941D02*
X006013Y012941D01*
X006013Y013018D02*
X010237Y013018D01*
X010159Y013096D02*
X006013Y013096D01*
X006777Y013173D02*
X010082Y013173D01*
X010053Y013250D02*
X006801Y013250D01*
X006801Y013327D02*
X010053Y013327D01*
X010053Y013405D02*
X006801Y013405D01*
X006801Y013482D02*
X009675Y013482D01*
X009736Y013421D02*
X009917Y013421D01*
X010045Y013549D01*
X010045Y013730D01*
X009917Y013858D01*
X009851Y013858D01*
X009851Y015417D01*
X009920Y015486D01*
X009920Y015667D01*
X009792Y015795D01*
X009611Y015795D01*
X009483Y015667D01*
X009483Y015486D01*
X009553Y015417D01*
X009553Y013702D01*
X009608Y013647D01*
X009608Y013549D01*
X009736Y013421D01*
X009608Y013559D02*
X006801Y013559D01*
X006801Y013636D02*
X009608Y013636D01*
X009553Y013714D02*
X006801Y013714D01*
X006762Y013791D02*
X007505Y013791D01*
X007512Y013784D02*
X007484Y013812D01*
X007469Y013848D01*
X007469Y013967D01*
X007853Y013967D01*
X007853Y014006D01*
X007469Y014006D01*
X007469Y014124D01*
X007484Y014161D01*
X007506Y014183D01*
X007469Y014221D01*
X007469Y014231D01*
X007397Y014231D01*
X007397Y014151D01*
X007358Y014056D01*
X007285Y013983D01*
X007191Y013944D01*
X007088Y013944D01*
X006993Y013983D01*
X006921Y014056D01*
X006882Y014151D01*
X006882Y014253D01*
X006921Y014348D01*
X006993Y014420D01*
X007069Y014452D01*
X006993Y014483D01*
X006921Y014556D01*
X006882Y014651D01*
X006882Y014753D01*
X006921Y014848D01*
X006993Y014920D01*
X007088Y014960D01*
X007191Y014960D01*
X007285Y014920D01*
X007358Y014848D01*
X007397Y014753D01*
X007397Y014651D01*
X007358Y014556D01*
X007331Y014529D01*
X007469Y014529D01*
X007469Y014539D01*
X007506Y014577D01*
X007469Y014614D01*
X007469Y014933D01*
X007506Y014971D01*
X007469Y015008D01*
X007469Y015327D01*
X007527Y015385D01*
X008219Y015385D01*
X008278Y015327D01*
X008278Y015317D01*
X008358Y015317D01*
X008358Y015355D01*
X008486Y015483D01*
X008667Y015483D01*
X008795Y015355D01*
X008795Y015257D01*
X008976Y015076D01*
X008976Y014702D01*
X008889Y014615D01*
X008764Y014490D01*
X008327Y014490D01*
X008240Y014577D01*
X008240Y014577D01*
X008278Y014539D01*
X008278Y014221D01*
X008240Y014183D01*
X008262Y014161D01*
X008278Y014124D01*
X008278Y014006D01*
X007893Y014006D01*
X007893Y013967D01*
X008278Y013967D01*
X008278Y013848D01*
X008262Y013812D01*
X008235Y013784D01*
X008198Y013769D01*
X007893Y013769D01*
X007893Y013967D01*
X007853Y013967D01*
X007853Y013769D01*
X007548Y013769D01*
X007512Y013784D01*
X007469Y013868D02*
X006013Y013868D01*
X006013Y013945D02*
X007085Y013945D01*
X007194Y013945D02*
X007469Y013945D01*
X007469Y014023D02*
X007325Y014023D01*
X007376Y014100D02*
X007469Y014100D01*
X007500Y014177D02*
X007397Y014177D01*
X007361Y014563D02*
X007493Y014563D01*
X007469Y014641D02*
X007393Y014641D01*
X007397Y014718D02*
X007469Y014718D01*
X007469Y014795D02*
X007380Y014795D01*
X007334Y014872D02*
X007469Y014872D01*
X007485Y014949D02*
X007215Y014949D01*
X007064Y014949D02*
X006013Y014949D01*
X006013Y014872D02*
X006945Y014872D01*
X006899Y014795D02*
X006013Y014795D01*
X006013Y014718D02*
X006882Y014718D01*
X006886Y014641D02*
X006013Y014641D01*
X006013Y014563D02*
X006918Y014563D01*
X006991Y014486D02*
X006013Y014486D01*
X006013Y014409D02*
X006982Y014409D01*
X006914Y014332D02*
X006013Y014332D01*
X006013Y014254D02*
X006882Y014254D01*
X006882Y014177D02*
X006013Y014177D01*
X006013Y014100D02*
X006903Y014100D01*
X006954Y014023D02*
X006013Y014023D01*
X006013Y015027D02*
X007469Y015027D01*
X007469Y015104D02*
X006013Y015104D01*
X006013Y015181D02*
X007469Y015181D01*
X007469Y015258D02*
X006013Y015258D01*
X006013Y015336D02*
X007478Y015336D01*
X006801Y015413D02*
X008417Y015413D01*
X008358Y015336D02*
X008269Y015336D01*
X008737Y015413D02*
X009553Y015413D01*
X009553Y015336D02*
X008795Y015336D01*
X008795Y015258D02*
X009553Y015258D01*
X009553Y015181D02*
X008871Y015181D01*
X008949Y015104D02*
X009553Y015104D01*
X009553Y015027D02*
X008976Y015027D01*
X008976Y014949D02*
X009553Y014949D01*
X009553Y014872D02*
X008976Y014872D01*
X008976Y014795D02*
X009553Y014795D01*
X009553Y014718D02*
X008976Y014718D01*
X008914Y014641D02*
X009553Y014641D01*
X009553Y014563D02*
X008837Y014563D01*
X008278Y014486D02*
X009553Y014486D01*
X009553Y014409D02*
X008278Y014409D01*
X008278Y014332D02*
X009553Y014332D01*
X009553Y014254D02*
X008278Y014254D01*
X008246Y014177D02*
X009553Y014177D01*
X009553Y014100D02*
X008278Y014100D01*
X008278Y014023D02*
X009553Y014023D01*
X009553Y013945D02*
X008278Y013945D01*
X008278Y013868D02*
X009553Y013868D01*
X009553Y013791D02*
X008241Y013791D01*
X007893Y013791D02*
X007853Y013791D01*
X007853Y013868D02*
X007893Y013868D01*
X007893Y013945D02*
X007853Y013945D01*
X008254Y014563D02*
X008254Y014563D01*
X009483Y015490D02*
X006801Y015490D01*
X006801Y015567D02*
X009483Y015567D01*
X009483Y015645D02*
X006801Y015645D01*
X006801Y015722D02*
X009538Y015722D01*
X009671Y015799D02*
X006801Y015799D01*
X006801Y015876D02*
X009593Y015876D01*
X009546Y015954D02*
X006801Y015954D01*
X006693Y016108D02*
X006013Y016108D01*
X006013Y016031D02*
X009546Y016031D01*
X009549Y016108D02*
X007221Y016108D01*
X007433Y016185D02*
X009626Y016185D01*
X009902Y016185D02*
X012240Y016185D01*
X012240Y016108D02*
X010569Y016108D01*
X010647Y016031D02*
X012240Y016031D01*
X012240Y015954D02*
X010724Y015954D01*
X010726Y015876D02*
X012240Y015876D01*
X012240Y015799D02*
X010726Y015799D01*
X010726Y015722D02*
X012240Y015722D01*
X012240Y015645D02*
X011755Y015645D01*
X011833Y015567D02*
X012240Y015567D01*
X012240Y015490D02*
X011858Y015490D01*
X011858Y015413D02*
X012240Y015413D01*
X012240Y015336D02*
X011832Y015336D01*
X011755Y015258D02*
X012240Y015258D01*
X012240Y015181D02*
X010539Y015181D01*
X010539Y015104D02*
X012240Y015104D01*
X012240Y015049D02*
X012171Y014980D01*
X012171Y014799D01*
X012299Y014671D01*
X012480Y014671D01*
X012608Y014799D01*
X012608Y014980D01*
X012539Y015049D01*
X012539Y017326D01*
X012420Y017445D01*
X012420Y017542D01*
X012292Y017670D01*
X012111Y017670D01*
X011983Y017542D01*
X011983Y017361D01*
X012111Y017233D01*
X012209Y017233D01*
X012240Y017202D01*
X012240Y015049D01*
X012218Y015027D02*
X010539Y015027D01*
X010539Y014949D02*
X012171Y014949D01*
X012171Y014872D02*
X010539Y014872D01*
X010539Y014795D02*
X012175Y014795D01*
X012252Y014718D02*
X011057Y014718D01*
X011042Y014733D02*
X010861Y014733D01*
X010733Y014605D01*
X010733Y014424D01*
X010861Y014296D01*
X011042Y014296D01*
X011170Y014424D01*
X011170Y014605D01*
X011042Y014733D01*
X011135Y014641D02*
X012704Y014641D01*
X012671Y014718D02*
X012527Y014718D01*
X012604Y014795D02*
X012671Y014795D01*
X012688Y014872D02*
X012608Y014872D01*
X012608Y014949D02*
X012766Y014949D01*
X012940Y015027D02*
X012561Y015027D01*
X012539Y015104D02*
X013018Y015104D01*
X013095Y015181D02*
X012539Y015181D01*
X012539Y015258D02*
X013172Y015258D01*
X013249Y015336D02*
X012539Y015336D01*
X012539Y015413D02*
X013327Y015413D01*
X013744Y015490D02*
X012539Y015490D01*
X012539Y015876D02*
X019908Y015876D01*
X019908Y015799D02*
X019752Y015799D01*
X019908Y015954D02*
X012539Y015954D01*
X012539Y016031D02*
X019908Y016031D01*
X019908Y016108D02*
X019229Y016108D01*
X019441Y016185D02*
X019908Y016185D01*
X019908Y016263D02*
X019595Y016263D01*
X019551Y016225D02*
X019551Y016225D01*
X019687Y016340D02*
X019908Y016340D01*
X019908Y016417D02*
X019779Y016417D01*
X019863Y016487D02*
X019863Y016487D01*
X019867Y016494D02*
X019908Y016494D01*
X019266Y015799D02*
X019188Y015799D01*
X019188Y015722D02*
X019266Y015722D01*
X019266Y015645D02*
X019188Y015645D01*
X019188Y015567D02*
X019266Y015567D01*
X019266Y015490D02*
X019188Y015490D01*
X019188Y015413D02*
X019266Y015413D01*
X019187Y015336D02*
X017767Y015336D01*
X017792Y015413D02*
X018628Y015413D01*
X018628Y015490D02*
X017792Y015490D01*
X017767Y015567D02*
X018628Y015567D01*
X018628Y015645D02*
X017714Y015645D01*
X017713Y015258D02*
X018628Y015258D01*
X019188Y015258D02*
X019266Y015258D01*
X019266Y015181D02*
X019188Y015181D01*
X019188Y015104D02*
X019266Y015104D01*
X019266Y015027D02*
X019188Y015027D01*
X019188Y014949D02*
X019266Y014949D01*
X019266Y014872D02*
X019188Y014872D01*
X019774Y014795D02*
X019908Y014795D01*
X019908Y014872D02*
X019788Y014872D01*
X019784Y013868D02*
X019908Y013868D01*
X019908Y013791D02*
X019778Y013791D01*
X018700Y016108D02*
X012539Y016108D01*
X012539Y016185D02*
X018488Y016185D01*
X018379Y016225D02*
X018379Y016225D01*
X018334Y016263D02*
X012539Y016263D01*
X012539Y016340D02*
X018242Y016340D01*
X018150Y016417D02*
X012539Y016417D01*
X012539Y016494D02*
X018063Y016494D01*
X018067Y016487D02*
X018067Y016487D01*
X018067Y016487D01*
X018018Y016572D02*
X012539Y016572D01*
X012539Y016649D02*
X017973Y016649D01*
X017929Y016726D02*
X012539Y016726D01*
X012539Y016803D02*
X017884Y016803D01*
X017863Y016839D02*
X017863Y016839D01*
X017856Y016880D02*
X012539Y016880D01*
X012539Y016958D02*
X017842Y016958D01*
X017829Y017035D02*
X012539Y017035D01*
X012539Y017112D02*
X017815Y017112D01*
X017802Y017189D02*
X012539Y017189D01*
X012539Y017267D02*
X017797Y017267D01*
X017793Y017240D02*
X017793Y017240D01*
X017811Y017344D02*
X012521Y017344D01*
X012444Y017421D02*
X017825Y017421D01*
X017838Y017498D02*
X012420Y017498D01*
X012387Y017576D02*
X017852Y017576D01*
X017863Y017641D02*
X017863Y017641D01*
X017870Y017653D02*
X012310Y017653D01*
X012094Y017653D02*
X008051Y017653D01*
X008070Y017576D02*
X012017Y017576D01*
X011983Y017498D02*
X008083Y017498D01*
X008097Y017421D02*
X011983Y017421D01*
X012001Y017344D02*
X008111Y017344D01*
X008124Y017267D02*
X012078Y017267D01*
X012240Y017189D02*
X008120Y017189D01*
X008106Y017112D02*
X012240Y017112D01*
X012240Y017035D02*
X008093Y017035D01*
X008079Y016958D02*
X012240Y016958D01*
X012240Y016880D02*
X008065Y016880D01*
X008058Y016839D02*
X008058Y016839D01*
X008037Y016803D02*
X012240Y016803D01*
X012240Y016726D02*
X007993Y016726D01*
X007948Y016649D02*
X012240Y016649D01*
X012240Y016572D02*
X007904Y016572D01*
X007859Y016494D02*
X012240Y016494D01*
X012240Y016417D02*
X007771Y016417D01*
X007855Y016487D02*
X007855Y016487D01*
X007679Y016340D02*
X012240Y016340D01*
X012240Y016263D02*
X007587Y016263D01*
X007543Y016225D02*
X007543Y016225D01*
X006480Y016185D02*
X006013Y016185D01*
X006013Y016263D02*
X006326Y016263D01*
X006371Y016225D02*
X006371Y016225D01*
X006234Y016340D02*
X006013Y016340D01*
X006013Y016417D02*
X006142Y016417D01*
X006059Y016487D02*
X006059Y016487D01*
X006055Y016494D02*
X006013Y016494D01*
X008007Y017730D02*
X017915Y017730D01*
X017959Y017807D02*
X007962Y017807D01*
X007918Y017885D02*
X018004Y017885D01*
X018048Y017962D02*
X007873Y017962D01*
X007800Y018039D02*
X018121Y018039D01*
X018213Y018116D02*
X007708Y018116D01*
X009858Y015799D02*
X010108Y015799D01*
X010073Y015722D02*
X009866Y015722D01*
X009920Y015645D02*
X010053Y015645D01*
X010053Y015567D02*
X009920Y015567D01*
X009920Y015490D02*
X010053Y015490D01*
X010053Y015413D02*
X009851Y015413D01*
X009851Y015336D02*
X010053Y015336D01*
X010053Y015258D02*
X009851Y015258D01*
X009851Y015181D02*
X010053Y015181D01*
X010053Y015104D02*
X009851Y015104D01*
X009851Y015027D02*
X010053Y015027D01*
X010053Y014949D02*
X009851Y014949D01*
X009851Y014872D02*
X010053Y014872D01*
X010053Y014795D02*
X009851Y014795D01*
X009851Y014718D02*
X010053Y014718D01*
X010053Y014641D02*
X009851Y014641D01*
X009851Y014563D02*
X010053Y014563D01*
X010053Y014486D02*
X009851Y014486D01*
X009851Y014409D02*
X010053Y014409D01*
X010053Y014332D02*
X009851Y014332D01*
X009851Y014254D02*
X010053Y014254D01*
X010053Y014177D02*
X009851Y014177D01*
X009851Y014100D02*
X010053Y014100D01*
X010053Y014023D02*
X009851Y014023D01*
X009851Y013945D02*
X010053Y013945D01*
X010053Y013868D02*
X009851Y013868D01*
X009984Y013791D02*
X010053Y013791D01*
X010045Y013714D02*
X010053Y013714D01*
X010045Y013636D02*
X010053Y013636D01*
X010045Y013559D02*
X010053Y013559D01*
X010053Y013482D02*
X009978Y013482D01*
X010539Y014023D02*
X014249Y014023D01*
X013109Y014486D02*
X011170Y014486D01*
X011170Y014563D02*
X012782Y014563D01*
X012997Y014563D02*
X013032Y014563D01*
X012475Y014409D02*
X011155Y014409D01*
X011078Y014332D02*
X012421Y014332D01*
X012421Y014254D02*
X010539Y014254D01*
X010539Y014177D02*
X012421Y014177D01*
X012495Y014100D02*
X010539Y014100D01*
X010539Y014332D02*
X010826Y014332D01*
X010749Y014409D02*
X010539Y014409D01*
X010539Y014486D02*
X010733Y014486D01*
X010733Y014563D02*
X010539Y014563D01*
X010539Y014641D02*
X010769Y014641D01*
X010846Y014718D02*
X010539Y014718D01*
X010539Y015258D02*
X011524Y015258D01*
X011447Y015336D02*
X010539Y015336D01*
X010562Y015413D02*
X011421Y015413D01*
X011523Y015645D02*
X010726Y015645D01*
X010726Y015577D02*
X010639Y015490D01*
X012384Y013173D02*
X012552Y013173D01*
X012483Y013096D02*
X012307Y013096D01*
X012230Y013018D02*
X012483Y013018D01*
X012320Y012941D02*
X012152Y012941D01*
X012101Y012864D02*
X012243Y012864D01*
X012233Y012787D02*
X012101Y012787D01*
X012101Y012710D02*
X012233Y012710D01*
X012275Y012632D02*
X012101Y012632D01*
X012101Y012555D02*
X012352Y012555D01*
X012527Y012478D02*
X012101Y012478D01*
X012101Y012401D02*
X012604Y012401D01*
X013063Y012864D02*
X014090Y012864D01*
X014167Y012941D02*
X012986Y012941D01*
X012920Y013018D02*
X014245Y013018D01*
X014178Y012951D02*
X014178Y012951D01*
X014377Y012478D02*
X014840Y012478D01*
X014917Y012401D02*
X014299Y012401D01*
X014173Y011165D02*
X018178Y011165D01*
X018178Y011087D02*
X014233Y011087D01*
X014233Y011010D02*
X018174Y011010D01*
X018097Y010933D02*
X014233Y010933D01*
X013856Y011165D02*
X012744Y011165D01*
X012751Y011087D02*
X012664Y011087D01*
X012674Y011010D02*
X012584Y011010D01*
X012597Y010933D02*
X012504Y010933D01*
X012520Y010856D02*
X012425Y010856D01*
X012442Y010779D02*
X012345Y010779D01*
X012365Y010701D02*
X012265Y010701D01*
X012288Y010624D02*
X012185Y010624D01*
X012211Y010547D02*
X012105Y010547D01*
X012133Y010470D02*
X012025Y010470D01*
X012056Y010392D02*
X011945Y010392D01*
X011081Y010701D02*
X011038Y010701D01*
X010954Y009852D02*
X010188Y009852D01*
X010111Y009774D02*
X010874Y009774D01*
X010865Y009697D02*
X010101Y009697D01*
X010101Y009620D02*
X010865Y009620D01*
X010865Y009543D02*
X010101Y009543D01*
X010101Y009465D02*
X010865Y009465D01*
X010864Y009388D02*
X010101Y009388D01*
X010101Y009311D02*
X010787Y009311D01*
X010710Y009234D02*
X010416Y009234D01*
X010483Y009156D02*
X010633Y009156D01*
X010555Y009079D02*
X010483Y009079D01*
X010483Y009002D02*
X010490Y009002D01*
X010490Y008925D02*
X010421Y008925D01*
X010490Y008847D02*
X010240Y008847D01*
X010317Y008770D02*
X010490Y008770D01*
X010490Y008693D02*
X010358Y008693D01*
X010358Y008616D02*
X010490Y008616D01*
X010490Y008539D02*
X010347Y008539D01*
X010270Y008461D02*
X010490Y008461D01*
X010490Y008384D02*
X009016Y008384D01*
X009045Y008307D02*
X010490Y008307D01*
X010490Y008230D02*
X009073Y008230D01*
X009150Y008152D02*
X010490Y008152D01*
X010490Y008075D02*
X009227Y008075D01*
X009305Y007998D02*
X010490Y007998D01*
X010643Y007612D02*
X006013Y007612D01*
X006013Y007689D02*
X009191Y007689D01*
X009114Y007766D02*
X006013Y007766D01*
X006013Y007843D02*
X009037Y007843D01*
X008959Y007921D02*
X006013Y007921D01*
X006013Y007998D02*
X008882Y007998D01*
X008707Y008075D02*
X006013Y008075D01*
X006013Y008152D02*
X008630Y008152D01*
X008608Y008230D02*
X006013Y008230D01*
X006013Y008307D02*
X008608Y008307D01*
X008638Y008384D02*
X006013Y008384D01*
X006013Y008461D02*
X008715Y008461D01*
X008939Y008461D02*
X009634Y008461D01*
X009556Y008539D02*
X006013Y008539D01*
X006013Y008616D02*
X009546Y008616D01*
X009546Y008693D02*
X006013Y008693D01*
X006013Y008770D02*
X009586Y008770D01*
X009615Y008847D02*
X006013Y008847D01*
X006013Y008925D02*
X009615Y008925D01*
X009615Y009002D02*
X006013Y009002D01*
X006013Y009079D02*
X009615Y009079D01*
X009615Y009156D02*
X006013Y009156D01*
X006013Y009234D02*
X009615Y009234D01*
X009615Y009311D02*
X006013Y009311D01*
X006013Y009388D02*
X009615Y009388D01*
X009615Y009465D02*
X006013Y009465D01*
X006013Y009543D02*
X009615Y009543D01*
X009615Y009620D02*
X006013Y009620D01*
X006013Y009697D02*
X009615Y009697D01*
X009615Y009774D02*
X006013Y009774D01*
X006013Y009852D02*
X009615Y009852D01*
X009615Y009929D02*
X006013Y009929D01*
X006013Y010006D02*
X009670Y010006D01*
X009747Y010083D02*
X006013Y010083D01*
X006013Y007534D02*
X010721Y007534D01*
X010798Y007457D02*
X006013Y007457D01*
X006013Y007380D02*
X010875Y007380D01*
X011042Y007303D02*
X006013Y007303D01*
X008031Y005681D02*
X013365Y005681D01*
X013365Y005603D02*
X011977Y005603D01*
X011973Y005608D02*
X011878Y005647D01*
X011776Y005647D01*
X011681Y005608D01*
X011608Y005535D01*
X011569Y005441D01*
X011569Y005338D01*
X011608Y005243D01*
X011681Y005171D01*
X011776Y005132D01*
X011878Y005132D01*
X011973Y005171D01*
X012045Y005243D01*
X012085Y005338D01*
X012085Y005441D01*
X012045Y005535D01*
X011973Y005608D01*
X012049Y005526D02*
X013365Y005526D01*
X013365Y005449D02*
X012081Y005449D01*
X012085Y005372D02*
X013365Y005372D01*
X013365Y005294D02*
X012067Y005294D01*
X012019Y005217D02*
X013365Y005217D01*
X013365Y005140D02*
X011898Y005140D01*
X011755Y005140D02*
X009148Y005140D01*
X009128Y005132D02*
X009223Y005171D01*
X009295Y005243D01*
X009335Y005338D01*
X009335Y005441D01*
X009295Y005535D01*
X009223Y005608D01*
X009128Y005647D01*
X009026Y005647D01*
X008931Y005608D01*
X008858Y005535D01*
X008819Y005441D01*
X008819Y005338D01*
X008858Y005243D01*
X008931Y005171D01*
X009026Y005132D01*
X009128Y005132D01*
X009005Y005140D02*
X008113Y005140D01*
X008126Y005217D02*
X008884Y005217D01*
X008837Y005294D02*
X008118Y005294D01*
X008104Y005372D02*
X008819Y005372D01*
X008823Y005449D02*
X008091Y005449D01*
X008077Y005526D02*
X008854Y005526D01*
X008926Y005603D02*
X008063Y005603D01*
X008099Y005063D02*
X010334Y005063D01*
X010326Y004985D02*
X008085Y004985D01*
X008072Y004908D02*
X010326Y004908D01*
X010326Y004831D02*
X008058Y004831D01*
X008058Y004832D02*
X008058Y004832D01*
X008013Y004754D02*
X010326Y004754D01*
X010326Y004677D02*
X007969Y004677D01*
X007924Y004599D02*
X010326Y004599D01*
X010326Y004522D02*
X007879Y004522D01*
X007855Y004479D02*
X007855Y004479D01*
X007814Y004445D02*
X010326Y004445D01*
X010326Y004368D02*
X007722Y004368D01*
X007630Y004290D02*
X010326Y004290D01*
X010998Y004290D02*
X012531Y004290D01*
X012531Y004368D02*
X010998Y004368D01*
X010998Y004445D02*
X012531Y004445D01*
X012531Y004522D02*
X010998Y004522D01*
X010998Y004599D02*
X012531Y004599D01*
X012531Y004677D02*
X010998Y004677D01*
X010998Y004754D02*
X012531Y004754D01*
X012531Y004831D02*
X010998Y004831D01*
X010998Y004908D02*
X012531Y004908D01*
X012531Y004985D02*
X010998Y004985D01*
X010990Y005063D02*
X012538Y005063D01*
X013195Y005063D02*
X013365Y005063D01*
X013395Y004985D02*
X013202Y004985D01*
X013202Y004908D02*
X013472Y004908D01*
X013549Y004831D02*
X013202Y004831D01*
X013202Y004754D02*
X013626Y004754D01*
X013703Y004677D02*
X013202Y004677D01*
X013202Y004599D02*
X013781Y004599D01*
X013858Y004522D02*
X013202Y004522D01*
X013202Y004445D02*
X013935Y004445D01*
X014526Y004368D02*
X013202Y004368D01*
X013202Y004290D02*
X015691Y004290D01*
X015665Y004368D02*
X015311Y004368D01*
X015323Y004445D02*
X015665Y004445D01*
X015682Y004831D02*
X015323Y004831D01*
X015270Y004908D02*
X015759Y004908D01*
X015692Y005063D02*
X015323Y005063D01*
X016144Y004908D02*
X016634Y004908D01*
X016581Y004831D02*
X016221Y004831D01*
X016211Y005063D02*
X016581Y005063D01*
X016581Y005449D02*
X016239Y005449D01*
X016239Y005526D02*
X016582Y005526D01*
X016798Y006144D02*
X013664Y006144D01*
X013664Y006067D02*
X018163Y006067D01*
X018071Y005990D02*
X013664Y005990D01*
X013664Y006221D02*
X016721Y006221D01*
X016644Y006299D02*
X013664Y006299D01*
X013664Y006376D02*
X016567Y006376D01*
X016517Y006453D02*
X013664Y006453D01*
X013664Y006530D02*
X016483Y006530D01*
X016483Y006608D02*
X013664Y006608D01*
X013664Y006685D02*
X016501Y006685D01*
X016578Y006762D02*
X015883Y006762D01*
X015961Y006839D02*
X016728Y006839D01*
X016651Y006916D02*
X015983Y006916D01*
X015983Y006994D02*
X016574Y006994D01*
X016497Y007071D02*
X015954Y007071D01*
X015877Y007148D02*
X016490Y007148D01*
X016490Y007225D02*
X015702Y007225D01*
X015625Y007303D02*
X016490Y007303D01*
X016976Y007303D02*
X019187Y007303D01*
X019188Y007380D02*
X019266Y007380D01*
X019266Y007457D02*
X019188Y007457D01*
X019188Y007534D02*
X019266Y007534D01*
X019266Y007612D02*
X019188Y007612D01*
X019188Y007689D02*
X019266Y007689D01*
X019266Y007766D02*
X019188Y007766D01*
X019188Y007225D02*
X019266Y007225D01*
X019266Y007148D02*
X019188Y007148D01*
X019188Y007071D02*
X019266Y007071D01*
X019266Y006994D02*
X019188Y006994D01*
X019188Y006916D02*
X019266Y006916D01*
X019908Y007843D02*
X016976Y007843D01*
X015511Y006994D02*
X013664Y006994D01*
X013664Y007071D02*
X013997Y007071D01*
X013919Y007148D02*
X013664Y007148D01*
X013722Y007225D02*
X013842Y007225D01*
X013765Y007303D02*
X013733Y007303D01*
X013664Y006916D02*
X015546Y006916D01*
X015568Y006839D02*
X013664Y006839D01*
X013664Y006762D02*
X015645Y006762D01*
X014516Y005526D02*
X014200Y005526D01*
X014210Y005449D02*
X014514Y005449D01*
X012375Y005835D02*
X012335Y005835D01*
X012335Y005912D02*
X012375Y005912D01*
X012375Y005990D02*
X012335Y005990D01*
X012335Y006067D02*
X012375Y006067D01*
X012375Y006144D02*
X012335Y006144D01*
X012335Y006221D02*
X012375Y006221D01*
X012375Y006299D02*
X012335Y006299D01*
X012335Y006376D02*
X012375Y006376D01*
X012375Y006453D02*
X012335Y006453D01*
X012335Y006530D02*
X012375Y006530D01*
X011676Y005603D02*
X009227Y005603D01*
X009299Y005526D02*
X011604Y005526D01*
X011573Y005449D02*
X009331Y005449D01*
X009335Y005372D02*
X011569Y005372D01*
X011587Y005294D02*
X009317Y005294D01*
X009269Y005217D02*
X011634Y005217D01*
X011174Y006186D02*
X011174Y006611D01*
X011202Y006639D01*
X011005Y007689D02*
X010989Y007689D01*
X010009Y008461D02*
X009895Y008461D01*
X010101Y008925D02*
X010108Y008925D01*
X010101Y009234D02*
X010112Y009234D01*
X012803Y008307D02*
X012851Y008307D01*
X013183Y008307D02*
X013365Y008307D01*
X013365Y008384D02*
X013233Y008384D01*
X013233Y008461D02*
X013365Y008461D01*
X013365Y008539D02*
X013233Y008539D01*
X013159Y008616D02*
X013365Y008616D01*
X013365Y008693D02*
X013039Y008693D01*
X013039Y008770D02*
X013365Y008770D01*
X013365Y008847D02*
X013039Y008847D01*
X013039Y008925D02*
X013365Y008925D01*
X013365Y009002D02*
X013039Y009002D01*
X013039Y009079D02*
X013365Y009079D01*
X013365Y009156D02*
X013039Y009156D01*
X013039Y009234D02*
X013365Y009234D01*
X013319Y009311D02*
X013039Y009311D01*
X013039Y009388D02*
X013242Y009388D01*
X013067Y009465D02*
X013039Y009465D01*
X013433Y009620D02*
X013912Y009620D01*
X013835Y009697D02*
X013420Y009697D01*
X013376Y009774D02*
X013796Y009774D01*
X013796Y009852D02*
X013299Y009852D01*
X013328Y009929D02*
X013807Y009929D01*
X013885Y010006D02*
X013405Y010006D01*
X013510Y009543D02*
X014087Y009543D01*
X014165Y009465D02*
X013587Y009465D01*
X013664Y009388D02*
X014242Y009388D01*
X014319Y009311D02*
X013664Y009311D01*
X013664Y009234D02*
X014396Y009234D01*
X014474Y009156D02*
X013664Y009156D01*
X013664Y009079D02*
X014551Y009079D01*
X014628Y009002D02*
X013664Y009002D01*
X013664Y008925D02*
X014705Y008925D01*
X014783Y008847D02*
X013664Y008847D01*
X013664Y008616D02*
X014557Y008616D01*
X014483Y008539D02*
X013664Y008539D01*
X013664Y008461D02*
X014483Y008461D01*
X014483Y008384D02*
X013668Y008384D01*
X013478Y008152D02*
X013338Y008152D01*
X013400Y008230D02*
X013260Y008230D01*
X013415Y008075D02*
X013555Y008075D01*
X013492Y007998D02*
X013632Y007998D01*
X013569Y007921D02*
X015209Y007921D01*
X015069Y009234D02*
X015424Y009234D01*
X015424Y009233D02*
X015605Y009233D01*
X015733Y009361D01*
X015733Y009542D01*
X015605Y009670D01*
X015424Y009670D01*
X015296Y009542D01*
X015296Y009361D01*
X015424Y009233D01*
X015346Y009311D02*
X014992Y009311D01*
X014914Y009388D02*
X015296Y009388D01*
X015296Y009465D02*
X014837Y009465D01*
X014760Y009543D02*
X015296Y009543D01*
X015374Y009620D02*
X014683Y009620D01*
X014605Y009697D02*
X018495Y009697D01*
X018418Y009774D02*
X014528Y009774D01*
X014536Y009852D02*
X018341Y009852D01*
X018264Y009929D02*
X014545Y009929D01*
X014545Y010006D02*
X018186Y010006D01*
X018573Y009620D02*
X015655Y009620D01*
X015732Y009543D02*
X018628Y009543D01*
X018628Y009465D02*
X015733Y009465D01*
X015733Y009388D02*
X018628Y009388D01*
X018628Y009311D02*
X015682Y009311D01*
X015605Y009234D02*
X018628Y009234D01*
X018628Y009156D02*
X018464Y009156D01*
X018560Y009079D02*
X018628Y009079D01*
X018628Y009002D02*
X018604Y009002D01*
X014108Y010042D02*
X014108Y010042D01*
X011382Y012401D02*
X011375Y012401D01*
D18*
X011202Y012264D03*
X011514Y012577D03*
X011452Y013077D03*
X010889Y013639D03*
X009952Y014077D03*
X009827Y013639D03*
X009202Y014077D03*
X008577Y014889D03*
X008577Y015264D03*
X008702Y015952D03*
X009202Y015952D03*
X009764Y016014D03*
X009702Y015577D03*
X010327Y015764D03*
X010952Y015764D03*
X011202Y015452D03*
X011639Y015452D03*
X012077Y015702D03*
X012077Y016077D03*
X012077Y016702D03*
X012202Y017452D03*
X011639Y017952D03*
X011139Y017827D03*
X010952Y016264D03*
X012389Y014889D03*
X012889Y014764D03*
X013202Y014702D03*
X012639Y014264D03*
X014077Y014764D03*
X013889Y015327D03*
X014827Y015452D03*
X015264Y015514D03*
X015264Y015952D03*
X015764Y015139D03*
X016202Y015139D03*
X016639Y015139D03*
X017077Y015139D03*
X017077Y015702D03*
X017952Y015702D03*
X017952Y015139D03*
X018452Y013639D03*
X018264Y013264D03*
X017639Y012577D03*
X017764Y012139D03*
X017764Y011327D03*
X016764Y012327D03*
X015952Y011452D03*
X015577Y011452D03*
X014639Y012077D03*
X014639Y012452D03*
X013952Y013077D03*
X013139Y013077D03*
X012702Y013014D03*
X012452Y012764D03*
X012452Y012264D03*
X013014Y012264D03*
X013639Y012264D03*
X013389Y011202D03*
X014014Y011014D03*
X014327Y009952D03*
X014014Y009827D03*
X013202Y009639D03*
X012577Y009639D03*
X012077Y009639D03*
X011764Y010077D03*
X011452Y009764D03*
X011389Y010514D03*
X011077Y010514D03*
X011202Y010889D03*
X011639Y010827D03*
X011202Y011264D03*
X009639Y010952D03*
X009139Y010952D03*
X008202Y010452D03*
X007327Y011202D03*
X008014Y011764D03*
X007139Y013764D03*
X007264Y015202D03*
X008014Y016389D03*
X008327Y017077D03*
X008389Y017889D03*
X010702Y014764D03*
X010952Y014514D03*
X014139Y014077D03*
X014764Y013702D03*
X015077Y013577D03*
X015264Y013264D03*
X016077Y013577D03*
X016514Y013577D03*
X014952Y014514D03*
X014889Y015014D03*
X015327Y015014D03*
X015827Y017139D03*
X016827Y017139D03*
X012577Y010077D03*
X010702Y009577D03*
X010264Y009077D03*
X010139Y008639D03*
X009764Y008639D03*
X009202Y009264D03*
X008827Y008264D03*
X008014Y009014D03*
X007327Y007827D03*
X008639Y007077D03*
X009202Y006827D03*
X010577Y006827D03*
X011202Y006639D03*
X010639Y006202D03*
X010827Y005514D03*
X011452Y005514D03*
X012327Y005514D03*
X012702Y005514D03*
X013202Y005514D03*
X014702Y006139D03*
X015514Y006139D03*
X015764Y006952D03*
X016389Y006952D03*
X016702Y006577D03*
X017077Y006577D03*
X015764Y007577D03*
X015952Y007889D03*
X014702Y008452D03*
X014639Y008827D03*
X015014Y009514D03*
X015514Y009452D03*
X016327Y009577D03*
X017702Y009702D03*
X017639Y008764D03*
X018889Y006702D03*
X019514Y006702D03*
X014452Y007702D03*
X014077Y007702D03*
X013514Y007327D03*
X013202Y007139D03*
X012639Y007889D03*
X012639Y008452D03*
X013014Y008452D03*
X011139Y007514D03*
X011014Y008764D03*
D19*
X010639Y008952D02*
X011014Y009327D01*
X011014Y009702D01*
X012827Y011452D01*
X015577Y011452D01*
X015014Y012514D02*
X016264Y012514D01*
X016577Y012827D01*
X018202Y012827D01*
X018577Y013202D01*
X018577Y013514D01*
X018452Y013639D01*
X018264Y013264D02*
X018014Y013014D01*
X016514Y013014D01*
X016202Y012702D01*
X015077Y012702D01*
X014889Y012889D01*
X014327Y012889D01*
X014139Y012702D01*
X013014Y012702D01*
X012702Y013014D01*
X012452Y012764D02*
X012702Y012514D01*
X014202Y012514D01*
X014389Y012702D01*
X014827Y012702D01*
X015014Y012514D01*
X015264Y013264D02*
X016639Y014639D01*
X016639Y015139D01*
X016202Y015139D02*
X016202Y014702D01*
X015077Y013577D01*
X014764Y013702D02*
X015764Y014702D01*
X015764Y015139D01*
X014827Y015452D02*
X014452Y015077D01*
X013514Y015077D01*
X013202Y014764D01*
X013202Y014702D01*
X012889Y014764D02*
X013452Y015327D01*
X013889Y015327D01*
X014952Y014514D02*
X014264Y013827D01*
X012827Y013827D01*
X011952Y012952D01*
X011952Y012389D01*
X011389Y011827D01*
X009577Y011827D01*
X008202Y010452D01*
X009764Y009889D02*
X011139Y011264D01*
X011202Y011264D01*
X011202Y010897D02*
X011022Y010897D01*
X009952Y009827D01*
X009952Y008827D01*
X010139Y008639D01*
X009764Y008639D02*
X009764Y009889D01*
X010639Y008952D02*
X010639Y007827D01*
X010952Y007514D01*
X011139Y007514D01*
X010639Y007827D02*
X009264Y007827D01*
X008827Y008264D01*
X011443Y009399D02*
X011568Y009274D01*
X011568Y006186D01*
X011961Y006186D02*
X011952Y009389D01*
X011827Y009514D01*
X011827Y009764D01*
X012014Y009952D01*
X012014Y010139D01*
X012827Y010952D01*
X013952Y010952D01*
X014014Y011014D01*
X013327Y010389D02*
X019202Y010389D01*
X019452Y010327D01*
X019227Y010327D01*
X018327Y010577D02*
X019014Y011264D01*
X019327Y011327D01*
X019227Y011327D01*
X018327Y011577D02*
X018327Y010952D01*
X018139Y010764D01*
X012889Y010764D01*
X012202Y010077D01*
X012202Y009764D01*
X012077Y009639D01*
X012577Y009639D02*
X013327Y010389D01*
X013389Y010202D02*
X018202Y010202D01*
X018264Y010139D01*
X019139Y009264D01*
X019227Y009327D01*
X018327Y010577D02*
X013077Y010577D01*
X012577Y010077D01*
X012889Y009702D02*
X013389Y010202D01*
X014014Y009827D02*
X015014Y008827D01*
X016389Y008827D01*
X016639Y008577D01*
X016639Y007139D01*
X017077Y006702D01*
X017077Y006577D01*
X017327Y006452D02*
X017327Y006702D01*
X016827Y007202D01*
X016827Y008639D01*
X016452Y009014D01*
X015077Y009014D01*
X014327Y009764D01*
X014327Y009952D01*
X013514Y009327D02*
X013202Y009639D01*
X012889Y009702D02*
X012889Y008702D01*
X012639Y008452D01*
X013014Y008452D02*
X013014Y008264D01*
X014077Y007202D01*
X015514Y007202D01*
X015764Y006952D01*
X015764Y007577D02*
X015264Y008077D01*
X013764Y008077D01*
X013514Y008327D01*
X013514Y009327D01*
X011443Y009399D02*
X011443Y009755D01*
X011452Y009764D01*
X011202Y010889D02*
X011194Y010889D01*
X011202Y010897D01*
X011202Y012264D02*
X010202Y013264D01*
X010202Y015639D01*
X010327Y015764D01*
X010577Y015639D02*
X010389Y015452D01*
X010389Y013327D01*
X011139Y012577D01*
X011514Y012577D01*
X009827Y013639D02*
X009702Y013764D01*
X009702Y015577D01*
X009764Y016014D02*
X010452Y016014D01*
X010577Y015889D01*
X010577Y015639D01*
X008827Y015014D02*
X008827Y014764D01*
X008702Y014639D01*
X008389Y014639D01*
X008255Y014774D01*
X007873Y014774D01*
X007873Y015167D02*
X008299Y015167D01*
X008577Y014889D01*
X008827Y015014D02*
X008577Y015264D01*
X007873Y014380D02*
X007318Y014380D01*
X007139Y014202D01*
X006389Y016077D02*
X006389Y011952D01*
X007827Y011952D01*
X008014Y011764D01*
X012389Y014889D02*
X012389Y017264D01*
X012202Y017452D01*
X017639Y012577D02*
X017702Y012639D01*
X018389Y012639D01*
X018952Y013202D01*
X019202Y013327D01*
X019227Y013327D01*
X019227Y012327D02*
X019077Y012327D01*
X018327Y011577D01*
X013514Y007327D02*
X013514Y005077D01*
X014014Y004577D01*
X014827Y004577D01*
X014867Y004617D01*
X014918Y004617D01*
X015680Y004617D01*
X015827Y004764D01*
X016077Y004764D01*
X016224Y004617D01*
X016985Y004617D01*
X016985Y005287D02*
X016224Y005287D01*
X016077Y005139D01*
X015827Y005139D01*
X015680Y005287D01*
X014918Y005287D01*
X014849Y005287D01*
X014827Y005264D01*
X014139Y005264D01*
X013952Y005452D01*
X013452Y004639D02*
X009702Y004639D01*
X009702Y005514D01*
X010827Y005514D01*
X016702Y006452D02*
X016889Y006264D01*
X017139Y006264D01*
X017327Y006452D01*
X016702Y006452D02*
X016702Y006577D01*
D20*
X017514Y005702D03*
X013952Y005452D03*
X011827Y005389D03*
X009077Y005389D03*
X007139Y014202D03*
X007139Y014702D03*
D21*
X017514Y015452D03*
X018514Y014327D03*
X018327Y008889D03*
X018077Y008139D03*
D22*
X018327Y008827D02*
X018889Y008264D01*
X019227Y008327D01*
X018327Y008827D02*
X018327Y008889D01*
X018514Y014327D02*
X019227Y014327D01*
M02*
