G75*
%MOIN*%
%OFA0B0*%
%FSLAX24Y24*%
%IPPOS*%
%LPD*%
%AMOC8*
5,1,8,0,0,1.08239X$1,22.5*
%
%ADD10C,0.0000*%
%ADD11C,0.0040*%
%ADD12C,0.0080*%
%ADD13C,0.0060*%
%ADD14C,0.0039*%
%ADD15C,0.0020*%
%ADD16C,0.0197*%
%ADD17C,0.0050*%
%ADD18C,0.0100*%
%ADD19C,0.0030*%
%ADD20R,0.1100X0.0250*%
%ADD21C,0.0295*%
%ADD22C,0.0098*%
%ADD23R,0.0060X0.0236*%
%ADD24R,0.0300X0.0180*%
%ADD25R,0.0236X0.0060*%
%ADD26R,0.0098X0.0098*%
D10*
X006957Y004150D02*
X018965Y004150D01*
X018374Y005232D02*
X018376Y005280D01*
X018382Y005328D01*
X018392Y005375D01*
X018405Y005421D01*
X018423Y005466D01*
X018443Y005510D01*
X018468Y005552D01*
X018496Y005591D01*
X018526Y005628D01*
X018560Y005662D01*
X018597Y005694D01*
X018635Y005723D01*
X018676Y005748D01*
X018719Y005770D01*
X018764Y005788D01*
X018810Y005802D01*
X018857Y005813D01*
X018905Y005820D01*
X018953Y005823D01*
X019001Y005822D01*
X019049Y005817D01*
X019097Y005808D01*
X019143Y005796D01*
X019188Y005779D01*
X019232Y005759D01*
X019274Y005736D01*
X019314Y005709D01*
X019352Y005679D01*
X019387Y005646D01*
X019419Y005610D01*
X019449Y005572D01*
X019475Y005531D01*
X019497Y005488D01*
X019517Y005444D01*
X019532Y005399D01*
X019544Y005352D01*
X019552Y005304D01*
X019556Y005256D01*
X019556Y005208D01*
X019552Y005160D01*
X019544Y005112D01*
X019532Y005065D01*
X019517Y005020D01*
X019497Y004976D01*
X019475Y004933D01*
X019449Y004892D01*
X019419Y004854D01*
X019387Y004818D01*
X019352Y004785D01*
X019314Y004755D01*
X019274Y004728D01*
X019232Y004705D01*
X019188Y004685D01*
X019143Y004668D01*
X019097Y004656D01*
X019049Y004647D01*
X019001Y004642D01*
X018953Y004641D01*
X018905Y004644D01*
X018857Y004651D01*
X018810Y004662D01*
X018764Y004676D01*
X018719Y004694D01*
X018676Y004716D01*
X018635Y004741D01*
X018597Y004770D01*
X018560Y004802D01*
X018526Y004836D01*
X018496Y004873D01*
X018468Y004912D01*
X018443Y004954D01*
X018423Y004998D01*
X018405Y005043D01*
X018392Y005089D01*
X018382Y005136D01*
X018376Y005184D01*
X018374Y005232D01*
X018965Y004149D02*
X019028Y004151D01*
X019091Y004156D01*
X019153Y004165D01*
X019215Y004178D01*
X019276Y004194D01*
X019335Y004214D01*
X019394Y004238D01*
X019451Y004264D01*
X019507Y004294D01*
X019560Y004327D01*
X019612Y004363D01*
X019661Y004402D01*
X019708Y004444D01*
X019753Y004489D01*
X019795Y004536D01*
X019834Y004585D01*
X019870Y004637D01*
X019903Y004691D01*
X019933Y004746D01*
X019959Y004803D01*
X019983Y004862D01*
X020003Y004921D01*
X020019Y004982D01*
X020032Y005044D01*
X020041Y005106D01*
X020046Y005169D01*
X020048Y005232D01*
X020047Y005232D02*
X020047Y017240D01*
X018374Y017240D02*
X018376Y017288D01*
X018382Y017336D01*
X018392Y017383D01*
X018405Y017429D01*
X018423Y017474D01*
X018443Y017518D01*
X018468Y017560D01*
X018496Y017599D01*
X018526Y017636D01*
X018560Y017670D01*
X018597Y017702D01*
X018635Y017731D01*
X018676Y017756D01*
X018719Y017778D01*
X018764Y017796D01*
X018810Y017810D01*
X018857Y017821D01*
X018905Y017828D01*
X018953Y017831D01*
X019001Y017830D01*
X019049Y017825D01*
X019097Y017816D01*
X019143Y017804D01*
X019188Y017787D01*
X019232Y017767D01*
X019274Y017744D01*
X019314Y017717D01*
X019352Y017687D01*
X019387Y017654D01*
X019419Y017618D01*
X019449Y017580D01*
X019475Y017539D01*
X019497Y017496D01*
X019517Y017452D01*
X019532Y017407D01*
X019544Y017360D01*
X019552Y017312D01*
X019556Y017264D01*
X019556Y017216D01*
X019552Y017168D01*
X019544Y017120D01*
X019532Y017073D01*
X019517Y017028D01*
X019497Y016984D01*
X019475Y016941D01*
X019449Y016900D01*
X019419Y016862D01*
X019387Y016826D01*
X019352Y016793D01*
X019314Y016763D01*
X019274Y016736D01*
X019232Y016713D01*
X019188Y016693D01*
X019143Y016676D01*
X019097Y016664D01*
X019049Y016655D01*
X019001Y016650D01*
X018953Y016649D01*
X018905Y016652D01*
X018857Y016659D01*
X018810Y016670D01*
X018764Y016684D01*
X018719Y016702D01*
X018676Y016724D01*
X018635Y016749D01*
X018597Y016778D01*
X018560Y016810D01*
X018526Y016844D01*
X018496Y016881D01*
X018468Y016920D01*
X018443Y016962D01*
X018423Y017006D01*
X018405Y017051D01*
X018392Y017097D01*
X018382Y017144D01*
X018376Y017192D01*
X018374Y017240D01*
X018965Y018323D02*
X019028Y018321D01*
X019091Y018316D01*
X019153Y018307D01*
X019215Y018294D01*
X019276Y018278D01*
X019335Y018258D01*
X019394Y018234D01*
X019451Y018208D01*
X019507Y018178D01*
X019560Y018145D01*
X019612Y018109D01*
X019661Y018070D01*
X019708Y018028D01*
X019753Y017983D01*
X019795Y017936D01*
X019834Y017887D01*
X019870Y017835D01*
X019903Y017782D01*
X019933Y017726D01*
X019959Y017669D01*
X019983Y017610D01*
X020003Y017551D01*
X020019Y017490D01*
X020032Y017428D01*
X020041Y017366D01*
X020046Y017303D01*
X020048Y017240D01*
X018965Y018323D02*
X006957Y018323D01*
X006366Y017240D02*
X006368Y017288D01*
X006374Y017336D01*
X006384Y017383D01*
X006397Y017429D01*
X006415Y017474D01*
X006435Y017518D01*
X006460Y017560D01*
X006488Y017599D01*
X006518Y017636D01*
X006552Y017670D01*
X006589Y017702D01*
X006627Y017731D01*
X006668Y017756D01*
X006711Y017778D01*
X006756Y017796D01*
X006802Y017810D01*
X006849Y017821D01*
X006897Y017828D01*
X006945Y017831D01*
X006993Y017830D01*
X007041Y017825D01*
X007089Y017816D01*
X007135Y017804D01*
X007180Y017787D01*
X007224Y017767D01*
X007266Y017744D01*
X007306Y017717D01*
X007344Y017687D01*
X007379Y017654D01*
X007411Y017618D01*
X007441Y017580D01*
X007467Y017539D01*
X007489Y017496D01*
X007509Y017452D01*
X007524Y017407D01*
X007536Y017360D01*
X007544Y017312D01*
X007548Y017264D01*
X007548Y017216D01*
X007544Y017168D01*
X007536Y017120D01*
X007524Y017073D01*
X007509Y017028D01*
X007489Y016984D01*
X007467Y016941D01*
X007441Y016900D01*
X007411Y016862D01*
X007379Y016826D01*
X007344Y016793D01*
X007306Y016763D01*
X007266Y016736D01*
X007224Y016713D01*
X007180Y016693D01*
X007135Y016676D01*
X007089Y016664D01*
X007041Y016655D01*
X006993Y016650D01*
X006945Y016649D01*
X006897Y016652D01*
X006849Y016659D01*
X006802Y016670D01*
X006756Y016684D01*
X006711Y016702D01*
X006668Y016724D01*
X006627Y016749D01*
X006589Y016778D01*
X006552Y016810D01*
X006518Y016844D01*
X006488Y016881D01*
X006460Y016920D01*
X006435Y016962D01*
X006415Y017006D01*
X006397Y017051D01*
X006384Y017097D01*
X006374Y017144D01*
X006368Y017192D01*
X006366Y017240D01*
X005874Y017240D02*
X005874Y005232D01*
X006366Y005232D02*
X006368Y005280D01*
X006374Y005328D01*
X006384Y005375D01*
X006397Y005421D01*
X006415Y005466D01*
X006435Y005510D01*
X006460Y005552D01*
X006488Y005591D01*
X006518Y005628D01*
X006552Y005662D01*
X006589Y005694D01*
X006627Y005723D01*
X006668Y005748D01*
X006711Y005770D01*
X006756Y005788D01*
X006802Y005802D01*
X006849Y005813D01*
X006897Y005820D01*
X006945Y005823D01*
X006993Y005822D01*
X007041Y005817D01*
X007089Y005808D01*
X007135Y005796D01*
X007180Y005779D01*
X007224Y005759D01*
X007266Y005736D01*
X007306Y005709D01*
X007344Y005679D01*
X007379Y005646D01*
X007411Y005610D01*
X007441Y005572D01*
X007467Y005531D01*
X007489Y005488D01*
X007509Y005444D01*
X007524Y005399D01*
X007536Y005352D01*
X007544Y005304D01*
X007548Y005256D01*
X007548Y005208D01*
X007544Y005160D01*
X007536Y005112D01*
X007524Y005065D01*
X007509Y005020D01*
X007489Y004976D01*
X007467Y004933D01*
X007441Y004892D01*
X007411Y004854D01*
X007379Y004818D01*
X007344Y004785D01*
X007306Y004755D01*
X007266Y004728D01*
X007224Y004705D01*
X007180Y004685D01*
X007135Y004668D01*
X007089Y004656D01*
X007041Y004647D01*
X006993Y004642D01*
X006945Y004641D01*
X006897Y004644D01*
X006849Y004651D01*
X006802Y004662D01*
X006756Y004676D01*
X006711Y004694D01*
X006668Y004716D01*
X006627Y004741D01*
X006589Y004770D01*
X006552Y004802D01*
X006518Y004836D01*
X006488Y004873D01*
X006460Y004912D01*
X006435Y004954D01*
X006415Y004998D01*
X006397Y005043D01*
X006384Y005089D01*
X006374Y005136D01*
X006368Y005184D01*
X006366Y005232D01*
X005874Y005232D02*
X005876Y005169D01*
X005881Y005106D01*
X005890Y005044D01*
X005903Y004982D01*
X005919Y004921D01*
X005939Y004862D01*
X005963Y004803D01*
X005989Y004746D01*
X006019Y004691D01*
X006052Y004637D01*
X006088Y004585D01*
X006127Y004536D01*
X006169Y004489D01*
X006214Y004444D01*
X006261Y004402D01*
X006310Y004363D01*
X006362Y004327D01*
X006415Y004294D01*
X006471Y004264D01*
X006528Y004238D01*
X006587Y004214D01*
X006646Y004194D01*
X006707Y004178D01*
X006769Y004165D01*
X006831Y004156D01*
X006894Y004151D01*
X006957Y004149D01*
X015804Y004411D02*
X015806Y004435D01*
X015812Y004458D01*
X015821Y004480D01*
X015834Y004500D01*
X015849Y004518D01*
X015868Y004533D01*
X015889Y004545D01*
X015911Y004553D01*
X015934Y004558D01*
X015958Y004559D01*
X015982Y004556D01*
X016004Y004549D01*
X016026Y004539D01*
X016046Y004526D01*
X016063Y004509D01*
X016077Y004490D01*
X016088Y004469D01*
X016096Y004446D01*
X016100Y004423D01*
X016100Y004399D01*
X016096Y004376D01*
X016088Y004353D01*
X016077Y004332D01*
X016063Y004313D01*
X016046Y004296D01*
X016026Y004283D01*
X016004Y004273D01*
X015982Y004266D01*
X015958Y004263D01*
X015934Y004264D01*
X015911Y004269D01*
X015889Y004277D01*
X015868Y004289D01*
X015849Y004304D01*
X015834Y004322D01*
X015821Y004342D01*
X015812Y004364D01*
X015806Y004387D01*
X015804Y004411D01*
X015804Y005493D02*
X015806Y005517D01*
X015812Y005540D01*
X015821Y005562D01*
X015834Y005582D01*
X015849Y005600D01*
X015868Y005615D01*
X015889Y005627D01*
X015911Y005635D01*
X015934Y005640D01*
X015958Y005641D01*
X015982Y005638D01*
X016004Y005631D01*
X016026Y005621D01*
X016046Y005608D01*
X016063Y005591D01*
X016077Y005572D01*
X016088Y005551D01*
X016096Y005528D01*
X016100Y005505D01*
X016100Y005481D01*
X016096Y005458D01*
X016088Y005435D01*
X016077Y005414D01*
X016063Y005395D01*
X016046Y005378D01*
X016026Y005365D01*
X016004Y005355D01*
X015982Y005348D01*
X015958Y005345D01*
X015934Y005346D01*
X015911Y005351D01*
X015889Y005359D01*
X015868Y005371D01*
X015849Y005386D01*
X015834Y005404D01*
X015821Y005424D01*
X015812Y005446D01*
X015806Y005469D01*
X015804Y005493D01*
X005874Y017240D02*
X005876Y017303D01*
X005881Y017366D01*
X005890Y017428D01*
X005903Y017490D01*
X005919Y017551D01*
X005939Y017610D01*
X005963Y017669D01*
X005989Y017726D01*
X006019Y017782D01*
X006052Y017835D01*
X006088Y017887D01*
X006127Y017936D01*
X006169Y017983D01*
X006214Y018028D01*
X006261Y018070D01*
X006310Y018109D01*
X006362Y018145D01*
X006416Y018178D01*
X006471Y018208D01*
X006528Y018234D01*
X006587Y018258D01*
X006646Y018278D01*
X006707Y018294D01*
X006769Y018307D01*
X006831Y018316D01*
X006894Y018321D01*
X006957Y018323D01*
D11*
X009252Y015523D02*
X009902Y015523D01*
X009902Y014381D01*
X009252Y014381D01*
X016640Y011443D02*
X017388Y011443D01*
X017721Y011390D02*
X017798Y011466D01*
X017875Y011466D01*
X017952Y011390D01*
X018028Y011466D01*
X018105Y011466D01*
X018182Y011390D01*
X018182Y011236D01*
X018105Y011159D01*
X017952Y011313D02*
X017952Y011390D01*
X017721Y011390D02*
X017721Y011236D01*
X017798Y011159D01*
X017952Y010466D02*
X017952Y010159D01*
X017721Y010390D01*
X018182Y010390D01*
X017388Y009711D02*
X016640Y009711D01*
X017721Y009466D02*
X017721Y009159D01*
X017952Y009159D01*
X017875Y009313D01*
X017875Y009390D01*
X017952Y009466D01*
X018105Y009466D01*
X018182Y009390D01*
X018182Y009236D01*
X018105Y009159D01*
X018261Y008557D02*
X018261Y008250D01*
X018415Y008097D01*
X018568Y008250D01*
X018568Y008557D01*
X018492Y007557D02*
X018338Y007557D01*
X018261Y007481D01*
X018261Y007174D01*
X018338Y007097D01*
X018492Y007097D01*
X018568Y007174D01*
X018568Y007327D01*
X018415Y007327D01*
X018568Y007481D02*
X018492Y007557D01*
X018182Y012159D02*
X017875Y012466D01*
X017798Y012466D01*
X017721Y012390D01*
X017721Y012236D01*
X017798Y012159D01*
X018182Y012159D02*
X018182Y012466D01*
X018182Y013159D02*
X018182Y013466D01*
X018182Y013313D02*
X017721Y013313D01*
X017875Y013159D01*
X018415Y014159D02*
X018568Y014313D01*
X018568Y014620D01*
X018261Y014620D02*
X018261Y014313D01*
X018415Y014159D01*
X018492Y015097D02*
X018568Y015174D01*
X018568Y015327D01*
X018415Y015327D01*
X018261Y015174D02*
X018338Y015097D01*
X018492Y015097D01*
X018261Y015174D02*
X018261Y015481D01*
X018338Y015557D01*
X018492Y015557D01*
X018568Y015481D01*
D12*
X014114Y015927D02*
X013976Y015789D01*
X012677Y015789D02*
X012539Y015789D01*
X012539Y015927D01*
X012539Y017226D02*
X012539Y017364D01*
X012677Y017364D01*
X013976Y017364D02*
X014114Y017364D01*
X014114Y017226D01*
X010660Y017444D02*
X010463Y017641D01*
X010660Y016460D02*
X010660Y016263D01*
X010463Y016263D01*
X008691Y016263D02*
X008494Y016263D01*
X008494Y016460D01*
X008494Y017444D02*
X008494Y017641D01*
X008691Y017641D01*
D13*
X010514Y017885D02*
X010514Y017893D01*
X011010Y016889D02*
X011018Y016889D01*
X010706Y015327D02*
X010698Y015327D01*
X010889Y014018D02*
X010889Y014010D01*
X012327Y015323D02*
X012327Y015331D01*
X014202Y014393D02*
X014202Y014385D01*
X016954Y014392D02*
X016954Y014712D01*
X017174Y014712D01*
X017854Y014712D02*
X018074Y014712D01*
X018074Y014392D01*
X015831Y012139D02*
X015823Y012139D01*
X017202Y011706D02*
X017202Y011698D01*
X015764Y009893D02*
X015764Y009885D01*
X016702Y009206D02*
X016702Y009198D01*
X016634Y008354D02*
X016894Y008354D01*
X017364Y008224D02*
X017364Y007804D01*
X017635Y008202D02*
X017643Y008202D01*
X016164Y008224D02*
X016164Y008134D01*
X016164Y007894D01*
X016164Y007804D01*
X016164Y007894D02*
X016185Y007896D01*
X016205Y007901D01*
X016224Y007910D01*
X016241Y007922D01*
X016256Y007937D01*
X016268Y007954D01*
X016277Y007973D01*
X016282Y007993D01*
X016284Y008014D01*
X016282Y008035D01*
X016277Y008055D01*
X016268Y008074D01*
X016256Y008091D01*
X016241Y008106D01*
X016224Y008118D01*
X016205Y008127D01*
X016185Y008132D01*
X016164Y008134D01*
X015081Y008702D02*
X015073Y008702D01*
X014456Y008202D02*
X014448Y008202D01*
X010522Y008509D02*
X010072Y008509D01*
X009832Y008509D01*
X009382Y008509D01*
X009832Y008509D02*
X009834Y008488D01*
X009839Y008468D01*
X009848Y008449D01*
X009860Y008432D01*
X009875Y008417D01*
X009892Y008405D01*
X009911Y008396D01*
X009931Y008391D01*
X009952Y008389D01*
X009973Y008391D01*
X009993Y008396D01*
X010012Y008405D01*
X010029Y008417D01*
X010044Y008432D01*
X010056Y008449D01*
X010065Y008468D01*
X010070Y008488D01*
X010072Y008509D01*
X009764Y009448D02*
X009764Y009456D01*
X009382Y007269D02*
X010522Y007269D01*
D14*
X013721Y016538D02*
X013681Y016616D01*
X013760Y016616D01*
X013721Y016538D01*
X013721Y016892D01*
X013665Y016892D02*
X013667Y016906D01*
X013673Y016920D01*
X013681Y016932D01*
X013693Y016940D01*
X013707Y016946D01*
X013721Y016948D01*
X013735Y016946D01*
X013749Y016940D01*
X013761Y016932D01*
X013769Y016920D01*
X013775Y016906D01*
X013777Y016892D01*
X013775Y016878D01*
X013769Y016864D01*
X013761Y016852D01*
X013749Y016844D01*
X013735Y016838D01*
X013721Y016836D01*
X013707Y016838D01*
X013693Y016844D01*
X013681Y016852D01*
X013673Y016864D01*
X013667Y016878D01*
X013665Y016892D01*
X013721Y016892D02*
X013366Y016892D01*
X013445Y016852D01*
X013445Y016931D01*
X013366Y016892D01*
D15*
X013245Y016941D02*
X013179Y017039D01*
X013245Y017039D02*
X013179Y016941D01*
X013770Y017020D02*
X013835Y017020D01*
X013770Y017020D02*
X013770Y017036D01*
X013835Y017102D01*
X013835Y017118D01*
X013770Y017118D01*
X013796Y016449D02*
X013796Y016432D01*
X013763Y016400D01*
X013763Y016351D01*
X013763Y016400D02*
X013731Y016432D01*
X013731Y016449D01*
D16*
X012452Y017869D02*
X012452Y017909D01*
X011659Y017327D02*
X011619Y017327D01*
X011472Y014577D02*
X011432Y014577D01*
X016369Y012077D02*
X016409Y012077D01*
X009702Y010034D02*
X009702Y009994D01*
D17*
X010858Y009358D02*
X010858Y013295D01*
X014795Y013295D01*
X014795Y009358D01*
X010858Y009358D01*
X007770Y008136D02*
X007770Y008038D01*
X006963Y008038D01*
X005979Y008038D02*
X005632Y008038D01*
X005632Y010991D01*
X005979Y010991D01*
X006963Y010991D02*
X007770Y010991D01*
X007770Y010892D01*
X014450Y009587D02*
X014452Y009609D01*
X014458Y009630D01*
X014467Y009649D01*
X014480Y009667D01*
X014496Y009682D01*
X014514Y009694D01*
X014534Y009702D01*
X014555Y009707D01*
X014576Y009708D01*
X014598Y009705D01*
X014619Y009698D01*
X014638Y009688D01*
X014655Y009674D01*
X014669Y009658D01*
X014680Y009639D01*
X014688Y009619D01*
X014692Y009598D01*
X014692Y009576D01*
X014688Y009555D01*
X014680Y009535D01*
X014669Y009516D01*
X014655Y009500D01*
X014638Y009486D01*
X014619Y009476D01*
X014598Y009469D01*
X014576Y009466D01*
X014555Y009467D01*
X014534Y009472D01*
X014514Y009480D01*
X014496Y009492D01*
X014480Y009507D01*
X014467Y009525D01*
X014458Y009544D01*
X014452Y009565D01*
X014450Y009587D01*
D18*
X014724Y006008D02*
X014870Y006008D01*
X014870Y005211D01*
X015383Y005211D02*
X015383Y006008D01*
X015530Y006008D01*
X017499Y006008D02*
X017645Y006008D01*
X017645Y005211D01*
X017105Y004434D02*
X015924Y004434D01*
X014330Y004434D02*
X011574Y004434D01*
X011033Y005211D02*
X011033Y006008D01*
X011180Y006008D01*
X010520Y006008D02*
X010374Y006008D01*
X010520Y006008D02*
X010520Y005211D01*
X009980Y004434D02*
X008799Y004434D01*
X008258Y005211D02*
X008258Y006008D01*
X008405Y006008D01*
X007695Y011908D02*
X006899Y011908D01*
X006122Y012449D02*
X006122Y015205D01*
X006899Y015745D02*
X007695Y015745D01*
X007695Y015599D01*
X007695Y012055D02*
X007695Y011908D01*
X015258Y016521D02*
X015258Y017318D01*
X015258Y016521D02*
X015405Y016521D01*
X017374Y016521D02*
X017520Y016521D01*
X017520Y017318D01*
X016980Y018094D02*
X015799Y018094D01*
D19*
X009280Y008766D02*
X008967Y008453D01*
X008967Y008610D02*
X009280Y008610D01*
X009280Y008453D02*
X008967Y008766D01*
X009124Y008766D02*
X009124Y008453D01*
X015817Y007503D02*
X016131Y007189D01*
X015974Y007189D02*
X015974Y007503D01*
X016131Y007503D02*
X015817Y007189D01*
X015817Y007346D02*
X016131Y007346D01*
D20*
X019527Y007327D03*
X019527Y008327D03*
X019527Y009327D03*
X019527Y010327D03*
X019527Y011327D03*
X019527Y012327D03*
X019527Y013327D03*
X019527Y014327D03*
X019527Y015327D03*
D21*
X015722Y008702D02*
X015682Y008702D01*
X017807Y007139D02*
X017847Y007139D01*
D22*
X009784Y014499D03*
D23*
X012077Y014514D03*
X012202Y014139D03*
X017202Y012139D03*
X013139Y007577D03*
X014264Y007327D03*
X014264Y006827D03*
X008139Y007077D03*
D24*
X011639Y016202D03*
D25*
X015764Y015639D03*
X016202Y015639D03*
X016639Y015639D03*
X008764Y011014D03*
X008202Y011014D03*
X008577Y010014D03*
X009014Y010014D03*
X008452Y008077D03*
X013577Y008202D03*
X014014Y008202D03*
D26*
X015189Y007514D03*
X015189Y006827D03*
X006840Y007077D03*
M02*
