G75*
%MOIN*%
%OFA0B0*%
%FSLAX24Y24*%
%IPPOS*%
%LPD*%
%AMOC8*
5,1,8,0,0,1.08239X$1,22.5*
%
%ADD10C,0.0000*%
%ADD11R,0.0310X0.0120*%
%ADD12R,0.0610X0.0940*%
%ADD13R,0.0276X0.0354*%
%ADD14R,0.0354X0.0276*%
%ADD15R,0.1280X0.0984*%
%ADD16R,0.1000X0.1000*%
%ADD17R,0.0291X0.0364*%
%ADD18R,0.1024X0.0866*%
%ADD19R,0.0600X0.0600*%
%ADD20OC8,0.0600*%
%ADD21C,0.0160*%
%ADD22C,0.0278*%
%ADD23C,0.0100*%
%ADD24C,0.0120*%
%ADD25C,0.0320*%
%ADD26C,0.0070*%
%ADD27C,0.0500*%
%ADD28C,0.0357*%
D10*
X005626Y001648D02*
X005626Y013656D01*
X006118Y013656D02*
X006120Y013704D01*
X006126Y013752D01*
X006136Y013799D01*
X006149Y013845D01*
X006167Y013890D01*
X006187Y013934D01*
X006212Y013976D01*
X006240Y014015D01*
X006270Y014052D01*
X006304Y014086D01*
X006341Y014118D01*
X006379Y014147D01*
X006420Y014172D01*
X006463Y014194D01*
X006508Y014212D01*
X006554Y014226D01*
X006601Y014237D01*
X006649Y014244D01*
X006697Y014247D01*
X006745Y014246D01*
X006793Y014241D01*
X006841Y014232D01*
X006887Y014220D01*
X006932Y014203D01*
X006976Y014183D01*
X007018Y014160D01*
X007058Y014133D01*
X007096Y014103D01*
X007131Y014070D01*
X007163Y014034D01*
X007193Y013996D01*
X007219Y013955D01*
X007241Y013912D01*
X007261Y013868D01*
X007276Y013823D01*
X007288Y013776D01*
X007296Y013728D01*
X007300Y013680D01*
X007300Y013632D01*
X007296Y013584D01*
X007288Y013536D01*
X007276Y013489D01*
X007261Y013444D01*
X007241Y013400D01*
X007219Y013357D01*
X007193Y013316D01*
X007163Y013278D01*
X007131Y013242D01*
X007096Y013209D01*
X007058Y013179D01*
X007018Y013152D01*
X006976Y013129D01*
X006932Y013109D01*
X006887Y013092D01*
X006841Y013080D01*
X006793Y013071D01*
X006745Y013066D01*
X006697Y013065D01*
X006649Y013068D01*
X006601Y013075D01*
X006554Y013086D01*
X006508Y013100D01*
X006463Y013118D01*
X006420Y013140D01*
X006379Y013165D01*
X006341Y013194D01*
X006304Y013226D01*
X006270Y013260D01*
X006240Y013297D01*
X006212Y013336D01*
X006187Y013378D01*
X006167Y013422D01*
X006149Y013467D01*
X006136Y013513D01*
X006126Y013560D01*
X006120Y013608D01*
X006118Y013656D01*
X005626Y013656D02*
X005628Y013719D01*
X005633Y013782D01*
X005642Y013844D01*
X005655Y013906D01*
X005671Y013967D01*
X005691Y014026D01*
X005715Y014085D01*
X005741Y014142D01*
X005771Y014198D01*
X005804Y014251D01*
X005840Y014303D01*
X005879Y014352D01*
X005921Y014399D01*
X005966Y014444D01*
X006013Y014486D01*
X006062Y014525D01*
X006114Y014561D01*
X006168Y014594D01*
X006223Y014624D01*
X006280Y014650D01*
X006339Y014674D01*
X006398Y014694D01*
X006459Y014710D01*
X006521Y014723D01*
X006583Y014732D01*
X006646Y014737D01*
X006709Y014739D01*
X018716Y014739D01*
X018125Y013656D02*
X018127Y013704D01*
X018133Y013752D01*
X018143Y013799D01*
X018156Y013845D01*
X018174Y013890D01*
X018194Y013934D01*
X018219Y013976D01*
X018247Y014015D01*
X018277Y014052D01*
X018311Y014086D01*
X018348Y014118D01*
X018386Y014147D01*
X018427Y014172D01*
X018470Y014194D01*
X018515Y014212D01*
X018561Y014226D01*
X018608Y014237D01*
X018656Y014244D01*
X018704Y014247D01*
X018752Y014246D01*
X018800Y014241D01*
X018848Y014232D01*
X018894Y014220D01*
X018939Y014203D01*
X018983Y014183D01*
X019025Y014160D01*
X019065Y014133D01*
X019103Y014103D01*
X019138Y014070D01*
X019170Y014034D01*
X019200Y013996D01*
X019226Y013955D01*
X019248Y013912D01*
X019268Y013868D01*
X019283Y013823D01*
X019295Y013776D01*
X019303Y013728D01*
X019307Y013680D01*
X019307Y013632D01*
X019303Y013584D01*
X019295Y013536D01*
X019283Y013489D01*
X019268Y013444D01*
X019248Y013400D01*
X019226Y013357D01*
X019200Y013316D01*
X019170Y013278D01*
X019138Y013242D01*
X019103Y013209D01*
X019065Y013179D01*
X019025Y013152D01*
X018983Y013129D01*
X018939Y013109D01*
X018894Y013092D01*
X018848Y013080D01*
X018800Y013071D01*
X018752Y013066D01*
X018704Y013065D01*
X018656Y013068D01*
X018608Y013075D01*
X018561Y013086D01*
X018515Y013100D01*
X018470Y013118D01*
X018427Y013140D01*
X018386Y013165D01*
X018348Y013194D01*
X018311Y013226D01*
X018277Y013260D01*
X018247Y013297D01*
X018219Y013336D01*
X018194Y013378D01*
X018174Y013422D01*
X018156Y013467D01*
X018143Y013513D01*
X018133Y013560D01*
X018127Y013608D01*
X018125Y013656D01*
X018716Y014739D02*
X018779Y014737D01*
X018842Y014732D01*
X018904Y014723D01*
X018966Y014710D01*
X019027Y014694D01*
X019086Y014674D01*
X019145Y014650D01*
X019202Y014624D01*
X019258Y014594D01*
X019311Y014561D01*
X019363Y014525D01*
X019412Y014486D01*
X019459Y014444D01*
X019504Y014399D01*
X019546Y014352D01*
X019585Y014303D01*
X019621Y014251D01*
X019654Y014198D01*
X019684Y014142D01*
X019710Y014085D01*
X019734Y014026D01*
X019754Y013967D01*
X019770Y013906D01*
X019783Y013844D01*
X019792Y013782D01*
X019797Y013719D01*
X019799Y013656D01*
X019799Y001648D01*
X018125Y001648D02*
X018127Y001696D01*
X018133Y001744D01*
X018143Y001791D01*
X018156Y001837D01*
X018174Y001882D01*
X018194Y001926D01*
X018219Y001968D01*
X018247Y002007D01*
X018277Y002044D01*
X018311Y002078D01*
X018348Y002110D01*
X018386Y002139D01*
X018427Y002164D01*
X018470Y002186D01*
X018515Y002204D01*
X018561Y002218D01*
X018608Y002229D01*
X018656Y002236D01*
X018704Y002239D01*
X018752Y002238D01*
X018800Y002233D01*
X018848Y002224D01*
X018894Y002212D01*
X018939Y002195D01*
X018983Y002175D01*
X019025Y002152D01*
X019065Y002125D01*
X019103Y002095D01*
X019138Y002062D01*
X019170Y002026D01*
X019200Y001988D01*
X019226Y001947D01*
X019248Y001904D01*
X019268Y001860D01*
X019283Y001815D01*
X019295Y001768D01*
X019303Y001720D01*
X019307Y001672D01*
X019307Y001624D01*
X019303Y001576D01*
X019295Y001528D01*
X019283Y001481D01*
X019268Y001436D01*
X019248Y001392D01*
X019226Y001349D01*
X019200Y001308D01*
X019170Y001270D01*
X019138Y001234D01*
X019103Y001201D01*
X019065Y001171D01*
X019025Y001144D01*
X018983Y001121D01*
X018939Y001101D01*
X018894Y001084D01*
X018848Y001072D01*
X018800Y001063D01*
X018752Y001058D01*
X018704Y001057D01*
X018656Y001060D01*
X018608Y001067D01*
X018561Y001078D01*
X018515Y001092D01*
X018470Y001110D01*
X018427Y001132D01*
X018386Y001157D01*
X018348Y001186D01*
X018311Y001218D01*
X018277Y001252D01*
X018247Y001289D01*
X018219Y001328D01*
X018194Y001370D01*
X018174Y001414D01*
X018156Y001459D01*
X018143Y001505D01*
X018133Y001552D01*
X018127Y001600D01*
X018125Y001648D01*
X018716Y000565D02*
X018779Y000567D01*
X018842Y000572D01*
X018904Y000581D01*
X018966Y000594D01*
X019027Y000610D01*
X019086Y000630D01*
X019145Y000654D01*
X019202Y000680D01*
X019258Y000710D01*
X019311Y000743D01*
X019363Y000779D01*
X019412Y000818D01*
X019459Y000860D01*
X019504Y000905D01*
X019546Y000952D01*
X019585Y001001D01*
X019621Y001053D01*
X019654Y001107D01*
X019684Y001162D01*
X019710Y001219D01*
X019734Y001278D01*
X019754Y001337D01*
X019770Y001398D01*
X019783Y001460D01*
X019792Y001522D01*
X019797Y001585D01*
X019799Y001648D01*
X018716Y000566D02*
X006709Y000566D01*
X006118Y001648D02*
X006120Y001696D01*
X006126Y001744D01*
X006136Y001791D01*
X006149Y001837D01*
X006167Y001882D01*
X006187Y001926D01*
X006212Y001968D01*
X006240Y002007D01*
X006270Y002044D01*
X006304Y002078D01*
X006341Y002110D01*
X006379Y002139D01*
X006420Y002164D01*
X006463Y002186D01*
X006508Y002204D01*
X006554Y002218D01*
X006601Y002229D01*
X006649Y002236D01*
X006697Y002239D01*
X006745Y002238D01*
X006793Y002233D01*
X006841Y002224D01*
X006887Y002212D01*
X006932Y002195D01*
X006976Y002175D01*
X007018Y002152D01*
X007058Y002125D01*
X007096Y002095D01*
X007131Y002062D01*
X007163Y002026D01*
X007193Y001988D01*
X007219Y001947D01*
X007241Y001904D01*
X007261Y001860D01*
X007276Y001815D01*
X007288Y001768D01*
X007296Y001720D01*
X007300Y001672D01*
X007300Y001624D01*
X007296Y001576D01*
X007288Y001528D01*
X007276Y001481D01*
X007261Y001436D01*
X007241Y001392D01*
X007219Y001349D01*
X007193Y001308D01*
X007163Y001270D01*
X007131Y001234D01*
X007096Y001201D01*
X007058Y001171D01*
X007018Y001144D01*
X006976Y001121D01*
X006932Y001101D01*
X006887Y001084D01*
X006841Y001072D01*
X006793Y001063D01*
X006745Y001058D01*
X006697Y001057D01*
X006649Y001060D01*
X006601Y001067D01*
X006554Y001078D01*
X006508Y001092D01*
X006463Y001110D01*
X006420Y001132D01*
X006379Y001157D01*
X006341Y001186D01*
X006304Y001218D01*
X006270Y001252D01*
X006240Y001289D01*
X006212Y001328D01*
X006187Y001370D01*
X006167Y001414D01*
X006149Y001459D01*
X006136Y001505D01*
X006126Y001552D01*
X006120Y001600D01*
X006118Y001648D01*
X005626Y001648D02*
X005628Y001585D01*
X005633Y001522D01*
X005642Y001460D01*
X005655Y001398D01*
X005671Y001337D01*
X005691Y001278D01*
X005715Y001219D01*
X005741Y001162D01*
X005771Y001107D01*
X005804Y001053D01*
X005840Y001001D01*
X005879Y000952D01*
X005921Y000905D01*
X005966Y000860D01*
X006013Y000818D01*
X006062Y000779D01*
X006114Y000743D01*
X006167Y000710D01*
X006223Y000680D01*
X006280Y000654D01*
X006339Y000630D01*
X006398Y000610D01*
X006459Y000594D01*
X006521Y000581D01*
X006583Y000572D01*
X006646Y000567D01*
X006709Y000565D01*
D11*
X014052Y002686D03*
X014052Y002876D03*
X014052Y003076D03*
X014052Y003276D03*
X014052Y003466D03*
X015212Y003466D03*
X015212Y003276D03*
X015212Y003076D03*
X015212Y002876D03*
X015212Y002686D03*
X011422Y011839D03*
X011422Y012029D03*
X011422Y012229D03*
X011422Y012429D03*
X011422Y012619D03*
X010262Y012619D03*
X010262Y012429D03*
X010262Y012229D03*
X010262Y012029D03*
X010262Y011839D03*
D12*
X010842Y012229D03*
X014632Y003076D03*
D13*
X014691Y004847D03*
X014179Y004847D03*
X011295Y010507D03*
X010783Y010507D03*
D14*
X010252Y010743D03*
X010252Y011255D03*
X009612Y011432D03*
X009612Y011944D03*
X011827Y011304D03*
X011827Y010792D03*
X015222Y004611D03*
X015222Y004099D03*
X015911Y003922D03*
X015911Y003410D03*
X013647Y004001D03*
X013647Y004513D03*
D15*
X010104Y003568D03*
X010104Y001206D03*
X015370Y011786D03*
X015370Y014148D03*
D16*
X013155Y013892D03*
X013155Y012042D03*
X012319Y003312D03*
X012319Y001462D03*
D17*
X013303Y002938D03*
X013303Y003410D03*
X016354Y003430D03*
X016354Y003902D03*
X009169Y011452D03*
X009169Y011924D03*
X012171Y011894D03*
X012171Y012367D03*
D18*
X011679Y013755D03*
X009710Y013755D03*
X013352Y010359D03*
X015321Y010359D03*
X012122Y004995D03*
X010153Y004995D03*
X013795Y001550D03*
X015764Y001550D03*
D19*
X006758Y003511D03*
X018667Y011794D03*
D20*
X018667Y010794D03*
X006758Y004511D03*
D21*
X008529Y003958D02*
X009256Y004685D01*
X009492Y004685D01*
X009492Y004500D01*
X009579Y004412D01*
X009843Y004412D01*
X009843Y004210D01*
X009402Y004210D01*
X009314Y004122D01*
X009314Y003013D01*
X009402Y002926D01*
X010806Y002926D01*
X010894Y003013D01*
X010894Y003878D01*
X010925Y003909D01*
X011667Y003909D01*
X011651Y003881D01*
X011639Y003835D01*
X011639Y003392D01*
X012239Y003392D01*
X012239Y003232D01*
X011639Y003232D01*
X011639Y002788D01*
X011651Y002742D01*
X011675Y002701D01*
X011708Y002668D01*
X011749Y002644D01*
X011795Y002632D01*
X012239Y002632D01*
X012239Y003232D01*
X012399Y003232D01*
X012399Y003392D01*
X012999Y003392D01*
X012999Y003835D01*
X012986Y003881D01*
X012970Y003909D01*
X013320Y003909D01*
X013320Y003801D01*
X013379Y003742D01*
X013095Y003742D01*
X013007Y003654D01*
X013007Y003034D01*
X012999Y003013D01*
X012999Y003232D01*
X012399Y003232D01*
X012399Y002632D01*
X012842Y002632D01*
X012888Y002644D01*
X012929Y002668D01*
X012963Y002701D01*
X012986Y002742D01*
X012993Y002766D01*
X012993Y002574D01*
X012530Y002112D01*
X011757Y002112D01*
X011669Y002024D01*
X011669Y001772D01*
X010882Y001772D01*
X010806Y001848D01*
X009402Y001848D01*
X009314Y001760D01*
X009314Y000716D01*
X008529Y000716D01*
X008529Y003958D01*
X008529Y003894D02*
X009314Y003894D01*
X009314Y003736D02*
X008529Y003736D01*
X008529Y003577D02*
X009314Y003577D01*
X009314Y003419D02*
X008529Y003419D01*
X008529Y003260D02*
X009314Y003260D01*
X009314Y003102D02*
X008529Y003102D01*
X008529Y002943D02*
X009385Y002943D01*
X008529Y002785D02*
X011640Y002785D01*
X011639Y002943D02*
X010824Y002943D01*
X010894Y003102D02*
X011639Y003102D01*
X011639Y003419D02*
X010894Y003419D01*
X010894Y003577D02*
X011639Y003577D01*
X011639Y003736D02*
X010894Y003736D01*
X010910Y003894D02*
X011659Y003894D01*
X011586Y004382D02*
X012042Y004382D01*
X012042Y004915D01*
X012202Y004915D01*
X012202Y005075D01*
X012814Y005075D01*
X012814Y005452D01*
X012804Y005487D01*
X015616Y005487D01*
X016846Y004257D01*
X016846Y002928D01*
X016649Y002731D01*
X016649Y000716D01*
X010894Y000716D01*
X010894Y001152D01*
X011669Y001152D01*
X011669Y000899D01*
X011757Y000812D01*
X012881Y000812D01*
X012969Y000899D01*
X012969Y001673D01*
X013133Y001838D01*
X013133Y001055D01*
X013221Y000967D01*
X014369Y000967D01*
X014457Y001055D01*
X014457Y001150D01*
X014859Y001150D01*
X015006Y001211D01*
X015072Y001277D01*
X015072Y001093D01*
X015084Y001047D01*
X015108Y001006D01*
X015141Y000973D01*
X015182Y000949D01*
X015228Y000937D01*
X015684Y000937D01*
X015684Y001470D01*
X015844Y001470D01*
X015844Y001630D01*
X016455Y001630D01*
X016455Y002007D01*
X016443Y002053D01*
X016419Y002094D01*
X016386Y002127D01*
X016345Y002151D01*
X016299Y002163D01*
X015844Y002163D01*
X015844Y001630D01*
X015684Y001630D01*
X015684Y002163D01*
X015228Y002163D01*
X015182Y002151D01*
X013907Y002151D01*
X013907Y002133D02*
X013907Y002476D01*
X014202Y002476D01*
X014216Y002462D01*
X014257Y002438D01*
X014303Y002426D01*
X014559Y002426D01*
X014559Y003003D01*
X014357Y003003D01*
X014357Y003148D01*
X014559Y003148D01*
X014559Y003003D01*
X014704Y003003D01*
X014704Y002426D01*
X014960Y002426D01*
X015006Y002438D01*
X015024Y002448D01*
X015033Y002446D01*
X015212Y002446D01*
X015390Y002446D01*
X015436Y002458D01*
X015477Y002482D01*
X015511Y002515D01*
X015534Y002556D01*
X015547Y002602D01*
X015547Y002686D01*
X015547Y002687D01*
X015551Y002683D01*
X015657Y002639D01*
X015772Y002639D01*
X015878Y002683D01*
X015959Y002764D01*
X016003Y002870D01*
X016003Y002985D01*
X015959Y003092D01*
X015929Y003122D01*
X016079Y003122D01*
X016098Y003104D01*
X016139Y003080D01*
X016185Y003068D01*
X016354Y003068D01*
X016354Y003430D01*
X016354Y003430D01*
X016680Y003430D01*
X016680Y003636D01*
X016668Y003681D01*
X016650Y003712D01*
X016650Y004147D01*
X016562Y004234D01*
X016146Y004234D01*
X016122Y004210D01*
X015672Y004210D01*
X015584Y004122D01*
X015584Y003722D01*
X015640Y003666D01*
X015584Y003610D01*
X015584Y003476D01*
X015517Y003476D01*
X015517Y003588D01*
X015429Y003676D01*
X015412Y003676D01*
X015412Y003811D01*
X015462Y003811D01*
X015549Y003899D01*
X015549Y004299D01*
X015515Y004334D01*
X015543Y004363D01*
X015567Y004404D01*
X015579Y004450D01*
X015579Y004611D01*
X015579Y004773D01*
X015567Y004818D01*
X015543Y004859D01*
X015510Y004893D01*
X015469Y004917D01*
X015423Y004929D01*
X015222Y004929D01*
X015021Y004929D01*
X015009Y004925D01*
X015009Y005048D01*
X014996Y005094D01*
X014973Y005135D01*
X014939Y005168D01*
X014898Y005192D01*
X014852Y005204D01*
X014691Y005204D01*
X014691Y004847D01*
X014691Y004490D01*
X014852Y004490D01*
X014865Y004494D01*
X014865Y004450D01*
X014877Y004404D01*
X014901Y004363D01*
X014930Y004334D01*
X014895Y004299D01*
X014895Y003899D01*
X014983Y003811D01*
X015012Y003811D01*
X015012Y003710D01*
X015006Y003713D01*
X014960Y003726D01*
X014704Y003726D01*
X014704Y003148D01*
X014559Y003148D01*
X014559Y003726D01*
X014303Y003726D01*
X014257Y003713D01*
X014216Y003690D01*
X014202Y003676D01*
X013872Y003676D01*
X013847Y003700D01*
X013847Y003713D01*
X013887Y003713D01*
X013975Y003801D01*
X013975Y004168D01*
X013984Y004164D01*
X014099Y004164D01*
X014205Y004208D01*
X014286Y004290D01*
X014330Y004396D01*
X014330Y004460D01*
X014379Y004508D01*
X014379Y004520D01*
X014414Y004555D01*
X014442Y004526D01*
X014484Y004502D01*
X014529Y004490D01*
X014691Y004490D01*
X014691Y004847D01*
X014691Y004847D01*
X014691Y004847D01*
X014691Y005204D01*
X014529Y005204D01*
X014484Y005192D01*
X014442Y005168D01*
X014414Y005140D01*
X014379Y005174D01*
X013979Y005174D01*
X013891Y005087D01*
X013891Y004796D01*
X013887Y004800D01*
X013408Y004800D01*
X013320Y004713D01*
X013320Y004313D01*
X013324Y004309D01*
X010760Y004309D01*
X010660Y004210D01*
X010463Y004210D01*
X010463Y004412D01*
X010727Y004412D01*
X010815Y004500D01*
X010815Y005487D01*
X011440Y005487D01*
X011430Y005452D01*
X011430Y005075D01*
X012042Y005075D01*
X012042Y004915D01*
X011430Y004915D01*
X011430Y004538D01*
X011442Y004492D01*
X011466Y004451D01*
X011500Y004418D01*
X011541Y004394D01*
X011586Y004382D01*
X011433Y004528D02*
X010815Y004528D01*
X010815Y004687D02*
X011430Y004687D01*
X011430Y004845D02*
X010815Y004845D01*
X010815Y005004D02*
X012042Y005004D01*
X012042Y004845D02*
X012202Y004845D01*
X012202Y004915D02*
X012202Y004382D01*
X012657Y004382D01*
X012703Y004394D01*
X012744Y004418D01*
X012778Y004451D01*
X012801Y004492D01*
X012814Y004538D01*
X012814Y004915D01*
X012202Y004915D01*
X012202Y005004D02*
X013891Y005004D01*
X013891Y004845D02*
X012814Y004845D01*
X012814Y004687D02*
X013320Y004687D01*
X013320Y004528D02*
X012811Y004528D01*
X013320Y004370D02*
X010463Y004370D01*
X010463Y004211D02*
X010662Y004211D01*
X009843Y004211D02*
X008783Y004211D01*
X008941Y004370D02*
X009843Y004370D01*
X009492Y004528D02*
X009100Y004528D01*
X009314Y004053D02*
X008624Y004053D01*
X008529Y002626D02*
X012993Y002626D01*
X012886Y002468D02*
X008529Y002468D01*
X008529Y002309D02*
X012728Y002309D01*
X012569Y002151D02*
X008529Y002151D01*
X008529Y001992D02*
X011669Y001992D01*
X011669Y001834D02*
X010820Y001834D01*
X010894Y001041D02*
X011669Y001041D01*
X011685Y000883D02*
X010894Y000883D01*
X010894Y000724D02*
X016649Y000724D01*
X016649Y000883D02*
X012952Y000883D01*
X012969Y001041D02*
X013147Y001041D01*
X013133Y001200D02*
X012969Y001200D01*
X012969Y001358D02*
X013133Y001358D01*
X013133Y001517D02*
X012969Y001517D01*
X012971Y001675D02*
X013133Y001675D01*
X013129Y001834D02*
X013133Y001834D01*
X013907Y002133D02*
X014369Y002133D01*
X014457Y002045D01*
X014457Y001950D01*
X014859Y001950D01*
X015006Y001889D01*
X015072Y001823D01*
X015072Y002007D01*
X015084Y002053D01*
X015108Y002094D01*
X015141Y002127D01*
X015182Y002151D01*
X015072Y001992D02*
X014457Y001992D01*
X013907Y002309D02*
X016649Y002309D01*
X016649Y002151D02*
X016345Y002151D01*
X016455Y001992D02*
X016649Y001992D01*
X016649Y001834D02*
X016455Y001834D01*
X016455Y001675D02*
X016649Y001675D01*
X016649Y001517D02*
X015844Y001517D01*
X015844Y001470D02*
X016455Y001470D01*
X016455Y001093D01*
X016443Y001047D01*
X016419Y001006D01*
X016386Y000973D01*
X016345Y000949D01*
X016299Y000937D01*
X015844Y000937D01*
X015844Y001470D01*
X015844Y001358D02*
X015684Y001358D01*
X015684Y001200D02*
X015844Y001200D01*
X015844Y001041D02*
X015684Y001041D01*
X015088Y001041D02*
X014443Y001041D01*
X014979Y001200D02*
X015072Y001200D01*
X015684Y001675D02*
X015844Y001675D01*
X015844Y001834D02*
X015684Y001834D01*
X015684Y001992D02*
X015844Y001992D01*
X015844Y002151D02*
X015684Y002151D01*
X015453Y002468D02*
X016649Y002468D01*
X016649Y002626D02*
X015547Y002626D01*
X015547Y002686D02*
X015491Y002686D01*
X015547Y002686D01*
X015491Y002686D02*
X015491Y002686D01*
X015212Y002686D02*
X015212Y002866D01*
X015212Y002866D01*
X015212Y002686D01*
X015212Y002686D01*
X015212Y002446D01*
X015212Y002686D01*
X015212Y002686D01*
X015212Y002626D02*
X015212Y002626D01*
X015212Y002468D02*
X015212Y002468D01*
X015212Y002785D02*
X015212Y002785D01*
X014888Y003003D02*
X014704Y003003D01*
X014704Y003148D01*
X014907Y003148D01*
X014907Y003036D01*
X014889Y003005D01*
X014888Y003003D01*
X014907Y003102D02*
X014704Y003102D01*
X014559Y003102D02*
X014357Y003102D01*
X014559Y003260D02*
X014704Y003260D01*
X014704Y003419D02*
X014559Y003419D01*
X014559Y003577D02*
X014704Y003577D01*
X015012Y003736D02*
X013910Y003736D01*
X013975Y003894D02*
X014900Y003894D01*
X014895Y004053D02*
X013975Y004053D01*
X014208Y004211D02*
X014895Y004211D01*
X014897Y004370D02*
X014319Y004370D01*
X014387Y004528D02*
X014440Y004528D01*
X014691Y004528D02*
X014691Y004528D01*
X014691Y004687D02*
X014691Y004687D01*
X014691Y004845D02*
X014691Y004845D01*
X014691Y005004D02*
X014691Y005004D01*
X014691Y005162D02*
X014691Y005162D01*
X014945Y005162D02*
X015941Y005162D01*
X016099Y005004D02*
X015009Y005004D01*
X015222Y004929D02*
X015222Y004611D01*
X015222Y004611D01*
X015222Y004929D01*
X015222Y004845D02*
X015222Y004845D01*
X015222Y004687D02*
X015222Y004687D01*
X015222Y004611D02*
X015579Y004611D01*
X015222Y004611D01*
X015222Y004611D01*
X015579Y004687D02*
X016416Y004687D01*
X016258Y004845D02*
X015552Y004845D01*
X015579Y004528D02*
X016575Y004528D01*
X016733Y004370D02*
X015548Y004370D01*
X015549Y004211D02*
X016123Y004211D01*
X016585Y004211D02*
X016846Y004211D01*
X016846Y004053D02*
X016650Y004053D01*
X016650Y003894D02*
X016846Y003894D01*
X016846Y003736D02*
X016650Y003736D01*
X016680Y003577D02*
X016846Y003577D01*
X016846Y003419D02*
X016680Y003419D01*
X016680Y003430D02*
X016354Y003430D01*
X016354Y003430D01*
X016354Y003068D01*
X016524Y003068D01*
X016569Y003080D01*
X016610Y003104D01*
X016644Y003137D01*
X016668Y003178D01*
X016680Y003224D01*
X016680Y003430D01*
X016680Y003260D02*
X016846Y003260D01*
X016846Y003102D02*
X016607Y003102D01*
X016354Y003102D02*
X016354Y003102D01*
X016354Y003260D02*
X016354Y003260D01*
X016354Y003419D02*
X016354Y003419D01*
X016102Y003102D02*
X015949Y003102D01*
X016003Y002943D02*
X016846Y002943D01*
X016703Y002785D02*
X015968Y002785D01*
X015584Y003577D02*
X015517Y003577D01*
X015584Y003736D02*
X015412Y003736D01*
X015544Y003894D02*
X015584Y003894D01*
X015584Y004053D02*
X015549Y004053D01*
X014704Y002943D02*
X014559Y002943D01*
X014559Y002785D02*
X014704Y002785D01*
X014704Y002626D02*
X014559Y002626D01*
X014559Y002468D02*
X014704Y002468D01*
X014210Y002468D02*
X013907Y002468D01*
X013007Y003102D02*
X012999Y003102D01*
X013007Y003260D02*
X012399Y003260D01*
X012399Y003102D02*
X012239Y003102D01*
X012239Y003260D02*
X010894Y003260D01*
X012239Y002943D02*
X012399Y002943D01*
X012399Y002785D02*
X012239Y002785D01*
X012999Y003419D02*
X013007Y003419D01*
X012999Y003577D02*
X013007Y003577D01*
X012999Y003736D02*
X013089Y003736D01*
X012979Y003894D02*
X013320Y003894D01*
X012202Y004528D02*
X012042Y004528D01*
X012042Y004687D02*
X012202Y004687D01*
X012814Y005162D02*
X013967Y005162D01*
X014391Y005162D02*
X014436Y005162D01*
X015624Y005479D02*
X012806Y005479D01*
X012814Y005321D02*
X015782Y005321D01*
X011437Y005479D02*
X010815Y005479D01*
X010815Y005321D02*
X011430Y005321D01*
X011430Y005162D02*
X010815Y005162D01*
X009388Y001834D02*
X008529Y001834D01*
X008529Y001675D02*
X009314Y001675D01*
X009314Y001517D02*
X008529Y001517D01*
X008529Y001358D02*
X009314Y001358D01*
X009314Y001200D02*
X008529Y001200D01*
X008529Y001041D02*
X009314Y001041D01*
X009314Y000883D02*
X008529Y000883D01*
X008529Y000724D02*
X009314Y000724D01*
X015061Y001834D02*
X015072Y001834D01*
X016455Y001358D02*
X016649Y001358D01*
X016649Y001200D02*
X016455Y001200D01*
X016440Y001041D02*
X016649Y001041D01*
X014659Y009867D02*
X014035Y009867D01*
X014044Y009902D01*
X014044Y010279D01*
X013432Y010279D01*
X013432Y010439D01*
X013272Y010439D01*
X013272Y010279D01*
X012660Y010279D01*
X012660Y009902D01*
X012670Y009867D01*
X009858Y009867D01*
X008579Y011146D01*
X008579Y012377D01*
X008825Y012623D01*
X008825Y014589D01*
X014580Y014589D01*
X014580Y014262D01*
X013805Y014262D01*
X013805Y014454D01*
X013718Y014542D01*
X012593Y014542D01*
X012505Y014454D01*
X012505Y013592D01*
X012341Y013428D01*
X012341Y014250D01*
X012253Y014338D01*
X011105Y014338D01*
X011017Y014250D01*
X011017Y014155D01*
X010615Y014155D01*
X010468Y014094D01*
X010402Y014028D01*
X010402Y014211D01*
X010390Y014257D01*
X010366Y014298D01*
X010333Y014332D01*
X010292Y014356D01*
X010246Y014368D01*
X009790Y014368D01*
X009790Y013835D01*
X009630Y013835D01*
X009630Y013675D01*
X009019Y013675D01*
X009019Y013298D01*
X009031Y013252D01*
X009055Y013211D01*
X009088Y013178D01*
X009129Y013154D01*
X009175Y013142D01*
X009630Y013142D01*
X009630Y013675D01*
X009790Y013675D01*
X009790Y013142D01*
X010246Y013142D01*
X010292Y013154D01*
X010333Y013178D01*
X010366Y013211D01*
X010390Y013252D01*
X010402Y013298D01*
X010402Y013481D01*
X010468Y013416D01*
X010615Y013355D01*
X011017Y013355D01*
X011017Y013260D01*
X011105Y013172D01*
X011567Y013172D01*
X011567Y012829D01*
X011272Y012829D01*
X011258Y012843D01*
X011217Y012867D01*
X011171Y012879D01*
X010915Y012879D01*
X010915Y012302D01*
X010770Y012302D01*
X010770Y012879D01*
X010514Y012879D01*
X010468Y012867D01*
X010450Y012857D01*
X010441Y012859D01*
X010262Y012859D01*
X010084Y012859D01*
X010038Y012847D01*
X009997Y012823D01*
X009963Y012790D01*
X009940Y012749D01*
X009927Y012703D01*
X009927Y012648D01*
X009871Y012671D01*
X009756Y012671D01*
X009650Y012627D01*
X009569Y012545D01*
X009525Y012439D01*
X009525Y012324D01*
X009563Y012231D01*
X009444Y012231D01*
X009425Y012250D01*
X009384Y012274D01*
X009339Y012286D01*
X009169Y012286D01*
X009000Y012286D01*
X008954Y012274D01*
X008913Y012250D01*
X008879Y012217D01*
X008856Y012176D01*
X008843Y012130D01*
X008843Y011924D01*
X008843Y011718D01*
X008856Y011672D01*
X008873Y011642D01*
X008873Y011207D01*
X008961Y011119D01*
X009377Y011119D01*
X009402Y011144D01*
X009851Y011144D01*
X009925Y011217D01*
X009925Y011055D01*
X009959Y011020D01*
X009931Y010991D01*
X009907Y010950D01*
X009895Y010904D01*
X009895Y010743D01*
X010252Y010743D01*
X010252Y010425D01*
X010453Y010425D01*
X010466Y010429D01*
X010466Y010306D01*
X010478Y010260D01*
X010501Y010219D01*
X010535Y010185D01*
X010576Y010162D01*
X010622Y010150D01*
X010783Y010150D01*
X010783Y010507D01*
X010783Y010864D01*
X010622Y010864D01*
X010609Y010860D01*
X010609Y010904D01*
X010597Y010950D01*
X010573Y010991D01*
X010544Y011020D01*
X010579Y011055D01*
X010579Y011455D01*
X010491Y011543D01*
X010462Y011543D01*
X010462Y011595D01*
X010468Y011591D01*
X010514Y011579D01*
X010770Y011579D01*
X010770Y012157D01*
X010567Y012157D01*
X010567Y012269D01*
X010585Y012300D01*
X010586Y012302D01*
X010770Y012302D01*
X010770Y012157D01*
X010915Y012157D01*
X010915Y012302D01*
X011117Y012302D01*
X011117Y012157D01*
X010915Y012157D01*
X010915Y011579D01*
X011171Y011579D01*
X011217Y011591D01*
X011258Y011615D01*
X011272Y011629D01*
X011602Y011629D01*
X011627Y011605D01*
X011627Y011592D01*
X011587Y011592D01*
X011499Y011504D01*
X011499Y011136D01*
X011490Y011140D01*
X011375Y011140D01*
X011269Y011096D01*
X011188Y011015D01*
X011144Y010909D01*
X011144Y010834D01*
X011095Y010834D01*
X011060Y010799D01*
X011032Y010828D01*
X010991Y010852D01*
X010945Y010864D01*
X010783Y010864D01*
X010783Y010507D01*
X010783Y010507D01*
X010783Y010507D01*
X010783Y010150D01*
X010945Y010150D01*
X010991Y010162D01*
X011032Y010185D01*
X011060Y010214D01*
X011095Y010180D01*
X011495Y010180D01*
X011583Y010267D01*
X011583Y010509D01*
X011587Y010504D01*
X012066Y010504D01*
X012154Y010592D01*
X012154Y010992D01*
X012150Y010996D01*
X014715Y010996D01*
X014832Y011113D01*
X014863Y011144D01*
X015011Y011144D01*
X015011Y010942D01*
X014747Y010942D01*
X014659Y010854D01*
X014659Y009867D01*
X014659Y009917D02*
X014044Y009917D01*
X014044Y010076D02*
X014659Y010076D01*
X014659Y010234D02*
X014044Y010234D01*
X014044Y010439D02*
X014044Y010816D01*
X014032Y010862D01*
X014008Y010903D01*
X013975Y010936D01*
X013934Y010960D01*
X013888Y010972D01*
X013432Y010972D01*
X013432Y010439D01*
X014044Y010439D01*
X014044Y010551D02*
X014659Y010551D01*
X014659Y010393D02*
X013432Y010393D01*
X013432Y010551D02*
X013272Y010551D01*
X013272Y010439D02*
X013272Y010972D01*
X012817Y010972D01*
X012771Y010960D01*
X012730Y010936D01*
X012696Y010903D01*
X012673Y010862D01*
X012660Y010816D01*
X012660Y010439D01*
X013272Y010439D01*
X013272Y010393D02*
X011583Y010393D01*
X011550Y010234D02*
X012660Y010234D01*
X012660Y010076D02*
X009649Y010076D01*
X009491Y010234D02*
X010493Y010234D01*
X010466Y010393D02*
X009332Y010393D01*
X009174Y010551D02*
X009903Y010551D01*
X009907Y010536D02*
X009931Y010495D01*
X009964Y010461D01*
X010005Y010437D01*
X010051Y010425D01*
X010252Y010425D01*
X010252Y010743D01*
X010252Y010743D01*
X010252Y010743D01*
X009895Y010743D01*
X009895Y010581D01*
X009907Y010536D01*
X009895Y010710D02*
X009015Y010710D01*
X008857Y010868D02*
X009895Y010868D01*
X009953Y011027D02*
X008698Y011027D01*
X008579Y011185D02*
X008896Y011185D01*
X008873Y011344D02*
X008579Y011344D01*
X008579Y011502D02*
X008873Y011502D01*
X008862Y011661D02*
X008579Y011661D01*
X008579Y011819D02*
X008843Y011819D01*
X008843Y011924D02*
X009169Y011924D01*
X009169Y011924D01*
X008843Y011924D01*
X008843Y011978D02*
X008579Y011978D01*
X008579Y012136D02*
X008845Y012136D01*
X008579Y012295D02*
X009537Y012295D01*
X009531Y012453D02*
X008655Y012453D01*
X008814Y012612D02*
X009635Y012612D01*
X009952Y012770D02*
X008825Y012770D01*
X008825Y012929D02*
X011567Y012929D01*
X011567Y013087D02*
X008825Y013087D01*
X008825Y013246D02*
X009035Y013246D01*
X009019Y013404D02*
X008825Y013404D01*
X008825Y013563D02*
X009019Y013563D01*
X008825Y013721D02*
X009630Y013721D01*
X009630Y013835D02*
X009019Y013835D01*
X009019Y014211D01*
X009031Y014257D01*
X009055Y014298D01*
X009088Y014332D01*
X009129Y014356D01*
X009175Y014368D01*
X009630Y014368D01*
X009630Y013835D01*
X009630Y013880D02*
X009790Y013880D01*
X009790Y014038D02*
X009630Y014038D01*
X009630Y014197D02*
X009790Y014197D01*
X009790Y014355D02*
X009630Y014355D01*
X009129Y014355D02*
X008825Y014355D01*
X008825Y014197D02*
X009019Y014197D01*
X009019Y014038D02*
X008825Y014038D01*
X008825Y013880D02*
X009019Y013880D01*
X009630Y013563D02*
X009790Y013563D01*
X009790Y013404D02*
X009630Y013404D01*
X009630Y013246D02*
X009790Y013246D01*
X010386Y013246D02*
X011031Y013246D01*
X010496Y013404D02*
X010402Y013404D01*
X010262Y012859D02*
X010262Y012619D01*
X010262Y012439D01*
X010262Y012439D01*
X010262Y012619D01*
X010262Y012619D01*
X010262Y012859D01*
X010262Y012770D02*
X010262Y012770D01*
X010262Y012619D02*
X010262Y012619D01*
X010262Y012612D02*
X010262Y012612D01*
X010262Y012453D02*
X010262Y012453D01*
X010582Y012295D02*
X010770Y012295D01*
X010915Y012295D02*
X011117Y012295D01*
X010915Y012453D02*
X010770Y012453D01*
X010770Y012612D02*
X010915Y012612D01*
X010915Y012770D02*
X010770Y012770D01*
X010770Y012136D02*
X010915Y012136D01*
X010915Y011978D02*
X010770Y011978D01*
X010770Y011819D02*
X010915Y011819D01*
X010915Y011661D02*
X010770Y011661D01*
X010531Y011502D02*
X011499Y011502D01*
X011499Y011344D02*
X010579Y011344D01*
X010579Y011185D02*
X011499Y011185D01*
X011200Y011027D02*
X010551Y011027D01*
X010609Y010868D02*
X011144Y010868D01*
X010783Y010710D02*
X010783Y010710D01*
X010783Y010551D02*
X010783Y010551D01*
X010783Y010393D02*
X010783Y010393D01*
X010783Y010234D02*
X010783Y010234D01*
X010252Y010551D02*
X010252Y010551D01*
X010252Y010710D02*
X010252Y010710D01*
X009925Y011185D02*
X009893Y011185D01*
X009169Y011924D02*
X009169Y011924D01*
X009169Y012286D01*
X009169Y011924D01*
X009169Y011978D02*
X009169Y011978D01*
X009169Y012136D02*
X009169Y012136D01*
X010402Y014038D02*
X010413Y014038D01*
X010402Y014197D02*
X011017Y014197D01*
X010292Y014355D02*
X012505Y014355D01*
X012505Y014197D02*
X012341Y014197D01*
X012341Y014038D02*
X012505Y014038D01*
X012505Y013880D02*
X012341Y013880D01*
X012341Y013721D02*
X012505Y013721D01*
X012476Y013563D02*
X012341Y013563D01*
X012877Y013087D02*
X016945Y013087D01*
X016945Y012929D02*
X012719Y012929D01*
X012632Y012722D02*
X012586Y012710D01*
X012545Y012686D01*
X012511Y012653D01*
X012488Y012612D01*
X012481Y012587D01*
X012481Y012691D01*
X013032Y013242D01*
X013718Y013242D01*
X013805Y013330D01*
X013805Y013642D01*
X014580Y013642D01*
X014580Y013594D01*
X014668Y013506D01*
X016072Y013506D01*
X016160Y013594D01*
X016160Y014589D01*
X016945Y014589D01*
X016945Y011437D01*
X016177Y010669D01*
X015983Y010669D01*
X015983Y010854D01*
X015895Y010942D01*
X015631Y010942D01*
X015631Y011144D01*
X016072Y011144D01*
X016160Y011232D01*
X016160Y012340D01*
X016072Y012428D01*
X014668Y012428D01*
X014580Y012340D01*
X014580Y011427D01*
X014549Y011396D01*
X013761Y011396D01*
X013766Y011398D01*
X013799Y011432D01*
X013823Y011473D01*
X013835Y011519D01*
X013835Y011962D01*
X013235Y011962D01*
X013235Y012122D01*
X013075Y012122D01*
X013075Y011962D01*
X012475Y011962D01*
X012475Y011519D01*
X012488Y011473D01*
X012511Y011432D01*
X012545Y011398D01*
X012549Y011396D01*
X012154Y011396D01*
X012154Y011504D01*
X012095Y011562D01*
X012379Y011562D01*
X012467Y011650D01*
X012467Y012271D01*
X012475Y012291D01*
X012475Y012122D01*
X013075Y012122D01*
X013075Y012722D01*
X012632Y012722D01*
X012560Y012770D02*
X016945Y012770D01*
X016945Y012612D02*
X013823Y012612D01*
X013799Y012653D01*
X013766Y012686D01*
X013725Y012710D01*
X013679Y012722D01*
X013235Y012722D01*
X013235Y012122D01*
X013835Y012122D01*
X013835Y012566D01*
X013823Y012612D01*
X013835Y012453D02*
X016945Y012453D01*
X016945Y012295D02*
X016160Y012295D01*
X016160Y012136D02*
X016945Y012136D01*
X016945Y011978D02*
X016160Y011978D01*
X016160Y011819D02*
X016945Y011819D01*
X016945Y011661D02*
X016160Y011661D01*
X016160Y011502D02*
X016945Y011502D01*
X016851Y011344D02*
X016160Y011344D01*
X016113Y011185D02*
X016693Y011185D01*
X016534Y011027D02*
X015631Y011027D01*
X015969Y010868D02*
X016376Y010868D01*
X016217Y010710D02*
X015983Y010710D01*
X015011Y011027D02*
X014746Y011027D01*
X014832Y011113D02*
X014832Y011113D01*
X014673Y010868D02*
X014028Y010868D01*
X014044Y010710D02*
X014659Y010710D01*
X013432Y010710D02*
X013272Y010710D01*
X013272Y010868D02*
X013432Y010868D01*
X012677Y010868D02*
X012154Y010868D01*
X012154Y010710D02*
X012660Y010710D01*
X012660Y010551D02*
X012113Y010551D01*
X012660Y009917D02*
X009808Y009917D01*
X012154Y011502D02*
X012480Y011502D01*
X012467Y011661D02*
X012475Y011661D01*
X012467Y011819D02*
X012475Y011819D01*
X012467Y011978D02*
X013075Y011978D01*
X013075Y012136D02*
X013235Y012136D01*
X013235Y011978D02*
X014580Y011978D01*
X014580Y012136D02*
X013835Y012136D01*
X013835Y012295D02*
X014580Y012295D01*
X014580Y011819D02*
X013835Y011819D01*
X013835Y011661D02*
X014580Y011661D01*
X014580Y011502D02*
X013831Y011502D01*
X013235Y012295D02*
X013075Y012295D01*
X013075Y012453D02*
X013235Y012453D01*
X013235Y012612D02*
X013075Y012612D01*
X012488Y012612D02*
X012481Y012612D01*
X012467Y012136D02*
X012475Y012136D01*
X013721Y013246D02*
X016945Y013246D01*
X016945Y013404D02*
X013805Y013404D01*
X013805Y013563D02*
X014612Y013563D01*
X014580Y014355D02*
X013805Y014355D01*
X013746Y014514D02*
X014580Y014514D01*
X016160Y014514D02*
X016945Y014514D01*
X016945Y014355D02*
X016160Y014355D01*
X016160Y014197D02*
X016945Y014197D01*
X016945Y014038D02*
X016160Y014038D01*
X016160Y013880D02*
X016945Y013880D01*
X016945Y013721D02*
X016160Y013721D01*
X016128Y013563D02*
X016945Y013563D01*
X012565Y014514D02*
X008825Y014514D01*
D22*
X008972Y014444D03*
X009957Y014444D03*
X010892Y014444D03*
X012122Y014444D03*
X011384Y013017D03*
X010842Y013017D03*
X010252Y013017D03*
X009710Y012967D03*
X009218Y012475D03*
X008726Y012328D03*
X008726Y011786D03*
X008726Y011245D03*
X009071Y010851D03*
X009415Y010507D03*
X009760Y010162D03*
X010203Y010015D03*
X010695Y010015D03*
X011187Y010015D03*
X011679Y010015D03*
X011679Y010408D03*
X011433Y010851D03*
X011335Y011442D03*
X010842Y011442D03*
X010842Y011835D03*
X010842Y012229D03*
X010842Y012623D03*
X009814Y012382D03*
X008972Y012967D03*
X012319Y011491D03*
X012319Y010704D03*
X012319Y010359D03*
X012319Y010015D03*
X014336Y010015D03*
X014336Y010359D03*
X014336Y010753D03*
X013992Y011540D03*
X013992Y011934D03*
X013992Y012377D03*
X013992Y012820D03*
X013549Y012820D03*
X013155Y012820D03*
X012762Y012820D03*
X016207Y010900D03*
X016699Y011442D03*
X016748Y012032D03*
X016748Y012770D03*
X016748Y013558D03*
X016748Y014394D03*
X015222Y005339D03*
X015665Y005241D03*
X016010Y004896D03*
X016354Y004552D03*
X016748Y004158D03*
X016748Y003715D03*
X016699Y003026D03*
X016207Y002928D03*
X015714Y002928D03*
X014632Y003076D03*
X014632Y003469D03*
X014632Y003863D03*
X014238Y003863D03*
X014041Y004454D03*
X013549Y004995D03*
X013549Y005339D03*
X013057Y005339D03*
X013057Y004995D03*
X013057Y004650D03*
X014090Y005339D03*
X014681Y005339D03*
X013155Y003814D03*
X011482Y003814D03*
X011482Y003469D03*
X011482Y003125D03*
X011482Y002731D03*
X012023Y002534D03*
X012319Y002534D03*
X012614Y002534D03*
X014090Y002288D03*
X014632Y002288D03*
X015173Y002288D03*
X015813Y002288D03*
X016551Y002042D03*
X016551Y001058D03*
X015764Y000812D03*
X014779Y000812D03*
X013401Y000812D03*
X014632Y002682D03*
X011138Y004650D03*
X011138Y004995D03*
X011138Y005339D03*
X009218Y004454D03*
X008775Y004011D03*
X008775Y003469D03*
X008775Y002633D03*
X008775Y001894D03*
X008775Y001107D03*
D23*
X010104Y001206D02*
X010360Y001462D01*
X013388Y003276D02*
X013303Y003410D01*
X013388Y003276D02*
X014052Y003276D01*
X014052Y003466D02*
X013799Y003466D01*
X013647Y003617D01*
X013647Y004001D01*
X013490Y004109D01*
X010842Y004109D01*
X010301Y003568D01*
X010350Y003519D01*
X010153Y003519D01*
X010104Y003568D01*
X010252Y003568D01*
X010301Y003568D02*
X010153Y003715D01*
X013647Y004503D02*
X013687Y004463D01*
X014031Y004463D01*
X014041Y004454D01*
X014179Y004591D01*
X014179Y004847D01*
X013647Y004513D02*
X013647Y004503D01*
X015212Y004089D02*
X015222Y004099D01*
X015212Y004089D02*
X015212Y003466D01*
X015212Y003276D02*
X015777Y003276D01*
X015911Y003410D01*
X015567Y003076D02*
X015714Y002928D01*
X015567Y003076D02*
X015212Y003076D01*
X015911Y003922D02*
X016335Y003922D01*
X016354Y003902D01*
X013750Y002686D02*
X013697Y002633D01*
X013697Y001747D02*
X013795Y001550D01*
X011344Y010517D02*
X011344Y010763D01*
X011433Y010851D01*
X011374Y010792D01*
X011433Y010851D02*
X011827Y010851D01*
X011817Y010792D01*
X011827Y010792D01*
X011817Y010792D02*
X011787Y010792D01*
X011344Y010517D02*
X011295Y010507D01*
X011827Y011304D02*
X011866Y011393D01*
X011827Y011393D01*
X012023Y011196D01*
X014632Y011196D01*
X015075Y011639D01*
X015370Y011786D01*
X012171Y011894D02*
X012168Y011872D01*
X012122Y011885D01*
X012122Y011934D01*
X012027Y012029D01*
X011422Y012029D01*
X011422Y011839D02*
X011675Y011839D01*
X011827Y011688D01*
X011827Y011393D01*
X011827Y011304D01*
X012073Y012229D02*
X012220Y012377D01*
X012220Y012426D01*
X012171Y012367D01*
X010262Y012229D02*
X009966Y012229D01*
X009814Y012382D01*
X009747Y012029D02*
X009612Y011944D01*
X009747Y012029D02*
X010262Y012029D01*
X010262Y011839D02*
X010262Y011323D01*
X010252Y011255D01*
X009612Y011432D02*
X009287Y011432D01*
X009169Y011452D01*
X011236Y013952D02*
X011777Y013656D01*
X011679Y013755D02*
X011531Y013853D01*
X011236Y013952D01*
D24*
X011777Y013656D02*
X011777Y012672D01*
X011725Y012619D01*
X011422Y012619D01*
X011422Y012429D02*
X011682Y012429D01*
X011777Y012524D01*
X011777Y012672D01*
X012073Y012229D02*
X011422Y012229D01*
X013362Y003076D02*
X013303Y002938D01*
X013362Y003076D02*
X014052Y003076D01*
X014052Y002876D02*
X013792Y002876D01*
X013697Y002780D01*
X013697Y002633D01*
X013697Y001747D01*
X013750Y002686D02*
X014052Y002686D01*
D25*
X013303Y002446D02*
X012319Y001462D01*
X010360Y001462D01*
X013303Y002446D02*
X013303Y002938D01*
X010153Y003715D02*
X010153Y004995D01*
X009128Y004995D01*
X007644Y003511D01*
X007583Y003511D01*
X006758Y003511D01*
X015321Y010359D02*
X016305Y010359D01*
X017740Y011794D01*
X018667Y011794D01*
X015370Y011786D02*
X015370Y011589D01*
X015321Y011589D01*
X015321Y010359D01*
X012171Y012367D02*
X012171Y012820D01*
X013057Y013706D01*
X013047Y013607D01*
X013057Y013607D01*
X013401Y013952D01*
X015173Y013952D01*
X015370Y014148D01*
X013155Y013892D02*
X013146Y013607D01*
X013047Y013607D01*
D26*
X017486Y013303D02*
X017486Y011915D01*
X017590Y012019D01*
X017687Y012059D01*
X018262Y012059D01*
X018262Y012138D01*
X018324Y012199D01*
X019011Y012199D01*
X019072Y012138D01*
X019072Y011451D01*
X019011Y011389D01*
X018324Y011389D01*
X018262Y011451D01*
X018262Y011529D01*
X017850Y011529D01*
X016455Y010134D01*
X016358Y010094D01*
X016252Y010094D01*
X015714Y009572D01*
X009710Y009572D01*
X008333Y010950D01*
X008333Y012524D01*
X008579Y012770D01*
X008579Y014634D01*
X007534Y014634D01*
X007731Y014452D01*
X007731Y014452D01*
X007731Y014452D01*
X007934Y014077D01*
X007934Y014077D01*
X008005Y013656D01*
X007934Y013235D01*
X007731Y012860D01*
X007731Y012860D01*
X007417Y012571D01*
X007417Y012571D01*
X007027Y012400D01*
X007027Y012400D01*
X006601Y012365D01*
X006601Y012365D01*
X006188Y012469D01*
X006188Y012469D01*
X005831Y012703D01*
X005731Y012831D01*
X005731Y002474D01*
X005831Y002602D01*
X005831Y002602D01*
X006188Y002835D01*
X006188Y002835D01*
X006601Y002940D01*
X006601Y002940D01*
X007027Y002905D01*
X007027Y002905D01*
X007417Y002733D01*
X007417Y002733D01*
X007731Y002445D01*
X007731Y002445D01*
X007934Y002069D01*
X007934Y002069D01*
X007988Y001748D01*
X007988Y003480D01*
X007794Y003286D01*
X007696Y003246D01*
X007163Y003246D01*
X007163Y003167D01*
X007101Y003106D01*
X006414Y003106D01*
X006353Y003167D01*
X006353Y003854D01*
X006414Y003916D01*
X007101Y003916D01*
X007163Y003854D01*
X007163Y003776D01*
X007534Y003776D01*
X008978Y005220D01*
X009075Y005260D01*
X009203Y005260D01*
X009710Y005782D01*
X015714Y005782D01*
X017092Y004404D01*
X017092Y002780D01*
X016945Y002633D01*
X016945Y000671D01*
X017875Y000671D01*
X017839Y000695D01*
X017839Y000695D01*
X017839Y000695D01*
X017577Y001032D01*
X017577Y001032D01*
X017438Y001435D01*
X017438Y001862D01*
X017577Y002265D01*
X017577Y002265D01*
X017839Y002602D01*
X017839Y002602D01*
X018196Y002835D01*
X018196Y002835D01*
X018609Y002940D01*
X018609Y002940D01*
X019035Y002905D01*
X019425Y002733D01*
X019694Y002486D01*
X019694Y012819D01*
X019425Y012571D01*
X019425Y012571D01*
X019035Y012400D01*
X019035Y012400D01*
X018609Y012365D01*
X018609Y012365D01*
X018196Y012469D01*
X018196Y012469D01*
X017839Y012703D01*
X017839Y012703D01*
X017577Y013039D01*
X017577Y013039D01*
X017486Y013303D01*
X017486Y013238D02*
X017508Y013238D01*
X017486Y013170D02*
X017532Y013170D01*
X017555Y013101D02*
X017486Y013101D01*
X017486Y013033D02*
X017582Y013033D01*
X017635Y012964D02*
X017486Y012964D01*
X017486Y012896D02*
X017688Y012896D01*
X017742Y012827D02*
X017486Y012827D01*
X017486Y012759D02*
X017795Y012759D01*
X017858Y012690D02*
X017486Y012690D01*
X017486Y012622D02*
X017962Y012622D01*
X018067Y012553D02*
X017486Y012553D01*
X017486Y012485D02*
X018172Y012485D01*
X018405Y012416D02*
X017486Y012416D01*
X017486Y012348D02*
X019694Y012348D01*
X019694Y012416D02*
X019072Y012416D01*
X019228Y012485D02*
X019694Y012485D01*
X019694Y012553D02*
X019384Y012553D01*
X019480Y012622D02*
X019694Y012622D01*
X019694Y012690D02*
X019555Y012690D01*
X019629Y012759D02*
X019694Y012759D01*
X019694Y012279D02*
X017486Y012279D01*
X017486Y012211D02*
X019694Y012211D01*
X019694Y012142D02*
X019067Y012142D01*
X019072Y012074D02*
X019694Y012074D01*
X019694Y012005D02*
X019072Y012005D01*
X019072Y011937D02*
X019694Y011937D01*
X019694Y011868D02*
X019072Y011868D01*
X019072Y011800D02*
X019694Y011800D01*
X019694Y011731D02*
X019072Y011731D01*
X019072Y011663D02*
X019694Y011663D01*
X019694Y011594D02*
X019072Y011594D01*
X019072Y011526D02*
X019694Y011526D01*
X019694Y011457D02*
X019072Y011457D01*
X018835Y011199D02*
X018499Y011199D01*
X018262Y010962D01*
X018262Y010626D01*
X018499Y010389D01*
X018835Y010389D01*
X019072Y010626D01*
X019072Y010962D01*
X018835Y011199D01*
X018851Y011183D02*
X019694Y011183D01*
X019694Y011115D02*
X018919Y011115D01*
X018988Y011046D02*
X019694Y011046D01*
X019694Y010978D02*
X019056Y010978D01*
X019072Y010909D02*
X019694Y010909D01*
X019694Y010841D02*
X019072Y010841D01*
X019072Y010772D02*
X019694Y010772D01*
X019694Y010704D02*
X019072Y010704D01*
X019072Y010635D02*
X019694Y010635D01*
X019694Y010567D02*
X019013Y010567D01*
X018944Y010498D02*
X019694Y010498D01*
X019694Y010430D02*
X018876Y010430D01*
X018459Y010430D02*
X016750Y010430D01*
X016682Y010361D02*
X019694Y010361D01*
X019694Y010293D02*
X016613Y010293D01*
X016545Y010224D02*
X019694Y010224D01*
X019694Y010156D02*
X016476Y010156D01*
X016245Y010087D02*
X019694Y010087D01*
X019694Y010019D02*
X016174Y010019D01*
X016104Y009950D02*
X019694Y009950D01*
X019694Y009882D02*
X016033Y009882D01*
X015963Y009813D02*
X019694Y009813D01*
X019694Y009745D02*
X015892Y009745D01*
X015822Y009676D02*
X019694Y009676D01*
X019694Y009608D02*
X015752Y009608D01*
X016819Y010498D02*
X018390Y010498D01*
X018322Y010567D02*
X016887Y010567D01*
X016956Y010635D02*
X018262Y010635D01*
X018262Y010704D02*
X017024Y010704D01*
X017093Y010772D02*
X018262Y010772D01*
X018262Y010841D02*
X017161Y010841D01*
X017230Y010909D02*
X018262Y010909D01*
X018278Y010978D02*
X017298Y010978D01*
X017367Y011046D02*
X018347Y011046D01*
X018415Y011115D02*
X017435Y011115D01*
X017504Y011183D02*
X018484Y011183D01*
X018262Y011457D02*
X017778Y011457D01*
X017709Y011389D02*
X019694Y011389D01*
X019694Y011320D02*
X017641Y011320D01*
X017572Y011252D02*
X019694Y011252D01*
X018262Y011526D02*
X017846Y011526D01*
X017508Y011937D02*
X017486Y011937D01*
X017486Y012005D02*
X017576Y012005D01*
X017486Y012074D02*
X018262Y012074D01*
X018267Y012142D02*
X017486Y012142D01*
X019694Y009539D02*
X005731Y009539D01*
X005731Y009471D02*
X019694Y009471D01*
X019694Y009402D02*
X005731Y009402D01*
X005731Y009334D02*
X019694Y009334D01*
X019694Y009265D02*
X005731Y009265D01*
X005731Y009197D02*
X019694Y009197D01*
X019694Y009128D02*
X005731Y009128D01*
X005731Y009060D02*
X019694Y009060D01*
X019694Y008991D02*
X005731Y008991D01*
X005731Y008923D02*
X019694Y008923D01*
X019694Y008854D02*
X005731Y008854D01*
X005731Y008786D02*
X019694Y008786D01*
X019694Y008717D02*
X005731Y008717D01*
X005731Y008649D02*
X019694Y008649D01*
X019694Y008580D02*
X005731Y008580D01*
X005731Y008512D02*
X019694Y008512D01*
X019694Y008443D02*
X005731Y008443D01*
X005731Y008375D02*
X019694Y008375D01*
X019694Y008306D02*
X005731Y008306D01*
X005731Y008238D02*
X019694Y008238D01*
X019694Y008169D02*
X005731Y008169D01*
X005731Y008101D02*
X019694Y008101D01*
X019694Y008032D02*
X005731Y008032D01*
X005731Y007964D02*
X019694Y007964D01*
X019694Y007895D02*
X005731Y007895D01*
X005731Y007827D02*
X019694Y007827D01*
X019694Y007758D02*
X005731Y007758D01*
X005731Y007690D02*
X019694Y007690D01*
X019694Y007621D02*
X005731Y007621D01*
X005731Y007553D02*
X019694Y007553D01*
X019694Y007484D02*
X005731Y007484D01*
X005731Y007416D02*
X019694Y007416D01*
X019694Y007347D02*
X005731Y007347D01*
X005731Y007279D02*
X019694Y007279D01*
X019694Y007210D02*
X005731Y007210D01*
X005731Y007142D02*
X019694Y007142D01*
X019694Y007073D02*
X005731Y007073D01*
X005731Y007005D02*
X019694Y007005D01*
X019694Y006936D02*
X005731Y006936D01*
X005731Y006868D02*
X019694Y006868D01*
X019694Y006799D02*
X005731Y006799D01*
X005731Y006731D02*
X019694Y006731D01*
X019694Y006662D02*
X005731Y006662D01*
X005731Y006594D02*
X019694Y006594D01*
X019694Y006525D02*
X005731Y006525D01*
X005731Y006457D02*
X019694Y006457D01*
X019694Y006388D02*
X005731Y006388D01*
X005731Y006320D02*
X019694Y006320D01*
X019694Y006251D02*
X005731Y006251D01*
X005731Y006183D02*
X019694Y006183D01*
X019694Y006114D02*
X005731Y006114D01*
X005731Y006046D02*
X019694Y006046D01*
X019694Y005977D02*
X005731Y005977D01*
X005731Y005909D02*
X019694Y005909D01*
X019694Y005840D02*
X005731Y005840D01*
X005731Y005772D02*
X009700Y005772D01*
X009634Y005703D02*
X005731Y005703D01*
X005731Y005635D02*
X009567Y005635D01*
X009500Y005566D02*
X005731Y005566D01*
X005731Y005498D02*
X009434Y005498D01*
X009367Y005429D02*
X005731Y005429D01*
X005731Y005361D02*
X009301Y005361D01*
X009234Y005292D02*
X005731Y005292D01*
X005731Y005224D02*
X008988Y005224D01*
X008913Y005155D02*
X005731Y005155D01*
X005731Y005087D02*
X008845Y005087D01*
X008776Y005018D02*
X005731Y005018D01*
X005731Y004950D02*
X008708Y004950D01*
X008639Y004881D02*
X006960Y004881D01*
X006925Y004916D02*
X006590Y004916D01*
X006353Y004678D01*
X006353Y004343D01*
X006590Y004106D01*
X006925Y004106D01*
X007163Y004343D01*
X007163Y004678D01*
X006925Y004916D01*
X007028Y004813D02*
X008571Y004813D01*
X008502Y004744D02*
X007097Y004744D01*
X007163Y004676D02*
X008434Y004676D01*
X008365Y004607D02*
X007163Y004607D01*
X007163Y004539D02*
X008297Y004539D01*
X008228Y004470D02*
X007163Y004470D01*
X007163Y004402D02*
X008160Y004402D01*
X008091Y004333D02*
X007153Y004333D01*
X007085Y004265D02*
X008023Y004265D01*
X007954Y004196D02*
X007016Y004196D01*
X006948Y004128D02*
X007886Y004128D01*
X007817Y004059D02*
X005731Y004059D01*
X005731Y003991D02*
X007749Y003991D01*
X007680Y003922D02*
X005731Y003922D01*
X005731Y003854D02*
X006353Y003854D01*
X006353Y003785D02*
X005731Y003785D01*
X005731Y003717D02*
X006353Y003717D01*
X006353Y003648D02*
X005731Y003648D01*
X005731Y003580D02*
X006353Y003580D01*
X006353Y003511D02*
X005731Y003511D01*
X005731Y003443D02*
X006353Y003443D01*
X006353Y003374D02*
X005731Y003374D01*
X005731Y003306D02*
X006353Y003306D01*
X006353Y003237D02*
X005731Y003237D01*
X005731Y003169D02*
X006353Y003169D01*
X006422Y002895D02*
X005731Y002895D01*
X005731Y002963D02*
X007988Y002963D01*
X007988Y002895D02*
X007050Y002895D01*
X007206Y002826D02*
X007988Y002826D01*
X007988Y002758D02*
X007362Y002758D01*
X007465Y002689D02*
X007988Y002689D01*
X007988Y002621D02*
X007540Y002621D01*
X007614Y002552D02*
X007988Y002552D01*
X007988Y002484D02*
X007689Y002484D01*
X007747Y002415D02*
X007988Y002415D01*
X007988Y002347D02*
X007784Y002347D01*
X007821Y002278D02*
X007988Y002278D01*
X007988Y002210D02*
X007858Y002210D01*
X007895Y002141D02*
X007988Y002141D01*
X007988Y002073D02*
X007933Y002073D01*
X007945Y002004D02*
X007988Y002004D01*
X007988Y001936D02*
X007957Y001936D01*
X007968Y001867D02*
X007988Y001867D01*
X007980Y001799D02*
X007988Y001799D01*
X006174Y002826D02*
X005731Y002826D01*
X005731Y002758D02*
X006069Y002758D01*
X005964Y002689D02*
X005731Y002689D01*
X005731Y002621D02*
X005859Y002621D01*
X005831Y002602D02*
X005831Y002602D01*
X005792Y002552D02*
X005731Y002552D01*
X005731Y002484D02*
X005739Y002484D01*
X005731Y003032D02*
X007988Y003032D01*
X007988Y003100D02*
X005731Y003100D01*
X005731Y004128D02*
X006568Y004128D01*
X006499Y004196D02*
X005731Y004196D01*
X005731Y004265D02*
X006431Y004265D01*
X006362Y004333D02*
X005731Y004333D01*
X005731Y004402D02*
X006353Y004402D01*
X006353Y004470D02*
X005731Y004470D01*
X005731Y004539D02*
X006353Y004539D01*
X006353Y004607D02*
X005731Y004607D01*
X005731Y004676D02*
X006353Y004676D01*
X006419Y004744D02*
X005731Y004744D01*
X005731Y004813D02*
X006487Y004813D01*
X006556Y004881D02*
X005731Y004881D01*
X007163Y003854D02*
X007612Y003854D01*
X007543Y003785D02*
X007163Y003785D01*
X007882Y003374D02*
X007988Y003374D01*
X007988Y003306D02*
X007813Y003306D01*
X007988Y003237D02*
X007163Y003237D01*
X007163Y003169D02*
X007988Y003169D01*
X007988Y003443D02*
X007950Y003443D01*
X015725Y005772D02*
X019694Y005772D01*
X019694Y005703D02*
X015793Y005703D01*
X015862Y005635D02*
X019694Y005635D01*
X019694Y005566D02*
X015930Y005566D01*
X015999Y005498D02*
X019694Y005498D01*
X019694Y005429D02*
X016067Y005429D01*
X016136Y005361D02*
X019694Y005361D01*
X019694Y005292D02*
X016204Y005292D01*
X016273Y005224D02*
X019694Y005224D01*
X019694Y005155D02*
X016341Y005155D01*
X016410Y005087D02*
X019694Y005087D01*
X019694Y005018D02*
X016478Y005018D01*
X016547Y004950D02*
X019694Y004950D01*
X019694Y004881D02*
X016615Y004881D01*
X016684Y004813D02*
X019694Y004813D01*
X019694Y004744D02*
X016752Y004744D01*
X016821Y004676D02*
X019694Y004676D01*
X019694Y004607D02*
X016889Y004607D01*
X016958Y004539D02*
X019694Y004539D01*
X019694Y004470D02*
X017026Y004470D01*
X017092Y004402D02*
X019694Y004402D01*
X019694Y004333D02*
X017092Y004333D01*
X017092Y004265D02*
X019694Y004265D01*
X019694Y004196D02*
X017092Y004196D01*
X017092Y004128D02*
X019694Y004128D01*
X019694Y004059D02*
X017092Y004059D01*
X017092Y003991D02*
X019694Y003991D01*
X019694Y003922D02*
X017092Y003922D01*
X017092Y003854D02*
X019694Y003854D01*
X019694Y003785D02*
X017092Y003785D01*
X017092Y003717D02*
X019694Y003717D01*
X019694Y003648D02*
X017092Y003648D01*
X017092Y003580D02*
X019694Y003580D01*
X019694Y003511D02*
X017092Y003511D01*
X017092Y003443D02*
X019694Y003443D01*
X019694Y003374D02*
X017092Y003374D01*
X017092Y003306D02*
X019694Y003306D01*
X019694Y003237D02*
X017092Y003237D01*
X017092Y003169D02*
X019694Y003169D01*
X019694Y003100D02*
X017092Y003100D01*
X017092Y003032D02*
X019694Y003032D01*
X019694Y002963D02*
X017092Y002963D01*
X017092Y002895D02*
X018430Y002895D01*
X018182Y002826D02*
X017092Y002826D01*
X017070Y002758D02*
X018077Y002758D01*
X017972Y002689D02*
X017001Y002689D01*
X016945Y002621D02*
X017867Y002621D01*
X017839Y002602D02*
X017839Y002602D01*
X017800Y002552D02*
X016945Y002552D01*
X016945Y002484D02*
X017747Y002484D01*
X017693Y002415D02*
X016945Y002415D01*
X016945Y002347D02*
X017640Y002347D01*
X017587Y002278D02*
X016945Y002278D01*
X016945Y002210D02*
X017557Y002210D01*
X017534Y002141D02*
X016945Y002141D01*
X016945Y002073D02*
X017510Y002073D01*
X017487Y002004D02*
X016945Y002004D01*
X016945Y001936D02*
X017463Y001936D01*
X017440Y001867D02*
X016945Y001867D01*
X016945Y001799D02*
X017438Y001799D01*
X017438Y001730D02*
X016945Y001730D01*
X016945Y001662D02*
X017438Y001662D01*
X017438Y001593D02*
X016945Y001593D01*
X016945Y001525D02*
X017438Y001525D01*
X017438Y001456D02*
X016945Y001456D01*
X016945Y001388D02*
X017454Y001388D01*
X017478Y001319D02*
X016945Y001319D01*
X016945Y001251D02*
X017501Y001251D01*
X017525Y001182D02*
X016945Y001182D01*
X016945Y001114D02*
X017548Y001114D01*
X017572Y001045D02*
X016945Y001045D01*
X016945Y000977D02*
X017619Y000977D01*
X017672Y000908D02*
X016945Y000908D01*
X016945Y000840D02*
X017726Y000840D01*
X017779Y000771D02*
X016945Y000771D01*
X016945Y000703D02*
X017832Y000703D01*
X019622Y002552D02*
X019694Y002552D01*
X019694Y002621D02*
X019548Y002621D01*
X019473Y002689D02*
X019694Y002689D01*
X019694Y002758D02*
X019370Y002758D01*
X019214Y002826D02*
X019694Y002826D01*
X019694Y002895D02*
X019058Y002895D01*
X009674Y009608D02*
X005731Y009608D01*
X005731Y009676D02*
X009606Y009676D01*
X009537Y009745D02*
X005731Y009745D01*
X005731Y009813D02*
X009469Y009813D01*
X009400Y009882D02*
X005731Y009882D01*
X005731Y009950D02*
X009332Y009950D01*
X009263Y010019D02*
X005731Y010019D01*
X005731Y010087D02*
X009195Y010087D01*
X009126Y010156D02*
X005731Y010156D01*
X005731Y010224D02*
X009058Y010224D01*
X008989Y010293D02*
X005731Y010293D01*
X005731Y010361D02*
X008921Y010361D01*
X008852Y010430D02*
X005731Y010430D01*
X005731Y010498D02*
X008784Y010498D01*
X008715Y010567D02*
X005731Y010567D01*
X005731Y010635D02*
X008647Y010635D01*
X008578Y010704D02*
X005731Y010704D01*
X005731Y010772D02*
X008510Y010772D01*
X008441Y010841D02*
X005731Y010841D01*
X005731Y010909D02*
X008373Y010909D01*
X008333Y010978D02*
X005731Y010978D01*
X005731Y011046D02*
X008333Y011046D01*
X008333Y011115D02*
X005731Y011115D01*
X005731Y011183D02*
X008333Y011183D01*
X008333Y011252D02*
X005731Y011252D01*
X005731Y011320D02*
X008333Y011320D01*
X008333Y011389D02*
X005731Y011389D01*
X005731Y011457D02*
X008333Y011457D01*
X008333Y011526D02*
X005731Y011526D01*
X005731Y011594D02*
X008333Y011594D01*
X008333Y011663D02*
X005731Y011663D01*
X005731Y011731D02*
X008333Y011731D01*
X008333Y011800D02*
X005731Y011800D01*
X005731Y011868D02*
X008333Y011868D01*
X008333Y011937D02*
X005731Y011937D01*
X005731Y012005D02*
X008333Y012005D01*
X008333Y012074D02*
X005731Y012074D01*
X005731Y012142D02*
X008333Y012142D01*
X008333Y012211D02*
X005731Y012211D01*
X005731Y012279D02*
X008333Y012279D01*
X008333Y012348D02*
X005731Y012348D01*
X005731Y012416D02*
X006397Y012416D01*
X006164Y012485D02*
X005731Y012485D01*
X005731Y012553D02*
X006059Y012553D01*
X005955Y012622D02*
X005731Y012622D01*
X005731Y012690D02*
X005850Y012690D01*
X005831Y012703D02*
X005831Y012703D01*
X005831Y012703D01*
X005787Y012759D02*
X005731Y012759D01*
X005731Y012827D02*
X005734Y012827D01*
X007064Y012416D02*
X008333Y012416D01*
X008333Y012485D02*
X007220Y012485D01*
X007376Y012553D02*
X008361Y012553D01*
X008430Y012622D02*
X007472Y012622D01*
X007547Y012690D02*
X008498Y012690D01*
X008567Y012759D02*
X007621Y012759D01*
X007696Y012827D02*
X008579Y012827D01*
X008579Y012896D02*
X007751Y012896D01*
X007788Y012964D02*
X008579Y012964D01*
X008579Y013033D02*
X007825Y013033D01*
X007862Y013101D02*
X008579Y013101D01*
X008579Y013170D02*
X007899Y013170D01*
X007934Y013235D02*
X007934Y013235D01*
X007935Y013238D02*
X008579Y013238D01*
X008579Y013307D02*
X007946Y013307D01*
X007958Y013375D02*
X008579Y013375D01*
X008579Y013444D02*
X007969Y013444D01*
X007981Y013512D02*
X008579Y013512D01*
X008579Y013581D02*
X007992Y013581D01*
X008003Y013649D02*
X008579Y013649D01*
X008579Y013718D02*
X007994Y013718D01*
X007983Y013786D02*
X008579Y013786D01*
X008579Y013855D02*
X007971Y013855D01*
X007960Y013923D02*
X008579Y013923D01*
X008579Y013992D02*
X007949Y013992D01*
X007937Y014060D02*
X008579Y014060D01*
X008579Y014129D02*
X007906Y014129D01*
X007869Y014197D02*
X008579Y014197D01*
X008579Y014266D02*
X007832Y014266D01*
X007795Y014334D02*
X008579Y014334D01*
X008579Y014403D02*
X007758Y014403D01*
X007711Y014471D02*
X008579Y014471D01*
X008579Y014540D02*
X007636Y014540D01*
X007562Y014608D02*
X008579Y014608D01*
D27*
X010695Y013755D02*
X011039Y013755D01*
X011679Y013755D01*
X013795Y001550D02*
X014435Y001550D01*
X014779Y001550D01*
D28*
X014779Y001550D03*
X014435Y001550D03*
X017191Y001550D03*
X017191Y001944D03*
X017191Y002337D03*
X008283Y012967D03*
X008283Y013361D03*
X008283Y013755D03*
X010695Y013755D03*
X011039Y013755D03*
M02*
