%
M48
M72
T01C0.0118
T02C0.0197
T03C0.0400
T04C0.1181
%
T01
X8775Y1107
X8775Y1894
X8775Y2633
X8775Y3469
X8775Y4011
X9218Y4454
X11138Y4650
X11138Y4995
X11138Y5339
X13057Y5339
X13057Y4995
X13057Y4650
X13549Y4995
X13549Y5339
X14090Y5339
X14681Y5339
X15222Y5339
X15665Y5241
X16010Y4896
X16354Y4552
X16748Y4158
X16748Y3715
X16699Y3026
X16207Y2928
X15714Y2928
X14632Y3076
X14632Y3469
X14632Y3863
X14238Y3863
X14041Y4454
X13155Y3814
X11482Y3814
X11482Y3469
X11482Y3125
X11482Y2731
X12023Y2534
X12319Y2534
X12614Y2534
X14090Y2288
X14632Y2288
X15173Y2288
X15813Y2288
X16551Y2042
X16551Y1058
X15764Y812
X14779Y812
X13401Y812
X14632Y2682
X14336Y10015
X14336Y10359
X14336Y10753
X13992Y11540
X13992Y11934
X13992Y12377
X13992Y12820
X13549Y12820
X13155Y12820
X12762Y12820
X11384Y13017
X10842Y13017
X10252Y13017
X9710Y12967
X9218Y12475
X8726Y12328
X8726Y11786
X8726Y11245
X9071Y10851
X9415Y10507
X9760Y10162
X10203Y10015
X10695Y10015
X11187Y10015
X11679Y10015
X11679Y10408
X11433Y10851
X11335Y11442
X10842Y11442
X10842Y11835
X10842Y12229
X10842Y12623
X9814Y12382
X8972Y12967
X8972Y14444
X9957Y14444
X10892Y14444
X12122Y14444
X16748Y14394
X16748Y13558
X16748Y12770
X16748Y12032
X16699Y11442
X16207Y10900
X12319Y10704
X12319Y10359
X12319Y10015
X12319Y11491
T02
X11039Y13755
X10695Y13755
X8283Y13755
X8283Y13361
X8283Y12967
X17191Y2337
X17191Y1944
X17191Y1550
X14779Y1550
X14435Y1550
T03
X6758Y3511
X6758Y4511
X18667Y10794
X18667Y11794
T04
X6709Y1648
X18716Y1648
X18716Y13656
X6709Y13656
M30
