G75*
%MOIN*%
%OFA0B0*%
%FSLAX24Y24*%
%IPPOS*%
%LPD*%
%AMOC8*
5,1,8,0,0,1.08239X$1,22.5*
%
%ADD10C,0.0000*%
%ADD11R,0.0600X0.0600*%
%ADD12OC8,0.0600*%
%ADD13C,0.0070*%
%ADD14C,0.0278*%
%ADD15C,0.0100*%
%ADD16C,0.0357*%
%ADD17C,0.0500*%
D10*
X005626Y001648D02*
X005626Y013656D01*
X006118Y013656D02*
X006120Y013704D01*
X006126Y013752D01*
X006136Y013799D01*
X006149Y013845D01*
X006167Y013890D01*
X006187Y013934D01*
X006212Y013976D01*
X006240Y014015D01*
X006270Y014052D01*
X006304Y014086D01*
X006341Y014118D01*
X006379Y014147D01*
X006420Y014172D01*
X006463Y014194D01*
X006508Y014212D01*
X006554Y014226D01*
X006601Y014237D01*
X006649Y014244D01*
X006697Y014247D01*
X006745Y014246D01*
X006793Y014241D01*
X006841Y014232D01*
X006887Y014220D01*
X006932Y014203D01*
X006976Y014183D01*
X007018Y014160D01*
X007058Y014133D01*
X007096Y014103D01*
X007131Y014070D01*
X007163Y014034D01*
X007193Y013996D01*
X007219Y013955D01*
X007241Y013912D01*
X007261Y013868D01*
X007276Y013823D01*
X007288Y013776D01*
X007296Y013728D01*
X007300Y013680D01*
X007300Y013632D01*
X007296Y013584D01*
X007288Y013536D01*
X007276Y013489D01*
X007261Y013444D01*
X007241Y013400D01*
X007219Y013357D01*
X007193Y013316D01*
X007163Y013278D01*
X007131Y013242D01*
X007096Y013209D01*
X007058Y013179D01*
X007018Y013152D01*
X006976Y013129D01*
X006932Y013109D01*
X006887Y013092D01*
X006841Y013080D01*
X006793Y013071D01*
X006745Y013066D01*
X006697Y013065D01*
X006649Y013068D01*
X006601Y013075D01*
X006554Y013086D01*
X006508Y013100D01*
X006463Y013118D01*
X006420Y013140D01*
X006379Y013165D01*
X006341Y013194D01*
X006304Y013226D01*
X006270Y013260D01*
X006240Y013297D01*
X006212Y013336D01*
X006187Y013378D01*
X006167Y013422D01*
X006149Y013467D01*
X006136Y013513D01*
X006126Y013560D01*
X006120Y013608D01*
X006118Y013656D01*
X005626Y013656D02*
X005628Y013719D01*
X005633Y013782D01*
X005642Y013844D01*
X005655Y013906D01*
X005671Y013967D01*
X005691Y014026D01*
X005715Y014085D01*
X005741Y014142D01*
X005771Y014198D01*
X005804Y014251D01*
X005840Y014303D01*
X005879Y014352D01*
X005921Y014399D01*
X005966Y014444D01*
X006013Y014486D01*
X006062Y014525D01*
X006114Y014561D01*
X006168Y014594D01*
X006223Y014624D01*
X006280Y014650D01*
X006339Y014674D01*
X006398Y014694D01*
X006459Y014710D01*
X006521Y014723D01*
X006583Y014732D01*
X006646Y014737D01*
X006709Y014739D01*
X018716Y014739D01*
X018125Y013656D02*
X018127Y013704D01*
X018133Y013752D01*
X018143Y013799D01*
X018156Y013845D01*
X018174Y013890D01*
X018194Y013934D01*
X018219Y013976D01*
X018247Y014015D01*
X018277Y014052D01*
X018311Y014086D01*
X018348Y014118D01*
X018386Y014147D01*
X018427Y014172D01*
X018470Y014194D01*
X018515Y014212D01*
X018561Y014226D01*
X018608Y014237D01*
X018656Y014244D01*
X018704Y014247D01*
X018752Y014246D01*
X018800Y014241D01*
X018848Y014232D01*
X018894Y014220D01*
X018939Y014203D01*
X018983Y014183D01*
X019025Y014160D01*
X019065Y014133D01*
X019103Y014103D01*
X019138Y014070D01*
X019170Y014034D01*
X019200Y013996D01*
X019226Y013955D01*
X019248Y013912D01*
X019268Y013868D01*
X019283Y013823D01*
X019295Y013776D01*
X019303Y013728D01*
X019307Y013680D01*
X019307Y013632D01*
X019303Y013584D01*
X019295Y013536D01*
X019283Y013489D01*
X019268Y013444D01*
X019248Y013400D01*
X019226Y013357D01*
X019200Y013316D01*
X019170Y013278D01*
X019138Y013242D01*
X019103Y013209D01*
X019065Y013179D01*
X019025Y013152D01*
X018983Y013129D01*
X018939Y013109D01*
X018894Y013092D01*
X018848Y013080D01*
X018800Y013071D01*
X018752Y013066D01*
X018704Y013065D01*
X018656Y013068D01*
X018608Y013075D01*
X018561Y013086D01*
X018515Y013100D01*
X018470Y013118D01*
X018427Y013140D01*
X018386Y013165D01*
X018348Y013194D01*
X018311Y013226D01*
X018277Y013260D01*
X018247Y013297D01*
X018219Y013336D01*
X018194Y013378D01*
X018174Y013422D01*
X018156Y013467D01*
X018143Y013513D01*
X018133Y013560D01*
X018127Y013608D01*
X018125Y013656D01*
X018716Y014739D02*
X018779Y014737D01*
X018842Y014732D01*
X018904Y014723D01*
X018966Y014710D01*
X019027Y014694D01*
X019086Y014674D01*
X019145Y014650D01*
X019202Y014624D01*
X019258Y014594D01*
X019311Y014561D01*
X019363Y014525D01*
X019412Y014486D01*
X019459Y014444D01*
X019504Y014399D01*
X019546Y014352D01*
X019585Y014303D01*
X019621Y014251D01*
X019654Y014198D01*
X019684Y014142D01*
X019710Y014085D01*
X019734Y014026D01*
X019754Y013967D01*
X019770Y013906D01*
X019783Y013844D01*
X019792Y013782D01*
X019797Y013719D01*
X019799Y013656D01*
X019799Y001648D01*
X018125Y001648D02*
X018127Y001696D01*
X018133Y001744D01*
X018143Y001791D01*
X018156Y001837D01*
X018174Y001882D01*
X018194Y001926D01*
X018219Y001968D01*
X018247Y002007D01*
X018277Y002044D01*
X018311Y002078D01*
X018348Y002110D01*
X018386Y002139D01*
X018427Y002164D01*
X018470Y002186D01*
X018515Y002204D01*
X018561Y002218D01*
X018608Y002229D01*
X018656Y002236D01*
X018704Y002239D01*
X018752Y002238D01*
X018800Y002233D01*
X018848Y002224D01*
X018894Y002212D01*
X018939Y002195D01*
X018983Y002175D01*
X019025Y002152D01*
X019065Y002125D01*
X019103Y002095D01*
X019138Y002062D01*
X019170Y002026D01*
X019200Y001988D01*
X019226Y001947D01*
X019248Y001904D01*
X019268Y001860D01*
X019283Y001815D01*
X019295Y001768D01*
X019303Y001720D01*
X019307Y001672D01*
X019307Y001624D01*
X019303Y001576D01*
X019295Y001528D01*
X019283Y001481D01*
X019268Y001436D01*
X019248Y001392D01*
X019226Y001349D01*
X019200Y001308D01*
X019170Y001270D01*
X019138Y001234D01*
X019103Y001201D01*
X019065Y001171D01*
X019025Y001144D01*
X018983Y001121D01*
X018939Y001101D01*
X018894Y001084D01*
X018848Y001072D01*
X018800Y001063D01*
X018752Y001058D01*
X018704Y001057D01*
X018656Y001060D01*
X018608Y001067D01*
X018561Y001078D01*
X018515Y001092D01*
X018470Y001110D01*
X018427Y001132D01*
X018386Y001157D01*
X018348Y001186D01*
X018311Y001218D01*
X018277Y001252D01*
X018247Y001289D01*
X018219Y001328D01*
X018194Y001370D01*
X018174Y001414D01*
X018156Y001459D01*
X018143Y001505D01*
X018133Y001552D01*
X018127Y001600D01*
X018125Y001648D01*
X018716Y000565D02*
X018779Y000567D01*
X018842Y000572D01*
X018904Y000581D01*
X018966Y000594D01*
X019027Y000610D01*
X019086Y000630D01*
X019145Y000654D01*
X019202Y000680D01*
X019258Y000710D01*
X019311Y000743D01*
X019363Y000779D01*
X019412Y000818D01*
X019459Y000860D01*
X019504Y000905D01*
X019546Y000952D01*
X019585Y001001D01*
X019621Y001053D01*
X019654Y001107D01*
X019684Y001162D01*
X019710Y001219D01*
X019734Y001278D01*
X019754Y001337D01*
X019770Y001398D01*
X019783Y001460D01*
X019792Y001522D01*
X019797Y001585D01*
X019799Y001648D01*
X018716Y000566D02*
X006709Y000566D01*
X006118Y001648D02*
X006120Y001696D01*
X006126Y001744D01*
X006136Y001791D01*
X006149Y001837D01*
X006167Y001882D01*
X006187Y001926D01*
X006212Y001968D01*
X006240Y002007D01*
X006270Y002044D01*
X006304Y002078D01*
X006341Y002110D01*
X006379Y002139D01*
X006420Y002164D01*
X006463Y002186D01*
X006508Y002204D01*
X006554Y002218D01*
X006601Y002229D01*
X006649Y002236D01*
X006697Y002239D01*
X006745Y002238D01*
X006793Y002233D01*
X006841Y002224D01*
X006887Y002212D01*
X006932Y002195D01*
X006976Y002175D01*
X007018Y002152D01*
X007058Y002125D01*
X007096Y002095D01*
X007131Y002062D01*
X007163Y002026D01*
X007193Y001988D01*
X007219Y001947D01*
X007241Y001904D01*
X007261Y001860D01*
X007276Y001815D01*
X007288Y001768D01*
X007296Y001720D01*
X007300Y001672D01*
X007300Y001624D01*
X007296Y001576D01*
X007288Y001528D01*
X007276Y001481D01*
X007261Y001436D01*
X007241Y001392D01*
X007219Y001349D01*
X007193Y001308D01*
X007163Y001270D01*
X007131Y001234D01*
X007096Y001201D01*
X007058Y001171D01*
X007018Y001144D01*
X006976Y001121D01*
X006932Y001101D01*
X006887Y001084D01*
X006841Y001072D01*
X006793Y001063D01*
X006745Y001058D01*
X006697Y001057D01*
X006649Y001060D01*
X006601Y001067D01*
X006554Y001078D01*
X006508Y001092D01*
X006463Y001110D01*
X006420Y001132D01*
X006379Y001157D01*
X006341Y001186D01*
X006304Y001218D01*
X006270Y001252D01*
X006240Y001289D01*
X006212Y001328D01*
X006187Y001370D01*
X006167Y001414D01*
X006149Y001459D01*
X006136Y001505D01*
X006126Y001552D01*
X006120Y001600D01*
X006118Y001648D01*
X005626Y001648D02*
X005628Y001585D01*
X005633Y001522D01*
X005642Y001460D01*
X005655Y001398D01*
X005671Y001337D01*
X005691Y001278D01*
X005715Y001219D01*
X005741Y001162D01*
X005771Y001107D01*
X005804Y001053D01*
X005840Y001001D01*
X005879Y000952D01*
X005921Y000905D01*
X005966Y000860D01*
X006013Y000818D01*
X006062Y000779D01*
X006114Y000743D01*
X006167Y000710D01*
X006223Y000680D01*
X006280Y000654D01*
X006339Y000630D01*
X006398Y000610D01*
X006459Y000594D01*
X006521Y000581D01*
X006583Y000572D01*
X006646Y000567D01*
X006709Y000565D01*
D11*
X006758Y003511D03*
X018667Y011794D03*
D12*
X018667Y010794D03*
X006758Y004511D03*
D13*
X006793Y004539D02*
X013812Y004539D01*
X013797Y004502D02*
X013797Y004405D01*
X013834Y004315D01*
X013903Y004247D01*
X013993Y004209D01*
X014090Y004209D01*
X014179Y004247D01*
X014231Y004299D01*
X014568Y004299D01*
X015559Y003307D01*
X015559Y003118D01*
X015508Y003066D01*
X015470Y002976D01*
X015470Y002879D01*
X015508Y002790D01*
X015576Y002721D01*
X015666Y002684D01*
X015763Y002684D01*
X015853Y002721D01*
X015921Y002790D01*
X015958Y002879D01*
X015958Y002976D01*
X015921Y003066D01*
X015869Y003118D01*
X015869Y003435D01*
X015779Y003526D01*
X014696Y004609D01*
X014231Y004609D01*
X014179Y004660D01*
X014090Y004698D01*
X013993Y004698D01*
X013903Y004660D01*
X013834Y004592D01*
X013797Y004502D01*
X013797Y004470D02*
X007193Y004470D01*
X007193Y004476D02*
X006793Y004476D01*
X006793Y004546D01*
X006723Y004546D01*
X006723Y004946D01*
X006578Y004946D01*
X006323Y004691D01*
X006323Y004546D01*
X006723Y004546D01*
X006723Y004476D01*
X006323Y004476D01*
X006323Y004330D01*
X006578Y004076D01*
X006723Y004076D01*
X006723Y004476D01*
X006793Y004476D01*
X006793Y004076D01*
X006938Y004076D01*
X007193Y004330D01*
X007193Y004476D01*
X007193Y004546D02*
X007193Y004691D01*
X006938Y004946D01*
X006793Y004946D01*
X006793Y004546D01*
X007193Y004546D01*
X007193Y004607D02*
X013850Y004607D01*
X013940Y004676D02*
X007193Y004676D01*
X007139Y004744D02*
X019694Y004744D01*
X019694Y004676D02*
X014142Y004676D01*
X013798Y004402D02*
X007193Y004402D01*
X007193Y004333D02*
X013827Y004333D01*
X013885Y004265D02*
X007127Y004265D01*
X007059Y004196D02*
X014670Y004196D01*
X014738Y004128D02*
X006990Y004128D01*
X006793Y004128D02*
X006723Y004128D01*
X006723Y004196D02*
X006793Y004196D01*
X006793Y004265D02*
X006723Y004265D01*
X006723Y004333D02*
X006793Y004333D01*
X006793Y004402D02*
X006723Y004402D01*
X006723Y004470D02*
X006793Y004470D01*
X006723Y004539D02*
X005731Y004539D01*
X005731Y004607D02*
X006323Y004607D01*
X006323Y004676D02*
X005731Y004676D01*
X005731Y004744D02*
X006376Y004744D01*
X006445Y004813D02*
X005731Y004813D01*
X005731Y004881D02*
X006513Y004881D01*
X006723Y004881D02*
X006793Y004881D01*
X006793Y004813D02*
X006723Y004813D01*
X006723Y004744D02*
X006793Y004744D01*
X006793Y004676D02*
X006723Y004676D01*
X006723Y004607D02*
X006793Y004607D01*
X007002Y004881D02*
X019694Y004881D01*
X019694Y004813D02*
X007071Y004813D01*
X006323Y004470D02*
X005731Y004470D01*
X005731Y004402D02*
X006323Y004402D01*
X006323Y004333D02*
X005731Y004333D01*
X005731Y004265D02*
X006388Y004265D01*
X006457Y004196D02*
X005731Y004196D01*
X005731Y004128D02*
X006525Y004128D01*
X006414Y003916D02*
X006353Y003854D01*
X006353Y003167D01*
X006414Y003106D01*
X007101Y003106D01*
X007163Y003167D01*
X007163Y003854D01*
X007101Y003916D01*
X006414Y003916D01*
X006353Y003854D02*
X005731Y003854D01*
X005731Y003922D02*
X014944Y003922D01*
X015012Y003854D02*
X007163Y003854D01*
X007163Y003785D02*
X015081Y003785D01*
X015149Y003717D02*
X007163Y003717D01*
X007163Y003648D02*
X015218Y003648D01*
X015286Y003580D02*
X007163Y003580D01*
X007163Y003511D02*
X015355Y003511D01*
X015423Y003443D02*
X007163Y003443D01*
X007163Y003374D02*
X015492Y003374D01*
X015559Y003306D02*
X007163Y003306D01*
X007163Y003237D02*
X015559Y003237D01*
X015559Y003169D02*
X007163Y003169D01*
X007050Y002895D02*
X015470Y002895D01*
X015470Y002963D02*
X005731Y002963D01*
X005731Y002895D02*
X006422Y002895D01*
X006601Y002940D02*
X006188Y002835D01*
X005831Y002602D01*
X005831Y002602D01*
X005731Y002474D01*
X005731Y012831D01*
X005831Y012703D01*
X006188Y012469D01*
X006601Y012365D01*
X006601Y012365D01*
X007027Y012400D01*
X007417Y012571D01*
X007417Y012571D01*
X007731Y012860D01*
X007731Y012860D01*
X007928Y013224D01*
X007928Y012897D01*
X007982Y012766D01*
X008082Y012666D01*
X008213Y012612D01*
X008354Y012612D01*
X008484Y012666D01*
X008584Y012766D01*
X008638Y012897D01*
X008638Y013400D01*
X011110Y013400D01*
X011240Y013454D01*
X011340Y013554D01*
X011394Y013684D01*
X011394Y013825D01*
X011340Y013956D01*
X011240Y014056D01*
X011110Y014110D01*
X008213Y014110D01*
X008082Y014056D01*
X007982Y013956D01*
X007963Y013908D01*
X007934Y014077D01*
X007934Y014077D01*
X007731Y014452D01*
X007534Y014634D01*
X017875Y014634D01*
X017839Y014610D01*
X017839Y014610D01*
X017577Y014273D01*
X017438Y013870D01*
X017438Y013443D01*
X017577Y013039D01*
X017839Y012703D01*
X018196Y012469D01*
X018609Y012365D01*
X018609Y012365D01*
X019035Y012400D01*
X019425Y012571D01*
X019425Y012571D01*
X019694Y012819D01*
X019694Y002486D01*
X019425Y002733D01*
X019035Y002905D01*
X018609Y002940D01*
X018196Y002835D01*
X018196Y002835D01*
X017839Y002602D01*
X017839Y002602D01*
X017577Y002265D01*
X017546Y002176D01*
X017546Y002408D01*
X017492Y002538D01*
X017392Y002638D01*
X017261Y002692D01*
X017120Y002692D01*
X016990Y002638D01*
X016890Y002538D01*
X016836Y002408D01*
X016836Y001905D01*
X014364Y001905D01*
X014234Y001851D01*
X014134Y001751D01*
X014080Y001621D01*
X014080Y001479D01*
X014134Y001349D01*
X014234Y001249D01*
X014364Y001195D01*
X017261Y001195D01*
X017392Y001249D01*
X017474Y001331D01*
X017577Y001032D01*
X017577Y001032D01*
X017839Y000695D01*
X017875Y000671D01*
X007534Y000671D01*
X007731Y000852D01*
X007731Y000852D01*
X007934Y001228D01*
X008005Y001648D01*
X007934Y002069D01*
X007934Y002069D01*
X007731Y002445D01*
X007417Y002733D01*
X007027Y002905D01*
X007027Y002905D01*
X006601Y002940D01*
X006601Y002940D01*
X006353Y003169D02*
X005731Y003169D01*
X005731Y003237D02*
X006353Y003237D01*
X006353Y003306D02*
X005731Y003306D01*
X005731Y003374D02*
X006353Y003374D01*
X006353Y003443D02*
X005731Y003443D01*
X005731Y003511D02*
X006353Y003511D01*
X006353Y003580D02*
X005731Y003580D01*
X005731Y003648D02*
X006353Y003648D01*
X006353Y003717D02*
X005731Y003717D01*
X005731Y003785D02*
X006353Y003785D01*
X005731Y003991D02*
X014875Y003991D01*
X014807Y004059D02*
X005731Y004059D01*
X005731Y004950D02*
X019694Y004950D01*
X019694Y005018D02*
X005731Y005018D01*
X005731Y005087D02*
X019694Y005087D01*
X019694Y005155D02*
X005731Y005155D01*
X005731Y005224D02*
X019694Y005224D01*
X019694Y005292D02*
X005731Y005292D01*
X005731Y005361D02*
X019694Y005361D01*
X019694Y005429D02*
X005731Y005429D01*
X005731Y005498D02*
X019694Y005498D01*
X019694Y005566D02*
X005731Y005566D01*
X005731Y005635D02*
X019694Y005635D01*
X019694Y005703D02*
X005731Y005703D01*
X005731Y005772D02*
X019694Y005772D01*
X019694Y005840D02*
X005731Y005840D01*
X005731Y005909D02*
X019694Y005909D01*
X019694Y005977D02*
X005731Y005977D01*
X005731Y006046D02*
X019694Y006046D01*
X019694Y006114D02*
X005731Y006114D01*
X005731Y006183D02*
X019694Y006183D01*
X019694Y006251D02*
X005731Y006251D01*
X005731Y006320D02*
X019694Y006320D01*
X019694Y006388D02*
X005731Y006388D01*
X005731Y006457D02*
X019694Y006457D01*
X019694Y006525D02*
X005731Y006525D01*
X005731Y006594D02*
X019694Y006594D01*
X019694Y006662D02*
X005731Y006662D01*
X005731Y006731D02*
X019694Y006731D01*
X019694Y006799D02*
X005731Y006799D01*
X005731Y006868D02*
X019694Y006868D01*
X019694Y006936D02*
X005731Y006936D01*
X005731Y007005D02*
X019694Y007005D01*
X019694Y007073D02*
X005731Y007073D01*
X005731Y007142D02*
X019694Y007142D01*
X019694Y007210D02*
X005731Y007210D01*
X005731Y007279D02*
X019694Y007279D01*
X019694Y007347D02*
X005731Y007347D01*
X005731Y007416D02*
X019694Y007416D01*
X019694Y007484D02*
X005731Y007484D01*
X005731Y007553D02*
X019694Y007553D01*
X019694Y007621D02*
X005731Y007621D01*
X005731Y007690D02*
X019694Y007690D01*
X019694Y007758D02*
X005731Y007758D01*
X005731Y007827D02*
X019694Y007827D01*
X019694Y007895D02*
X005731Y007895D01*
X005731Y007964D02*
X019694Y007964D01*
X019694Y008032D02*
X005731Y008032D01*
X005731Y008101D02*
X019694Y008101D01*
X019694Y008169D02*
X005731Y008169D01*
X005731Y008238D02*
X019694Y008238D01*
X019694Y008306D02*
X005731Y008306D01*
X005731Y008375D02*
X019694Y008375D01*
X019694Y008443D02*
X005731Y008443D01*
X005731Y008512D02*
X019694Y008512D01*
X019694Y008580D02*
X005731Y008580D01*
X005731Y008649D02*
X019694Y008649D01*
X019694Y008717D02*
X005731Y008717D01*
X005731Y008786D02*
X019694Y008786D01*
X019694Y008854D02*
X005731Y008854D01*
X005731Y008923D02*
X019694Y008923D01*
X019694Y008991D02*
X005731Y008991D01*
X005731Y009060D02*
X019694Y009060D01*
X019694Y009128D02*
X005731Y009128D01*
X005731Y009197D02*
X019694Y009197D01*
X019694Y009265D02*
X005731Y009265D01*
X005731Y009334D02*
X019694Y009334D01*
X019694Y009402D02*
X005731Y009402D01*
X005731Y009471D02*
X019694Y009471D01*
X019694Y009539D02*
X005731Y009539D01*
X005731Y009608D02*
X019694Y009608D01*
X019694Y009676D02*
X005731Y009676D01*
X005731Y009745D02*
X019694Y009745D01*
X019694Y009813D02*
X005731Y009813D01*
X005731Y009882D02*
X019694Y009882D01*
X019694Y009950D02*
X005731Y009950D01*
X005731Y010019D02*
X019694Y010019D01*
X019694Y010087D02*
X005731Y010087D01*
X005731Y010156D02*
X019694Y010156D01*
X019694Y010224D02*
X005731Y010224D01*
X005731Y010293D02*
X019694Y010293D01*
X019694Y010361D02*
X018850Y010361D01*
X018847Y010359D02*
X019102Y010614D01*
X019102Y010759D01*
X018702Y010759D01*
X018702Y010359D01*
X018847Y010359D01*
X018918Y010430D02*
X019694Y010430D01*
X019694Y010498D02*
X018987Y010498D01*
X019055Y010567D02*
X019694Y010567D01*
X019694Y010635D02*
X019102Y010635D01*
X019102Y010704D02*
X019694Y010704D01*
X019694Y010772D02*
X018702Y010772D01*
X018702Y010759D02*
X018702Y010829D01*
X018632Y010829D01*
X018632Y010759D01*
X018232Y010759D01*
X018232Y010614D01*
X018487Y010359D01*
X018632Y010359D01*
X018632Y010759D01*
X018702Y010759D01*
X018702Y010704D02*
X018632Y010704D01*
X018632Y010772D02*
X011664Y010772D01*
X011677Y010803D02*
X011640Y010713D01*
X011571Y010644D01*
X011481Y010607D01*
X011384Y010607D01*
X011295Y010644D01*
X011243Y010696D01*
X010581Y010696D01*
X009744Y011533D01*
X009744Y011533D01*
X009699Y011579D01*
X009654Y011624D01*
X009654Y011624D01*
X009653Y011625D01*
X009654Y011688D01*
X009654Y011752D01*
X009654Y011752D01*
X009657Y012193D01*
X009607Y012243D01*
X009570Y012333D01*
X009570Y012430D01*
X009607Y012520D01*
X009676Y012589D01*
X009765Y012626D01*
X009862Y012626D01*
X009952Y012589D01*
X010021Y012520D01*
X010058Y012430D01*
X010058Y012333D01*
X010021Y012243D01*
X009967Y012190D01*
X009964Y011752D01*
X010710Y011006D01*
X011243Y011006D01*
X011295Y011058D01*
X011384Y011095D01*
X011481Y011095D01*
X011571Y011058D01*
X011640Y010989D01*
X011677Y010900D01*
X011677Y010803D01*
X011677Y010841D02*
X018232Y010841D01*
X018232Y010829D02*
X018632Y010829D01*
X018632Y011229D01*
X018487Y011229D01*
X018232Y010974D01*
X018232Y010829D01*
X018232Y010909D02*
X011673Y010909D01*
X011645Y010978D02*
X018236Y010978D01*
X018304Y011046D02*
X011583Y011046D01*
X011283Y011046D02*
X010670Y011046D01*
X010601Y011115D02*
X018373Y011115D01*
X018441Y011183D02*
X010533Y011183D01*
X010464Y011252D02*
X019694Y011252D01*
X019694Y011320D02*
X010396Y011320D01*
X010327Y011389D02*
X019694Y011389D01*
X019694Y011457D02*
X019072Y011457D01*
X019072Y011451D02*
X019072Y012138D01*
X019011Y012199D01*
X018324Y012199D01*
X018262Y012138D01*
X018262Y011451D01*
X018324Y011389D01*
X019011Y011389D01*
X019072Y011451D01*
X019072Y011526D02*
X019694Y011526D01*
X019694Y011594D02*
X019072Y011594D01*
X019072Y011663D02*
X019694Y011663D01*
X019694Y011731D02*
X019072Y011731D01*
X019072Y011800D02*
X019694Y011800D01*
X019694Y011868D02*
X019072Y011868D01*
X019072Y011937D02*
X019694Y011937D01*
X019694Y012005D02*
X019072Y012005D01*
X019072Y012074D02*
X019694Y012074D01*
X019694Y012142D02*
X019067Y012142D01*
X019035Y012400D02*
X019035Y012400D01*
X019072Y012416D02*
X019694Y012416D01*
X019694Y012348D02*
X010058Y012348D01*
X010058Y012416D02*
X018405Y012416D01*
X018196Y012469D02*
X018196Y012469D01*
X018172Y012485D02*
X010035Y012485D01*
X009987Y012553D02*
X018067Y012553D01*
X017962Y012622D02*
X009872Y012622D01*
X009756Y012622D02*
X008377Y012622D01*
X008508Y012690D02*
X017858Y012690D01*
X017839Y012703D02*
X017839Y012703D01*
X017795Y012759D02*
X008577Y012759D01*
X008610Y012827D02*
X017742Y012827D01*
X017688Y012896D02*
X008638Y012896D01*
X008638Y012964D02*
X017635Y012964D01*
X017582Y013033D02*
X008638Y013033D01*
X008638Y013101D02*
X017555Y013101D01*
X017577Y013039D02*
X017577Y013039D01*
X017532Y013170D02*
X008638Y013170D01*
X008638Y013238D02*
X017508Y013238D01*
X017485Y013307D02*
X008638Y013307D01*
X008638Y013375D02*
X017461Y013375D01*
X017438Y013444D02*
X011216Y013444D01*
X011299Y013512D02*
X017438Y013512D01*
X017438Y013581D02*
X011351Y013581D01*
X011380Y013649D02*
X017438Y013649D01*
X017438Y013718D02*
X011394Y013718D01*
X011394Y013786D02*
X017438Y013786D01*
X017438Y013855D02*
X011382Y013855D01*
X011354Y013923D02*
X017456Y013923D01*
X017480Y013992D02*
X011304Y013992D01*
X011229Y014060D02*
X017503Y014060D01*
X017527Y014129D02*
X007906Y014129D01*
X007937Y014060D02*
X008093Y014060D01*
X008018Y013992D02*
X007949Y013992D01*
X007960Y013923D02*
X007969Y013923D01*
X007869Y014197D02*
X017550Y014197D01*
X017574Y014266D02*
X007832Y014266D01*
X007795Y014334D02*
X017624Y014334D01*
X017577Y014273D02*
X017577Y014273D01*
X017677Y014403D02*
X007758Y014403D01*
X007731Y014452D02*
X007731Y014452D01*
X007731Y014452D01*
X007711Y014471D02*
X017731Y014471D01*
X017784Y014540D02*
X007636Y014540D01*
X007562Y014608D02*
X017837Y014608D01*
X017839Y014610D02*
X017839Y014610D01*
X019629Y012759D02*
X019694Y012759D01*
X019694Y012690D02*
X019555Y012690D01*
X019480Y012622D02*
X019694Y012622D01*
X019694Y012553D02*
X019384Y012553D01*
X019228Y012485D02*
X019694Y012485D01*
X019694Y012279D02*
X010036Y012279D01*
X009988Y012211D02*
X019694Y012211D01*
X019694Y011183D02*
X018893Y011183D01*
X018847Y011229D02*
X018702Y011229D01*
X018702Y010829D01*
X019102Y010829D01*
X019102Y010974D01*
X018847Y011229D01*
X018702Y011183D02*
X018632Y011183D01*
X018632Y011115D02*
X018702Y011115D01*
X018702Y011046D02*
X018632Y011046D01*
X018632Y010978D02*
X018702Y010978D01*
X018702Y010909D02*
X018632Y010909D01*
X018632Y010841D02*
X018702Y010841D01*
X018702Y010635D02*
X018632Y010635D01*
X018632Y010567D02*
X018702Y010567D01*
X018702Y010498D02*
X018632Y010498D01*
X018632Y010430D02*
X018702Y010430D01*
X018702Y010361D02*
X018632Y010361D01*
X018485Y010361D02*
X005731Y010361D01*
X005731Y010430D02*
X018416Y010430D01*
X018348Y010498D02*
X005731Y010498D01*
X005731Y010567D02*
X018279Y010567D01*
X018232Y010635D02*
X011549Y010635D01*
X011631Y010704D02*
X018232Y010704D01*
X018962Y011115D02*
X019694Y011115D01*
X019694Y011046D02*
X019030Y011046D01*
X019099Y010978D02*
X019694Y010978D01*
X019694Y010909D02*
X019102Y010909D01*
X019102Y010841D02*
X019694Y010841D01*
X018262Y011457D02*
X010259Y011457D01*
X010190Y011526D02*
X018262Y011526D01*
X018262Y011594D02*
X010122Y011594D01*
X010053Y011663D02*
X018262Y011663D01*
X018262Y011731D02*
X009985Y011731D01*
X009965Y011800D02*
X018262Y011800D01*
X018262Y011868D02*
X009965Y011868D01*
X009966Y011937D02*
X018262Y011937D01*
X018262Y012005D02*
X009966Y012005D01*
X009967Y012074D02*
X018262Y012074D01*
X018267Y012142D02*
X009967Y012142D01*
X009657Y012142D02*
X005731Y012142D01*
X005731Y012074D02*
X009657Y012074D01*
X009656Y012005D02*
X005731Y012005D01*
X005731Y011937D02*
X009656Y011937D01*
X009655Y011868D02*
X005731Y011868D01*
X005731Y011800D02*
X009655Y011800D01*
X009654Y011731D02*
X005731Y011731D01*
X005731Y011663D02*
X009654Y011663D01*
X009683Y011594D02*
X005731Y011594D01*
X005731Y011526D02*
X009752Y011526D01*
X009820Y011457D02*
X005731Y011457D01*
X005731Y011389D02*
X009889Y011389D01*
X009957Y011320D02*
X005731Y011320D01*
X005731Y011252D02*
X010026Y011252D01*
X010094Y011183D02*
X005731Y011183D01*
X005731Y011115D02*
X010163Y011115D01*
X010231Y011046D02*
X005731Y011046D01*
X005731Y010978D02*
X010300Y010978D01*
X010368Y010909D02*
X005731Y010909D01*
X005731Y010841D02*
X010437Y010841D01*
X010505Y010772D02*
X005731Y010772D01*
X005731Y010704D02*
X010574Y010704D01*
X011316Y010635D02*
X005731Y010635D01*
X005731Y012211D02*
X009640Y012211D01*
X009592Y012279D02*
X005731Y012279D01*
X005731Y012348D02*
X009570Y012348D01*
X009570Y012416D02*
X007064Y012416D01*
X007027Y012400D02*
X007027Y012400D01*
X007220Y012485D02*
X009592Y012485D01*
X009640Y012553D02*
X007376Y012553D01*
X007472Y012622D02*
X008190Y012622D01*
X008058Y012690D02*
X007547Y012690D01*
X007621Y012759D02*
X007990Y012759D01*
X007957Y012827D02*
X007696Y012827D01*
X007751Y012896D02*
X007929Y012896D01*
X007928Y012964D02*
X007788Y012964D01*
X007825Y013033D02*
X007928Y013033D01*
X007928Y013101D02*
X007862Y013101D01*
X007899Y013170D02*
X007928Y013170D01*
X006397Y012416D02*
X005731Y012416D01*
X005731Y012485D02*
X006164Y012485D01*
X006188Y012469D02*
X006188Y012469D01*
X006059Y012553D02*
X005731Y012553D01*
X005731Y012622D02*
X005955Y012622D01*
X005850Y012690D02*
X005731Y012690D01*
X005731Y012759D02*
X005787Y012759D01*
X005831Y012703D02*
X005831Y012703D01*
X005831Y012703D01*
X005734Y012827D02*
X005731Y012827D01*
X014697Y004607D02*
X019694Y004607D01*
X019694Y004539D02*
X014766Y004539D01*
X014834Y004470D02*
X019694Y004470D01*
X019694Y004402D02*
X014903Y004402D01*
X014971Y004333D02*
X019694Y004333D01*
X019694Y004265D02*
X015040Y004265D01*
X015108Y004196D02*
X019694Y004196D01*
X019694Y004128D02*
X015177Y004128D01*
X015245Y004059D02*
X019694Y004059D01*
X019694Y003991D02*
X015314Y003991D01*
X015382Y003922D02*
X019694Y003922D01*
X019694Y003854D02*
X015451Y003854D01*
X015519Y003785D02*
X019694Y003785D01*
X019694Y003717D02*
X015588Y003717D01*
X015656Y003648D02*
X019694Y003648D01*
X019694Y003580D02*
X015725Y003580D01*
X015793Y003511D02*
X019694Y003511D01*
X019694Y003443D02*
X015862Y003443D01*
X015869Y003374D02*
X019694Y003374D01*
X019694Y003306D02*
X015869Y003306D01*
X015869Y003237D02*
X019694Y003237D01*
X019694Y003169D02*
X015869Y003169D01*
X015887Y003100D02*
X019694Y003100D01*
X019694Y003032D02*
X015936Y003032D01*
X015958Y002963D02*
X019694Y002963D01*
X019694Y002895D02*
X019058Y002895D01*
X019214Y002826D02*
X019694Y002826D01*
X019694Y002758D02*
X019370Y002758D01*
X019473Y002689D02*
X019694Y002689D01*
X019694Y002621D02*
X019548Y002621D01*
X019622Y002552D02*
X019694Y002552D01*
X018609Y002940D02*
X018609Y002940D01*
X018430Y002895D02*
X015958Y002895D01*
X015936Y002826D02*
X018182Y002826D01*
X018077Y002758D02*
X015889Y002758D01*
X015776Y002689D02*
X017113Y002689D01*
X017269Y002689D02*
X017972Y002689D01*
X017867Y002621D02*
X017409Y002621D01*
X017478Y002552D02*
X017800Y002552D01*
X017839Y002602D02*
X017839Y002602D01*
X017747Y002484D02*
X017514Y002484D01*
X017543Y002415D02*
X017693Y002415D01*
X017640Y002347D02*
X017546Y002347D01*
X017546Y002278D02*
X017587Y002278D01*
X017577Y002265D02*
X017577Y002265D01*
X017557Y002210D02*
X017546Y002210D01*
X016836Y002210D02*
X007858Y002210D01*
X007821Y002278D02*
X016836Y002278D01*
X016836Y002347D02*
X007784Y002347D01*
X007747Y002415D02*
X016839Y002415D01*
X016867Y002484D02*
X007689Y002484D01*
X007731Y002445D02*
X007731Y002445D01*
X007614Y002552D02*
X016904Y002552D01*
X016972Y002621D02*
X007540Y002621D01*
X007465Y002689D02*
X015653Y002689D01*
X015539Y002758D02*
X007362Y002758D01*
X007417Y002733D02*
X007417Y002733D01*
X007206Y002826D02*
X015492Y002826D01*
X015493Y003032D02*
X005731Y003032D01*
X005731Y003100D02*
X015542Y003100D01*
X014601Y004265D02*
X014198Y004265D01*
X016836Y002141D02*
X007895Y002141D01*
X007933Y002073D02*
X016836Y002073D01*
X016836Y002004D02*
X007945Y002004D01*
X007957Y001936D02*
X016836Y001936D01*
X017462Y001319D02*
X017478Y001319D01*
X017501Y001251D02*
X017394Y001251D01*
X017525Y001182D02*
X007910Y001182D01*
X007934Y001228D02*
X007934Y001228D01*
X007938Y001251D02*
X014232Y001251D01*
X014164Y001319D02*
X007950Y001319D01*
X007961Y001388D02*
X014118Y001388D01*
X014089Y001456D02*
X007973Y001456D01*
X007984Y001525D02*
X014080Y001525D01*
X014080Y001593D02*
X007995Y001593D01*
X008002Y001662D02*
X014097Y001662D01*
X014125Y001730D02*
X007991Y001730D01*
X007980Y001799D02*
X014182Y001799D01*
X014273Y001867D02*
X007968Y001867D01*
X007873Y001114D02*
X017548Y001114D01*
X017572Y001045D02*
X007836Y001045D01*
X007799Y000977D02*
X017619Y000977D01*
X017672Y000908D02*
X007762Y000908D01*
X007718Y000840D02*
X017726Y000840D01*
X017779Y000771D02*
X007643Y000771D01*
X007569Y000703D02*
X017832Y000703D01*
X017839Y000695D02*
X017839Y000695D01*
X017839Y000695D01*
X006188Y002835D02*
X006188Y002835D01*
X006174Y002826D02*
X005731Y002826D01*
X005731Y002758D02*
X006069Y002758D01*
X005964Y002689D02*
X005731Y002689D01*
X005731Y002621D02*
X005859Y002621D01*
X005831Y002602D02*
X005831Y002602D01*
X005792Y002552D02*
X005731Y002552D01*
X005731Y002484D02*
X005739Y002484D01*
D14*
X008775Y002633D03*
X008775Y001894D03*
X008775Y001107D03*
X011482Y002731D03*
X012023Y002534D03*
X012319Y002534D03*
X012614Y002534D03*
X011482Y003125D03*
X011482Y003469D03*
X011482Y003814D03*
X011138Y004650D03*
X011138Y004995D03*
X011138Y005339D03*
X009218Y004454D03*
X008775Y004011D03*
X008775Y003469D03*
X013155Y003814D03*
X014238Y003863D03*
X014632Y003863D03*
X014632Y003469D03*
X014632Y003076D03*
X014632Y002682D03*
X014632Y002288D03*
X015173Y002288D03*
X015813Y002288D03*
X016551Y002042D03*
X016207Y002928D03*
X015714Y002928D03*
X016699Y003026D03*
X016748Y003715D03*
X016748Y004158D03*
X016354Y004552D03*
X016010Y004896D03*
X015665Y005241D03*
X015222Y005339D03*
X014681Y005339D03*
X014090Y005339D03*
X013549Y005339D03*
X013549Y004995D03*
X013057Y004995D03*
X013057Y005339D03*
X013057Y004650D03*
X014041Y004454D03*
X014090Y002288D03*
X013401Y000812D03*
X014779Y000812D03*
X015764Y000812D03*
X016551Y001058D03*
X014336Y010015D03*
X014336Y010359D03*
X014336Y010753D03*
X013992Y011540D03*
X013992Y011934D03*
X013992Y012377D03*
X013992Y012820D03*
X013549Y012820D03*
X013155Y012820D03*
X012762Y012820D03*
X011384Y013017D03*
X010842Y013017D03*
X010252Y013017D03*
X009710Y012967D03*
X009218Y012475D03*
X008726Y012328D03*
X008726Y011786D03*
X008726Y011245D03*
X009071Y010851D03*
X009415Y010507D03*
X009760Y010162D03*
X010203Y010015D03*
X010695Y010015D03*
X011187Y010015D03*
X011679Y010015D03*
X011679Y010408D03*
X011433Y010851D03*
X011335Y011442D03*
X010842Y011442D03*
X010842Y011835D03*
X010842Y012229D03*
X010842Y012623D03*
X009814Y012382D03*
X008972Y012967D03*
X008972Y014444D03*
X009957Y014444D03*
X010892Y014444D03*
X012122Y014444D03*
X016748Y014394D03*
X016748Y013558D03*
X016748Y012770D03*
X016748Y012032D03*
X016699Y011442D03*
X016207Y010900D03*
X012319Y010704D03*
X012319Y010359D03*
X012319Y010015D03*
X012319Y011491D03*
D15*
X011433Y010851D02*
X010646Y010851D01*
X009809Y011688D01*
X009814Y012382D01*
X014041Y004454D02*
X014632Y004454D01*
X015714Y003371D01*
X015714Y002928D01*
D16*
X017191Y002337D03*
X017191Y001944D03*
X017191Y001550D03*
X014779Y001550D03*
X014435Y001550D03*
X008283Y012967D03*
X008283Y013361D03*
X008283Y013755D03*
X010695Y013755D03*
X011039Y013755D03*
D17*
X008283Y013755D01*
X008283Y013361D01*
X008283Y012967D01*
X017191Y002337D02*
X017191Y001550D01*
X014435Y001550D01*
M02*
