G75*
%MOIN*%
%OFA0B0*%
%FSLAX24Y24*%
%IPPOS*%
%LPD*%
%AMOC8*
5,1,8,0,0,1.08239X$1,22.5*
%
%ADD10C,0.0000*%
%ADD11C,0.0060*%
%ADD12C,0.0030*%
%ADD13C,0.0080*%
%ADD14C,0.0040*%
%ADD15R,0.0433X0.0226*%
%ADD16C,0.0050*%
D10*
X005626Y001648D02*
X005626Y013656D01*
X006118Y013656D02*
X006120Y013704D01*
X006126Y013752D01*
X006136Y013799D01*
X006149Y013845D01*
X006167Y013890D01*
X006187Y013934D01*
X006212Y013976D01*
X006240Y014015D01*
X006270Y014052D01*
X006304Y014086D01*
X006341Y014118D01*
X006379Y014147D01*
X006420Y014172D01*
X006463Y014194D01*
X006508Y014212D01*
X006554Y014226D01*
X006601Y014237D01*
X006649Y014244D01*
X006697Y014247D01*
X006745Y014246D01*
X006793Y014241D01*
X006841Y014232D01*
X006887Y014220D01*
X006932Y014203D01*
X006976Y014183D01*
X007018Y014160D01*
X007058Y014133D01*
X007096Y014103D01*
X007131Y014070D01*
X007163Y014034D01*
X007193Y013996D01*
X007219Y013955D01*
X007241Y013912D01*
X007261Y013868D01*
X007276Y013823D01*
X007288Y013776D01*
X007296Y013728D01*
X007300Y013680D01*
X007300Y013632D01*
X007296Y013584D01*
X007288Y013536D01*
X007276Y013489D01*
X007261Y013444D01*
X007241Y013400D01*
X007219Y013357D01*
X007193Y013316D01*
X007163Y013278D01*
X007131Y013242D01*
X007096Y013209D01*
X007058Y013179D01*
X007018Y013152D01*
X006976Y013129D01*
X006932Y013109D01*
X006887Y013092D01*
X006841Y013080D01*
X006793Y013071D01*
X006745Y013066D01*
X006697Y013065D01*
X006649Y013068D01*
X006601Y013075D01*
X006554Y013086D01*
X006508Y013100D01*
X006463Y013118D01*
X006420Y013140D01*
X006379Y013165D01*
X006341Y013194D01*
X006304Y013226D01*
X006270Y013260D01*
X006240Y013297D01*
X006212Y013336D01*
X006187Y013378D01*
X006167Y013422D01*
X006149Y013467D01*
X006136Y013513D01*
X006126Y013560D01*
X006120Y013608D01*
X006118Y013656D01*
X005626Y013656D02*
X005628Y013719D01*
X005633Y013782D01*
X005642Y013844D01*
X005655Y013906D01*
X005671Y013967D01*
X005691Y014026D01*
X005715Y014085D01*
X005741Y014142D01*
X005771Y014198D01*
X005804Y014251D01*
X005840Y014303D01*
X005879Y014352D01*
X005921Y014399D01*
X005966Y014444D01*
X006013Y014486D01*
X006062Y014525D01*
X006114Y014561D01*
X006168Y014594D01*
X006223Y014624D01*
X006280Y014650D01*
X006339Y014674D01*
X006398Y014694D01*
X006459Y014710D01*
X006521Y014723D01*
X006583Y014732D01*
X006646Y014737D01*
X006709Y014739D01*
X018716Y014739D01*
X018125Y013656D02*
X018127Y013704D01*
X018133Y013752D01*
X018143Y013799D01*
X018156Y013845D01*
X018174Y013890D01*
X018194Y013934D01*
X018219Y013976D01*
X018247Y014015D01*
X018277Y014052D01*
X018311Y014086D01*
X018348Y014118D01*
X018386Y014147D01*
X018427Y014172D01*
X018470Y014194D01*
X018515Y014212D01*
X018561Y014226D01*
X018608Y014237D01*
X018656Y014244D01*
X018704Y014247D01*
X018752Y014246D01*
X018800Y014241D01*
X018848Y014232D01*
X018894Y014220D01*
X018939Y014203D01*
X018983Y014183D01*
X019025Y014160D01*
X019065Y014133D01*
X019103Y014103D01*
X019138Y014070D01*
X019170Y014034D01*
X019200Y013996D01*
X019226Y013955D01*
X019248Y013912D01*
X019268Y013868D01*
X019283Y013823D01*
X019295Y013776D01*
X019303Y013728D01*
X019307Y013680D01*
X019307Y013632D01*
X019303Y013584D01*
X019295Y013536D01*
X019283Y013489D01*
X019268Y013444D01*
X019248Y013400D01*
X019226Y013357D01*
X019200Y013316D01*
X019170Y013278D01*
X019138Y013242D01*
X019103Y013209D01*
X019065Y013179D01*
X019025Y013152D01*
X018983Y013129D01*
X018939Y013109D01*
X018894Y013092D01*
X018848Y013080D01*
X018800Y013071D01*
X018752Y013066D01*
X018704Y013065D01*
X018656Y013068D01*
X018608Y013075D01*
X018561Y013086D01*
X018515Y013100D01*
X018470Y013118D01*
X018427Y013140D01*
X018386Y013165D01*
X018348Y013194D01*
X018311Y013226D01*
X018277Y013260D01*
X018247Y013297D01*
X018219Y013336D01*
X018194Y013378D01*
X018174Y013422D01*
X018156Y013467D01*
X018143Y013513D01*
X018133Y013560D01*
X018127Y013608D01*
X018125Y013656D01*
X018716Y014739D02*
X018779Y014737D01*
X018842Y014732D01*
X018904Y014723D01*
X018966Y014710D01*
X019027Y014694D01*
X019086Y014674D01*
X019145Y014650D01*
X019202Y014624D01*
X019258Y014594D01*
X019311Y014561D01*
X019363Y014525D01*
X019412Y014486D01*
X019459Y014444D01*
X019504Y014399D01*
X019546Y014352D01*
X019585Y014303D01*
X019621Y014251D01*
X019654Y014198D01*
X019684Y014142D01*
X019710Y014085D01*
X019734Y014026D01*
X019754Y013967D01*
X019770Y013906D01*
X019783Y013844D01*
X019792Y013782D01*
X019797Y013719D01*
X019799Y013656D01*
X019799Y001648D01*
X018125Y001648D02*
X018127Y001696D01*
X018133Y001744D01*
X018143Y001791D01*
X018156Y001837D01*
X018174Y001882D01*
X018194Y001926D01*
X018219Y001968D01*
X018247Y002007D01*
X018277Y002044D01*
X018311Y002078D01*
X018348Y002110D01*
X018386Y002139D01*
X018427Y002164D01*
X018470Y002186D01*
X018515Y002204D01*
X018561Y002218D01*
X018608Y002229D01*
X018656Y002236D01*
X018704Y002239D01*
X018752Y002238D01*
X018800Y002233D01*
X018848Y002224D01*
X018894Y002212D01*
X018939Y002195D01*
X018983Y002175D01*
X019025Y002152D01*
X019065Y002125D01*
X019103Y002095D01*
X019138Y002062D01*
X019170Y002026D01*
X019200Y001988D01*
X019226Y001947D01*
X019248Y001904D01*
X019268Y001860D01*
X019283Y001815D01*
X019295Y001768D01*
X019303Y001720D01*
X019307Y001672D01*
X019307Y001624D01*
X019303Y001576D01*
X019295Y001528D01*
X019283Y001481D01*
X019268Y001436D01*
X019248Y001392D01*
X019226Y001349D01*
X019200Y001308D01*
X019170Y001270D01*
X019138Y001234D01*
X019103Y001201D01*
X019065Y001171D01*
X019025Y001144D01*
X018983Y001121D01*
X018939Y001101D01*
X018894Y001084D01*
X018848Y001072D01*
X018800Y001063D01*
X018752Y001058D01*
X018704Y001057D01*
X018656Y001060D01*
X018608Y001067D01*
X018561Y001078D01*
X018515Y001092D01*
X018470Y001110D01*
X018427Y001132D01*
X018386Y001157D01*
X018348Y001186D01*
X018311Y001218D01*
X018277Y001252D01*
X018247Y001289D01*
X018219Y001328D01*
X018194Y001370D01*
X018174Y001414D01*
X018156Y001459D01*
X018143Y001505D01*
X018133Y001552D01*
X018127Y001600D01*
X018125Y001648D01*
X018716Y000565D02*
X018779Y000567D01*
X018842Y000572D01*
X018904Y000581D01*
X018966Y000594D01*
X019027Y000610D01*
X019086Y000630D01*
X019145Y000654D01*
X019202Y000680D01*
X019258Y000710D01*
X019311Y000743D01*
X019363Y000779D01*
X019412Y000818D01*
X019459Y000860D01*
X019504Y000905D01*
X019546Y000952D01*
X019585Y001001D01*
X019621Y001053D01*
X019654Y001107D01*
X019684Y001162D01*
X019710Y001219D01*
X019734Y001278D01*
X019754Y001337D01*
X019770Y001398D01*
X019783Y001460D01*
X019792Y001522D01*
X019797Y001585D01*
X019799Y001648D01*
X018716Y000566D02*
X006709Y000566D01*
X006118Y001648D02*
X006120Y001696D01*
X006126Y001744D01*
X006136Y001791D01*
X006149Y001837D01*
X006167Y001882D01*
X006187Y001926D01*
X006212Y001968D01*
X006240Y002007D01*
X006270Y002044D01*
X006304Y002078D01*
X006341Y002110D01*
X006379Y002139D01*
X006420Y002164D01*
X006463Y002186D01*
X006508Y002204D01*
X006554Y002218D01*
X006601Y002229D01*
X006649Y002236D01*
X006697Y002239D01*
X006745Y002238D01*
X006793Y002233D01*
X006841Y002224D01*
X006887Y002212D01*
X006932Y002195D01*
X006976Y002175D01*
X007018Y002152D01*
X007058Y002125D01*
X007096Y002095D01*
X007131Y002062D01*
X007163Y002026D01*
X007193Y001988D01*
X007219Y001947D01*
X007241Y001904D01*
X007261Y001860D01*
X007276Y001815D01*
X007288Y001768D01*
X007296Y001720D01*
X007300Y001672D01*
X007300Y001624D01*
X007296Y001576D01*
X007288Y001528D01*
X007276Y001481D01*
X007261Y001436D01*
X007241Y001392D01*
X007219Y001349D01*
X007193Y001308D01*
X007163Y001270D01*
X007131Y001234D01*
X007096Y001201D01*
X007058Y001171D01*
X007018Y001144D01*
X006976Y001121D01*
X006932Y001101D01*
X006887Y001084D01*
X006841Y001072D01*
X006793Y001063D01*
X006745Y001058D01*
X006697Y001057D01*
X006649Y001060D01*
X006601Y001067D01*
X006554Y001078D01*
X006508Y001092D01*
X006463Y001110D01*
X006420Y001132D01*
X006379Y001157D01*
X006341Y001186D01*
X006304Y001218D01*
X006270Y001252D01*
X006240Y001289D01*
X006212Y001328D01*
X006187Y001370D01*
X006167Y001414D01*
X006149Y001459D01*
X006136Y001505D01*
X006126Y001552D01*
X006120Y001600D01*
X006118Y001648D01*
X005626Y001648D02*
X005628Y001585D01*
X005633Y001522D01*
X005642Y001460D01*
X005655Y001398D01*
X005671Y001337D01*
X005691Y001278D01*
X005715Y001219D01*
X005741Y001162D01*
X005771Y001107D01*
X005804Y001053D01*
X005840Y001001D01*
X005879Y000952D01*
X005921Y000905D01*
X005966Y000860D01*
X006013Y000818D01*
X006062Y000779D01*
X006114Y000743D01*
X006167Y000710D01*
X006223Y000680D01*
X006280Y000654D01*
X006339Y000630D01*
X006398Y000610D01*
X006459Y000594D01*
X006521Y000581D01*
X006583Y000572D01*
X006646Y000567D01*
X006709Y000565D01*
D11*
X006508Y003011D02*
X006258Y003261D01*
X006258Y003761D01*
X006508Y004011D01*
X006258Y004261D01*
X006258Y004761D01*
X006508Y005011D01*
X007008Y005011D01*
X007258Y004761D01*
X007258Y004261D01*
X007008Y004011D01*
X007258Y003761D01*
X007258Y003261D01*
X007008Y003011D01*
X006508Y003011D01*
X006508Y004011D02*
X007008Y004011D01*
X007454Y007469D02*
X007560Y007469D01*
X007667Y007576D01*
X007667Y008109D01*
X007885Y007896D02*
X008205Y007896D01*
X008312Y008003D01*
X008312Y008216D01*
X008205Y008323D01*
X007885Y008323D01*
X007885Y007682D01*
X007667Y007682D02*
X007347Y007682D01*
X007240Y007789D01*
X007240Y008109D01*
X007023Y008003D02*
X007023Y007682D01*
X007023Y008003D02*
X006916Y008109D01*
X006596Y008109D01*
X006596Y007682D01*
X006378Y007682D02*
X006378Y008109D01*
X006165Y008323D01*
X005951Y008109D01*
X005951Y007682D01*
X005951Y008003D02*
X006378Y008003D01*
X008529Y008323D02*
X008529Y007682D01*
X008850Y007682D01*
X008956Y007789D01*
X008956Y008216D01*
X008850Y008323D01*
X008529Y008323D01*
X009174Y008323D02*
X009494Y008323D01*
X009601Y008216D01*
X009601Y008109D01*
X009494Y008003D01*
X009174Y008003D01*
X009494Y008003D02*
X009601Y007896D01*
X009601Y007789D01*
X009494Y007682D01*
X009174Y007682D01*
X009174Y008323D01*
X010252Y011639D02*
X010492Y011639D01*
X011192Y011639D02*
X011432Y011639D01*
X011432Y012819D02*
X011192Y012819D01*
X010492Y012819D02*
X010252Y012819D01*
X018167Y012044D02*
X018167Y011544D01*
X018417Y011294D01*
X018167Y011044D01*
X018167Y010544D01*
X018417Y010294D01*
X018917Y010294D01*
X019167Y010544D01*
X019167Y011044D01*
X018917Y011294D01*
X018417Y011294D01*
X018917Y011294D02*
X019167Y011544D01*
X019167Y012044D01*
X018917Y012294D01*
X018417Y012294D01*
X018167Y012044D01*
X015222Y003666D02*
X014982Y003666D01*
X014282Y003666D02*
X014042Y003666D01*
X014042Y002486D02*
X014282Y002486D01*
X014982Y002486D02*
X015222Y002486D01*
D12*
X007684Y003974D02*
X007684Y004022D01*
X007636Y004071D01*
X007394Y004071D01*
X007394Y004119D02*
X007394Y004022D01*
X007394Y004220D02*
X007394Y004365D01*
X007442Y004414D01*
X007539Y004414D01*
X007588Y004365D01*
X007588Y004220D01*
X007684Y004220D02*
X007394Y004220D01*
X007491Y004515D02*
X007394Y004612D01*
X007684Y004612D01*
X007684Y004708D02*
X007684Y004515D01*
X007684Y003974D02*
X007636Y003926D01*
X017982Y010525D02*
X018031Y010574D01*
X018031Y010622D01*
X017982Y010670D01*
X017740Y010670D01*
X017740Y010622D02*
X017740Y010719D01*
X017740Y010820D02*
X017740Y010965D01*
X017789Y011013D01*
X017885Y011013D01*
X017934Y010965D01*
X017934Y010820D01*
X018031Y010820D02*
X017740Y010820D01*
X017789Y011114D02*
X017740Y011163D01*
X017740Y011260D01*
X017789Y011308D01*
X017837Y011308D01*
X018031Y011114D01*
X018031Y011308D01*
X007800Y011554D02*
X007751Y011506D01*
X007655Y011506D01*
X007606Y011554D01*
X007606Y011651D02*
X007703Y011699D01*
X007751Y011699D01*
X007800Y011651D01*
X007800Y011554D01*
X007606Y011651D02*
X007606Y011796D01*
X007800Y011796D01*
X007408Y011796D02*
X007408Y011506D01*
X007312Y011506D02*
X007505Y011506D01*
X007312Y011699D02*
X007408Y011796D01*
X007210Y011748D02*
X007017Y011554D01*
X007065Y011506D01*
X007162Y011506D01*
X007210Y011554D01*
X007210Y011748D01*
X007162Y011796D01*
X007065Y011796D01*
X007017Y011748D01*
X007017Y011554D01*
X006916Y011506D02*
X006722Y011506D01*
X006916Y011699D01*
X006916Y011748D01*
X006867Y011796D01*
X006771Y011796D01*
X006722Y011748D01*
X006621Y011796D02*
X006428Y011603D01*
X006476Y011651D02*
X006621Y011506D01*
X006428Y011506D02*
X006428Y011796D01*
X006326Y011748D02*
X006278Y011796D01*
X006181Y011796D01*
X006133Y011748D01*
X006133Y011699D01*
X006181Y011651D01*
X006278Y011651D01*
X006326Y011603D01*
X006326Y011554D01*
X006278Y011506D01*
X006181Y011506D01*
X006133Y011554D01*
D13*
X008471Y009974D02*
X009085Y009974D01*
X008778Y010281D02*
X008778Y009667D01*
X013913Y011511D02*
X013913Y014424D01*
X016827Y014424D01*
X016827Y011511D01*
X013913Y011511D01*
X014199Y012967D02*
X014201Y013032D01*
X014206Y013097D01*
X014215Y013161D01*
X014228Y013224D01*
X014244Y013287D01*
X014264Y013349D01*
X014286Y013409D01*
X014313Y013468D01*
X014342Y013526D01*
X014375Y013582D01*
X014410Y013636D01*
X014449Y013688D01*
X014490Y013738D01*
X014534Y013785D01*
X014581Y013830D01*
X014630Y013872D01*
X014681Y013912D01*
X014199Y012968D02*
X014201Y012903D01*
X014206Y012838D01*
X014215Y012774D01*
X014228Y012711D01*
X014244Y012648D01*
X014264Y012586D01*
X014286Y012526D01*
X014313Y012467D01*
X014342Y012409D01*
X014375Y012353D01*
X014410Y012299D01*
X014449Y012247D01*
X014490Y012197D01*
X014534Y012150D01*
X014581Y012105D01*
X014630Y012063D01*
X014681Y012023D01*
X016541Y012967D02*
X016539Y013032D01*
X016534Y013097D01*
X016525Y013161D01*
X016512Y013224D01*
X016496Y013287D01*
X016476Y013349D01*
X016454Y013409D01*
X016427Y013468D01*
X016398Y013526D01*
X016365Y013582D01*
X016330Y013636D01*
X016291Y013688D01*
X016250Y013738D01*
X016206Y013785D01*
X016159Y013830D01*
X016110Y013872D01*
X016059Y013912D01*
X016541Y012968D02*
X016539Y012903D01*
X016534Y012838D01*
X016525Y012774D01*
X016512Y012711D01*
X016496Y012648D01*
X016476Y012586D01*
X016454Y012526D01*
X016427Y012467D01*
X016398Y012409D01*
X016365Y012353D01*
X016330Y012299D01*
X016291Y012247D01*
X016250Y012197D01*
X016206Y012150D01*
X016159Y012105D01*
X016110Y012063D01*
X016059Y012023D01*
X016519Y010166D02*
X016519Y009553D01*
X016825Y009859D02*
X016212Y009859D01*
X016568Y005786D02*
X016568Y005173D01*
X016261Y005480D02*
X016875Y005480D01*
X011561Y003843D02*
X011561Y000930D01*
X008647Y000930D01*
X008647Y003843D01*
X011561Y003843D01*
X011275Y002387D02*
X011273Y002322D01*
X011268Y002257D01*
X011259Y002193D01*
X011246Y002130D01*
X011230Y002067D01*
X011210Y002005D01*
X011188Y001945D01*
X011161Y001886D01*
X011132Y001828D01*
X011099Y001772D01*
X011064Y001718D01*
X011025Y001666D01*
X010984Y001616D01*
X010940Y001569D01*
X010893Y001524D01*
X010844Y001482D01*
X010793Y001442D01*
X011275Y002386D02*
X011273Y002451D01*
X011268Y002516D01*
X011259Y002580D01*
X011246Y002643D01*
X011230Y002706D01*
X011210Y002768D01*
X011188Y002828D01*
X011161Y002887D01*
X011132Y002945D01*
X011099Y003001D01*
X011064Y003055D01*
X011025Y003107D01*
X010984Y003157D01*
X010940Y003204D01*
X010893Y003249D01*
X010844Y003291D01*
X010793Y003331D01*
X008933Y002387D02*
X008935Y002322D01*
X008940Y002257D01*
X008949Y002193D01*
X008962Y002130D01*
X008978Y002067D01*
X008998Y002005D01*
X009020Y001945D01*
X009047Y001886D01*
X009076Y001828D01*
X009109Y001772D01*
X009144Y001718D01*
X009183Y001666D01*
X009224Y001616D01*
X009268Y001569D01*
X009315Y001524D01*
X009364Y001482D01*
X009415Y001442D01*
X008933Y002386D02*
X008935Y002451D01*
X008940Y002516D01*
X008949Y002580D01*
X008962Y002643D01*
X008978Y002706D01*
X008998Y002768D01*
X009020Y002828D01*
X009047Y002887D01*
X009076Y002945D01*
X009109Y003001D01*
X009144Y003055D01*
X009183Y003107D01*
X009224Y003157D01*
X009268Y003204D01*
X009315Y003249D01*
X009364Y003291D01*
X009415Y003331D01*
X008778Y005287D02*
X008778Y005901D01*
X008471Y005594D02*
X009085Y005594D01*
D14*
X005917Y004633D02*
X005917Y004326D01*
X005917Y003649D02*
X005917Y003342D01*
X005764Y003495D02*
X006070Y003495D01*
X019450Y010625D02*
X019450Y010932D01*
X019450Y011609D02*
X019450Y011916D01*
X019297Y011763D02*
X019604Y011763D01*
D15*
G36*
X016032Y012001D02*
X016336Y012305D01*
X016496Y012145D01*
X016192Y011841D01*
X016032Y012001D01*
G37*
G36*
X014404Y012305D02*
X014708Y012001D01*
X014548Y011841D01*
X014244Y012145D01*
X014404Y012305D01*
G37*
G36*
X014708Y013934D02*
X014404Y013630D01*
X014244Y013790D01*
X014548Y014094D01*
X014708Y013934D01*
G37*
G36*
X016336Y013630D02*
X016032Y013934D01*
X016192Y014094D01*
X016496Y013790D01*
X016336Y013630D01*
G37*
G36*
X011070Y003049D02*
X010766Y003353D01*
X010926Y003513D01*
X011230Y003209D01*
X011070Y003049D01*
G37*
G36*
X009442Y003353D02*
X009138Y003049D01*
X008978Y003209D01*
X009282Y003513D01*
X009442Y003353D01*
G37*
G36*
X009138Y001724D02*
X009442Y001420D01*
X009282Y001260D01*
X008978Y001564D01*
X009138Y001724D01*
G37*
G36*
X010766Y001420D02*
X011070Y001724D01*
X011230Y001564D01*
X010926Y001260D01*
X010766Y001420D01*
G37*
D16*
X011689Y000895D02*
X011689Y003889D01*
X011770Y003889D01*
X012949Y003889D01*
X012949Y000895D01*
X012770Y000895D01*
X011689Y000895D01*
X012770Y000895D02*
X012868Y000895D01*
X012494Y002112D02*
X012144Y002112D01*
X012144Y002262D02*
X012319Y002112D01*
X012494Y002262D01*
X012144Y002262D01*
X011793Y003889D02*
X011770Y003889D01*
X012525Y011465D02*
X012525Y014459D01*
X012704Y014459D01*
X013785Y014459D01*
X013785Y011465D01*
X013704Y011465D01*
X012525Y011465D01*
X013682Y011465D02*
X013704Y011465D01*
X013330Y013092D02*
X012980Y013092D01*
X013155Y013242D01*
X013330Y013092D01*
X013330Y013242D02*
X012980Y013242D01*
X012704Y014459D02*
X012607Y014459D01*
M02*
