G75*
G70*
%OFA0B0*%
%FSLAX24Y24*%
%IPPOS*%
%LPD*%
%AMOC8*
5,1,8,0,0,1.08239X$1,22.5*
%
%ADD10C,0.0000*%
%ADD11R,0.0552X0.1221*%
%ADD12R,0.1090X0.1690*%
%ADD13R,0.0749X0.0886*%
%ADD14R,0.0749X0.0906*%
%ADD15R,0.0434X0.0473*%
%ADD16R,0.0640X0.0640*%
%ADD17OC8,0.0640*%
%ADD18OC8,0.0890*%
%ADD19R,0.0631X0.0631*%
%ADD20C,0.0631*%
%ADD21R,0.0473X0.0434*%
%ADD22R,0.0886X0.0749*%
%ADD23C,0.0740*%
%ADD24R,0.0580X0.0580*%
%ADD25C,0.0580*%
%ADD26R,0.2009X0.2402*%
%ADD27C,0.1930*%
%ADD28C,0.0394*%
D10*
X021939Y006539D02*
X029339Y006539D01*
X029339Y008889D01*
X054839Y008889D01*
X054839Y006539D01*
X062884Y006539D01*
X062884Y048546D01*
X056289Y048546D01*
X056289Y049189D01*
X040189Y049189D01*
X040189Y045589D01*
X033589Y045589D01*
X033589Y049189D01*
X028389Y049189D01*
X028389Y048546D01*
X021939Y048546D01*
X021939Y006539D01*
X023089Y006539D02*
X027489Y006539D01*
X057539Y006539D02*
X061939Y006539D01*
X054179Y047439D02*
X054181Y047465D01*
X054187Y047491D01*
X054197Y047516D01*
X054210Y047539D01*
X054226Y047559D01*
X054246Y047577D01*
X054268Y047592D01*
X054291Y047604D01*
X054317Y047612D01*
X054343Y047616D01*
X054369Y047616D01*
X054395Y047612D01*
X054421Y047604D01*
X054445Y047592D01*
X054466Y047577D01*
X054486Y047559D01*
X054502Y047539D01*
X054515Y047516D01*
X054525Y047491D01*
X054531Y047465D01*
X054533Y047439D01*
X054531Y047413D01*
X054525Y047387D01*
X054515Y047362D01*
X054502Y047339D01*
X054486Y047319D01*
X054466Y047301D01*
X054444Y047286D01*
X054421Y047274D01*
X054395Y047266D01*
X054369Y047262D01*
X054343Y047262D01*
X054317Y047266D01*
X054291Y047274D01*
X054267Y047286D01*
X054246Y047301D01*
X054226Y047319D01*
X054210Y047339D01*
X054197Y047362D01*
X054187Y047387D01*
X054181Y047413D01*
X054179Y047439D01*
X052446Y047439D02*
X052448Y047465D01*
X052454Y047491D01*
X052464Y047516D01*
X052477Y047539D01*
X052493Y047559D01*
X052513Y047577D01*
X052535Y047592D01*
X052558Y047604D01*
X052584Y047612D01*
X052610Y047616D01*
X052636Y047616D01*
X052662Y047612D01*
X052688Y047604D01*
X052712Y047592D01*
X052733Y047577D01*
X052753Y047559D01*
X052769Y047539D01*
X052782Y047516D01*
X052792Y047491D01*
X052798Y047465D01*
X052800Y047439D01*
X052798Y047413D01*
X052792Y047387D01*
X052782Y047362D01*
X052769Y047339D01*
X052753Y047319D01*
X052733Y047301D01*
X052711Y047286D01*
X052688Y047274D01*
X052662Y047266D01*
X052636Y047262D01*
X052610Y047262D01*
X052584Y047266D01*
X052558Y047274D01*
X052534Y047286D01*
X052513Y047301D01*
X052493Y047319D01*
X052477Y047339D01*
X052464Y047362D01*
X052454Y047387D01*
X052448Y047413D01*
X052446Y047439D01*
X057539Y048546D02*
X061939Y048546D01*
X027489Y048546D02*
X023089Y048546D01*
D11*
X052756Y034666D03*
X053756Y034666D03*
X054756Y034666D03*
X055756Y034666D03*
X056756Y034666D03*
X057756Y034666D03*
X058756Y034666D03*
X059756Y034666D03*
X060756Y034666D03*
X060756Y045689D03*
X059756Y045689D03*
X058756Y045689D03*
X032272Y020413D03*
X031272Y020413D03*
X030272Y020413D03*
X029272Y020413D03*
X028272Y020413D03*
X027272Y020413D03*
X026272Y020413D03*
X025272Y020413D03*
X024272Y020413D03*
X024272Y009389D03*
X025272Y009389D03*
X026272Y009389D03*
D12*
X026665Y007372D03*
X023914Y007372D03*
X058364Y007372D03*
X061115Y007372D03*
X061115Y047714D03*
X058364Y047714D03*
X026665Y047714D03*
X023914Y047714D03*
D13*
X028789Y045320D03*
X028789Y044159D03*
D14*
X030385Y044139D03*
X032393Y044139D03*
D15*
X031924Y021989D03*
X031255Y021989D03*
D16*
X046289Y012339D03*
X047289Y010139D03*
X049539Y017539D03*
X034089Y039389D03*
X030039Y046989D03*
X046089Y043039D03*
X047089Y043039D03*
X048089Y043039D03*
X049089Y043039D03*
X050089Y043039D03*
D17*
X050089Y044039D03*
X049089Y044039D03*
X048089Y044039D03*
X047089Y044039D03*
X046089Y044039D03*
X046089Y045039D03*
X047089Y045039D03*
X048089Y045039D03*
X049089Y045039D03*
X050089Y045039D03*
X034089Y041389D03*
X034089Y040389D03*
X032039Y046989D03*
X031039Y046989D03*
X049539Y016539D03*
X049289Y012339D03*
X048289Y012339D03*
X047289Y012339D03*
X048289Y010139D03*
X049289Y010139D03*
X050289Y010139D03*
X050289Y012339D03*
D18*
X036419Y017239D03*
X033859Y017239D03*
D19*
X031639Y024389D03*
X031639Y025389D03*
X024339Y025389D03*
X024339Y024389D03*
D20*
X024339Y028589D03*
X024339Y029589D03*
X031639Y029589D03*
X031639Y028589D03*
D21*
X052739Y032605D03*
X052739Y033274D03*
D22*
X056759Y032939D03*
X057920Y032939D03*
X028220Y022289D03*
X027059Y022289D03*
D23*
X036639Y024639D03*
X036639Y025639D03*
X036639Y026639D03*
X036639Y027639D03*
X036639Y028639D03*
X036639Y029639D03*
X051639Y026639D03*
X052639Y026639D03*
X052639Y025639D03*
X051639Y025639D03*
X051639Y024639D03*
X052639Y024639D03*
D24*
X034071Y010289D03*
D25*
X034858Y010289D03*
X035646Y010289D03*
X036433Y010289D03*
X037220Y010289D03*
X038008Y010289D03*
D26*
X038287Y044289D03*
X035492Y044289D03*
D27*
X041778Y046113D03*
X043629Y047255D03*
X043629Y044932D03*
D28*
X052623Y047439D03*
X054356Y047439D03*
M02*
