G75*
G70*
%OFA0B0*%
%FSLAX24Y24*%
%IPPOS*%
%LPD*%
%AMOC8*
5,1,8,0,0,1.08239X$1,22.5*
%
%ADD10C,0.0000*%
D10*
X021939Y006539D02*
X029339Y006539D01*
X029339Y008889D01*
X054839Y008889D01*
X054839Y006539D01*
X062884Y006539D01*
X062884Y048546D01*
X056289Y048546D01*
X056289Y049189D01*
X040189Y049189D01*
X040189Y045589D01*
X033589Y045589D01*
X033589Y049189D01*
X028389Y049189D01*
X028389Y048546D01*
X021939Y048546D01*
X021939Y006539D01*
X023089Y006539D02*
X027489Y006539D01*
X057539Y006539D02*
X061939Y006539D01*
X054179Y047439D02*
X054181Y047465D01*
X054187Y047491D01*
X054197Y047516D01*
X054210Y047539D01*
X054226Y047559D01*
X054246Y047577D01*
X054268Y047592D01*
X054291Y047604D01*
X054317Y047612D01*
X054343Y047616D01*
X054369Y047616D01*
X054395Y047612D01*
X054421Y047604D01*
X054445Y047592D01*
X054466Y047577D01*
X054486Y047559D01*
X054502Y047539D01*
X054515Y047516D01*
X054525Y047491D01*
X054531Y047465D01*
X054533Y047439D01*
X054531Y047413D01*
X054525Y047387D01*
X054515Y047362D01*
X054502Y047339D01*
X054486Y047319D01*
X054466Y047301D01*
X054444Y047286D01*
X054421Y047274D01*
X054395Y047266D01*
X054369Y047262D01*
X054343Y047262D01*
X054317Y047266D01*
X054291Y047274D01*
X054267Y047286D01*
X054246Y047301D01*
X054226Y047319D01*
X054210Y047339D01*
X054197Y047362D01*
X054187Y047387D01*
X054181Y047413D01*
X054179Y047439D01*
X052446Y047439D02*
X052448Y047465D01*
X052454Y047491D01*
X052464Y047516D01*
X052477Y047539D01*
X052493Y047559D01*
X052513Y047577D01*
X052535Y047592D01*
X052558Y047604D01*
X052584Y047612D01*
X052610Y047616D01*
X052636Y047616D01*
X052662Y047612D01*
X052688Y047604D01*
X052712Y047592D01*
X052733Y047577D01*
X052753Y047559D01*
X052769Y047539D01*
X052782Y047516D01*
X052792Y047491D01*
X052798Y047465D01*
X052800Y047439D01*
X052798Y047413D01*
X052792Y047387D01*
X052782Y047362D01*
X052769Y047339D01*
X052753Y047319D01*
X052733Y047301D01*
X052711Y047286D01*
X052688Y047274D01*
X052662Y047266D01*
X052636Y047262D01*
X052610Y047262D01*
X052584Y047266D01*
X052558Y047274D01*
X052534Y047286D01*
X052513Y047301D01*
X052493Y047319D01*
X052477Y047339D01*
X052464Y047362D01*
X052454Y047387D01*
X052448Y047413D01*
X052446Y047439D01*
X057539Y048546D02*
X061939Y048546D01*
X027489Y048546D02*
X023089Y048546D01*
M02*
