%
M48
M72
T01C0.0197
T02C0.0354
T03C0.0360
T04C0.0394
T05C0.0400
T06C0.1181
%
T01
X25289Y6889
X25289Y7439
X25289Y7989
X23139Y10989
X30889Y13789
X32889Y12189
X34239Y11889
X36839Y12839
X38989Y13339
X41202Y13402
X41508Y13008
X43439Y14189
X43439Y14639
X43239Y15939
X41889Y15339
X41239Y15639
X41939Y16739
X44089Y17889
X44439Y18339
X45389Y18389
X45189Y17639
X46139Y17839
X46089Y16639
X45689Y16289
X46739Y15689
X47589Y15989
X48339Y14889
X47839Y13139
X46289Y13739
X46289Y14189
X44289Y16539
X44289Y17089
X43239Y19339
X43989Y19889
X44789Y20389
X44839Y21039
X46539Y19289
X47589Y18439
X48439Y19689
X48939Y20489
X49289Y22489
X50689Y22489
X49639Y24089
X49539Y24789
X47539Y24639
X47439Y27139
X46239Y27539
X45289Y27539
X45489Y28689
X45439Y29289
X43389Y29239
X42789Y29189
X41439Y29639
X41289Y31339
X40539Y31739
X38939Y31389
X37789Y31489
X36639Y30939
X37189Y32789
X39539Y33289
X40839Y33289
X41989Y32789
X43139Y33289
X43639Y31989
X44539Y32789
X45639Y31489
X46639Y32089
X47639Y33289
X50239Y30839
X50789Y29989
X49839Y29039
X48939Y28689
X48489Y29289
X52239Y29639
X52939Y31089
X51739Y32789
X51539Y34589
X55789Y33689
X57939Y31639
X59139Y31739
X59239Y30839
X61789Y29389
X61439Y27439
X60789Y27439
X61489Y26489
X59239Y24889
X61489Y23839
X59689Y21739
X56589Y19189
X52889Y18539
X50989Y19689
X50139Y18289
X51389Y15739
X51389Y14639
X45939Y11339
X42989Y11039
X39489Y15689
X37839Y16839
X37139Y17689
X35639Y16239
X34439Y16189
X34439Y18039
X34339Y20089
X34889Y20639
X33689Y21139
X33689Y21789
X36639Y22439
X39339Y20439
X41289Y19389
X40589Y18389
X40039Y18089
X37289Y15789
X32339Y16889
X28389Y17839
X26439Y18989
X24589Y18489
X25339Y21439
X26489Y24439
X28239Y24389
X29188Y28039
X27039Y30189
X28289Y32289
X26189Y33589
X24339Y33489
X24339Y31989
X24339Y35539
X26289Y35489
X31889Y38489
X34039Y37589
X34739Y36539
X37839Y38489
X38389Y36639
X41539Y40639
X42139Y41439
X44139Y41939
X40989Y43689
X39039Y43339
X38539Y43339
X38039Y43339
X37539Y43339
X36239Y43339
X35739Y43339
X35239Y43339
X34739Y43339
X34739Y45189
X35239Y45189
X35739Y45189
X36239Y45189
X37539Y45189
X38039Y45189
X38539Y45189
X39039Y45189
X38339Y41239
X45639Y38389
X45689Y36839
X48889Y41289
X50089Y47239
X59739Y48189
X59739Y47639
X59739Y47089
X45989Y47239
X29989Y45989
X27889Y45989
X28439Y42789
X30389Y40989
X32989Y33539
X34389Y32639
X34389Y30889
X31689Y31989
X33489Y28189
X33039Y25139
X38839Y25989
X39189Y26589
X38889Y27389
X40239Y27289
X41439Y27589
X42789Y26339
X42789Y25139
X43539Y25139
X40789Y25389
X39989Y24739
X41889Y22089
X41839Y21039
X38389Y28289
X38739Y29639
X39089Y30189
X54939Y30089
X55989Y28239
X58789Y33639
X60689Y33639
X56889Y15789
X23339Y25039
T02
X36639Y24639
X36639Y25639
X36639Y26639
X36639Y27639
X36639Y28639
X36639Y29639
X51639Y26639
X52639Y26639
X52639Y25639
X51639Y25639
X51639Y24639
X52639Y24639
X54356Y47439
X52623Y47439
T03
X34071Y10289
X34858Y10289
X35646Y10289
X36433Y10289
X37220Y10289
X38008Y10289
X36419Y17239
X33859Y17239
T04
X24339Y24389
X24339Y25389
X24339Y28589
X24339Y29589
X31639Y29589
X31639Y28589
X31639Y25389
X31639Y24389
T05
X46289Y12339
X47289Y12339
X48289Y12339
X49289Y12339
X50289Y12339
X50289Y10139
X49289Y10139
X48289Y10139
X47289Y10139
X49539Y16539
X49539Y17539
X34089Y39389
X34089Y40389
X34089Y41389
X32039Y46989
X31039Y46989
X30039Y46989
X46089Y45039
X47089Y45039
X47089Y44039
X46089Y44039
X46089Y43039
X47089Y43039
X48089Y43039
X49089Y43039
X50089Y43039
X50089Y44039
X49089Y44039
X48089Y44039
X48089Y45039
X49089Y45039
X50089Y45039
T06
X43629Y44932
X41778Y46113
X43629Y47255
M30
