%
M48
M72
T01C0.0079
T02C0.0197
T03C0.0400
T04C0.1181
%
T01
X11858Y7546
X13889Y7889
X14014Y8514
X14014Y8983
X14014Y9202
X14514Y9233
X15077Y9389
X15421Y9014
X15577Y8733
X15983Y8046
X16327Y8046
X16733Y9202
X16358Y9514
X16327Y10139
X16077Y10139
X16858Y10014
X17171Y10327
X17546Y9577
X17608Y9202
X17296Y9171
X18327Y9139
X19046Y9389
X18889Y9671
X19358Y9264
X19608Y9421
X19858Y9202
X20139Y9327
X20389Y9202
X20639Y9327
X21202Y9421
X21764Y8983
X21483Y8639
X22233Y9108
X24171Y9546
X24171Y9858
X24171Y10389
X24171Y10889
X24171Y11639
X24108Y12421
X24108Y12733
X24108Y13139
X24108Y13889
X23046Y13139
X23077Y12514
X23046Y12077
X22233Y12389
X21233Y12858
X21014Y13014
X20796Y13233
X20577Y13452
X20108Y13702
X19702Y13452
X19389Y13296
X18983Y12858
X18171Y12827
X18452Y13483
X17952Y13608
X18080Y13827
X17671Y13577
X17639Y14077
X17077Y13514
X16952Y13171
X16264Y12952
X15139Y12358
X13983Y11233
X12827Y11577
X12014Y11577
X12514Y12639
X12514Y13608
X12296Y14671
X12296Y15514
X14296Y16577
X13296Y16702
X13921Y17608
X15046Y18764
X15671Y18764
X16796Y18139
X17889Y18171
X18264Y18202
X18858Y18889
X19796Y18889
X19921Y18014
X21171Y18139
X21608Y17702
X22014Y17702
X22389Y17702
X22483Y18139
X23233Y18046
X23233Y17608
X23233Y17171
X22858Y17171
X22421Y16296
X21983Y16296
X21546Y16296
X21233Y16108
X20983Y16264
X20671Y16421
X19921Y16327
X20202Y15952
X19858Y15858
X19389Y15577
X19108Y15577
X18889Y15827
X18796Y15264
X18546Y15233
X18139Y15202
X17639Y15202
X17233Y15327
X16983Y15358
X16483Y15827
X15858Y15546
X15327Y15421
X15014Y15139
X14514Y15358
X15827Y14858
X15671Y14514
X15452Y14327
X15046Y14264
X14233Y13889
X14108Y14139
X16514Y14233
X19108Y15202
X20358Y15577
X20858Y15639
X21233Y14827
X20358Y14264
X19608Y14264
X17858Y16577
X17108Y16452
X16452Y16483
X16108Y16514
X15764Y16514
X17546Y18889
X21171Y18827
X22483Y18796
X24296Y16733
X24296Y15671
X20952Y11671
X20608Y11514
X20983Y11264
X21171Y10952
X22108Y11327
X22546Y10952
X22202Y10858
X23014Y10952
X23014Y11389
X19139Y10889
X18983Y11608
X18233Y10983
X17639Y11421
X16452Y10889
X18233Y10358
X18202Y9827
X18639Y8233
X19108Y8233
X18858Y7983
X18171Y8108
X19796Y7764
X20139Y7733
X20983Y7733
X19796Y6671
X19171Y6452
X20483Y6014
X18671Y5452
X17921Y5452
X15014Y5421
X13858Y5358
X13858Y6514
X22546Y7046
X23233Y6702
X24108Y7483
X25014Y7514
X11921Y16671
T02
X12796Y15139
X14358Y16139
X22983Y16014
X23421Y9139
X24077Y9139
X21171Y8014
X22389Y6233
X18389Y6202
X16389Y6296
X15608Y6296
X15858Y7608
T03
X23733Y15139
X23733Y16139
T04
X24574Y18105
X12566Y18105
X12566Y6097
X24574Y6097
M30
