G75*
G70*
%OFA0B0*%
%FSLAX24Y24*%
%IPPOS*%
%LPD*%
%AMOC8*
5,1,8,0,0,1.08239X$1,22.5*
%
%ADD10C,0.0000*%
%ADD11R,0.0610X0.0236*%
%ADD12R,0.0709X0.0472*%
%ADD13R,0.0236X0.0610*%
%ADD14R,0.0472X0.0709*%
%ADD15R,0.1000X0.0750*%
%ADD16R,0.0177X0.0394*%
%ADD17R,0.1024X0.0157*%
%ADD18R,0.0551X0.0709*%
%ADD19R,0.0748X0.0551*%
%ADD20R,0.0591X0.0315*%
%ADD21R,0.0600X0.0600*%
%ADD22OC8,0.0600*%
%ADD23C,0.0500*%
%ADD24C,0.0079*%
%ADD25C,0.0159*%
%ADD26C,0.0100*%
%ADD27C,0.0295*%
%ADD28C,0.0400*%
%ADD29C,0.0500*%
%ADD30C,0.0160*%
D10*
X011483Y005999D02*
X011483Y018203D01*
X011485Y018265D01*
X011491Y018326D01*
X011500Y018387D01*
X011514Y018448D01*
X011531Y018507D01*
X011552Y018565D01*
X011577Y018622D01*
X011605Y018677D01*
X011636Y018730D01*
X011671Y018781D01*
X011709Y018830D01*
X011750Y018877D01*
X011793Y018920D01*
X011840Y018961D01*
X011889Y018999D01*
X011940Y019034D01*
X011993Y019065D01*
X012048Y019093D01*
X012105Y019118D01*
X012163Y019139D01*
X012222Y019156D01*
X012283Y019170D01*
X012344Y019179D01*
X012405Y019185D01*
X012467Y019187D01*
X012467Y019188D02*
X024672Y019188D01*
X024672Y019187D02*
X024734Y019185D01*
X024795Y019179D01*
X024856Y019170D01*
X024917Y019156D01*
X024976Y019139D01*
X025034Y019118D01*
X025091Y019093D01*
X025146Y019065D01*
X025199Y019034D01*
X025250Y018999D01*
X025299Y018961D01*
X025346Y018920D01*
X025389Y018877D01*
X025430Y018830D01*
X025468Y018781D01*
X025503Y018730D01*
X025534Y018677D01*
X025562Y018622D01*
X025587Y018565D01*
X025608Y018507D01*
X025625Y018448D01*
X025639Y018387D01*
X025648Y018326D01*
X025654Y018265D01*
X025656Y018203D01*
X025656Y005999D01*
X025654Y005937D01*
X025648Y005876D01*
X025639Y005815D01*
X025625Y005754D01*
X025608Y005695D01*
X025587Y005637D01*
X025562Y005580D01*
X025534Y005525D01*
X025503Y005472D01*
X025468Y005421D01*
X025430Y005372D01*
X025389Y005325D01*
X025346Y005282D01*
X025299Y005241D01*
X025250Y005203D01*
X025199Y005168D01*
X025146Y005137D01*
X025091Y005109D01*
X025034Y005084D01*
X024976Y005063D01*
X024917Y005046D01*
X024856Y005032D01*
X024795Y005023D01*
X024734Y005017D01*
X024672Y005015D01*
X024672Y005014D02*
X012467Y005014D01*
X012467Y005015D02*
X012405Y005017D01*
X012344Y005023D01*
X012283Y005032D01*
X012222Y005046D01*
X012163Y005063D01*
X012105Y005084D01*
X012048Y005109D01*
X011993Y005137D01*
X011940Y005168D01*
X011889Y005203D01*
X011840Y005241D01*
X011793Y005282D01*
X011750Y005325D01*
X011709Y005372D01*
X011671Y005421D01*
X011636Y005472D01*
X011605Y005525D01*
X011577Y005580D01*
X011552Y005637D01*
X011531Y005695D01*
X011514Y005754D01*
X011500Y005815D01*
X011491Y005876D01*
X011485Y005937D01*
X011483Y005999D01*
X011975Y006097D02*
X011977Y006145D01*
X011983Y006193D01*
X011993Y006240D01*
X012006Y006286D01*
X012024Y006331D01*
X012044Y006375D01*
X012069Y006417D01*
X012097Y006456D01*
X012127Y006493D01*
X012161Y006527D01*
X012198Y006559D01*
X012236Y006588D01*
X012277Y006613D01*
X012320Y006635D01*
X012365Y006653D01*
X012411Y006667D01*
X012458Y006678D01*
X012506Y006685D01*
X012554Y006688D01*
X012602Y006687D01*
X012650Y006682D01*
X012698Y006673D01*
X012744Y006661D01*
X012789Y006644D01*
X012833Y006624D01*
X012875Y006601D01*
X012915Y006574D01*
X012953Y006544D01*
X012988Y006511D01*
X013020Y006475D01*
X013050Y006437D01*
X013076Y006396D01*
X013098Y006353D01*
X013118Y006309D01*
X013133Y006264D01*
X013145Y006217D01*
X013153Y006169D01*
X013157Y006121D01*
X013157Y006073D01*
X013153Y006025D01*
X013145Y005977D01*
X013133Y005930D01*
X013118Y005885D01*
X013098Y005841D01*
X013076Y005798D01*
X013050Y005757D01*
X013020Y005719D01*
X012988Y005683D01*
X012953Y005650D01*
X012915Y005620D01*
X012875Y005593D01*
X012833Y005570D01*
X012789Y005550D01*
X012744Y005533D01*
X012698Y005521D01*
X012650Y005512D01*
X012602Y005507D01*
X012554Y005506D01*
X012506Y005509D01*
X012458Y005516D01*
X012411Y005527D01*
X012365Y005541D01*
X012320Y005559D01*
X012277Y005581D01*
X012236Y005606D01*
X012198Y005635D01*
X012161Y005667D01*
X012127Y005701D01*
X012097Y005738D01*
X012069Y005777D01*
X012044Y005819D01*
X012024Y005863D01*
X012006Y005908D01*
X011993Y005954D01*
X011983Y006001D01*
X011977Y006049D01*
X011975Y006097D01*
X023983Y006097D02*
X023985Y006145D01*
X023991Y006193D01*
X024001Y006240D01*
X024014Y006286D01*
X024032Y006331D01*
X024052Y006375D01*
X024077Y006417D01*
X024105Y006456D01*
X024135Y006493D01*
X024169Y006527D01*
X024206Y006559D01*
X024244Y006588D01*
X024285Y006613D01*
X024328Y006635D01*
X024373Y006653D01*
X024419Y006667D01*
X024466Y006678D01*
X024514Y006685D01*
X024562Y006688D01*
X024610Y006687D01*
X024658Y006682D01*
X024706Y006673D01*
X024752Y006661D01*
X024797Y006644D01*
X024841Y006624D01*
X024883Y006601D01*
X024923Y006574D01*
X024961Y006544D01*
X024996Y006511D01*
X025028Y006475D01*
X025058Y006437D01*
X025084Y006396D01*
X025106Y006353D01*
X025126Y006309D01*
X025141Y006264D01*
X025153Y006217D01*
X025161Y006169D01*
X025165Y006121D01*
X025165Y006073D01*
X025161Y006025D01*
X025153Y005977D01*
X025141Y005930D01*
X025126Y005885D01*
X025106Y005841D01*
X025084Y005798D01*
X025058Y005757D01*
X025028Y005719D01*
X024996Y005683D01*
X024961Y005650D01*
X024923Y005620D01*
X024883Y005593D01*
X024841Y005570D01*
X024797Y005550D01*
X024752Y005533D01*
X024706Y005521D01*
X024658Y005512D01*
X024610Y005507D01*
X024562Y005506D01*
X024514Y005509D01*
X024466Y005516D01*
X024419Y005527D01*
X024373Y005541D01*
X024328Y005559D01*
X024285Y005581D01*
X024244Y005606D01*
X024206Y005635D01*
X024169Y005667D01*
X024135Y005701D01*
X024105Y005738D01*
X024077Y005777D01*
X024052Y005819D01*
X024032Y005863D01*
X024014Y005908D01*
X024001Y005954D01*
X023991Y006001D01*
X023985Y006049D01*
X023983Y006097D01*
X023983Y018105D02*
X023985Y018153D01*
X023991Y018201D01*
X024001Y018248D01*
X024014Y018294D01*
X024032Y018339D01*
X024052Y018383D01*
X024077Y018425D01*
X024105Y018464D01*
X024135Y018501D01*
X024169Y018535D01*
X024206Y018567D01*
X024244Y018596D01*
X024285Y018621D01*
X024328Y018643D01*
X024373Y018661D01*
X024419Y018675D01*
X024466Y018686D01*
X024514Y018693D01*
X024562Y018696D01*
X024610Y018695D01*
X024658Y018690D01*
X024706Y018681D01*
X024752Y018669D01*
X024797Y018652D01*
X024841Y018632D01*
X024883Y018609D01*
X024923Y018582D01*
X024961Y018552D01*
X024996Y018519D01*
X025028Y018483D01*
X025058Y018445D01*
X025084Y018404D01*
X025106Y018361D01*
X025126Y018317D01*
X025141Y018272D01*
X025153Y018225D01*
X025161Y018177D01*
X025165Y018129D01*
X025165Y018081D01*
X025161Y018033D01*
X025153Y017985D01*
X025141Y017938D01*
X025126Y017893D01*
X025106Y017849D01*
X025084Y017806D01*
X025058Y017765D01*
X025028Y017727D01*
X024996Y017691D01*
X024961Y017658D01*
X024923Y017628D01*
X024883Y017601D01*
X024841Y017578D01*
X024797Y017558D01*
X024752Y017541D01*
X024706Y017529D01*
X024658Y017520D01*
X024610Y017515D01*
X024562Y017514D01*
X024514Y017517D01*
X024466Y017524D01*
X024419Y017535D01*
X024373Y017549D01*
X024328Y017567D01*
X024285Y017589D01*
X024244Y017614D01*
X024206Y017643D01*
X024169Y017675D01*
X024135Y017709D01*
X024105Y017746D01*
X024077Y017785D01*
X024052Y017827D01*
X024032Y017871D01*
X024014Y017916D01*
X024001Y017962D01*
X023991Y018009D01*
X023985Y018057D01*
X023983Y018105D01*
X011975Y018105D02*
X011977Y018153D01*
X011983Y018201D01*
X011993Y018248D01*
X012006Y018294D01*
X012024Y018339D01*
X012044Y018383D01*
X012069Y018425D01*
X012097Y018464D01*
X012127Y018501D01*
X012161Y018535D01*
X012198Y018567D01*
X012236Y018596D01*
X012277Y018621D01*
X012320Y018643D01*
X012365Y018661D01*
X012411Y018675D01*
X012458Y018686D01*
X012506Y018693D01*
X012554Y018696D01*
X012602Y018695D01*
X012650Y018690D01*
X012698Y018681D01*
X012744Y018669D01*
X012789Y018652D01*
X012833Y018632D01*
X012875Y018609D01*
X012915Y018582D01*
X012953Y018552D01*
X012988Y018519D01*
X013020Y018483D01*
X013050Y018445D01*
X013076Y018404D01*
X013098Y018361D01*
X013118Y018317D01*
X013133Y018272D01*
X013145Y018225D01*
X013153Y018177D01*
X013157Y018129D01*
X013157Y018081D01*
X013153Y018033D01*
X013145Y017985D01*
X013133Y017938D01*
X013118Y017893D01*
X013098Y017849D01*
X013076Y017806D01*
X013050Y017765D01*
X013020Y017727D01*
X012988Y017691D01*
X012953Y017658D01*
X012915Y017628D01*
X012875Y017601D01*
X012833Y017578D01*
X012789Y017558D01*
X012744Y017541D01*
X012698Y017529D01*
X012650Y017520D01*
X012602Y017515D01*
X012554Y017514D01*
X012506Y017517D01*
X012458Y017524D01*
X012411Y017535D01*
X012365Y017549D01*
X012320Y017567D01*
X012277Y017589D01*
X012236Y017614D01*
X012198Y017643D01*
X012161Y017675D01*
X012127Y017709D01*
X012097Y017746D01*
X012069Y017785D01*
X012044Y017827D01*
X012024Y017871D01*
X012006Y017916D01*
X011993Y017962D01*
X011983Y018009D01*
X011977Y018057D01*
X011975Y018105D01*
D11*
X013436Y015730D03*
X013436Y015336D03*
X013436Y014943D03*
X013436Y014549D03*
D12*
X011910Y014037D03*
X011910Y016242D03*
D13*
X014761Y017218D03*
X015155Y017218D03*
X015549Y017218D03*
X015943Y017218D03*
X016336Y017218D03*
X016730Y017218D03*
X017124Y017218D03*
X017517Y017218D03*
X021236Y017218D03*
X021630Y017218D03*
X022024Y017218D03*
X022417Y017218D03*
X022261Y006967D03*
X021867Y006967D03*
X021474Y006967D03*
X021080Y006967D03*
X019105Y006967D03*
X018711Y006967D03*
X018318Y006967D03*
X017924Y006967D03*
X016011Y006967D03*
X015617Y006967D03*
X015224Y006967D03*
X014830Y006967D03*
D14*
X014318Y005441D03*
X016523Y005441D03*
X017412Y005441D03*
X019617Y005441D03*
X020568Y005441D03*
X022773Y005441D03*
X022929Y018744D03*
X020725Y018744D03*
X018029Y018744D03*
X014250Y018744D03*
D15*
X025008Y016139D03*
X025008Y015139D03*
X025008Y014139D03*
X025008Y013139D03*
X025008Y012139D03*
X025008Y011139D03*
X025008Y010139D03*
X025008Y009139D03*
X025008Y008139D03*
D16*
X015554Y014845D03*
X015299Y014845D03*
X015043Y014845D03*
X014787Y014845D03*
X014787Y015809D03*
X015043Y015809D03*
X015299Y015809D03*
X015554Y015809D03*
D17*
X019858Y012206D03*
X019858Y011733D03*
X019858Y011261D03*
D18*
X017638Y010878D03*
X017638Y008634D03*
D19*
X012461Y008004D03*
X012067Y013131D03*
D20*
X013497Y011321D03*
X013654Y010879D03*
X013523Y010463D03*
X013472Y010033D03*
X013533Y009618D03*
X013475Y009178D03*
X013536Y008741D03*
X013536Y008319D03*
D21*
X023733Y015139D03*
D22*
X023733Y016139D03*
D23*
X018608Y012858D03*
X018608Y012233D03*
X018608Y011608D03*
X018608Y010983D03*
X018608Y010358D03*
D24*
X018360Y010112D02*
X016506Y010112D01*
X016506Y010065D02*
X016506Y010213D01*
X016401Y010318D01*
X016253Y010318D01*
X016202Y010267D01*
X016151Y010318D01*
X016003Y010318D01*
X015898Y010213D01*
X015898Y010172D01*
X015771Y010045D01*
X015771Y008670D01*
X014768Y007667D01*
X014681Y007579D01*
X014681Y007371D01*
X014671Y007371D01*
X014613Y007313D01*
X014613Y006621D01*
X014671Y006562D01*
X014989Y006562D01*
X015027Y006600D01*
X015064Y006562D01*
X015383Y006562D01*
X015421Y006600D01*
X015458Y006562D01*
X015468Y006562D01*
X015468Y006505D01*
X015399Y006436D01*
X015361Y006345D01*
X015361Y006246D01*
X015399Y006156D01*
X015468Y006086D01*
X015559Y006049D01*
X015657Y006049D01*
X015748Y006086D01*
X015818Y006156D01*
X015855Y006246D01*
X015855Y006345D01*
X015818Y006436D01*
X015767Y006486D01*
X015767Y006562D01*
X015777Y006562D01*
X015814Y006600D01*
X015837Y006578D01*
X015873Y006562D01*
X015991Y006562D01*
X015991Y006947D01*
X016031Y006947D01*
X016031Y006987D01*
X015991Y006987D01*
X015991Y007371D01*
X015932Y007371D01*
X015998Y007399D01*
X016068Y007468D01*
X016105Y007559D01*
X016105Y007657D01*
X016068Y007748D01*
X015998Y007818D01*
X015907Y007855D01*
X015809Y007855D01*
X015718Y007818D01*
X015649Y007748D01*
X015611Y007657D01*
X015611Y007559D01*
X015649Y007468D01*
X015718Y007399D01*
X015809Y007361D01*
X015849Y007361D01*
X015837Y007356D01*
X015814Y007334D01*
X015777Y007371D01*
X015458Y007371D01*
X015421Y007334D01*
X015383Y007371D01*
X015373Y007371D01*
X015373Y007599D01*
X016257Y008484D01*
X016257Y009765D01*
X016476Y009984D01*
X016476Y010036D01*
X016506Y010065D01*
X016476Y010035D02*
X018475Y010035D01*
X018539Y010009D02*
X018678Y010009D01*
X018806Y010062D01*
X018904Y010160D01*
X018957Y010289D01*
X018957Y010428D01*
X018904Y010556D01*
X018806Y010654D01*
X018767Y010671D01*
X018806Y010687D01*
X018904Y010785D01*
X018957Y010914D01*
X018957Y011053D01*
X018904Y011181D01*
X018806Y011279D01*
X018767Y011296D01*
X018806Y011312D01*
X018904Y011410D01*
X018912Y011429D01*
X019057Y011429D01*
X019162Y011534D01*
X019162Y011682D01*
X019057Y011787D01*
X018912Y011787D01*
X018904Y011806D01*
X018806Y011904D01*
X018767Y011921D01*
X018774Y011924D01*
X018831Y011962D01*
X018879Y012010D01*
X018918Y012068D01*
X018944Y012131D01*
X018957Y012194D01*
X018647Y012194D01*
X018647Y012272D01*
X018957Y012272D01*
X018944Y012335D01*
X018918Y012399D01*
X018879Y012456D01*
X018831Y012504D01*
X018774Y012543D01*
X018767Y012546D01*
X018806Y012562D01*
X018904Y012660D01*
X018912Y012679D01*
X019057Y012679D01*
X019162Y012784D01*
X019162Y012932D01*
X019057Y013037D01*
X018912Y013037D01*
X018904Y013056D01*
X018806Y013154D01*
X018678Y013207D01*
X018539Y013207D01*
X018410Y013154D01*
X018312Y013056D01*
X018259Y012928D01*
X018259Y012789D01*
X018312Y012660D01*
X018410Y012562D01*
X018450Y012546D01*
X018443Y012543D01*
X018385Y012504D01*
X018337Y012456D01*
X018299Y012399D01*
X018272Y012335D01*
X018260Y012272D01*
X018569Y012272D01*
X018569Y012194D01*
X018260Y012194D01*
X018272Y012131D01*
X018299Y012068D01*
X018337Y012010D01*
X018385Y011962D01*
X018443Y011924D01*
X018450Y011921D01*
X018410Y011904D01*
X018312Y011806D01*
X018259Y011678D01*
X018259Y011539D01*
X018312Y011410D01*
X018410Y011312D01*
X018450Y011296D01*
X018410Y011279D01*
X018312Y011181D01*
X018304Y011162D01*
X018159Y011162D01*
X018054Y011057D01*
X018054Y010909D01*
X018159Y010804D01*
X018304Y010804D01*
X018312Y010785D01*
X018410Y010687D01*
X018450Y010671D01*
X018410Y010654D01*
X018312Y010556D01*
X018304Y010537D01*
X018159Y010537D01*
X018054Y010432D01*
X018054Y010284D01*
X018159Y010179D01*
X018304Y010179D01*
X018312Y010160D01*
X018410Y010062D01*
X018539Y010009D01*
X018741Y010035D02*
X019043Y010035D01*
X019120Y010112D02*
X018856Y010112D01*
X018916Y010189D02*
X019197Y010189D01*
X019274Y010267D02*
X018948Y010267D01*
X018957Y010344D02*
X019351Y010344D01*
X019429Y010421D02*
X018957Y010421D01*
X018928Y010498D02*
X019506Y010498D01*
X019583Y010576D02*
X018885Y010576D01*
X018807Y010653D02*
X019660Y010653D01*
X019738Y010730D02*
X018849Y010730D01*
X018913Y010807D02*
X022023Y010807D01*
X022023Y010789D02*
X019796Y010789D01*
X018857Y009849D01*
X018815Y009849D01*
X018711Y009745D01*
X018711Y009597D01*
X018815Y009492D01*
X018895Y009492D01*
X018867Y009463D01*
X018867Y009315D01*
X018972Y009211D01*
X019120Y009211D01*
X019179Y009270D01*
X019179Y009190D01*
X019284Y009086D01*
X019432Y009086D01*
X019537Y009190D01*
X019537Y009338D01*
X019507Y009368D01*
X019507Y009452D01*
X020170Y010115D01*
X023482Y010115D01*
X024087Y010720D01*
X024097Y010711D01*
X024245Y010711D01*
X024349Y010815D01*
X024349Y010963D01*
X024323Y010990D01*
X024409Y010990D01*
X024409Y010723D01*
X024467Y010665D01*
X025517Y010665D01*
X025517Y010614D01*
X024467Y010614D01*
X024409Y010556D01*
X024409Y010289D01*
X023984Y010289D01*
X023702Y010007D01*
X020265Y010007D01*
X019796Y009539D01*
X019709Y009451D01*
X019709Y009305D01*
X019679Y009276D01*
X019679Y009128D01*
X019784Y009023D01*
X019932Y009023D01*
X020037Y009128D01*
X020037Y009177D01*
X020065Y009148D01*
X020209Y009148D01*
X020209Y007765D01*
X020296Y007678D01*
X020863Y007111D01*
X020863Y006621D01*
X020921Y006562D01*
X021239Y006562D01*
X021277Y006600D01*
X021314Y006562D01*
X021633Y006562D01*
X021671Y006600D01*
X021708Y006562D01*
X021718Y006562D01*
X021718Y006349D01*
X021896Y006171D01*
X021984Y006084D01*
X022189Y006084D01*
X022249Y006024D01*
X022340Y005986D01*
X022439Y005986D01*
X022529Y006024D01*
X022599Y006093D01*
X022636Y006184D01*
X022636Y006282D01*
X022599Y006373D01*
X022529Y006443D01*
X022439Y006480D01*
X022340Y006480D01*
X022249Y006443D01*
X022189Y006382D01*
X022107Y006382D01*
X022017Y006473D01*
X022017Y006562D01*
X022027Y006562D01*
X022064Y006600D01*
X022087Y006578D01*
X022123Y006562D01*
X022241Y006562D01*
X022241Y006947D01*
X022281Y006947D01*
X022281Y006987D01*
X022241Y006987D01*
X022241Y007371D01*
X022123Y007371D01*
X022087Y007356D01*
X022064Y007334D01*
X022027Y007371D01*
X021708Y007371D01*
X021671Y007334D01*
X021633Y007371D01*
X021525Y007371D01*
X021414Y007482D01*
X021326Y007570D01*
X021076Y007570D01*
X020726Y007920D01*
X020726Y009015D01*
X020789Y009077D01*
X020789Y009223D01*
X020818Y009253D01*
X020818Y009401D01*
X020713Y009506D01*
X020565Y009506D01*
X020461Y009401D01*
X020461Y009381D01*
X020404Y009381D01*
X020545Y009521D01*
X024045Y009521D01*
X024203Y009679D01*
X024245Y009679D01*
X024349Y009784D01*
X024349Y009932D01*
X024292Y009990D01*
X024409Y009990D01*
X024409Y009723D01*
X024467Y009665D01*
X025517Y009665D01*
X025517Y009614D01*
X024467Y009614D01*
X024409Y009556D01*
X024409Y009439D01*
X024017Y009439D01*
X023907Y009393D01*
X023823Y009309D01*
X023778Y009199D01*
X023778Y009080D01*
X023823Y008970D01*
X023907Y008886D01*
X024017Y008840D01*
X024409Y008840D01*
X024409Y008723D01*
X024467Y008665D01*
X025517Y008665D01*
X025517Y008614D01*
X025047Y008614D01*
X025047Y008179D01*
X024969Y008179D01*
X024969Y008614D01*
X024488Y008614D01*
X024452Y008599D01*
X024424Y008571D01*
X024409Y008534D01*
X024409Y008179D01*
X024969Y008179D01*
X024969Y008100D01*
X025047Y008100D01*
X025047Y007665D01*
X025517Y007665D01*
X025517Y006772D01*
X025472Y006850D01*
X025472Y006850D01*
X025472Y006850D01*
X025160Y007112D01*
X025160Y007112D01*
X024777Y007251D01*
X024370Y007251D01*
X023988Y007112D01*
X023988Y007112D01*
X023676Y006850D01*
X023472Y006498D01*
X023402Y006097D01*
X023472Y005696D01*
X023676Y005344D01*
X023902Y005154D01*
X023109Y005154D01*
X023109Y005837D01*
X023050Y005895D01*
X022496Y005895D01*
X022437Y005837D01*
X022437Y005154D01*
X020904Y005154D01*
X020904Y005837D01*
X020846Y005895D01*
X020291Y005895D01*
X020233Y005837D01*
X020233Y005154D01*
X019952Y005154D01*
X019952Y005837D01*
X019894Y005895D01*
X019339Y005895D01*
X019281Y005837D01*
X019281Y005154D01*
X017748Y005154D01*
X017748Y005837D01*
X017689Y005895D01*
X017135Y005895D01*
X017076Y005837D01*
X017076Y005154D01*
X016859Y005154D01*
X016859Y005837D01*
X016800Y005895D01*
X016246Y005895D01*
X016187Y005837D01*
X016187Y005154D01*
X014654Y005154D01*
X014654Y005837D01*
X014596Y005895D01*
X014041Y005895D01*
X013983Y005837D01*
X013983Y005154D01*
X013237Y005154D01*
X013464Y005344D01*
X013667Y005696D01*
X013667Y005696D01*
X013738Y006097D01*
X013738Y006097D01*
X013667Y006498D01*
X013464Y006850D01*
X013464Y006850D01*
X013152Y007112D01*
X012769Y007251D01*
X012362Y007251D01*
X011980Y007112D01*
X011980Y007112D01*
X011668Y006850D01*
X011622Y006772D01*
X011622Y012786D01*
X011637Y012771D01*
X011673Y012756D01*
X012028Y012756D01*
X012028Y013092D01*
X012107Y013092D01*
X012107Y013171D01*
X012028Y013171D01*
X012028Y013506D01*
X011673Y013506D01*
X011637Y013491D01*
X011622Y013477D01*
X011622Y013701D01*
X012306Y013701D01*
X012364Y013760D01*
X012364Y014314D01*
X012306Y014373D01*
X011622Y014373D01*
X011622Y015906D01*
X012306Y015906D01*
X012364Y015964D01*
X012364Y016519D01*
X012306Y016577D01*
X011622Y016577D01*
X011622Y017430D01*
X011668Y017352D01*
X011668Y017352D01*
X011980Y017090D01*
X012362Y016951D01*
X012769Y016951D01*
X013152Y017090D01*
X013464Y017352D01*
X013667Y017704D01*
X013667Y017704D01*
X013738Y018105D01*
X013667Y018506D01*
X013464Y018858D01*
X013464Y018858D01*
X013237Y019048D01*
X013914Y019048D01*
X013914Y018348D01*
X013972Y018290D01*
X014527Y018290D01*
X014585Y018348D01*
X014585Y019048D01*
X017694Y019048D01*
X017694Y018348D01*
X017752Y018290D01*
X018100Y018290D01*
X018086Y018276D01*
X018086Y018128D01*
X018190Y018023D01*
X018232Y018023D01*
X018959Y017296D01*
X018959Y015680D01*
X018945Y015667D01*
X018945Y015670D01*
X018857Y015757D01*
X018420Y016195D01*
X017826Y016195D01*
X017726Y016295D01*
X017726Y016670D01*
X017667Y016730D01*
X017667Y016814D01*
X017677Y016814D01*
X017735Y016872D01*
X017735Y017564D01*
X017677Y017623D01*
X017358Y017623D01*
X017320Y017585D01*
X017283Y017623D01*
X016964Y017623D01*
X016927Y017585D01*
X016889Y017623D01*
X016571Y017623D01*
X016533Y017585D01*
X016495Y017623D01*
X016177Y017623D01*
X016139Y017585D01*
X016102Y017623D01*
X015783Y017623D01*
X015746Y017585D01*
X015708Y017623D01*
X015390Y017623D01*
X015352Y017585D01*
X015314Y017623D01*
X014996Y017623D01*
X014958Y017585D01*
X014936Y017607D01*
X014899Y017623D01*
X014781Y017623D01*
X014781Y017238D01*
X014742Y017238D01*
X014742Y017623D01*
X014624Y017623D01*
X014587Y017607D01*
X014559Y017580D01*
X014544Y017543D01*
X014544Y017238D01*
X014742Y017238D01*
X014742Y017198D01*
X014781Y017198D01*
X014781Y016814D01*
X014884Y016814D01*
X014442Y016372D01*
X014407Y016386D01*
X014309Y016386D01*
X014218Y016349D01*
X014149Y016279D01*
X014111Y016189D01*
X014111Y016090D01*
X014149Y015999D01*
X014218Y015930D01*
X014309Y015892D01*
X014407Y015892D01*
X014498Y015930D01*
X014568Y015999D01*
X014605Y016090D01*
X014605Y016113D01*
X014893Y016401D01*
X014893Y016105D01*
X014792Y016105D01*
X014792Y015814D01*
X014782Y015814D01*
X014782Y016105D01*
X014678Y016105D01*
X014642Y016090D01*
X014614Y016062D01*
X014599Y016026D01*
X014599Y015814D01*
X014782Y015814D01*
X014782Y015804D01*
X014792Y015804D01*
X014792Y015513D01*
X014895Y015513D01*
X014908Y015518D01*
X014913Y015513D01*
X015428Y015513D01*
X015434Y015518D01*
X015446Y015513D01*
X015550Y015513D01*
X015550Y015804D01*
X015559Y015804D01*
X015559Y015513D01*
X015663Y015513D01*
X015679Y015520D01*
X015679Y015472D01*
X015784Y015367D01*
X015928Y015367D01*
X015928Y013357D01*
X015107Y012537D01*
X015065Y012537D01*
X014961Y012432D01*
X014961Y012284D01*
X015065Y012179D01*
X015213Y012179D01*
X015318Y012284D01*
X015318Y012326D01*
X016115Y013123D01*
X016115Y013055D01*
X016086Y013026D01*
X016086Y012878D01*
X016190Y012773D01*
X016338Y012773D01*
X016443Y012878D01*
X016443Y013026D01*
X016414Y013055D01*
X016414Y016420D01*
X016326Y016507D01*
X016287Y016547D01*
X016287Y016588D01*
X016182Y016693D01*
X016034Y016693D01*
X015936Y016595D01*
X015840Y016691D01*
X015962Y016814D01*
X016102Y016814D01*
X016139Y016851D01*
X016177Y016814D01*
X016254Y016814D01*
X016553Y016515D01*
X016553Y016234D01*
X016865Y015921D01*
X016865Y015493D01*
X016804Y015432D01*
X016804Y015284D01*
X016909Y015179D01*
X017057Y015179D01*
X017092Y015215D01*
X017159Y015148D01*
X017307Y015148D01*
X017412Y015253D01*
X017412Y015401D01*
X017382Y015430D01*
X017382Y015935D01*
X017521Y015796D01*
X017609Y015709D01*
X018203Y015709D01*
X018396Y015515D01*
X018396Y015337D01*
X018367Y015307D01*
X018367Y015159D01*
X018472Y015054D01*
X018620Y015054D01*
X018686Y015121D01*
X018722Y015086D01*
X018870Y015086D01*
X018974Y015190D01*
X018974Y015338D01*
X018945Y015368D01*
X018945Y015487D01*
X019034Y015398D01*
X019182Y015398D01*
X019249Y015465D01*
X019315Y015398D01*
X019463Y015398D01*
X019493Y015428D01*
X020255Y015428D01*
X020284Y015398D01*
X020432Y015398D01*
X020537Y015503D01*
X020537Y015651D01*
X020432Y015756D01*
X020284Y015756D01*
X020255Y015726D01*
X019493Y015726D01*
X019463Y015756D01*
X019315Y015756D01*
X019257Y015698D01*
X019257Y017420D01*
X018443Y018234D01*
X018443Y018276D01*
X018365Y018354D01*
X018365Y019048D01*
X020389Y019048D01*
X020389Y018348D01*
X020447Y018290D01*
X021002Y018290D01*
X021060Y018348D01*
X021060Y019048D01*
X022594Y019048D01*
X022594Y018348D01*
X022652Y018290D01*
X023207Y018290D01*
X023265Y018348D01*
X023265Y019048D01*
X023902Y019048D01*
X023676Y018858D01*
X023472Y018506D01*
X023402Y018105D01*
X023472Y017704D01*
X023676Y017352D01*
X023676Y017352D01*
X023988Y017090D01*
X024370Y016951D01*
X024777Y016951D01*
X025160Y017090D01*
X025472Y017352D01*
X025517Y017430D01*
X025517Y016614D01*
X025047Y016614D01*
X025047Y016179D01*
X024969Y016179D01*
X024969Y016614D01*
X024488Y016614D01*
X024452Y016599D01*
X024424Y016571D01*
X024409Y016534D01*
X024409Y016179D01*
X024969Y016179D01*
X024969Y016100D01*
X025047Y016100D01*
X025047Y015665D01*
X025517Y015665D01*
X025517Y015614D01*
X024467Y015614D01*
X024409Y015556D01*
X024409Y015489D01*
X024124Y015489D01*
X024074Y015539D01*
X023392Y015539D01*
X023334Y015481D01*
X023334Y014798D01*
X023392Y014740D01*
X024074Y014740D01*
X024124Y014790D01*
X024409Y014790D01*
X024409Y014723D01*
X024467Y014665D01*
X025517Y014665D01*
X025517Y014614D01*
X024467Y014614D01*
X024409Y014556D01*
X024409Y014289D01*
X024296Y014289D01*
X024076Y014068D01*
X024034Y014068D01*
X023929Y013963D01*
X023929Y013815D01*
X024034Y013711D01*
X024182Y013711D01*
X024287Y013815D01*
X024287Y013857D01*
X024409Y013979D01*
X024409Y013723D01*
X024467Y013665D01*
X025517Y013665D01*
X025517Y013614D01*
X024467Y013614D01*
X024409Y013556D01*
X024409Y013289D01*
X024212Y013289D01*
X024182Y013318D01*
X024034Y013318D01*
X023929Y013213D01*
X023929Y013065D01*
X024034Y012961D01*
X024182Y012961D01*
X024212Y012990D01*
X024409Y012990D01*
X024409Y012723D01*
X024467Y012665D01*
X025517Y012665D01*
X025517Y012614D01*
X024467Y012614D01*
X024409Y012556D01*
X024409Y012289D01*
X024202Y012289D01*
X023796Y011882D01*
X023709Y011795D01*
X023709Y011326D01*
X023171Y010789D01*
X022381Y010789D01*
X022381Y010932D01*
X022276Y011037D01*
X022128Y011037D01*
X022023Y010932D01*
X022023Y010789D01*
X022023Y010885D02*
X018945Y010885D01*
X018957Y010962D02*
X022053Y010962D01*
X022034Y011148D02*
X022182Y011148D01*
X022287Y011253D01*
X022287Y011401D01*
X022182Y011506D01*
X022034Y011506D01*
X021929Y011401D01*
X021929Y011253D01*
X022034Y011148D01*
X021989Y011194D02*
X021162Y011194D01*
X021162Y011190D02*
X021057Y011086D01*
X020909Y011086D01*
X020880Y011115D01*
X020444Y011115D01*
X020411Y011083D01*
X019305Y011083D01*
X019247Y011141D01*
X019247Y011381D01*
X019305Y011439D01*
X020411Y011439D01*
X020436Y011414D01*
X020880Y011414D01*
X020909Y011443D01*
X021057Y011443D01*
X021162Y011338D01*
X021162Y011190D01*
X021162Y011271D02*
X021929Y011271D01*
X021929Y011348D02*
X021152Y011348D01*
X021075Y011425D02*
X021954Y011425D01*
X022031Y011503D02*
X021037Y011503D01*
X021026Y011492D02*
X021131Y011597D01*
X021131Y011745D01*
X021026Y011849D01*
X020984Y011849D01*
X020479Y012355D01*
X020440Y012355D01*
X020411Y012384D01*
X019305Y012384D01*
X019247Y012325D01*
X019247Y012086D01*
X019305Y012027D01*
X020384Y012027D01*
X020773Y011638D01*
X020773Y011597D01*
X020878Y011492D01*
X021026Y011492D01*
X021114Y011580D02*
X023709Y011580D01*
X023709Y011657D02*
X021131Y011657D01*
X021131Y011734D02*
X023709Y011734D01*
X023725Y011812D02*
X021064Y011812D01*
X020945Y011889D02*
X023803Y011889D01*
X023880Y011966D02*
X023188Y011966D01*
X023224Y012003D02*
X023120Y011898D01*
X022972Y011898D01*
X022867Y012003D01*
X022867Y012151D01*
X022972Y012256D01*
X023120Y012256D01*
X023224Y012151D01*
X023224Y012003D01*
X023224Y012043D02*
X023957Y012043D01*
X024034Y012120D02*
X023224Y012120D01*
X023178Y012198D02*
X024111Y012198D01*
X024189Y012275D02*
X020559Y012275D01*
X020636Y012198D02*
X022914Y012198D01*
X022867Y012120D02*
X020713Y012120D01*
X020790Y012043D02*
X022867Y012043D01*
X022904Y011966D02*
X020868Y011966D01*
X020677Y011734D02*
X020469Y011734D01*
X020469Y011733D02*
X020469Y011832D01*
X020454Y011868D01*
X020426Y011896D01*
X020390Y011911D01*
X019858Y011911D01*
X019327Y011911D01*
X019290Y011896D01*
X019262Y011868D01*
X019247Y011832D01*
X019247Y011733D01*
X019247Y011635D01*
X019262Y011598D01*
X019290Y011570D01*
X019327Y011555D01*
X019858Y011555D01*
X019858Y011733D01*
X019858Y011733D01*
X019247Y011733D01*
X019858Y011733D01*
X019858Y011733D01*
X019858Y011555D01*
X020390Y011555D01*
X020426Y011570D01*
X020454Y011598D01*
X020469Y011635D01*
X020469Y011733D01*
X019858Y011733D01*
X019858Y011911D01*
X019858Y011733D01*
X019858Y011733D01*
X019858Y011733D01*
X020469Y011733D01*
X020469Y011657D02*
X020754Y011657D01*
X020790Y011580D02*
X020436Y011580D01*
X020425Y011425D02*
X020891Y011425D01*
X020867Y011503D02*
X019130Y011503D01*
X019162Y011580D02*
X019280Y011580D01*
X019247Y011657D02*
X019162Y011657D01*
X019110Y011734D02*
X019247Y011734D01*
X019247Y011812D02*
X018899Y011812D01*
X018822Y011889D02*
X019283Y011889D01*
X019289Y012043D02*
X018901Y012043D01*
X018940Y012120D02*
X019247Y012120D01*
X019247Y012198D02*
X018647Y012198D01*
X018569Y012198D02*
X017378Y012198D01*
X017455Y012275D02*
X018260Y012275D01*
X018279Y012352D02*
X017532Y012352D01*
X017609Y012429D02*
X018319Y012429D01*
X018389Y012507D02*
X017687Y012507D01*
X017764Y012584D02*
X018388Y012584D01*
X018312Y012661D02*
X017841Y012661D01*
X017918Y012738D02*
X018280Y012738D01*
X018259Y012816D02*
X017996Y012816D01*
X018073Y012893D02*
X018259Y012893D01*
X018276Y012970D02*
X018150Y012970D01*
X018227Y013047D02*
X018308Y013047D01*
X018264Y013084D02*
X018351Y013171D01*
X018351Y013546D01*
X018357Y013553D01*
X018445Y013640D01*
X018445Y014014D01*
X018320Y014139D01*
X018232Y014226D01*
X017743Y014226D01*
X017713Y014256D01*
X017565Y014256D01*
X017461Y014151D01*
X017461Y014003D01*
X017501Y013962D01*
X017428Y013889D01*
X017303Y013764D01*
X017303Y013357D01*
X017131Y013186D01*
X017131Y013245D01*
X017026Y013349D01*
X016878Y013349D01*
X016773Y013245D01*
X016773Y013109D01*
X015109Y011445D01*
X013984Y011445D01*
X013951Y011412D01*
X013909Y011412D01*
X013891Y011394D01*
X013891Y011519D01*
X013833Y011578D01*
X013160Y011578D01*
X013102Y011519D01*
X013102Y011122D01*
X013160Y011064D01*
X013259Y011064D01*
X013259Y010720D01*
X013186Y010720D01*
X013128Y010662D01*
X013128Y010282D01*
X013077Y010232D01*
X013077Y010212D01*
X012865Y010212D01*
X012721Y010069D01*
X012616Y009964D01*
X012616Y008784D01*
X012866Y008534D01*
X012866Y008374D01*
X012855Y008379D01*
X012500Y008379D01*
X012500Y008043D01*
X012422Y008043D01*
X012422Y007965D01*
X012500Y007965D01*
X012500Y007629D01*
X012855Y007629D01*
X012891Y007644D01*
X012919Y007672D01*
X012934Y007709D01*
X012934Y007872D01*
X012991Y007815D01*
X013096Y007710D01*
X013964Y007710D01*
X014069Y007815D01*
X014069Y007964D01*
X013964Y008069D01*
X013880Y008069D01*
X013931Y008120D01*
X013931Y008517D01*
X013918Y008530D01*
X013931Y008542D01*
X013931Y008592D01*
X014240Y008592D01*
X014357Y008709D01*
X014445Y008796D01*
X014445Y010265D01*
X014576Y010396D01*
X015576Y010396D01*
X018264Y013084D01*
X018305Y013125D02*
X018381Y013125D01*
X018351Y013202D02*
X018525Y013202D01*
X018691Y013202D02*
X020617Y013202D01*
X020617Y013159D02*
X020722Y013054D01*
X020836Y013054D01*
X020836Y012940D01*
X020940Y012836D01*
X021088Y012836D01*
X021193Y012940D01*
X021193Y012982D01*
X022570Y014359D01*
X022570Y016192D01*
X022599Y016222D01*
X022599Y016370D01*
X022495Y016474D01*
X022347Y016474D01*
X022242Y016370D01*
X022242Y016222D01*
X022271Y016192D01*
X022271Y014482D01*
X020982Y013193D01*
X020974Y013193D01*
X020974Y013201D01*
X022132Y014359D01*
X022132Y016192D01*
X022162Y016222D01*
X022162Y016370D01*
X022057Y016474D01*
X021909Y016474D01*
X021804Y016370D01*
X021804Y016222D01*
X021834Y016192D01*
X021834Y014482D01*
X020763Y013412D01*
X020756Y013412D01*
X020756Y013419D01*
X021695Y014359D01*
X021695Y016192D01*
X021724Y016222D01*
X021724Y016370D01*
X021620Y016474D01*
X021472Y016474D01*
X021367Y016370D01*
X021367Y016222D01*
X021396Y016192D01*
X021396Y014482D01*
X020544Y013631D01*
X020503Y013631D01*
X020398Y013526D01*
X020398Y013378D01*
X020503Y013273D01*
X020617Y013273D01*
X020617Y013159D01*
X020651Y013125D02*
X018836Y013125D01*
X018908Y013047D02*
X020836Y013047D01*
X020836Y012970D02*
X019124Y012970D01*
X019162Y012893D02*
X020883Y012893D01*
X021146Y012893D02*
X024409Y012893D01*
X024409Y012970D02*
X024192Y012970D01*
X024025Y012970D02*
X023129Y012970D01*
X023120Y012961D02*
X023224Y013065D01*
X023224Y013213D01*
X023120Y013318D01*
X022972Y013318D01*
X022867Y013213D01*
X022867Y013065D01*
X022972Y012961D01*
X023120Y012961D01*
X023206Y013047D02*
X023947Y013047D01*
X023929Y013125D02*
X023224Y013125D01*
X023224Y013202D02*
X023929Y013202D01*
X023995Y013279D02*
X023159Y013279D01*
X022933Y013279D02*
X021490Y013279D01*
X021413Y013202D02*
X022867Y013202D01*
X022867Y013125D02*
X021336Y013125D01*
X021259Y013047D02*
X022885Y013047D01*
X022962Y012970D02*
X021193Y012970D01*
X020991Y013202D02*
X020976Y013202D01*
X021053Y013279D02*
X021068Y013279D01*
X021130Y013356D02*
X021145Y013356D01*
X021207Y013434D02*
X021222Y013434D01*
X021285Y013511D02*
X021300Y013511D01*
X021362Y013588D02*
X021377Y013588D01*
X021439Y013665D02*
X021454Y013665D01*
X021516Y013743D02*
X021531Y013743D01*
X021594Y013820D02*
X021609Y013820D01*
X021671Y013897D02*
X021686Y013897D01*
X021748Y013974D02*
X021763Y013974D01*
X021825Y014051D02*
X021840Y014051D01*
X021902Y014129D02*
X021917Y014129D01*
X021980Y014206D02*
X021995Y014206D01*
X022057Y014283D02*
X022072Y014283D01*
X022132Y014360D02*
X022149Y014360D01*
X022132Y014438D02*
X022226Y014438D01*
X022271Y014515D02*
X022132Y014515D01*
X022132Y014592D02*
X022271Y014592D01*
X022271Y014669D02*
X022132Y014669D01*
X022132Y014747D02*
X022271Y014747D01*
X022271Y014824D02*
X022132Y014824D01*
X022132Y014901D02*
X022271Y014901D01*
X022271Y014978D02*
X022132Y014978D01*
X022132Y015056D02*
X022271Y015056D01*
X022271Y015133D02*
X022132Y015133D01*
X022132Y015210D02*
X022271Y015210D01*
X022271Y015287D02*
X022132Y015287D01*
X022132Y015365D02*
X022271Y015365D01*
X022271Y015442D02*
X022132Y015442D01*
X022132Y015519D02*
X022271Y015519D01*
X022271Y015596D02*
X022132Y015596D01*
X022132Y015674D02*
X022271Y015674D01*
X022271Y015751D02*
X022132Y015751D01*
X022132Y015828D02*
X022271Y015828D01*
X022271Y015905D02*
X022132Y015905D01*
X022132Y015983D02*
X022271Y015983D01*
X022271Y016060D02*
X022132Y016060D01*
X022132Y016137D02*
X022271Y016137D01*
X022249Y016214D02*
X022155Y016214D01*
X022162Y016291D02*
X022242Y016291D01*
X022242Y016369D02*
X022162Y016369D01*
X022086Y016446D02*
X022318Y016446D01*
X022523Y016446D02*
X023475Y016446D01*
X023552Y016523D02*
X020821Y016523D01*
X020849Y016495D02*
X020745Y016599D01*
X020597Y016599D01*
X020492Y016495D01*
X020492Y016453D01*
X020169Y016131D01*
X020128Y016131D01*
X020023Y016026D01*
X020023Y015878D01*
X020128Y015773D01*
X020276Y015773D01*
X020381Y015878D01*
X020381Y015919D01*
X020703Y016242D01*
X020745Y016242D01*
X020849Y016347D01*
X020849Y016495D01*
X020849Y016446D02*
X021443Y016446D01*
X021367Y016369D02*
X020849Y016369D01*
X020794Y016291D02*
X021367Y016291D01*
X021374Y016214D02*
X020675Y016214D01*
X020598Y016137D02*
X021396Y016137D01*
X021396Y016060D02*
X020521Y016060D01*
X020444Y015983D02*
X021396Y015983D01*
X021396Y015905D02*
X020381Y015905D01*
X020331Y015828D02*
X021396Y015828D01*
X021396Y015751D02*
X020999Y015751D01*
X021037Y015713D02*
X020932Y015818D01*
X020784Y015818D01*
X020679Y015713D01*
X020679Y015565D01*
X020784Y015461D01*
X020932Y015461D01*
X021037Y015565D01*
X021037Y015713D01*
X021037Y015674D02*
X021396Y015674D01*
X021396Y015596D02*
X021037Y015596D01*
X020991Y015519D02*
X021396Y015519D01*
X021396Y015442D02*
X020476Y015442D01*
X020537Y015519D02*
X020726Y015519D01*
X020679Y015596D02*
X020537Y015596D01*
X020514Y015674D02*
X020679Y015674D01*
X020717Y015751D02*
X020437Y015751D01*
X020279Y015751D02*
X019468Y015751D01*
X019311Y015751D02*
X019257Y015751D01*
X019257Y015828D02*
X020073Y015828D01*
X020023Y015905D02*
X019257Y015905D01*
X019257Y015983D02*
X020023Y015983D01*
X020057Y016060D02*
X019257Y016060D01*
X019257Y016137D02*
X020176Y016137D01*
X020253Y016214D02*
X019257Y016214D01*
X019257Y016291D02*
X020330Y016291D01*
X020407Y016369D02*
X019257Y016369D01*
X019257Y016446D02*
X020485Y016446D01*
X020520Y016523D02*
X019257Y016523D01*
X019257Y016600D02*
X024456Y016600D01*
X024409Y016523D02*
X023914Y016523D01*
X023899Y016539D02*
X023772Y016539D01*
X023772Y016179D01*
X023694Y016179D01*
X023694Y016539D01*
X023568Y016539D01*
X023334Y016305D01*
X023334Y016179D01*
X023694Y016179D01*
X023694Y016100D01*
X023772Y016100D01*
X023772Y015740D01*
X023899Y015740D01*
X024132Y015974D01*
X024132Y016100D01*
X023772Y016100D01*
X023772Y016179D01*
X024132Y016179D01*
X024132Y016305D01*
X023899Y016539D01*
X023772Y016523D02*
X023694Y016523D01*
X023694Y016446D02*
X023772Y016446D01*
X023772Y016369D02*
X023694Y016369D01*
X023694Y016291D02*
X023772Y016291D01*
X023772Y016214D02*
X023694Y016214D01*
X023694Y016137D02*
X023200Y016137D01*
X023193Y016154D02*
X023123Y016224D01*
X023032Y016261D01*
X022934Y016261D01*
X022843Y016224D01*
X022774Y016154D01*
X022736Y016064D01*
X022736Y015965D01*
X022774Y015874D01*
X022843Y015805D01*
X022934Y015767D01*
X023032Y015767D01*
X023123Y015805D01*
X023193Y015874D01*
X023230Y015965D01*
X023230Y016064D01*
X023193Y016154D01*
X023133Y016214D02*
X023334Y016214D01*
X023334Y016291D02*
X022599Y016291D01*
X022592Y016214D02*
X022834Y016214D01*
X022767Y016137D02*
X022570Y016137D01*
X022570Y016060D02*
X022736Y016060D01*
X022736Y015983D02*
X022570Y015983D01*
X022570Y015905D02*
X022761Y015905D01*
X022820Y015828D02*
X022570Y015828D01*
X022570Y015751D02*
X023557Y015751D01*
X023568Y015740D02*
X023334Y015974D01*
X023334Y016100D01*
X023694Y016100D01*
X023694Y015740D01*
X023568Y015740D01*
X023480Y015828D02*
X023146Y015828D01*
X023205Y015905D02*
X023402Y015905D01*
X023334Y015983D02*
X023230Y015983D01*
X023230Y016060D02*
X023334Y016060D01*
X023398Y016369D02*
X022599Y016369D01*
X022577Y016814D02*
X022258Y016814D01*
X022221Y016851D01*
X022183Y016814D01*
X021864Y016814D01*
X021827Y016851D01*
X021789Y016814D01*
X021471Y016814D01*
X021433Y016851D01*
X021411Y016829D01*
X021374Y016814D01*
X021256Y016814D01*
X021256Y017198D01*
X021217Y017198D01*
X021217Y016814D01*
X021098Y016814D01*
X021062Y016829D01*
X021034Y016857D01*
X021019Y016893D01*
X021019Y017198D01*
X021217Y017198D01*
X021217Y017238D01*
X021217Y017623D01*
X021098Y017623D01*
X021062Y017607D01*
X021034Y017580D01*
X021019Y017543D01*
X021019Y017238D01*
X021217Y017238D01*
X021256Y017238D01*
X021256Y017623D01*
X021374Y017623D01*
X021411Y017607D01*
X021433Y017585D01*
X021453Y017605D01*
X021414Y017605D01*
X021429Y017628D02*
X021453Y017605D01*
X021429Y017628D02*
X021429Y017776D01*
X021534Y017881D01*
X021682Y017881D01*
X021787Y017776D01*
X021787Y017628D01*
X021782Y017623D01*
X021789Y017623D01*
X021827Y017585D01*
X021853Y017611D01*
X021836Y017628D01*
X021836Y017776D01*
X021940Y017881D01*
X022088Y017881D01*
X022193Y017776D01*
X022193Y017628D01*
X022185Y017620D01*
X022221Y017585D01*
X022237Y017601D01*
X022211Y017628D01*
X022211Y017776D01*
X022315Y017881D01*
X022463Y017881D01*
X022568Y017776D01*
X022568Y017628D01*
X022567Y017627D01*
X022567Y017623D01*
X022577Y017623D01*
X022635Y017564D01*
X022635Y016872D01*
X022577Y016814D01*
X022595Y016832D02*
X025517Y016832D01*
X025517Y016755D02*
X019257Y016755D01*
X019257Y016832D02*
X021059Y016832D01*
X021019Y016909D02*
X019257Y016909D01*
X019257Y016987D02*
X021019Y016987D01*
X021019Y017064D02*
X019257Y017064D01*
X019257Y017141D02*
X021019Y017141D01*
X021019Y017296D02*
X019257Y017296D01*
X019257Y017373D02*
X021019Y017373D01*
X021019Y017450D02*
X019227Y017450D01*
X019150Y017527D02*
X021019Y017527D01*
X021059Y017605D02*
X019073Y017605D01*
X018996Y017682D02*
X021429Y017682D01*
X021429Y017759D02*
X018918Y017759D01*
X018841Y017836D02*
X021490Y017836D01*
X021726Y017836D02*
X021896Y017836D01*
X021836Y017759D02*
X021787Y017759D01*
X021787Y017682D02*
X021836Y017682D01*
X021846Y017605D02*
X021807Y017605D01*
X022193Y017682D02*
X022211Y017682D01*
X022211Y017759D02*
X022193Y017759D01*
X022133Y017836D02*
X022271Y017836D01*
X022234Y017605D02*
X022201Y017605D01*
X022508Y017836D02*
X023449Y017836D01*
X023463Y017759D02*
X022568Y017759D01*
X022568Y017682D02*
X023485Y017682D01*
X023472Y017704D02*
X023472Y017704D01*
X023530Y017605D02*
X022595Y017605D01*
X022635Y017527D02*
X023574Y017527D01*
X023619Y017450D02*
X022635Y017450D01*
X022635Y017373D02*
X023664Y017373D01*
X023676Y017352D02*
X023676Y017352D01*
X023743Y017296D02*
X022635Y017296D01*
X022635Y017218D02*
X023835Y017218D01*
X023927Y017141D02*
X022635Y017141D01*
X022635Y017064D02*
X024059Y017064D01*
X023988Y017090D02*
X023988Y017090D01*
X024271Y016987D02*
X022635Y016987D01*
X022635Y016909D02*
X025517Y016909D01*
X025517Y016987D02*
X024876Y016987D01*
X025088Y017064D02*
X025517Y017064D01*
X025517Y017141D02*
X025221Y017141D01*
X025160Y017090D02*
X025160Y017090D01*
X025313Y017218D02*
X025517Y017218D01*
X025517Y017296D02*
X025405Y017296D01*
X025472Y017352D02*
X025472Y017352D01*
X025484Y017373D02*
X025517Y017373D01*
X025517Y016678D02*
X019257Y016678D01*
X018959Y016678D02*
X017719Y016678D01*
X017726Y016600D02*
X018959Y016600D01*
X018959Y016523D02*
X017726Y016523D01*
X017726Y016446D02*
X018959Y016446D01*
X018959Y016369D02*
X017726Y016369D01*
X017730Y016291D02*
X018959Y016291D01*
X018959Y016214D02*
X017807Y016214D01*
X017489Y015828D02*
X017382Y015828D01*
X017382Y015751D02*
X017567Y015751D01*
X017382Y015674D02*
X018238Y015674D01*
X018315Y015596D02*
X017382Y015596D01*
X017382Y015519D02*
X018392Y015519D01*
X018396Y015442D02*
X017382Y015442D01*
X017412Y015365D02*
X018396Y015365D01*
X018367Y015287D02*
X017412Y015287D01*
X017369Y015210D02*
X018367Y015210D01*
X018393Y015133D02*
X016414Y015133D01*
X016414Y015210D02*
X016878Y015210D01*
X016804Y015287D02*
X016414Y015287D01*
X016414Y015365D02*
X016804Y015365D01*
X016814Y015442D02*
X016414Y015442D01*
X016414Y015519D02*
X016865Y015519D01*
X016865Y015596D02*
X016414Y015596D01*
X016414Y015674D02*
X016865Y015674D01*
X016865Y015751D02*
X016414Y015751D01*
X016414Y015828D02*
X016865Y015828D01*
X016865Y015905D02*
X016414Y015905D01*
X016414Y015983D02*
X016804Y015983D01*
X016727Y016060D02*
X016414Y016060D01*
X016414Y016137D02*
X016649Y016137D01*
X016572Y016214D02*
X016414Y016214D01*
X016414Y016291D02*
X016553Y016291D01*
X016553Y016369D02*
X016414Y016369D01*
X016388Y016446D02*
X016553Y016446D01*
X016544Y016523D02*
X016311Y016523D01*
X016326Y016507D02*
X016326Y016507D01*
X016275Y016600D02*
X016467Y016600D01*
X016390Y016678D02*
X016198Y016678D01*
X016313Y016755D02*
X015904Y016755D01*
X015854Y016678D02*
X016019Y016678D01*
X015941Y016600D02*
X015931Y016600D01*
X016120Y016832D02*
X016158Y016832D01*
X015732Y016336D02*
X015928Y016140D01*
X015928Y015724D01*
X015784Y015724D01*
X015742Y015683D01*
X015742Y015804D01*
X015559Y015804D01*
X015559Y015814D01*
X015550Y015814D01*
X015550Y016105D01*
X015448Y016105D01*
X015448Y016299D01*
X015587Y016439D01*
X015690Y016336D01*
X015732Y016336D01*
X015776Y016291D02*
X015448Y016291D01*
X015448Y016214D02*
X015853Y016214D01*
X015928Y016137D02*
X015448Y016137D01*
X015559Y016105D02*
X015663Y016105D01*
X015699Y016090D01*
X015727Y016062D01*
X015742Y016026D01*
X015742Y015814D01*
X015559Y015814D01*
X015559Y016105D01*
X015550Y016060D02*
X015559Y016060D01*
X015550Y015983D02*
X015559Y015983D01*
X015550Y015905D02*
X015559Y015905D01*
X015550Y015828D02*
X015559Y015828D01*
X015550Y015751D02*
X015559Y015751D01*
X015550Y015674D02*
X015559Y015674D01*
X015550Y015596D02*
X015559Y015596D01*
X015550Y015519D02*
X015559Y015519D01*
X015678Y015519D02*
X015679Y015519D01*
X015709Y015442D02*
X014298Y015442D01*
X014221Y015519D02*
X014664Y015519D01*
X014678Y015513D02*
X014782Y015513D01*
X014782Y015804D01*
X014599Y015804D01*
X014599Y015593D01*
X014614Y015556D01*
X014642Y015528D01*
X014678Y015513D01*
X014782Y015519D02*
X014792Y015519D01*
X014782Y015596D02*
X014792Y015596D01*
X014782Y015674D02*
X014792Y015674D01*
X014782Y015751D02*
X014792Y015751D01*
X014782Y015828D02*
X014792Y015828D01*
X014782Y015905D02*
X014792Y015905D01*
X014782Y015983D02*
X014792Y015983D01*
X014782Y016060D02*
X014792Y016060D01*
X014893Y016137D02*
X014629Y016137D01*
X014613Y016060D02*
X014592Y016060D01*
X014599Y015983D02*
X014551Y015983D01*
X014599Y015905D02*
X014438Y015905D01*
X014278Y015905D02*
X013824Y015905D01*
X013840Y015889D02*
X013782Y015947D01*
X013089Y015947D01*
X013031Y015889D01*
X013031Y015571D01*
X013069Y015533D01*
X013031Y015495D01*
X013031Y015216D01*
X013005Y015279D01*
X012936Y015349D01*
X012845Y015386D01*
X012746Y015386D01*
X012656Y015349D01*
X012586Y015279D01*
X012549Y015189D01*
X012549Y015090D01*
X012586Y014999D01*
X012656Y014930D01*
X012731Y014899D01*
X012734Y014896D01*
X012837Y014793D01*
X013031Y014793D01*
X013031Y014783D01*
X013069Y014746D01*
X013046Y014723D01*
X013031Y014687D01*
X013031Y014569D01*
X013416Y014569D01*
X013416Y014529D01*
X013455Y014529D01*
X013455Y014331D01*
X013761Y014331D01*
X013797Y014346D01*
X013825Y014374D01*
X013840Y014411D01*
X013840Y014529D01*
X013455Y014529D01*
X013455Y014569D01*
X013840Y014569D01*
X013840Y014687D01*
X013825Y014723D01*
X013803Y014746D01*
X013840Y014783D01*
X013840Y015102D01*
X013803Y015139D01*
X013818Y015155D01*
X013959Y015015D01*
X013959Y014243D01*
X013929Y014213D01*
X013929Y014065D01*
X014034Y013961D01*
X014054Y013961D01*
X014054Y013815D01*
X014159Y013711D01*
X014307Y013711D01*
X014412Y013815D01*
X014412Y013857D01*
X014476Y013921D01*
X014476Y015264D01*
X013948Y015792D01*
X013861Y015879D01*
X013840Y015879D01*
X013840Y015889D01*
X013912Y015828D02*
X014599Y015828D01*
X014599Y015751D02*
X013989Y015751D01*
X014066Y015674D02*
X014599Y015674D01*
X014599Y015596D02*
X014144Y015596D01*
X014375Y015365D02*
X015928Y015365D01*
X015928Y015287D02*
X015119Y015287D01*
X015088Y015318D02*
X015193Y015213D01*
X015193Y015141D01*
X015294Y015141D01*
X015294Y014850D01*
X015303Y014850D01*
X015303Y015141D01*
X015407Y015141D01*
X015420Y015136D01*
X015425Y015141D01*
X015684Y015141D01*
X015742Y015083D01*
X015742Y014693D01*
X015745Y014693D01*
X015849Y014588D01*
X015849Y014440D01*
X015745Y014336D01*
X015597Y014336D01*
X015492Y014440D01*
X015492Y014451D01*
X015490Y014452D01*
X015405Y014537D01*
X015405Y014548D01*
X015303Y014548D01*
X015303Y014840D01*
X015294Y014840D01*
X015294Y014548D01*
X015190Y014548D01*
X015178Y014554D01*
X015172Y014548D01*
X014936Y014548D01*
X014936Y014523D01*
X015016Y014443D01*
X015120Y014443D01*
X015224Y014338D01*
X015224Y014190D01*
X015120Y014086D01*
X014972Y014086D01*
X014942Y014115D01*
X014921Y014115D01*
X014834Y014202D01*
X014834Y014203D01*
X014637Y014399D01*
X014637Y014568D01*
X014599Y014607D01*
X014599Y015083D01*
X014657Y015141D01*
X014836Y015141D01*
X014836Y015213D01*
X014940Y015318D01*
X015088Y015318D01*
X015193Y015210D02*
X015928Y015210D01*
X015928Y015133D02*
X015692Y015133D01*
X015742Y015056D02*
X015928Y015056D01*
X015928Y014978D02*
X015742Y014978D01*
X015742Y014901D02*
X015928Y014901D01*
X015928Y014824D02*
X015742Y014824D01*
X015742Y014747D02*
X015928Y014747D01*
X015928Y014669D02*
X015768Y014669D01*
X015846Y014592D02*
X015928Y014592D01*
X015928Y014515D02*
X015849Y014515D01*
X015847Y014438D02*
X015928Y014438D01*
X015928Y014360D02*
X015769Y014360D01*
X015928Y014283D02*
X015224Y014283D01*
X015224Y014206D02*
X015928Y014206D01*
X015928Y014129D02*
X015163Y014129D01*
X015202Y014360D02*
X015572Y014360D01*
X015495Y014438D02*
X015125Y014438D01*
X014944Y014515D02*
X015428Y014515D01*
X015303Y014592D02*
X015294Y014592D01*
X015294Y014669D02*
X015303Y014669D01*
X015294Y014747D02*
X015303Y014747D01*
X015294Y014824D02*
X015303Y014824D01*
X015294Y014901D02*
X015303Y014901D01*
X015294Y014978D02*
X015303Y014978D01*
X015294Y015056D02*
X015303Y015056D01*
X015294Y015133D02*
X015303Y015133D01*
X014910Y015287D02*
X014453Y015287D01*
X014476Y015210D02*
X014836Y015210D01*
X014649Y015133D02*
X014476Y015133D01*
X014476Y015056D02*
X014599Y015056D01*
X014599Y014978D02*
X014476Y014978D01*
X014476Y014901D02*
X014599Y014901D01*
X014599Y014824D02*
X014476Y014824D01*
X014476Y014747D02*
X014599Y014747D01*
X014599Y014669D02*
X014476Y014669D01*
X014476Y014592D02*
X014613Y014592D01*
X014637Y014515D02*
X014476Y014515D01*
X014476Y014438D02*
X014637Y014438D01*
X014676Y014360D02*
X014476Y014360D01*
X014476Y014283D02*
X014753Y014283D01*
X014830Y014206D02*
X014476Y014206D01*
X014476Y014129D02*
X014908Y014129D01*
X014476Y014051D02*
X015928Y014051D01*
X015928Y013974D02*
X014476Y013974D01*
X014452Y013897D02*
X015928Y013897D01*
X015928Y013820D02*
X014412Y013820D01*
X014339Y013743D02*
X015928Y013743D01*
X015928Y013665D02*
X011622Y013665D01*
X011622Y013588D02*
X015928Y013588D01*
X015928Y013511D02*
X011622Y013511D01*
X012028Y013434D02*
X012107Y013434D01*
X012107Y013506D02*
X012107Y013171D01*
X012541Y013171D01*
X012541Y013427D01*
X012526Y013463D01*
X012498Y013491D01*
X012461Y013506D01*
X012107Y013506D01*
X012107Y013356D02*
X012028Y013356D01*
X012028Y013279D02*
X012107Y013279D01*
X012107Y013202D02*
X012028Y013202D01*
X012107Y013125D02*
X015695Y013125D01*
X015772Y013202D02*
X012541Y013202D01*
X012541Y013279D02*
X015849Y013279D01*
X015926Y013356D02*
X012541Y013356D01*
X012538Y013434D02*
X015928Y013434D01*
X016414Y013434D02*
X017303Y013434D01*
X017303Y013511D02*
X016414Y013511D01*
X016414Y013588D02*
X017303Y013588D01*
X017303Y013665D02*
X016414Y013665D01*
X016414Y013743D02*
X017303Y013743D01*
X017359Y013820D02*
X016414Y013820D01*
X016414Y013897D02*
X017436Y013897D01*
X017489Y013974D02*
X016414Y013974D01*
X016414Y014051D02*
X017461Y014051D01*
X017461Y014129D02*
X016414Y014129D01*
X016414Y014206D02*
X017516Y014206D01*
X018253Y014206D02*
X021120Y014206D01*
X021197Y014283D02*
X016414Y014283D01*
X016414Y014360D02*
X021274Y014360D01*
X021351Y014438D02*
X016414Y014438D01*
X016414Y014515D02*
X021396Y014515D01*
X021396Y014592D02*
X016414Y014592D01*
X016414Y014669D02*
X021396Y014669D01*
X021396Y014747D02*
X016414Y014747D01*
X016414Y014824D02*
X021396Y014824D01*
X021396Y014901D02*
X016414Y014901D01*
X016414Y014978D02*
X021396Y014978D01*
X021396Y015056D02*
X018621Y015056D01*
X018470Y015056D02*
X016414Y015056D01*
X017088Y015210D02*
X017097Y015210D01*
X017382Y015905D02*
X017412Y015905D01*
X018478Y016137D02*
X018959Y016137D01*
X018959Y016060D02*
X018555Y016060D01*
X018632Y015983D02*
X018959Y015983D01*
X018959Y015905D02*
X018710Y015905D01*
X018787Y015828D02*
X018959Y015828D01*
X018959Y015751D02*
X018864Y015751D01*
X018941Y015674D02*
X018952Y015674D01*
X018945Y015442D02*
X018990Y015442D01*
X018948Y015365D02*
X021396Y015365D01*
X021396Y015287D02*
X018974Y015287D01*
X018974Y015210D02*
X021396Y015210D01*
X021396Y015133D02*
X018917Y015133D01*
X019226Y015442D02*
X019272Y015442D01*
X018959Y016755D02*
X017667Y016755D01*
X017695Y016832D02*
X018959Y016832D01*
X018959Y016909D02*
X017735Y016909D01*
X017735Y016987D02*
X018959Y016987D01*
X018959Y017064D02*
X017735Y017064D01*
X017735Y017141D02*
X018959Y017141D01*
X018959Y017218D02*
X017735Y017218D01*
X017735Y017296D02*
X018959Y017296D01*
X018882Y017373D02*
X017735Y017373D01*
X017735Y017450D02*
X018805Y017450D01*
X018728Y017527D02*
X017735Y017527D01*
X017695Y017605D02*
X018650Y017605D01*
X018573Y017682D02*
X013654Y017682D01*
X013677Y017759D02*
X018496Y017759D01*
X018419Y017836D02*
X013690Y017836D01*
X013704Y017914D02*
X018341Y017914D01*
X018264Y017991D02*
X013718Y017991D01*
X013731Y018068D02*
X018145Y018068D01*
X018086Y018145D02*
X013731Y018145D01*
X013717Y018222D02*
X018086Y018222D01*
X018365Y018377D02*
X020389Y018377D01*
X020389Y018454D02*
X018365Y018454D01*
X018365Y018531D02*
X020389Y018531D01*
X020389Y018609D02*
X018365Y018609D01*
X018365Y018686D02*
X020389Y018686D01*
X020389Y018763D02*
X018365Y018763D01*
X018365Y018840D02*
X020389Y018840D01*
X020389Y018918D02*
X018365Y018918D01*
X018365Y018995D02*
X020389Y018995D01*
X021060Y018995D02*
X022594Y018995D01*
X022594Y018918D02*
X021060Y018918D01*
X021060Y018840D02*
X022594Y018840D01*
X022594Y018763D02*
X021060Y018763D01*
X021060Y018686D02*
X022594Y018686D01*
X022594Y018609D02*
X021060Y018609D01*
X021060Y018531D02*
X022594Y018531D01*
X022594Y018454D02*
X021060Y018454D01*
X021060Y018377D02*
X022594Y018377D01*
X022642Y018300D02*
X021012Y018300D01*
X020437Y018300D02*
X018419Y018300D01*
X018455Y018222D02*
X023422Y018222D01*
X023409Y018145D02*
X018532Y018145D01*
X018609Y018068D02*
X023408Y018068D01*
X023402Y018105D02*
X023402Y018105D01*
X023422Y017991D02*
X018687Y017991D01*
X018764Y017914D02*
X023435Y017914D01*
X023436Y018300D02*
X023216Y018300D01*
X023265Y018377D02*
X023450Y018377D01*
X023463Y018454D02*
X023265Y018454D01*
X023265Y018531D02*
X023487Y018531D01*
X023472Y018506D02*
X023472Y018506D01*
X023532Y018609D02*
X023265Y018609D01*
X023265Y018686D02*
X023576Y018686D01*
X023621Y018763D02*
X023265Y018763D01*
X023265Y018840D02*
X023665Y018840D01*
X023676Y018858D02*
X023676Y018858D01*
X023747Y018918D02*
X023265Y018918D01*
X023265Y018995D02*
X023839Y018995D01*
X021256Y017605D02*
X021217Y017605D01*
X021217Y017527D02*
X021256Y017527D01*
X021256Y017450D02*
X021217Y017450D01*
X021217Y017373D02*
X021256Y017373D01*
X021256Y017296D02*
X021217Y017296D01*
X021217Y017218D02*
X019257Y017218D01*
X017742Y018300D02*
X014537Y018300D01*
X014585Y018377D02*
X017694Y018377D01*
X017694Y018454D02*
X014585Y018454D01*
X014585Y018531D02*
X017694Y018531D01*
X017694Y018609D02*
X014585Y018609D01*
X014585Y018686D02*
X017694Y018686D01*
X017694Y018763D02*
X014585Y018763D01*
X014585Y018840D02*
X017694Y018840D01*
X017694Y018918D02*
X014585Y018918D01*
X014585Y018995D02*
X017694Y018995D01*
X017340Y017605D02*
X017301Y017605D01*
X016946Y017605D02*
X016907Y017605D01*
X016553Y017605D02*
X016514Y017605D01*
X016159Y017605D02*
X016120Y017605D01*
X015765Y017605D02*
X015726Y017605D01*
X015372Y017605D02*
X015332Y017605D01*
X014978Y017605D02*
X014939Y017605D01*
X014781Y017605D02*
X014742Y017605D01*
X014742Y017527D02*
X014781Y017527D01*
X014781Y017450D02*
X014742Y017450D01*
X014742Y017373D02*
X014781Y017373D01*
X014781Y017296D02*
X014742Y017296D01*
X014742Y017218D02*
X013305Y017218D01*
X013213Y017141D02*
X014544Y017141D01*
X014544Y017198D02*
X014544Y016893D01*
X014559Y016857D01*
X014587Y016829D01*
X014624Y016814D01*
X014742Y016814D01*
X014742Y017198D01*
X014544Y017198D01*
X014544Y017296D02*
X013397Y017296D01*
X013464Y017352D02*
X013464Y017352D01*
X013476Y017373D02*
X014544Y017373D01*
X014544Y017450D02*
X013521Y017450D01*
X013565Y017527D02*
X014544Y017527D01*
X014584Y017605D02*
X013610Y017605D01*
X013152Y017090D02*
X013152Y017090D01*
X013080Y017064D02*
X014544Y017064D01*
X014544Y016987D02*
X012868Y016987D01*
X012263Y016987D02*
X011622Y016987D01*
X011622Y017064D02*
X012051Y017064D01*
X011980Y017090D02*
X011980Y017090D01*
X011919Y017141D02*
X011622Y017141D01*
X011622Y017218D02*
X011827Y017218D01*
X011735Y017296D02*
X011622Y017296D01*
X011668Y017352D02*
X011668Y017352D01*
X011656Y017373D02*
X011622Y017373D01*
X011622Y016909D02*
X014544Y016909D01*
X014584Y016832D02*
X011622Y016832D01*
X011622Y016755D02*
X014825Y016755D01*
X014781Y016832D02*
X014742Y016832D01*
X014742Y016909D02*
X014781Y016909D01*
X014781Y016987D02*
X014742Y016987D01*
X014742Y017064D02*
X014781Y017064D01*
X014781Y017141D02*
X014742Y017141D01*
X014748Y016678D02*
X011622Y016678D01*
X011622Y016600D02*
X014670Y016600D01*
X014593Y016523D02*
X012360Y016523D01*
X012364Y016446D02*
X014516Y016446D01*
X014266Y016369D02*
X012364Y016369D01*
X012364Y016291D02*
X014161Y016291D01*
X014122Y016214D02*
X012364Y016214D01*
X012364Y016137D02*
X014111Y016137D01*
X014124Y016060D02*
X012364Y016060D01*
X012364Y015983D02*
X014166Y015983D01*
X014707Y016214D02*
X014893Y016214D01*
X014893Y016291D02*
X014784Y016291D01*
X014861Y016369D02*
X014893Y016369D01*
X015517Y016369D02*
X015657Y016369D01*
X015728Y016060D02*
X015928Y016060D01*
X015928Y015983D02*
X015742Y015983D01*
X015742Y015905D02*
X015928Y015905D01*
X015928Y015828D02*
X015742Y015828D01*
X015742Y015751D02*
X015928Y015751D01*
X013959Y014978D02*
X013840Y014978D01*
X013840Y014901D02*
X013959Y014901D01*
X013959Y014824D02*
X013840Y014824D01*
X013804Y014747D02*
X013959Y014747D01*
X013959Y014669D02*
X013840Y014669D01*
X013840Y014592D02*
X013959Y014592D01*
X013959Y014515D02*
X013840Y014515D01*
X013840Y014438D02*
X013959Y014438D01*
X013959Y014360D02*
X013811Y014360D01*
X013959Y014283D02*
X012364Y014283D01*
X012364Y014206D02*
X013929Y014206D01*
X013929Y014129D02*
X012364Y014129D01*
X012364Y014051D02*
X013943Y014051D01*
X014020Y013974D02*
X012364Y013974D01*
X012364Y013897D02*
X014054Y013897D01*
X014054Y013820D02*
X012364Y013820D01*
X012347Y013743D02*
X014127Y013743D01*
X013455Y014360D02*
X013416Y014360D01*
X013416Y014331D02*
X013416Y014529D01*
X013031Y014529D01*
X013031Y014411D01*
X013046Y014374D01*
X013074Y014346D01*
X013111Y014331D01*
X013416Y014331D01*
X013416Y014438D02*
X013455Y014438D01*
X013455Y014515D02*
X013416Y014515D01*
X013031Y014515D02*
X011622Y014515D01*
X011622Y014592D02*
X013031Y014592D01*
X013031Y014669D02*
X011622Y014669D01*
X011622Y014747D02*
X013068Y014747D01*
X012806Y014824D02*
X011622Y014824D01*
X011622Y014901D02*
X012725Y014901D01*
X012607Y014978D02*
X011622Y014978D01*
X011622Y015056D02*
X012563Y015056D01*
X012549Y015133D02*
X011622Y015133D01*
X011622Y015210D02*
X012558Y015210D01*
X012594Y015287D02*
X011622Y015287D01*
X011622Y015365D02*
X012694Y015365D01*
X012897Y015365D02*
X013031Y015365D01*
X013031Y015442D02*
X011622Y015442D01*
X011622Y015519D02*
X013055Y015519D01*
X013031Y015596D02*
X011622Y015596D01*
X011622Y015674D02*
X013031Y015674D01*
X013031Y015751D02*
X011622Y015751D01*
X011622Y015828D02*
X013031Y015828D01*
X013047Y015905D02*
X011622Y015905D01*
X012997Y015287D02*
X013031Y015287D01*
X013809Y015133D02*
X013841Y015133D01*
X013840Y015056D02*
X013918Y015056D01*
X013031Y014438D02*
X011622Y014438D01*
X012318Y014360D02*
X013060Y014360D01*
X012541Y013092D02*
X012107Y013092D01*
X012107Y012756D01*
X012461Y012756D01*
X012498Y012771D01*
X012526Y012799D01*
X012541Y012836D01*
X012541Y013092D01*
X012541Y013047D02*
X015617Y013047D01*
X015540Y012970D02*
X012541Y012970D01*
X012541Y012893D02*
X015463Y012893D01*
X015386Y012816D02*
X012532Y012816D01*
X012107Y012816D02*
X012028Y012816D01*
X012028Y012893D02*
X012107Y012893D01*
X012107Y012970D02*
X012028Y012970D01*
X012028Y013047D02*
X012107Y013047D01*
X011622Y012738D02*
X015308Y012738D01*
X015231Y012661D02*
X011622Y012661D01*
X011622Y012584D02*
X015154Y012584D01*
X015035Y012507D02*
X011622Y012507D01*
X011622Y012429D02*
X014961Y012429D01*
X014961Y012352D02*
X011622Y012352D01*
X011622Y012275D02*
X014970Y012275D01*
X015047Y012198D02*
X011622Y012198D01*
X011622Y012120D02*
X015784Y012120D01*
X015707Y012043D02*
X011622Y012043D01*
X011622Y011966D02*
X015630Y011966D01*
X015553Y011889D02*
X011622Y011889D01*
X011622Y011812D02*
X015475Y011812D01*
X015398Y011734D02*
X011622Y011734D01*
X011622Y011657D02*
X015321Y011657D01*
X015244Y011580D02*
X011622Y011580D01*
X011622Y011503D02*
X013102Y011503D01*
X013102Y011425D02*
X011622Y011425D01*
X011622Y011348D02*
X013102Y011348D01*
X013102Y011271D02*
X011622Y011271D01*
X011622Y011194D02*
X013102Y011194D01*
X013108Y011116D02*
X011622Y011116D01*
X011622Y011039D02*
X013259Y011039D01*
X013259Y010962D02*
X011622Y010962D01*
X011622Y010885D02*
X013259Y010885D01*
X013259Y010807D02*
X011622Y010807D01*
X011622Y010730D02*
X013259Y010730D01*
X013128Y010653D02*
X011622Y010653D01*
X011622Y010576D02*
X013128Y010576D01*
X013128Y010498D02*
X011622Y010498D01*
X011622Y010421D02*
X013128Y010421D01*
X013128Y010344D02*
X011622Y010344D01*
X011622Y010267D02*
X013112Y010267D01*
X012842Y010189D02*
X011622Y010189D01*
X011622Y010112D02*
X012765Y010112D01*
X012688Y010035D02*
X011622Y010035D01*
X011622Y009958D02*
X012616Y009958D01*
X012616Y009881D02*
X011622Y009881D01*
X011622Y009803D02*
X012616Y009803D01*
X012616Y009726D02*
X011622Y009726D01*
X011622Y009649D02*
X012616Y009649D01*
X012616Y009572D02*
X011622Y009572D01*
X011622Y009494D02*
X012616Y009494D01*
X012616Y009417D02*
X011622Y009417D01*
X011622Y009340D02*
X012616Y009340D01*
X012616Y009263D02*
X011622Y009263D01*
X011622Y009185D02*
X012616Y009185D01*
X012616Y009108D02*
X011622Y009108D01*
X011622Y009031D02*
X012616Y009031D01*
X012616Y008954D02*
X011622Y008954D01*
X011622Y008876D02*
X012616Y008876D01*
X012616Y008799D02*
X011622Y008799D01*
X011622Y008722D02*
X012678Y008722D01*
X012755Y008645D02*
X011622Y008645D01*
X011622Y008567D02*
X012833Y008567D01*
X012866Y008490D02*
X011622Y008490D01*
X011622Y008413D02*
X012866Y008413D01*
X012500Y008336D02*
X012422Y008336D01*
X012422Y008379D02*
X012067Y008379D01*
X012031Y008364D01*
X012003Y008336D01*
X011988Y008299D01*
X011988Y008043D01*
X012422Y008043D01*
X012422Y008379D01*
X012422Y008258D02*
X012500Y008258D01*
X012500Y008181D02*
X012422Y008181D01*
X012422Y008104D02*
X012500Y008104D01*
X012422Y008027D02*
X011622Y008027D01*
X011622Y008104D02*
X011988Y008104D01*
X011988Y008181D02*
X011622Y008181D01*
X011622Y008258D02*
X011988Y008258D01*
X012003Y008336D02*
X011622Y008336D01*
X011622Y007950D02*
X011988Y007950D01*
X011988Y007965D02*
X011988Y007709D01*
X012003Y007672D01*
X012031Y007644D01*
X012067Y007629D01*
X012422Y007629D01*
X012422Y007965D01*
X011988Y007965D01*
X011988Y007872D02*
X011622Y007872D01*
X011622Y007795D02*
X011988Y007795D01*
X011988Y007718D02*
X011622Y007718D01*
X011622Y007641D02*
X012040Y007641D01*
X012422Y007641D02*
X012500Y007641D01*
X012500Y007718D02*
X012422Y007718D01*
X012422Y007795D02*
X012500Y007795D01*
X012500Y007872D02*
X012422Y007872D01*
X012422Y007950D02*
X012500Y007950D01*
X012882Y007641D02*
X014742Y007641D01*
X014681Y007563D02*
X011622Y007563D01*
X011622Y007486D02*
X014681Y007486D01*
X014681Y007409D02*
X011622Y007409D01*
X011622Y007332D02*
X014631Y007332D01*
X014613Y007254D02*
X011622Y007254D01*
X011622Y007177D02*
X012158Y007177D01*
X011965Y007100D02*
X011622Y007100D01*
X011622Y007023D02*
X011873Y007023D01*
X011781Y006945D02*
X011622Y006945D01*
X011622Y006868D02*
X011689Y006868D01*
X011668Y006850D02*
X011668Y006850D01*
X011634Y006791D02*
X011622Y006791D01*
X012973Y007177D02*
X014613Y007177D01*
X014613Y007100D02*
X013166Y007100D01*
X013152Y007112D02*
X013152Y007112D01*
X013258Y007023D02*
X014613Y007023D01*
X014613Y006945D02*
X013350Y006945D01*
X013443Y006868D02*
X014613Y006868D01*
X014613Y006791D02*
X013498Y006791D01*
X013543Y006714D02*
X014613Y006714D01*
X014613Y006636D02*
X013587Y006636D01*
X013632Y006559D02*
X015468Y006559D01*
X015445Y006482D02*
X013670Y006482D01*
X013684Y006405D02*
X015386Y006405D01*
X015361Y006327D02*
X013697Y006327D01*
X013711Y006250D02*
X015361Y006250D01*
X015392Y006173D02*
X013724Y006173D01*
X013738Y006096D02*
X015459Y006096D01*
X015758Y006096D02*
X016240Y006096D01*
X016249Y006086D02*
X016340Y006049D01*
X016439Y006049D01*
X016529Y006086D01*
X016599Y006156D01*
X016636Y006246D01*
X016636Y006345D01*
X016599Y006436D01*
X016529Y006505D01*
X016439Y006543D01*
X016340Y006543D01*
X016249Y006505D01*
X016180Y006436D01*
X016142Y006345D01*
X016142Y006246D01*
X016180Y006156D01*
X016249Y006086D01*
X016173Y006173D02*
X015825Y006173D01*
X015855Y006250D02*
X016142Y006250D01*
X016142Y006327D02*
X015855Y006327D01*
X015830Y006405D02*
X016167Y006405D01*
X016226Y006482D02*
X015771Y006482D01*
X015767Y006559D02*
X018535Y006559D01*
X018545Y006569D02*
X018425Y006449D01*
X018340Y006449D01*
X018249Y006411D01*
X018180Y006342D01*
X018142Y006251D01*
X018142Y006153D01*
X018180Y006062D01*
X018249Y005992D01*
X018340Y005955D01*
X018439Y005955D01*
X018529Y005992D01*
X018599Y006062D01*
X018636Y006153D01*
X018636Y006238D01*
X018861Y006462D01*
X018861Y006562D01*
X018870Y006562D01*
X018908Y006600D01*
X018931Y006578D01*
X018967Y006562D01*
X019085Y006562D01*
X019085Y006947D01*
X019125Y006947D01*
X019125Y006987D01*
X019085Y006987D01*
X019085Y007371D01*
X018967Y007371D01*
X018931Y007356D01*
X018908Y007334D01*
X018870Y007371D01*
X018552Y007371D01*
X018514Y007334D01*
X018477Y007371D01*
X018467Y007371D01*
X018467Y007662D01*
X018539Y007734D01*
X018539Y009139D01*
X018506Y009172D01*
X018506Y009213D01*
X018401Y009318D01*
X018253Y009318D01*
X018148Y009213D01*
X018148Y009065D01*
X018240Y008973D01*
X018240Y008287D01*
X018097Y008287D01*
X017992Y008182D01*
X017992Y008034D01*
X018021Y008005D01*
X018021Y007920D01*
X017774Y007673D01*
X017774Y007371D01*
X017765Y007371D01*
X017706Y007313D01*
X017706Y006621D01*
X017765Y006562D01*
X018083Y006562D01*
X018121Y006600D01*
X018158Y006562D01*
X018477Y006562D01*
X018514Y006600D01*
X018545Y006569D01*
X018458Y006482D02*
X016552Y006482D01*
X016612Y006405D02*
X018243Y006405D01*
X018174Y006327D02*
X016636Y006327D01*
X016636Y006250D02*
X018142Y006250D01*
X018142Y006173D02*
X016606Y006173D01*
X016539Y006096D02*
X018166Y006096D01*
X018223Y006018D02*
X013724Y006018D01*
X013710Y005941D02*
X023429Y005941D01*
X023443Y005864D02*
X023081Y005864D01*
X023109Y005787D02*
X023456Y005787D01*
X023470Y005710D02*
X023109Y005710D01*
X023109Y005632D02*
X023509Y005632D01*
X023472Y005696D02*
X023472Y005696D01*
X023554Y005555D02*
X023109Y005555D01*
X023109Y005478D02*
X023598Y005478D01*
X023643Y005401D02*
X023109Y005401D01*
X023109Y005323D02*
X023700Y005323D01*
X023676Y005344D02*
X023676Y005344D01*
X023676Y005344D01*
X023792Y005246D02*
X023109Y005246D01*
X023109Y005169D02*
X023884Y005169D01*
X023415Y006018D02*
X022517Y006018D01*
X022600Y006096D02*
X023402Y006096D01*
X023402Y006097D02*
X023402Y006097D01*
X023415Y006173D02*
X022632Y006173D01*
X022636Y006250D02*
X023429Y006250D01*
X023442Y006327D02*
X022618Y006327D01*
X022567Y006405D02*
X023456Y006405D01*
X023469Y006482D02*
X022017Y006482D01*
X022017Y006559D02*
X023508Y006559D01*
X023472Y006498D02*
X023472Y006498D01*
X023552Y006636D02*
X022476Y006636D01*
X022479Y006642D02*
X022479Y006947D01*
X022281Y006947D01*
X022281Y006562D01*
X022399Y006562D01*
X022436Y006578D01*
X022464Y006605D01*
X022479Y006642D01*
X022479Y006714D02*
X023597Y006714D01*
X023641Y006791D02*
X022479Y006791D01*
X022479Y006868D02*
X023697Y006868D01*
X023676Y006850D02*
X023676Y006850D01*
X023789Y006945D02*
X022479Y006945D01*
X022479Y006987D02*
X022479Y007292D01*
X022464Y007328D01*
X022436Y007356D01*
X022399Y007371D01*
X022281Y007371D01*
X022281Y006987D01*
X022479Y006987D01*
X022479Y007023D02*
X023881Y007023D01*
X023973Y007100D02*
X022479Y007100D01*
X022479Y007177D02*
X024166Y007177D01*
X024452Y007680D02*
X024488Y007665D01*
X024969Y007665D01*
X024969Y008100D01*
X024409Y008100D01*
X024409Y007745D01*
X024424Y007708D01*
X024452Y007680D01*
X024420Y007718D02*
X020928Y007718D01*
X020851Y007795D02*
X021055Y007795D01*
X021031Y007805D02*
X021121Y007767D01*
X021220Y007767D01*
X021311Y007805D01*
X021380Y007874D01*
X021418Y007965D01*
X021418Y008064D01*
X021380Y008154D01*
X021311Y008224D01*
X021220Y008261D01*
X021121Y008261D01*
X021031Y008224D01*
X020961Y008154D01*
X020924Y008064D01*
X020924Y007965D01*
X020961Y007874D01*
X021031Y007805D01*
X020963Y007872D02*
X020774Y007872D01*
X020726Y007950D02*
X020930Y007950D01*
X020924Y008027D02*
X020726Y008027D01*
X020726Y008104D02*
X020940Y008104D01*
X020988Y008181D02*
X020726Y008181D01*
X020726Y008258D02*
X021114Y008258D01*
X021227Y008258D02*
X024409Y008258D01*
X024409Y008181D02*
X021353Y008181D01*
X021401Y008104D02*
X024969Y008104D01*
X024969Y008181D02*
X025047Y008181D01*
X025047Y008258D02*
X024969Y008258D01*
X024969Y008336D02*
X025047Y008336D01*
X025047Y008413D02*
X024969Y008413D01*
X024969Y008490D02*
X025047Y008490D01*
X025047Y008567D02*
X024969Y008567D01*
X024423Y008567D02*
X020726Y008567D01*
X020726Y008490D02*
X024409Y008490D01*
X024409Y008413D02*
X020726Y008413D01*
X020726Y008336D02*
X024409Y008336D01*
X024409Y008027D02*
X021418Y008027D01*
X021411Y007950D02*
X024409Y007950D01*
X024409Y007872D02*
X021378Y007872D01*
X021287Y007795D02*
X024409Y007795D01*
X024969Y007795D02*
X025047Y007795D01*
X025047Y007718D02*
X024969Y007718D01*
X024969Y007872D02*
X025047Y007872D01*
X025047Y007950D02*
X024969Y007950D01*
X024969Y008027D02*
X025047Y008027D01*
X025517Y007641D02*
X021006Y007641D01*
X021333Y007563D02*
X025517Y007563D01*
X025517Y007486D02*
X021410Y007486D01*
X021487Y007409D02*
X025517Y007409D01*
X025517Y007332D02*
X022460Y007332D01*
X022479Y007254D02*
X025517Y007254D01*
X025517Y007177D02*
X024981Y007177D01*
X025174Y007100D02*
X025517Y007100D01*
X025517Y007023D02*
X025266Y007023D01*
X025358Y006945D02*
X025517Y006945D01*
X025517Y006868D02*
X025450Y006868D01*
X025506Y006791D02*
X025517Y006791D01*
X025517Y008645D02*
X020726Y008645D01*
X020726Y008722D02*
X024410Y008722D01*
X024409Y008799D02*
X020726Y008799D01*
X020726Y008876D02*
X023929Y008876D01*
X023839Y008954D02*
X023584Y008954D01*
X023561Y008930D02*
X023630Y008999D01*
X023668Y009090D01*
X023668Y009189D01*
X023630Y009279D01*
X023561Y009349D01*
X023470Y009386D01*
X023371Y009386D01*
X023281Y009349D01*
X023211Y009279D01*
X023174Y009189D01*
X023174Y009090D01*
X023211Y008999D01*
X023281Y008930D01*
X023371Y008892D01*
X023470Y008892D01*
X023561Y008930D01*
X023643Y009031D02*
X023798Y009031D01*
X023778Y009108D02*
X023668Y009108D01*
X023668Y009185D02*
X023778Y009185D01*
X023804Y009263D02*
X023637Y009263D01*
X023569Y009340D02*
X023854Y009340D01*
X023965Y009417D02*
X020802Y009417D01*
X020818Y009340D02*
X023272Y009340D01*
X023204Y009263D02*
X020818Y009263D01*
X020789Y009185D02*
X023174Y009185D01*
X023174Y009108D02*
X020789Y009108D01*
X020742Y009031D02*
X023198Y009031D01*
X023257Y008954D02*
X020726Y008954D01*
X020209Y008954D02*
X018539Y008954D01*
X018539Y009031D02*
X019776Y009031D01*
X019699Y009108D02*
X019455Y009108D01*
X019532Y009185D02*
X019679Y009185D01*
X019679Y009263D02*
X019537Y009263D01*
X019535Y009340D02*
X019709Y009340D01*
X019709Y009417D02*
X019507Y009417D01*
X019549Y009494D02*
X019752Y009494D01*
X019829Y009572D02*
X019627Y009572D01*
X019704Y009649D02*
X019906Y009649D01*
X019984Y009726D02*
X019781Y009726D01*
X019858Y009803D02*
X020061Y009803D01*
X020138Y009881D02*
X019936Y009881D01*
X020013Y009958D02*
X020215Y009958D01*
X020090Y010035D02*
X023730Y010035D01*
X023807Y010112D02*
X020167Y010112D01*
X020518Y009494D02*
X020554Y009494D01*
X020477Y009417D02*
X020441Y009417D01*
X020725Y009494D02*
X024409Y009494D01*
X024425Y009572D02*
X024095Y009572D01*
X024173Y009649D02*
X025517Y009649D01*
X024409Y009726D02*
X024291Y009726D01*
X024349Y009803D02*
X024409Y009803D01*
X024409Y009881D02*
X024349Y009881D01*
X024324Y009958D02*
X024409Y009958D01*
X024409Y010344D02*
X023711Y010344D01*
X023634Y010267D02*
X023962Y010267D01*
X023884Y010189D02*
X023557Y010189D01*
X023789Y010421D02*
X024409Y010421D01*
X024409Y010498D02*
X023866Y010498D01*
X023943Y010576D02*
X024429Y010576D01*
X024409Y010730D02*
X024264Y010730D01*
X024341Y010807D02*
X024409Y010807D01*
X024409Y010885D02*
X024349Y010885D01*
X024349Y010962D02*
X024409Y010962D01*
X024409Y011289D02*
X024007Y011289D01*
X024007Y011671D01*
X024326Y011990D01*
X024409Y011990D01*
X024409Y011723D01*
X024467Y011665D01*
X025517Y011665D01*
X025517Y011614D01*
X024467Y011614D01*
X024409Y011556D01*
X024409Y011289D01*
X024409Y011348D02*
X024007Y011348D01*
X024007Y011425D02*
X024409Y011425D01*
X024409Y011503D02*
X024007Y011503D01*
X024007Y011580D02*
X024433Y011580D01*
X024409Y011734D02*
X024071Y011734D01*
X024007Y011657D02*
X025517Y011657D01*
X024409Y011812D02*
X024148Y011812D01*
X024225Y011889D02*
X024409Y011889D01*
X024409Y011966D02*
X024302Y011966D01*
X024409Y012352D02*
X020482Y012352D01*
X020445Y011966D02*
X018835Y011966D01*
X018395Y011889D02*
X017069Y011889D01*
X017146Y011966D02*
X018381Y011966D01*
X018315Y012043D02*
X017223Y012043D01*
X017300Y012120D02*
X018277Y012120D01*
X018317Y011812D02*
X016992Y011812D01*
X016914Y011734D02*
X018282Y011734D01*
X018259Y011657D02*
X016837Y011657D01*
X016760Y011580D02*
X018259Y011580D01*
X018274Y011503D02*
X016683Y011503D01*
X016605Y011425D02*
X018306Y011425D01*
X018374Y011348D02*
X016528Y011348D01*
X016451Y011271D02*
X017263Y011271D01*
X017263Y011274D02*
X017263Y010483D01*
X017321Y010424D01*
X017955Y010424D01*
X018013Y010483D01*
X018013Y011274D01*
X017955Y011332D01*
X017321Y011332D01*
X017263Y011274D01*
X017263Y011194D02*
X016374Y011194D01*
X016296Y011116D02*
X017263Y011116D01*
X017263Y011039D02*
X016219Y011039D01*
X016142Y010962D02*
X017263Y010962D01*
X017263Y010885D02*
X016065Y010885D01*
X015987Y010807D02*
X017263Y010807D01*
X017263Y010730D02*
X015910Y010730D01*
X015833Y010653D02*
X017263Y010653D01*
X017263Y010576D02*
X015756Y010576D01*
X015678Y010498D02*
X017263Y010498D01*
X018013Y010498D02*
X018121Y010498D01*
X018054Y010421D02*
X015601Y010421D01*
X015898Y010189D02*
X014445Y010189D01*
X014445Y010112D02*
X015838Y010112D01*
X015771Y010035D02*
X014445Y010035D01*
X014445Y009958D02*
X015771Y009958D01*
X015771Y009881D02*
X014445Y009881D01*
X014445Y009803D02*
X015771Y009803D01*
X015771Y009726D02*
X014445Y009726D01*
X014445Y009649D02*
X015771Y009649D01*
X015771Y009572D02*
X014445Y009572D01*
X014445Y009494D02*
X015771Y009494D01*
X015771Y009417D02*
X014445Y009417D01*
X014445Y009340D02*
X015771Y009340D01*
X015771Y009263D02*
X014445Y009263D01*
X014445Y009185D02*
X015339Y009185D01*
X015347Y009193D02*
X015242Y009088D01*
X015242Y008940D01*
X015347Y008836D01*
X015495Y008836D01*
X015599Y008940D01*
X015599Y009088D01*
X015495Y009193D01*
X015347Y009193D01*
X015262Y009108D02*
X014445Y009108D01*
X014445Y009031D02*
X015242Y009031D01*
X015242Y008954D02*
X014445Y008954D01*
X014445Y008876D02*
X015306Y008876D01*
X015535Y008876D02*
X015771Y008876D01*
X015771Y008799D02*
X014445Y008799D01*
X014371Y008722D02*
X015771Y008722D01*
X015746Y008645D02*
X014293Y008645D01*
X013931Y008567D02*
X015669Y008567D01*
X015591Y008490D02*
X013931Y008490D01*
X013931Y008413D02*
X015514Y008413D01*
X015437Y008336D02*
X013931Y008336D01*
X013931Y008258D02*
X015360Y008258D01*
X015282Y008181D02*
X013931Y008181D01*
X013915Y008104D02*
X015205Y008104D01*
X015128Y008027D02*
X014006Y008027D01*
X014069Y007950D02*
X015051Y007950D01*
X014974Y007872D02*
X014069Y007872D01*
X014049Y007795D02*
X014896Y007795D01*
X014819Y007718D02*
X013971Y007718D01*
X013089Y007718D02*
X012934Y007718D01*
X012934Y007795D02*
X013011Y007795D01*
X013142Y008766D02*
X013120Y008787D01*
X012975Y008932D01*
X012975Y009815D01*
X013013Y009854D01*
X013077Y009854D01*
X013077Y009834D01*
X013135Y009776D01*
X013138Y009776D01*
X013138Y009425D01*
X013124Y009419D01*
X013096Y009391D01*
X013081Y009355D01*
X013081Y009217D01*
X013436Y009217D01*
X013436Y009138D01*
X013081Y009138D01*
X013081Y009000D01*
X013096Y008964D01*
X013124Y008936D01*
X013142Y008929D01*
X013142Y008766D01*
X013142Y008799D02*
X013108Y008799D01*
X013142Y008876D02*
X013031Y008876D01*
X012975Y008954D02*
X013106Y008954D01*
X013081Y009031D02*
X012975Y009031D01*
X012975Y009108D02*
X013081Y009108D01*
X012975Y009185D02*
X013436Y009185D01*
X013515Y009185D02*
X014146Y009185D01*
X014146Y009108D02*
X013870Y009108D01*
X013870Y009138D02*
X013515Y009138D01*
X013515Y009217D01*
X013870Y009217D01*
X013870Y009355D01*
X013868Y009361D01*
X013869Y009361D01*
X013927Y009419D01*
X013927Y009469D01*
X014086Y009469D01*
X014146Y009529D01*
X014146Y008920D01*
X014117Y008890D01*
X013931Y008890D01*
X013931Y008940D01*
X013873Y008998D01*
X013869Y008998D01*
X013870Y009000D01*
X013870Y009138D01*
X013870Y009031D02*
X014146Y009031D01*
X014146Y008954D02*
X013917Y008954D01*
X013870Y009263D02*
X014146Y009263D01*
X014146Y009340D02*
X013870Y009340D01*
X013925Y009417D02*
X014146Y009417D01*
X014146Y009494D02*
X014112Y009494D01*
X013138Y009494D02*
X012975Y009494D01*
X012975Y009417D02*
X013122Y009417D01*
X013081Y009340D02*
X012975Y009340D01*
X012975Y009263D02*
X013081Y009263D01*
X013138Y009572D02*
X012975Y009572D01*
X012975Y009649D02*
X013138Y009649D01*
X013138Y009726D02*
X012975Y009726D01*
X012975Y009803D02*
X013108Y009803D01*
X014447Y010267D02*
X015951Y010267D01*
X016452Y010267D02*
X018072Y010267D01*
X018054Y010344D02*
X014524Y010344D01*
X013964Y011425D02*
X013891Y011425D01*
X013891Y011503D02*
X015166Y011503D01*
X015232Y012198D02*
X015861Y012198D01*
X015939Y012275D02*
X015309Y012275D01*
X015345Y012352D02*
X016016Y012352D01*
X016093Y012429D02*
X015422Y012429D01*
X015499Y012507D02*
X016170Y012507D01*
X016248Y012584D02*
X015576Y012584D01*
X015654Y012661D02*
X016325Y012661D01*
X016402Y012738D02*
X015731Y012738D01*
X015808Y012816D02*
X016148Y012816D01*
X016086Y012893D02*
X015885Y012893D01*
X015963Y012970D02*
X016086Y012970D01*
X016107Y013047D02*
X016040Y013047D01*
X016422Y013047D02*
X016711Y013047D01*
X016773Y013125D02*
X016414Y013125D01*
X016414Y013202D02*
X016773Y013202D01*
X016808Y013279D02*
X016414Y013279D01*
X016414Y013356D02*
X017301Y013356D01*
X017224Y013279D02*
X017096Y013279D01*
X017131Y013202D02*
X017147Y013202D01*
X016634Y012970D02*
X016443Y012970D01*
X016443Y012893D02*
X016557Y012893D01*
X016479Y012816D02*
X016381Y012816D01*
X018351Y013279D02*
X020497Y013279D01*
X020420Y013356D02*
X018351Y013356D01*
X018351Y013434D02*
X020398Y013434D01*
X020398Y013511D02*
X018351Y013511D01*
X018393Y013588D02*
X020460Y013588D01*
X020579Y013665D02*
X018445Y013665D01*
X018445Y013743D02*
X020656Y013743D01*
X020734Y013820D02*
X018445Y013820D01*
X018445Y013897D02*
X020811Y013897D01*
X020888Y013974D02*
X018445Y013974D01*
X018407Y014051D02*
X020965Y014051D01*
X021042Y014129D02*
X018330Y014129D01*
X019162Y012816D02*
X024409Y012816D01*
X024409Y012738D02*
X019116Y012738D01*
X018905Y012661D02*
X025517Y012661D01*
X024437Y012584D02*
X018828Y012584D01*
X018828Y012507D02*
X024409Y012507D01*
X024409Y012429D02*
X018897Y012429D01*
X018937Y012352D02*
X019274Y012352D01*
X019247Y012275D02*
X018956Y012275D01*
X019858Y011889D02*
X019858Y011889D01*
X019858Y011812D02*
X019858Y011812D01*
X019858Y011734D02*
X019858Y011734D01*
X019858Y011657D02*
X019858Y011657D01*
X019858Y011580D02*
X019858Y011580D01*
X019292Y011425D02*
X018911Y011425D01*
X018842Y011348D02*
X019247Y011348D01*
X019247Y011271D02*
X018814Y011271D01*
X018892Y011194D02*
X019247Y011194D01*
X019271Y011116D02*
X018931Y011116D01*
X018957Y011039D02*
X023422Y011039D01*
X023499Y011116D02*
X021088Y011116D01*
X020600Y011812D02*
X020469Y011812D01*
X020434Y011889D02*
X020522Y011889D01*
X022185Y011503D02*
X023709Y011503D01*
X023709Y011425D02*
X022262Y011425D01*
X022287Y011348D02*
X023709Y011348D01*
X023653Y011271D02*
X022287Y011271D01*
X022228Y011194D02*
X023576Y011194D01*
X023344Y010962D02*
X022351Y010962D01*
X022381Y010885D02*
X023267Y010885D01*
X023190Y010807D02*
X022381Y010807D01*
X024020Y010653D02*
X025517Y010653D01*
X024409Y013356D02*
X021568Y013356D01*
X021645Y013434D02*
X024409Y013434D01*
X024409Y013511D02*
X021722Y013511D01*
X021799Y013588D02*
X024441Y013588D01*
X024467Y013665D02*
X021877Y013665D01*
X021954Y013743D02*
X024002Y013743D01*
X023929Y013820D02*
X022031Y013820D01*
X022108Y013897D02*
X023929Y013897D01*
X023940Y013974D02*
X022185Y013974D01*
X022263Y014051D02*
X024017Y014051D01*
X024136Y014129D02*
X022340Y014129D01*
X022417Y014206D02*
X024213Y014206D01*
X024291Y014283D02*
X022494Y014283D01*
X022570Y014360D02*
X024409Y014360D01*
X024409Y014438D02*
X022570Y014438D01*
X022570Y014515D02*
X024409Y014515D01*
X024445Y014592D02*
X022570Y014592D01*
X022570Y014669D02*
X024463Y014669D01*
X024409Y014747D02*
X024081Y014747D01*
X023385Y014747D02*
X022570Y014747D01*
X022570Y014824D02*
X023334Y014824D01*
X023334Y014901D02*
X022570Y014901D01*
X022570Y014978D02*
X023334Y014978D01*
X023334Y015056D02*
X022570Y015056D01*
X022570Y015133D02*
X023334Y015133D01*
X023334Y015210D02*
X022570Y015210D01*
X022570Y015287D02*
X023334Y015287D01*
X023334Y015365D02*
X022570Y015365D01*
X022570Y015442D02*
X023334Y015442D01*
X023372Y015519D02*
X022570Y015519D01*
X022570Y015596D02*
X024450Y015596D01*
X024488Y015665D02*
X024969Y015665D01*
X024969Y016100D01*
X024409Y016100D01*
X024409Y015745D01*
X024424Y015708D01*
X024452Y015680D01*
X024488Y015665D01*
X024468Y015674D02*
X022570Y015674D01*
X021834Y015674D02*
X021695Y015674D01*
X021695Y015751D02*
X021834Y015751D01*
X021834Y015828D02*
X021695Y015828D01*
X021695Y015905D02*
X021834Y015905D01*
X021834Y015983D02*
X021695Y015983D01*
X021695Y016060D02*
X021834Y016060D01*
X021834Y016137D02*
X021695Y016137D01*
X021717Y016214D02*
X021812Y016214D01*
X021804Y016291D02*
X021724Y016291D01*
X021724Y016369D02*
X021804Y016369D01*
X021881Y016446D02*
X021648Y016446D01*
X021808Y016832D02*
X021846Y016832D01*
X022202Y016832D02*
X022240Y016832D01*
X021452Y016832D02*
X021414Y016832D01*
X021256Y016832D02*
X021217Y016832D01*
X021217Y016909D02*
X021256Y016909D01*
X021256Y016987D02*
X021217Y016987D01*
X021217Y017064D02*
X021256Y017064D01*
X021256Y017141D02*
X021217Y017141D01*
X021695Y015596D02*
X021834Y015596D01*
X021834Y015519D02*
X021695Y015519D01*
X021695Y015442D02*
X021834Y015442D01*
X021834Y015365D02*
X021695Y015365D01*
X021695Y015287D02*
X021834Y015287D01*
X021834Y015210D02*
X021695Y015210D01*
X021695Y015133D02*
X021834Y015133D01*
X021834Y015056D02*
X021695Y015056D01*
X021695Y014978D02*
X021834Y014978D01*
X021834Y014901D02*
X021695Y014901D01*
X021695Y014824D02*
X021834Y014824D01*
X021834Y014747D02*
X021695Y014747D01*
X021695Y014669D02*
X021834Y014669D01*
X021834Y014592D02*
X021695Y014592D01*
X021695Y014515D02*
X021834Y014515D01*
X021789Y014438D02*
X021695Y014438D01*
X021695Y014360D02*
X021712Y014360D01*
X021634Y014283D02*
X021619Y014283D01*
X021557Y014206D02*
X021542Y014206D01*
X021480Y014129D02*
X021465Y014129D01*
X021403Y014051D02*
X021388Y014051D01*
X021326Y013974D02*
X021310Y013974D01*
X021248Y013897D02*
X021233Y013897D01*
X021171Y013820D02*
X021156Y013820D01*
X021094Y013743D02*
X021079Y013743D01*
X021017Y013665D02*
X021002Y013665D01*
X020939Y013588D02*
X020924Y013588D01*
X020862Y013511D02*
X020847Y013511D01*
X020785Y013434D02*
X020770Y013434D01*
X024214Y013743D02*
X024409Y013743D01*
X024409Y013820D02*
X024287Y013820D01*
X024327Y013897D02*
X024409Y013897D01*
X024404Y013974D02*
X024409Y013974D01*
X024409Y015519D02*
X024094Y015519D01*
X023909Y015751D02*
X024409Y015751D01*
X024409Y015828D02*
X023987Y015828D01*
X024064Y015905D02*
X024409Y015905D01*
X024409Y015983D02*
X024132Y015983D01*
X024132Y016060D02*
X024409Y016060D01*
X024409Y016214D02*
X024132Y016214D01*
X024132Y016291D02*
X024409Y016291D01*
X024409Y016369D02*
X024069Y016369D01*
X023991Y016446D02*
X024409Y016446D01*
X024969Y016446D02*
X025047Y016446D01*
X025047Y016523D02*
X024969Y016523D01*
X024969Y016600D02*
X025047Y016600D01*
X025047Y016369D02*
X024969Y016369D01*
X024969Y016291D02*
X025047Y016291D01*
X025047Y016214D02*
X024969Y016214D01*
X024969Y016137D02*
X023772Y016137D01*
X023772Y016060D02*
X023694Y016060D01*
X023694Y015983D02*
X023772Y015983D01*
X023772Y015905D02*
X023694Y015905D01*
X023694Y015828D02*
X023772Y015828D01*
X023772Y015751D02*
X023694Y015751D01*
X024969Y015751D02*
X025047Y015751D01*
X025047Y015828D02*
X024969Y015828D01*
X024969Y015905D02*
X025047Y015905D01*
X025047Y015983D02*
X024969Y015983D01*
X024969Y016060D02*
X025047Y016060D01*
X025047Y015674D02*
X024969Y015674D01*
X018402Y011271D02*
X018013Y011271D01*
X018013Y011194D02*
X018325Y011194D01*
X018114Y011116D02*
X018013Y011116D01*
X018013Y011039D02*
X018054Y011039D01*
X018054Y010962D02*
X018013Y010962D01*
X018013Y010885D02*
X018079Y010885D01*
X018013Y010807D02*
X018156Y010807D01*
X018013Y010730D02*
X018367Y010730D01*
X018409Y010653D02*
X018013Y010653D01*
X018013Y010576D02*
X018332Y010576D01*
X018149Y010189D02*
X016506Y010189D01*
X016450Y009958D02*
X018965Y009958D01*
X018888Y009881D02*
X016373Y009881D01*
X016296Y009803D02*
X018769Y009803D01*
X018711Y009726D02*
X016257Y009726D01*
X016257Y009649D02*
X018711Y009649D01*
X018736Y009572D02*
X016257Y009572D01*
X016257Y009494D02*
X018813Y009494D01*
X018867Y009417D02*
X016257Y009417D01*
X016257Y009340D02*
X017493Y009340D01*
X017534Y009381D02*
X017429Y009276D01*
X017429Y009128D01*
X017470Y009088D01*
X017321Y009088D01*
X017263Y009029D01*
X017263Y008238D01*
X017321Y008180D01*
X017955Y008180D01*
X018013Y008238D01*
X018013Y009029D01*
X017955Y009088D01*
X017788Y009088D01*
X017788Y009234D01*
X017787Y009234D01*
X017787Y009276D01*
X017682Y009381D01*
X017534Y009381D01*
X017429Y009263D02*
X016257Y009263D01*
X016257Y009185D02*
X017429Y009185D01*
X017449Y009108D02*
X016257Y009108D01*
X016257Y009031D02*
X017265Y009031D01*
X017263Y008954D02*
X016257Y008954D01*
X016257Y008876D02*
X017263Y008876D01*
X017263Y008799D02*
X016257Y008799D01*
X016257Y008722D02*
X017263Y008722D01*
X017263Y008645D02*
X016257Y008645D01*
X016257Y008567D02*
X017263Y008567D01*
X017263Y008490D02*
X016257Y008490D01*
X016187Y008413D02*
X017263Y008413D01*
X017263Y008336D02*
X016109Y008336D01*
X016032Y008258D02*
X017263Y008258D01*
X017320Y008181D02*
X015955Y008181D01*
X015878Y008104D02*
X017992Y008104D01*
X017992Y008181D02*
X017956Y008181D01*
X018013Y008258D02*
X018068Y008258D01*
X018013Y008336D02*
X018240Y008336D01*
X018240Y008413D02*
X018013Y008413D01*
X018013Y008490D02*
X018240Y008490D01*
X018240Y008567D02*
X018013Y008567D01*
X018013Y008645D02*
X018240Y008645D01*
X018240Y008722D02*
X018013Y008722D01*
X018013Y008799D02*
X018240Y008799D01*
X018240Y008876D02*
X018013Y008876D01*
X018013Y008954D02*
X018240Y008954D01*
X018183Y009031D02*
X018012Y009031D01*
X018148Y009108D02*
X017788Y009108D01*
X017788Y009185D02*
X018148Y009185D01*
X018197Y009263D02*
X017787Y009263D01*
X017723Y009340D02*
X018867Y009340D01*
X018920Y009263D02*
X018456Y009263D01*
X018506Y009185D02*
X019184Y009185D01*
X019172Y009263D02*
X019179Y009263D01*
X019262Y009108D02*
X018539Y009108D01*
X018539Y008876D02*
X020209Y008876D01*
X020209Y008799D02*
X018539Y008799D01*
X018539Y008722D02*
X020209Y008722D01*
X020209Y008645D02*
X018539Y008645D01*
X018539Y008567D02*
X020209Y008567D01*
X020209Y008490D02*
X018539Y008490D01*
X018539Y008413D02*
X020209Y008413D01*
X020209Y008336D02*
X018539Y008336D01*
X018539Y008258D02*
X020209Y008258D01*
X020209Y008181D02*
X018539Y008181D01*
X018539Y008104D02*
X018726Y008104D01*
X018679Y008057D02*
X018679Y007909D01*
X018784Y007804D01*
X018932Y007804D01*
X019037Y007909D01*
X019037Y008057D01*
X018932Y008162D01*
X018784Y008162D01*
X018679Y008057D01*
X018679Y008027D02*
X018539Y008027D01*
X018539Y007950D02*
X018679Y007950D01*
X018716Y007872D02*
X018539Y007872D01*
X018539Y007795D02*
X019617Y007795D01*
X019617Y007838D02*
X019617Y007690D01*
X019646Y007661D01*
X019646Y006774D01*
X019617Y006745D01*
X019617Y006597D01*
X019722Y006492D01*
X019870Y006492D01*
X019974Y006597D01*
X019974Y006745D01*
X019945Y006774D01*
X019945Y007661D01*
X019974Y007690D01*
X019974Y007838D01*
X019870Y007943D01*
X019722Y007943D01*
X019617Y007838D01*
X019651Y007872D02*
X019000Y007872D01*
X019037Y007950D02*
X020209Y007950D01*
X020209Y008027D02*
X019037Y008027D01*
X018990Y008104D02*
X020209Y008104D01*
X020209Y007872D02*
X019941Y007872D01*
X019974Y007795D02*
X020209Y007795D01*
X020256Y007718D02*
X019974Y007718D01*
X019945Y007641D02*
X020333Y007641D01*
X020410Y007563D02*
X019945Y007563D01*
X019945Y007486D02*
X020488Y007486D01*
X020565Y007409D02*
X019945Y007409D01*
X019945Y007332D02*
X020642Y007332D01*
X020719Y007254D02*
X019945Y007254D01*
X019945Y007177D02*
X020797Y007177D01*
X020863Y007100D02*
X019945Y007100D01*
X019945Y007023D02*
X020863Y007023D01*
X020863Y006945D02*
X019945Y006945D01*
X019945Y006868D02*
X020863Y006868D01*
X020863Y006791D02*
X019945Y006791D01*
X019974Y006714D02*
X020863Y006714D01*
X020863Y006636D02*
X019974Y006636D01*
X019937Y006559D02*
X021718Y006559D01*
X021718Y006482D02*
X018861Y006482D01*
X018861Y006559D02*
X019654Y006559D01*
X019617Y006636D02*
X019320Y006636D01*
X019322Y006642D02*
X019322Y006947D01*
X019125Y006947D01*
X019125Y006562D01*
X019243Y006562D01*
X019279Y006578D01*
X019307Y006605D01*
X019322Y006642D01*
X019322Y006714D02*
X019617Y006714D01*
X019646Y006791D02*
X019322Y006791D01*
X019322Y006868D02*
X019646Y006868D01*
X019646Y006945D02*
X019322Y006945D01*
X019322Y006987D02*
X019322Y007292D01*
X019307Y007328D01*
X019279Y007356D01*
X019243Y007371D01*
X019125Y007371D01*
X019125Y006987D01*
X019322Y006987D01*
X019322Y007023D02*
X019646Y007023D01*
X019646Y007100D02*
X019322Y007100D01*
X019322Y007177D02*
X019646Y007177D01*
X019646Y007254D02*
X019322Y007254D01*
X019304Y007332D02*
X019646Y007332D01*
X019646Y007409D02*
X018467Y007409D01*
X018467Y007486D02*
X019646Y007486D01*
X019646Y007563D02*
X018467Y007563D01*
X018467Y007641D02*
X019646Y007641D01*
X019617Y007718D02*
X018523Y007718D01*
X018021Y007950D02*
X015723Y007950D01*
X015800Y008027D02*
X017999Y008027D01*
X017974Y007872D02*
X015646Y007872D01*
X015696Y007795D02*
X015569Y007795D01*
X015636Y007718D02*
X015492Y007718D01*
X015414Y007641D02*
X015611Y007641D01*
X015611Y007563D02*
X015373Y007563D01*
X015373Y007486D02*
X015641Y007486D01*
X015708Y007409D02*
X015373Y007409D01*
X015991Y007332D02*
X016031Y007332D01*
X016031Y007371D02*
X016031Y006987D01*
X016229Y006987D01*
X016229Y007292D01*
X016214Y007328D01*
X016186Y007356D01*
X016149Y007371D01*
X016031Y007371D01*
X016008Y007409D02*
X017774Y007409D01*
X017774Y007486D02*
X016075Y007486D01*
X016105Y007563D02*
X017774Y007563D01*
X017774Y007641D02*
X016105Y007641D01*
X016080Y007718D02*
X017819Y007718D01*
X017896Y007795D02*
X016021Y007795D01*
X016210Y007332D02*
X017725Y007332D01*
X017706Y007254D02*
X016229Y007254D01*
X016229Y007177D02*
X017706Y007177D01*
X017706Y007100D02*
X016229Y007100D01*
X016229Y007023D02*
X017706Y007023D01*
X017706Y006945D02*
X016229Y006945D01*
X016229Y006947D02*
X016031Y006947D01*
X016031Y006562D01*
X016149Y006562D01*
X016186Y006578D01*
X016214Y006605D01*
X016229Y006642D01*
X016229Y006947D01*
X016229Y006868D02*
X017706Y006868D01*
X017706Y006791D02*
X016229Y006791D01*
X016229Y006714D02*
X017706Y006714D01*
X017706Y006636D02*
X016226Y006636D01*
X016031Y006636D02*
X015991Y006636D01*
X015991Y006714D02*
X016031Y006714D01*
X016031Y006791D02*
X015991Y006791D01*
X015991Y006868D02*
X016031Y006868D01*
X016031Y006945D02*
X015991Y006945D01*
X015991Y007023D02*
X016031Y007023D01*
X016031Y007100D02*
X015991Y007100D01*
X015991Y007177D02*
X016031Y007177D01*
X016031Y007254D02*
X015991Y007254D01*
X016215Y005864D02*
X014627Y005864D01*
X014654Y005787D02*
X016187Y005787D01*
X016187Y005710D02*
X014654Y005710D01*
X014654Y005632D02*
X016187Y005632D01*
X016187Y005555D02*
X014654Y005555D01*
X014654Y005478D02*
X016187Y005478D01*
X016187Y005401D02*
X014654Y005401D01*
X014654Y005323D02*
X016187Y005323D01*
X016187Y005246D02*
X014654Y005246D01*
X014654Y005169D02*
X016187Y005169D01*
X016859Y005169D02*
X017076Y005169D01*
X017076Y005246D02*
X016859Y005246D01*
X016859Y005323D02*
X017076Y005323D01*
X017076Y005401D02*
X016859Y005401D01*
X016859Y005478D02*
X017076Y005478D01*
X017076Y005555D02*
X016859Y005555D01*
X016859Y005632D02*
X017076Y005632D01*
X017076Y005710D02*
X016859Y005710D01*
X016859Y005787D02*
X017076Y005787D01*
X017104Y005864D02*
X016831Y005864D01*
X017720Y005864D02*
X019308Y005864D01*
X019281Y005787D02*
X017748Y005787D01*
X017748Y005710D02*
X019281Y005710D01*
X019281Y005632D02*
X017748Y005632D01*
X017748Y005555D02*
X019281Y005555D01*
X019281Y005478D02*
X017748Y005478D01*
X017748Y005401D02*
X019281Y005401D01*
X019281Y005323D02*
X017748Y005323D01*
X017748Y005246D02*
X019281Y005246D01*
X019281Y005169D02*
X017748Y005169D01*
X018555Y006018D02*
X022262Y006018D01*
X022465Y005864D02*
X020877Y005864D01*
X020904Y005787D02*
X022437Y005787D01*
X022437Y005710D02*
X020904Y005710D01*
X020904Y005632D02*
X022437Y005632D01*
X022437Y005555D02*
X020904Y005555D01*
X020904Y005478D02*
X022437Y005478D01*
X022437Y005401D02*
X020904Y005401D01*
X020904Y005323D02*
X022437Y005323D01*
X022437Y005246D02*
X020904Y005246D01*
X020904Y005169D02*
X022437Y005169D01*
X021972Y006096D02*
X018613Y006096D01*
X018636Y006173D02*
X021895Y006173D01*
X021817Y006250D02*
X018649Y006250D01*
X018726Y006327D02*
X021740Y006327D01*
X021718Y006405D02*
X018803Y006405D01*
X019085Y006636D02*
X019125Y006636D01*
X019125Y006714D02*
X019085Y006714D01*
X019085Y006791D02*
X019125Y006791D01*
X019125Y006868D02*
X019085Y006868D01*
X019085Y006945D02*
X019125Y006945D01*
X019125Y007023D02*
X019085Y007023D01*
X019085Y007100D02*
X019125Y007100D01*
X019125Y007177D02*
X019085Y007177D01*
X019085Y007254D02*
X019125Y007254D01*
X019125Y007332D02*
X019085Y007332D01*
X019925Y005864D02*
X020260Y005864D01*
X020233Y005787D02*
X019952Y005787D01*
X019952Y005710D02*
X020233Y005710D01*
X020233Y005632D02*
X019952Y005632D01*
X019952Y005555D02*
X020233Y005555D01*
X020233Y005478D02*
X019952Y005478D01*
X019952Y005401D02*
X020233Y005401D01*
X020233Y005323D02*
X019952Y005323D01*
X019952Y005246D02*
X020233Y005246D01*
X020233Y005169D02*
X019952Y005169D01*
X022085Y006405D02*
X022212Y006405D01*
X022241Y006636D02*
X022281Y006636D01*
X022281Y006714D02*
X022241Y006714D01*
X022241Y006791D02*
X022281Y006791D01*
X022281Y006868D02*
X022241Y006868D01*
X022241Y006945D02*
X022281Y006945D01*
X022281Y007023D02*
X022241Y007023D01*
X022241Y007100D02*
X022281Y007100D01*
X022281Y007177D02*
X022241Y007177D01*
X022241Y007254D02*
X022281Y007254D01*
X022281Y007332D02*
X022241Y007332D01*
X020209Y009031D02*
X019940Y009031D01*
X020017Y009108D02*
X020209Y009108D01*
X015771Y009108D02*
X015580Y009108D01*
X015599Y009031D02*
X015771Y009031D01*
X015771Y008954D02*
X015599Y008954D01*
X015502Y009185D02*
X015771Y009185D01*
X014010Y005864D02*
X013697Y005864D01*
X013683Y005787D02*
X013983Y005787D01*
X013983Y005710D02*
X013670Y005710D01*
X013630Y005632D02*
X013983Y005632D01*
X013983Y005555D02*
X013586Y005555D01*
X013541Y005478D02*
X013983Y005478D01*
X013983Y005401D02*
X013496Y005401D01*
X013464Y005344D02*
X013464Y005344D01*
X013439Y005323D02*
X013983Y005323D01*
X013983Y005246D02*
X013347Y005246D01*
X013255Y005169D02*
X013983Y005169D01*
X013963Y018300D02*
X013703Y018300D01*
X013690Y018377D02*
X013914Y018377D01*
X013914Y018454D02*
X013676Y018454D01*
X013667Y018506D02*
X013667Y018506D01*
X013652Y018531D02*
X013914Y018531D01*
X013914Y018609D02*
X013608Y018609D01*
X013563Y018686D02*
X013914Y018686D01*
X013914Y018763D02*
X013519Y018763D01*
X013474Y018840D02*
X013914Y018840D01*
X013914Y018918D02*
X013393Y018918D01*
X013464Y018858D02*
X013464Y018858D01*
X013301Y018995D02*
X013914Y018995D01*
D25*
X015046Y018764D03*
X015671Y018764D03*
X016796Y018139D03*
X017889Y018171D03*
X018264Y018202D03*
X018858Y018889D03*
X019796Y018889D03*
X019921Y018014D03*
X021171Y018139D03*
X021608Y017702D03*
X022014Y017702D03*
X022389Y017702D03*
X022483Y018139D03*
X023233Y018046D03*
X023233Y017608D03*
X023233Y017171D03*
X022858Y017171D03*
X022421Y016296D03*
X021983Y016296D03*
X021546Y016296D03*
X021233Y016108D03*
X020983Y016264D03*
X020671Y016421D03*
X019921Y016327D03*
X020202Y015952D03*
X019858Y015858D03*
X019389Y015577D03*
X019108Y015577D03*
X018889Y015827D03*
X018796Y015264D03*
X018546Y015233D03*
X018139Y015202D03*
X017639Y015202D03*
X017233Y015327D03*
X016983Y015358D03*
X016483Y015827D03*
X015858Y015546D03*
X015327Y015421D03*
X015014Y015139D03*
X014514Y015358D03*
X015827Y014858D03*
X015671Y014514D03*
X015452Y014327D03*
X015046Y014264D03*
X014233Y013889D03*
X014108Y014139D03*
X012514Y013608D03*
X012514Y012639D03*
X012827Y011577D03*
X012014Y011577D03*
X013983Y011233D03*
X015139Y012358D03*
X016264Y012952D03*
X016952Y013171D03*
X017077Y013514D03*
X017671Y013577D03*
X017952Y013608D03*
X018080Y013827D03*
X017639Y014077D03*
X018452Y013483D03*
X018171Y012827D03*
X018983Y012858D03*
X019389Y013296D03*
X019702Y013452D03*
X020108Y013702D03*
X020577Y013452D03*
X020796Y013233D03*
X021014Y013014D03*
X021233Y012858D03*
X022233Y012389D03*
X023077Y012514D03*
X023046Y012077D03*
X023014Y011389D03*
X023014Y010952D03*
X022546Y010952D03*
X022202Y010858D03*
X021171Y010952D03*
X020983Y011264D03*
X020608Y011514D03*
X020952Y011671D03*
X022108Y011327D03*
X024171Y011639D03*
X024171Y010889D03*
X024171Y010389D03*
X024171Y009858D03*
X024171Y009546D03*
X022233Y009108D03*
X021764Y008983D03*
X021483Y008639D03*
X020389Y009202D03*
X020139Y009327D03*
X019858Y009202D03*
X019608Y009421D03*
X019358Y009264D03*
X019046Y009389D03*
X018889Y009671D03*
X018202Y009827D03*
X018233Y010358D03*
X018233Y010983D03*
X017639Y011421D03*
X016452Y010889D03*
X017171Y010327D03*
X016858Y010014D03*
X016327Y010139D03*
X016077Y010139D03*
X016358Y009514D03*
X016733Y009202D03*
X017296Y009171D03*
X017608Y009202D03*
X017546Y009577D03*
X018327Y009139D03*
X018639Y008233D03*
X019108Y008233D03*
X018858Y007983D03*
X018171Y008108D03*
X019796Y007764D03*
X020139Y007733D03*
X020983Y007733D03*
X019796Y006671D03*
X019171Y006452D03*
X020483Y006014D03*
X018671Y005452D03*
X017921Y005452D03*
X015014Y005421D03*
X013858Y005358D03*
X013858Y006514D03*
X011858Y007546D03*
X013889Y007889D03*
X014014Y008514D03*
X014014Y008983D03*
X014014Y009202D03*
X014514Y009233D03*
X015077Y009389D03*
X015421Y009014D03*
X015577Y008733D03*
X015983Y008046D03*
X016327Y008046D03*
X020639Y009327D03*
X021202Y009421D03*
X019139Y010889D03*
X018983Y011608D03*
X023046Y013139D03*
X024108Y013139D03*
X024108Y012733D03*
X024108Y012421D03*
X024108Y013889D03*
X024296Y015671D03*
X024296Y016733D03*
X022483Y018796D03*
X021171Y018827D03*
X017858Y016577D03*
X017108Y016452D03*
X016452Y016483D03*
X016108Y016514D03*
X015764Y016514D03*
X014296Y016577D03*
X013296Y016702D03*
X013921Y017608D03*
X011921Y016671D03*
X012296Y015514D03*
X012296Y014671D03*
X016514Y014233D03*
X019108Y015202D03*
X020358Y015577D03*
X020858Y015639D03*
X021233Y014827D03*
X020358Y014264D03*
X019608Y014264D03*
X017546Y018889D03*
X024108Y007483D03*
X025014Y007514D03*
X023233Y006702D03*
X022546Y007046D03*
D26*
X021867Y006967D02*
X021867Y006411D01*
X022046Y006233D01*
X022389Y006233D01*
X023233Y006702D02*
X023233Y005358D01*
X013858Y005358D01*
X015608Y006296D02*
X015617Y006305D01*
X015617Y006967D01*
X015617Y006899D01*
X015608Y006889D01*
X015608Y006895D01*
X015608Y006889D02*
X015608Y006858D01*
X015599Y006849D01*
X015224Y006967D02*
X015224Y007661D01*
X016108Y008546D01*
X016108Y009827D01*
X016327Y010046D01*
X016327Y010139D01*
X016077Y010139D02*
X015921Y009983D01*
X015921Y008608D01*
X014830Y007518D01*
X014830Y006967D01*
X014178Y008741D02*
X013536Y008741D01*
X014178Y008741D02*
X014296Y008858D01*
X014296Y010327D01*
X014514Y010546D01*
X015514Y010546D01*
X018202Y013233D01*
X018202Y013608D01*
X018296Y013702D01*
X018296Y013952D01*
X018171Y014077D01*
X017639Y014077D01*
X017577Y013827D02*
X018080Y013827D01*
X017952Y013608D02*
X017952Y013264D01*
X015421Y010733D01*
X014421Y010733D01*
X014108Y010421D01*
X014108Y009702D01*
X014024Y009618D01*
X013533Y009618D01*
X013523Y010463D02*
X013869Y010463D01*
X014327Y010921D01*
X015327Y010921D01*
X017671Y013264D01*
X017671Y013577D01*
X017452Y013702D02*
X017577Y013827D01*
X017452Y013702D02*
X017452Y013296D01*
X015264Y011108D01*
X014202Y011108D01*
X013973Y010879D01*
X013654Y010879D01*
X013983Y011233D02*
X014046Y011296D01*
X015171Y011296D01*
X016952Y013077D01*
X016952Y013171D01*
X016264Y012952D02*
X016264Y016358D01*
X016108Y016514D01*
X016077Y016202D02*
X015764Y016514D01*
X016077Y016202D02*
X016077Y013296D01*
X015139Y012358D01*
X014233Y013889D02*
X014327Y013983D01*
X014327Y015202D01*
X013799Y015730D01*
X013436Y015730D01*
X013436Y015336D02*
X013849Y015336D01*
X014108Y015077D01*
X014108Y014139D01*
X014787Y014461D02*
X014983Y014264D01*
X015046Y014264D01*
X014787Y014461D02*
X014787Y014845D01*
X015043Y014845D02*
X015043Y015111D01*
X015014Y015139D01*
X015554Y014845D02*
X015554Y014599D01*
X015639Y014514D01*
X015671Y014514D01*
X016983Y015358D02*
X017014Y015389D01*
X017014Y015983D01*
X016702Y016296D01*
X016702Y016577D01*
X016327Y016952D01*
X016336Y016961D01*
X016336Y017218D01*
X015949Y017218D02*
X015949Y016980D01*
X015945Y016983D01*
X015921Y016983D01*
X015296Y016358D01*
X015296Y016333D01*
X015299Y016330D01*
X015299Y015809D01*
X015043Y015809D02*
X015043Y016386D01*
X015555Y016899D01*
X015555Y017218D01*
X015549Y017218D01*
X015161Y017218D02*
X015161Y016880D01*
X014421Y016139D01*
X014358Y016139D01*
X015155Y017218D02*
X015161Y017218D01*
X015943Y017218D02*
X015949Y017218D01*
X016730Y017218D02*
X016730Y016986D01*
X016889Y016827D01*
X016889Y016358D01*
X017233Y016014D01*
X017233Y015327D01*
X017671Y015858D02*
X018264Y015858D01*
X018546Y015577D01*
X018546Y015233D01*
X018796Y015264D02*
X018796Y015608D01*
X018358Y016046D01*
X017764Y016046D01*
X017577Y016233D01*
X017577Y016608D01*
X017517Y016668D01*
X017517Y017218D01*
X017124Y017218D02*
X017124Y016811D01*
X017389Y016546D01*
X017389Y016139D01*
X017671Y015858D01*
X019108Y015577D02*
X019108Y017264D01*
X019108Y017358D01*
X018264Y018202D01*
X017546Y018764D02*
X017546Y018889D01*
X017546Y018764D02*
X023327Y018764D01*
X022389Y017702D02*
X022417Y017674D01*
X022417Y017218D01*
X022024Y017218D02*
X022024Y017693D01*
X022014Y017702D01*
X021630Y017680D02*
X021608Y017702D01*
X021630Y017680D02*
X021630Y017218D01*
X020671Y016421D02*
X020202Y015952D01*
X020358Y015577D02*
X019389Y015577D01*
X021546Y016296D02*
X021546Y014421D01*
X020577Y013452D01*
X020796Y013233D02*
X021983Y014421D01*
X021983Y016296D01*
X022421Y016296D02*
X022421Y014421D01*
X021014Y013014D01*
X020417Y012206D02*
X019858Y012206D01*
X020417Y012206D02*
X020952Y011671D01*
X020983Y011264D02*
X019889Y011264D01*
X019893Y011261D01*
X019858Y011261D01*
X018983Y011608D02*
X018608Y011608D01*
X018608Y010983D02*
X018233Y010983D01*
X018233Y010358D02*
X018608Y010358D01*
X018889Y009671D02*
X019858Y010639D01*
X023233Y010639D01*
X023858Y011264D01*
X023858Y011733D01*
X024264Y012139D01*
X025008Y012139D01*
X025008Y011139D02*
X024014Y011139D01*
X023327Y010452D01*
X020014Y010452D01*
X019046Y009483D01*
X019046Y009389D01*
X019358Y009264D02*
X019358Y009514D01*
X020108Y010264D01*
X023421Y010264D01*
X024046Y010889D01*
X024171Y010889D01*
X024046Y010139D02*
X023764Y009858D01*
X020327Y009858D01*
X019858Y009389D01*
X019858Y009202D01*
X020139Y009327D02*
X020483Y009671D01*
X023983Y009671D01*
X024171Y009858D01*
X024046Y010139D02*
X025008Y010139D01*
X020639Y009327D02*
X020639Y009139D01*
X020577Y009077D01*
X020577Y007858D01*
X021014Y007421D01*
X021264Y007421D01*
X021474Y007211D01*
X021474Y006967D01*
X021080Y006967D02*
X021080Y007105D01*
X020358Y007827D01*
X020358Y009171D01*
X020389Y009202D01*
X018389Y009077D02*
X018327Y009139D01*
X018389Y009077D02*
X018389Y007796D01*
X018318Y007724D01*
X018318Y006967D01*
X018711Y006967D02*
X018711Y006524D01*
X018389Y006202D01*
X017924Y006967D02*
X017924Y007611D01*
X018171Y007858D01*
X018171Y008108D01*
X017638Y008634D02*
X017638Y009172D01*
X017608Y009202D01*
X017634Y009176D01*
X017634Y009165D01*
X019796Y007764D02*
X019796Y006671D01*
X018983Y012858D02*
X018608Y012858D01*
X013436Y014943D02*
X012899Y014943D01*
X012796Y015046D01*
X012796Y015139D01*
X012514Y013608D02*
X011921Y013608D01*
X011921Y016889D01*
X013827Y018764D02*
X017546Y018764D01*
X024108Y013889D02*
X024358Y014139D01*
X025008Y014139D01*
X025008Y013139D02*
X024108Y013139D01*
D27*
X022983Y016014D03*
X014358Y016139D03*
X012796Y015139D03*
X023421Y009139D03*
X024077Y009139D03*
X021171Y008014D03*
X022389Y006233D03*
X018389Y006202D03*
X016389Y006296D03*
X015608Y006296D03*
X015858Y007608D03*
D28*
X024077Y009139D02*
X025008Y009139D01*
D29*
X025008Y015139D02*
X023733Y015139D01*
D30*
X013472Y010033D02*
X012939Y010033D01*
X012796Y009889D01*
X012796Y008858D01*
X013046Y008608D01*
X013046Y008014D01*
X013171Y007889D01*
X013889Y007889D01*
M02*
