G75*
G70*
%OFA0B0*%
%FSLAX24Y24*%
%IPPOS*%
%LPD*%
%AMOC8*
5,1,8,0,0,1.08239X$1,22.5*
%
%ADD10C,0.0000*%
%ADD11C,0.0600*%
%ADD12C,0.0159*%
%ADD13C,0.0295*%
%ADD14C,0.0100*%
%ADD15C,0.0320*%
D10*
X011483Y005999D02*
X011483Y018203D01*
X011485Y018265D01*
X011491Y018326D01*
X011500Y018387D01*
X011514Y018448D01*
X011531Y018507D01*
X011552Y018565D01*
X011577Y018622D01*
X011605Y018677D01*
X011636Y018730D01*
X011671Y018781D01*
X011709Y018830D01*
X011750Y018877D01*
X011793Y018920D01*
X011840Y018961D01*
X011889Y018999D01*
X011940Y019034D01*
X011993Y019065D01*
X012048Y019093D01*
X012105Y019118D01*
X012163Y019139D01*
X012222Y019156D01*
X012283Y019170D01*
X012344Y019179D01*
X012405Y019185D01*
X012467Y019187D01*
X012467Y019188D02*
X024672Y019188D01*
X024672Y019187D02*
X024734Y019185D01*
X024795Y019179D01*
X024856Y019170D01*
X024917Y019156D01*
X024976Y019139D01*
X025034Y019118D01*
X025091Y019093D01*
X025146Y019065D01*
X025199Y019034D01*
X025250Y018999D01*
X025299Y018961D01*
X025346Y018920D01*
X025389Y018877D01*
X025430Y018830D01*
X025468Y018781D01*
X025503Y018730D01*
X025534Y018677D01*
X025562Y018622D01*
X025587Y018565D01*
X025608Y018507D01*
X025625Y018448D01*
X025639Y018387D01*
X025648Y018326D01*
X025654Y018265D01*
X025656Y018203D01*
X025656Y005999D01*
X025654Y005937D01*
X025648Y005876D01*
X025639Y005815D01*
X025625Y005754D01*
X025608Y005695D01*
X025587Y005637D01*
X025562Y005580D01*
X025534Y005525D01*
X025503Y005472D01*
X025468Y005421D01*
X025430Y005372D01*
X025389Y005325D01*
X025346Y005282D01*
X025299Y005241D01*
X025250Y005203D01*
X025199Y005168D01*
X025146Y005137D01*
X025091Y005109D01*
X025034Y005084D01*
X024976Y005063D01*
X024917Y005046D01*
X024856Y005032D01*
X024795Y005023D01*
X024734Y005017D01*
X024672Y005015D01*
X024672Y005014D02*
X012467Y005014D01*
X012467Y005015D02*
X012405Y005017D01*
X012344Y005023D01*
X012283Y005032D01*
X012222Y005046D01*
X012163Y005063D01*
X012105Y005084D01*
X012048Y005109D01*
X011993Y005137D01*
X011940Y005168D01*
X011889Y005203D01*
X011840Y005241D01*
X011793Y005282D01*
X011750Y005325D01*
X011709Y005372D01*
X011671Y005421D01*
X011636Y005472D01*
X011605Y005525D01*
X011577Y005580D01*
X011552Y005637D01*
X011531Y005695D01*
X011514Y005754D01*
X011500Y005815D01*
X011491Y005876D01*
X011485Y005937D01*
X011483Y005999D01*
X011975Y006097D02*
X011977Y006145D01*
X011983Y006193D01*
X011993Y006240D01*
X012006Y006286D01*
X012024Y006331D01*
X012044Y006375D01*
X012069Y006417D01*
X012097Y006456D01*
X012127Y006493D01*
X012161Y006527D01*
X012198Y006559D01*
X012236Y006588D01*
X012277Y006613D01*
X012320Y006635D01*
X012365Y006653D01*
X012411Y006667D01*
X012458Y006678D01*
X012506Y006685D01*
X012554Y006688D01*
X012602Y006687D01*
X012650Y006682D01*
X012698Y006673D01*
X012744Y006661D01*
X012789Y006644D01*
X012833Y006624D01*
X012875Y006601D01*
X012915Y006574D01*
X012953Y006544D01*
X012988Y006511D01*
X013020Y006475D01*
X013050Y006437D01*
X013076Y006396D01*
X013098Y006353D01*
X013118Y006309D01*
X013133Y006264D01*
X013145Y006217D01*
X013153Y006169D01*
X013157Y006121D01*
X013157Y006073D01*
X013153Y006025D01*
X013145Y005977D01*
X013133Y005930D01*
X013118Y005885D01*
X013098Y005841D01*
X013076Y005798D01*
X013050Y005757D01*
X013020Y005719D01*
X012988Y005683D01*
X012953Y005650D01*
X012915Y005620D01*
X012875Y005593D01*
X012833Y005570D01*
X012789Y005550D01*
X012744Y005533D01*
X012698Y005521D01*
X012650Y005512D01*
X012602Y005507D01*
X012554Y005506D01*
X012506Y005509D01*
X012458Y005516D01*
X012411Y005527D01*
X012365Y005541D01*
X012320Y005559D01*
X012277Y005581D01*
X012236Y005606D01*
X012198Y005635D01*
X012161Y005667D01*
X012127Y005701D01*
X012097Y005738D01*
X012069Y005777D01*
X012044Y005819D01*
X012024Y005863D01*
X012006Y005908D01*
X011993Y005954D01*
X011983Y006001D01*
X011977Y006049D01*
X011975Y006097D01*
X023983Y006097D02*
X023985Y006145D01*
X023991Y006193D01*
X024001Y006240D01*
X024014Y006286D01*
X024032Y006331D01*
X024052Y006375D01*
X024077Y006417D01*
X024105Y006456D01*
X024135Y006493D01*
X024169Y006527D01*
X024206Y006559D01*
X024244Y006588D01*
X024285Y006613D01*
X024328Y006635D01*
X024373Y006653D01*
X024419Y006667D01*
X024466Y006678D01*
X024514Y006685D01*
X024562Y006688D01*
X024610Y006687D01*
X024658Y006682D01*
X024706Y006673D01*
X024752Y006661D01*
X024797Y006644D01*
X024841Y006624D01*
X024883Y006601D01*
X024923Y006574D01*
X024961Y006544D01*
X024996Y006511D01*
X025028Y006475D01*
X025058Y006437D01*
X025084Y006396D01*
X025106Y006353D01*
X025126Y006309D01*
X025141Y006264D01*
X025153Y006217D01*
X025161Y006169D01*
X025165Y006121D01*
X025165Y006073D01*
X025161Y006025D01*
X025153Y005977D01*
X025141Y005930D01*
X025126Y005885D01*
X025106Y005841D01*
X025084Y005798D01*
X025058Y005757D01*
X025028Y005719D01*
X024996Y005683D01*
X024961Y005650D01*
X024923Y005620D01*
X024883Y005593D01*
X024841Y005570D01*
X024797Y005550D01*
X024752Y005533D01*
X024706Y005521D01*
X024658Y005512D01*
X024610Y005507D01*
X024562Y005506D01*
X024514Y005509D01*
X024466Y005516D01*
X024419Y005527D01*
X024373Y005541D01*
X024328Y005559D01*
X024285Y005581D01*
X024244Y005606D01*
X024206Y005635D01*
X024169Y005667D01*
X024135Y005701D01*
X024105Y005738D01*
X024077Y005777D01*
X024052Y005819D01*
X024032Y005863D01*
X024014Y005908D01*
X024001Y005954D01*
X023991Y006001D01*
X023985Y006049D01*
X023983Y006097D01*
X023983Y018105D02*
X023985Y018153D01*
X023991Y018201D01*
X024001Y018248D01*
X024014Y018294D01*
X024032Y018339D01*
X024052Y018383D01*
X024077Y018425D01*
X024105Y018464D01*
X024135Y018501D01*
X024169Y018535D01*
X024206Y018567D01*
X024244Y018596D01*
X024285Y018621D01*
X024328Y018643D01*
X024373Y018661D01*
X024419Y018675D01*
X024466Y018686D01*
X024514Y018693D01*
X024562Y018696D01*
X024610Y018695D01*
X024658Y018690D01*
X024706Y018681D01*
X024752Y018669D01*
X024797Y018652D01*
X024841Y018632D01*
X024883Y018609D01*
X024923Y018582D01*
X024961Y018552D01*
X024996Y018519D01*
X025028Y018483D01*
X025058Y018445D01*
X025084Y018404D01*
X025106Y018361D01*
X025126Y018317D01*
X025141Y018272D01*
X025153Y018225D01*
X025161Y018177D01*
X025165Y018129D01*
X025165Y018081D01*
X025161Y018033D01*
X025153Y017985D01*
X025141Y017938D01*
X025126Y017893D01*
X025106Y017849D01*
X025084Y017806D01*
X025058Y017765D01*
X025028Y017727D01*
X024996Y017691D01*
X024961Y017658D01*
X024923Y017628D01*
X024883Y017601D01*
X024841Y017578D01*
X024797Y017558D01*
X024752Y017541D01*
X024706Y017529D01*
X024658Y017520D01*
X024610Y017515D01*
X024562Y017514D01*
X024514Y017517D01*
X024466Y017524D01*
X024419Y017535D01*
X024373Y017549D01*
X024328Y017567D01*
X024285Y017589D01*
X024244Y017614D01*
X024206Y017643D01*
X024169Y017675D01*
X024135Y017709D01*
X024105Y017746D01*
X024077Y017785D01*
X024052Y017827D01*
X024032Y017871D01*
X024014Y017916D01*
X024001Y017962D01*
X023991Y018009D01*
X023985Y018057D01*
X023983Y018105D01*
X011975Y018105D02*
X011977Y018153D01*
X011983Y018201D01*
X011993Y018248D01*
X012006Y018294D01*
X012024Y018339D01*
X012044Y018383D01*
X012069Y018425D01*
X012097Y018464D01*
X012127Y018501D01*
X012161Y018535D01*
X012198Y018567D01*
X012236Y018596D01*
X012277Y018621D01*
X012320Y018643D01*
X012365Y018661D01*
X012411Y018675D01*
X012458Y018686D01*
X012506Y018693D01*
X012554Y018696D01*
X012602Y018695D01*
X012650Y018690D01*
X012698Y018681D01*
X012744Y018669D01*
X012789Y018652D01*
X012833Y018632D01*
X012875Y018609D01*
X012915Y018582D01*
X012953Y018552D01*
X012988Y018519D01*
X013020Y018483D01*
X013050Y018445D01*
X013076Y018404D01*
X013098Y018361D01*
X013118Y018317D01*
X013133Y018272D01*
X013145Y018225D01*
X013153Y018177D01*
X013157Y018129D01*
X013157Y018081D01*
X013153Y018033D01*
X013145Y017985D01*
X013133Y017938D01*
X013118Y017893D01*
X013098Y017849D01*
X013076Y017806D01*
X013050Y017765D01*
X013020Y017727D01*
X012988Y017691D01*
X012953Y017658D01*
X012915Y017628D01*
X012875Y017601D01*
X012833Y017578D01*
X012789Y017558D01*
X012744Y017541D01*
X012698Y017529D01*
X012650Y017520D01*
X012602Y017515D01*
X012554Y017514D01*
X012506Y017517D01*
X012458Y017524D01*
X012411Y017535D01*
X012365Y017549D01*
X012320Y017567D01*
X012277Y017589D01*
X012236Y017614D01*
X012198Y017643D01*
X012161Y017675D01*
X012127Y017709D01*
X012097Y017746D01*
X012069Y017785D01*
X012044Y017827D01*
X012024Y017871D01*
X012006Y017916D01*
X011993Y017962D01*
X011983Y018009D01*
X011977Y018057D01*
X011975Y018105D01*
D11*
X023733Y016139D03*
X023733Y015139D03*
D12*
X024296Y015671D03*
X024296Y016733D03*
X023233Y017171D03*
X022858Y017171D03*
X023233Y017608D03*
X023233Y018046D03*
X022483Y018139D03*
X022389Y017702D03*
X022014Y017702D03*
X021608Y017702D03*
X021171Y018139D03*
X021171Y018827D03*
X022483Y018796D03*
X019921Y018014D03*
X019796Y018889D03*
X018858Y018889D03*
X018264Y018202D03*
X017889Y018171D03*
X016796Y018139D03*
X015671Y018764D03*
X015046Y018764D03*
X013921Y017608D03*
X013296Y016702D03*
X014296Y016577D03*
X014514Y015358D03*
X015014Y015139D03*
X015327Y015421D03*
X015858Y015546D03*
X016483Y015827D03*
X016983Y015358D03*
X017233Y015327D03*
X017639Y015202D03*
X018139Y015202D03*
X018546Y015233D03*
X018796Y015264D03*
X019108Y015202D03*
X019108Y015577D03*
X019389Y015577D03*
X019858Y015858D03*
X020202Y015952D03*
X020358Y015577D03*
X020858Y015639D03*
X021233Y016108D03*
X020983Y016264D03*
X020671Y016421D03*
X019921Y016327D03*
X018889Y015827D03*
X017858Y016577D03*
X017108Y016452D03*
X016452Y016483D03*
X016108Y016514D03*
X015764Y016514D03*
X015827Y014858D03*
X015671Y014514D03*
X015452Y014327D03*
X015046Y014264D03*
X014233Y013889D03*
X014108Y014139D03*
X012514Y013608D03*
X012514Y012639D03*
X012827Y011577D03*
X012014Y011577D03*
X013983Y011233D03*
X015139Y012358D03*
X016264Y012952D03*
X016952Y013171D03*
X017077Y013514D03*
X017671Y013577D03*
X017952Y013608D03*
X018080Y013827D03*
X017639Y014077D03*
X018452Y013483D03*
X018171Y012827D03*
X018983Y012858D03*
X019389Y013296D03*
X019702Y013452D03*
X020108Y013702D03*
X020577Y013452D03*
X020796Y013233D03*
X021014Y013014D03*
X021233Y012858D03*
X022233Y012389D03*
X023077Y012514D03*
X023046Y012077D03*
X023014Y011389D03*
X023014Y010952D03*
X022546Y010952D03*
X022202Y010858D03*
X021171Y010952D03*
X020983Y011264D03*
X020608Y011514D03*
X020952Y011671D03*
X022108Y011327D03*
X024171Y011639D03*
X024171Y010889D03*
X024171Y010389D03*
X024171Y009858D03*
X024171Y009546D03*
X022233Y009108D03*
X021764Y008983D03*
X021483Y008639D03*
X020389Y009202D03*
X020139Y009327D03*
X019858Y009202D03*
X019608Y009421D03*
X019358Y009264D03*
X019046Y009389D03*
X018889Y009671D03*
X018202Y009827D03*
X018233Y010358D03*
X018233Y010983D03*
X017639Y011421D03*
X016452Y010889D03*
X017171Y010327D03*
X016858Y010014D03*
X016327Y010139D03*
X016077Y010139D03*
X016358Y009514D03*
X016733Y009202D03*
X017296Y009171D03*
X017608Y009202D03*
X017546Y009577D03*
X018327Y009139D03*
X018639Y008233D03*
X019108Y008233D03*
X018858Y007983D03*
X018171Y008108D03*
X019796Y007764D03*
X020139Y007733D03*
X020983Y007733D03*
X019796Y006671D03*
X019171Y006452D03*
X020483Y006014D03*
X018671Y005452D03*
X017921Y005452D03*
X015014Y005421D03*
X013858Y005358D03*
X013858Y006514D03*
X011858Y007546D03*
X013889Y007889D03*
X014014Y008514D03*
X014014Y008983D03*
X014014Y009202D03*
X014514Y009233D03*
X015077Y009389D03*
X015421Y009014D03*
X015577Y008733D03*
X015983Y008046D03*
X016327Y008046D03*
X020639Y009327D03*
X021202Y009421D03*
X019139Y010889D03*
X018983Y011608D03*
X023046Y013139D03*
X024108Y013139D03*
X024108Y012733D03*
X024108Y012421D03*
X024108Y013889D03*
X021233Y014827D03*
X020358Y014264D03*
X019608Y014264D03*
X016514Y014233D03*
X012296Y014671D03*
X012296Y015514D03*
X011921Y016671D03*
X017546Y018889D03*
X021546Y016296D03*
X021983Y016296D03*
X022421Y016296D03*
X024108Y007483D03*
X025014Y007514D03*
X023233Y006702D03*
X022546Y007046D03*
D13*
X022389Y006233D03*
X021171Y008014D03*
X023421Y009139D03*
X024077Y009139D03*
X018389Y006202D03*
X016389Y006296D03*
X015608Y006296D03*
X015858Y007608D03*
X012796Y015139D03*
X014358Y016139D03*
X022983Y016014D03*
D14*
X022702Y016145D02*
X022594Y016145D01*
X022650Y016201D02*
X022650Y016391D01*
X022516Y016525D01*
X022326Y016525D01*
X022202Y016401D01*
X022078Y016525D01*
X021888Y016525D01*
X021764Y016401D01*
X021641Y016525D01*
X021451Y016525D01*
X021316Y016391D01*
X021316Y016337D01*
X021212Y016337D01*
X021212Y016359D01*
X021078Y016494D01*
X020900Y016494D01*
X020900Y016516D01*
X020766Y016650D01*
X020576Y016650D01*
X020441Y016516D01*
X020441Y016326D01*
X020576Y016191D01*
X020754Y016191D01*
X020754Y016169D01*
X020888Y016035D01*
X021004Y016035D01*
X021004Y016013D01*
X021138Y015879D01*
X021328Y015879D01*
X021462Y016013D01*
X021462Y016066D01*
X021641Y016066D01*
X021764Y016190D01*
X021888Y016066D01*
X022078Y016066D01*
X022202Y016190D01*
X022326Y016066D01*
X022516Y016066D01*
X022650Y016201D01*
X022650Y016243D02*
X022774Y016243D01*
X022808Y016277D02*
X022720Y016190D01*
X022673Y016076D01*
X022673Y014703D01*
X022720Y014589D01*
X022808Y014502D01*
X023173Y014136D01*
X023173Y012742D01*
X023172Y012744D01*
X022982Y012744D01*
X022848Y012609D01*
X022848Y012419D01*
X022982Y012285D01*
X023172Y012285D01*
X023173Y012286D01*
X023173Y011555D01*
X023109Y011619D01*
X022919Y011619D01*
X022785Y011484D01*
X022785Y011294D01*
X022909Y011171D01*
X022785Y011047D01*
X022785Y010857D01*
X022919Y010723D01*
X023109Y010723D01*
X023173Y010786D01*
X023173Y009330D01*
X023158Y009315D01*
X021763Y007921D01*
X021120Y007921D01*
X021078Y007962D01*
X020888Y007962D01*
X020846Y007921D01*
X020276Y007921D01*
X020234Y007962D01*
X020044Y007962D01*
X020002Y007921D01*
X019964Y007921D01*
X019891Y007994D01*
X019701Y007994D01*
X019627Y007921D01*
X018307Y007921D01*
X018400Y008013D01*
X018400Y008203D01*
X018266Y008337D01*
X018076Y008337D01*
X017941Y008203D01*
X017941Y008013D01*
X018034Y007921D01*
X016526Y007921D01*
X016556Y007951D01*
X016556Y008141D01*
X016422Y008275D01*
X016232Y008275D01*
X016155Y008198D01*
X016078Y008275D01*
X015888Y008275D01*
X015754Y008141D01*
X015754Y007951D01*
X015784Y007921D01*
X014421Y007921D01*
X014056Y008285D01*
X014109Y008285D01*
X014244Y008419D01*
X014244Y008609D01*
X014109Y008744D01*
X013921Y008744D01*
X013921Y008754D01*
X014109Y008754D01*
X014244Y008888D01*
X014244Y009078D01*
X014229Y009092D01*
X014244Y009107D01*
X014244Y009297D01*
X014109Y009431D01*
X013921Y009431D01*
X013921Y011004D01*
X014078Y011004D01*
X014212Y011138D01*
X014212Y011328D01*
X014078Y011462D01*
X013921Y011462D01*
X013921Y014002D01*
X014004Y013919D01*
X014004Y013794D01*
X014138Y013660D01*
X014328Y013660D01*
X014462Y013794D01*
X014462Y013984D01*
X014337Y014109D01*
X014337Y014234D01*
X014203Y014369D01*
X014013Y014369D01*
X013921Y014276D01*
X013921Y015829D01*
X014420Y015829D01*
X014534Y015877D01*
X014621Y015964D01*
X014668Y016078D01*
X014668Y016201D01*
X014621Y016315D01*
X014534Y016402D01*
X014471Y016428D01*
X014525Y016482D01*
X014525Y016672D01*
X014391Y016806D01*
X014201Y016806D01*
X014066Y016672D01*
X014066Y016482D01*
X014099Y016449D01*
X013921Y016449D01*
X013921Y017379D01*
X014016Y017379D01*
X014150Y017513D01*
X014150Y017703D01*
X014016Y017837D01*
X013921Y017837D01*
X013921Y019038D01*
X017369Y019038D01*
X017316Y018984D01*
X017316Y018794D01*
X017451Y018660D01*
X017641Y018660D01*
X017775Y018794D01*
X017775Y018984D01*
X017722Y019038D01*
X018682Y019038D01*
X018629Y018984D01*
X018629Y018794D01*
X018763Y018660D01*
X018953Y018660D01*
X019087Y018794D01*
X019087Y018984D01*
X019034Y019038D01*
X019619Y019038D01*
X019566Y018984D01*
X019566Y018794D01*
X019701Y018660D01*
X019891Y018660D01*
X020025Y018794D01*
X020025Y018984D01*
X019972Y019038D01*
X021057Y019038D01*
X020941Y018922D01*
X020941Y018732D01*
X021076Y018598D01*
X021266Y018598D01*
X021400Y018732D01*
X021400Y018922D01*
X021284Y019038D01*
X023383Y019038D01*
X023383Y018220D01*
X023328Y018275D01*
X023138Y018275D01*
X023004Y018141D01*
X023004Y017951D01*
X023127Y017827D01*
X023004Y017703D01*
X023004Y017513D01*
X023127Y017389D01*
X023046Y017307D01*
X022953Y017400D01*
X022763Y017400D01*
X022629Y017266D01*
X022629Y017076D01*
X022763Y016941D01*
X022953Y016941D01*
X023046Y017034D01*
X023138Y016941D01*
X023328Y016941D01*
X023462Y017076D01*
X023462Y017266D01*
X023339Y017389D01*
X023462Y017513D01*
X023462Y017662D01*
X023474Y017632D01*
X023472Y017624D01*
X023488Y017594D01*
X023500Y017562D01*
X023507Y017558D01*
X023548Y017484D01*
X023547Y017476D01*
X023567Y017448D01*
X023584Y017418D01*
X023592Y017416D01*
X023608Y017394D01*
X023608Y016733D01*
X023171Y016296D01*
X023171Y016265D01*
X023159Y016277D01*
X023045Y016324D01*
X022921Y016324D01*
X022808Y016277D01*
X022650Y016342D02*
X023217Y016342D01*
X023315Y016440D02*
X022600Y016440D01*
X022241Y016440D02*
X022163Y016440D01*
X021804Y016440D02*
X021725Y016440D01*
X021366Y016440D02*
X021131Y016440D01*
X021212Y016342D02*
X021316Y016342D01*
X021462Y016046D02*
X022673Y016046D01*
X022673Y015948D02*
X021397Y015948D01*
X021069Y015948D02*
X020431Y015948D01*
X020431Y015857D02*
X020431Y016047D01*
X020297Y016181D01*
X020107Y016181D01*
X019983Y016057D01*
X019953Y016087D01*
X019763Y016087D01*
X019629Y015953D01*
X019629Y015763D01*
X019763Y015629D01*
X019953Y015629D01*
X020077Y015752D01*
X020107Y015723D01*
X020179Y015723D01*
X020129Y015672D01*
X020129Y015482D01*
X020263Y015348D01*
X020453Y015348D01*
X020587Y015482D01*
X020587Y015672D01*
X020453Y015806D01*
X020381Y015806D01*
X020431Y015857D01*
X020424Y015849D02*
X022673Y015849D01*
X022673Y015751D02*
X020508Y015751D01*
X020587Y015652D02*
X022673Y015652D01*
X022673Y015554D02*
X020587Y015554D01*
X020561Y015455D02*
X022673Y015455D01*
X022673Y015357D02*
X020463Y015357D01*
X020254Y015357D02*
X019494Y015357D01*
X019484Y015348D02*
X019619Y015482D01*
X019619Y015672D01*
X019484Y015806D01*
X019294Y015806D01*
X019249Y015761D01*
X019203Y015806D01*
X019119Y015806D01*
X019119Y015922D01*
X018984Y016056D01*
X018794Y016056D01*
X018660Y015922D01*
X018660Y015732D01*
X018794Y015598D01*
X018879Y015598D01*
X018879Y015494D01*
X018701Y015494D01*
X018655Y015448D01*
X018641Y015462D01*
X018451Y015462D01*
X018327Y015339D01*
X018234Y015431D01*
X018044Y015431D01*
X017910Y015297D01*
X017910Y015107D01*
X018044Y014973D01*
X018234Y014973D01*
X018358Y015096D01*
X018451Y015004D01*
X018641Y015004D01*
X018686Y015049D01*
X018701Y015035D01*
X018891Y015035D01*
X018921Y015065D01*
X019013Y014973D01*
X019203Y014973D01*
X019337Y015107D01*
X019337Y015297D01*
X019245Y015389D01*
X019249Y015393D01*
X019294Y015348D01*
X019484Y015348D01*
X019592Y015455D02*
X020155Y015455D01*
X020129Y015554D02*
X019619Y015554D01*
X019619Y015652D02*
X019739Y015652D01*
X019641Y015751D02*
X019540Y015751D01*
X019629Y015849D02*
X019119Y015849D01*
X019093Y015948D02*
X019629Y015948D01*
X019722Y016046D02*
X018994Y016046D01*
X018785Y016046D02*
X016588Y016046D01*
X016578Y016056D02*
X016388Y016056D01*
X016254Y015922D01*
X016254Y015732D01*
X016388Y015598D01*
X016578Y015598D01*
X016712Y015732D01*
X016712Y015922D01*
X016578Y016056D01*
X016686Y015948D02*
X018686Y015948D01*
X018660Y015849D02*
X016712Y015849D01*
X016712Y015751D02*
X018660Y015751D01*
X018739Y015652D02*
X016633Y015652D01*
X016756Y015455D02*
X015556Y015455D01*
X015556Y015516D02*
X015422Y015650D01*
X015232Y015650D01*
X015098Y015516D01*
X015098Y015326D01*
X015232Y015191D01*
X015422Y015191D01*
X015556Y015326D01*
X015556Y015516D01*
X015518Y015554D02*
X016855Y015554D01*
X016888Y015587D02*
X016754Y015453D01*
X016754Y015263D01*
X016888Y015129D01*
X017078Y015129D01*
X017092Y015143D01*
X017138Y015098D01*
X017328Y015098D01*
X017410Y015179D01*
X017410Y015107D01*
X017544Y014973D01*
X017734Y014973D01*
X017869Y015107D01*
X017869Y015297D01*
X017734Y015431D01*
X017544Y015431D01*
X017462Y015349D01*
X017462Y015422D01*
X017328Y015556D01*
X017138Y015556D01*
X017124Y015542D01*
X017078Y015587D01*
X016888Y015587D01*
X017112Y015554D02*
X017136Y015554D01*
X017330Y015554D02*
X018879Y015554D01*
X018662Y015455D02*
X018648Y015455D01*
X018444Y015455D02*
X017429Y015455D01*
X017462Y015357D02*
X017470Y015357D01*
X017410Y015160D02*
X017391Y015160D01*
X017455Y015061D02*
X015948Y015061D01*
X015922Y015087D02*
X016056Y014953D01*
X016056Y014763D01*
X015922Y014629D01*
X015881Y014629D01*
X015900Y014609D01*
X015900Y014419D01*
X015766Y014285D01*
X015681Y014285D01*
X015681Y014232D01*
X015547Y014098D01*
X015357Y014098D01*
X015275Y014179D01*
X015275Y014169D01*
X015141Y014035D01*
X014951Y014035D01*
X014816Y014169D01*
X014816Y014359D01*
X014951Y014494D01*
X015141Y014494D01*
X015223Y014412D01*
X015223Y014422D01*
X015357Y014556D01*
X015441Y014556D01*
X015441Y014609D01*
X015576Y014744D01*
X015617Y014744D01*
X015598Y014763D01*
X015598Y014953D01*
X015732Y015087D01*
X015922Y015087D01*
X016046Y014963D02*
X021045Y014963D01*
X021004Y014922D02*
X021004Y014732D01*
X021138Y014598D01*
X021328Y014598D01*
X021462Y014732D01*
X021462Y014922D01*
X021328Y015056D01*
X021138Y015056D01*
X021004Y014922D01*
X021004Y014864D02*
X016056Y014864D01*
X016056Y014766D02*
X021004Y014766D01*
X021068Y014667D02*
X015961Y014667D01*
X015900Y014569D02*
X022740Y014569D01*
X022688Y014667D02*
X021398Y014667D01*
X021462Y014766D02*
X022673Y014766D01*
X022673Y014864D02*
X021462Y014864D01*
X021421Y014963D02*
X022673Y014963D01*
X022673Y015061D02*
X019292Y015061D01*
X019337Y015160D02*
X022673Y015160D01*
X022673Y015258D02*
X019337Y015258D01*
X019285Y015357D02*
X019277Y015357D01*
X018924Y015061D02*
X018917Y015061D01*
X018393Y015061D02*
X018323Y015061D01*
X017955Y015061D02*
X017823Y015061D01*
X017869Y015160D02*
X017910Y015160D01*
X017910Y015258D02*
X017869Y015258D01*
X017809Y015357D02*
X017970Y015357D01*
X018309Y015357D02*
X018345Y015357D01*
X017953Y016348D02*
X017763Y016348D01*
X017629Y016482D01*
X017629Y016672D01*
X017763Y016806D01*
X017953Y016806D01*
X018087Y016672D01*
X018087Y016482D01*
X017953Y016348D01*
X018046Y016440D02*
X019710Y016440D01*
X019691Y016422D02*
X019826Y016556D01*
X020016Y016556D01*
X020150Y016422D01*
X020150Y016232D01*
X020016Y016098D01*
X019826Y016098D01*
X019691Y016232D01*
X019691Y016422D01*
X019691Y016342D02*
X016635Y016342D01*
X016681Y016388D02*
X016681Y016578D01*
X016547Y016712D01*
X016357Y016712D01*
X016296Y016651D01*
X016203Y016744D01*
X016013Y016744D01*
X015936Y016667D01*
X015859Y016744D01*
X015669Y016744D01*
X015535Y016609D01*
X015535Y016419D01*
X015669Y016285D01*
X015859Y016285D01*
X015936Y016362D01*
X016013Y016285D01*
X016203Y016285D01*
X016264Y016346D01*
X016357Y016254D01*
X016547Y016254D01*
X016681Y016388D01*
X016681Y016440D02*
X017670Y016440D01*
X017629Y016539D02*
X016681Y016539D01*
X016622Y016637D02*
X017629Y016637D01*
X017693Y016736D02*
X016211Y016736D01*
X016005Y016736D02*
X015867Y016736D01*
X015662Y016736D02*
X014461Y016736D01*
X014525Y016637D02*
X015563Y016637D01*
X015535Y016539D02*
X014525Y016539D01*
X014484Y016440D02*
X015535Y016440D01*
X015612Y016342D02*
X014594Y016342D01*
X014651Y016243D02*
X019691Y016243D01*
X019778Y016145D02*
X014668Y016145D01*
X014655Y016046D02*
X016378Y016046D01*
X016280Y015948D02*
X014605Y015948D01*
X014468Y015849D02*
X016254Y015849D01*
X016254Y015751D02*
X013921Y015751D01*
X013921Y015652D02*
X016333Y015652D01*
X016754Y015357D02*
X015556Y015357D01*
X015489Y015258D02*
X016758Y015258D01*
X016857Y015160D02*
X014641Y015160D01*
X014609Y015129D02*
X014744Y015263D01*
X014744Y015453D01*
X014609Y015587D01*
X014419Y015587D01*
X014285Y015453D01*
X014285Y015263D01*
X014419Y015129D01*
X014609Y015129D01*
X014739Y015258D02*
X015165Y015258D01*
X015098Y015357D02*
X014744Y015357D01*
X014741Y015455D02*
X015098Y015455D01*
X015136Y015554D02*
X014643Y015554D01*
X014386Y015554D02*
X013921Y015554D01*
X013921Y015455D02*
X014287Y015455D01*
X014285Y015357D02*
X013921Y015357D01*
X013921Y015258D02*
X014290Y015258D01*
X014388Y015160D02*
X013921Y015160D01*
X013921Y015061D02*
X015706Y015061D01*
X015607Y014963D02*
X013921Y014963D01*
X013921Y014864D02*
X015598Y014864D01*
X015598Y014766D02*
X013921Y014766D01*
X013921Y014667D02*
X015499Y014667D01*
X015441Y014569D02*
X013921Y014569D01*
X013921Y014470D02*
X014927Y014470D01*
X014829Y014372D02*
X013921Y014372D01*
X013671Y014372D02*
X011633Y014372D01*
X011633Y014470D02*
X012171Y014470D01*
X012201Y014441D02*
X012066Y014576D01*
X012066Y014766D01*
X012201Y014900D01*
X012391Y014900D01*
X012525Y014766D01*
X013671Y014766D01*
X013671Y014864D02*
X012426Y014864D01*
X012525Y014766D02*
X012525Y014576D01*
X012391Y014441D01*
X012201Y014441D01*
X012073Y014569D02*
X011633Y014569D01*
X011633Y014667D02*
X012066Y014667D01*
X012067Y014766D02*
X011633Y014766D01*
X011633Y014864D02*
X012165Y014864D01*
X012525Y014667D02*
X013671Y014667D01*
X013671Y014569D02*
X012518Y014569D01*
X012420Y014470D02*
X013671Y014470D01*
X013671Y014273D02*
X011633Y014273D01*
X011633Y014175D02*
X013671Y014175D01*
X013671Y014076D02*
X011633Y014076D01*
X011633Y013978D02*
X013671Y013978D01*
X013671Y013879D02*
X011633Y013879D01*
X011633Y013781D02*
X012363Y013781D01*
X012419Y013837D02*
X012285Y013703D01*
X012285Y013513D01*
X012419Y013379D01*
X012609Y013379D01*
X012744Y013513D01*
X012744Y013703D01*
X012609Y013837D01*
X012419Y013837D01*
X012285Y013682D02*
X011633Y013682D01*
X011633Y013584D02*
X012285Y013584D01*
X012313Y013485D02*
X011633Y013485D01*
X011633Y013387D02*
X012411Y013387D01*
X012618Y013387D02*
X013671Y013387D01*
X013671Y013485D02*
X012716Y013485D01*
X012744Y013584D02*
X013671Y013584D01*
X013671Y013682D02*
X012744Y013682D01*
X012666Y013781D02*
X013671Y013781D01*
X013921Y013781D02*
X014017Y013781D01*
X014004Y013879D02*
X013921Y013879D01*
X013921Y013978D02*
X013945Y013978D01*
X014298Y014273D02*
X014816Y014273D01*
X014816Y014175D02*
X014337Y014175D01*
X014370Y014076D02*
X014909Y014076D01*
X015182Y014076D02*
X016347Y014076D01*
X016285Y014138D02*
X016419Y014004D01*
X016609Y014004D01*
X016744Y014138D01*
X016744Y014328D01*
X016609Y014462D01*
X016419Y014462D01*
X016285Y014328D01*
X016285Y014138D01*
X016285Y014175D02*
X015624Y014175D01*
X015681Y014273D02*
X016285Y014273D01*
X016329Y014372D02*
X015853Y014372D01*
X015900Y014470D02*
X019490Y014470D01*
X019513Y014494D02*
X019379Y014359D01*
X019379Y014169D01*
X019513Y014035D01*
X019703Y014035D01*
X019837Y014169D01*
X019837Y014359D01*
X019703Y014494D01*
X019513Y014494D01*
X019391Y014372D02*
X016700Y014372D01*
X016744Y014273D02*
X017512Y014273D01*
X017544Y014306D02*
X017410Y014172D01*
X017410Y013982D01*
X017544Y013848D01*
X017734Y013848D01*
X017869Y013982D01*
X017869Y014172D01*
X017734Y014306D01*
X017544Y014306D01*
X017413Y014175D02*
X016744Y014175D01*
X016682Y014076D02*
X017410Y014076D01*
X017414Y013978D02*
X014462Y013978D01*
X014462Y013879D02*
X017512Y013879D01*
X017576Y013806D02*
X017441Y013672D01*
X017441Y013482D01*
X017576Y013348D01*
X017766Y013348D01*
X017827Y013409D01*
X017857Y013379D01*
X018047Y013379D01*
X018181Y013513D01*
X018181Y013604D01*
X018309Y013732D01*
X018309Y013922D01*
X018175Y014056D01*
X017985Y014056D01*
X017851Y013922D01*
X017851Y013831D01*
X017796Y013776D01*
X017766Y013806D01*
X017576Y013806D01*
X017550Y013781D02*
X014449Y013781D01*
X014351Y013682D02*
X016921Y013682D01*
X016982Y013744D02*
X016848Y013609D01*
X016848Y013419D01*
X016867Y013400D01*
X016857Y013400D01*
X016723Y013266D01*
X016723Y013076D01*
X016857Y012941D01*
X017047Y012941D01*
X017181Y013076D01*
X017181Y013266D01*
X017162Y013285D01*
X017172Y013285D01*
X017306Y013419D01*
X017306Y013609D01*
X017172Y013744D01*
X016982Y013744D01*
X016848Y013584D02*
X013921Y013584D01*
X013921Y013682D02*
X014116Y013682D01*
X013921Y013485D02*
X016848Y013485D01*
X016844Y013387D02*
X013921Y013387D01*
X013921Y013288D02*
X016745Y013288D01*
X016723Y013190D02*
X013921Y013190D01*
X013921Y013091D02*
X016080Y013091D01*
X016035Y013047D02*
X016035Y012857D01*
X016169Y012723D01*
X016359Y012723D01*
X016494Y012857D01*
X016494Y013047D01*
X016359Y013181D01*
X016169Y013181D01*
X016035Y013047D01*
X016035Y012993D02*
X013921Y012993D01*
X013921Y012894D02*
X016035Y012894D01*
X016096Y012796D02*
X013921Y012796D01*
X013921Y012697D02*
X017976Y012697D01*
X017941Y012732D02*
X018076Y012598D01*
X018266Y012598D01*
X018400Y012732D01*
X018400Y012922D01*
X018266Y013056D01*
X018076Y013056D01*
X017941Y012922D01*
X017941Y012732D01*
X017941Y012796D02*
X016433Y012796D01*
X016494Y012894D02*
X017941Y012894D01*
X018012Y012993D02*
X017099Y012993D01*
X017181Y013091D02*
X019269Y013091D01*
X019294Y013066D02*
X019160Y013201D01*
X019160Y013391D01*
X019294Y013525D01*
X019473Y013525D01*
X019473Y013547D01*
X019607Y013681D01*
X019797Y013681D01*
X019931Y013547D01*
X019931Y013357D01*
X019797Y013223D01*
X019619Y013223D01*
X019619Y013201D01*
X019484Y013066D01*
X019294Y013066D01*
X019171Y013190D02*
X017181Y013190D01*
X017175Y013288D02*
X018322Y013288D01*
X018357Y013254D02*
X018547Y013254D01*
X018681Y013388D01*
X018681Y013578D01*
X018547Y013712D01*
X018357Y013712D01*
X018223Y013578D01*
X018223Y013388D01*
X018357Y013254D01*
X018224Y013387D02*
X018055Y013387D01*
X018154Y013485D02*
X018223Y013485D01*
X018228Y013584D02*
X018181Y013584D01*
X018260Y013682D02*
X018327Y013682D01*
X018309Y013781D02*
X019879Y013781D01*
X019879Y013797D02*
X019879Y013607D01*
X020013Y013473D01*
X020203Y013473D01*
X020337Y013607D01*
X020337Y013797D01*
X020203Y013931D01*
X020013Y013931D01*
X019879Y013797D01*
X019879Y013682D02*
X018577Y013682D01*
X018675Y013584D02*
X019510Y013584D01*
X019255Y013485D02*
X018681Y013485D01*
X018680Y013387D02*
X019160Y013387D01*
X019160Y013288D02*
X018582Y013288D01*
X018329Y012993D02*
X020785Y012993D01*
X020785Y013004D02*
X020785Y012919D01*
X020919Y012785D01*
X021004Y012785D01*
X021004Y012763D01*
X021138Y012629D01*
X021328Y012629D01*
X021462Y012763D01*
X021462Y012953D01*
X021328Y013087D01*
X021244Y013087D01*
X021244Y013109D01*
X021109Y013244D01*
X021025Y013244D01*
X021025Y013328D01*
X020891Y013462D01*
X020806Y013462D01*
X020806Y013547D01*
X020672Y013681D01*
X020482Y013681D01*
X020348Y013547D01*
X020348Y013357D01*
X020482Y013223D01*
X020566Y013223D01*
X020566Y013138D01*
X020701Y013004D01*
X020785Y013004D01*
X020810Y012894D02*
X018400Y012894D01*
X018400Y012796D02*
X020908Y012796D01*
X021069Y012697D02*
X018366Y012697D01*
X018267Y012599D02*
X022118Y012599D01*
X022138Y012619D02*
X022004Y012484D01*
X022004Y012294D01*
X022138Y012160D01*
X022328Y012160D01*
X022462Y012294D01*
X022462Y012484D01*
X022328Y012619D01*
X022138Y012619D01*
X022020Y012500D02*
X015321Y012500D01*
X015369Y012453D02*
X015234Y012587D01*
X015044Y012587D01*
X014910Y012453D01*
X014910Y012263D01*
X015044Y012129D01*
X015234Y012129D01*
X015369Y012263D01*
X015369Y012453D01*
X015369Y012402D02*
X022004Y012402D01*
X022004Y012303D02*
X015369Y012303D01*
X015311Y012205D02*
X022093Y012205D01*
X022373Y012205D02*
X023173Y012205D01*
X023173Y012106D02*
X013921Y012106D01*
X013921Y012008D02*
X023173Y012008D01*
X023173Y011909D02*
X013921Y011909D01*
X013921Y011811D02*
X018862Y011811D01*
X018888Y011837D02*
X018754Y011703D01*
X018754Y011513D01*
X018888Y011379D01*
X019078Y011379D01*
X019212Y011513D01*
X019212Y011703D01*
X019078Y011837D01*
X018888Y011837D01*
X018763Y011712D02*
X013921Y011712D01*
X013921Y011614D02*
X017508Y011614D01*
X017544Y011650D02*
X017410Y011516D01*
X017410Y011326D01*
X017544Y011191D01*
X017734Y011191D01*
X017869Y011326D01*
X017869Y011516D01*
X017734Y011650D01*
X017544Y011650D01*
X017410Y011515D02*
X013921Y011515D01*
X014124Y011417D02*
X017410Y011417D01*
X017417Y011318D02*
X014212Y011318D01*
X014212Y011220D02*
X017516Y011220D01*
X017763Y011220D02*
X020754Y011220D01*
X020754Y011169D02*
X020888Y011035D01*
X020941Y011035D01*
X020941Y010857D01*
X021076Y010723D01*
X021266Y010723D01*
X021400Y010857D01*
X021400Y011047D01*
X021266Y011181D01*
X021212Y011181D01*
X021212Y011359D01*
X021089Y011483D01*
X021181Y011576D01*
X021181Y011766D01*
X021047Y011900D01*
X020857Y011900D01*
X020723Y011766D01*
X020723Y011724D01*
X020703Y011744D01*
X020513Y011744D01*
X020379Y011609D01*
X020379Y011419D01*
X020513Y011285D01*
X020703Y011285D01*
X020754Y011336D01*
X020754Y011169D01*
X020802Y011121D02*
X018419Y011121D01*
X018462Y011078D02*
X018328Y011212D01*
X018138Y011212D01*
X018004Y011078D01*
X018004Y010888D01*
X018138Y010754D01*
X018328Y010754D01*
X018462Y010888D01*
X018462Y011078D01*
X018462Y011023D02*
X018949Y011023D01*
X018910Y010984D02*
X018910Y010794D01*
X019044Y010660D01*
X019234Y010660D01*
X019369Y010794D01*
X019369Y010984D01*
X019234Y011119D01*
X019044Y011119D01*
X018910Y010984D01*
X018910Y010924D02*
X018462Y010924D01*
X018400Y010826D02*
X018910Y010826D01*
X018977Y010727D02*
X016614Y010727D01*
X016547Y010660D02*
X016681Y010794D01*
X016681Y010984D01*
X016547Y011119D01*
X016357Y011119D01*
X016223Y010984D01*
X016223Y010794D01*
X016357Y010660D01*
X016547Y010660D01*
X016681Y010826D02*
X018066Y010826D01*
X018004Y010924D02*
X016681Y010924D01*
X016643Y011023D02*
X018004Y011023D01*
X018047Y011121D02*
X014196Y011121D01*
X014097Y011023D02*
X016261Y011023D01*
X016223Y010924D02*
X013921Y010924D01*
X013921Y010826D02*
X016223Y010826D01*
X016289Y010727D02*
X013921Y010727D01*
X013921Y010629D02*
X023173Y010629D01*
X023173Y010727D02*
X023114Y010727D01*
X022914Y010727D02*
X022646Y010727D01*
X022641Y010723D02*
X022775Y010857D01*
X022775Y011047D01*
X022641Y011181D01*
X022451Y011181D01*
X022316Y011047D01*
X022316Y010857D01*
X022451Y010723D01*
X022641Y010723D01*
X022744Y010826D02*
X022816Y010826D01*
X022785Y010924D02*
X022775Y010924D01*
X022775Y011023D02*
X022785Y011023D01*
X022860Y011121D02*
X022700Y011121D01*
X022859Y011220D02*
X021212Y011220D01*
X021212Y011318D02*
X022785Y011318D01*
X022785Y011417D02*
X021155Y011417D01*
X021121Y011515D02*
X022816Y011515D01*
X022915Y011614D02*
X021181Y011614D01*
X021181Y011712D02*
X023173Y011712D01*
X023173Y011614D02*
X023114Y011614D01*
X023173Y011811D02*
X021136Y011811D01*
X020768Y011811D02*
X019105Y011811D01*
X019203Y011712D02*
X020482Y011712D01*
X020383Y011614D02*
X019212Y011614D01*
X019212Y011515D02*
X020379Y011515D01*
X020381Y011417D02*
X019116Y011417D01*
X018850Y011417D02*
X017869Y011417D01*
X017869Y011515D02*
X018754Y011515D01*
X018754Y011614D02*
X017770Y011614D01*
X017862Y011318D02*
X020480Y011318D01*
X020737Y011318D02*
X020754Y011318D01*
X020941Y011023D02*
X019330Y011023D01*
X019369Y010924D02*
X020941Y010924D01*
X020972Y010826D02*
X019369Y010826D01*
X019302Y010727D02*
X021071Y010727D01*
X021271Y010727D02*
X022446Y010727D01*
X022347Y010826D02*
X021369Y010826D01*
X021400Y010924D02*
X022316Y010924D01*
X022316Y011023D02*
X021400Y011023D01*
X021325Y011121D02*
X022391Y011121D01*
X023173Y010530D02*
X018385Y010530D01*
X018328Y010587D02*
X018138Y010587D01*
X018004Y010453D01*
X018004Y010263D01*
X018138Y010129D01*
X018328Y010129D01*
X018462Y010263D01*
X018462Y010453D01*
X018328Y010587D01*
X018462Y010432D02*
X023173Y010432D01*
X023173Y010333D02*
X018462Y010333D01*
X018434Y010235D02*
X023173Y010235D01*
X023173Y010136D02*
X018336Y010136D01*
X018297Y010056D02*
X018107Y010056D01*
X017973Y009922D01*
X017973Y009732D01*
X018107Y009598D01*
X018297Y009598D01*
X018431Y009732D01*
X018431Y009922D01*
X018297Y010056D01*
X018315Y010038D02*
X023173Y010038D01*
X023173Y009939D02*
X018414Y009939D01*
X018431Y009841D02*
X018735Y009841D01*
X018794Y009900D02*
X018660Y009766D01*
X018660Y009576D01*
X018794Y009441D01*
X018816Y009441D01*
X018816Y009294D01*
X018951Y009160D01*
X019138Y009160D01*
X019263Y009035D01*
X019453Y009035D01*
X019587Y009169D01*
X019587Y009191D01*
X019629Y009191D01*
X019629Y009107D01*
X019763Y008973D01*
X019953Y008973D01*
X020078Y009098D01*
X020169Y009098D01*
X020294Y008973D01*
X020484Y008973D01*
X020609Y009098D01*
X020734Y009098D01*
X020869Y009232D01*
X020869Y009422D01*
X020734Y009556D01*
X020544Y009556D01*
X020419Y009431D01*
X020359Y009431D01*
X020234Y009556D01*
X020044Y009556D01*
X019919Y009431D01*
X019837Y009431D01*
X019837Y009516D01*
X019703Y009650D01*
X019513Y009650D01*
X019379Y009516D01*
X019379Y009494D01*
X019266Y009494D01*
X019141Y009619D01*
X019119Y009619D01*
X019119Y009766D01*
X018984Y009900D01*
X018794Y009900D01*
X018660Y009742D02*
X018431Y009742D01*
X018343Y009644D02*
X018660Y009644D01*
X018690Y009545D02*
X017775Y009545D01*
X017775Y009482D02*
X017775Y009672D01*
X017641Y009806D01*
X017451Y009806D01*
X017316Y009672D01*
X017316Y009482D01*
X017440Y009358D01*
X017436Y009354D01*
X017391Y009400D01*
X017201Y009400D01*
X017066Y009266D01*
X017066Y009076D01*
X017201Y008941D01*
X017391Y008941D01*
X017467Y009018D01*
X017513Y008973D01*
X017703Y008973D01*
X017837Y009107D01*
X017837Y009297D01*
X017714Y009421D01*
X017775Y009482D01*
X017740Y009447D02*
X018789Y009447D01*
X018816Y009348D02*
X018442Y009348D01*
X018422Y009369D02*
X018232Y009369D01*
X018098Y009234D01*
X018098Y009044D01*
X018232Y008910D01*
X018422Y008910D01*
X018556Y009044D01*
X018556Y009234D01*
X018422Y009369D01*
X018541Y009250D02*
X018861Y009250D01*
X019147Y009151D02*
X018556Y009151D01*
X018556Y009053D02*
X019245Y009053D01*
X019471Y009053D02*
X019683Y009053D01*
X019629Y009151D02*
X019570Y009151D01*
X019837Y009447D02*
X019935Y009447D01*
X020034Y009545D02*
X019808Y009545D01*
X019709Y009644D02*
X021101Y009644D01*
X021107Y009650D02*
X020973Y009516D01*
X020973Y009326D01*
X021107Y009191D01*
X021297Y009191D01*
X021431Y009326D01*
X021431Y009516D01*
X021297Y009650D01*
X021107Y009650D01*
X021002Y009545D02*
X020745Y009545D01*
X020844Y009447D02*
X020973Y009447D01*
X020973Y009348D02*
X020869Y009348D01*
X020869Y009250D02*
X021048Y009250D01*
X020788Y009151D02*
X021608Y009151D01*
X021669Y009212D02*
X021535Y009078D01*
X021535Y008888D01*
X021554Y008869D01*
X021388Y008869D01*
X021254Y008734D01*
X021254Y008544D01*
X021388Y008410D01*
X021578Y008410D01*
X021712Y008544D01*
X021712Y008734D01*
X021693Y008754D01*
X021859Y008754D01*
X021994Y008888D01*
X021994Y009078D01*
X021859Y009212D01*
X021669Y009212D01*
X021535Y009053D02*
X020565Y009053D01*
X020214Y009053D02*
X020034Y009053D01*
X020344Y009447D02*
X020435Y009447D01*
X020534Y009545D02*
X020245Y009545D01*
X019507Y009644D02*
X019119Y009644D01*
X019119Y009742D02*
X023173Y009742D01*
X023173Y009644D02*
X021303Y009644D01*
X021401Y009545D02*
X023173Y009545D01*
X023173Y009447D02*
X021431Y009447D01*
X021431Y009348D02*
X023173Y009348D01*
X023093Y009250D02*
X022416Y009250D01*
X022462Y009203D02*
X022328Y009337D01*
X022138Y009337D01*
X022004Y009203D01*
X022004Y009013D01*
X022138Y008879D01*
X022328Y008879D01*
X022462Y009013D01*
X022462Y009203D01*
X022462Y009151D02*
X022994Y009151D01*
X022896Y009053D02*
X022462Y009053D01*
X022404Y008954D02*
X022797Y008954D01*
X022699Y008856D02*
X021962Y008856D01*
X021994Y008954D02*
X022062Y008954D01*
X022004Y009053D02*
X021994Y009053D01*
X022004Y009151D02*
X021920Y009151D01*
X022051Y009250D02*
X021356Y009250D01*
X021535Y008954D02*
X018466Y008954D01*
X018187Y008954D02*
X017404Y008954D01*
X017187Y008954D02*
X015680Y008954D01*
X015672Y008962D02*
X015482Y008962D01*
X015348Y008828D01*
X015348Y008638D01*
X015482Y008504D01*
X015672Y008504D01*
X015806Y008638D01*
X015806Y008828D01*
X015672Y008962D01*
X015778Y008856D02*
X021375Y008856D01*
X021277Y008757D02*
X015806Y008757D01*
X015806Y008659D02*
X021254Y008659D01*
X021254Y008560D02*
X015729Y008560D01*
X015425Y008560D02*
X014244Y008560D01*
X014244Y008462D02*
X018544Y008462D01*
X018410Y008328D01*
X018410Y008138D01*
X018544Y008004D01*
X018734Y008004D01*
X018869Y008138D01*
X018869Y008328D01*
X018734Y008462D01*
X018544Y008462D01*
X018445Y008363D02*
X014188Y008363D01*
X014076Y008265D02*
X015878Y008265D01*
X015780Y008166D02*
X014175Y008166D01*
X014273Y008068D02*
X015754Y008068D01*
X015754Y007969D02*
X014372Y007969D01*
X014194Y007772D02*
X014097Y007772D01*
X014119Y007794D02*
X014119Y007848D01*
X014296Y007671D01*
X015548Y007671D01*
X015548Y007670D01*
X015548Y007546D01*
X015595Y007433D01*
X015783Y007245D01*
X015870Y007158D01*
X015984Y007111D01*
X021764Y007111D01*
X021877Y007158D01*
X023596Y008877D01*
X023659Y008939D01*
X023746Y009026D01*
X023793Y009140D01*
X023793Y009356D01*
X023858Y009421D01*
X023858Y014546D01*
X023669Y014734D01*
X023683Y014732D01*
X023683Y015089D01*
X023783Y015089D01*
X023783Y014732D01*
X023829Y014739D01*
X023891Y014759D01*
X023948Y014789D01*
X024000Y014827D01*
X024046Y014872D01*
X024084Y014924D01*
X024113Y014982D01*
X024133Y015043D01*
X024140Y015089D01*
X023783Y015089D01*
X023783Y015189D01*
X024140Y015189D01*
X024133Y015235D01*
X024113Y015297D01*
X024084Y015354D01*
X024046Y015406D01*
X024000Y015452D01*
X023948Y015490D01*
X023891Y015519D01*
X023829Y015539D01*
X023783Y015547D01*
X023783Y015189D01*
X023683Y015189D01*
X023683Y015547D01*
X023637Y015539D01*
X023576Y015519D01*
X023518Y015490D01*
X023466Y015452D01*
X023421Y015407D01*
X023421Y015815D01*
X023478Y015758D01*
X023644Y015689D01*
X023823Y015689D01*
X023988Y015758D01*
X024115Y015884D01*
X024183Y016050D01*
X024183Y016229D01*
X024115Y016394D01*
X023988Y016521D01*
X023823Y016589D01*
X023808Y016589D01*
X023858Y016639D01*
X023858Y017143D01*
X023885Y017123D01*
X023887Y017115D01*
X023917Y017099D01*
X023944Y017078D01*
X023952Y017079D01*
X024027Y017039D01*
X024030Y017031D01*
X024063Y017019D01*
X024093Y017003D01*
X024100Y017005D01*
X024180Y016975D01*
X024185Y016968D01*
X024212Y016962D01*
X024201Y016962D01*
X024066Y016828D01*
X024066Y016638D01*
X024201Y016504D01*
X024391Y016504D01*
X024525Y016638D01*
X024525Y016828D01*
X024431Y016922D01*
X024501Y016917D01*
X024504Y016914D01*
X024542Y016914D01*
X024580Y016912D01*
X024583Y016914D01*
X025506Y016914D01*
X025506Y007302D01*
X025126Y007302D01*
X025244Y007419D01*
X025244Y007609D01*
X025109Y007744D01*
X024919Y007744D01*
X024785Y007609D01*
X024785Y007419D01*
X024902Y007302D01*
X024615Y007302D01*
X024612Y007304D01*
X024574Y007302D01*
X024535Y007302D01*
X024533Y007300D01*
X024446Y007295D01*
X024440Y007299D01*
X024406Y007292D01*
X024372Y007290D01*
X024366Y007284D01*
X024276Y007266D01*
X024269Y007269D01*
X024237Y007258D01*
X024203Y007251D01*
X024199Y007244D01*
X024112Y007213D01*
X024105Y007216D01*
X024074Y007200D01*
X024042Y007188D01*
X024038Y007181D01*
X023957Y007138D01*
X023949Y007139D01*
X023922Y007119D01*
X023891Y007103D01*
X023889Y007096D01*
X023815Y007042D01*
X023807Y007042D01*
X023782Y007018D01*
X023754Y006998D01*
X023753Y006990D01*
X023687Y006926D01*
X023679Y006925D01*
X023658Y006898D01*
X023634Y006874D01*
X023634Y006865D01*
X023578Y006793D01*
X023570Y006791D01*
X023553Y006761D01*
X023532Y006734D01*
X023533Y006726D01*
X023488Y006646D01*
X023480Y006642D01*
X023468Y006610D01*
X023451Y006581D01*
X023453Y006573D01*
X023420Y006487D01*
X023413Y006483D01*
X023405Y006450D01*
X023393Y006418D01*
X023396Y006410D01*
X023376Y006321D01*
X023369Y006316D01*
X023366Y006282D01*
X023359Y006248D01*
X023363Y006241D01*
X023355Y006151D01*
X023351Y006147D01*
X023352Y006111D01*
X023349Y006075D01*
X023353Y006070D01*
X023378Y005164D01*
X013989Y005164D01*
X014087Y005263D01*
X014087Y005453D01*
X013953Y005587D01*
X013771Y005587D01*
X013771Y006071D01*
X013773Y006074D01*
X013771Y006112D01*
X013771Y006150D01*
X013768Y006152D01*
X013762Y006238D01*
X013766Y006245D01*
X013759Y006278D01*
X013758Y006290D01*
X013763Y006285D01*
X013953Y006285D01*
X014087Y006419D01*
X014087Y006609D01*
X013953Y006744D01*
X013763Y006744D01*
X013652Y006633D01*
X013651Y006636D01*
X013644Y006640D01*
X013601Y006718D01*
X013602Y006726D01*
X013581Y006754D01*
X013565Y006784D01*
X013557Y006786D01*
X013503Y006858D01*
X013503Y006866D01*
X013479Y006890D01*
X013459Y006917D01*
X013451Y006919D01*
X013387Y006982D01*
X013386Y006990D01*
X013359Y007010D01*
X013335Y007035D01*
X013326Y007035D01*
X013255Y007088D01*
X013252Y007096D01*
X013222Y007113D01*
X013195Y007133D01*
X013187Y007132D01*
X013108Y007175D01*
X013105Y007182D01*
X013073Y007194D01*
X013043Y007211D01*
X013035Y007208D01*
X012951Y007240D01*
X012947Y007246D01*
X012913Y007254D01*
X012881Y007266D01*
X012874Y007262D01*
X012786Y007281D01*
X012781Y007288D01*
X012747Y007290D01*
X012713Y007297D01*
X012706Y007293D01*
X012621Y007299D01*
X012618Y007302D01*
X012580Y007302D01*
X012543Y007305D01*
X012540Y007302D01*
X011633Y007302D01*
X011633Y007446D01*
X011763Y007316D01*
X011953Y007316D01*
X012087Y007451D01*
X012087Y007641D01*
X011953Y007775D01*
X011763Y007775D01*
X011633Y007645D01*
X011633Y016914D01*
X012539Y016914D01*
X012541Y016912D01*
X012580Y016914D01*
X012618Y016914D01*
X012621Y016917D01*
X012703Y016921D01*
X012710Y016917D01*
X012743Y016924D01*
X012778Y016926D01*
X012783Y016932D01*
X012868Y016949D01*
X012876Y016946D01*
X012908Y016957D01*
X012942Y016964D01*
X012946Y016971D01*
X013028Y017000D01*
X013036Y016998D01*
X013066Y017014D01*
X013099Y017025D01*
X013102Y017032D01*
X013179Y017073D01*
X013187Y017072D01*
X013215Y017092D01*
X013246Y017108D01*
X013248Y017116D01*
X013319Y017167D01*
X013327Y017167D01*
X013351Y017191D01*
X013379Y017211D01*
X013380Y017219D01*
X013443Y017280D01*
X013451Y017281D01*
X013472Y017308D01*
X013496Y017332D01*
X013497Y017340D01*
X013550Y017409D01*
X013558Y017411D01*
X013575Y017441D01*
X013596Y017468D01*
X013594Y017476D01*
X013637Y017552D01*
X013645Y017556D01*
X013657Y017587D01*
X013671Y017611D01*
X013671Y008296D01*
X013848Y008119D01*
X013794Y008119D01*
X013660Y007984D01*
X013660Y007794D01*
X013794Y007660D01*
X013984Y007660D01*
X014119Y007794D01*
X013998Y007674D02*
X014292Y007674D01*
X013780Y007674D02*
X012054Y007674D01*
X012087Y007575D02*
X015548Y007575D01*
X015577Y007477D02*
X012087Y007477D01*
X012015Y007378D02*
X015649Y007378D01*
X015748Y007280D02*
X012793Y007280D01*
X013105Y007181D02*
X015846Y007181D01*
X015783Y007245D02*
X015783Y007245D01*
X016556Y007969D02*
X017985Y007969D01*
X017941Y008068D02*
X016556Y008068D01*
X016530Y008166D02*
X017941Y008166D01*
X018003Y008265D02*
X016432Y008265D01*
X016222Y008265D02*
X016088Y008265D01*
X015348Y008659D02*
X014194Y008659D01*
X014113Y008757D02*
X015348Y008757D01*
X015375Y008856D02*
X014212Y008856D01*
X014244Y008954D02*
X015474Y008954D01*
X015262Y009250D02*
X016504Y009250D01*
X016504Y009297D02*
X016504Y009107D01*
X016638Y008973D01*
X016828Y008973D01*
X016962Y009107D01*
X016962Y009297D01*
X016828Y009431D01*
X016638Y009431D01*
X016504Y009297D01*
X016453Y009285D02*
X016587Y009419D01*
X016587Y009609D01*
X016453Y009744D01*
X016263Y009744D01*
X016129Y009609D01*
X016129Y009419D01*
X016263Y009285D01*
X016453Y009285D01*
X016517Y009348D02*
X016555Y009348D01*
X016587Y009447D02*
X017351Y009447D01*
X017316Y009545D02*
X016587Y009545D01*
X016553Y009644D02*
X017316Y009644D01*
X017387Y009742D02*
X016454Y009742D01*
X016422Y009910D02*
X016556Y010044D01*
X016556Y010234D01*
X016422Y010369D01*
X016232Y010369D01*
X016202Y010339D01*
X016172Y010369D01*
X015982Y010369D01*
X015848Y010234D01*
X015848Y010044D01*
X015982Y009910D01*
X016172Y009910D01*
X016202Y009940D01*
X016232Y009910D01*
X016422Y009910D01*
X016451Y009939D02*
X016629Y009939D01*
X016629Y009919D02*
X016763Y009785D01*
X016953Y009785D01*
X017087Y009919D01*
X017087Y010098D01*
X017266Y010098D01*
X017400Y010232D01*
X017400Y010422D01*
X017266Y010556D01*
X017076Y010556D01*
X016941Y010422D01*
X016941Y010244D01*
X016763Y010244D01*
X016629Y010109D01*
X016629Y009919D01*
X016707Y009841D02*
X013921Y009841D01*
X013921Y009939D02*
X015952Y009939D01*
X015854Y010038D02*
X013921Y010038D01*
X013921Y010136D02*
X015848Y010136D01*
X015848Y010235D02*
X013921Y010235D01*
X013921Y010333D02*
X015947Y010333D01*
X016457Y010333D02*
X016941Y010333D01*
X016951Y010432D02*
X013921Y010432D01*
X013921Y010530D02*
X017050Y010530D01*
X017291Y010530D02*
X018081Y010530D01*
X018004Y010432D02*
X017390Y010432D01*
X017400Y010333D02*
X018004Y010333D01*
X018032Y010235D02*
X017400Y010235D01*
X017305Y010136D02*
X018130Y010136D01*
X018089Y010038D02*
X017087Y010038D01*
X017087Y009939D02*
X017990Y009939D01*
X017973Y009841D02*
X017009Y009841D01*
X016629Y010038D02*
X016550Y010038D01*
X016556Y010136D02*
X016656Y010136D01*
X016754Y010235D02*
X016556Y010235D01*
X016202Y009939D02*
X016201Y009939D01*
X016262Y009742D02*
X013921Y009742D01*
X013921Y009644D02*
X016163Y009644D01*
X016129Y009545D02*
X015245Y009545D01*
X015306Y009484D02*
X015172Y009619D01*
X014982Y009619D01*
X014848Y009484D01*
X014848Y009294D01*
X014982Y009160D01*
X015172Y009160D01*
X015306Y009294D01*
X015306Y009484D01*
X015306Y009447D02*
X016129Y009447D01*
X016200Y009348D02*
X015306Y009348D01*
X014892Y009250D02*
X014744Y009250D01*
X014744Y009328D02*
X014744Y009138D01*
X014609Y009004D01*
X014419Y009004D01*
X014285Y009138D01*
X014285Y009328D01*
X014419Y009462D01*
X014609Y009462D01*
X014744Y009328D01*
X014723Y009348D02*
X014848Y009348D01*
X014848Y009447D02*
X014625Y009447D01*
X014404Y009447D02*
X013921Y009447D01*
X013921Y009545D02*
X014909Y009545D01*
X014744Y009151D02*
X016504Y009151D01*
X016558Y009053D02*
X014659Y009053D01*
X014370Y009053D02*
X014244Y009053D01*
X014244Y009151D02*
X014285Y009151D01*
X014285Y009250D02*
X014244Y009250D01*
X014192Y009348D02*
X014305Y009348D01*
X013671Y009348D02*
X011633Y009348D01*
X011633Y009250D02*
X013671Y009250D01*
X013671Y009151D02*
X011633Y009151D01*
X011633Y009053D02*
X013671Y009053D01*
X013671Y008954D02*
X011633Y008954D01*
X011633Y008856D02*
X013671Y008856D01*
X013671Y008757D02*
X011633Y008757D01*
X011633Y008659D02*
X013671Y008659D01*
X013671Y008560D02*
X011633Y008560D01*
X011633Y008462D02*
X013671Y008462D01*
X013671Y008363D02*
X011633Y008363D01*
X011633Y008265D02*
X013701Y008265D01*
X013800Y008166D02*
X011633Y008166D01*
X011633Y008068D02*
X013744Y008068D01*
X013660Y007969D02*
X011633Y007969D01*
X011633Y007871D02*
X013660Y007871D01*
X013682Y007772D02*
X011956Y007772D01*
X011761Y007772D02*
X011633Y007772D01*
X011633Y007674D02*
X011662Y007674D01*
X011633Y007378D02*
X011701Y007378D01*
X013262Y007083D02*
X022316Y007083D01*
X022316Y007141D02*
X022316Y006951D01*
X022451Y006816D01*
X022641Y006816D01*
X022775Y006951D01*
X022775Y007141D01*
X022641Y007275D01*
X022451Y007275D01*
X022316Y007141D01*
X022357Y007181D02*
X021901Y007181D01*
X022000Y007280D02*
X023987Y007280D01*
X024013Y007254D02*
X023879Y007388D01*
X023879Y007578D01*
X024013Y007712D01*
X024203Y007712D01*
X024337Y007578D01*
X024337Y007388D01*
X024203Y007254D01*
X024013Y007254D01*
X024039Y007181D02*
X022734Y007181D01*
X022775Y007083D02*
X023871Y007083D01*
X023748Y006984D02*
X022775Y006984D01*
X022710Y006886D02*
X023093Y006886D01*
X023138Y006931D02*
X023004Y006797D01*
X023004Y006607D01*
X023138Y006473D01*
X023328Y006473D01*
X023462Y006607D01*
X023462Y006797D01*
X023328Y006931D01*
X023138Y006931D01*
X023004Y006787D02*
X020003Y006787D01*
X020025Y006766D02*
X019891Y006900D01*
X019701Y006900D01*
X019566Y006766D01*
X019566Y006576D01*
X019701Y006441D01*
X019891Y006441D01*
X020025Y006576D01*
X020025Y006766D01*
X020025Y006689D02*
X023004Y006689D01*
X023020Y006590D02*
X020025Y006590D01*
X019941Y006492D02*
X023119Y006492D01*
X023348Y006492D02*
X023422Y006492D01*
X023446Y006590D02*
X023457Y006590D01*
X023462Y006689D02*
X023512Y006689D01*
X023462Y006787D02*
X023568Y006787D01*
X023646Y006886D02*
X023373Y006886D01*
X023888Y007378D02*
X022098Y007378D01*
X022197Y007477D02*
X023879Y007477D01*
X023879Y007575D02*
X022295Y007575D01*
X022394Y007674D02*
X023974Y007674D01*
X024242Y007674D02*
X024849Y007674D01*
X024785Y007575D02*
X024337Y007575D01*
X024337Y007477D02*
X024785Y007477D01*
X024826Y007378D02*
X024328Y007378D01*
X024345Y007280D02*
X024229Y007280D01*
X025203Y007378D02*
X025506Y007378D01*
X025506Y007477D02*
X025244Y007477D01*
X025244Y007575D02*
X025506Y007575D01*
X025506Y007674D02*
X025179Y007674D01*
X025506Y007772D02*
X022492Y007772D01*
X022591Y007871D02*
X025506Y007871D01*
X025506Y007969D02*
X022689Y007969D01*
X022788Y008068D02*
X025506Y008068D01*
X025506Y008166D02*
X022886Y008166D01*
X022985Y008265D02*
X025506Y008265D01*
X025506Y008363D02*
X023083Y008363D01*
X023182Y008462D02*
X025506Y008462D01*
X025506Y008560D02*
X023280Y008560D01*
X023379Y008659D02*
X025506Y008659D01*
X025506Y008757D02*
X023477Y008757D01*
X023576Y008856D02*
X025506Y008856D01*
X025506Y008954D02*
X023674Y008954D01*
X023757Y009053D02*
X025506Y009053D01*
X025506Y009151D02*
X023793Y009151D01*
X023793Y009250D02*
X025506Y009250D01*
X025506Y009348D02*
X024298Y009348D01*
X024266Y009316D02*
X024400Y009451D01*
X024400Y009641D01*
X024339Y009702D01*
X024400Y009763D01*
X024400Y009953D01*
X024266Y010087D01*
X024076Y010087D01*
X023941Y009953D01*
X023941Y009763D01*
X024002Y009702D01*
X023941Y009641D01*
X023941Y009451D01*
X024076Y009316D01*
X024266Y009316D01*
X024396Y009447D02*
X025506Y009447D01*
X025506Y009545D02*
X024400Y009545D01*
X024397Y009644D02*
X025506Y009644D01*
X025506Y009742D02*
X024379Y009742D01*
X024400Y009841D02*
X025506Y009841D01*
X025506Y009939D02*
X024400Y009939D01*
X024315Y010038D02*
X025506Y010038D01*
X025506Y010136D02*
X023858Y010136D01*
X023858Y010038D02*
X024026Y010038D01*
X023941Y009939D02*
X023858Y009939D01*
X023858Y009841D02*
X023941Y009841D01*
X023962Y009742D02*
X023858Y009742D01*
X023858Y009644D02*
X023945Y009644D01*
X023941Y009545D02*
X023858Y009545D01*
X023858Y009447D02*
X023945Y009447D01*
X024043Y009348D02*
X023793Y009348D01*
X023173Y009841D02*
X019043Y009841D01*
X019214Y009545D02*
X019409Y009545D01*
X018212Y009348D02*
X017786Y009348D01*
X017837Y009250D02*
X018113Y009250D01*
X018098Y009151D02*
X017837Y009151D01*
X017784Y009053D02*
X018098Y009053D01*
X018735Y008462D02*
X019013Y008462D01*
X018879Y008328D01*
X018879Y008138D01*
X019013Y008004D01*
X019203Y008004D01*
X019337Y008138D01*
X019337Y008328D01*
X019203Y008462D01*
X019013Y008462D01*
X018914Y008363D02*
X018833Y008363D01*
X018869Y008265D02*
X018879Y008265D01*
X018869Y008166D02*
X018879Y008166D01*
X018949Y008068D02*
X018799Y008068D01*
X018480Y008068D02*
X018400Y008068D01*
X018400Y008166D02*
X018410Y008166D01*
X018410Y008265D02*
X018338Y008265D01*
X018356Y007969D02*
X019676Y007969D01*
X019915Y007969D02*
X021812Y007969D01*
X021911Y008068D02*
X019267Y008068D01*
X019337Y008166D02*
X022009Y008166D01*
X022108Y008265D02*
X019337Y008265D01*
X019302Y008363D02*
X022206Y008363D01*
X022305Y008462D02*
X021630Y008462D01*
X021712Y008560D02*
X022403Y008560D01*
X022502Y008659D02*
X021712Y008659D01*
X021863Y008757D02*
X022600Y008757D01*
X021336Y008462D02*
X019204Y008462D01*
X018060Y009644D02*
X017775Y009644D01*
X017704Y009742D02*
X017973Y009742D01*
X017149Y009348D02*
X016911Y009348D01*
X016962Y009250D02*
X017066Y009250D01*
X017066Y009151D02*
X016962Y009151D01*
X016909Y009053D02*
X017089Y009053D01*
X019686Y006886D02*
X013483Y006886D01*
X013556Y006787D02*
X019588Y006787D01*
X019566Y006689D02*
X014008Y006689D01*
X014087Y006590D02*
X018985Y006590D01*
X018941Y006547D02*
X018941Y006357D01*
X019076Y006223D01*
X019266Y006223D01*
X019400Y006357D01*
X019400Y006547D01*
X019266Y006681D01*
X019076Y006681D01*
X018941Y006547D01*
X018941Y006492D02*
X014087Y006492D01*
X014062Y006393D02*
X018941Y006393D01*
X019003Y006295D02*
X013963Y006295D01*
X013765Y006196D02*
X020341Y006196D01*
X020388Y006244D02*
X020254Y006109D01*
X020254Y005919D01*
X020388Y005785D01*
X020578Y005785D01*
X020712Y005919D01*
X020712Y006109D01*
X020578Y006244D01*
X020388Y006244D01*
X020254Y006098D02*
X013772Y006098D01*
X013771Y005999D02*
X020254Y005999D01*
X020272Y005901D02*
X013771Y005901D01*
X013771Y005802D02*
X020371Y005802D01*
X020595Y005802D02*
X023360Y005802D01*
X023363Y005704D02*
X013771Y005704D01*
X013771Y005605D02*
X014875Y005605D01*
X014919Y005650D02*
X014785Y005516D01*
X014785Y005326D01*
X014919Y005191D01*
X015109Y005191D01*
X015244Y005326D01*
X015244Y005516D01*
X015109Y005650D01*
X014919Y005650D01*
X014785Y005507D02*
X014034Y005507D01*
X014087Y005408D02*
X014785Y005408D01*
X014801Y005310D02*
X014087Y005310D01*
X014036Y005211D02*
X014899Y005211D01*
X015129Y005211D02*
X023377Y005211D01*
X023374Y005310D02*
X018853Y005310D01*
X018900Y005357D02*
X018766Y005223D01*
X018576Y005223D01*
X018441Y005357D01*
X018441Y005547D01*
X018576Y005681D01*
X018766Y005681D01*
X018900Y005547D01*
X018900Y005357D01*
X018900Y005408D02*
X023371Y005408D01*
X023369Y005507D02*
X018900Y005507D01*
X018841Y005605D02*
X023366Y005605D01*
X023358Y005901D02*
X020694Y005901D01*
X020712Y005999D02*
X023355Y005999D01*
X023351Y006098D02*
X020712Y006098D01*
X020625Y006196D02*
X023359Y006196D01*
X023368Y006295D02*
X019338Y006295D01*
X019400Y006393D02*
X023392Y006393D01*
X022381Y006886D02*
X019905Y006886D01*
X019566Y006590D02*
X019356Y006590D01*
X019400Y006492D02*
X019650Y006492D01*
X018500Y005605D02*
X018091Y005605D01*
X018150Y005547D02*
X018016Y005681D01*
X017826Y005681D01*
X017691Y005547D01*
X017691Y005357D01*
X017826Y005223D01*
X018016Y005223D01*
X018150Y005357D01*
X018150Y005547D01*
X018150Y005507D02*
X018441Y005507D01*
X018441Y005408D02*
X018150Y005408D01*
X018103Y005310D02*
X018488Y005310D01*
X017738Y005310D02*
X015228Y005310D01*
X015244Y005408D02*
X017691Y005408D01*
X017691Y005507D02*
X015244Y005507D01*
X015154Y005605D02*
X017750Y005605D01*
X013708Y006689D02*
X013617Y006689D01*
X013387Y006984D02*
X022316Y006984D01*
X024076Y010160D02*
X024266Y010160D01*
X024400Y010294D01*
X024400Y010484D01*
X024266Y010619D01*
X024076Y010619D01*
X023941Y010484D01*
X023941Y010294D01*
X024076Y010160D01*
X024001Y010235D02*
X023858Y010235D01*
X023858Y010333D02*
X023941Y010333D01*
X023941Y010432D02*
X023858Y010432D01*
X023858Y010530D02*
X023987Y010530D01*
X024076Y010660D02*
X023941Y010794D01*
X023941Y010984D01*
X024076Y011119D01*
X024266Y011119D01*
X024400Y010984D01*
X024400Y010794D01*
X024266Y010660D01*
X024076Y010660D01*
X024008Y010727D02*
X023858Y010727D01*
X023858Y010629D02*
X025506Y010629D01*
X025506Y010727D02*
X024333Y010727D01*
X024400Y010826D02*
X025506Y010826D01*
X025506Y010924D02*
X024400Y010924D01*
X024361Y011023D02*
X025506Y011023D01*
X025506Y011121D02*
X023858Y011121D01*
X023858Y011023D02*
X023980Y011023D01*
X023941Y010924D02*
X023858Y010924D01*
X023858Y010826D02*
X023941Y010826D01*
X023858Y011220D02*
X025506Y011220D01*
X025506Y011318D02*
X023858Y011318D01*
X023858Y011417D02*
X024069Y011417D01*
X024076Y011410D02*
X024266Y011410D01*
X024400Y011544D01*
X024400Y011734D01*
X024266Y011869D01*
X024076Y011869D01*
X023941Y011734D01*
X023941Y011544D01*
X024076Y011410D01*
X023970Y011515D02*
X023858Y011515D01*
X023858Y011614D02*
X023941Y011614D01*
X023941Y011712D02*
X023858Y011712D01*
X023858Y011811D02*
X024018Y011811D01*
X023858Y011909D02*
X025506Y011909D01*
X025506Y011811D02*
X024323Y011811D01*
X024400Y011712D02*
X025506Y011712D01*
X025506Y011614D02*
X024400Y011614D01*
X024371Y011515D02*
X025506Y011515D01*
X025506Y011417D02*
X024273Y011417D01*
X023858Y012008D02*
X025506Y012008D01*
X025506Y012106D02*
X023858Y012106D01*
X023858Y012205D02*
X023999Y012205D01*
X024013Y012191D02*
X024203Y012191D01*
X024337Y012326D01*
X024337Y012516D01*
X024276Y012577D01*
X024337Y012638D01*
X024337Y012828D01*
X024229Y012936D01*
X024337Y013044D01*
X024337Y013234D01*
X024203Y013369D01*
X024013Y013369D01*
X023879Y013234D01*
X023879Y013044D01*
X023987Y012936D01*
X023879Y012828D01*
X023879Y012638D01*
X023940Y012577D01*
X023879Y012516D01*
X023879Y012326D01*
X024013Y012191D01*
X023901Y012303D02*
X023858Y012303D01*
X023858Y012402D02*
X023879Y012402D01*
X023879Y012500D02*
X023858Y012500D01*
X023858Y012599D02*
X023918Y012599D01*
X023879Y012697D02*
X023858Y012697D01*
X023858Y012796D02*
X023879Y012796D01*
X023858Y012894D02*
X023945Y012894D01*
X023930Y012993D02*
X023858Y012993D01*
X023858Y013091D02*
X023879Y013091D01*
X023879Y013190D02*
X023858Y013190D01*
X023858Y013288D02*
X023933Y013288D01*
X023858Y013387D02*
X025506Y013387D01*
X025506Y013485D02*
X023858Y013485D01*
X023858Y013584D02*
X025506Y013584D01*
X025506Y013682D02*
X024226Y013682D01*
X024203Y013660D02*
X024337Y013794D01*
X024337Y013984D01*
X024203Y014119D01*
X024013Y014119D01*
X023879Y013984D01*
X023879Y013794D01*
X024013Y013660D01*
X024203Y013660D01*
X024324Y013781D02*
X025506Y013781D01*
X025506Y013879D02*
X024337Y013879D01*
X024337Y013978D02*
X025506Y013978D01*
X025506Y014076D02*
X024245Y014076D01*
X023971Y014076D02*
X023858Y014076D01*
X023858Y013978D02*
X023879Y013978D01*
X023879Y013879D02*
X023858Y013879D01*
X023858Y013781D02*
X023892Y013781D01*
X023858Y013682D02*
X023991Y013682D01*
X024283Y013288D02*
X025506Y013288D01*
X025506Y013190D02*
X024337Y013190D01*
X024337Y013091D02*
X025506Y013091D01*
X025506Y012993D02*
X024286Y012993D01*
X024271Y012894D02*
X025506Y012894D01*
X025506Y012796D02*
X024337Y012796D01*
X024337Y012697D02*
X025506Y012697D01*
X025506Y012599D02*
X024298Y012599D01*
X024337Y012500D02*
X025506Y012500D01*
X025506Y012402D02*
X024337Y012402D01*
X024315Y012303D02*
X025506Y012303D01*
X025506Y012205D02*
X024217Y012205D01*
X023173Y012796D02*
X021462Y012796D01*
X021462Y012894D02*
X023173Y012894D01*
X023173Y012993D02*
X021423Y012993D01*
X021244Y013091D02*
X023173Y013091D01*
X023173Y013190D02*
X021163Y013190D01*
X021025Y013288D02*
X023173Y013288D01*
X023173Y013387D02*
X020966Y013387D01*
X020806Y013485D02*
X023173Y013485D01*
X023173Y013584D02*
X020769Y013584D01*
X020385Y013584D02*
X020315Y013584D01*
X020337Y013682D02*
X023173Y013682D01*
X023173Y013781D02*
X020337Y013781D01*
X020255Y013879D02*
X023173Y013879D01*
X023173Y013978D02*
X018253Y013978D01*
X018309Y013879D02*
X019961Y013879D01*
X019745Y014076D02*
X020222Y014076D01*
X020263Y014035D02*
X020453Y014035D01*
X020587Y014169D01*
X020587Y014359D01*
X020453Y014494D01*
X020263Y014494D01*
X020129Y014359D01*
X020129Y014169D01*
X020263Y014035D01*
X020129Y014175D02*
X019837Y014175D01*
X019837Y014273D02*
X020129Y014273D01*
X020141Y014372D02*
X019825Y014372D01*
X019726Y014470D02*
X020240Y014470D01*
X020476Y014470D02*
X022839Y014470D01*
X022937Y014372D02*
X020575Y014372D01*
X020587Y014273D02*
X023036Y014273D01*
X023134Y014175D02*
X020587Y014175D01*
X020495Y014076D02*
X023173Y014076D01*
X023858Y014175D02*
X025506Y014175D01*
X025506Y014273D02*
X023858Y014273D01*
X023858Y014372D02*
X025506Y014372D01*
X025506Y014470D02*
X023858Y014470D01*
X023835Y014569D02*
X025506Y014569D01*
X025506Y014667D02*
X023736Y014667D01*
X023783Y014766D02*
X023683Y014766D01*
X023683Y014864D02*
X023783Y014864D01*
X023783Y014963D02*
X023683Y014963D01*
X023683Y015061D02*
X023783Y015061D01*
X023783Y015160D02*
X025506Y015160D01*
X025506Y015258D02*
X024126Y015258D01*
X024082Y015357D02*
X025506Y015357D01*
X025506Y015455D02*
X024405Y015455D01*
X024391Y015441D02*
X024525Y015576D01*
X024525Y015766D01*
X024391Y015900D01*
X024201Y015900D01*
X024066Y015766D01*
X024066Y015576D01*
X024201Y015441D01*
X024391Y015441D01*
X024503Y015554D02*
X025506Y015554D01*
X025506Y015652D02*
X024525Y015652D01*
X024525Y015751D02*
X025506Y015751D01*
X025506Y015849D02*
X024441Y015849D01*
X024150Y015849D02*
X024080Y015849D01*
X024066Y015751D02*
X023971Y015751D01*
X024066Y015652D02*
X023421Y015652D01*
X023421Y015554D02*
X024088Y015554D01*
X023996Y015455D02*
X024186Y015455D01*
X023783Y015455D02*
X023683Y015455D01*
X023683Y015357D02*
X023783Y015357D01*
X023783Y015258D02*
X023683Y015258D01*
X023471Y015455D02*
X023421Y015455D01*
X023421Y015751D02*
X023495Y015751D01*
X024141Y015948D02*
X025506Y015948D01*
X025506Y016046D02*
X024182Y016046D01*
X024183Y016145D02*
X025506Y016145D01*
X025506Y016243D02*
X024177Y016243D01*
X024136Y016342D02*
X025506Y016342D01*
X025506Y016440D02*
X024068Y016440D01*
X024165Y016539D02*
X023944Y016539D01*
X023856Y016637D02*
X024067Y016637D01*
X024066Y016736D02*
X023858Y016736D01*
X023858Y016834D02*
X024073Y016834D01*
X024171Y016933D02*
X023858Y016933D01*
X023858Y017031D02*
X024030Y017031D01*
X023875Y017130D02*
X023858Y017130D01*
X023608Y017130D02*
X023462Y017130D01*
X023462Y017228D02*
X023608Y017228D01*
X023608Y017327D02*
X023401Y017327D01*
X023375Y017425D02*
X023580Y017425D01*
X023526Y017524D02*
X023462Y017524D01*
X023462Y017622D02*
X023472Y017622D01*
X023120Y017819D02*
X022596Y017819D01*
X022619Y017797D02*
X022506Y017910D01*
X022578Y017910D01*
X022712Y018044D01*
X022712Y018234D01*
X022578Y018369D01*
X022388Y018369D01*
X022254Y018234D01*
X022254Y018044D01*
X022367Y017931D01*
X022294Y017931D01*
X022202Y017839D01*
X022109Y017931D01*
X021919Y017931D01*
X021811Y017823D01*
X021703Y017931D01*
X021513Y017931D01*
X021379Y017797D01*
X021379Y017607D01*
X021513Y017473D01*
X021703Y017473D01*
X021811Y017581D01*
X021919Y017473D01*
X022109Y017473D01*
X022202Y017565D01*
X022294Y017473D01*
X022484Y017473D01*
X022619Y017607D01*
X022619Y017797D01*
X022619Y017721D02*
X023022Y017721D01*
X023004Y017622D02*
X022619Y017622D01*
X022536Y017524D02*
X023004Y017524D01*
X023091Y017425D02*
X014062Y017425D01*
X014150Y017524D02*
X021462Y017524D01*
X021379Y017622D02*
X014150Y017622D01*
X014132Y017721D02*
X021379Y017721D01*
X021401Y017819D02*
X020050Y017819D01*
X020016Y017785D02*
X020150Y017919D01*
X020150Y018109D01*
X020016Y018244D01*
X019826Y018244D01*
X019691Y018109D01*
X019691Y017919D01*
X019826Y017785D01*
X020016Y017785D01*
X020149Y017918D02*
X021068Y017918D01*
X021076Y017910D02*
X021266Y017910D01*
X021400Y018044D01*
X021400Y018234D01*
X021266Y018369D01*
X021076Y018369D01*
X020941Y018234D01*
X020941Y018044D01*
X021076Y017910D01*
X020969Y018016D02*
X020150Y018016D01*
X020144Y018115D02*
X020941Y018115D01*
X020941Y018213D02*
X020046Y018213D01*
X019795Y018213D02*
X018494Y018213D01*
X018494Y018297D02*
X018359Y018431D01*
X018169Y018431D01*
X018061Y018323D01*
X017984Y018400D01*
X017794Y018400D01*
X017660Y018266D01*
X017660Y018076D01*
X017794Y017941D01*
X017984Y017941D01*
X018092Y018049D01*
X018169Y017973D01*
X018359Y017973D01*
X018494Y018107D01*
X018494Y018297D01*
X018479Y018312D02*
X021019Y018312D01*
X021066Y018607D02*
X015838Y018607D01*
X015900Y018669D02*
X015766Y018535D01*
X015576Y018535D01*
X015441Y018669D01*
X015441Y018859D01*
X015576Y018994D01*
X015766Y018994D01*
X015900Y018859D01*
X015900Y018669D01*
X015900Y018706D02*
X017405Y018706D01*
X017316Y018804D02*
X015900Y018804D01*
X015856Y018903D02*
X017316Y018903D01*
X017333Y019001D02*
X013921Y019001D01*
X013921Y018903D02*
X014860Y018903D01*
X014816Y018859D02*
X014816Y018669D01*
X014951Y018535D01*
X015141Y018535D01*
X015275Y018669D01*
X015275Y018859D01*
X015141Y018994D01*
X014951Y018994D01*
X014816Y018859D01*
X014816Y018804D02*
X013921Y018804D01*
X013921Y018706D02*
X014816Y018706D01*
X014878Y018607D02*
X013921Y018607D01*
X013921Y018509D02*
X023383Y018509D01*
X023383Y018607D02*
X022619Y018607D01*
X022578Y018566D02*
X022712Y018701D01*
X022712Y018891D01*
X022578Y019025D01*
X022388Y019025D01*
X022254Y018891D01*
X022254Y018701D01*
X022388Y018566D01*
X022578Y018566D01*
X022712Y018706D02*
X023383Y018706D01*
X023383Y018804D02*
X022712Y018804D01*
X022700Y018903D02*
X023383Y018903D01*
X023383Y019001D02*
X022602Y019001D01*
X022365Y019001D02*
X021320Y019001D01*
X021400Y018903D02*
X022266Y018903D01*
X022254Y018804D02*
X021400Y018804D01*
X021374Y018706D02*
X022254Y018706D01*
X022347Y018607D02*
X021276Y018607D01*
X021322Y018312D02*
X022331Y018312D01*
X022254Y018213D02*
X021400Y018213D01*
X021400Y018115D02*
X022254Y018115D01*
X022282Y018016D02*
X021372Y018016D01*
X021274Y017918D02*
X021500Y017918D01*
X021716Y017918D02*
X021906Y017918D01*
X022123Y017918D02*
X022281Y017918D01*
X022586Y017918D02*
X023036Y017918D01*
X023004Y018016D02*
X022685Y018016D01*
X022712Y018115D02*
X023004Y018115D01*
X023077Y018213D02*
X022712Y018213D01*
X022635Y018312D02*
X023383Y018312D01*
X023383Y018410D02*
X018380Y018410D01*
X018149Y018410D02*
X013921Y018410D01*
X013921Y018312D02*
X016644Y018312D01*
X016701Y018369D02*
X016566Y018234D01*
X016566Y018044D01*
X016701Y017910D01*
X016891Y017910D01*
X017025Y018044D01*
X017025Y018234D01*
X016891Y018369D01*
X016701Y018369D01*
X016566Y018213D02*
X013921Y018213D01*
X013921Y018115D02*
X016566Y018115D01*
X016594Y018016D02*
X013921Y018016D01*
X013921Y017918D02*
X016693Y017918D01*
X016899Y017918D02*
X019693Y017918D01*
X019691Y018016D02*
X018403Y018016D01*
X018494Y018115D02*
X019697Y018115D01*
X019791Y017819D02*
X014034Y017819D01*
X013671Y017524D02*
X013621Y017524D01*
X013671Y017425D02*
X013566Y017425D01*
X013491Y017327D02*
X013671Y017327D01*
X013671Y017228D02*
X013390Y017228D01*
X013267Y017130D02*
X013671Y017130D01*
X013671Y017031D02*
X013102Y017031D01*
X013201Y016931D02*
X013066Y016797D01*
X013066Y016607D01*
X013201Y016473D01*
X013391Y016473D01*
X013525Y016607D01*
X013525Y016797D01*
X013391Y016931D01*
X013201Y016931D01*
X013104Y016834D02*
X012081Y016834D01*
X012016Y016900D02*
X012150Y016766D01*
X012150Y016576D01*
X012016Y016441D01*
X011826Y016441D01*
X011691Y016576D01*
X011691Y016766D01*
X011826Y016900D01*
X012016Y016900D01*
X012150Y016736D02*
X013066Y016736D01*
X013066Y016637D02*
X012150Y016637D01*
X012113Y016539D02*
X013134Y016539D01*
X013457Y016539D02*
X013671Y016539D01*
X013671Y016637D02*
X013525Y016637D01*
X013525Y016736D02*
X013671Y016736D01*
X013671Y016834D02*
X013487Y016834D01*
X013671Y016933D02*
X012789Y016933D01*
X013671Y016440D02*
X011633Y016440D01*
X011633Y016342D02*
X013671Y016342D01*
X013671Y016243D02*
X011633Y016243D01*
X011633Y016145D02*
X013671Y016145D01*
X013671Y016046D02*
X011633Y016046D01*
X011633Y015948D02*
X013671Y015948D01*
X013671Y015849D02*
X011633Y015849D01*
X011633Y015751D02*
X013671Y015751D01*
X013671Y015652D02*
X012482Y015652D01*
X012525Y015609D02*
X012391Y015744D01*
X012201Y015744D01*
X012066Y015609D01*
X012066Y015419D01*
X012201Y015285D01*
X012391Y015285D01*
X012525Y015419D01*
X012525Y015609D01*
X012525Y015554D02*
X013671Y015554D01*
X013671Y015455D02*
X012525Y015455D01*
X012463Y015357D02*
X013671Y015357D01*
X013671Y015258D02*
X011633Y015258D01*
X011633Y015160D02*
X013671Y015160D01*
X013671Y015061D02*
X011633Y015061D01*
X011633Y014963D02*
X013671Y014963D01*
X015164Y014470D02*
X015271Y014470D01*
X015275Y014175D02*
X015279Y014175D01*
X016449Y013091D02*
X016723Y013091D01*
X016805Y012993D02*
X016494Y012993D01*
X017274Y013387D02*
X017536Y013387D01*
X017441Y013485D02*
X017306Y013485D01*
X017306Y013584D02*
X017441Y013584D01*
X017452Y013682D02*
X017233Y013682D01*
X017791Y013781D02*
X017800Y013781D01*
X017766Y013879D02*
X017851Y013879D01*
X017865Y013978D02*
X017907Y013978D01*
X017869Y014076D02*
X019472Y014076D01*
X019379Y014175D02*
X017866Y014175D01*
X017767Y014273D02*
X019379Y014273D01*
X019894Y013584D02*
X019902Y013584D01*
X019931Y013485D02*
X020000Y013485D01*
X019931Y013387D02*
X020348Y013387D01*
X020348Y013485D02*
X020216Y013485D01*
X020416Y013288D02*
X019863Y013288D01*
X019608Y013190D02*
X020566Y013190D01*
X020613Y013091D02*
X019510Y013091D01*
X018074Y012599D02*
X013921Y012599D01*
X013921Y012500D02*
X014957Y012500D01*
X014910Y012402D02*
X013921Y012402D01*
X013921Y012303D02*
X014910Y012303D01*
X014968Y012205D02*
X013921Y012205D01*
X013671Y012205D02*
X011633Y012205D01*
X011633Y012303D02*
X013671Y012303D01*
X013671Y012402D02*
X011633Y012402D01*
X011633Y012500D02*
X012329Y012500D01*
X012285Y012544D02*
X012419Y012410D01*
X012609Y012410D01*
X012744Y012544D01*
X012744Y012734D01*
X012609Y012869D01*
X012419Y012869D01*
X012285Y012734D01*
X012285Y012544D01*
X012285Y012599D02*
X011633Y012599D01*
X011633Y012697D02*
X012285Y012697D01*
X012347Y012796D02*
X011633Y012796D01*
X011633Y012894D02*
X013671Y012894D01*
X013671Y012796D02*
X012682Y012796D01*
X012744Y012697D02*
X013671Y012697D01*
X013671Y012599D02*
X012744Y012599D01*
X012700Y012500D02*
X013671Y012500D01*
X013671Y012106D02*
X011633Y012106D01*
X011633Y012008D02*
X013671Y012008D01*
X013671Y011909D02*
X011633Y011909D01*
X011633Y011811D02*
X013671Y011811D01*
X013671Y011712D02*
X013016Y011712D01*
X013056Y011672D02*
X012922Y011806D01*
X012732Y011806D01*
X012598Y011672D01*
X012598Y011482D01*
X012732Y011348D01*
X012922Y011348D01*
X013056Y011482D01*
X013056Y011672D01*
X013056Y011614D02*
X013671Y011614D01*
X013671Y011515D02*
X013056Y011515D01*
X012991Y011417D02*
X013671Y011417D01*
X013671Y011318D02*
X011633Y011318D01*
X011633Y011220D02*
X013671Y011220D01*
X013671Y011121D02*
X011633Y011121D01*
X011633Y011023D02*
X013671Y011023D01*
X013671Y010924D02*
X011633Y010924D01*
X011633Y010826D02*
X013671Y010826D01*
X013671Y010727D02*
X011633Y010727D01*
X011633Y010629D02*
X013671Y010629D01*
X013671Y010530D02*
X011633Y010530D01*
X011633Y010432D02*
X013671Y010432D01*
X013671Y010333D02*
X011633Y010333D01*
X011633Y010235D02*
X013671Y010235D01*
X013671Y010136D02*
X011633Y010136D01*
X011633Y010038D02*
X013671Y010038D01*
X013671Y009939D02*
X011633Y009939D01*
X011633Y009841D02*
X013671Y009841D01*
X013671Y009742D02*
X011633Y009742D01*
X011633Y009644D02*
X013671Y009644D01*
X013671Y009545D02*
X011633Y009545D01*
X011633Y009447D02*
X013671Y009447D01*
X012662Y011417D02*
X012179Y011417D01*
X012244Y011482D02*
X012109Y011348D01*
X011919Y011348D01*
X011785Y011482D01*
X011785Y011672D01*
X011919Y011806D01*
X012109Y011806D01*
X012244Y011672D01*
X012244Y011482D01*
X012244Y011515D02*
X012598Y011515D01*
X012598Y011614D02*
X012244Y011614D01*
X012203Y011712D02*
X012638Y011712D01*
X011826Y011712D02*
X011633Y011712D01*
X011633Y011614D02*
X011785Y011614D01*
X011785Y011515D02*
X011633Y011515D01*
X011633Y011417D02*
X011850Y011417D01*
X011633Y012993D02*
X013671Y012993D01*
X013671Y013091D02*
X011633Y013091D01*
X011633Y013190D02*
X013671Y013190D01*
X013671Y013288D02*
X011633Y013288D01*
X011633Y015357D02*
X012129Y015357D01*
X012066Y015455D02*
X011633Y015455D01*
X011633Y015554D02*
X012066Y015554D01*
X012109Y015652D02*
X011633Y015652D01*
X011633Y016539D02*
X011728Y016539D01*
X011691Y016637D02*
X011633Y016637D01*
X011633Y016736D02*
X011691Y016736D01*
X011633Y016834D02*
X011760Y016834D01*
X013921Y016834D02*
X023608Y016834D01*
X023608Y016736D02*
X018023Y016736D01*
X018087Y016637D02*
X020563Y016637D01*
X020465Y016539D02*
X020033Y016539D01*
X020131Y016440D02*
X020441Y016440D01*
X020441Y016342D02*
X020150Y016342D01*
X020150Y016243D02*
X020523Y016243D01*
X020333Y016145D02*
X020778Y016145D01*
X020877Y016046D02*
X020431Y016046D01*
X020071Y016145D02*
X020063Y016145D01*
X020075Y015751D02*
X020078Y015751D01*
X020129Y015652D02*
X019977Y015652D01*
X019808Y016539D02*
X018087Y016539D01*
X016269Y016342D02*
X016260Y016342D01*
X015956Y016342D02*
X015916Y016342D01*
X014130Y016736D02*
X013921Y016736D01*
X013921Y016637D02*
X014066Y016637D01*
X014066Y016539D02*
X013921Y016539D01*
X013921Y016933D02*
X023608Y016933D01*
X023608Y017031D02*
X023418Y017031D01*
X023048Y017031D02*
X023043Y017031D01*
X022673Y017031D02*
X013921Y017031D01*
X013921Y017130D02*
X022629Y017130D01*
X022629Y017228D02*
X013921Y017228D01*
X013921Y017327D02*
X022690Y017327D01*
X023026Y017327D02*
X023065Y017327D01*
X022243Y017524D02*
X022161Y017524D01*
X021868Y017524D02*
X021755Y017524D01*
X020778Y016637D02*
X023512Y016637D01*
X023414Y016539D02*
X020877Y016539D01*
X021719Y016145D02*
X021809Y016145D01*
X022157Y016145D02*
X022247Y016145D01*
X024136Y015061D02*
X025506Y015061D01*
X025506Y014963D02*
X024103Y014963D01*
X024038Y014864D02*
X025506Y014864D01*
X025506Y014766D02*
X023903Y014766D01*
X024426Y016539D02*
X025506Y016539D01*
X025506Y016637D02*
X024524Y016637D01*
X024525Y016736D02*
X025506Y016736D01*
X025506Y016834D02*
X024519Y016834D01*
X020967Y018706D02*
X019937Y018706D01*
X020025Y018804D02*
X020941Y018804D01*
X020941Y018903D02*
X020025Y018903D01*
X020008Y019001D02*
X021021Y019001D01*
X019655Y018706D02*
X018999Y018706D01*
X019087Y018804D02*
X019566Y018804D01*
X019566Y018903D02*
X019087Y018903D01*
X019070Y019001D02*
X019583Y019001D01*
X018717Y018706D02*
X017687Y018706D01*
X017775Y018804D02*
X018629Y018804D01*
X018629Y018903D02*
X017775Y018903D01*
X017758Y019001D02*
X018646Y019001D01*
X017706Y018312D02*
X016947Y018312D01*
X017025Y018213D02*
X017660Y018213D01*
X017660Y018115D02*
X017025Y018115D01*
X016997Y018016D02*
X017719Y018016D01*
X018060Y018016D02*
X018125Y018016D01*
X015503Y018607D02*
X015213Y018607D01*
X015275Y018706D02*
X015441Y018706D01*
X015441Y018804D02*
X015275Y018804D01*
X015231Y018903D02*
X015485Y018903D01*
X017805Y013387D02*
X017849Y013387D01*
X021397Y012697D02*
X022936Y012697D01*
X022848Y012599D02*
X022348Y012599D01*
X022446Y012500D02*
X022848Y012500D01*
X022865Y012402D02*
X022462Y012402D01*
X022462Y012303D02*
X022963Y012303D01*
X024354Y010530D02*
X025506Y010530D01*
X025506Y010432D02*
X024400Y010432D01*
X024400Y010333D02*
X025506Y010333D01*
X025506Y010235D02*
X024341Y010235D01*
D15*
X023483Y009202D02*
X023483Y014264D01*
X022983Y014764D01*
X022983Y016014D01*
X014358Y016139D02*
X013421Y016139D01*
X012796Y015514D01*
X012796Y015139D01*
X021702Y007421D02*
X023421Y009139D01*
X023483Y009202D01*
X021702Y007421D02*
X016046Y007421D01*
X015858Y007608D01*
M02*
