G75*
G70*
%OFA0B0*%
%FSLAX24Y24*%
%IPPOS*%
%LPD*%
%AMOC8*
5,1,8,0,0,1.08239X$1,22.5*
%
%ADD10C,0.0000*%
%ADD11R,0.0236X0.0433*%
%ADD12R,0.0197X0.0236*%
%ADD13R,0.0315X0.0114*%
%ADD14R,0.0114X0.0315*%
%ADD15R,0.0394X0.0394*%
%ADD16R,0.0236X0.0354*%
%ADD17R,0.0354X0.0236*%
%ADD18R,0.0236X0.0197*%
%ADD19R,0.0220X0.0500*%
%ADD20R,0.0394X0.0551*%
%ADD21R,0.0610X0.0236*%
%ADD22R,0.0709X0.0472*%
%ADD23R,0.1000X0.0750*%
%ADD24R,0.0276X0.0512*%
%ADD25R,0.0512X0.0276*%
%ADD26R,0.0543X0.0177*%
%ADD27R,0.0827X0.0581*%
%ADD28R,0.0748X0.0935*%
%ADD29R,0.0748X0.0463*%
%ADD30R,0.0236X0.0610*%
%ADD31R,0.0472X0.0709*%
%ADD32R,0.0394X0.0433*%
%ADD33R,0.0315X0.0315*%
%ADD34R,0.0472X0.0118*%
%ADD35R,0.0118X0.0472*%
%ADD36R,0.0600X0.0600*%
%ADD37OC8,0.0600*%
%ADD38C,0.0079*%
%ADD39C,0.0159*%
%ADD40C,0.0100*%
%ADD41C,0.0160*%
%ADD42C,0.0295*%
%ADD43C,0.0320*%
%ADD44C,0.0240*%
%ADD45C,0.0400*%
%ADD46C,0.0500*%
D10*
X011483Y005999D02*
X011483Y018203D01*
X011485Y018265D01*
X011491Y018326D01*
X011500Y018387D01*
X011514Y018448D01*
X011531Y018507D01*
X011552Y018565D01*
X011577Y018622D01*
X011605Y018677D01*
X011636Y018730D01*
X011671Y018781D01*
X011709Y018830D01*
X011750Y018877D01*
X011793Y018920D01*
X011840Y018961D01*
X011889Y018999D01*
X011940Y019034D01*
X011993Y019065D01*
X012048Y019093D01*
X012105Y019118D01*
X012163Y019139D01*
X012222Y019156D01*
X012283Y019170D01*
X012344Y019179D01*
X012405Y019185D01*
X012467Y019187D01*
X012467Y019188D02*
X024672Y019188D01*
X024672Y019187D02*
X024734Y019185D01*
X024795Y019179D01*
X024856Y019170D01*
X024917Y019156D01*
X024976Y019139D01*
X025034Y019118D01*
X025091Y019093D01*
X025146Y019065D01*
X025199Y019034D01*
X025250Y018999D01*
X025299Y018961D01*
X025346Y018920D01*
X025389Y018877D01*
X025430Y018830D01*
X025468Y018781D01*
X025503Y018730D01*
X025534Y018677D01*
X025562Y018622D01*
X025587Y018565D01*
X025608Y018507D01*
X025625Y018448D01*
X025639Y018387D01*
X025648Y018326D01*
X025654Y018265D01*
X025656Y018203D01*
X025656Y005999D01*
X025654Y005937D01*
X025648Y005876D01*
X025639Y005815D01*
X025625Y005754D01*
X025608Y005695D01*
X025587Y005637D01*
X025562Y005580D01*
X025534Y005525D01*
X025503Y005472D01*
X025468Y005421D01*
X025430Y005372D01*
X025389Y005325D01*
X025346Y005282D01*
X025299Y005241D01*
X025250Y005203D01*
X025199Y005168D01*
X025146Y005137D01*
X025091Y005109D01*
X025034Y005084D01*
X024976Y005063D01*
X024917Y005046D01*
X024856Y005032D01*
X024795Y005023D01*
X024734Y005017D01*
X024672Y005015D01*
X024672Y005014D02*
X012467Y005014D01*
X012467Y005015D02*
X012405Y005017D01*
X012344Y005023D01*
X012283Y005032D01*
X012222Y005046D01*
X012163Y005063D01*
X012105Y005084D01*
X012048Y005109D01*
X011993Y005137D01*
X011940Y005168D01*
X011889Y005203D01*
X011840Y005241D01*
X011793Y005282D01*
X011750Y005325D01*
X011709Y005372D01*
X011671Y005421D01*
X011636Y005472D01*
X011605Y005525D01*
X011577Y005580D01*
X011552Y005637D01*
X011531Y005695D01*
X011514Y005754D01*
X011500Y005815D01*
X011491Y005876D01*
X011485Y005937D01*
X011483Y005999D01*
X011975Y006097D02*
X011977Y006145D01*
X011983Y006193D01*
X011993Y006240D01*
X012006Y006286D01*
X012024Y006331D01*
X012044Y006375D01*
X012069Y006417D01*
X012097Y006456D01*
X012127Y006493D01*
X012161Y006527D01*
X012198Y006559D01*
X012236Y006588D01*
X012277Y006613D01*
X012320Y006635D01*
X012365Y006653D01*
X012411Y006667D01*
X012458Y006678D01*
X012506Y006685D01*
X012554Y006688D01*
X012602Y006687D01*
X012650Y006682D01*
X012698Y006673D01*
X012744Y006661D01*
X012789Y006644D01*
X012833Y006624D01*
X012875Y006601D01*
X012915Y006574D01*
X012953Y006544D01*
X012988Y006511D01*
X013020Y006475D01*
X013050Y006437D01*
X013076Y006396D01*
X013098Y006353D01*
X013118Y006309D01*
X013133Y006264D01*
X013145Y006217D01*
X013153Y006169D01*
X013157Y006121D01*
X013157Y006073D01*
X013153Y006025D01*
X013145Y005977D01*
X013133Y005930D01*
X013118Y005885D01*
X013098Y005841D01*
X013076Y005798D01*
X013050Y005757D01*
X013020Y005719D01*
X012988Y005683D01*
X012953Y005650D01*
X012915Y005620D01*
X012875Y005593D01*
X012833Y005570D01*
X012789Y005550D01*
X012744Y005533D01*
X012698Y005521D01*
X012650Y005512D01*
X012602Y005507D01*
X012554Y005506D01*
X012506Y005509D01*
X012458Y005516D01*
X012411Y005527D01*
X012365Y005541D01*
X012320Y005559D01*
X012277Y005581D01*
X012236Y005606D01*
X012198Y005635D01*
X012161Y005667D01*
X012127Y005701D01*
X012097Y005738D01*
X012069Y005777D01*
X012044Y005819D01*
X012024Y005863D01*
X012006Y005908D01*
X011993Y005954D01*
X011983Y006001D01*
X011977Y006049D01*
X011975Y006097D01*
X023983Y006097D02*
X023985Y006145D01*
X023991Y006193D01*
X024001Y006240D01*
X024014Y006286D01*
X024032Y006331D01*
X024052Y006375D01*
X024077Y006417D01*
X024105Y006456D01*
X024135Y006493D01*
X024169Y006527D01*
X024206Y006559D01*
X024244Y006588D01*
X024285Y006613D01*
X024328Y006635D01*
X024373Y006653D01*
X024419Y006667D01*
X024466Y006678D01*
X024514Y006685D01*
X024562Y006688D01*
X024610Y006687D01*
X024658Y006682D01*
X024706Y006673D01*
X024752Y006661D01*
X024797Y006644D01*
X024841Y006624D01*
X024883Y006601D01*
X024923Y006574D01*
X024961Y006544D01*
X024996Y006511D01*
X025028Y006475D01*
X025058Y006437D01*
X025084Y006396D01*
X025106Y006353D01*
X025126Y006309D01*
X025141Y006264D01*
X025153Y006217D01*
X025161Y006169D01*
X025165Y006121D01*
X025165Y006073D01*
X025161Y006025D01*
X025153Y005977D01*
X025141Y005930D01*
X025126Y005885D01*
X025106Y005841D01*
X025084Y005798D01*
X025058Y005757D01*
X025028Y005719D01*
X024996Y005683D01*
X024961Y005650D01*
X024923Y005620D01*
X024883Y005593D01*
X024841Y005570D01*
X024797Y005550D01*
X024752Y005533D01*
X024706Y005521D01*
X024658Y005512D01*
X024610Y005507D01*
X024562Y005506D01*
X024514Y005509D01*
X024466Y005516D01*
X024419Y005527D01*
X024373Y005541D01*
X024328Y005559D01*
X024285Y005581D01*
X024244Y005606D01*
X024206Y005635D01*
X024169Y005667D01*
X024135Y005701D01*
X024105Y005738D01*
X024077Y005777D01*
X024052Y005819D01*
X024032Y005863D01*
X024014Y005908D01*
X024001Y005954D01*
X023991Y006001D01*
X023985Y006049D01*
X023983Y006097D01*
X023983Y018105D02*
X023985Y018153D01*
X023991Y018201D01*
X024001Y018248D01*
X024014Y018294D01*
X024032Y018339D01*
X024052Y018383D01*
X024077Y018425D01*
X024105Y018464D01*
X024135Y018501D01*
X024169Y018535D01*
X024206Y018567D01*
X024244Y018596D01*
X024285Y018621D01*
X024328Y018643D01*
X024373Y018661D01*
X024419Y018675D01*
X024466Y018686D01*
X024514Y018693D01*
X024562Y018696D01*
X024610Y018695D01*
X024658Y018690D01*
X024706Y018681D01*
X024752Y018669D01*
X024797Y018652D01*
X024841Y018632D01*
X024883Y018609D01*
X024923Y018582D01*
X024961Y018552D01*
X024996Y018519D01*
X025028Y018483D01*
X025058Y018445D01*
X025084Y018404D01*
X025106Y018361D01*
X025126Y018317D01*
X025141Y018272D01*
X025153Y018225D01*
X025161Y018177D01*
X025165Y018129D01*
X025165Y018081D01*
X025161Y018033D01*
X025153Y017985D01*
X025141Y017938D01*
X025126Y017893D01*
X025106Y017849D01*
X025084Y017806D01*
X025058Y017765D01*
X025028Y017727D01*
X024996Y017691D01*
X024961Y017658D01*
X024923Y017628D01*
X024883Y017601D01*
X024841Y017578D01*
X024797Y017558D01*
X024752Y017541D01*
X024706Y017529D01*
X024658Y017520D01*
X024610Y017515D01*
X024562Y017514D01*
X024514Y017517D01*
X024466Y017524D01*
X024419Y017535D01*
X024373Y017549D01*
X024328Y017567D01*
X024285Y017589D01*
X024244Y017614D01*
X024206Y017643D01*
X024169Y017675D01*
X024135Y017709D01*
X024105Y017746D01*
X024077Y017785D01*
X024052Y017827D01*
X024032Y017871D01*
X024014Y017916D01*
X024001Y017962D01*
X023991Y018009D01*
X023985Y018057D01*
X023983Y018105D01*
X011975Y018105D02*
X011977Y018153D01*
X011983Y018201D01*
X011993Y018248D01*
X012006Y018294D01*
X012024Y018339D01*
X012044Y018383D01*
X012069Y018425D01*
X012097Y018464D01*
X012127Y018501D01*
X012161Y018535D01*
X012198Y018567D01*
X012236Y018596D01*
X012277Y018621D01*
X012320Y018643D01*
X012365Y018661D01*
X012411Y018675D01*
X012458Y018686D01*
X012506Y018693D01*
X012554Y018696D01*
X012602Y018695D01*
X012650Y018690D01*
X012698Y018681D01*
X012744Y018669D01*
X012789Y018652D01*
X012833Y018632D01*
X012875Y018609D01*
X012915Y018582D01*
X012953Y018552D01*
X012988Y018519D01*
X013020Y018483D01*
X013050Y018445D01*
X013076Y018404D01*
X013098Y018361D01*
X013118Y018317D01*
X013133Y018272D01*
X013145Y018225D01*
X013153Y018177D01*
X013157Y018129D01*
X013157Y018081D01*
X013153Y018033D01*
X013145Y017985D01*
X013133Y017938D01*
X013118Y017893D01*
X013098Y017849D01*
X013076Y017806D01*
X013050Y017765D01*
X013020Y017727D01*
X012988Y017691D01*
X012953Y017658D01*
X012915Y017628D01*
X012875Y017601D01*
X012833Y017578D01*
X012789Y017558D01*
X012744Y017541D01*
X012698Y017529D01*
X012650Y017520D01*
X012602Y017515D01*
X012554Y017514D01*
X012506Y017517D01*
X012458Y017524D01*
X012411Y017535D01*
X012365Y017549D01*
X012320Y017567D01*
X012277Y017589D01*
X012236Y017614D01*
X012198Y017643D01*
X012161Y017675D01*
X012127Y017709D01*
X012097Y017746D01*
X012069Y017785D01*
X012044Y017827D01*
X012024Y017871D01*
X012006Y017916D01*
X011993Y017962D01*
X011983Y018009D01*
X011977Y018057D01*
X011975Y018105D01*
D11*
X014620Y018010D03*
X015112Y018010D03*
X015604Y018010D03*
X016096Y018010D03*
X016096Y017144D03*
X015604Y017144D03*
X015112Y017144D03*
X014620Y017144D03*
D12*
X016099Y018514D03*
X016492Y018514D03*
X017911Y015952D03*
X018305Y015952D03*
X015992Y015233D03*
X015599Y015233D03*
X020849Y015389D03*
X021242Y015389D03*
X022349Y012077D03*
X022742Y012077D03*
X022742Y011702D03*
X022742Y011327D03*
X022349Y011327D03*
X022349Y011702D03*
X022193Y010514D03*
X022586Y010514D03*
X020930Y008014D03*
X020536Y008014D03*
X020180Y008014D03*
X019786Y008014D03*
X023411Y007889D03*
X023805Y007889D03*
X015117Y008952D03*
X014724Y008952D03*
X014867Y010046D03*
X014867Y010421D03*
X014474Y010421D03*
X014474Y010046D03*
X014367Y010952D03*
X013974Y010952D03*
X013786Y011514D03*
X014180Y011514D03*
X013899Y007546D03*
X013505Y007546D03*
D13*
X018321Y016710D03*
X018321Y016907D03*
X018321Y017103D03*
X018321Y017300D03*
X018321Y017497D03*
X018321Y017694D03*
X019896Y017694D03*
X019896Y017497D03*
X019896Y017300D03*
X019896Y017103D03*
X019896Y016907D03*
X019896Y016710D03*
D14*
X019600Y016414D03*
X019403Y016414D03*
X019207Y016414D03*
X019010Y016414D03*
X018813Y016414D03*
X018616Y016414D03*
X018616Y017989D03*
X018813Y017989D03*
X019010Y017989D03*
X019207Y017989D03*
X019403Y017989D03*
X019600Y017989D03*
D15*
X019108Y017202D03*
D16*
X018403Y018639D03*
X017813Y018639D03*
X014747Y009546D03*
X014157Y009546D03*
D17*
X022733Y012532D03*
X022733Y013122D03*
X016639Y015532D03*
X016639Y016122D03*
X017421Y017657D03*
X017421Y018247D03*
D18*
X016796Y017711D03*
X016796Y017318D03*
X016108Y016305D03*
X015702Y016305D03*
X015702Y015911D03*
X016108Y015911D03*
X017108Y016024D03*
X017483Y016024D03*
X017483Y015630D03*
X017108Y015630D03*
X015014Y015774D03*
X015014Y015380D03*
X021108Y016536D03*
X021108Y016930D03*
X021546Y016930D03*
X021983Y016930D03*
X022421Y016930D03*
X022421Y016536D03*
X021983Y016536D03*
X021546Y016536D03*
X022233Y013086D03*
X022233Y012693D03*
X022921Y009367D03*
X022921Y008974D03*
X021858Y005742D03*
X021858Y005349D03*
X021358Y005349D03*
X021358Y005742D03*
X020858Y005742D03*
X020858Y005349D03*
X014764Y005724D03*
X014764Y006117D03*
D19*
X022176Y007473D03*
X022546Y007473D03*
X022916Y007473D03*
X022916Y008493D03*
X022176Y008493D03*
D20*
X015138Y007604D03*
X014390Y007604D03*
X014764Y006738D03*
X022172Y014706D03*
X022920Y014706D03*
X022546Y015572D03*
D21*
X013436Y015549D03*
X013436Y015155D03*
X013436Y014761D03*
X013436Y014367D03*
X013436Y013974D03*
X013436Y013580D03*
X013436Y013186D03*
X013436Y012793D03*
D22*
X011910Y012281D03*
X011910Y016060D03*
D23*
X025008Y016139D03*
X025008Y015139D03*
X025008Y014139D03*
X025008Y013139D03*
X025008Y012139D03*
X025008Y011139D03*
X025008Y010139D03*
X025008Y009139D03*
X025008Y008139D03*
D24*
X024170Y008483D03*
X023422Y008483D03*
X015138Y008296D03*
X014390Y008296D03*
D25*
X021577Y007982D03*
X021577Y007234D03*
D26*
X013014Y009065D03*
X013014Y009321D03*
X013014Y009577D03*
X013014Y009833D03*
X013014Y010089D03*
D27*
X012873Y010546D03*
X012873Y008607D03*
D28*
X011967Y008430D03*
X011967Y010724D03*
D29*
X011967Y009900D03*
X011967Y009242D03*
D30*
X016011Y006967D03*
X016405Y006967D03*
X016799Y006967D03*
X017193Y006967D03*
X017586Y006967D03*
X017980Y006967D03*
X018374Y006967D03*
X018767Y006967D03*
D31*
X019279Y005441D03*
X015500Y005441D03*
D32*
X020108Y005648D03*
X020108Y006318D03*
X017421Y016492D03*
X017421Y017162D03*
D33*
X020858Y006716D03*
X021358Y006716D03*
X021858Y006716D03*
X021858Y006125D03*
X021358Y006125D03*
X020858Y006125D03*
D34*
X021659Y009340D03*
X021659Y009537D03*
X021659Y009733D03*
X021659Y009930D03*
X021659Y010127D03*
X021659Y010324D03*
X021659Y010521D03*
X021659Y010718D03*
X021659Y010914D03*
X021659Y011111D03*
X021659Y011308D03*
X021659Y011505D03*
X021659Y011702D03*
X021659Y011899D03*
X021659Y012096D03*
X021659Y012292D03*
X021659Y012489D03*
X021659Y012686D03*
X021659Y012883D03*
X021659Y013080D03*
X021659Y013277D03*
X021659Y013474D03*
X021659Y013670D03*
X021659Y013867D03*
X021659Y014064D03*
X015557Y014064D03*
X015557Y013867D03*
X015557Y013670D03*
X015557Y013474D03*
X015557Y013277D03*
X015557Y013080D03*
X015557Y012883D03*
X015557Y012686D03*
X015557Y012489D03*
X015557Y012292D03*
X015557Y012096D03*
X015557Y011899D03*
X015557Y011702D03*
X015557Y011505D03*
X015557Y011308D03*
X015557Y011111D03*
X015557Y010914D03*
X015557Y010718D03*
X015557Y010521D03*
X015557Y010324D03*
X015557Y010127D03*
X015557Y009930D03*
X015557Y009733D03*
X015557Y009537D03*
X015557Y009340D03*
D35*
X016246Y008651D03*
X016443Y008651D03*
X016640Y008651D03*
X016836Y008651D03*
X017033Y008651D03*
X017230Y008651D03*
X017427Y008651D03*
X017624Y008651D03*
X017821Y008651D03*
X018018Y008651D03*
X018214Y008651D03*
X018411Y008651D03*
X018608Y008651D03*
X018805Y008651D03*
X019002Y008651D03*
X019199Y008651D03*
X019396Y008651D03*
X019592Y008651D03*
X019789Y008651D03*
X019986Y008651D03*
X020183Y008651D03*
X020380Y008651D03*
X020577Y008651D03*
X020773Y008651D03*
X020970Y008651D03*
X020970Y014753D03*
X020773Y014753D03*
X020577Y014753D03*
X020380Y014753D03*
X020183Y014753D03*
X019986Y014753D03*
X019789Y014753D03*
X019592Y014753D03*
X019396Y014753D03*
X019199Y014753D03*
X019002Y014753D03*
X018805Y014753D03*
X018608Y014753D03*
X018411Y014753D03*
X018214Y014753D03*
X018018Y014753D03*
X017821Y014753D03*
X017624Y014753D03*
X017427Y014753D03*
X017230Y014753D03*
X017033Y014753D03*
X016836Y014753D03*
X016640Y014753D03*
X016443Y014753D03*
X016246Y014753D03*
D36*
X023733Y015139D03*
D37*
X023733Y016139D03*
D38*
X023694Y016137D02*
X023213Y016137D01*
X023203Y016161D02*
X023130Y016234D01*
X023035Y016274D01*
X022932Y016274D01*
X022836Y016234D01*
X022549Y015947D01*
X022308Y015947D01*
X022249Y015889D01*
X022249Y015256D01*
X022308Y015197D01*
X022784Y015197D01*
X022842Y015256D01*
X022842Y015506D01*
X023203Y015867D01*
X023242Y015963D01*
X023242Y016066D01*
X023203Y016161D01*
X023150Y016214D02*
X023334Y016214D01*
X023334Y016179D02*
X023334Y016305D01*
X023568Y016539D01*
X023694Y016539D01*
X023694Y016179D01*
X023772Y016179D01*
X023772Y016539D01*
X023899Y016539D01*
X024132Y016305D01*
X024132Y016179D01*
X023772Y016179D01*
X023772Y016100D01*
X023772Y015740D01*
X023899Y015740D01*
X024132Y015974D01*
X024132Y016100D01*
X023772Y016100D01*
X023694Y016100D01*
X023694Y015740D01*
X023568Y015740D01*
X023334Y015974D01*
X023334Y016100D01*
X023694Y016100D01*
X023694Y016179D01*
X023334Y016179D01*
X023334Y016291D02*
X022599Y016291D01*
X022599Y016358D02*
X022638Y016397D01*
X022638Y016676D01*
X022581Y016733D01*
X022638Y016790D01*
X022638Y017070D01*
X022580Y017128D01*
X022570Y017128D01*
X022570Y017732D01*
X022568Y017734D01*
X022568Y017776D01*
X022463Y017881D01*
X022315Y017881D01*
X022211Y017776D01*
X022211Y017628D01*
X022271Y017567D01*
X022271Y017128D01*
X022261Y017128D01*
X022203Y017070D01*
X022203Y016790D01*
X022260Y016733D01*
X022203Y016676D01*
X022203Y016397D01*
X022242Y016358D01*
X022242Y016222D01*
X022347Y016117D01*
X022495Y016117D01*
X022599Y016222D01*
X022599Y016358D01*
X022610Y016369D02*
X023398Y016369D01*
X023475Y016446D02*
X022638Y016446D01*
X022638Y016523D02*
X023552Y016523D01*
X023694Y016523D02*
X023772Y016523D01*
X023772Y016446D02*
X023694Y016446D01*
X023694Y016369D02*
X023772Y016369D01*
X023772Y016291D02*
X023694Y016291D01*
X023694Y016214D02*
X023772Y016214D01*
X023772Y016137D02*
X024969Y016137D01*
X024969Y016100D02*
X024409Y016100D01*
X024409Y015745D01*
X024424Y015708D01*
X024452Y015680D01*
X024488Y015665D01*
X024969Y015665D01*
X024969Y016100D01*
X025047Y016100D01*
X025047Y015665D01*
X025517Y015665D01*
X025517Y015614D01*
X024467Y015614D01*
X024409Y015556D01*
X024409Y015489D01*
X024124Y015489D01*
X024074Y015539D01*
X023392Y015539D01*
X023334Y015481D01*
X023334Y014966D01*
X023216Y014966D01*
X023216Y015023D01*
X023158Y015081D01*
X022682Y015081D01*
X022623Y015023D01*
X022623Y014390D01*
X022682Y014331D01*
X023158Y014331D01*
X023216Y014390D01*
X023216Y014447D01*
X023570Y014447D01*
X023666Y014486D01*
X023880Y014701D01*
X023919Y014740D01*
X024074Y014740D01*
X024124Y014790D01*
X024409Y014790D01*
X024409Y014723D01*
X024467Y014665D01*
X025517Y014665D01*
X025517Y014614D01*
X024467Y014614D01*
X024409Y014556D01*
X024409Y014289D01*
X023765Y014289D01*
X023690Y014213D01*
X021946Y014213D01*
X021937Y014222D01*
X021382Y014222D01*
X021324Y014164D01*
X021324Y012980D01*
X021329Y012974D01*
X021324Y012962D01*
X021324Y012883D01*
X021659Y012883D01*
X021659Y012883D01*
X021324Y012883D01*
X021324Y012804D01*
X021329Y012792D01*
X021324Y012786D01*
X021324Y012639D01*
X021320Y012639D01*
X021164Y012795D01*
X021164Y012911D01*
X021193Y012940D01*
X021193Y013088D01*
X021088Y013193D01*
X020974Y013193D01*
X020974Y013307D01*
X020870Y013412D01*
X020756Y013412D01*
X020756Y013526D01*
X020651Y013631D01*
X020503Y013631D01*
X020398Y013526D01*
X020398Y013378D01*
X020428Y013348D01*
X020428Y012484D01*
X020515Y012396D01*
X020863Y012048D01*
X019212Y012048D01*
X019124Y011961D01*
X018951Y011787D01*
X018909Y011787D01*
X018804Y011682D01*
X018804Y011534D01*
X018909Y011429D01*
X019057Y011429D01*
X019162Y011534D01*
X019162Y011576D01*
X019336Y011749D01*
X020778Y011749D01*
X020773Y011745D01*
X020773Y011597D01*
X020878Y011492D01*
X020999Y011492D01*
X020951Y011443D01*
X020909Y011443D01*
X020804Y011338D01*
X020804Y011190D01*
X020909Y011086D01*
X021057Y011086D01*
X021162Y011190D01*
X021162Y011232D01*
X021286Y011356D01*
X021324Y011356D01*
X021324Y011208D01*
X021329Y011203D01*
X021324Y011190D01*
X021324Y011111D01*
X021324Y011032D01*
X021329Y011020D01*
X021324Y011015D01*
X021324Y009239D01*
X021382Y009181D01*
X021937Y009181D01*
X021995Y009239D01*
X021995Y009978D01*
X023376Y009978D01*
X023464Y010065D01*
X023857Y010459D01*
X023945Y010546D01*
X023945Y011609D01*
X024326Y011990D01*
X024409Y011990D01*
X024409Y011723D01*
X024467Y011665D01*
X025517Y011665D01*
X025517Y011614D01*
X024467Y011614D01*
X024409Y011556D01*
X024409Y011289D01*
X024359Y011289D01*
X024138Y011068D01*
X024097Y011068D01*
X023992Y010963D01*
X023992Y010815D01*
X024097Y010711D01*
X024245Y010711D01*
X024349Y010815D01*
X024349Y010857D01*
X024409Y010916D01*
X024409Y010723D01*
X024467Y010665D01*
X025517Y010665D01*
X025517Y010614D01*
X024467Y010614D01*
X024409Y010556D01*
X024409Y010289D01*
X024390Y010289D01*
X024138Y010037D01*
X024097Y010037D01*
X023992Y009932D01*
X023992Y009784D01*
X024097Y009679D01*
X024245Y009679D01*
X024349Y009784D01*
X024349Y009826D01*
X024409Y009885D01*
X024409Y009723D01*
X024467Y009665D01*
X025517Y009665D01*
X025517Y009614D01*
X024467Y009614D01*
X024409Y009556D01*
X024409Y009439D01*
X024017Y009439D01*
X023907Y009393D01*
X023823Y009309D01*
X023778Y009199D01*
X023778Y009080D01*
X023823Y008970D01*
X023907Y008886D01*
X024017Y008840D01*
X024409Y008840D01*
X024409Y008723D01*
X024467Y008665D01*
X025517Y008665D01*
X025517Y008614D01*
X025047Y008614D01*
X025047Y008179D01*
X024969Y008179D01*
X024969Y008614D01*
X024488Y008614D01*
X024452Y008599D01*
X024424Y008571D01*
X024409Y008534D01*
X024409Y008179D01*
X024969Y008179D01*
X024969Y008100D01*
X025047Y008100D01*
X025047Y007665D01*
X025517Y007665D01*
X025517Y006772D01*
X025472Y006850D01*
X025160Y007112D01*
X025160Y007112D01*
X024777Y007251D01*
X024370Y007251D01*
X023988Y007112D01*
X023988Y007112D01*
X023676Y006850D01*
X023472Y006498D01*
X023402Y006097D01*
X023472Y005696D01*
X023676Y005344D01*
X023902Y005154D01*
X022020Y005154D01*
X022076Y005209D01*
X022076Y005488D01*
X022018Y005546D01*
X022076Y005603D01*
X022076Y005882D01*
X022073Y005885D01*
X022115Y005927D01*
X022115Y006324D01*
X022057Y006382D01*
X021659Y006382D01*
X021608Y006331D01*
X021557Y006382D01*
X021159Y006382D01*
X021108Y006331D01*
X021057Y006382D01*
X020659Y006382D01*
X020601Y006324D01*
X020601Y005927D01*
X020643Y005885D01*
X020641Y005882D01*
X020641Y005603D01*
X020698Y005546D01*
X020660Y005507D01*
X020460Y005507D01*
X020404Y005563D01*
X020404Y005906D01*
X020346Y005964D01*
X019963Y005964D01*
X019926Y006002D01*
X020346Y006002D01*
X020404Y006060D01*
X020404Y006575D01*
X020346Y006634D01*
X020044Y006634D01*
X019974Y006703D01*
X019974Y006745D01*
X019870Y006849D01*
X019722Y006849D01*
X019617Y006745D01*
X019617Y006597D01*
X019722Y006492D01*
X019763Y006492D01*
X019812Y006443D01*
X019812Y006116D01*
X019576Y006351D01*
X018951Y006351D01*
X018740Y006562D01*
X018748Y006562D01*
X018748Y006947D01*
X018787Y006947D01*
X018787Y006562D01*
X018905Y006562D01*
X018942Y006578D01*
X018970Y006605D01*
X018985Y006642D01*
X018985Y006947D01*
X018787Y006947D01*
X018787Y006987D01*
X018748Y006987D01*
X018748Y007371D01*
X018629Y007371D01*
X018593Y007356D01*
X018570Y007334D01*
X018558Y007347D01*
X018920Y007709D01*
X019007Y007796D01*
X019007Y007880D01*
X019037Y007909D01*
X019037Y008057D01*
X018932Y008162D01*
X018784Y008162D01*
X018679Y008057D01*
X018679Y007909D01*
X018689Y007900D01*
X018224Y007435D01*
X018224Y007371D01*
X018214Y007371D01*
X018177Y007334D01*
X018139Y007371D01*
X018129Y007371D01*
X018129Y007829D01*
X017773Y008185D01*
X017773Y008315D01*
X018260Y008315D01*
X018232Y008287D01*
X018097Y008287D01*
X017992Y008182D01*
X017992Y008034D01*
X018097Y007929D01*
X018245Y007929D01*
X018274Y007959D01*
X018326Y007959D01*
X018414Y008046D01*
X018561Y008193D01*
X018561Y008315D01*
X019209Y008315D01*
X019209Y007452D01*
X019584Y007077D01*
X019671Y006990D01*
X020421Y006990D01*
X020601Y006810D01*
X020601Y006517D01*
X020659Y006459D01*
X021057Y006459D01*
X021108Y006510D01*
X021159Y006459D01*
X021557Y006459D01*
X021612Y006514D01*
X021616Y006502D01*
X021644Y006474D01*
X021681Y006459D01*
X021819Y006459D01*
X021819Y006677D01*
X021897Y006677D01*
X021897Y006755D01*
X021819Y006755D01*
X021819Y006973D01*
X021681Y006973D01*
X021644Y006958D01*
X021616Y006930D01*
X021612Y006918D01*
X021557Y006973D01*
X021330Y006973D01*
X021306Y006997D01*
X021547Y006997D01*
X021547Y007205D01*
X021222Y007205D01*
X021222Y007081D01*
X020882Y007420D01*
X020795Y007507D01*
X019826Y007507D01*
X019748Y007586D01*
X019870Y007586D01*
X019974Y007690D01*
X019974Y007838D01*
X019971Y007842D01*
X019984Y007855D01*
X019984Y007872D01*
X019997Y007840D01*
X020025Y007812D01*
X020062Y007797D01*
X020170Y007797D01*
X020170Y008005D01*
X020190Y008005D01*
X020190Y008024D01*
X020378Y008024D01*
X020526Y008024D01*
X020526Y008005D01*
X020190Y008005D01*
X020190Y007797D01*
X020298Y007797D01*
X020335Y007812D01*
X020358Y007835D01*
X020382Y007812D01*
X020418Y007797D01*
X020526Y007797D01*
X020526Y008005D01*
X020546Y008005D01*
X020546Y007797D01*
X020654Y007797D01*
X020691Y007812D01*
X020719Y007840D01*
X020732Y007872D01*
X020732Y007855D01*
X020790Y007797D01*
X021050Y007797D01*
X021121Y007767D01*
X021220Y007767D01*
X021246Y007778D01*
X021280Y007745D01*
X021874Y007745D01*
X021932Y007803D01*
X021932Y007960D01*
X022074Y008101D01*
X022074Y008144D01*
X022327Y008144D01*
X022385Y008202D01*
X022385Y008784D01*
X022327Y008842D01*
X022024Y008842D01*
X021966Y008784D01*
X021966Y008662D01*
X021909Y008662D01*
X021820Y008574D01*
X021715Y008469D01*
X021715Y008250D01*
X021684Y008219D01*
X021315Y008219D01*
X021311Y008224D01*
X021220Y008261D01*
X021121Y008261D01*
X021120Y008261D01*
X021120Y008364D01*
X021129Y008373D01*
X021129Y008928D01*
X021071Y008986D01*
X020870Y008986D01*
X020865Y008981D01*
X020852Y008986D01*
X020773Y008986D01*
X020726Y008986D01*
X020726Y009015D01*
X020789Y009077D01*
X020789Y009223D01*
X020818Y009253D01*
X020818Y009401D01*
X020713Y009506D01*
X020565Y009506D01*
X020461Y009401D01*
X020461Y009381D01*
X020318Y009381D01*
X020318Y009401D01*
X020213Y009506D01*
X020065Y009506D01*
X019961Y009401D01*
X019961Y009352D01*
X019932Y009381D01*
X019784Y009381D01*
X019679Y009276D01*
X019679Y009128D01*
X019784Y009023D01*
X019826Y009023D01*
X019837Y009012D01*
X019837Y008986D01*
X019348Y008986D01*
X019348Y009043D01*
X019391Y009086D01*
X019432Y009086D01*
X019537Y009190D01*
X019537Y009338D01*
X019432Y009443D01*
X019284Y009443D01*
X019224Y009383D01*
X019224Y009463D01*
X019120Y009568D01*
X019040Y009568D01*
X019068Y009597D01*
X019068Y009745D01*
X018963Y009849D01*
X018815Y009849D01*
X018711Y009745D01*
X018711Y009703D01*
X018656Y009648D01*
X018656Y008986D01*
X018427Y008986D01*
X018506Y009065D01*
X018506Y009213D01*
X018401Y009318D01*
X018253Y009318D01*
X018148Y009213D01*
X018148Y009203D01*
X018146Y009201D01*
X018065Y009120D01*
X018065Y008986D01*
X017970Y008986D01*
X017970Y009051D01*
X017787Y009234D01*
X017787Y009276D01*
X017682Y009381D01*
X017534Y009381D01*
X017429Y009276D01*
X017429Y009128D01*
X017534Y009023D01*
X017576Y009023D01*
X017612Y008986D01*
X016395Y008986D01*
X016395Y009028D01*
X017576Y010209D01*
X018130Y010209D01*
X018159Y010179D01*
X018307Y010179D01*
X018412Y010284D01*
X018412Y010432D01*
X018307Y010537D01*
X018159Y010537D01*
X018130Y010507D01*
X017452Y010507D01*
X016097Y009152D01*
X016097Y008937D01*
X016087Y008928D01*
X016087Y008373D01*
X016146Y008315D01*
X016490Y008315D01*
X016490Y008046D01*
X016649Y007887D01*
X016649Y007371D01*
X016640Y007371D01*
X016602Y007334D01*
X016564Y007371D01*
X016246Y007371D01*
X016208Y007334D01*
X016186Y007356D01*
X016149Y007371D01*
X016031Y007371D01*
X016031Y006987D01*
X015992Y006987D01*
X015992Y007371D01*
X015932Y007371D01*
X015998Y007399D01*
X016068Y007468D01*
X016105Y007559D01*
X016105Y007657D01*
X016068Y007748D01*
X015998Y007818D01*
X015907Y007855D01*
X015809Y007855D01*
X015718Y007818D01*
X015649Y007748D01*
X015647Y007745D01*
X015503Y007600D01*
X015435Y007532D01*
X015435Y007564D01*
X015178Y007564D01*
X015178Y007229D01*
X015355Y007229D01*
X015392Y007244D01*
X015398Y007250D01*
X015398Y007026D01*
X015284Y006912D01*
X015061Y006912D01*
X015061Y007054D01*
X015002Y007113D01*
X014526Y007113D01*
X014468Y007054D01*
X014468Y006421D01*
X014526Y006363D01*
X014585Y006363D01*
X014585Y006295D01*
X014547Y006257D01*
X014547Y005978D01*
X014605Y005920D01*
X014622Y005920D01*
X014590Y005906D01*
X014562Y005878D01*
X014547Y005842D01*
X014547Y005734D01*
X014755Y005734D01*
X014755Y005714D01*
X014774Y005714D01*
X014774Y005526D01*
X014902Y005526D01*
X014939Y005541D01*
X014967Y005569D01*
X014982Y005606D01*
X014982Y005714D01*
X014774Y005714D01*
X014774Y005734D01*
X014982Y005734D01*
X014982Y005842D01*
X014967Y005878D01*
X014939Y005906D01*
X014907Y005920D01*
X014924Y005920D01*
X014982Y005978D01*
X014982Y006257D01*
X014944Y006295D01*
X014944Y006363D01*
X015002Y006363D01*
X015061Y006421D01*
X015061Y006554D01*
X015432Y006554D01*
X015537Y006659D01*
X015756Y006878D01*
X015756Y007346D01*
X015782Y007372D01*
X015809Y007361D01*
X015849Y007361D01*
X015837Y007356D01*
X015809Y007328D01*
X015794Y007292D01*
X015794Y006987D01*
X015992Y006987D01*
X015992Y006947D01*
X016031Y006947D01*
X016031Y006562D01*
X016149Y006562D01*
X016186Y006578D01*
X016208Y006600D01*
X016246Y006562D01*
X016256Y006562D01*
X016256Y006508D01*
X016249Y006505D01*
X016180Y006436D01*
X016142Y006345D01*
X016142Y006246D01*
X016180Y006156D01*
X016249Y006086D01*
X016340Y006049D01*
X016439Y006049D01*
X016529Y006086D01*
X016599Y006156D01*
X016636Y006246D01*
X016636Y006345D01*
X016599Y006436D01*
X016554Y006480D01*
X016554Y006562D01*
X016564Y006562D01*
X016602Y006600D01*
X016640Y006562D01*
X016958Y006562D01*
X016996Y006600D01*
X017033Y006562D01*
X017352Y006562D01*
X017389Y006600D01*
X017427Y006562D01*
X017745Y006562D01*
X017783Y006600D01*
X017821Y006562D01*
X018139Y006562D01*
X018177Y006600D01*
X018214Y006562D01*
X018318Y006562D01*
X018431Y006449D01*
X018340Y006449D01*
X018249Y006411D01*
X018180Y006342D01*
X018142Y006251D01*
X018142Y006153D01*
X018180Y006062D01*
X018249Y005992D01*
X018340Y005955D01*
X018439Y005955D01*
X018529Y005992D01*
X018599Y006062D01*
X018636Y006153D01*
X018636Y006244D01*
X018827Y006053D01*
X019452Y006053D01*
X019812Y005693D01*
X019812Y005391D01*
X019870Y005333D01*
X020213Y005333D01*
X020337Y005209D01*
X020641Y005209D01*
X020696Y005154D01*
X019615Y005154D01*
X019615Y005837D01*
X019557Y005895D01*
X019002Y005895D01*
X018944Y005837D01*
X018944Y005154D01*
X015835Y005154D01*
X015835Y005837D01*
X015777Y005895D01*
X015222Y005895D01*
X015164Y005837D01*
X015164Y005154D01*
X013237Y005154D01*
X013464Y005344D01*
X013667Y005696D01*
X013667Y005696D01*
X013738Y006097D01*
X013667Y006498D01*
X013464Y006850D01*
X013464Y006850D01*
X013464Y006850D01*
X013152Y007112D01*
X013152Y007112D01*
X012769Y007251D01*
X012362Y007251D01*
X011980Y007112D01*
X011980Y007112D01*
X011668Y006850D01*
X011622Y006772D01*
X011622Y007863D01*
X012382Y007863D01*
X012441Y007922D01*
X012441Y008218D01*
X013327Y008218D01*
X013385Y008276D01*
X013385Y008939D01*
X013380Y008944D01*
X013385Y008957D01*
X013385Y009060D01*
X013019Y009060D01*
X013019Y009070D01*
X013385Y009070D01*
X013385Y009173D01*
X013380Y009186D01*
X013385Y009191D01*
X013385Y009428D01*
X013701Y009428D01*
X013939Y009665D01*
X013939Y009565D01*
X014137Y009565D01*
X014137Y009526D01*
X014176Y009526D01*
X014176Y009269D01*
X014294Y009269D01*
X014331Y009284D01*
X014359Y009312D01*
X014374Y009349D01*
X014374Y009526D01*
X014176Y009526D01*
X014176Y009565D01*
X014137Y009565D01*
X014137Y009822D01*
X014096Y009822D01*
X014170Y009896D01*
X014276Y009896D01*
X014276Y009886D01*
X014334Y009828D01*
X014613Y009828D01*
X014671Y009885D01*
X014728Y009828D01*
X014773Y009828D01*
X014767Y009822D01*
X014588Y009822D01*
X014530Y009764D01*
X014530Y009327D01*
X014588Y009269D01*
X014906Y009269D01*
X014965Y009327D01*
X014965Y009584D01*
X015221Y009584D01*
X015221Y009537D01*
X015557Y009537D01*
X015893Y009537D01*
X015893Y009615D01*
X015887Y009628D01*
X015893Y009633D01*
X015893Y009781D01*
X016492Y009781D01*
X017545Y010834D01*
X018130Y010834D01*
X018159Y010804D01*
X018307Y010804D01*
X018412Y010909D01*
X018412Y011057D01*
X018307Y011162D01*
X018159Y011162D01*
X018130Y011132D01*
X017421Y011132D01*
X016504Y010215D01*
X016476Y010243D01*
X016476Y010545D01*
X016389Y010632D01*
X016154Y010867D01*
X015893Y010867D01*
X015893Y012340D01*
X015989Y012340D01*
X016326Y012678D01*
X016414Y012765D01*
X016414Y012848D01*
X016443Y012878D01*
X016443Y013026D01*
X016338Y013131D01*
X016190Y013131D01*
X016086Y013026D01*
X016086Y012878D01*
X016095Y012869D01*
X015893Y012666D01*
X015893Y013718D01*
X016023Y013718D01*
X016110Y013805D01*
X016195Y013890D01*
X016195Y014295D01*
X015914Y014576D01*
X015826Y014664D01*
X015774Y014664D01*
X015745Y014693D01*
X015597Y014693D01*
X015492Y014588D01*
X015492Y014440D01*
X015597Y014336D01*
X015732Y014336D01*
X015896Y014171D01*
X015896Y014017D01*
X015893Y014017D01*
X015893Y014164D01*
X015834Y014222D01*
X015299Y014222D01*
X015224Y014297D01*
X015224Y014338D01*
X015120Y014443D01*
X014972Y014443D01*
X014867Y014338D01*
X014867Y014279D01*
X014323Y014823D01*
X014236Y014911D01*
X013840Y014911D01*
X013840Y014920D01*
X013803Y014958D01*
X013840Y014996D01*
X013840Y015314D01*
X013803Y015352D01*
X013825Y015374D01*
X013840Y015411D01*
X013840Y015529D01*
X013455Y015529D01*
X013455Y015568D01*
X013416Y015568D01*
X013416Y015529D01*
X013031Y015529D01*
X013031Y015411D01*
X013046Y015374D01*
X013069Y015352D01*
X013031Y015314D01*
X013031Y015304D01*
X012980Y015304D01*
X012936Y015349D01*
X012845Y015386D01*
X012746Y015386D01*
X012656Y015349D01*
X012586Y015279D01*
X012549Y015189D01*
X012549Y015090D01*
X012586Y014999D01*
X012656Y014930D01*
X012746Y014892D01*
X012845Y014892D01*
X012936Y014930D01*
X013005Y014999D01*
X013008Y015006D01*
X013031Y015006D01*
X013031Y014996D01*
X013069Y014958D01*
X013031Y014920D01*
X013031Y014602D01*
X013069Y014564D01*
X013031Y014527D01*
X013031Y014208D01*
X013069Y014171D01*
X013031Y014133D01*
X013031Y013814D01*
X013069Y013777D01*
X013031Y013739D01*
X013031Y013421D01*
X013069Y013383D01*
X013031Y013346D01*
X013031Y013027D01*
X013069Y012990D01*
X013031Y012952D01*
X013031Y012633D01*
X013089Y012575D01*
X013782Y012575D01*
X013840Y012633D01*
X013840Y012643D01*
X014018Y012643D01*
X014209Y012452D01*
X014209Y011732D01*
X014040Y011732D01*
X013982Y011674D01*
X013982Y011657D01*
X013982Y011657D01*
X013969Y011689D01*
X013941Y011717D01*
X013904Y011732D01*
X013796Y011732D01*
X013796Y011524D01*
X013982Y011524D01*
X013982Y011505D01*
X013796Y011505D01*
X013796Y011524D01*
X013776Y011524D01*
X013776Y011505D01*
X013588Y011505D01*
X013588Y011376D01*
X013604Y011340D01*
X013632Y011312D01*
X013668Y011297D01*
X013776Y011297D01*
X013776Y011505D01*
X013796Y011505D01*
X013796Y011297D01*
X013804Y011297D01*
X013804Y011159D01*
X013814Y011149D01*
X013776Y011111D01*
X013776Y010793D01*
X013834Y010735D01*
X013834Y010607D01*
X013464Y010238D01*
X013385Y010238D01*
X013385Y010878D01*
X013327Y010936D01*
X012441Y010936D01*
X012441Y011232D01*
X012382Y011290D01*
X011622Y011290D01*
X011622Y011945D01*
X012306Y011945D01*
X012364Y012003D01*
X012364Y012558D01*
X012306Y012616D01*
X011622Y012616D01*
X011622Y015725D01*
X012306Y015725D01*
X012364Y015783D01*
X012364Y016338D01*
X012306Y016396D01*
X011622Y016396D01*
X011622Y017430D01*
X011668Y017352D01*
X011668Y017352D01*
X011980Y017090D01*
X012362Y016951D01*
X012769Y016951D01*
X013152Y017090D01*
X013464Y017352D01*
X013667Y017704D01*
X013667Y017704D01*
X013738Y018105D01*
X013738Y018105D01*
X013667Y018506D01*
X013464Y018858D01*
X013237Y019048D01*
X023902Y019048D01*
X023676Y018858D01*
X023472Y018506D01*
X023402Y018105D01*
X023472Y017704D01*
X023676Y017352D01*
X023676Y017352D01*
X023988Y017090D01*
X024370Y016951D01*
X024777Y016951D01*
X025160Y017090D01*
X025472Y017352D01*
X025517Y017430D01*
X025517Y016614D01*
X025047Y016614D01*
X025047Y016179D01*
X024969Y016179D01*
X024969Y016614D01*
X024488Y016614D01*
X024452Y016599D01*
X024424Y016571D01*
X024409Y016534D01*
X024409Y016179D01*
X024969Y016179D01*
X024969Y016100D01*
X024969Y016060D02*
X025047Y016060D01*
X025047Y015983D02*
X024969Y015983D01*
X024969Y015905D02*
X025047Y015905D01*
X025047Y015828D02*
X024969Y015828D01*
X024969Y015751D02*
X025047Y015751D01*
X025047Y015674D02*
X024969Y015674D01*
X024468Y015674D02*
X023009Y015674D01*
X023086Y015751D02*
X023557Y015751D01*
X023480Y015828D02*
X023164Y015828D01*
X023219Y015905D02*
X023402Y015905D01*
X023334Y015983D02*
X023242Y015983D01*
X023242Y016060D02*
X023334Y016060D01*
X023694Y016060D02*
X023772Y016060D01*
X023772Y015983D02*
X023694Y015983D01*
X023694Y015905D02*
X023772Y015905D01*
X023772Y015828D02*
X023694Y015828D01*
X023694Y015751D02*
X023772Y015751D01*
X023909Y015751D02*
X024409Y015751D01*
X024409Y015828D02*
X023987Y015828D01*
X024064Y015905D02*
X024409Y015905D01*
X024409Y015983D02*
X024132Y015983D01*
X024132Y016060D02*
X024409Y016060D01*
X024409Y016214D02*
X024132Y016214D01*
X024132Y016291D02*
X024409Y016291D01*
X024409Y016369D02*
X024069Y016369D01*
X023991Y016446D02*
X024409Y016446D01*
X024409Y016523D02*
X023914Y016523D01*
X024456Y016600D02*
X022638Y016600D01*
X022636Y016678D02*
X025517Y016678D01*
X025517Y016755D02*
X022603Y016755D01*
X022638Y016832D02*
X025517Y016832D01*
X025517Y016909D02*
X022638Y016909D01*
X022638Y016987D02*
X024271Y016987D01*
X024059Y017064D02*
X022638Y017064D01*
X022570Y017141D02*
X023927Y017141D01*
X023988Y017090D02*
X023988Y017090D01*
X023835Y017218D02*
X022570Y017218D01*
X022570Y017296D02*
X023743Y017296D01*
X023676Y017352D02*
X023676Y017352D01*
X023664Y017373D02*
X022570Y017373D01*
X022570Y017450D02*
X023619Y017450D01*
X023574Y017527D02*
X022570Y017527D01*
X022570Y017605D02*
X023530Y017605D01*
X023485Y017682D02*
X022570Y017682D01*
X022568Y017759D02*
X023463Y017759D01*
X023472Y017704D02*
X023472Y017704D01*
X023449Y017836D02*
X022508Y017836D01*
X022271Y017836D02*
X022133Y017836D01*
X022088Y017881D02*
X021940Y017881D01*
X021836Y017776D01*
X021836Y017734D01*
X021834Y017732D01*
X021834Y017128D01*
X021824Y017128D01*
X021766Y017070D01*
X021766Y016790D01*
X021823Y016733D01*
X021766Y016676D01*
X021766Y016397D01*
X021804Y016358D01*
X021804Y016222D01*
X021909Y016117D01*
X022057Y016117D01*
X022162Y016222D01*
X022162Y016358D01*
X022201Y016397D01*
X022201Y016676D01*
X022143Y016733D01*
X022201Y016790D01*
X022201Y017070D01*
X022142Y017128D01*
X022132Y017128D01*
X022132Y017567D01*
X022193Y017628D01*
X022193Y017776D01*
X022088Y017881D01*
X022193Y017759D02*
X022211Y017759D01*
X022211Y017682D02*
X022193Y017682D01*
X022170Y017605D02*
X022234Y017605D01*
X022271Y017527D02*
X022132Y017527D01*
X022132Y017450D02*
X022271Y017450D01*
X022271Y017373D02*
X022132Y017373D01*
X022132Y017296D02*
X022271Y017296D01*
X022271Y017218D02*
X022132Y017218D01*
X022132Y017141D02*
X022271Y017141D01*
X022203Y017064D02*
X022201Y017064D01*
X022201Y016987D02*
X022203Y016987D01*
X022201Y016909D02*
X022203Y016909D01*
X022201Y016832D02*
X022203Y016832D01*
X022165Y016755D02*
X022239Y016755D01*
X022205Y016678D02*
X022199Y016678D01*
X022201Y016600D02*
X022203Y016600D01*
X022201Y016523D02*
X022203Y016523D01*
X022201Y016446D02*
X022203Y016446D01*
X022231Y016369D02*
X022173Y016369D01*
X022162Y016291D02*
X022242Y016291D01*
X022249Y016214D02*
X022155Y016214D01*
X022077Y016137D02*
X022326Y016137D01*
X022515Y016137D02*
X022739Y016137D01*
X022816Y016214D02*
X022592Y016214D01*
X022662Y016060D02*
X020711Y016060D01*
X020726Y016045D02*
X020570Y016201D01*
X020570Y016268D01*
X020597Y016242D01*
X020745Y016242D01*
X020849Y016347D01*
X020849Y016495D01*
X020757Y016587D01*
X020757Y018139D01*
X020320Y018576D01*
X020232Y018664D01*
X019296Y018664D01*
X019209Y018576D01*
X019131Y018498D01*
X018928Y018701D01*
X018840Y018789D01*
X018621Y018789D01*
X018621Y018858D01*
X018563Y018916D01*
X018244Y018916D01*
X018186Y018858D01*
X018186Y018421D01*
X018226Y018381D01*
X018190Y018381D01*
X018086Y018276D01*
X018086Y018128D01*
X018190Y018023D01*
X018232Y018023D01*
X018405Y017850D01*
X018122Y017850D01*
X018115Y017843D01*
X017670Y017843D01*
X017639Y017874D01*
X017202Y017874D01*
X017144Y017816D01*
X017144Y017789D01*
X017013Y017789D01*
X017013Y017851D01*
X016955Y017909D01*
X016862Y017909D01*
X016820Y017951D01*
X016732Y018039D01*
X016314Y018039D01*
X016314Y018268D01*
X016261Y018320D01*
X016297Y018355D01*
X016297Y018372D01*
X016310Y018340D01*
X016338Y018312D01*
X016374Y018297D01*
X016483Y018297D01*
X016483Y018505D01*
X016502Y018505D01*
X016502Y018524D01*
X016483Y018524D01*
X016483Y018732D01*
X016374Y018732D01*
X016338Y018717D01*
X016310Y018689D01*
X016297Y018657D01*
X016297Y018674D01*
X016238Y018732D01*
X015959Y018732D01*
X015901Y018674D01*
X015901Y018664D01*
X015609Y018664D01*
X015521Y018576D01*
X015455Y018510D01*
X015455Y018326D01*
X015445Y018326D01*
X015387Y018268D01*
X015387Y018241D01*
X015330Y018241D01*
X015330Y018246D01*
X015314Y018283D01*
X015286Y018311D01*
X015250Y018326D01*
X015132Y018326D01*
X015132Y018241D01*
X015092Y018241D01*
X015092Y018326D01*
X014974Y018326D01*
X014938Y018311D01*
X014910Y018283D01*
X014895Y018246D01*
X014895Y018241D01*
X014837Y018241D01*
X014837Y018268D01*
X014779Y018326D01*
X014461Y018326D01*
X014402Y018268D01*
X014402Y017752D01*
X014461Y017694D01*
X014506Y017694D01*
X014506Y017460D01*
X014461Y017460D01*
X014402Y017401D01*
X014402Y016886D01*
X014461Y016828D01*
X014779Y016828D01*
X014837Y016886D01*
X014837Y016913D01*
X014895Y016913D01*
X014895Y016886D01*
X014953Y016828D01*
X015271Y016828D01*
X015330Y016886D01*
X015330Y016913D01*
X015387Y016913D01*
X015387Y016886D01*
X015445Y016828D01*
X015455Y016828D01*
X015455Y016613D01*
X015565Y016503D01*
X015543Y016503D01*
X015484Y016445D01*
X015484Y016165D01*
X015542Y016108D01*
X015484Y016051D01*
X015484Y015772D01*
X015543Y015713D01*
X015709Y015713D01*
X015709Y015649D01*
X015679Y015620D01*
X015679Y015472D01*
X015700Y015451D01*
X015609Y015451D01*
X015609Y015243D01*
X015589Y015243D01*
X015589Y015451D01*
X015481Y015451D01*
X015444Y015435D01*
X015416Y015408D01*
X015401Y015371D01*
X015401Y015243D01*
X015589Y015243D01*
X015589Y015223D01*
X015609Y015223D01*
X015609Y015016D01*
X015717Y015016D01*
X015753Y015031D01*
X015781Y015059D01*
X015795Y015091D01*
X015795Y015074D01*
X015853Y015016D01*
X016021Y015016D01*
X016087Y014949D01*
X016087Y014476D01*
X016146Y014417D01*
X016346Y014417D01*
X016351Y014423D01*
X016364Y014417D01*
X016443Y014417D01*
X016522Y014417D01*
X016534Y014423D01*
X016539Y014417D01*
X017278Y014417D01*
X017278Y013759D01*
X017365Y013671D01*
X017492Y013544D01*
X017492Y013503D01*
X017597Y013398D01*
X017745Y013398D01*
X017827Y013480D01*
X017878Y013429D01*
X018026Y013429D01*
X018131Y013534D01*
X018131Y013648D01*
X018154Y013648D01*
X018259Y013753D01*
X018259Y013901D01*
X018257Y013902D01*
X018257Y014357D01*
X018198Y014417D01*
X020874Y014417D01*
X020879Y014423D01*
X020892Y014417D01*
X020970Y014417D01*
X020970Y014753D01*
X020970Y014753D01*
X020970Y015089D01*
X020923Y015089D01*
X020923Y015172D01*
X020988Y015172D01*
X021047Y015230D01*
X021047Y015247D01*
X021060Y015215D01*
X021088Y015187D01*
X021124Y015172D01*
X021233Y015172D01*
X021233Y015380D01*
X021252Y015380D01*
X021252Y015399D01*
X021233Y015399D01*
X021233Y015607D01*
X021124Y015607D01*
X021088Y015592D01*
X021060Y015564D01*
X021047Y015532D01*
X021047Y015549D01*
X021033Y015562D01*
X021037Y015565D01*
X021037Y015713D01*
X020932Y015818D01*
X020784Y015818D01*
X020726Y015760D01*
X020726Y016045D01*
X020726Y015983D02*
X022584Y015983D01*
X022265Y015905D02*
X020726Y015905D01*
X020726Y015828D02*
X022249Y015828D01*
X022249Y015751D02*
X020999Y015751D01*
X021037Y015674D02*
X022249Y015674D01*
X022249Y015596D02*
X021386Y015596D01*
X021397Y015592D02*
X021361Y015607D01*
X021252Y015607D01*
X021252Y015399D01*
X021440Y015399D01*
X021440Y015527D01*
X021425Y015564D01*
X021397Y015592D01*
X021440Y015519D02*
X022249Y015519D01*
X022249Y015442D02*
X021440Y015442D01*
X021440Y015380D02*
X021252Y015380D01*
X021252Y015172D01*
X021361Y015172D01*
X021397Y015187D01*
X021425Y015215D01*
X021440Y015251D01*
X021440Y015380D01*
X021440Y015365D02*
X022249Y015365D01*
X022249Y015287D02*
X021440Y015287D01*
X021420Y015210D02*
X022295Y015210D01*
X022410Y015081D02*
X021934Y015081D01*
X021875Y015023D01*
X021875Y014695D01*
X021399Y014695D01*
X020868Y014164D01*
X019359Y014164D01*
X018515Y013320D01*
X017055Y013320D01*
X017026Y013349D01*
X016878Y013349D01*
X016773Y013245D01*
X016773Y013097D01*
X016878Y012992D01*
X017026Y012992D01*
X017055Y013021D01*
X018639Y013021D01*
X018726Y013109D01*
X019482Y013865D01*
X020991Y013865D01*
X021523Y014396D01*
X021875Y014396D01*
X021875Y014390D01*
X021934Y014331D01*
X022410Y014331D01*
X022468Y014390D01*
X022468Y015023D01*
X022410Y015081D01*
X022435Y015056D02*
X022656Y015056D01*
X022623Y014978D02*
X022468Y014978D01*
X022468Y014901D02*
X022623Y014901D01*
X022623Y014824D02*
X022468Y014824D01*
X022468Y014747D02*
X022623Y014747D01*
X022623Y014669D02*
X022468Y014669D01*
X022468Y014592D02*
X022623Y014592D01*
X022623Y014515D02*
X022468Y014515D01*
X022468Y014438D02*
X022623Y014438D01*
X022653Y014360D02*
X022439Y014360D01*
X021904Y014360D02*
X021487Y014360D01*
X021410Y014283D02*
X023759Y014283D01*
X023694Y014515D02*
X024409Y014515D01*
X024409Y014438D02*
X023216Y014438D01*
X023187Y014360D02*
X024409Y014360D01*
X024445Y014592D02*
X023771Y014592D01*
X023849Y014669D02*
X024463Y014669D01*
X024409Y014747D02*
X024081Y014747D01*
X023334Y014978D02*
X023216Y014978D01*
X023183Y015056D02*
X023334Y015056D01*
X023334Y015133D02*
X020923Y015133D01*
X020970Y015089D02*
X020970Y014753D01*
X020970Y014753D01*
X020970Y014417D01*
X021049Y014417D01*
X021086Y014433D01*
X021114Y014461D01*
X021129Y014497D01*
X021129Y014753D01*
X020970Y014753D01*
X020970Y014753D01*
X021129Y014753D01*
X021129Y015009D01*
X021114Y015046D01*
X021086Y015074D01*
X021049Y015089D01*
X020970Y015089D01*
X020970Y015056D02*
X020970Y015056D01*
X020970Y014978D02*
X020970Y014978D01*
X020970Y014901D02*
X020970Y014901D01*
X020970Y014824D02*
X020970Y014824D01*
X020970Y014747D02*
X020970Y014747D01*
X020970Y014669D02*
X020970Y014669D01*
X020970Y014592D02*
X020970Y014592D01*
X020970Y014515D02*
X020970Y014515D01*
X020970Y014438D02*
X020970Y014438D01*
X021091Y014438D02*
X021142Y014438D01*
X021129Y014515D02*
X021219Y014515D01*
X021296Y014592D02*
X021129Y014592D01*
X021129Y014669D02*
X021373Y014669D01*
X021129Y014747D02*
X021875Y014747D01*
X021875Y014824D02*
X021129Y014824D01*
X021129Y014901D02*
X021875Y014901D01*
X021875Y014978D02*
X021129Y014978D01*
X021104Y015056D02*
X021908Y015056D01*
X021252Y015210D02*
X021233Y015210D01*
X021233Y015287D02*
X021252Y015287D01*
X021252Y015365D02*
X021233Y015365D01*
X021233Y015442D02*
X021252Y015442D01*
X021252Y015519D02*
X021233Y015519D01*
X021233Y015596D02*
X021252Y015596D01*
X021099Y015596D02*
X021037Y015596D01*
X021027Y015210D02*
X021065Y015210D01*
X019959Y015528D02*
X019959Y015920D01*
X020023Y015984D01*
X020023Y016026D01*
X020128Y016131D01*
X020271Y016131D01*
X020271Y017890D01*
X019984Y018178D01*
X019757Y018178D01*
X019757Y017850D01*
X020094Y017850D01*
X020152Y017792D01*
X020152Y017596D01*
X020152Y017596D01*
X020152Y017595D01*
X020152Y017399D01*
X020152Y017399D01*
X020152Y017399D01*
X020152Y017202D01*
X020152Y017202D01*
X020152Y017202D01*
X020152Y017005D01*
X020152Y017005D01*
X020152Y017005D01*
X020152Y016808D01*
X020146Y016802D01*
X020152Y016787D01*
X020152Y016710D01*
X019896Y016710D01*
X019896Y016710D01*
X020152Y016710D01*
X020152Y016633D01*
X020137Y016596D01*
X020109Y016568D01*
X020073Y016553D01*
X019896Y016553D01*
X019896Y016710D01*
X019896Y016710D01*
X019896Y016710D01*
X019639Y016710D01*
X019639Y016787D01*
X019645Y016802D01*
X019639Y016808D01*
X019639Y017005D01*
X019639Y017005D01*
X019639Y017005D01*
X019639Y017202D01*
X019639Y017202D01*
X019639Y017202D01*
X019639Y017399D01*
X019639Y017399D01*
X019639Y017399D01*
X019639Y017595D01*
X019639Y017596D01*
X019639Y017596D01*
X019639Y017732D01*
X019502Y017732D01*
X019502Y017733D01*
X019502Y017732D01*
X019305Y017732D01*
X019305Y017733D01*
X019305Y017732D01*
X019108Y017732D01*
X019108Y017733D01*
X019108Y017732D01*
X018911Y017732D01*
X018911Y017733D01*
X018911Y017732D01*
X018715Y017732D01*
X018714Y017733D01*
X018714Y017732D01*
X018578Y017732D01*
X018578Y017596D01*
X018577Y017596D01*
X018578Y017595D01*
X018578Y017399D01*
X018577Y017399D01*
X018578Y017399D01*
X018578Y017202D01*
X018577Y017202D01*
X018578Y017202D01*
X018578Y017005D01*
X018577Y017005D01*
X018578Y017005D01*
X018578Y016808D01*
X018571Y016802D01*
X018578Y016787D01*
X018578Y016710D01*
X018321Y016710D01*
X018321Y016710D01*
X018578Y016710D01*
X018578Y016671D01*
X018714Y016671D01*
X018714Y016671D01*
X018715Y016671D01*
X018911Y016671D01*
X018911Y016671D01*
X018911Y016671D01*
X019108Y016671D01*
X019108Y016671D01*
X019108Y016671D01*
X019305Y016671D01*
X019305Y016671D01*
X019305Y016671D01*
X019502Y016671D01*
X019502Y016671D01*
X019502Y016671D01*
X019639Y016671D01*
X019639Y016710D01*
X019896Y016710D01*
X019896Y016553D01*
X019757Y016553D01*
X019757Y016216D01*
X019750Y016209D01*
X019750Y015737D01*
X019959Y015528D01*
X019959Y015596D02*
X019890Y015596D01*
X019959Y015674D02*
X019813Y015674D01*
X019750Y015751D02*
X019959Y015751D01*
X019959Y015828D02*
X019750Y015828D01*
X019750Y015905D02*
X019959Y015905D01*
X020021Y015983D02*
X019750Y015983D01*
X019750Y016060D02*
X020057Y016060D01*
X020271Y016137D02*
X019750Y016137D01*
X019755Y016214D02*
X020271Y016214D01*
X020271Y016291D02*
X019757Y016291D01*
X019757Y016369D02*
X020271Y016369D01*
X020271Y016446D02*
X019757Y016446D01*
X019757Y016523D02*
X020271Y016523D01*
X020271Y016600D02*
X020139Y016600D01*
X020152Y016678D02*
X020271Y016678D01*
X020271Y016755D02*
X020152Y016755D01*
X020152Y016832D02*
X020271Y016832D01*
X020271Y016909D02*
X020152Y016909D01*
X020152Y016987D02*
X020271Y016987D01*
X020271Y017064D02*
X020152Y017064D01*
X020152Y017141D02*
X020271Y017141D01*
X020271Y017218D02*
X020152Y017218D01*
X020152Y017296D02*
X020271Y017296D01*
X020271Y017373D02*
X020152Y017373D01*
X020152Y017450D02*
X020271Y017450D01*
X020271Y017527D02*
X020152Y017527D01*
X020152Y017605D02*
X020271Y017605D01*
X020271Y017682D02*
X020152Y017682D01*
X020152Y017759D02*
X020271Y017759D01*
X020271Y017836D02*
X020108Y017836D01*
X020248Y017914D02*
X019757Y017914D01*
X019757Y017991D02*
X020170Y017991D01*
X020093Y018068D02*
X019757Y018068D01*
X019757Y018145D02*
X020016Y018145D01*
X020365Y018531D02*
X023487Y018531D01*
X023472Y018506D02*
X023472Y018506D01*
X023463Y018454D02*
X020442Y018454D01*
X020519Y018377D02*
X023450Y018377D01*
X023436Y018300D02*
X020597Y018300D01*
X020674Y018222D02*
X023422Y018222D01*
X023409Y018145D02*
X020751Y018145D01*
X020757Y018068D02*
X023408Y018068D01*
X023402Y018105D02*
X023402Y018105D01*
X023422Y017991D02*
X020757Y017991D01*
X020757Y017914D02*
X023435Y017914D01*
X023532Y018609D02*
X020288Y018609D01*
X020757Y017836D02*
X021490Y017836D01*
X021534Y017881D02*
X021429Y017776D01*
X021429Y017734D01*
X021396Y017701D01*
X021396Y017128D01*
X021386Y017128D01*
X021328Y017070D01*
X021328Y016790D01*
X021385Y016733D01*
X021347Y016695D01*
X021306Y016695D01*
X021267Y016734D01*
X021251Y016734D01*
X021283Y016747D01*
X021310Y016775D01*
X021326Y016812D01*
X021326Y016920D01*
X021118Y016920D01*
X021118Y016940D01*
X021098Y016940D01*
X021098Y016920D01*
X020891Y016920D01*
X020891Y016812D01*
X020906Y016775D01*
X020934Y016747D01*
X020966Y016734D01*
X020949Y016734D01*
X020891Y016676D01*
X020891Y016397D01*
X020949Y016338D01*
X021267Y016338D01*
X021325Y016396D01*
X021329Y016396D01*
X021367Y016358D01*
X021367Y016222D01*
X021472Y016117D01*
X021620Y016117D01*
X021724Y016222D01*
X021724Y016358D01*
X021763Y016397D01*
X021763Y016676D01*
X021706Y016733D01*
X021763Y016790D01*
X021763Y017070D01*
X021705Y017128D01*
X021695Y017128D01*
X021695Y017536D01*
X021787Y017628D01*
X021787Y017776D01*
X021682Y017881D01*
X021534Y017881D01*
X021429Y017759D02*
X020757Y017759D01*
X020757Y017682D02*
X021396Y017682D01*
X021396Y017605D02*
X020757Y017605D01*
X020757Y017527D02*
X021396Y017527D01*
X021396Y017450D02*
X020757Y017450D01*
X020757Y017373D02*
X021396Y017373D01*
X021396Y017296D02*
X020757Y017296D01*
X020757Y017218D02*
X021396Y017218D01*
X021396Y017141D02*
X020757Y017141D01*
X020757Y017064D02*
X020897Y017064D01*
X020891Y017048D02*
X020891Y016940D01*
X021098Y016940D01*
X021098Y017128D01*
X020970Y017128D01*
X020934Y017113D01*
X020906Y017085D01*
X020891Y017048D01*
X020891Y016987D02*
X020757Y016987D01*
X020757Y016909D02*
X020891Y016909D01*
X020891Y016832D02*
X020757Y016832D01*
X020757Y016755D02*
X020926Y016755D01*
X020892Y016678D02*
X020757Y016678D01*
X020757Y016600D02*
X020891Y016600D01*
X020891Y016523D02*
X020821Y016523D01*
X020849Y016446D02*
X020891Y016446D01*
X020919Y016369D02*
X020849Y016369D01*
X020794Y016291D02*
X021367Y016291D01*
X021374Y016214D02*
X020570Y016214D01*
X020634Y016137D02*
X021451Y016137D01*
X021640Y016137D02*
X021889Y016137D01*
X021812Y016214D02*
X021717Y016214D01*
X021724Y016291D02*
X021804Y016291D01*
X021794Y016369D02*
X021735Y016369D01*
X021763Y016446D02*
X021766Y016446D01*
X021763Y016523D02*
X021766Y016523D01*
X021763Y016600D02*
X021766Y016600D01*
X021761Y016678D02*
X021767Y016678D01*
X021801Y016755D02*
X021728Y016755D01*
X021763Y016832D02*
X021766Y016832D01*
X021763Y016909D02*
X021766Y016909D01*
X021763Y016987D02*
X021766Y016987D01*
X021763Y017064D02*
X021766Y017064D01*
X021834Y017141D02*
X021695Y017141D01*
X021695Y017218D02*
X021834Y017218D01*
X021834Y017296D02*
X021695Y017296D01*
X021695Y017373D02*
X021834Y017373D01*
X021834Y017450D02*
X021695Y017450D01*
X021695Y017527D02*
X021834Y017527D01*
X021834Y017605D02*
X021764Y017605D01*
X021787Y017682D02*
X021834Y017682D01*
X021836Y017759D02*
X021787Y017759D01*
X021726Y017836D02*
X021896Y017836D01*
X021283Y017113D02*
X021246Y017128D01*
X021118Y017128D01*
X021118Y016940D01*
X021326Y016940D01*
X021326Y017048D01*
X021310Y017085D01*
X021283Y017113D01*
X021319Y017064D02*
X021328Y017064D01*
X021326Y016987D02*
X021328Y016987D01*
X021326Y016909D02*
X021328Y016909D01*
X021326Y016832D02*
X021328Y016832D01*
X021290Y016755D02*
X021364Y016755D01*
X021118Y016987D02*
X021098Y016987D01*
X021098Y017064D02*
X021118Y017064D01*
X021298Y016369D02*
X021356Y016369D01*
X019896Y016600D02*
X019896Y016600D01*
X019896Y016678D02*
X019896Y016678D01*
X019639Y016678D02*
X018578Y016678D01*
X018578Y016755D02*
X019639Y016755D01*
X019639Y016832D02*
X018578Y016832D01*
X018578Y016909D02*
X018866Y016909D01*
X018870Y016906D02*
X019346Y016906D01*
X019404Y016964D01*
X019404Y017440D01*
X019346Y017498D01*
X018870Y017498D01*
X018812Y017440D01*
X018812Y016964D01*
X018870Y016906D01*
X018812Y016987D02*
X018578Y016987D01*
X018578Y017064D02*
X018812Y017064D01*
X018812Y017141D02*
X018578Y017141D01*
X018578Y017218D02*
X018812Y017218D01*
X018812Y017296D02*
X018578Y017296D01*
X018578Y017373D02*
X018812Y017373D01*
X018822Y017450D02*
X018578Y017450D01*
X018578Y017527D02*
X019639Y017527D01*
X019639Y017450D02*
X019394Y017450D01*
X019404Y017373D02*
X019639Y017373D01*
X019639Y017296D02*
X019404Y017296D01*
X019404Y017218D02*
X019639Y017218D01*
X019639Y017141D02*
X019404Y017141D01*
X019404Y017064D02*
X019639Y017064D01*
X019639Y016987D02*
X019404Y016987D01*
X019350Y016909D02*
X019639Y016909D01*
X019639Y017605D02*
X018578Y017605D01*
X018578Y017682D02*
X019639Y017682D01*
X018341Y017914D02*
X016858Y017914D01*
X016780Y017991D02*
X018264Y017991D01*
X018145Y018068D02*
X017677Y018068D01*
X017682Y018073D02*
X017697Y018109D01*
X017697Y018227D01*
X017440Y018227D01*
X017440Y018030D01*
X017618Y018030D01*
X017654Y018045D01*
X017682Y018073D01*
X017697Y018145D02*
X018086Y018145D01*
X018086Y018222D02*
X017697Y018222D01*
X017697Y018267D02*
X017697Y018363D01*
X017793Y018363D01*
X017793Y018620D01*
X017595Y018620D01*
X017595Y018465D01*
X017440Y018465D01*
X017440Y018267D01*
X017401Y018267D01*
X017401Y018465D01*
X017224Y018465D01*
X017187Y018449D01*
X017159Y018422D01*
X017144Y018385D01*
X017144Y018267D01*
X017401Y018267D01*
X017401Y018227D01*
X017440Y018227D01*
X017440Y018267D01*
X017697Y018267D01*
X017697Y018300D02*
X018109Y018300D01*
X018187Y018377D02*
X017985Y018377D01*
X017987Y018378D02*
X018015Y018406D01*
X018030Y018442D01*
X018030Y018620D01*
X017833Y018620D01*
X017833Y018659D01*
X018030Y018659D01*
X018030Y018836D01*
X018015Y018873D01*
X017987Y018901D01*
X017951Y018916D01*
X017833Y018916D01*
X017833Y018659D01*
X017793Y018659D01*
X017793Y018620D01*
X017833Y018620D01*
X017833Y018363D01*
X017951Y018363D01*
X017987Y018378D01*
X018030Y018454D02*
X018186Y018454D01*
X018186Y018531D02*
X018030Y018531D01*
X018030Y018609D02*
X018186Y018609D01*
X018186Y018686D02*
X018030Y018686D01*
X018030Y018763D02*
X018186Y018763D01*
X018186Y018840D02*
X018029Y018840D01*
X017833Y018840D02*
X017793Y018840D01*
X017793Y018916D02*
X017793Y018659D01*
X017595Y018659D01*
X017595Y018836D01*
X017610Y018873D01*
X017638Y018901D01*
X017675Y018916D01*
X017793Y018916D01*
X017793Y018763D02*
X017833Y018763D01*
X017833Y018686D02*
X017793Y018686D01*
X017793Y018609D02*
X017833Y018609D01*
X017833Y018531D02*
X017793Y018531D01*
X017793Y018454D02*
X017833Y018454D01*
X017833Y018377D02*
X017793Y018377D01*
X017595Y018531D02*
X016690Y018531D01*
X016690Y018524D02*
X016690Y018652D01*
X016675Y018689D01*
X016647Y018717D01*
X016611Y018732D01*
X016502Y018732D01*
X016502Y018524D01*
X016690Y018524D01*
X016690Y018505D02*
X016502Y018505D01*
X016502Y018297D01*
X016611Y018297D01*
X016647Y018312D01*
X016675Y018340D01*
X016690Y018376D01*
X016690Y018505D01*
X016690Y018454D02*
X017199Y018454D01*
X017144Y018377D02*
X016690Y018377D01*
X016617Y018300D02*
X017144Y018300D01*
X017144Y018227D02*
X017144Y018109D01*
X017159Y018073D01*
X017187Y018045D01*
X017224Y018030D01*
X017401Y018030D01*
X017401Y018227D01*
X017144Y018227D01*
X017144Y018222D02*
X016314Y018222D01*
X016314Y018145D02*
X017144Y018145D01*
X017164Y018068D02*
X016314Y018068D01*
X016282Y018300D02*
X016367Y018300D01*
X016483Y018300D02*
X016502Y018300D01*
X016502Y018377D02*
X016483Y018377D01*
X016483Y018454D02*
X016502Y018454D01*
X016502Y018531D02*
X016483Y018531D01*
X016483Y018609D02*
X016502Y018609D01*
X016502Y018686D02*
X016483Y018686D01*
X016309Y018686D02*
X016284Y018686D01*
X015913Y018686D02*
X013563Y018686D01*
X013519Y018763D02*
X017595Y018763D01*
X017595Y018686D02*
X016676Y018686D01*
X016690Y018609D02*
X017595Y018609D01*
X017440Y018454D02*
X017401Y018454D01*
X017401Y018377D02*
X017440Y018377D01*
X017440Y018300D02*
X017401Y018300D01*
X017401Y018222D02*
X017440Y018222D01*
X017440Y018145D02*
X017401Y018145D01*
X017401Y018068D02*
X017440Y018068D01*
X017164Y017836D02*
X017013Y017836D01*
X016578Y017740D02*
X016578Y017572D01*
X016636Y017513D01*
X016653Y017513D01*
X016621Y017500D01*
X016593Y017472D01*
X016578Y017436D01*
X016578Y017327D01*
X016786Y017327D01*
X016786Y017308D01*
X016578Y017308D01*
X016578Y017199D01*
X016593Y017163D01*
X016621Y017135D01*
X016658Y017120D01*
X016786Y017120D01*
X016786Y017308D01*
X016805Y017308D01*
X016805Y017120D01*
X016933Y017120D01*
X016970Y017135D01*
X016998Y017163D01*
X017013Y017199D01*
X017013Y017308D01*
X016805Y017308D01*
X016805Y017327D01*
X017013Y017327D01*
X017013Y017436D01*
X016998Y017472D01*
X016980Y017490D01*
X017151Y017490D01*
X017173Y017468D01*
X017124Y017419D01*
X017124Y016904D01*
X017183Y016846D01*
X017659Y016846D01*
X017717Y016904D01*
X017717Y017419D01*
X017668Y017468D01*
X017697Y017497D01*
X017697Y017545D01*
X018064Y017545D01*
X018064Y017399D01*
X018064Y017399D01*
X018064Y017399D01*
X018064Y017202D01*
X018064Y017202D01*
X018064Y017202D01*
X018064Y017005D01*
X018064Y017005D01*
X018064Y017005D01*
X018064Y016808D01*
X018070Y016802D01*
X018064Y016787D01*
X018064Y016710D01*
X018321Y016710D01*
X018321Y016553D01*
X018460Y016553D01*
X018460Y016216D01*
X018518Y016158D01*
X018663Y016158D01*
X018663Y016115D01*
X018649Y016101D01*
X018503Y016101D01*
X018503Y016111D01*
X018445Y016169D01*
X018165Y016169D01*
X018107Y016111D01*
X018107Y016094D01*
X018094Y016126D01*
X018066Y016154D01*
X018029Y016169D01*
X017921Y016169D01*
X017921Y015962D01*
X017901Y015962D01*
X017901Y015942D01*
X017713Y015942D01*
X017713Y015814D01*
X017729Y015777D01*
X017757Y015750D01*
X017793Y015734D01*
X017901Y015734D01*
X017901Y015942D01*
X017921Y015942D01*
X017921Y015734D01*
X018029Y015734D01*
X018066Y015750D01*
X018094Y015777D01*
X018107Y015809D01*
X018107Y015793D01*
X018165Y015734D01*
X018445Y015734D01*
X018503Y015793D01*
X018503Y015803D01*
X018773Y015803D01*
X018861Y015890D01*
X018962Y015992D01*
X018962Y016158D01*
X019108Y016158D01*
X019108Y016158D01*
X019108Y016158D01*
X019254Y016158D01*
X019254Y015694D01*
X019249Y015689D01*
X019182Y015756D01*
X019034Y015756D01*
X018929Y015651D01*
X018929Y015503D01*
X019034Y015398D01*
X019044Y015398D01*
X019046Y015396D01*
X019265Y015178D01*
X019609Y015178D01*
X019640Y015146D01*
X019640Y015089D01*
X018954Y015089D01*
X018954Y015170D01*
X018974Y015190D01*
X018974Y015338D01*
X018870Y015443D01*
X018722Y015443D01*
X018655Y015377D01*
X018620Y015412D01*
X018472Y015412D01*
X018367Y015307D01*
X018367Y015159D01*
X018437Y015089D01*
X017237Y015089D01*
X017295Y015146D01*
X017297Y015148D01*
X017307Y015148D01*
X017337Y015178D01*
X017420Y015178D01*
X017545Y015303D01*
X017632Y015390D01*
X017632Y015432D01*
X017642Y015432D01*
X017701Y015490D01*
X017701Y015770D01*
X017643Y015827D01*
X017701Y015884D01*
X017701Y016163D01*
X017673Y016191D01*
X017717Y016235D01*
X017717Y016750D01*
X017659Y016808D01*
X017183Y016808D01*
X017124Y016750D01*
X017124Y016631D01*
X017034Y016631D01*
X016929Y016526D01*
X016929Y016378D01*
X017034Y016273D01*
X017124Y016273D01*
X017124Y016235D01*
X017137Y016222D01*
X016949Y016222D01*
X016916Y016189D01*
X016916Y016260D01*
X016901Y016297D01*
X016873Y016324D01*
X016836Y016340D01*
X016659Y016340D01*
X016659Y016142D01*
X016620Y016142D01*
X016620Y016340D01*
X016442Y016340D01*
X016406Y016324D01*
X016378Y016297D01*
X016363Y016260D01*
X016363Y016142D01*
X016620Y016142D01*
X016620Y016102D01*
X016659Y016102D01*
X016659Y015905D01*
X016620Y015905D01*
X016620Y016102D01*
X016363Y016102D01*
X016363Y015984D01*
X016378Y015948D01*
X016406Y015920D01*
X016442Y015905D01*
X016620Y015905D01*
X016659Y015905D02*
X016836Y015905D01*
X016873Y015920D01*
X016891Y015938D01*
X016891Y015884D01*
X016948Y015827D01*
X016891Y015770D01*
X016891Y015716D01*
X016858Y015749D01*
X016421Y015749D01*
X016363Y015691D01*
X016363Y015372D01*
X016421Y015314D01*
X016490Y015314D01*
X016490Y015089D01*
X016443Y015089D01*
X016443Y014753D01*
X016443Y014417D01*
X016443Y014753D01*
X016443Y014753D01*
X016443Y014753D01*
X016443Y015089D01*
X016370Y015089D01*
X016308Y015151D01*
X016190Y015268D01*
X016190Y015392D01*
X016132Y015450D01*
X016132Y015482D01*
X016037Y015578D01*
X016037Y015620D01*
X016007Y015649D01*
X016007Y015713D01*
X016267Y015713D01*
X016326Y015772D01*
X016326Y016051D01*
X016268Y016108D01*
X016326Y016165D01*
X016326Y016445D01*
X016287Y016483D01*
X016287Y016588D01*
X016246Y016630D01*
X016246Y016828D01*
X016256Y016828D01*
X016314Y016886D01*
X016314Y017401D01*
X016256Y017460D01*
X016210Y017460D01*
X016210Y017694D01*
X016256Y017694D01*
X016302Y017740D01*
X016578Y017740D01*
X016578Y017682D02*
X016210Y017682D01*
X016210Y017605D02*
X016578Y017605D01*
X016622Y017527D02*
X016210Y017527D01*
X016265Y017450D02*
X016584Y017450D01*
X016578Y017373D02*
X016314Y017373D01*
X016314Y017296D02*
X016578Y017296D01*
X016578Y017218D02*
X016314Y017218D01*
X016314Y017141D02*
X016615Y017141D01*
X016786Y017141D02*
X016805Y017141D01*
X016805Y017218D02*
X016786Y017218D01*
X016786Y017296D02*
X016805Y017296D01*
X017013Y017296D02*
X017124Y017296D01*
X017124Y017373D02*
X017013Y017373D01*
X017007Y017450D02*
X017155Y017450D01*
X017124Y017218D02*
X017013Y017218D01*
X016976Y017141D02*
X017124Y017141D01*
X017124Y017064D02*
X016314Y017064D01*
X016314Y016987D02*
X017124Y016987D01*
X017124Y016909D02*
X016314Y016909D01*
X016260Y016832D02*
X018064Y016832D01*
X018064Y016755D02*
X017712Y016755D01*
X017717Y016678D02*
X018064Y016678D01*
X018064Y016710D02*
X018064Y016633D01*
X018079Y016596D01*
X018107Y016568D01*
X018143Y016553D01*
X018321Y016553D01*
X018321Y016710D01*
X018321Y016710D01*
X018321Y016710D01*
X018064Y016710D01*
X018077Y016600D02*
X017717Y016600D01*
X017717Y016523D02*
X018460Y016523D01*
X018460Y016446D02*
X017717Y016446D01*
X017717Y016369D02*
X018460Y016369D01*
X018460Y016291D02*
X017717Y016291D01*
X017697Y016214D02*
X018461Y016214D01*
X018477Y016137D02*
X018663Y016137D01*
X018962Y016137D02*
X019254Y016137D01*
X019254Y016060D02*
X018962Y016060D01*
X018953Y015983D02*
X019254Y015983D01*
X019254Y015905D02*
X018876Y015905D01*
X018799Y015828D02*
X019254Y015828D01*
X019254Y015751D02*
X019187Y015751D01*
X019029Y015751D02*
X018461Y015751D01*
X018149Y015751D02*
X018067Y015751D01*
X017921Y015751D02*
X017901Y015751D01*
X017901Y015828D02*
X017921Y015828D01*
X017921Y015905D02*
X017901Y015905D01*
X017901Y015962D02*
X017713Y015962D01*
X017713Y016090D01*
X017729Y016126D01*
X017757Y016154D01*
X017793Y016169D01*
X017901Y016169D01*
X017901Y015962D01*
X017901Y015983D02*
X017921Y015983D01*
X017921Y016060D02*
X017901Y016060D01*
X017901Y016137D02*
X017921Y016137D01*
X018083Y016137D02*
X018133Y016137D01*
X017739Y016137D02*
X017701Y016137D01*
X017701Y016060D02*
X017713Y016060D01*
X017701Y015983D02*
X017713Y015983D01*
X017701Y015905D02*
X017713Y015905D01*
X017713Y015828D02*
X017644Y015828D01*
X017701Y015751D02*
X017755Y015751D01*
X017701Y015674D02*
X018952Y015674D01*
X018929Y015596D02*
X017701Y015596D01*
X017701Y015519D02*
X018929Y015519D01*
X018871Y015442D02*
X018990Y015442D01*
X018948Y015365D02*
X019078Y015365D01*
X019155Y015287D02*
X018974Y015287D01*
X018974Y015210D02*
X019232Y015210D01*
X018954Y015133D02*
X019640Y015133D01*
X018720Y015442D02*
X017652Y015442D01*
X017607Y015365D02*
X018424Y015365D01*
X018367Y015287D02*
X017530Y015287D01*
X017453Y015210D02*
X018367Y015210D01*
X018393Y015133D02*
X017282Y015133D01*
X016891Y015751D02*
X016305Y015751D01*
X016326Y015828D02*
X016947Y015828D01*
X016891Y015905D02*
X016838Y015905D01*
X016659Y015983D02*
X016620Y015983D01*
X016620Y016060D02*
X016659Y016060D01*
X016620Y016137D02*
X016297Y016137D01*
X016317Y016060D02*
X016363Y016060D01*
X016364Y015983D02*
X016326Y015983D01*
X016326Y015905D02*
X016441Y015905D01*
X016363Y015674D02*
X016007Y015674D01*
X016037Y015596D02*
X016363Y015596D01*
X016363Y015519D02*
X016096Y015519D01*
X016141Y015442D02*
X016363Y015442D01*
X016371Y015365D02*
X016190Y015365D01*
X016190Y015287D02*
X016490Y015287D01*
X016490Y015210D02*
X016249Y015210D01*
X016326Y015133D02*
X016490Y015133D01*
X016443Y015056D02*
X016443Y015056D01*
X016443Y014978D02*
X016443Y014978D01*
X016443Y014901D02*
X016443Y014901D01*
X016443Y014824D02*
X016443Y014824D01*
X016443Y014747D02*
X016443Y014747D01*
X016443Y014669D02*
X016443Y014669D01*
X016443Y014592D02*
X016443Y014592D01*
X016443Y014515D02*
X016443Y014515D01*
X016443Y014438D02*
X016443Y014438D01*
X016195Y014283D02*
X017278Y014283D01*
X017278Y014206D02*
X016195Y014206D01*
X016195Y014129D02*
X017278Y014129D01*
X017278Y014051D02*
X016195Y014051D01*
X016195Y013974D02*
X017278Y013974D01*
X017278Y013897D02*
X016195Y013897D01*
X016125Y013820D02*
X017278Y013820D01*
X017294Y013743D02*
X016048Y013743D01*
X016110Y013805D02*
X016110Y013805D01*
X015893Y013665D02*
X017371Y013665D01*
X017448Y013588D02*
X015893Y013588D01*
X015893Y013511D02*
X017492Y013511D01*
X017561Y013434D02*
X015893Y013434D01*
X015893Y013356D02*
X018551Y013356D01*
X018629Y013434D02*
X018030Y013434D01*
X018107Y013511D02*
X018706Y013511D01*
X018783Y013588D02*
X018131Y013588D01*
X018171Y013665D02*
X018860Y013665D01*
X018938Y013743D02*
X018249Y013743D01*
X018259Y013820D02*
X019015Y013820D01*
X019092Y013897D02*
X018259Y013897D01*
X018257Y013974D02*
X019169Y013974D01*
X019247Y014051D02*
X018257Y014051D01*
X018257Y014129D02*
X019324Y014129D01*
X019437Y013820D02*
X021324Y013820D01*
X021324Y013897D02*
X021023Y013897D01*
X021101Y013974D02*
X021324Y013974D01*
X021324Y014051D02*
X021178Y014051D01*
X021255Y014129D02*
X021324Y014129D01*
X021332Y014206D02*
X021365Y014206D01*
X021064Y014360D02*
X018255Y014360D01*
X018257Y014283D02*
X020987Y014283D01*
X020910Y014206D02*
X018257Y014206D01*
X017278Y014360D02*
X016130Y014360D01*
X016125Y014438D02*
X016052Y014438D01*
X016087Y014515D02*
X015975Y014515D01*
X015898Y014592D02*
X016087Y014592D01*
X016087Y014669D02*
X015768Y014669D01*
X015573Y014669D02*
X014477Y014669D01*
X014554Y014592D02*
X015496Y014592D01*
X015492Y014515D02*
X014631Y014515D01*
X014709Y014438D02*
X014966Y014438D01*
X014889Y014360D02*
X014786Y014360D01*
X014863Y014283D02*
X014867Y014283D01*
X015125Y014438D02*
X015495Y014438D01*
X015572Y014360D02*
X015202Y014360D01*
X015238Y014283D02*
X015784Y014283D01*
X015851Y014206D02*
X015862Y014206D01*
X015893Y014129D02*
X015896Y014129D01*
X015893Y014051D02*
X015896Y014051D01*
X016087Y014747D02*
X014400Y014747D01*
X014322Y014824D02*
X016087Y014824D01*
X016087Y014901D02*
X014245Y014901D01*
X013823Y014978D02*
X014923Y014978D01*
X014940Y014961D02*
X015088Y014961D01*
X015193Y015065D01*
X015193Y015202D01*
X015232Y015240D01*
X015232Y015520D01*
X015174Y015578D01*
X015157Y015578D01*
X015189Y015591D01*
X015217Y015619D01*
X015232Y015656D01*
X015232Y015764D01*
X015024Y015764D01*
X015024Y015784D01*
X015005Y015784D01*
X015005Y015972D01*
X014876Y015972D01*
X014840Y015956D01*
X014812Y015928D01*
X014797Y015892D01*
X014797Y015784D01*
X015005Y015784D01*
X015005Y015764D01*
X014797Y015764D01*
X014797Y015656D01*
X014812Y015619D01*
X014840Y015591D01*
X014872Y015578D01*
X014855Y015578D01*
X014797Y015520D01*
X014797Y015240D01*
X014836Y015202D01*
X014836Y015065D01*
X014940Y014961D01*
X014845Y015056D02*
X013840Y015056D01*
X013840Y015133D02*
X014836Y015133D01*
X014827Y015210D02*
X013840Y015210D01*
X013840Y015287D02*
X014797Y015287D01*
X014797Y015365D02*
X013815Y015365D01*
X013840Y015442D02*
X014797Y015442D01*
X014797Y015519D02*
X013840Y015519D01*
X013840Y015568D02*
X013455Y015568D01*
X013455Y015766D01*
X013761Y015766D01*
X013797Y015751D01*
X013825Y015723D01*
X013840Y015686D01*
X013840Y015568D01*
X013840Y015596D02*
X014835Y015596D01*
X014797Y015674D02*
X013840Y015674D01*
X013797Y015751D02*
X014797Y015751D01*
X014797Y015828D02*
X012364Y015828D01*
X012364Y015905D02*
X014278Y015905D01*
X014309Y015892D02*
X014407Y015892D01*
X014498Y015930D01*
X014568Y015999D01*
X014605Y016090D01*
X014605Y016189D01*
X014568Y016279D01*
X014498Y016349D01*
X014407Y016386D01*
X014309Y016386D01*
X014218Y016349D01*
X014149Y016279D01*
X014111Y016189D01*
X014111Y016090D01*
X014149Y015999D01*
X014218Y015930D01*
X014309Y015892D01*
X014438Y015905D02*
X014802Y015905D01*
X015005Y015905D02*
X015024Y015905D01*
X015024Y015972D02*
X015024Y015784D01*
X015232Y015784D01*
X015232Y015892D01*
X015217Y015928D01*
X015189Y015956D01*
X015152Y015972D01*
X015024Y015972D01*
X015024Y015828D02*
X015005Y015828D01*
X015232Y015828D02*
X015484Y015828D01*
X015484Y015905D02*
X015226Y015905D01*
X015232Y015751D02*
X015505Y015751D01*
X015709Y015674D02*
X015232Y015674D01*
X015194Y015596D02*
X015679Y015596D01*
X015679Y015519D02*
X015232Y015519D01*
X015232Y015442D02*
X015459Y015442D01*
X015401Y015365D02*
X015232Y015365D01*
X015232Y015287D02*
X015401Y015287D01*
X015401Y015223D02*
X015401Y015095D01*
X015416Y015059D01*
X015444Y015031D01*
X015481Y015016D01*
X015589Y015016D01*
X015589Y015223D01*
X015401Y015223D01*
X015401Y015210D02*
X015202Y015210D01*
X015193Y015133D02*
X015401Y015133D01*
X015419Y015056D02*
X015183Y015056D01*
X015106Y014978D02*
X016058Y014978D01*
X015813Y015056D02*
X015778Y015056D01*
X015609Y015056D02*
X015589Y015056D01*
X015589Y015133D02*
X015609Y015133D01*
X015609Y015210D02*
X015589Y015210D01*
X015589Y015287D02*
X015609Y015287D01*
X015609Y015365D02*
X015589Y015365D01*
X015589Y015442D02*
X015609Y015442D01*
X015484Y015983D02*
X014551Y015983D01*
X014592Y016060D02*
X015493Y016060D01*
X015513Y016137D02*
X014605Y016137D01*
X014594Y016214D02*
X015484Y016214D01*
X015484Y016291D02*
X014555Y016291D01*
X014450Y016369D02*
X015484Y016369D01*
X015486Y016446D02*
X011622Y016446D01*
X011622Y016523D02*
X015544Y016523D01*
X015467Y016600D02*
X011622Y016600D01*
X011622Y016678D02*
X015455Y016678D01*
X015455Y016755D02*
X011622Y016755D01*
X011622Y016832D02*
X014456Y016832D01*
X014402Y016909D02*
X011622Y016909D01*
X011622Y016987D02*
X012263Y016987D01*
X012051Y017064D02*
X011622Y017064D01*
X011622Y017141D02*
X011919Y017141D01*
X011980Y017090D02*
X011980Y017090D01*
X011827Y017218D02*
X011622Y017218D01*
X011622Y017296D02*
X011735Y017296D01*
X011668Y017352D02*
X011668Y017352D01*
X011656Y017373D02*
X011622Y017373D01*
X012868Y016987D02*
X014402Y016987D01*
X014402Y017064D02*
X013080Y017064D01*
X013152Y017090D02*
X013152Y017090D01*
X013213Y017141D02*
X014402Y017141D01*
X014402Y017218D02*
X013305Y017218D01*
X013397Y017296D02*
X014402Y017296D01*
X014402Y017373D02*
X013476Y017373D01*
X013464Y017352D02*
X013464Y017352D01*
X013521Y017450D02*
X014451Y017450D01*
X014506Y017527D02*
X013565Y017527D01*
X013610Y017605D02*
X014506Y017605D01*
X014506Y017682D02*
X013654Y017682D01*
X013677Y017759D02*
X014402Y017759D01*
X014402Y017836D02*
X013690Y017836D01*
X013704Y017914D02*
X014402Y017914D01*
X014402Y017991D02*
X013718Y017991D01*
X013731Y018068D02*
X014402Y018068D01*
X014402Y018145D02*
X013731Y018145D01*
X013717Y018222D02*
X014402Y018222D01*
X014435Y018300D02*
X013703Y018300D01*
X013690Y018377D02*
X015455Y018377D01*
X015455Y018454D02*
X013676Y018454D01*
X013667Y018506D02*
X013667Y018506D01*
X013652Y018531D02*
X015476Y018531D01*
X015554Y018609D02*
X013608Y018609D01*
X013474Y018840D02*
X017597Y018840D01*
X018621Y018840D02*
X023665Y018840D01*
X023676Y018858D02*
X023676Y018858D01*
X023747Y018918D02*
X013393Y018918D01*
X013301Y018995D02*
X023839Y018995D01*
X023621Y018763D02*
X018866Y018763D01*
X018943Y018686D02*
X023576Y018686D01*
X025484Y017373D02*
X025517Y017373D01*
X025472Y017352D02*
X025472Y017352D01*
X025517Y017296D02*
X025405Y017296D01*
X025313Y017218D02*
X025517Y017218D01*
X025517Y017141D02*
X025221Y017141D01*
X025160Y017090D02*
X025160Y017090D01*
X025088Y017064D02*
X025517Y017064D01*
X025517Y016987D02*
X024876Y016987D01*
X024969Y016600D02*
X025047Y016600D01*
X025047Y016523D02*
X024969Y016523D01*
X024969Y016446D02*
X025047Y016446D01*
X025047Y016369D02*
X024969Y016369D01*
X024969Y016291D02*
X025047Y016291D01*
X025047Y016214D02*
X024969Y016214D01*
X024450Y015596D02*
X022932Y015596D01*
X022855Y015519D02*
X023372Y015519D01*
X023334Y015442D02*
X022842Y015442D01*
X022842Y015365D02*
X023334Y015365D01*
X023334Y015287D02*
X022842Y015287D01*
X022796Y015210D02*
X023334Y015210D01*
X024094Y015519D02*
X024409Y015519D01*
X023712Y013324D02*
X022967Y013324D01*
X022973Y013318D01*
X023120Y013318D01*
X023224Y013213D01*
X023224Y013065D01*
X023120Y012961D01*
X023007Y012961D01*
X022951Y012905D01*
X022515Y012905D01*
X022483Y012937D01*
X022441Y012937D01*
X022392Y012888D01*
X022376Y012888D01*
X022408Y012875D01*
X022435Y012847D01*
X022451Y012811D01*
X022451Y012702D01*
X022243Y012702D01*
X022243Y012683D01*
X022451Y012683D01*
X022451Y012574D01*
X022435Y012538D01*
X022408Y012510D01*
X022371Y012495D01*
X022243Y012495D01*
X022243Y012683D01*
X022223Y012683D01*
X022016Y012683D01*
X022016Y012574D01*
X022031Y012538D01*
X022059Y012510D01*
X022095Y012495D01*
X022223Y012495D01*
X022223Y012683D01*
X022223Y012702D01*
X022016Y012702D01*
X022016Y012811D01*
X022031Y012847D01*
X022059Y012875D01*
X022091Y012888D01*
X022074Y012888D01*
X022032Y012930D01*
X021995Y012930D01*
X021995Y012883D01*
X021659Y012883D01*
X021659Y012883D01*
X021995Y012883D01*
X021995Y012804D01*
X021990Y012792D01*
X021995Y012786D01*
X021995Y012048D01*
X022151Y012048D01*
X022151Y012236D01*
X022209Y012294D01*
X022488Y012294D01*
X022546Y012237D01*
X022603Y012294D01*
X022882Y012294D01*
X022940Y012236D01*
X022940Y012226D01*
X022942Y012226D01*
X022972Y012256D01*
X023120Y012256D01*
X023224Y012151D01*
X023224Y012003D01*
X023120Y011898D01*
X022972Y011898D01*
X022942Y011928D01*
X022940Y011928D01*
X022940Y011918D01*
X022912Y011889D01*
X022925Y011876D01*
X022940Y011840D01*
X022940Y011712D01*
X022752Y011712D01*
X022752Y011692D01*
X022752Y011337D01*
X022733Y011337D01*
X022733Y011544D01*
X022733Y011692D01*
X022752Y011692D01*
X022940Y011692D01*
X022940Y011564D01*
X022925Y011527D01*
X022912Y011514D01*
X022925Y011501D01*
X022940Y011465D01*
X022940Y011337D01*
X022752Y011337D01*
X022752Y011317D01*
X022752Y011109D01*
X022861Y011109D01*
X022897Y011125D01*
X022925Y011152D01*
X022940Y011189D01*
X022940Y011317D01*
X022752Y011317D01*
X022733Y011317D01*
X022733Y011109D01*
X022624Y011109D01*
X022588Y011125D01*
X022560Y011152D01*
X022547Y011184D01*
X022547Y011168D01*
X022488Y011109D01*
X022209Y011109D01*
X022170Y011148D01*
X022034Y011148D01*
X022023Y011159D01*
X021995Y011159D01*
X021995Y011111D01*
X021659Y011111D01*
X021324Y011111D01*
X021659Y011111D01*
X021659Y011111D01*
X021659Y011111D01*
X021995Y011111D01*
X021995Y011032D01*
X021990Y011020D01*
X021995Y011015D01*
X021995Y010674D01*
X022053Y010731D01*
X022053Y010755D01*
X022023Y010784D01*
X022023Y010932D01*
X022128Y011037D01*
X022276Y011037D01*
X022381Y010932D01*
X022381Y010784D01*
X022351Y010755D01*
X022351Y010713D01*
X022390Y010674D01*
X022390Y010657D01*
X022404Y010689D01*
X022432Y010717D01*
X022468Y010732D01*
X022576Y010732D01*
X022576Y010524D01*
X022596Y010524D01*
X022784Y010524D01*
X022784Y010652D01*
X022769Y010689D01*
X022741Y010717D01*
X022704Y010732D01*
X022596Y010732D01*
X022596Y010524D01*
X022596Y010505D01*
X022784Y010505D01*
X022784Y010376D01*
X022769Y010340D01*
X022741Y010312D01*
X022704Y010297D01*
X022596Y010297D01*
X022596Y010505D01*
X022576Y010505D01*
X022576Y010297D01*
X022468Y010297D01*
X022432Y010312D01*
X022404Y010340D01*
X022390Y010372D01*
X022390Y010355D01*
X022332Y010297D01*
X022258Y010297D01*
X022238Y010276D01*
X023253Y010276D01*
X023646Y010670D01*
X023646Y011732D01*
X024115Y012201D01*
X024202Y012289D01*
X024409Y012289D01*
X024409Y012556D01*
X024467Y012614D01*
X025517Y012614D01*
X025517Y012665D01*
X024467Y012665D01*
X024409Y012723D01*
X024409Y012990D01*
X024390Y012990D01*
X024303Y013077D01*
X024287Y013093D01*
X024287Y013065D01*
X024182Y012961D01*
X024034Y012961D01*
X023929Y013065D01*
X023929Y013107D01*
X023712Y013324D01*
X023757Y013279D02*
X023159Y013279D01*
X023224Y013202D02*
X023834Y013202D01*
X023912Y013125D02*
X023224Y013125D01*
X023206Y013047D02*
X023947Y013047D01*
X024025Y012970D02*
X023129Y012970D01*
X022967Y012734D02*
X022930Y012749D01*
X022753Y012749D01*
X022753Y012551D01*
X023010Y012551D01*
X023010Y012669D01*
X022995Y012706D01*
X022967Y012734D01*
X022956Y012738D02*
X024409Y012738D01*
X024409Y012816D02*
X022449Y012816D01*
X022451Y012738D02*
X022510Y012738D01*
X022500Y012734D02*
X022472Y012706D01*
X022457Y012669D01*
X022457Y012551D01*
X022713Y012551D01*
X022713Y012512D01*
X022457Y012512D01*
X022457Y012394D01*
X022472Y012357D01*
X022500Y012329D01*
X022536Y012314D01*
X022713Y012314D01*
X022713Y012512D01*
X022753Y012512D01*
X022753Y012551D01*
X022713Y012551D01*
X022713Y012749D01*
X022536Y012749D01*
X022500Y012734D01*
X022457Y012661D02*
X022451Y012661D01*
X022451Y012584D02*
X022457Y012584D01*
X022457Y012507D02*
X022400Y012507D01*
X022457Y012429D02*
X021995Y012429D01*
X021995Y012352D02*
X022477Y012352D01*
X022508Y012275D02*
X022584Y012275D01*
X022713Y012352D02*
X022753Y012352D01*
X022753Y012314D02*
X022930Y012314D01*
X022967Y012329D01*
X022995Y012357D01*
X023010Y012394D01*
X023010Y012512D01*
X022753Y012512D01*
X022753Y012314D01*
X022753Y012429D02*
X022713Y012429D01*
X022713Y012507D02*
X022753Y012507D01*
X022753Y012584D02*
X022713Y012584D01*
X022713Y012661D02*
X022753Y012661D01*
X022753Y012738D02*
X022713Y012738D01*
X023010Y012661D02*
X025517Y012661D01*
X024437Y012584D02*
X023010Y012584D01*
X023010Y012507D02*
X024409Y012507D01*
X024409Y012429D02*
X023010Y012429D01*
X022990Y012352D02*
X024409Y012352D01*
X024189Y012275D02*
X022901Y012275D01*
X023178Y012198D02*
X024111Y012198D01*
X024034Y012120D02*
X023224Y012120D01*
X023224Y012043D02*
X023957Y012043D01*
X023880Y011966D02*
X023188Y011966D01*
X022913Y011889D02*
X023803Y011889D01*
X023725Y011812D02*
X022940Y011812D01*
X022940Y011734D02*
X023648Y011734D01*
X023646Y011657D02*
X022940Y011657D01*
X022940Y011580D02*
X023646Y011580D01*
X023646Y011503D02*
X022924Y011503D01*
X022940Y011425D02*
X023646Y011425D01*
X023646Y011348D02*
X022940Y011348D01*
X022940Y011271D02*
X023646Y011271D01*
X023646Y011194D02*
X022940Y011194D01*
X022877Y011116D02*
X023646Y011116D01*
X023646Y011039D02*
X021995Y011039D01*
X021995Y010962D02*
X022053Y010962D01*
X022023Y010885D02*
X021995Y010885D01*
X021995Y010807D02*
X022023Y010807D01*
X021995Y010730D02*
X022051Y010730D01*
X022351Y010730D02*
X022464Y010730D01*
X022576Y010730D02*
X022596Y010730D01*
X022596Y010653D02*
X022576Y010653D01*
X022576Y010576D02*
X022596Y010576D01*
X022596Y010498D02*
X022576Y010498D01*
X022576Y010421D02*
X022596Y010421D01*
X022596Y010344D02*
X022576Y010344D01*
X022402Y010344D02*
X022379Y010344D01*
X022771Y010344D02*
X023320Y010344D01*
X023397Y010421D02*
X022784Y010421D01*
X022784Y010498D02*
X023475Y010498D01*
X023552Y010576D02*
X022784Y010576D01*
X022784Y010653D02*
X023629Y010653D01*
X023646Y010730D02*
X022708Y010730D01*
X022381Y010807D02*
X023646Y010807D01*
X023646Y010885D02*
X022381Y010885D01*
X022351Y010962D02*
X023646Y010962D01*
X023945Y010962D02*
X023992Y010962D01*
X023992Y010885D02*
X023945Y010885D01*
X023945Y010807D02*
X024000Y010807D01*
X023945Y010730D02*
X024077Y010730D01*
X023945Y010653D02*
X025517Y010653D01*
X024429Y010576D02*
X023945Y010576D01*
X023897Y010498D02*
X024409Y010498D01*
X024409Y010421D02*
X023820Y010421D01*
X023743Y010344D02*
X024409Y010344D01*
X024368Y010267D02*
X023665Y010267D01*
X023588Y010189D02*
X024291Y010189D01*
X024213Y010112D02*
X023511Y010112D01*
X023434Y010035D02*
X024095Y010035D01*
X024017Y009958D02*
X021995Y009958D01*
X021995Y009881D02*
X023992Y009881D01*
X023992Y009803D02*
X021995Y009803D01*
X021995Y009726D02*
X024050Y009726D01*
X024291Y009726D02*
X024409Y009726D01*
X024409Y009803D02*
X024349Y009803D01*
X024404Y009881D02*
X024409Y009881D01*
X024425Y009572D02*
X021995Y009572D01*
X021995Y009649D02*
X025517Y009649D01*
X024409Y009494D02*
X023135Y009494D01*
X023138Y009486D02*
X023123Y009522D01*
X023095Y009550D01*
X023058Y009565D01*
X022930Y009565D01*
X022930Y009377D01*
X022911Y009377D01*
X022911Y009358D01*
X022703Y009358D01*
X022703Y009249D01*
X022718Y009213D01*
X022746Y009185D01*
X022778Y009172D01*
X022761Y009172D01*
X022703Y009113D01*
X022703Y008834D01*
X022730Y008808D01*
X022706Y008784D01*
X022706Y008202D01*
X022764Y008144D01*
X023067Y008144D01*
X023125Y008202D01*
X023125Y008784D01*
X023107Y008803D01*
X023138Y008834D01*
X023138Y009113D01*
X023080Y009172D01*
X023063Y009172D01*
X023095Y009185D01*
X023123Y009213D01*
X023138Y009249D01*
X023138Y009358D01*
X022930Y009358D01*
X022930Y009377D01*
X023138Y009377D01*
X023138Y009486D01*
X023138Y009417D02*
X023965Y009417D01*
X023854Y009340D02*
X023569Y009340D01*
X023561Y009349D02*
X023470Y009386D01*
X023371Y009386D01*
X023281Y009349D01*
X023211Y009279D01*
X023174Y009189D01*
X023174Y009090D01*
X023211Y008999D01*
X023241Y008969D01*
X023241Y008837D01*
X023184Y008780D01*
X023184Y008186D01*
X023241Y008129D01*
X023241Y008076D01*
X023213Y008049D01*
X023213Y007748D01*
X023190Y007725D01*
X023125Y007725D01*
X023125Y007764D01*
X023067Y007822D01*
X023065Y007822D01*
X023065Y007862D01*
X022914Y008014D01*
X022826Y008101D01*
X022265Y008101D01*
X022178Y008014D01*
X022178Y008014D01*
X022026Y007862D01*
X022026Y007822D01*
X022024Y007822D01*
X021966Y007764D01*
X021966Y007182D01*
X022024Y007124D01*
X022327Y007124D01*
X022361Y007158D01*
X022379Y007139D01*
X022416Y007124D01*
X022530Y007124D01*
X022530Y007457D01*
X022561Y007457D01*
X022561Y007124D01*
X022675Y007124D01*
X022712Y007139D01*
X022731Y007158D01*
X022764Y007124D01*
X023067Y007124D01*
X023125Y007182D01*
X023125Y007366D01*
X023339Y007366D01*
X023486Y007513D01*
X023591Y007618D01*
X023591Y007712D01*
X023609Y007730D01*
X023609Y007747D01*
X023622Y007715D01*
X023650Y007687D01*
X023687Y007672D01*
X023795Y007672D01*
X023795Y007880D01*
X023815Y007880D01*
X023815Y007899D01*
X024003Y007899D01*
X024003Y008027D01*
X023988Y008064D01*
X023960Y008092D01*
X023923Y008107D01*
X023815Y008107D01*
X023815Y007899D01*
X023795Y007899D01*
X023795Y008107D01*
X023687Y008107D01*
X023650Y008092D01*
X023622Y008064D01*
X023609Y008032D01*
X023609Y008049D01*
X023600Y008058D01*
X023600Y008128D01*
X023601Y008128D01*
X023659Y008186D01*
X023659Y008780D01*
X023601Y008838D01*
X023600Y008838D01*
X023600Y008969D01*
X023630Y008999D01*
X023668Y009090D01*
X023668Y009189D01*
X023630Y009279D01*
X023561Y009349D01*
X023637Y009263D02*
X023804Y009263D01*
X023778Y009185D02*
X023668Y009185D01*
X023668Y009108D02*
X023778Y009108D01*
X023798Y009031D02*
X023643Y009031D01*
X023600Y008954D02*
X023839Y008954D01*
X023929Y008876D02*
X023600Y008876D01*
X023640Y008799D02*
X023951Y008799D01*
X023948Y008795D02*
X023932Y008759D01*
X023932Y008513D01*
X024140Y008513D01*
X024140Y008838D01*
X024012Y008838D01*
X023976Y008823D01*
X023948Y008795D01*
X023932Y008722D02*
X023659Y008722D01*
X023659Y008645D02*
X023932Y008645D01*
X023932Y008567D02*
X023659Y008567D01*
X023659Y008490D02*
X024140Y008490D01*
X024140Y008513D02*
X024140Y008454D01*
X023932Y008454D01*
X023932Y008207D01*
X023948Y008171D01*
X023976Y008143D01*
X024012Y008128D01*
X024140Y008128D01*
X024140Y008454D01*
X024199Y008454D01*
X024199Y008513D01*
X024140Y008513D01*
X024140Y008567D02*
X024199Y008567D01*
X024199Y008513D02*
X024199Y008838D01*
X024327Y008838D01*
X024364Y008823D01*
X024392Y008795D01*
X024407Y008759D01*
X024407Y008513D01*
X024199Y008513D01*
X024199Y008490D02*
X024409Y008490D01*
X024407Y008454D02*
X024199Y008454D01*
X024199Y008128D01*
X024327Y008128D01*
X024364Y008143D01*
X024392Y008171D01*
X024407Y008207D01*
X024407Y008454D01*
X024407Y008413D02*
X024409Y008413D01*
X024407Y008336D02*
X024409Y008336D01*
X024407Y008258D02*
X024409Y008258D01*
X024409Y008181D02*
X024396Y008181D01*
X024409Y008100D02*
X024409Y007745D01*
X024424Y007708D01*
X024452Y007680D01*
X024488Y007665D01*
X024969Y007665D01*
X024969Y008100D01*
X024409Y008100D01*
X024409Y008027D02*
X024003Y008027D01*
X024003Y007950D02*
X024409Y007950D01*
X024409Y007872D02*
X024003Y007872D01*
X024003Y007880D02*
X023815Y007880D01*
X023815Y007672D01*
X023923Y007672D01*
X023960Y007687D01*
X023988Y007715D01*
X024003Y007751D01*
X024003Y007880D01*
X024003Y007795D02*
X024409Y007795D01*
X024420Y007718D02*
X023989Y007718D01*
X023815Y007718D02*
X023795Y007718D01*
X023795Y007795D02*
X023815Y007795D01*
X023815Y007872D02*
X023795Y007872D01*
X023795Y007950D02*
X023815Y007950D01*
X023815Y008027D02*
X023795Y008027D01*
X023795Y008104D02*
X023815Y008104D01*
X023930Y008104D02*
X024969Y008104D01*
X024969Y008181D02*
X025047Y008181D01*
X025047Y008258D02*
X024969Y008258D01*
X024969Y008336D02*
X025047Y008336D01*
X025047Y008413D02*
X024969Y008413D01*
X024969Y008490D02*
X025047Y008490D01*
X025047Y008567D02*
X024969Y008567D01*
X024423Y008567D02*
X024407Y008567D01*
X024407Y008645D02*
X025517Y008645D01*
X025047Y008027D02*
X024969Y008027D01*
X024969Y007950D02*
X025047Y007950D01*
X025047Y007872D02*
X024969Y007872D01*
X024969Y007795D02*
X025047Y007795D01*
X025047Y007718D02*
X024969Y007718D01*
X024981Y007177D02*
X025517Y007177D01*
X025517Y007100D02*
X025174Y007100D01*
X025266Y007023D02*
X025517Y007023D01*
X025517Y006945D02*
X025358Y006945D01*
X025450Y006868D02*
X025517Y006868D01*
X025506Y006791D02*
X025517Y006791D01*
X025517Y007254D02*
X023125Y007254D01*
X023120Y007177D02*
X024166Y007177D01*
X023973Y007100D02*
X021932Y007100D01*
X021932Y007077D02*
X021932Y007205D01*
X021606Y007205D01*
X021606Y006997D01*
X021853Y006997D01*
X021889Y007012D01*
X021917Y007040D01*
X021932Y007077D01*
X021900Y007023D02*
X023881Y007023D01*
X023789Y006945D02*
X022084Y006945D01*
X022072Y006958D02*
X022035Y006973D01*
X021897Y006973D01*
X021897Y006755D01*
X022115Y006755D01*
X022115Y006893D01*
X022100Y006930D01*
X022072Y006958D01*
X022115Y006868D02*
X023697Y006868D01*
X023676Y006850D02*
X023676Y006850D01*
X023641Y006791D02*
X022115Y006791D01*
X022115Y006677D02*
X021897Y006677D01*
X021897Y006459D01*
X022035Y006459D01*
X022072Y006474D01*
X022100Y006502D01*
X022115Y006539D01*
X022115Y006677D01*
X022115Y006636D02*
X023552Y006636D01*
X023508Y006559D02*
X022115Y006559D01*
X022080Y006482D02*
X023469Y006482D01*
X023472Y006498D02*
X023472Y006498D01*
X023456Y006405D02*
X022567Y006405D01*
X022599Y006373D02*
X022529Y006443D01*
X022439Y006480D01*
X022340Y006480D01*
X022249Y006443D01*
X022180Y006373D01*
X022142Y006282D01*
X022142Y006184D01*
X022180Y006093D01*
X022249Y006024D01*
X022340Y005986D01*
X022439Y005986D01*
X022529Y006024D01*
X022599Y006093D01*
X022636Y006184D01*
X022636Y006282D01*
X022599Y006373D01*
X022618Y006327D02*
X023442Y006327D01*
X023429Y006250D02*
X022636Y006250D01*
X022632Y006173D02*
X023415Y006173D01*
X023402Y006097D02*
X023402Y006097D01*
X023402Y006096D02*
X022600Y006096D01*
X022517Y006018D02*
X023415Y006018D01*
X023429Y005941D02*
X022115Y005941D01*
X022115Y006018D02*
X022262Y006018D01*
X022179Y006096D02*
X022115Y006096D01*
X022115Y006173D02*
X022147Y006173D01*
X022142Y006250D02*
X022115Y006250D01*
X022111Y006327D02*
X022161Y006327D01*
X022212Y006405D02*
X020404Y006405D01*
X020404Y006482D02*
X020637Y006482D01*
X020601Y006559D02*
X020404Y006559D01*
X020601Y006636D02*
X020041Y006636D01*
X019974Y006714D02*
X020601Y006714D01*
X020601Y006791D02*
X019928Y006791D01*
X019663Y006791D02*
X018985Y006791D01*
X018985Y006868D02*
X020543Y006868D01*
X020466Y006945D02*
X018985Y006945D01*
X018985Y006987D02*
X018985Y007292D01*
X018970Y007328D01*
X018942Y007356D01*
X018905Y007371D01*
X018787Y007371D01*
X018787Y006987D01*
X018985Y006987D01*
X018985Y007023D02*
X019639Y007023D01*
X019561Y007100D02*
X018985Y007100D01*
X018985Y007177D02*
X019484Y007177D01*
X019407Y007254D02*
X018985Y007254D01*
X018966Y007332D02*
X019330Y007332D01*
X019252Y007409D02*
X018620Y007409D01*
X018697Y007486D02*
X019209Y007486D01*
X019209Y007563D02*
X018775Y007563D01*
X018852Y007641D02*
X019209Y007641D01*
X019209Y007718D02*
X018929Y007718D01*
X018920Y007709D02*
X018920Y007709D01*
X019006Y007795D02*
X019209Y007795D01*
X019209Y007872D02*
X019007Y007872D01*
X019037Y007950D02*
X019209Y007950D01*
X019209Y008027D02*
X019037Y008027D01*
X018990Y008104D02*
X019209Y008104D01*
X019209Y008181D02*
X018549Y008181D01*
X018561Y008258D02*
X019209Y008258D01*
X018726Y008104D02*
X018471Y008104D01*
X018394Y008027D02*
X018679Y008027D01*
X018679Y007950D02*
X018265Y007950D01*
X018076Y007950D02*
X018009Y007950D01*
X017999Y008027D02*
X017932Y008027D01*
X017992Y008104D02*
X017855Y008104D01*
X017778Y008181D02*
X017992Y008181D01*
X018068Y008258D02*
X017773Y008258D01*
X018086Y007872D02*
X018661Y007872D01*
X018584Y007795D02*
X018129Y007795D01*
X018129Y007718D02*
X018507Y007718D01*
X018429Y007641D02*
X018129Y007641D01*
X018129Y007563D02*
X018352Y007563D01*
X018275Y007486D02*
X018129Y007486D01*
X018129Y007409D02*
X018224Y007409D01*
X018748Y007332D02*
X018787Y007332D01*
X018787Y007254D02*
X018748Y007254D01*
X018748Y007177D02*
X018787Y007177D01*
X018787Y007100D02*
X018748Y007100D01*
X018748Y007023D02*
X018787Y007023D01*
X018787Y006945D02*
X018748Y006945D01*
X018748Y006868D02*
X018787Y006868D01*
X018787Y006791D02*
X018748Y006791D01*
X018748Y006714D02*
X018787Y006714D01*
X018787Y006636D02*
X018748Y006636D01*
X018743Y006559D02*
X019654Y006559D01*
X019617Y006636D02*
X018982Y006636D01*
X018985Y006714D02*
X019617Y006714D01*
X019773Y006482D02*
X018821Y006482D01*
X018898Y006405D02*
X019812Y006405D01*
X019812Y006327D02*
X019600Y006327D01*
X019677Y006250D02*
X019812Y006250D01*
X019812Y006173D02*
X019755Y006173D01*
X019564Y005941D02*
X014945Y005941D01*
X014973Y005864D02*
X015191Y005864D01*
X015164Y005787D02*
X014982Y005787D01*
X014982Y005710D02*
X015164Y005710D01*
X015164Y005632D02*
X014982Y005632D01*
X014953Y005555D02*
X015164Y005555D01*
X015164Y005478D02*
X013541Y005478D01*
X013586Y005555D02*
X014576Y005555D01*
X014562Y005569D02*
X014590Y005541D01*
X014626Y005526D01*
X014755Y005526D01*
X014755Y005714D01*
X014547Y005714D01*
X014547Y005606D01*
X014562Y005569D01*
X014547Y005632D02*
X013630Y005632D01*
X013670Y005710D02*
X014547Y005710D01*
X014547Y005787D02*
X013683Y005787D01*
X013697Y005864D02*
X014556Y005864D01*
X014584Y005941D02*
X013710Y005941D01*
X013724Y006018D02*
X014547Y006018D01*
X014547Y006096D02*
X013738Y006096D01*
X013738Y006097D02*
X013738Y006097D01*
X013724Y006173D02*
X014547Y006173D01*
X014547Y006250D02*
X013711Y006250D01*
X013697Y006327D02*
X014585Y006327D01*
X014484Y006405D02*
X013684Y006405D01*
X013670Y006482D02*
X014468Y006482D01*
X014468Y006559D02*
X013632Y006559D01*
X013667Y006498D02*
X013667Y006498D01*
X013587Y006636D02*
X014468Y006636D01*
X014468Y006714D02*
X013543Y006714D01*
X013498Y006791D02*
X014468Y006791D01*
X014468Y006868D02*
X013443Y006868D01*
X013350Y006945D02*
X014468Y006945D01*
X014468Y007023D02*
X013258Y007023D01*
X013166Y007100D02*
X014514Y007100D01*
X014628Y007229D02*
X014687Y007287D01*
X014687Y007920D01*
X014628Y007979D01*
X014608Y007979D01*
X014628Y007999D01*
X014628Y008593D01*
X014569Y008651D01*
X014211Y008651D01*
X014153Y008593D01*
X014153Y007999D01*
X014173Y007979D01*
X014152Y007979D01*
X014094Y007920D01*
X014094Y007725D01*
X014078Y007725D01*
X014078Y007954D01*
X013973Y008059D01*
X013964Y008069D01*
X013815Y008069D01*
X013710Y007964D01*
X013710Y007815D01*
X013719Y007806D01*
X013719Y007723D01*
X013701Y007705D01*
X013701Y007688D01*
X013688Y007720D01*
X013660Y007748D01*
X013623Y007763D01*
X013515Y007763D01*
X013515Y007555D01*
X013495Y007555D01*
X013495Y007536D01*
X013307Y007536D01*
X013307Y007408D01*
X013322Y007371D01*
X013350Y007343D01*
X013387Y007328D01*
X013495Y007328D01*
X013495Y007536D01*
X013515Y007536D01*
X013515Y007328D01*
X013623Y007328D01*
X013660Y007343D01*
X013688Y007371D01*
X013701Y007403D01*
X013701Y007386D01*
X013759Y007328D01*
X014038Y007328D01*
X014076Y007366D01*
X014094Y007366D01*
X014094Y007287D01*
X014152Y007229D01*
X014628Y007229D01*
X014654Y007254D02*
X014875Y007254D01*
X014885Y007244D02*
X014922Y007229D01*
X015099Y007229D01*
X015099Y007564D01*
X015178Y007564D01*
X015178Y007643D01*
X015435Y007643D01*
X015435Y007899D01*
X015419Y007936D01*
X015392Y007964D01*
X015355Y007978D01*
X015360Y007983D01*
X015376Y008020D01*
X015376Y008266D01*
X015168Y008266D01*
X015168Y007940D01*
X015178Y007940D01*
X015178Y007643D01*
X015099Y007643D01*
X015099Y007564D01*
X014842Y007564D01*
X014842Y007308D01*
X014857Y007272D01*
X014885Y007244D01*
X014842Y007332D02*
X014687Y007332D01*
X014687Y007409D02*
X014842Y007409D01*
X014842Y007486D02*
X014687Y007486D01*
X014687Y007563D02*
X014842Y007563D01*
X014842Y007643D02*
X015099Y007643D01*
X015099Y007940D01*
X015109Y007940D01*
X015109Y008266D01*
X015168Y008266D01*
X015168Y008325D01*
X015376Y008325D01*
X015376Y008571D01*
X015360Y008608D01*
X015332Y008636D01*
X015296Y008651D01*
X015168Y008651D01*
X015168Y008325D01*
X015109Y008325D01*
X015109Y008266D01*
X014901Y008266D01*
X014901Y008020D01*
X014916Y007983D01*
X014921Y007978D01*
X014885Y007964D01*
X014857Y007936D01*
X014842Y007899D01*
X014842Y007643D01*
X014842Y007718D02*
X014687Y007718D01*
X014687Y007795D02*
X014842Y007795D01*
X014842Y007872D02*
X014687Y007872D01*
X014658Y007950D02*
X014871Y007950D01*
X014901Y008027D02*
X014628Y008027D01*
X014628Y008104D02*
X014901Y008104D01*
X014901Y008181D02*
X014628Y008181D01*
X014628Y008258D02*
X014901Y008258D01*
X014901Y008325D02*
X015109Y008325D01*
X015109Y008651D01*
X014981Y008651D01*
X014944Y008636D01*
X014916Y008608D01*
X014901Y008571D01*
X014901Y008325D01*
X014901Y008336D02*
X014628Y008336D01*
X014628Y008413D02*
X014901Y008413D01*
X014901Y008490D02*
X014628Y008490D01*
X014628Y008567D02*
X014901Y008567D01*
X014966Y008645D02*
X014576Y008645D01*
X014606Y008734D02*
X014714Y008734D01*
X014714Y008942D01*
X014734Y008942D01*
X014734Y008734D01*
X014842Y008734D01*
X014878Y008750D01*
X014906Y008777D01*
X014920Y008809D01*
X014920Y008793D01*
X014978Y008734D01*
X015257Y008734D01*
X015315Y008793D01*
X015315Y008803D01*
X015420Y008803D01*
X015453Y008836D01*
X015495Y008836D01*
X015599Y008940D01*
X015599Y008982D01*
X015706Y009089D01*
X015706Y009181D01*
X015834Y009181D01*
X015893Y009239D01*
X015893Y009440D01*
X015887Y009445D01*
X015893Y009458D01*
X015893Y009537D01*
X015557Y009537D01*
X015557Y009537D01*
X015557Y009537D01*
X015221Y009537D01*
X015221Y009458D01*
X015227Y009445D01*
X015221Y009440D01*
X015221Y009239D01*
X015280Y009181D01*
X015335Y009181D01*
X015290Y009136D01*
X015257Y009169D01*
X014978Y009169D01*
X014920Y009111D01*
X014920Y009094D01*
X014906Y009126D01*
X014878Y009154D01*
X014842Y009169D01*
X014734Y009169D01*
X014734Y008962D01*
X014714Y008962D01*
X014714Y009169D01*
X014606Y009169D01*
X014569Y009154D01*
X014541Y009126D01*
X014526Y009090D01*
X014526Y008962D01*
X014714Y008962D01*
X014714Y008942D01*
X014526Y008942D01*
X014526Y008814D01*
X014541Y008777D01*
X014569Y008750D01*
X014606Y008734D01*
X014532Y008799D02*
X013385Y008799D01*
X013385Y008722D02*
X016087Y008722D01*
X016087Y008799D02*
X015315Y008799D01*
X015311Y008645D02*
X016087Y008645D01*
X016087Y008567D02*
X015376Y008567D01*
X015376Y008490D02*
X016087Y008490D01*
X016087Y008413D02*
X015376Y008413D01*
X015376Y008336D02*
X016125Y008336D01*
X016490Y008258D02*
X015376Y008258D01*
X015376Y008181D02*
X016490Y008181D01*
X016490Y008104D02*
X015376Y008104D01*
X015376Y008027D02*
X016510Y008027D01*
X016587Y007950D02*
X015406Y007950D01*
X015435Y007872D02*
X016649Y007872D01*
X016649Y007795D02*
X016021Y007795D01*
X016080Y007718D02*
X016649Y007718D01*
X016649Y007641D02*
X016105Y007641D01*
X016105Y007563D02*
X016649Y007563D01*
X016649Y007486D02*
X016075Y007486D01*
X016008Y007409D02*
X016649Y007409D01*
X016031Y007332D02*
X015992Y007332D01*
X015992Y007254D02*
X016031Y007254D01*
X016031Y007177D02*
X015992Y007177D01*
X015992Y007100D02*
X016031Y007100D01*
X016031Y007023D02*
X015992Y007023D01*
X015992Y006947D02*
X015794Y006947D01*
X015794Y006642D01*
X015809Y006605D01*
X015837Y006578D01*
X015874Y006562D01*
X015992Y006562D01*
X015992Y006947D01*
X015992Y006945D02*
X016031Y006945D01*
X016031Y006868D02*
X015992Y006868D01*
X015992Y006791D02*
X016031Y006791D01*
X016031Y006714D02*
X015992Y006714D01*
X015992Y006636D02*
X016031Y006636D01*
X015796Y006636D02*
X015515Y006636D01*
X015559Y006543D02*
X015468Y006505D01*
X015399Y006436D01*
X015361Y006345D01*
X015361Y006246D01*
X015399Y006156D01*
X015468Y006086D01*
X015559Y006049D01*
X015657Y006049D01*
X015748Y006086D01*
X015818Y006156D01*
X015855Y006246D01*
X015855Y006345D01*
X015818Y006436D01*
X015748Y006505D01*
X015657Y006543D01*
X015559Y006543D01*
X015438Y006559D02*
X016256Y006559D01*
X016226Y006482D02*
X015771Y006482D01*
X015830Y006405D02*
X016167Y006405D01*
X016142Y006327D02*
X015855Y006327D01*
X015855Y006250D02*
X016142Y006250D01*
X016173Y006173D02*
X015825Y006173D01*
X015758Y006096D02*
X016240Y006096D01*
X016539Y006096D02*
X018166Y006096D01*
X018142Y006173D02*
X016606Y006173D01*
X016636Y006250D02*
X018142Y006250D01*
X018174Y006327D02*
X016636Y006327D01*
X016612Y006405D02*
X018243Y006405D01*
X018321Y006559D02*
X016554Y006559D01*
X016554Y006482D02*
X018398Y006482D01*
X018636Y006173D02*
X018707Y006173D01*
X018784Y006096D02*
X018613Y006096D01*
X018555Y006018D02*
X019487Y006018D01*
X019587Y005864D02*
X019641Y005864D01*
X019615Y005787D02*
X019718Y005787D01*
X019795Y005710D02*
X019615Y005710D01*
X019615Y005632D02*
X019812Y005632D01*
X019812Y005555D02*
X019615Y005555D01*
X019615Y005478D02*
X019812Y005478D01*
X019812Y005401D02*
X019615Y005401D01*
X019615Y005323D02*
X020222Y005323D01*
X020299Y005246D02*
X019615Y005246D01*
X019615Y005169D02*
X020681Y005169D01*
X020688Y005555D02*
X020413Y005555D01*
X020404Y005632D02*
X020641Y005632D01*
X020641Y005710D02*
X020404Y005710D01*
X020404Y005787D02*
X020641Y005787D01*
X020641Y005864D02*
X020404Y005864D01*
X020369Y005941D02*
X020601Y005941D01*
X020601Y006018D02*
X020363Y006018D01*
X020404Y006096D02*
X020601Y006096D01*
X020601Y006173D02*
X020404Y006173D01*
X020404Y006250D02*
X020601Y006250D01*
X020605Y006327D02*
X020404Y006327D01*
X021080Y006482D02*
X021137Y006482D01*
X021580Y006482D02*
X021637Y006482D01*
X021819Y006482D02*
X021897Y006482D01*
X021897Y006559D02*
X021819Y006559D01*
X021819Y006636D02*
X021897Y006636D01*
X021897Y006714D02*
X023597Y006714D01*
X022561Y007177D02*
X022530Y007177D01*
X022530Y007254D02*
X022561Y007254D01*
X022561Y007332D02*
X022530Y007332D01*
X022530Y007409D02*
X022561Y007409D01*
X023125Y007332D02*
X025517Y007332D01*
X025517Y007409D02*
X023381Y007409D01*
X023458Y007486D02*
X025517Y007486D01*
X025517Y007563D02*
X023536Y007563D01*
X023591Y007641D02*
X025517Y007641D01*
X024199Y008181D02*
X024140Y008181D01*
X024140Y008258D02*
X024199Y008258D01*
X024199Y008336D02*
X024140Y008336D01*
X024140Y008413D02*
X024199Y008413D01*
X024199Y008645D02*
X024140Y008645D01*
X024140Y008722D02*
X024199Y008722D01*
X024199Y008799D02*
X024140Y008799D01*
X024388Y008799D02*
X024409Y008799D01*
X024407Y008722D02*
X024410Y008722D01*
X023932Y008413D02*
X023659Y008413D01*
X023659Y008336D02*
X023932Y008336D01*
X023932Y008258D02*
X023659Y008258D01*
X023654Y008181D02*
X023943Y008181D01*
X023680Y008104D02*
X023600Y008104D01*
X023241Y008104D02*
X022074Y008104D01*
X021999Y008027D02*
X022191Y008027D01*
X022113Y007950D02*
X021932Y007950D01*
X021932Y007872D02*
X022036Y007872D01*
X021997Y007795D02*
X021924Y007795D01*
X021966Y007718D02*
X019974Y007718D01*
X019974Y007795D02*
X021055Y007795D01*
X020732Y008157D02*
X020719Y008189D01*
X020691Y008217D01*
X020654Y008232D01*
X020546Y008232D01*
X020546Y008024D01*
X020526Y008024D01*
X020526Y008232D01*
X020418Y008232D01*
X020382Y008217D01*
X020358Y008193D01*
X020335Y008217D01*
X020298Y008232D01*
X020190Y008232D01*
X020190Y008024D01*
X020170Y008024D01*
X020170Y008232D01*
X020062Y008232D01*
X020025Y008217D01*
X019997Y008189D01*
X019984Y008157D01*
X019984Y008174D01*
X019939Y008219D01*
X019939Y008315D01*
X020083Y008315D01*
X020677Y008315D01*
X020682Y008320D01*
X020695Y008315D01*
X020773Y008315D01*
X020773Y008651D01*
X020773Y008986D01*
X020773Y008651D01*
X020773Y008651D01*
X020773Y008651D01*
X020773Y008315D01*
X020821Y008315D01*
X020821Y008232D01*
X020790Y008232D01*
X020732Y008174D01*
X020732Y008157D01*
X020740Y008181D02*
X020722Y008181D01*
X020821Y008258D02*
X019939Y008258D01*
X019976Y008181D02*
X019994Y008181D01*
X020170Y008181D02*
X020190Y008181D01*
X020190Y008104D02*
X020170Y008104D01*
X020170Y008027D02*
X020190Y008027D01*
X020190Y007950D02*
X020170Y007950D01*
X020170Y007872D02*
X020190Y007872D01*
X020526Y007872D02*
X020546Y007872D01*
X020546Y007950D02*
X020526Y007950D01*
X020526Y008027D02*
X020546Y008027D01*
X020546Y008104D02*
X020526Y008104D01*
X020526Y008181D02*
X020546Y008181D01*
X020773Y008336D02*
X020773Y008336D01*
X020773Y008413D02*
X020773Y008413D01*
X020773Y008490D02*
X020773Y008490D01*
X020773Y008567D02*
X020773Y008567D01*
X020773Y008645D02*
X020773Y008645D01*
X020773Y008722D02*
X020773Y008722D01*
X020773Y008799D02*
X020773Y008799D01*
X020773Y008876D02*
X020773Y008876D01*
X020773Y008954D02*
X020773Y008954D01*
X020742Y009031D02*
X022703Y009031D01*
X022703Y009108D02*
X020789Y009108D01*
X020789Y009185D02*
X021378Y009185D01*
X021324Y009263D02*
X020818Y009263D01*
X020818Y009340D02*
X021324Y009340D01*
X021324Y009417D02*
X020802Y009417D01*
X020725Y009494D02*
X021324Y009494D01*
X021324Y009572D02*
X019043Y009572D01*
X019068Y009649D02*
X021324Y009649D01*
X021324Y009726D02*
X019068Y009726D01*
X019009Y009803D02*
X021324Y009803D01*
X021324Y009881D02*
X017248Y009881D01*
X017325Y009958D02*
X021324Y009958D01*
X021324Y010035D02*
X017402Y010035D01*
X017480Y010112D02*
X021324Y010112D01*
X021324Y010189D02*
X018317Y010189D01*
X018394Y010267D02*
X021324Y010267D01*
X021324Y010344D02*
X018412Y010344D01*
X018412Y010421D02*
X021324Y010421D01*
X021324Y010498D02*
X018346Y010498D01*
X018310Y010807D02*
X021324Y010807D01*
X021324Y010730D02*
X017441Y010730D01*
X017364Y010653D02*
X021324Y010653D01*
X021324Y010576D02*
X017287Y010576D01*
X017210Y010498D02*
X017443Y010498D01*
X017366Y010421D02*
X017132Y010421D01*
X017055Y010344D02*
X017289Y010344D01*
X017212Y010267D02*
X016978Y010267D01*
X016901Y010189D02*
X017134Y010189D01*
X017057Y010112D02*
X016823Y010112D01*
X016746Y010035D02*
X016980Y010035D01*
X016903Y009958D02*
X016669Y009958D01*
X016592Y009881D02*
X016826Y009881D01*
X016748Y009803D02*
X016515Y009803D01*
X016594Y009649D02*
X015893Y009649D01*
X015893Y009726D02*
X016671Y009726D01*
X016517Y009572D02*
X015893Y009572D01*
X015893Y009494D02*
X016439Y009494D01*
X016362Y009417D02*
X015893Y009417D01*
X015893Y009340D02*
X016285Y009340D01*
X016208Y009263D02*
X015893Y009263D01*
X015838Y009185D02*
X016130Y009185D01*
X016097Y009108D02*
X015706Y009108D01*
X015648Y009031D02*
X016097Y009031D01*
X016097Y008954D02*
X015599Y008954D01*
X015535Y008876D02*
X016087Y008876D01*
X016398Y009031D02*
X017526Y009031D01*
X017449Y009108D02*
X016476Y009108D01*
X016553Y009185D02*
X017429Y009185D01*
X017429Y009263D02*
X016630Y009263D01*
X016707Y009340D02*
X017493Y009340D01*
X017723Y009340D02*
X018656Y009340D01*
X018656Y009417D02*
X016785Y009417D01*
X016862Y009494D02*
X018656Y009494D01*
X018656Y009572D02*
X016939Y009572D01*
X017016Y009649D02*
X018656Y009649D01*
X018711Y009726D02*
X017094Y009726D01*
X017171Y009803D02*
X018769Y009803D01*
X019193Y009494D02*
X020054Y009494D01*
X019977Y009417D02*
X019458Y009417D01*
X019535Y009340D02*
X019743Y009340D01*
X019679Y009263D02*
X019537Y009263D01*
X019532Y009185D02*
X019679Y009185D01*
X019699Y009108D02*
X019455Y009108D01*
X019348Y009031D02*
X019776Y009031D01*
X020225Y009494D02*
X020554Y009494D01*
X020477Y009417D02*
X020302Y009417D01*
X021103Y008954D02*
X022703Y008954D01*
X022703Y008876D02*
X021129Y008876D01*
X021129Y008799D02*
X021981Y008799D01*
X021966Y008722D02*
X021129Y008722D01*
X021129Y008645D02*
X021891Y008645D01*
X021820Y008574D02*
X021820Y008574D01*
X021814Y008567D02*
X021129Y008567D01*
X021129Y008490D02*
X021737Y008490D01*
X021715Y008413D02*
X021129Y008413D01*
X021120Y008336D02*
X021715Y008336D01*
X021715Y008258D02*
X021227Y008258D01*
X021966Y007641D02*
X019925Y007641D01*
X019770Y007563D02*
X021966Y007563D01*
X021966Y007486D02*
X020816Y007486D01*
X020894Y007409D02*
X021229Y007409D01*
X021222Y007392D02*
X021222Y007264D01*
X021547Y007264D01*
X021547Y007471D01*
X021301Y007471D01*
X021265Y007456D01*
X021237Y007428D01*
X021222Y007392D01*
X021222Y007332D02*
X020971Y007332D01*
X021048Y007254D02*
X021547Y007254D01*
X021547Y007264D02*
X021547Y007205D01*
X021606Y007205D01*
X021606Y007264D01*
X021547Y007264D01*
X021606Y007264D02*
X021606Y007471D01*
X021853Y007471D01*
X021889Y007456D01*
X021917Y007428D01*
X021932Y007392D01*
X021932Y007264D01*
X021606Y007264D01*
X021606Y007254D02*
X021966Y007254D01*
X021971Y007177D02*
X021932Y007177D01*
X021932Y007332D02*
X021966Y007332D01*
X021966Y007409D02*
X021925Y007409D01*
X021606Y007409D02*
X021547Y007409D01*
X021547Y007332D02*
X021606Y007332D01*
X021606Y007177D02*
X021547Y007177D01*
X021547Y007100D02*
X021606Y007100D01*
X021606Y007023D02*
X021547Y007023D01*
X021584Y006945D02*
X021632Y006945D01*
X021819Y006945D02*
X021897Y006945D01*
X021897Y006868D02*
X021819Y006868D01*
X021819Y006791D02*
X021897Y006791D01*
X021222Y007100D02*
X021203Y007100D01*
X021222Y007177D02*
X021125Y007177D01*
X022364Y008181D02*
X022727Y008181D01*
X022706Y008258D02*
X022385Y008258D01*
X022385Y008336D02*
X022706Y008336D01*
X022706Y008413D02*
X022385Y008413D01*
X022385Y008490D02*
X022706Y008490D01*
X022706Y008567D02*
X022385Y008567D01*
X022385Y008645D02*
X022706Y008645D01*
X022706Y008722D02*
X022385Y008722D01*
X022370Y008799D02*
X022721Y008799D01*
X023110Y008799D02*
X023203Y008799D01*
X023184Y008722D02*
X023125Y008722D01*
X023125Y008645D02*
X023184Y008645D01*
X023184Y008567D02*
X023125Y008567D01*
X023125Y008490D02*
X023184Y008490D01*
X023184Y008413D02*
X023125Y008413D01*
X023125Y008336D02*
X023184Y008336D01*
X023184Y008258D02*
X023125Y008258D01*
X023104Y008181D02*
X023189Y008181D01*
X023213Y008027D02*
X022901Y008027D01*
X022978Y007950D02*
X023213Y007950D01*
X023213Y007872D02*
X023055Y007872D01*
X023094Y007795D02*
X023213Y007795D01*
X023597Y007718D02*
X023621Y007718D01*
X023241Y008876D02*
X023138Y008876D01*
X023138Y008954D02*
X023241Y008954D01*
X023198Y009031D02*
X023138Y009031D01*
X023138Y009108D02*
X023174Y009108D01*
X023174Y009185D02*
X023096Y009185D01*
X023138Y009263D02*
X023204Y009263D01*
X023138Y009340D02*
X023272Y009340D01*
X022930Y009417D02*
X022911Y009417D01*
X022911Y009377D02*
X022911Y009565D01*
X022783Y009565D01*
X022746Y009550D01*
X022718Y009522D01*
X022703Y009486D01*
X022703Y009377D01*
X022911Y009377D01*
X022911Y009494D02*
X022930Y009494D01*
X022707Y009494D02*
X021995Y009494D01*
X021995Y009417D02*
X022703Y009417D01*
X022703Y009340D02*
X021995Y009340D01*
X021995Y009263D02*
X022703Y009263D01*
X022746Y009185D02*
X021941Y009185D01*
X024264Y010730D02*
X024409Y010730D01*
X024409Y010807D02*
X024341Y010807D01*
X024377Y010885D02*
X024409Y010885D01*
X024186Y011116D02*
X023945Y011116D01*
X023945Y011039D02*
X024068Y011039D01*
X023945Y011194D02*
X024264Y011194D01*
X024341Y011271D02*
X023945Y011271D01*
X023945Y011348D02*
X024409Y011348D01*
X024409Y011425D02*
X023945Y011425D01*
X023945Y011503D02*
X024409Y011503D01*
X024433Y011580D02*
X023945Y011580D01*
X023993Y011657D02*
X025517Y011657D01*
X024409Y011734D02*
X024071Y011734D01*
X024148Y011812D02*
X024409Y011812D01*
X024409Y011889D02*
X024225Y011889D01*
X024302Y011966D02*
X024409Y011966D01*
X024409Y012893D02*
X022397Y012893D01*
X022243Y012661D02*
X022223Y012661D01*
X022223Y012584D02*
X022243Y012584D01*
X022243Y012507D02*
X022223Y012507D01*
X022066Y012507D02*
X021995Y012507D01*
X021995Y012584D02*
X022016Y012584D01*
X022016Y012661D02*
X021995Y012661D01*
X021995Y012738D02*
X022016Y012738D01*
X022018Y012816D02*
X021995Y012816D01*
X021995Y012893D02*
X022069Y012893D01*
X021324Y012893D02*
X021164Y012893D01*
X021164Y012816D02*
X021324Y012816D01*
X021324Y012738D02*
X021220Y012738D01*
X021298Y012661D02*
X021324Y012661D01*
X021327Y012970D02*
X021193Y012970D01*
X021193Y013047D02*
X021324Y013047D01*
X021324Y013125D02*
X021157Y013125D01*
X021324Y013202D02*
X020974Y013202D01*
X020974Y013279D02*
X021324Y013279D01*
X021324Y013356D02*
X020925Y013356D01*
X020756Y013434D02*
X021324Y013434D01*
X021324Y013511D02*
X020756Y013511D01*
X020693Y013588D02*
X021324Y013588D01*
X021324Y013665D02*
X019283Y013665D01*
X019206Y013588D02*
X020460Y013588D01*
X020398Y013511D02*
X019128Y013511D01*
X019051Y013434D02*
X020398Y013434D01*
X020420Y013356D02*
X018974Y013356D01*
X018897Y013279D02*
X020428Y013279D01*
X020428Y013202D02*
X018819Y013202D01*
X018742Y013125D02*
X020428Y013125D01*
X020428Y013047D02*
X018665Y013047D01*
X018804Y012932D02*
X018804Y012784D01*
X018909Y012679D01*
X019057Y012679D01*
X019162Y012784D01*
X019162Y012932D01*
X019057Y013037D01*
X018909Y013037D01*
X018804Y012932D01*
X018804Y012893D02*
X016443Y012893D01*
X016443Y012970D02*
X018842Y012970D01*
X018804Y012816D02*
X016414Y012816D01*
X016387Y012738D02*
X018850Y012738D01*
X019116Y012738D02*
X020428Y012738D01*
X020428Y012661D02*
X016310Y012661D01*
X016233Y012584D02*
X020428Y012584D01*
X020428Y012507D02*
X016155Y012507D01*
X016078Y012429D02*
X020482Y012429D01*
X020559Y012352D02*
X016001Y012352D01*
X015893Y012275D02*
X020636Y012275D01*
X020714Y012198D02*
X015893Y012198D01*
X015893Y012120D02*
X020791Y012120D01*
X020773Y011734D02*
X019321Y011734D01*
X019243Y011657D02*
X020773Y011657D01*
X020790Y011580D02*
X019166Y011580D01*
X019130Y011503D02*
X020867Y011503D01*
X020891Y011425D02*
X015893Y011425D01*
X015893Y011348D02*
X020814Y011348D01*
X020804Y011271D02*
X015893Y011271D01*
X015893Y011194D02*
X020804Y011194D01*
X020878Y011116D02*
X018353Y011116D01*
X018412Y011039D02*
X021324Y011039D01*
X021324Y010962D02*
X018412Y010962D01*
X018387Y010885D02*
X021324Y010885D01*
X021324Y011116D02*
X021088Y011116D01*
X021162Y011194D02*
X021325Y011194D01*
X021324Y011271D02*
X021201Y011271D01*
X021278Y011348D02*
X021324Y011348D01*
X021995Y011116D02*
X022202Y011116D01*
X022495Y011116D02*
X022607Y011116D01*
X022733Y011116D02*
X022752Y011116D01*
X022752Y011194D02*
X022733Y011194D01*
X022733Y011271D02*
X022752Y011271D01*
X022752Y011348D02*
X022733Y011348D01*
X022733Y011425D02*
X022752Y011425D01*
X022752Y011503D02*
X022733Y011503D01*
X022733Y011580D02*
X022752Y011580D01*
X022752Y011657D02*
X022733Y011657D01*
X022151Y012120D02*
X021995Y012120D01*
X021995Y012198D02*
X022151Y012198D01*
X022190Y012275D02*
X021995Y012275D01*
X020428Y012816D02*
X019162Y012816D01*
X019162Y012893D02*
X020428Y012893D01*
X020428Y012970D02*
X019124Y012970D01*
X019360Y013743D02*
X021324Y013743D01*
X019207Y012043D02*
X015893Y012043D01*
X015893Y011966D02*
X019130Y011966D01*
X019053Y011889D02*
X015893Y011889D01*
X015893Y011812D02*
X018975Y011812D01*
X018857Y011734D02*
X015893Y011734D01*
X015893Y011657D02*
X018804Y011657D01*
X018804Y011580D02*
X015893Y011580D01*
X015893Y011503D02*
X018836Y011503D01*
X018156Y010807D02*
X017519Y010807D01*
X017328Y011039D02*
X015893Y011039D01*
X015893Y010962D02*
X017251Y010962D01*
X017173Y010885D02*
X015893Y010885D01*
X015893Y011116D02*
X017405Y011116D01*
X017096Y010807D02*
X016214Y010807D01*
X016291Y010730D02*
X017019Y010730D01*
X016942Y010653D02*
X016368Y010653D01*
X016446Y010576D02*
X016864Y010576D01*
X016787Y010498D02*
X016476Y010498D01*
X016476Y010421D02*
X016710Y010421D01*
X016633Y010344D02*
X016476Y010344D01*
X016476Y010267D02*
X016555Y010267D01*
X017557Y010189D02*
X018149Y010189D01*
X019224Y009417D02*
X019258Y009417D01*
X018656Y009263D02*
X018456Y009263D01*
X018506Y009185D02*
X018656Y009185D01*
X018656Y009108D02*
X018506Y009108D01*
X018471Y009031D02*
X018656Y009031D01*
X018197Y009263D02*
X017787Y009263D01*
X017836Y009185D02*
X018130Y009185D01*
X018065Y009108D02*
X017913Y009108D01*
X017970Y009031D02*
X018065Y009031D01*
X015696Y007795D02*
X015435Y007795D01*
X015435Y007718D02*
X015620Y007718D01*
X015543Y007641D02*
X015178Y007641D01*
X015178Y007718D02*
X015099Y007718D01*
X015099Y007795D02*
X015178Y007795D01*
X015178Y007872D02*
X015099Y007872D01*
X015109Y007950D02*
X015168Y007950D01*
X015168Y008027D02*
X015109Y008027D01*
X015109Y008104D02*
X015168Y008104D01*
X015168Y008181D02*
X015109Y008181D01*
X015109Y008258D02*
X015168Y008258D01*
X015168Y008336D02*
X015109Y008336D01*
X015109Y008413D02*
X015168Y008413D01*
X015168Y008490D02*
X015109Y008490D01*
X015109Y008567D02*
X015168Y008567D01*
X015168Y008645D02*
X015109Y008645D01*
X014920Y008799D02*
X014915Y008799D01*
X014734Y008799D02*
X014714Y008799D01*
X014714Y008876D02*
X014734Y008876D01*
X014714Y008954D02*
X013384Y008954D01*
X013385Y009031D02*
X014526Y009031D01*
X014534Y009108D02*
X013385Y009108D01*
X013380Y009185D02*
X015275Y009185D01*
X015221Y009263D02*
X013385Y009263D01*
X013385Y009340D02*
X013943Y009340D01*
X013939Y009349D02*
X013954Y009312D01*
X013982Y009284D01*
X014019Y009269D01*
X014137Y009269D01*
X014137Y009526D01*
X013939Y009526D01*
X013939Y009349D01*
X013939Y009417D02*
X013385Y009417D01*
X013768Y009494D02*
X013939Y009494D01*
X013939Y009572D02*
X013845Y009572D01*
X013923Y009649D02*
X013939Y009649D01*
X014137Y009649D02*
X014176Y009649D01*
X014176Y009726D02*
X014137Y009726D01*
X014137Y009803D02*
X014176Y009803D01*
X014176Y009822D02*
X014176Y009565D01*
X014374Y009565D01*
X014374Y009743D01*
X014359Y009779D01*
X014331Y009807D01*
X014294Y009822D01*
X014176Y009822D01*
X014154Y009881D02*
X014282Y009881D01*
X014335Y009803D02*
X014569Y009803D01*
X014530Y009726D02*
X014374Y009726D01*
X014374Y009649D02*
X014530Y009649D01*
X014530Y009572D02*
X014374Y009572D01*
X014374Y009494D02*
X014530Y009494D01*
X014530Y009417D02*
X014374Y009417D01*
X014370Y009340D02*
X014530Y009340D01*
X014714Y009108D02*
X014734Y009108D01*
X014734Y009031D02*
X014714Y009031D01*
X014914Y009108D02*
X014920Y009108D01*
X014965Y009340D02*
X015221Y009340D01*
X015221Y009417D02*
X014965Y009417D01*
X014965Y009494D02*
X015221Y009494D01*
X015221Y009572D02*
X014965Y009572D01*
X014676Y009881D02*
X014666Y009881D01*
X014176Y009572D02*
X014137Y009572D01*
X014137Y009494D02*
X014176Y009494D01*
X014176Y009417D02*
X014137Y009417D01*
X014137Y009340D02*
X014176Y009340D01*
X014526Y008876D02*
X013385Y008876D01*
X013009Y009060D02*
X012643Y009060D01*
X012643Y008997D01*
X012441Y008997D01*
X012441Y009515D01*
X012384Y009571D01*
X012441Y009627D01*
X012441Y010157D01*
X012643Y010157D01*
X012643Y009191D01*
X012649Y009186D01*
X012643Y009173D01*
X012643Y009070D01*
X013009Y009070D01*
X013009Y009060D01*
X012643Y009031D02*
X012441Y009031D01*
X012441Y009108D02*
X012643Y009108D01*
X012648Y009185D02*
X012441Y009185D01*
X012441Y009263D02*
X012643Y009263D01*
X012643Y009340D02*
X012441Y009340D01*
X012441Y009417D02*
X012643Y009417D01*
X012643Y009494D02*
X012441Y009494D01*
X012385Y009572D02*
X012643Y009572D01*
X012643Y009649D02*
X012441Y009649D01*
X012441Y009726D02*
X012643Y009726D01*
X012643Y009803D02*
X012441Y009803D01*
X012441Y009881D02*
X012643Y009881D01*
X012643Y009958D02*
X012441Y009958D01*
X012441Y010035D02*
X012643Y010035D01*
X012643Y010112D02*
X012441Y010112D01*
X013385Y010267D02*
X013493Y010267D01*
X013570Y010344D02*
X013385Y010344D01*
X013385Y010421D02*
X013647Y010421D01*
X013725Y010498D02*
X013385Y010498D01*
X013385Y010576D02*
X013802Y010576D01*
X013834Y010653D02*
X013385Y010653D01*
X013385Y010730D02*
X013834Y010730D01*
X013776Y010807D02*
X013385Y010807D01*
X013379Y010885D02*
X013776Y010885D01*
X013776Y010962D02*
X012441Y010962D01*
X012441Y011039D02*
X013776Y011039D01*
X013781Y011116D02*
X012441Y011116D01*
X012441Y011194D02*
X013804Y011194D01*
X013804Y011271D02*
X012402Y011271D01*
X011622Y011348D02*
X013600Y011348D01*
X013588Y011425D02*
X011622Y011425D01*
X011622Y011503D02*
X013588Y011503D01*
X013588Y011524D02*
X013776Y011524D01*
X013776Y011732D01*
X013668Y011732D01*
X013632Y011717D01*
X013604Y011689D01*
X013588Y011652D01*
X013588Y011524D01*
X013588Y011580D02*
X011622Y011580D01*
X011622Y011657D02*
X013590Y011657D01*
X013776Y011657D02*
X013796Y011657D01*
X013796Y011580D02*
X013776Y011580D01*
X013776Y011503D02*
X013796Y011503D01*
X013796Y011425D02*
X013776Y011425D01*
X013776Y011348D02*
X013796Y011348D01*
X014209Y011734D02*
X011622Y011734D01*
X011622Y011812D02*
X014209Y011812D01*
X014209Y011889D02*
X011622Y011889D01*
X012326Y011966D02*
X014209Y011966D01*
X014209Y012043D02*
X012364Y012043D01*
X012364Y012120D02*
X014209Y012120D01*
X014209Y012198D02*
X012364Y012198D01*
X012364Y012275D02*
X014209Y012275D01*
X014209Y012352D02*
X012364Y012352D01*
X012364Y012429D02*
X014209Y012429D01*
X014155Y012507D02*
X012364Y012507D01*
X012338Y012584D02*
X013081Y012584D01*
X013031Y012661D02*
X011622Y012661D01*
X011622Y012738D02*
X013031Y012738D01*
X013031Y012816D02*
X011622Y012816D01*
X011622Y012893D02*
X013031Y012893D01*
X013049Y012970D02*
X011622Y012970D01*
X011622Y013047D02*
X013031Y013047D01*
X013031Y013125D02*
X011622Y013125D01*
X011622Y013202D02*
X013031Y013202D01*
X013031Y013279D02*
X011622Y013279D01*
X011622Y013356D02*
X013042Y013356D01*
X013031Y013434D02*
X011622Y013434D01*
X011622Y013511D02*
X013031Y013511D01*
X013031Y013588D02*
X011622Y013588D01*
X011622Y013665D02*
X013031Y013665D01*
X013034Y013743D02*
X011622Y013743D01*
X011622Y013820D02*
X013031Y013820D01*
X013031Y013897D02*
X011622Y013897D01*
X011622Y013974D02*
X013031Y013974D01*
X013031Y014051D02*
X011622Y014051D01*
X011622Y014129D02*
X013031Y014129D01*
X013033Y014206D02*
X011622Y014206D01*
X011622Y014283D02*
X013031Y014283D01*
X013031Y014360D02*
X011622Y014360D01*
X011622Y014438D02*
X013031Y014438D01*
X013031Y014515D02*
X011622Y014515D01*
X011622Y014592D02*
X013041Y014592D01*
X013031Y014669D02*
X011622Y014669D01*
X011622Y014747D02*
X013031Y014747D01*
X013031Y014824D02*
X011622Y014824D01*
X011622Y014901D02*
X012725Y014901D01*
X012607Y014978D02*
X011622Y014978D01*
X011622Y015056D02*
X012563Y015056D01*
X012549Y015133D02*
X011622Y015133D01*
X011622Y015210D02*
X012558Y015210D01*
X012594Y015287D02*
X011622Y015287D01*
X011622Y015365D02*
X012694Y015365D01*
X012897Y015365D02*
X013056Y015365D01*
X013031Y015442D02*
X011622Y015442D01*
X011622Y015519D02*
X013031Y015519D01*
X013031Y015568D02*
X013416Y015568D01*
X013416Y015766D01*
X013111Y015766D01*
X013074Y015751D01*
X012332Y015751D01*
X012364Y015983D02*
X014166Y015983D01*
X014124Y016060D02*
X012364Y016060D01*
X012364Y016137D02*
X014111Y016137D01*
X014122Y016214D02*
X012364Y016214D01*
X012364Y016291D02*
X014161Y016291D01*
X014266Y016369D02*
X012333Y016369D01*
X013046Y015723D02*
X013031Y015686D01*
X013031Y015568D01*
X013031Y015596D02*
X011622Y015596D01*
X011622Y015674D02*
X013031Y015674D01*
X013046Y015723D02*
X013074Y015751D01*
X013416Y015751D02*
X013455Y015751D01*
X013455Y015674D02*
X013416Y015674D01*
X013416Y015596D02*
X013455Y015596D01*
X013048Y014978D02*
X012984Y014978D01*
X013031Y014901D02*
X012866Y014901D01*
X014783Y016832D02*
X014949Y016832D01*
X014895Y016909D02*
X014837Y016909D01*
X015276Y016832D02*
X015441Y016832D01*
X015387Y016909D02*
X015330Y016909D01*
X016246Y016755D02*
X017129Y016755D01*
X017124Y016678D02*
X016246Y016678D01*
X016275Y016600D02*
X017004Y016600D01*
X016929Y016523D02*
X016287Y016523D01*
X016324Y016446D02*
X016929Y016446D01*
X016939Y016369D02*
X016326Y016369D01*
X016326Y016291D02*
X016376Y016291D01*
X016363Y016214D02*
X016326Y016214D01*
X016620Y016214D02*
X016659Y016214D01*
X016659Y016291D02*
X016620Y016291D01*
X016903Y016291D02*
X017016Y016291D01*
X016942Y016214D02*
X016916Y016214D01*
X017717Y016909D02*
X018064Y016909D01*
X018064Y016987D02*
X017717Y016987D01*
X017717Y017064D02*
X018064Y017064D01*
X018064Y017141D02*
X017717Y017141D01*
X017717Y017218D02*
X018064Y017218D01*
X018064Y017296D02*
X017717Y017296D01*
X017717Y017373D02*
X018064Y017373D01*
X018064Y017450D02*
X017686Y017450D01*
X017697Y017527D02*
X018064Y017527D01*
X018321Y016678D02*
X018321Y016678D01*
X018321Y016600D02*
X018321Y016600D01*
X015419Y018300D02*
X015297Y018300D01*
X015132Y018300D02*
X015092Y018300D01*
X014927Y018300D02*
X014805Y018300D01*
X019020Y018609D02*
X019241Y018609D01*
X019209Y018576D02*
X019209Y018576D01*
X019164Y018531D02*
X019098Y018531D01*
X017874Y013434D02*
X017780Y013434D01*
X016808Y013279D02*
X015893Y013279D01*
X015893Y013202D02*
X016773Y013202D01*
X016773Y013125D02*
X016344Y013125D01*
X016422Y013047D02*
X016822Y013047D01*
X016184Y013125D02*
X015893Y013125D01*
X015893Y013047D02*
X016107Y013047D01*
X016086Y012970D02*
X015893Y012970D01*
X015893Y012893D02*
X016086Y012893D01*
X016042Y012816D02*
X015893Y012816D01*
X015893Y012738D02*
X015965Y012738D01*
X014077Y012584D02*
X013791Y012584D01*
X013385Y008645D02*
X014205Y008645D01*
X014153Y008567D02*
X013385Y008567D01*
X013385Y008490D02*
X014153Y008490D01*
X014153Y008413D02*
X013385Y008413D01*
X013385Y008336D02*
X014153Y008336D01*
X014153Y008258D02*
X013368Y008258D01*
X013773Y008027D02*
X012441Y008027D01*
X012441Y008104D02*
X014153Y008104D01*
X014153Y008181D02*
X012441Y008181D01*
X012441Y007950D02*
X013710Y007950D01*
X013710Y007872D02*
X012391Y007872D01*
X011622Y007795D02*
X013719Y007795D01*
X013714Y007718D02*
X013689Y007718D01*
X013515Y007718D02*
X013495Y007718D01*
X013495Y007763D02*
X013387Y007763D01*
X013350Y007748D01*
X013322Y007720D01*
X013307Y007683D01*
X013307Y007555D01*
X013495Y007555D01*
X013495Y007763D01*
X013495Y007641D02*
X013515Y007641D01*
X013515Y007563D02*
X013495Y007563D01*
X013495Y007486D02*
X013515Y007486D01*
X013515Y007409D02*
X013495Y007409D01*
X013495Y007332D02*
X013515Y007332D01*
X013632Y007332D02*
X013756Y007332D01*
X014042Y007332D02*
X014094Y007332D01*
X014127Y007254D02*
X011622Y007254D01*
X011622Y007177D02*
X012158Y007177D01*
X011965Y007100D02*
X011622Y007100D01*
X011622Y007023D02*
X011873Y007023D01*
X011781Y006945D02*
X011622Y006945D01*
X011622Y006868D02*
X011689Y006868D01*
X011668Y006850D02*
X011668Y006850D01*
X011634Y006791D02*
X011622Y006791D01*
X011622Y007332D02*
X013379Y007332D01*
X013307Y007409D02*
X011622Y007409D01*
X011622Y007486D02*
X013307Y007486D01*
X013307Y007563D02*
X011622Y007563D01*
X011622Y007641D02*
X013307Y007641D01*
X013321Y007718D02*
X011622Y007718D01*
X012973Y007177D02*
X015398Y007177D01*
X015398Y007100D02*
X015015Y007100D01*
X015061Y007023D02*
X015394Y007023D01*
X015317Y006945D02*
X015061Y006945D01*
X015099Y007254D02*
X015178Y007254D01*
X015178Y007332D02*
X015099Y007332D01*
X015099Y007409D02*
X015178Y007409D01*
X015178Y007486D02*
X015099Y007486D01*
X015099Y007563D02*
X015178Y007563D01*
X015099Y007641D02*
X014687Y007641D01*
X014094Y007795D02*
X014078Y007795D01*
X014078Y007872D02*
X014094Y007872D01*
X014078Y007950D02*
X014123Y007950D01*
X014153Y008027D02*
X014006Y008027D01*
X013973Y008059D02*
X013973Y008059D01*
X015435Y007563D02*
X015466Y007563D01*
X015756Y007332D02*
X015812Y007332D01*
X015794Y007254D02*
X015756Y007254D01*
X015756Y007177D02*
X015794Y007177D01*
X015794Y007100D02*
X015756Y007100D01*
X015756Y007023D02*
X015794Y007023D01*
X015794Y006945D02*
X015756Y006945D01*
X015747Y006868D02*
X015794Y006868D01*
X015794Y006791D02*
X015670Y006791D01*
X015592Y006714D02*
X015794Y006714D01*
X015445Y006482D02*
X015061Y006482D01*
X015044Y006405D02*
X015386Y006405D01*
X015361Y006327D02*
X014944Y006327D01*
X014982Y006250D02*
X015361Y006250D01*
X015392Y006173D02*
X014982Y006173D01*
X014982Y006096D02*
X015459Y006096D01*
X015808Y005864D02*
X018971Y005864D01*
X018944Y005787D02*
X015835Y005787D01*
X015835Y005710D02*
X018944Y005710D01*
X018944Y005632D02*
X015835Y005632D01*
X015835Y005555D02*
X018944Y005555D01*
X018944Y005478D02*
X015835Y005478D01*
X015835Y005401D02*
X018944Y005401D01*
X018944Y005323D02*
X015835Y005323D01*
X015835Y005246D02*
X018944Y005246D01*
X018944Y005169D02*
X015835Y005169D01*
X015164Y005169D02*
X013255Y005169D01*
X013347Y005246D02*
X015164Y005246D01*
X015164Y005323D02*
X013439Y005323D01*
X013464Y005344D02*
X013464Y005344D01*
X013496Y005401D02*
X015164Y005401D01*
X014774Y005555D02*
X014755Y005555D01*
X014755Y005632D02*
X014774Y005632D01*
X014774Y005710D02*
X014755Y005710D01*
X014982Y006018D02*
X018223Y006018D01*
X022028Y005555D02*
X023554Y005555D01*
X023598Y005478D02*
X022076Y005478D01*
X022076Y005401D02*
X023643Y005401D01*
X023676Y005344D02*
X023676Y005344D01*
X023676Y005344D01*
X023700Y005323D02*
X022076Y005323D01*
X022076Y005246D02*
X023792Y005246D01*
X023884Y005169D02*
X022035Y005169D01*
X022076Y005632D02*
X023509Y005632D01*
X023472Y005696D02*
X023472Y005696D01*
X023470Y005710D02*
X022076Y005710D01*
X022076Y005787D02*
X023456Y005787D01*
X023443Y005864D02*
X022076Y005864D01*
X024192Y012970D02*
X024409Y012970D01*
X024333Y013047D02*
X024269Y013047D01*
D39*
X024108Y013139D03*
X024108Y012733D03*
X024108Y012421D03*
X024171Y011639D03*
X024171Y010889D03*
X024171Y010389D03*
X024171Y009858D03*
X024171Y009546D03*
X022233Y009108D03*
X021764Y008983D03*
X021483Y008639D03*
X020389Y009202D03*
X020139Y009327D03*
X019858Y009202D03*
X019608Y009421D03*
X019358Y009264D03*
X019046Y009389D03*
X018889Y009671D03*
X018202Y009827D03*
X018233Y010358D03*
X018233Y010983D03*
X017639Y011421D03*
X016452Y010889D03*
X017171Y010327D03*
X016858Y010014D03*
X016327Y010139D03*
X016077Y010139D03*
X016358Y009514D03*
X016733Y009202D03*
X017296Y009171D03*
X017608Y009202D03*
X017546Y009577D03*
X018327Y009139D03*
X018639Y008233D03*
X019108Y008233D03*
X018858Y007983D03*
X018171Y008108D03*
X019796Y007764D03*
X020139Y007733D03*
X020983Y007733D03*
X019796Y006671D03*
X019171Y006452D03*
X020483Y006014D03*
X018671Y005452D03*
X017921Y005452D03*
X015014Y005421D03*
X013858Y005358D03*
X013858Y006514D03*
X011858Y007546D03*
X013889Y007889D03*
X014014Y008514D03*
X014014Y008983D03*
X014014Y009202D03*
X014514Y009233D03*
X015077Y009389D03*
X015421Y009014D03*
X015577Y008733D03*
X015983Y008046D03*
X016327Y008046D03*
X020639Y009327D03*
X021202Y009421D03*
X022202Y010858D03*
X022546Y010952D03*
X023014Y010952D03*
X023014Y011389D03*
X023046Y012077D03*
X023077Y012514D03*
X022233Y012389D03*
X021233Y012858D03*
X021014Y013014D03*
X020796Y013233D03*
X020577Y013452D03*
X020108Y013702D03*
X019702Y013452D03*
X019389Y013296D03*
X018983Y012858D03*
X018171Y012827D03*
X018452Y013483D03*
X017952Y013608D03*
X018080Y013827D03*
X017671Y013577D03*
X017639Y014077D03*
X017077Y013514D03*
X016952Y013171D03*
X016264Y012952D03*
X015139Y012358D03*
X013983Y011233D03*
X012827Y011577D03*
X012014Y011577D03*
X012514Y012639D03*
X012514Y013608D03*
X012296Y014671D03*
X012296Y015514D03*
X014296Y016577D03*
X013296Y016702D03*
X013921Y017608D03*
X015046Y018764D03*
X015671Y018764D03*
X016796Y018139D03*
X017889Y018171D03*
X018264Y018202D03*
X018858Y018889D03*
X019796Y018889D03*
X019921Y018014D03*
X021171Y018139D03*
X021608Y017702D03*
X022014Y017702D03*
X022389Y017702D03*
X022483Y018139D03*
X023233Y018046D03*
X023233Y017608D03*
X023233Y017171D03*
X022858Y017171D03*
X022421Y016296D03*
X021983Y016296D03*
X021546Y016296D03*
X021233Y016108D03*
X020983Y016264D03*
X020671Y016421D03*
X019921Y016327D03*
X020202Y015952D03*
X019858Y015858D03*
X019389Y015577D03*
X019108Y015577D03*
X018889Y015827D03*
X018796Y015264D03*
X018546Y015233D03*
X018139Y015202D03*
X017639Y015202D03*
X017233Y015327D03*
X016983Y015358D03*
X016483Y015827D03*
X015858Y015546D03*
X015327Y015421D03*
X015014Y015139D03*
X014514Y015358D03*
X015827Y014858D03*
X015671Y014514D03*
X015452Y014327D03*
X015046Y014264D03*
X014233Y013889D03*
X014108Y014139D03*
X016514Y014233D03*
X019108Y015202D03*
X020358Y015577D03*
X020858Y015639D03*
X021233Y014827D03*
X020358Y014264D03*
X019608Y014264D03*
X017858Y016577D03*
X017108Y016452D03*
X016452Y016483D03*
X016108Y016514D03*
X015764Y016514D03*
X017546Y018889D03*
X021171Y018827D03*
X022483Y018796D03*
X024296Y016733D03*
X024296Y015671D03*
X024108Y013889D03*
X023046Y013139D03*
X020952Y011671D03*
X020608Y011514D03*
X020983Y011264D03*
X021171Y010952D03*
X022108Y011327D03*
X019139Y010889D03*
X018983Y011608D03*
X024108Y007483D03*
X025014Y007514D03*
X023233Y006702D03*
X022546Y007046D03*
X011921Y016671D03*
D40*
X011921Y016889D02*
X011921Y011577D01*
X012014Y011577D01*
X012014Y011389D01*
X012889Y011389D01*
X012889Y010514D01*
X013452Y010514D01*
X013526Y010089D02*
X013014Y010089D01*
X013014Y009833D02*
X013583Y009833D01*
X014171Y010421D01*
X014474Y010421D01*
X014474Y010046D02*
X014108Y010046D01*
X013639Y009577D01*
X013014Y009577D01*
X013526Y010089D02*
X013983Y010546D01*
X013983Y010983D01*
X013983Y011014D01*
X013983Y011233D01*
X013974Y011024D02*
X013983Y011014D01*
X013974Y011024D02*
X013974Y010952D01*
X014367Y010952D02*
X014389Y010974D01*
X014389Y010921D01*
X014396Y010914D01*
X015557Y010914D01*
X015557Y010718D02*
X016092Y010718D01*
X016327Y010483D01*
X016327Y010139D01*
X016430Y009930D02*
X017483Y010983D01*
X018233Y010983D01*
X018233Y010358D02*
X017514Y010358D01*
X016246Y009090D01*
X016246Y008651D01*
X016640Y008651D02*
X016640Y008108D01*
X016799Y007949D01*
X016799Y006967D01*
X016405Y006967D02*
X016405Y006311D01*
X016389Y006296D01*
X017193Y006967D02*
X017193Y007867D01*
X016836Y008224D01*
X016836Y008651D01*
X017033Y008651D02*
X017033Y008339D01*
X017586Y007786D01*
X017586Y006967D01*
X017980Y006967D02*
X017980Y007768D01*
X017624Y008124D01*
X017624Y008651D01*
X017821Y008651D02*
X017821Y008989D01*
X017608Y009202D01*
X018214Y009058D02*
X018296Y009139D01*
X018327Y009139D01*
X018214Y009058D02*
X018214Y008651D01*
X018411Y008651D02*
X018411Y008255D01*
X018264Y008108D01*
X018171Y008108D01*
X018858Y007983D02*
X018858Y007858D01*
X018374Y007374D01*
X018374Y006967D01*
X018374Y006718D01*
X018889Y006202D01*
X019514Y006202D01*
X020068Y005648D01*
X020108Y005648D01*
X020398Y005358D01*
X020858Y005358D01*
X020858Y005349D01*
X020867Y005358D01*
X021349Y005358D01*
X021358Y005349D01*
X021346Y005349D01*
X021336Y005358D01*
X021889Y005358D01*
X021880Y005349D01*
X021858Y005349D01*
X021858Y005742D02*
X021858Y006125D01*
X021358Y006125D02*
X021358Y005742D01*
X020858Y005742D02*
X020858Y006125D01*
X020108Y006318D02*
X020108Y006358D01*
X019796Y006671D01*
X019814Y006671D01*
X019733Y007139D02*
X020483Y007139D01*
X020858Y006764D01*
X020827Y006764D01*
X020827Y006733D01*
X020844Y006716D01*
X020858Y006716D01*
X021358Y006716D02*
X021358Y006733D01*
X020733Y007358D01*
X019764Y007358D01*
X019546Y007577D01*
X019546Y008202D01*
X019592Y008249D01*
X019592Y008651D01*
X019396Y008651D02*
X019396Y008302D01*
X019358Y008264D01*
X019358Y007514D01*
X019733Y007139D01*
X019796Y007764D02*
X019796Y008005D01*
X019786Y008014D01*
X019796Y008014D01*
X019789Y008021D01*
X019789Y008017D01*
X019789Y008021D02*
X019789Y008651D01*
X019986Y008651D02*
X019986Y009074D01*
X019858Y009202D01*
X020139Y009327D02*
X020171Y009296D01*
X020171Y008921D01*
X020183Y008908D01*
X020183Y008651D01*
X020380Y008651D02*
X020380Y009192D01*
X020389Y009202D01*
X020577Y009077D02*
X020639Y009139D01*
X020639Y009327D01*
X020577Y009077D02*
X020577Y008651D01*
X020970Y008651D02*
X020970Y008055D01*
X020930Y008014D01*
X021483Y008013D02*
X021546Y008013D01*
X021577Y007982D01*
X021545Y008014D01*
X021577Y007982D02*
X021609Y008014D01*
X022176Y007801D02*
X022327Y007952D01*
X022764Y007952D01*
X022916Y007801D01*
X022916Y007473D01*
X022916Y007542D01*
X022920Y007546D01*
X023411Y007880D02*
X023421Y007889D01*
X023421Y007952D01*
X023411Y008474D02*
X023421Y008483D01*
X023422Y008483D01*
X022916Y008493D02*
X022916Y008969D01*
X022921Y008974D01*
X022176Y008493D02*
X022176Y008488D01*
X022171Y008483D01*
X022176Y007801D02*
X022176Y007473D01*
X023108Y006358D02*
X023108Y005233D01*
X019764Y005421D02*
X014108Y005421D01*
X014108Y006546D01*
X014389Y007577D02*
X014390Y007578D01*
X014390Y007604D01*
X013577Y008014D02*
X013577Y008577D01*
X012889Y008577D01*
X012014Y008577D01*
X012014Y010514D01*
X012889Y010514D01*
X012014Y010514D02*
X012014Y011389D01*
X011764Y011327D02*
X011764Y008577D01*
X011764Y008514D02*
X011764Y007514D01*
X012014Y007577D02*
X012889Y007577D01*
X012889Y008014D01*
X013577Y008014D01*
X012889Y008014D02*
X012889Y008577D01*
X012014Y008577D02*
X012014Y007577D01*
X014716Y009560D02*
X014733Y009577D01*
X014747Y009563D01*
X014747Y009546D01*
X014733Y009577D02*
X014890Y009733D01*
X015557Y009733D01*
X015557Y009930D02*
X016430Y009930D01*
X016077Y010139D02*
X016077Y010452D01*
X016008Y010521D01*
X015557Y010521D01*
X015557Y010324D02*
X014964Y010324D01*
X014867Y010421D01*
X014949Y010127D02*
X014867Y010046D01*
X014827Y010046D01*
X014836Y010055D01*
X014949Y010127D02*
X015557Y010127D01*
X015557Y009340D02*
X015557Y009151D01*
X015421Y009014D01*
X015358Y008952D01*
X015117Y008952D01*
X014389Y010974D02*
X014389Y011327D01*
X014202Y011514D01*
X014180Y011514D01*
X014358Y011764D02*
X014358Y012514D01*
X014080Y012793D01*
X013436Y012793D01*
X013436Y013186D02*
X013967Y013186D01*
X014546Y012608D01*
X014546Y011858D01*
X015096Y011308D01*
X015557Y011308D01*
X015557Y011111D02*
X015011Y011111D01*
X014358Y011764D01*
X014733Y011952D02*
X014733Y012702D01*
X013855Y013580D01*
X013436Y013580D01*
X013436Y013974D02*
X013742Y013974D01*
X014921Y012796D01*
X014921Y012014D01*
X015233Y011702D01*
X015557Y011702D01*
X015557Y011505D02*
X015180Y011505D01*
X014733Y011952D01*
X015139Y012358D02*
X015205Y012292D01*
X015557Y012292D01*
X015557Y012489D02*
X015927Y012489D01*
X016264Y012827D01*
X016264Y012952D01*
X015557Y013080D02*
X015043Y013080D01*
X014233Y013889D01*
X014296Y014139D02*
X014108Y014139D01*
X014296Y014139D02*
X015158Y013277D01*
X015557Y013277D01*
X015557Y013474D02*
X015211Y013474D01*
X014318Y014367D01*
X013436Y014367D01*
X013436Y014761D02*
X014174Y014761D01*
X015265Y013670D01*
X015557Y013670D01*
X015557Y013867D02*
X015961Y013867D01*
X016046Y013952D01*
X016046Y014233D01*
X015764Y014514D01*
X015671Y014514D01*
X015246Y014064D02*
X015046Y014264D01*
X015246Y014064D02*
X015557Y014064D01*
X016246Y014753D02*
X016246Y015002D01*
X016014Y015233D01*
X015992Y015233D01*
X015983Y015233D01*
X015983Y015421D01*
X015858Y015546D01*
X015858Y015889D01*
X015796Y015889D01*
X015774Y015911D01*
X015702Y015911D01*
X015858Y015889D02*
X016077Y015889D01*
X016099Y015911D01*
X016108Y015911D01*
X016108Y016305D02*
X016108Y016514D01*
X016096Y016526D01*
X016096Y017144D01*
X015604Y017144D02*
X015604Y016675D01*
X015764Y016514D01*
X015764Y016327D01*
X015742Y016305D01*
X015702Y016305D01*
X016639Y015532D02*
X016640Y015531D01*
X016640Y014753D01*
X016836Y014753D02*
X016836Y015211D01*
X016983Y015358D01*
X016983Y015514D01*
X017099Y015630D01*
X017108Y015630D01*
X017233Y015327D02*
X017358Y015327D01*
X017483Y015452D01*
X017483Y015630D01*
X017233Y015327D02*
X017233Y015296D01*
X017033Y015096D01*
X017033Y014753D01*
X017427Y014753D02*
X017427Y013820D01*
X017671Y013577D01*
X017827Y013733D02*
X017952Y013608D01*
X017827Y013733D02*
X017827Y013921D01*
X017889Y013983D01*
X017889Y014233D01*
X017821Y014302D01*
X017821Y014753D01*
X018018Y014753D02*
X018018Y014386D01*
X018108Y014296D01*
X018108Y013855D01*
X018080Y013827D01*
X017639Y014077D02*
X017624Y014092D01*
X017624Y014753D01*
X018608Y014753D02*
X018608Y015171D01*
X018546Y015233D01*
X018796Y015264D02*
X018805Y015255D01*
X018805Y014753D01*
X019327Y015327D02*
X019108Y015546D01*
X019108Y015577D01*
X019389Y015577D02*
X019403Y015591D01*
X019403Y016414D01*
X019600Y016414D02*
X019600Y015675D01*
X019986Y015289D01*
X019986Y014753D01*
X019789Y014753D02*
X019789Y015208D01*
X019671Y015327D01*
X019327Y015327D01*
X018711Y015952D02*
X018305Y015952D01*
X018711Y015952D02*
X018813Y016053D01*
X018813Y016414D01*
X017483Y016430D02*
X017483Y016024D01*
X017483Y016014D01*
X017474Y016024D01*
X017108Y016024D01*
X017108Y016452D02*
X017421Y016452D01*
X017421Y016492D01*
X017483Y016430D01*
X017421Y017162D02*
X017421Y017657D01*
X017421Y017686D01*
X017428Y017694D01*
X017421Y017702D01*
X017428Y017694D02*
X018321Y017694D01*
X018477Y017989D02*
X018264Y018202D01*
X018477Y017989D02*
X018616Y017989D01*
X019010Y017989D02*
X019010Y018408D01*
X018778Y018639D01*
X018403Y018639D01*
X019207Y018363D02*
X019358Y018514D01*
X020171Y018514D01*
X020608Y018077D01*
X020608Y016483D01*
X020671Y016421D01*
X021108Y016536D02*
X021108Y016546D01*
X021536Y016546D01*
X021546Y016536D01*
X021546Y016296D01*
X021983Y016296D02*
X021983Y016536D01*
X022421Y016536D02*
X022421Y016296D01*
X022421Y016930D02*
X022421Y017671D01*
X022389Y017702D01*
X022014Y017702D02*
X021983Y017671D01*
X021983Y016930D01*
X021546Y016930D02*
X021546Y017639D01*
X021608Y017702D01*
X020421Y017952D02*
X020421Y016139D01*
X020577Y015983D01*
X020577Y014753D01*
X020773Y014753D02*
X020773Y015314D01*
X020849Y015389D01*
X020849Y015630D01*
X020858Y015639D01*
X020380Y015555D02*
X020358Y015577D01*
X020380Y015555D02*
X020380Y014753D01*
X020183Y014753D02*
X020183Y015408D01*
X020108Y015483D01*
X020108Y015858D01*
X020202Y015952D01*
X022172Y014706D02*
X022172Y014547D01*
X022171Y014546D01*
X021461Y014546D01*
X020929Y014014D01*
X019421Y014014D01*
X018577Y013171D01*
X016952Y013171D01*
X018983Y011608D02*
X019274Y011899D01*
X021659Y011899D01*
X022349Y011899D01*
X022358Y011908D01*
X022358Y012077D01*
X022349Y012077D01*
X022349Y011899D02*
X022358Y011889D01*
X022358Y011711D01*
X022349Y011702D01*
X022349Y011327D02*
X022108Y011327D01*
X022089Y011308D01*
X021659Y011308D01*
X021659Y011505D02*
X021224Y011505D01*
X020983Y011264D01*
X020952Y011671D02*
X020983Y011702D01*
X021659Y011702D01*
X021659Y012096D02*
X021027Y012096D01*
X020577Y012546D01*
X020577Y013452D01*
X020796Y013233D02*
X020796Y012639D01*
X021143Y012292D01*
X021659Y012292D01*
X021659Y012489D02*
X021258Y012489D01*
X021014Y012733D01*
X021014Y013014D01*
X021659Y013080D02*
X022227Y013080D01*
X022233Y013086D01*
X022724Y013086D01*
X022733Y013077D01*
X022733Y013122D01*
X022813Y013122D01*
X022796Y013139D01*
X023046Y013139D01*
X023774Y013474D02*
X024108Y013139D01*
X024452Y013139D02*
X025008Y013139D01*
X024452Y013139D02*
X023921Y013670D01*
X023921Y013671D01*
X023921Y013670D02*
X021659Y013670D01*
X021659Y013474D02*
X023774Y013474D01*
X024086Y013867D02*
X024108Y013889D01*
X024099Y013880D01*
X024086Y013867D02*
X021659Y013867D01*
X021659Y014064D02*
X023752Y014064D01*
X023827Y014139D01*
X025008Y014139D01*
X025008Y012139D02*
X024264Y012139D01*
X023796Y011671D01*
X023796Y010608D01*
X023315Y010127D01*
X021659Y010127D01*
X021659Y010324D02*
X022074Y010324D01*
X022193Y010443D01*
X022193Y010514D01*
X022202Y010524D01*
X022202Y010858D01*
X022742Y012077D02*
X023046Y012077D01*
X024171Y010889D02*
X024421Y011139D01*
X025008Y011139D01*
X025008Y010139D02*
X024452Y010139D01*
X024171Y009858D01*
X019805Y008014D02*
X019796Y008014D01*
X019199Y008651D02*
X019199Y009105D01*
X019358Y009264D01*
X019046Y009389D02*
X019002Y009346D01*
X019002Y008651D01*
X018805Y008651D02*
X018805Y009586D01*
X018889Y009671D01*
X021659Y013080D02*
X021659Y013277D01*
X015014Y015139D02*
X015014Y015358D01*
X015014Y015380D01*
X015011Y015361D02*
X015014Y015358D01*
X013436Y015155D02*
X012811Y015155D01*
X012796Y015139D01*
X016796Y017711D02*
X016796Y017764D01*
X016921Y017639D01*
X017403Y017639D01*
X017421Y017657D01*
X016796Y017764D02*
X016671Y017889D01*
X016084Y017889D01*
X016096Y017901D01*
X016096Y018010D01*
X016096Y018512D01*
X016099Y018514D01*
X016046Y018514D01*
X016096Y018464D01*
X016099Y018514D02*
X015671Y018514D01*
X015604Y018448D01*
X015604Y018010D01*
X019207Y017989D02*
X019207Y018363D01*
X019403Y018247D02*
X019403Y017989D01*
X019403Y018247D02*
X019483Y018327D01*
X020046Y018327D01*
X020421Y017952D01*
D41*
X015112Y017952D02*
X015112Y018010D01*
X015108Y017952D02*
X015112Y017952D01*
X015108Y017952D02*
X015108Y018639D01*
X023421Y009139D02*
X023421Y008474D01*
X023421Y007889D01*
X023411Y007889D02*
X023411Y007693D01*
X023264Y007546D01*
X022920Y007546D01*
X023411Y007880D02*
X023411Y007889D01*
X023411Y008474D02*
X023421Y008474D01*
X022171Y008483D02*
X021983Y008483D01*
X021894Y008394D01*
X021894Y008176D01*
X021733Y008014D01*
X021609Y008014D01*
X021545Y008014D02*
X021171Y008014D01*
X020930Y008014D01*
X015858Y007608D02*
X015764Y007608D01*
X015577Y007421D01*
X015577Y006952D01*
X015358Y006733D01*
X014769Y006733D01*
X014764Y006738D01*
X014764Y006117D01*
X014769Y006733D02*
X014764Y006733D01*
X014377Y007555D02*
X014377Y007564D01*
X014389Y007577D01*
X014377Y007555D02*
X014336Y007555D01*
X014327Y007546D01*
X013899Y007546D01*
X013899Y007880D01*
X013889Y007889D01*
X014390Y007604D02*
X014390Y008296D01*
D42*
X015858Y007608D03*
X015608Y006296D03*
X016389Y006296D03*
X018389Y006202D03*
X021171Y008014D03*
X023421Y009139D03*
X024077Y009139D03*
X022389Y006233D03*
X012796Y015139D03*
X014358Y016139D03*
X022983Y016014D03*
D43*
X022546Y015577D01*
X022546Y015572D01*
X022920Y014706D02*
X023519Y014706D01*
X023733Y014921D01*
X023733Y015139D01*
X023732Y015140D01*
D44*
X023421Y008484D02*
X023422Y008483D01*
D45*
X024077Y009139D02*
X025008Y009139D01*
D46*
X025008Y015139D02*
X023733Y015139D01*
M02*
