G75*
G70*
%OFA0B0*%
%FSLAX24Y24*%
%IPPOS*%
%LPD*%
%AMOC8*
5,1,8,0,0,1.08239X$1,22.5*
%
%ADD10C,0.0000*%
%ADD11R,0.0236X0.0433*%
%ADD12R,0.0197X0.0236*%
%ADD13R,0.0315X0.0114*%
%ADD14R,0.0114X0.0315*%
%ADD15R,0.0236X0.0236*%
%ADD16R,0.0236X0.0354*%
%ADD17R,0.0354X0.0236*%
%ADD18R,0.0236X0.0197*%
%ADD19R,0.0220X0.0500*%
%ADD20R,0.0394X0.0551*%
%ADD21R,0.0610X0.0236*%
%ADD22R,0.0709X0.0472*%
%ADD23R,0.1000X0.0750*%
%ADD24R,0.0276X0.0512*%
%ADD25R,0.0512X0.0276*%
%ADD26R,0.0543X0.0177*%
%ADD27R,0.0827X0.0581*%
%ADD28R,0.0748X0.0935*%
%ADD29R,0.0748X0.0463*%
%ADD30R,0.0236X0.0610*%
%ADD31R,0.0472X0.0709*%
%ADD32R,0.0394X0.0433*%
%ADD33R,0.0315X0.0315*%
%ADD34R,0.0472X0.0118*%
%ADD35R,0.0118X0.0472*%
D10*
X011483Y005999D02*
X011483Y018203D01*
X011485Y018265D01*
X011491Y018326D01*
X011500Y018387D01*
X011514Y018448D01*
X011531Y018507D01*
X011552Y018565D01*
X011577Y018622D01*
X011605Y018677D01*
X011636Y018730D01*
X011671Y018781D01*
X011709Y018830D01*
X011750Y018877D01*
X011793Y018920D01*
X011840Y018961D01*
X011889Y018999D01*
X011940Y019034D01*
X011993Y019065D01*
X012048Y019093D01*
X012105Y019118D01*
X012163Y019139D01*
X012222Y019156D01*
X012283Y019170D01*
X012344Y019179D01*
X012405Y019185D01*
X012467Y019187D01*
X012467Y019188D02*
X024672Y019188D01*
X024672Y019187D02*
X024734Y019185D01*
X024795Y019179D01*
X024856Y019170D01*
X024917Y019156D01*
X024976Y019139D01*
X025034Y019118D01*
X025091Y019093D01*
X025146Y019065D01*
X025199Y019034D01*
X025250Y018999D01*
X025299Y018961D01*
X025346Y018920D01*
X025389Y018877D01*
X025430Y018830D01*
X025468Y018781D01*
X025503Y018730D01*
X025534Y018677D01*
X025562Y018622D01*
X025587Y018565D01*
X025608Y018507D01*
X025625Y018448D01*
X025639Y018387D01*
X025648Y018326D01*
X025654Y018265D01*
X025656Y018203D01*
X025656Y005999D01*
X025654Y005937D01*
X025648Y005876D01*
X025639Y005815D01*
X025625Y005754D01*
X025608Y005695D01*
X025587Y005637D01*
X025562Y005580D01*
X025534Y005525D01*
X025503Y005472D01*
X025468Y005421D01*
X025430Y005372D01*
X025389Y005325D01*
X025346Y005282D01*
X025299Y005241D01*
X025250Y005203D01*
X025199Y005168D01*
X025146Y005137D01*
X025091Y005109D01*
X025034Y005084D01*
X024976Y005063D01*
X024917Y005046D01*
X024856Y005032D01*
X024795Y005023D01*
X024734Y005017D01*
X024672Y005015D01*
X024672Y005014D02*
X012467Y005014D01*
X012467Y005015D02*
X012405Y005017D01*
X012344Y005023D01*
X012283Y005032D01*
X012222Y005046D01*
X012163Y005063D01*
X012105Y005084D01*
X012048Y005109D01*
X011993Y005137D01*
X011940Y005168D01*
X011889Y005203D01*
X011840Y005241D01*
X011793Y005282D01*
X011750Y005325D01*
X011709Y005372D01*
X011671Y005421D01*
X011636Y005472D01*
X011605Y005525D01*
X011577Y005580D01*
X011552Y005637D01*
X011531Y005695D01*
X011514Y005754D01*
X011500Y005815D01*
X011491Y005876D01*
X011485Y005937D01*
X011483Y005999D01*
X011975Y006097D02*
X011977Y006145D01*
X011983Y006193D01*
X011993Y006240D01*
X012006Y006286D01*
X012024Y006331D01*
X012044Y006375D01*
X012069Y006417D01*
X012097Y006456D01*
X012127Y006493D01*
X012161Y006527D01*
X012198Y006559D01*
X012236Y006588D01*
X012277Y006613D01*
X012320Y006635D01*
X012365Y006653D01*
X012411Y006667D01*
X012458Y006678D01*
X012506Y006685D01*
X012554Y006688D01*
X012602Y006687D01*
X012650Y006682D01*
X012698Y006673D01*
X012744Y006661D01*
X012789Y006644D01*
X012833Y006624D01*
X012875Y006601D01*
X012915Y006574D01*
X012953Y006544D01*
X012988Y006511D01*
X013020Y006475D01*
X013050Y006437D01*
X013076Y006396D01*
X013098Y006353D01*
X013118Y006309D01*
X013133Y006264D01*
X013145Y006217D01*
X013153Y006169D01*
X013157Y006121D01*
X013157Y006073D01*
X013153Y006025D01*
X013145Y005977D01*
X013133Y005930D01*
X013118Y005885D01*
X013098Y005841D01*
X013076Y005798D01*
X013050Y005757D01*
X013020Y005719D01*
X012988Y005683D01*
X012953Y005650D01*
X012915Y005620D01*
X012875Y005593D01*
X012833Y005570D01*
X012789Y005550D01*
X012744Y005533D01*
X012698Y005521D01*
X012650Y005512D01*
X012602Y005507D01*
X012554Y005506D01*
X012506Y005509D01*
X012458Y005516D01*
X012411Y005527D01*
X012365Y005541D01*
X012320Y005559D01*
X012277Y005581D01*
X012236Y005606D01*
X012198Y005635D01*
X012161Y005667D01*
X012127Y005701D01*
X012097Y005738D01*
X012069Y005777D01*
X012044Y005819D01*
X012024Y005863D01*
X012006Y005908D01*
X011993Y005954D01*
X011983Y006001D01*
X011977Y006049D01*
X011975Y006097D01*
X023983Y006097D02*
X023985Y006145D01*
X023991Y006193D01*
X024001Y006240D01*
X024014Y006286D01*
X024032Y006331D01*
X024052Y006375D01*
X024077Y006417D01*
X024105Y006456D01*
X024135Y006493D01*
X024169Y006527D01*
X024206Y006559D01*
X024244Y006588D01*
X024285Y006613D01*
X024328Y006635D01*
X024373Y006653D01*
X024419Y006667D01*
X024466Y006678D01*
X024514Y006685D01*
X024562Y006688D01*
X024610Y006687D01*
X024658Y006682D01*
X024706Y006673D01*
X024752Y006661D01*
X024797Y006644D01*
X024841Y006624D01*
X024883Y006601D01*
X024923Y006574D01*
X024961Y006544D01*
X024996Y006511D01*
X025028Y006475D01*
X025058Y006437D01*
X025084Y006396D01*
X025106Y006353D01*
X025126Y006309D01*
X025141Y006264D01*
X025153Y006217D01*
X025161Y006169D01*
X025165Y006121D01*
X025165Y006073D01*
X025161Y006025D01*
X025153Y005977D01*
X025141Y005930D01*
X025126Y005885D01*
X025106Y005841D01*
X025084Y005798D01*
X025058Y005757D01*
X025028Y005719D01*
X024996Y005683D01*
X024961Y005650D01*
X024923Y005620D01*
X024883Y005593D01*
X024841Y005570D01*
X024797Y005550D01*
X024752Y005533D01*
X024706Y005521D01*
X024658Y005512D01*
X024610Y005507D01*
X024562Y005506D01*
X024514Y005509D01*
X024466Y005516D01*
X024419Y005527D01*
X024373Y005541D01*
X024328Y005559D01*
X024285Y005581D01*
X024244Y005606D01*
X024206Y005635D01*
X024169Y005667D01*
X024135Y005701D01*
X024105Y005738D01*
X024077Y005777D01*
X024052Y005819D01*
X024032Y005863D01*
X024014Y005908D01*
X024001Y005954D01*
X023991Y006001D01*
X023985Y006049D01*
X023983Y006097D01*
X023983Y018105D02*
X023985Y018153D01*
X023991Y018201D01*
X024001Y018248D01*
X024014Y018294D01*
X024032Y018339D01*
X024052Y018383D01*
X024077Y018425D01*
X024105Y018464D01*
X024135Y018501D01*
X024169Y018535D01*
X024206Y018567D01*
X024244Y018596D01*
X024285Y018621D01*
X024328Y018643D01*
X024373Y018661D01*
X024419Y018675D01*
X024466Y018686D01*
X024514Y018693D01*
X024562Y018696D01*
X024610Y018695D01*
X024658Y018690D01*
X024706Y018681D01*
X024752Y018669D01*
X024797Y018652D01*
X024841Y018632D01*
X024883Y018609D01*
X024923Y018582D01*
X024961Y018552D01*
X024996Y018519D01*
X025028Y018483D01*
X025058Y018445D01*
X025084Y018404D01*
X025106Y018361D01*
X025126Y018317D01*
X025141Y018272D01*
X025153Y018225D01*
X025161Y018177D01*
X025165Y018129D01*
X025165Y018081D01*
X025161Y018033D01*
X025153Y017985D01*
X025141Y017938D01*
X025126Y017893D01*
X025106Y017849D01*
X025084Y017806D01*
X025058Y017765D01*
X025028Y017727D01*
X024996Y017691D01*
X024961Y017658D01*
X024923Y017628D01*
X024883Y017601D01*
X024841Y017578D01*
X024797Y017558D01*
X024752Y017541D01*
X024706Y017529D01*
X024658Y017520D01*
X024610Y017515D01*
X024562Y017514D01*
X024514Y017517D01*
X024466Y017524D01*
X024419Y017535D01*
X024373Y017549D01*
X024328Y017567D01*
X024285Y017589D01*
X024244Y017614D01*
X024206Y017643D01*
X024169Y017675D01*
X024135Y017709D01*
X024105Y017746D01*
X024077Y017785D01*
X024052Y017827D01*
X024032Y017871D01*
X024014Y017916D01*
X024001Y017962D01*
X023991Y018009D01*
X023985Y018057D01*
X023983Y018105D01*
X011975Y018105D02*
X011977Y018153D01*
X011983Y018201D01*
X011993Y018248D01*
X012006Y018294D01*
X012024Y018339D01*
X012044Y018383D01*
X012069Y018425D01*
X012097Y018464D01*
X012127Y018501D01*
X012161Y018535D01*
X012198Y018567D01*
X012236Y018596D01*
X012277Y018621D01*
X012320Y018643D01*
X012365Y018661D01*
X012411Y018675D01*
X012458Y018686D01*
X012506Y018693D01*
X012554Y018696D01*
X012602Y018695D01*
X012650Y018690D01*
X012698Y018681D01*
X012744Y018669D01*
X012789Y018652D01*
X012833Y018632D01*
X012875Y018609D01*
X012915Y018582D01*
X012953Y018552D01*
X012988Y018519D01*
X013020Y018483D01*
X013050Y018445D01*
X013076Y018404D01*
X013098Y018361D01*
X013118Y018317D01*
X013133Y018272D01*
X013145Y018225D01*
X013153Y018177D01*
X013157Y018129D01*
X013157Y018081D01*
X013153Y018033D01*
X013145Y017985D01*
X013133Y017938D01*
X013118Y017893D01*
X013098Y017849D01*
X013076Y017806D01*
X013050Y017765D01*
X013020Y017727D01*
X012988Y017691D01*
X012953Y017658D01*
X012915Y017628D01*
X012875Y017601D01*
X012833Y017578D01*
X012789Y017558D01*
X012744Y017541D01*
X012698Y017529D01*
X012650Y017520D01*
X012602Y017515D01*
X012554Y017514D01*
X012506Y017517D01*
X012458Y017524D01*
X012411Y017535D01*
X012365Y017549D01*
X012320Y017567D01*
X012277Y017589D01*
X012236Y017614D01*
X012198Y017643D01*
X012161Y017675D01*
X012127Y017709D01*
X012097Y017746D01*
X012069Y017785D01*
X012044Y017827D01*
X012024Y017871D01*
X012006Y017916D01*
X011993Y017962D01*
X011983Y018009D01*
X011977Y018057D01*
X011975Y018105D01*
D11*
X014620Y018010D03*
X015112Y018010D03*
X015604Y018010D03*
X016096Y018010D03*
X016096Y017144D03*
X015604Y017144D03*
X015112Y017144D03*
X014620Y017144D03*
D12*
X016099Y018514D03*
X016492Y018514D03*
X017911Y015952D03*
X018305Y015952D03*
X015992Y015233D03*
X015599Y015233D03*
X020849Y015389D03*
X021242Y015389D03*
X022349Y012077D03*
X022742Y012077D03*
X022742Y011702D03*
X022742Y011327D03*
X022349Y011327D03*
X022349Y011702D03*
X022193Y010514D03*
X022586Y010514D03*
X020930Y008014D03*
X020536Y008014D03*
X020180Y008014D03*
X019786Y008014D03*
X023411Y007889D03*
X023805Y007889D03*
X015117Y008952D03*
X014724Y008952D03*
X014867Y010046D03*
X014867Y010421D03*
X014474Y010421D03*
X014474Y010046D03*
X014367Y010952D03*
X013974Y010952D03*
X013786Y011514D03*
X014180Y011514D03*
X013899Y007546D03*
X013505Y007546D03*
D13*
X018321Y016710D03*
X018321Y016907D03*
X018321Y017103D03*
X018321Y017300D03*
X018321Y017497D03*
X018321Y017694D03*
X019896Y017694D03*
X019896Y017497D03*
X019896Y017300D03*
X019896Y017103D03*
X019896Y016907D03*
X019896Y016710D03*
D14*
X019600Y016414D03*
X019403Y016414D03*
X019207Y016414D03*
X019010Y016414D03*
X018813Y016414D03*
X018616Y016414D03*
X018616Y017989D03*
X018813Y017989D03*
X019010Y017989D03*
X019207Y017989D03*
X019403Y017989D03*
X019600Y017989D03*
D15*
X019108Y017202D03*
D16*
X018403Y018639D03*
X017813Y018639D03*
X014747Y009546D03*
X014157Y009546D03*
D17*
X022733Y012532D03*
X022733Y013122D03*
X016639Y015532D03*
X016639Y016122D03*
X017421Y017657D03*
X017421Y018247D03*
D18*
X016796Y017711D03*
X016796Y017318D03*
X016108Y016305D03*
X015702Y016305D03*
X015702Y015911D03*
X016108Y015911D03*
X017108Y016024D03*
X017483Y016024D03*
X017483Y015630D03*
X017108Y015630D03*
X015014Y015774D03*
X015014Y015380D03*
X021108Y016536D03*
X021108Y016930D03*
X021546Y016930D03*
X021983Y016930D03*
X022421Y016930D03*
X022421Y016536D03*
X021983Y016536D03*
X021546Y016536D03*
X022233Y013086D03*
X022233Y012693D03*
X022921Y009367D03*
X022921Y008974D03*
X021858Y005742D03*
X021858Y005349D03*
X021358Y005349D03*
X021358Y005742D03*
X020858Y005742D03*
X020858Y005349D03*
X014764Y005724D03*
X014764Y006117D03*
D19*
X022176Y007473D03*
X022546Y007473D03*
X022916Y007473D03*
X022916Y008493D03*
X022176Y008493D03*
D20*
X015138Y007604D03*
X014390Y007604D03*
X014764Y006738D03*
X022172Y014706D03*
X022920Y014706D03*
X022546Y015572D03*
D21*
X013436Y015549D03*
X013436Y015155D03*
X013436Y014761D03*
X013436Y014367D03*
X013436Y013974D03*
X013436Y013580D03*
X013436Y013186D03*
X013436Y012793D03*
D22*
X011910Y012281D03*
X011910Y016060D03*
D23*
X025008Y016139D03*
X025008Y015139D03*
X025008Y014139D03*
X025008Y013139D03*
X025008Y012139D03*
X025008Y011139D03*
X025008Y010139D03*
X025008Y009139D03*
X025008Y008139D03*
D24*
X024170Y008483D03*
X023422Y008483D03*
X015138Y008296D03*
X014390Y008296D03*
D25*
X021577Y007982D03*
X021577Y007234D03*
D26*
X013014Y009065D03*
X013014Y009321D03*
X013014Y009577D03*
X013014Y009833D03*
X013014Y010089D03*
D27*
X012873Y010546D03*
X012873Y008607D03*
D28*
X011967Y008430D03*
X011967Y010724D03*
D29*
X011967Y009900D03*
X011967Y009242D03*
D30*
X016011Y006967D03*
X016405Y006967D03*
X016799Y006967D03*
X017193Y006967D03*
X017586Y006967D03*
X017980Y006967D03*
X018374Y006967D03*
X018767Y006967D03*
D31*
X019279Y005441D03*
X015500Y005441D03*
D32*
X020108Y005648D03*
X020108Y006318D03*
X017421Y016492D03*
X017421Y017162D03*
D33*
X020858Y006716D03*
X021358Y006716D03*
X021858Y006716D03*
X021858Y006125D03*
X021358Y006125D03*
X020858Y006125D03*
D34*
X021659Y009340D03*
X021659Y009537D03*
X021659Y009733D03*
X021659Y009930D03*
X021659Y010127D03*
X021659Y010324D03*
X021659Y010521D03*
X021659Y010718D03*
X021659Y010914D03*
X021659Y011111D03*
X021659Y011308D03*
X021659Y011505D03*
X021659Y011702D03*
X021659Y011899D03*
X021659Y012096D03*
X021659Y012292D03*
X021659Y012489D03*
X021659Y012686D03*
X021659Y012883D03*
X021659Y013080D03*
X021659Y013277D03*
X021659Y013474D03*
X021659Y013670D03*
X021659Y013867D03*
X021659Y014064D03*
X015557Y014064D03*
X015557Y013867D03*
X015557Y013670D03*
X015557Y013474D03*
X015557Y013277D03*
X015557Y013080D03*
X015557Y012883D03*
X015557Y012686D03*
X015557Y012489D03*
X015557Y012292D03*
X015557Y012096D03*
X015557Y011899D03*
X015557Y011702D03*
X015557Y011505D03*
X015557Y011308D03*
X015557Y011111D03*
X015557Y010914D03*
X015557Y010718D03*
X015557Y010521D03*
X015557Y010324D03*
X015557Y010127D03*
X015557Y009930D03*
X015557Y009733D03*
X015557Y009537D03*
X015557Y009340D03*
D35*
X016246Y008651D03*
X016443Y008651D03*
X016640Y008651D03*
X016836Y008651D03*
X017033Y008651D03*
X017230Y008651D03*
X017427Y008651D03*
X017624Y008651D03*
X017821Y008651D03*
X018018Y008651D03*
X018214Y008651D03*
X018411Y008651D03*
X018608Y008651D03*
X018805Y008651D03*
X019002Y008651D03*
X019199Y008651D03*
X019396Y008651D03*
X019592Y008651D03*
X019789Y008651D03*
X019986Y008651D03*
X020183Y008651D03*
X020380Y008651D03*
X020577Y008651D03*
X020773Y008651D03*
X020970Y008651D03*
X020970Y014753D03*
X020773Y014753D03*
X020577Y014753D03*
X020380Y014753D03*
X020183Y014753D03*
X019986Y014753D03*
X019789Y014753D03*
X019592Y014753D03*
X019396Y014753D03*
X019199Y014753D03*
X019002Y014753D03*
X018805Y014753D03*
X018608Y014753D03*
X018411Y014753D03*
X018214Y014753D03*
X018018Y014753D03*
X017821Y014753D03*
X017624Y014753D03*
X017427Y014753D03*
X017230Y014753D03*
X017033Y014753D03*
X016836Y014753D03*
X016640Y014753D03*
X016443Y014753D03*
X016246Y014753D03*
M02*
