G75*
G70*
%OFA0B0*%
%FSLAX24Y24*%
%IPPOS*%
%LPD*%
%AMOC8*
5,1,8,0,0,1.08239X$1,22.5*
%
%ADD10C,0.0000*%
%ADD11R,0.0236X0.0433*%
%ADD12R,0.0197X0.0236*%
%ADD13R,0.0315X0.0114*%
%ADD14R,0.0114X0.0315*%
%ADD15R,0.0394X0.0394*%
%ADD16R,0.0236X0.0354*%
%ADD17R,0.0354X0.0236*%
%ADD18R,0.0236X0.0197*%
%ADD19R,0.0220X0.0500*%
%ADD20R,0.0394X0.0551*%
%ADD21R,0.0610X0.0236*%
%ADD22R,0.0709X0.0472*%
%ADD23R,0.1000X0.0750*%
%ADD24R,0.0512X0.0276*%
%ADD25R,0.0276X0.0512*%
%ADD26R,0.0543X0.0177*%
%ADD27R,0.0827X0.0581*%
%ADD28R,0.0748X0.0935*%
%ADD29R,0.0748X0.0463*%
%ADD30R,0.1024X0.0157*%
%ADD31R,0.0394X0.0433*%
%ADD32R,0.0315X0.0315*%
%ADD33R,0.0600X0.0600*%
%ADD34OC8,0.0600*%
%ADD35R,0.0460X0.0630*%
%ADD36R,0.0472X0.0118*%
%ADD37R,0.0118X0.0472*%
%ADD38R,0.0400X0.0200*%
%ADD39C,0.0079*%
%ADD40C,0.0198*%
%ADD41C,0.0100*%
%ADD42C,0.0160*%
%ADD43C,0.0295*%
%ADD44C,0.0320*%
%ADD45C,0.0400*%
%ADD46C,0.0500*%
D10*
X011483Y005999D02*
X011483Y006796D01*
X012327Y007639D01*
X012327Y016577D01*
X011483Y017421D01*
X011483Y018203D01*
X011485Y018265D01*
X011491Y018326D01*
X011500Y018387D01*
X011514Y018448D01*
X011531Y018507D01*
X011552Y018565D01*
X011577Y018622D01*
X011605Y018677D01*
X011636Y018730D01*
X011671Y018781D01*
X011709Y018830D01*
X011750Y018877D01*
X011793Y018920D01*
X011840Y018961D01*
X011889Y018999D01*
X011940Y019034D01*
X011993Y019065D01*
X012048Y019093D01*
X012105Y019118D01*
X012163Y019139D01*
X012222Y019156D01*
X012283Y019170D01*
X012344Y019179D01*
X012405Y019185D01*
X012467Y019187D01*
X012467Y019188D02*
X024672Y019188D01*
X024672Y019187D02*
X024734Y019185D01*
X024795Y019179D01*
X024856Y019170D01*
X024917Y019156D01*
X024976Y019139D01*
X025034Y019118D01*
X025091Y019093D01*
X025146Y019065D01*
X025199Y019034D01*
X025250Y018999D01*
X025299Y018961D01*
X025346Y018920D01*
X025389Y018877D01*
X025430Y018830D01*
X025468Y018781D01*
X025503Y018730D01*
X025534Y018677D01*
X025562Y018622D01*
X025587Y018565D01*
X025608Y018507D01*
X025625Y018448D01*
X025639Y018387D01*
X025648Y018326D01*
X025654Y018265D01*
X025656Y018203D01*
X025656Y017406D01*
X024827Y016577D01*
X024827Y007764D01*
X025656Y006935D01*
X025656Y005999D01*
X025654Y005937D01*
X025648Y005876D01*
X025639Y005815D01*
X025625Y005754D01*
X025608Y005695D01*
X025587Y005637D01*
X025562Y005580D01*
X025534Y005525D01*
X025503Y005472D01*
X025468Y005421D01*
X025430Y005372D01*
X025389Y005325D01*
X025346Y005282D01*
X025299Y005241D01*
X025250Y005203D01*
X025199Y005168D01*
X025146Y005137D01*
X025091Y005109D01*
X025034Y005084D01*
X024976Y005063D01*
X024917Y005046D01*
X024856Y005032D01*
X024795Y005023D01*
X024734Y005017D01*
X024672Y005015D01*
X024672Y005014D02*
X012467Y005014D01*
X012467Y005015D02*
X012405Y005017D01*
X012344Y005023D01*
X012283Y005032D01*
X012222Y005046D01*
X012163Y005063D01*
X012105Y005084D01*
X012048Y005109D01*
X011993Y005137D01*
X011940Y005168D01*
X011889Y005203D01*
X011840Y005241D01*
X011793Y005282D01*
X011750Y005325D01*
X011709Y005372D01*
X011671Y005421D01*
X011636Y005472D01*
X011605Y005525D01*
X011577Y005580D01*
X011552Y005637D01*
X011531Y005695D01*
X011514Y005754D01*
X011500Y005815D01*
X011491Y005876D01*
X011485Y005937D01*
X011483Y005999D01*
X011975Y006097D02*
X011977Y006145D01*
X011983Y006193D01*
X011993Y006240D01*
X012006Y006286D01*
X012024Y006331D01*
X012044Y006375D01*
X012069Y006417D01*
X012097Y006456D01*
X012127Y006493D01*
X012161Y006527D01*
X012198Y006559D01*
X012236Y006588D01*
X012277Y006613D01*
X012320Y006635D01*
X012365Y006653D01*
X012411Y006667D01*
X012458Y006678D01*
X012506Y006685D01*
X012554Y006688D01*
X012602Y006687D01*
X012650Y006682D01*
X012698Y006673D01*
X012744Y006661D01*
X012789Y006644D01*
X012833Y006624D01*
X012875Y006601D01*
X012915Y006574D01*
X012953Y006544D01*
X012988Y006511D01*
X013020Y006475D01*
X013050Y006437D01*
X013076Y006396D01*
X013098Y006353D01*
X013118Y006309D01*
X013133Y006264D01*
X013145Y006217D01*
X013153Y006169D01*
X013157Y006121D01*
X013157Y006073D01*
X013153Y006025D01*
X013145Y005977D01*
X013133Y005930D01*
X013118Y005885D01*
X013098Y005841D01*
X013076Y005798D01*
X013050Y005757D01*
X013020Y005719D01*
X012988Y005683D01*
X012953Y005650D01*
X012915Y005620D01*
X012875Y005593D01*
X012833Y005570D01*
X012789Y005550D01*
X012744Y005533D01*
X012698Y005521D01*
X012650Y005512D01*
X012602Y005507D01*
X012554Y005506D01*
X012506Y005509D01*
X012458Y005516D01*
X012411Y005527D01*
X012365Y005541D01*
X012320Y005559D01*
X012277Y005581D01*
X012236Y005606D01*
X012198Y005635D01*
X012161Y005667D01*
X012127Y005701D01*
X012097Y005738D01*
X012069Y005777D01*
X012044Y005819D01*
X012024Y005863D01*
X012006Y005908D01*
X011993Y005954D01*
X011983Y006001D01*
X011977Y006049D01*
X011975Y006097D01*
X023983Y006097D02*
X023985Y006145D01*
X023991Y006193D01*
X024001Y006240D01*
X024014Y006286D01*
X024032Y006331D01*
X024052Y006375D01*
X024077Y006417D01*
X024105Y006456D01*
X024135Y006493D01*
X024169Y006527D01*
X024206Y006559D01*
X024244Y006588D01*
X024285Y006613D01*
X024328Y006635D01*
X024373Y006653D01*
X024419Y006667D01*
X024466Y006678D01*
X024514Y006685D01*
X024562Y006688D01*
X024610Y006687D01*
X024658Y006682D01*
X024706Y006673D01*
X024752Y006661D01*
X024797Y006644D01*
X024841Y006624D01*
X024883Y006601D01*
X024923Y006574D01*
X024961Y006544D01*
X024996Y006511D01*
X025028Y006475D01*
X025058Y006437D01*
X025084Y006396D01*
X025106Y006353D01*
X025126Y006309D01*
X025141Y006264D01*
X025153Y006217D01*
X025161Y006169D01*
X025165Y006121D01*
X025165Y006073D01*
X025161Y006025D01*
X025153Y005977D01*
X025141Y005930D01*
X025126Y005885D01*
X025106Y005841D01*
X025084Y005798D01*
X025058Y005757D01*
X025028Y005719D01*
X024996Y005683D01*
X024961Y005650D01*
X024923Y005620D01*
X024883Y005593D01*
X024841Y005570D01*
X024797Y005550D01*
X024752Y005533D01*
X024706Y005521D01*
X024658Y005512D01*
X024610Y005507D01*
X024562Y005506D01*
X024514Y005509D01*
X024466Y005516D01*
X024419Y005527D01*
X024373Y005541D01*
X024328Y005559D01*
X024285Y005581D01*
X024244Y005606D01*
X024206Y005635D01*
X024169Y005667D01*
X024135Y005701D01*
X024105Y005738D01*
X024077Y005777D01*
X024052Y005819D01*
X024032Y005863D01*
X024014Y005908D01*
X024001Y005954D01*
X023991Y006001D01*
X023985Y006049D01*
X023983Y006097D01*
X023983Y018105D02*
X023985Y018153D01*
X023991Y018201D01*
X024001Y018248D01*
X024014Y018294D01*
X024032Y018339D01*
X024052Y018383D01*
X024077Y018425D01*
X024105Y018464D01*
X024135Y018501D01*
X024169Y018535D01*
X024206Y018567D01*
X024244Y018596D01*
X024285Y018621D01*
X024328Y018643D01*
X024373Y018661D01*
X024419Y018675D01*
X024466Y018686D01*
X024514Y018693D01*
X024562Y018696D01*
X024610Y018695D01*
X024658Y018690D01*
X024706Y018681D01*
X024752Y018669D01*
X024797Y018652D01*
X024841Y018632D01*
X024883Y018609D01*
X024923Y018582D01*
X024961Y018552D01*
X024996Y018519D01*
X025028Y018483D01*
X025058Y018445D01*
X025084Y018404D01*
X025106Y018361D01*
X025126Y018317D01*
X025141Y018272D01*
X025153Y018225D01*
X025161Y018177D01*
X025165Y018129D01*
X025165Y018081D01*
X025161Y018033D01*
X025153Y017985D01*
X025141Y017938D01*
X025126Y017893D01*
X025106Y017849D01*
X025084Y017806D01*
X025058Y017765D01*
X025028Y017727D01*
X024996Y017691D01*
X024961Y017658D01*
X024923Y017628D01*
X024883Y017601D01*
X024841Y017578D01*
X024797Y017558D01*
X024752Y017541D01*
X024706Y017529D01*
X024658Y017520D01*
X024610Y017515D01*
X024562Y017514D01*
X024514Y017517D01*
X024466Y017524D01*
X024419Y017535D01*
X024373Y017549D01*
X024328Y017567D01*
X024285Y017589D01*
X024244Y017614D01*
X024206Y017643D01*
X024169Y017675D01*
X024135Y017709D01*
X024105Y017746D01*
X024077Y017785D01*
X024052Y017827D01*
X024032Y017871D01*
X024014Y017916D01*
X024001Y017962D01*
X023991Y018009D01*
X023985Y018057D01*
X023983Y018105D01*
X011975Y018105D02*
X011977Y018153D01*
X011983Y018201D01*
X011993Y018248D01*
X012006Y018294D01*
X012024Y018339D01*
X012044Y018383D01*
X012069Y018425D01*
X012097Y018464D01*
X012127Y018501D01*
X012161Y018535D01*
X012198Y018567D01*
X012236Y018596D01*
X012277Y018621D01*
X012320Y018643D01*
X012365Y018661D01*
X012411Y018675D01*
X012458Y018686D01*
X012506Y018693D01*
X012554Y018696D01*
X012602Y018695D01*
X012650Y018690D01*
X012698Y018681D01*
X012744Y018669D01*
X012789Y018652D01*
X012833Y018632D01*
X012875Y018609D01*
X012915Y018582D01*
X012953Y018552D01*
X012988Y018519D01*
X013020Y018483D01*
X013050Y018445D01*
X013076Y018404D01*
X013098Y018361D01*
X013118Y018317D01*
X013133Y018272D01*
X013145Y018225D01*
X013153Y018177D01*
X013157Y018129D01*
X013157Y018081D01*
X013153Y018033D01*
X013145Y017985D01*
X013133Y017938D01*
X013118Y017893D01*
X013098Y017849D01*
X013076Y017806D01*
X013050Y017765D01*
X013020Y017727D01*
X012988Y017691D01*
X012953Y017658D01*
X012915Y017628D01*
X012875Y017601D01*
X012833Y017578D01*
X012789Y017558D01*
X012744Y017541D01*
X012698Y017529D01*
X012650Y017520D01*
X012602Y017515D01*
X012554Y017514D01*
X012506Y017517D01*
X012458Y017524D01*
X012411Y017535D01*
X012365Y017549D01*
X012320Y017567D01*
X012277Y017589D01*
X012236Y017614D01*
X012198Y017643D01*
X012161Y017675D01*
X012127Y017709D01*
X012097Y017746D01*
X012069Y017785D01*
X012044Y017827D01*
X012024Y017871D01*
X012006Y017916D01*
X011993Y017962D01*
X011983Y018009D01*
X011977Y018057D01*
X011975Y018105D01*
D11*
X014620Y018010D03*
X015112Y018010D03*
X015604Y018010D03*
X016096Y018010D03*
X016096Y017144D03*
X015604Y017144D03*
X015112Y017144D03*
X014620Y017144D03*
D12*
X016099Y018514D03*
X016492Y018514D03*
X017911Y015952D03*
X018305Y015952D03*
X019255Y015046D03*
X019649Y015046D03*
X016211Y014983D03*
X015818Y014983D03*
X014492Y011764D03*
X014099Y011764D03*
X019630Y009296D03*
X020024Y009296D03*
X021036Y008952D03*
X021430Y008952D03*
X022661Y007889D03*
X023055Y007889D03*
X021305Y006577D03*
X020911Y006577D03*
X020818Y012233D03*
X021211Y012233D03*
X021568Y012233D03*
X021961Y012233D03*
D13*
X019896Y016710D03*
X019896Y016907D03*
X019896Y017103D03*
X019896Y017300D03*
X019896Y017497D03*
X019896Y017694D03*
X018321Y017694D03*
X018321Y017497D03*
X018321Y017300D03*
X018321Y017103D03*
X018321Y016907D03*
X018321Y016710D03*
D14*
X018616Y016414D03*
X018813Y016414D03*
X019010Y016414D03*
X019207Y016414D03*
X019403Y016414D03*
X019600Y016414D03*
X019600Y017989D03*
X019403Y017989D03*
X019207Y017989D03*
X019010Y017989D03*
X018813Y017989D03*
X018616Y017989D03*
D15*
X019108Y017202D03*
D16*
X018403Y018639D03*
X017813Y018639D03*
X016310Y015608D03*
X015719Y015608D03*
D17*
X017421Y017657D03*
X017421Y018247D03*
X021702Y013247D03*
X021702Y012657D03*
D18*
X021171Y012755D03*
X021171Y013149D03*
X017483Y015630D03*
X017108Y015630D03*
X017108Y016024D03*
X017483Y016024D03*
X016796Y017318D03*
X016796Y017711D03*
X014483Y011430D03*
X014858Y011211D03*
X015202Y011211D03*
X015202Y010818D03*
X014858Y010818D03*
X014483Y011036D03*
X015421Y010117D03*
X015421Y009724D03*
X020796Y010005D03*
X020796Y010399D03*
X022171Y009367D03*
X022171Y008974D03*
D19*
X022166Y008493D03*
X021426Y008493D03*
X021426Y007473D03*
X021796Y007473D03*
X022166Y007473D03*
D20*
X021576Y014675D03*
X020828Y014675D03*
X021202Y015541D03*
D21*
X014279Y015517D03*
X014279Y015124D03*
X014279Y014730D03*
X014279Y014336D03*
X014279Y013943D03*
X014279Y013549D03*
X014279Y013155D03*
X014279Y012761D03*
D22*
X012754Y012250D03*
X012754Y016029D03*
D23*
X023977Y016171D03*
X023977Y015171D03*
X023977Y014171D03*
X023977Y013171D03*
X023977Y012171D03*
X023977Y011171D03*
X023977Y010171D03*
X023977Y009171D03*
X023977Y008171D03*
D24*
X022327Y006732D03*
X022327Y005984D03*
D25*
X021420Y009452D03*
X020672Y009452D03*
D26*
X013858Y009415D03*
X013858Y009671D03*
X013858Y009927D03*
X013858Y010182D03*
X013858Y009159D03*
D27*
X013716Y008701D03*
X013716Y010640D03*
D28*
X012811Y010817D03*
X012811Y008524D03*
D29*
X012811Y009336D03*
X012811Y009993D03*
D30*
X022046Y010636D03*
X022046Y011108D03*
X022046Y011581D03*
D31*
X017421Y016492D03*
X017421Y017162D03*
X021046Y017318D03*
X021733Y017318D03*
X021733Y016648D03*
X021046Y016648D03*
D32*
X019046Y009122D03*
X018514Y009122D03*
X017983Y009122D03*
X017983Y008532D03*
X018514Y008532D03*
X019046Y008532D03*
D33*
X019296Y006671D03*
X019296Y005671D03*
X015296Y005671D03*
X022702Y015171D03*
D34*
X022702Y016171D03*
X022702Y017171D03*
X022702Y018171D03*
X015296Y008671D03*
X015296Y007671D03*
X015296Y006671D03*
X016296Y006671D03*
X017296Y006671D03*
X018296Y006671D03*
X018296Y005671D03*
X017296Y005671D03*
X016296Y005671D03*
D35*
X020714Y005733D03*
X021314Y005733D03*
D36*
X020341Y010694D03*
X020341Y010891D03*
X020341Y011088D03*
X020341Y011285D03*
X020341Y011482D03*
X020341Y011678D03*
X020341Y011875D03*
X020341Y012072D03*
X020341Y012269D03*
X020341Y012466D03*
X020341Y012663D03*
X020341Y012860D03*
X020341Y013056D03*
X020341Y013253D03*
X020341Y013450D03*
X020341Y013647D03*
X015813Y013647D03*
X015813Y013450D03*
X015813Y013253D03*
X015813Y013056D03*
X015813Y012860D03*
X015813Y012663D03*
X015813Y012466D03*
X015813Y012269D03*
X015813Y012072D03*
X015813Y011875D03*
X015813Y011678D03*
X015813Y011482D03*
X015813Y011285D03*
X015813Y011088D03*
X015813Y010891D03*
X015813Y010694D03*
D37*
X016600Y009907D03*
X016797Y009907D03*
X016994Y009907D03*
X017191Y009907D03*
X017388Y009907D03*
X017585Y009907D03*
X017782Y009907D03*
X017978Y009907D03*
X018175Y009907D03*
X018372Y009907D03*
X018569Y009907D03*
X018766Y009907D03*
X018963Y009907D03*
X019160Y009907D03*
X019356Y009907D03*
X019553Y009907D03*
X019553Y014434D03*
X019356Y014434D03*
X019160Y014434D03*
X018963Y014434D03*
X018766Y014434D03*
X018569Y014434D03*
X018372Y014434D03*
X018175Y014434D03*
X017978Y014434D03*
X017782Y014434D03*
X017585Y014434D03*
X017388Y014434D03*
X017191Y014434D03*
X016994Y014434D03*
X016797Y014434D03*
X016600Y014434D03*
D38*
X020108Y008327D03*
X020108Y008012D03*
X020758Y008012D03*
X020758Y008327D03*
X020758Y007697D03*
X020758Y007382D03*
X020108Y007382D03*
X020108Y007697D03*
D39*
X020407Y007718D02*
X020459Y007718D01*
X020459Y007795D02*
X020407Y007795D01*
X020407Y007838D02*
X020391Y007854D01*
X020407Y007871D01*
X020407Y008153D01*
X020391Y008169D01*
X020407Y008186D01*
X020407Y008468D01*
X020349Y008526D01*
X019867Y008526D01*
X019817Y008476D01*
X019732Y008476D01*
X019528Y008681D01*
X019302Y008681D01*
X019302Y008730D01*
X019244Y008788D01*
X018847Y008788D01*
X018789Y008730D01*
X018789Y008420D01*
X018771Y008438D01*
X018771Y008730D01*
X018713Y008788D01*
X018316Y008788D01*
X018258Y008730D01*
X018258Y008420D01*
X018240Y008438D01*
X018240Y008730D01*
X018182Y008788D01*
X017784Y008788D01*
X017734Y008738D01*
X017734Y008916D01*
X017784Y008865D01*
X018182Y008865D01*
X018240Y008924D01*
X018240Y009303D01*
X018259Y009303D01*
X018258Y009299D01*
X018258Y009162D01*
X018475Y009162D01*
X018475Y009379D01*
X018371Y009379D01*
X018382Y009390D01*
X018522Y009529D01*
X018522Y009571D01*
X018572Y009571D01*
X018566Y009565D01*
X018566Y009401D01*
X018588Y009379D01*
X018554Y009379D01*
X018554Y009162D01*
X018475Y009162D01*
X018475Y009083D01*
X018258Y009083D01*
X018258Y008945D01*
X018273Y008908D01*
X018301Y008880D01*
X018337Y008865D01*
X018475Y008865D01*
X018475Y009083D01*
X018554Y009083D01*
X018554Y009162D01*
X018771Y009162D01*
X018771Y009285D01*
X018789Y009285D01*
X018789Y008924D01*
X018847Y008865D01*
X019244Y008865D01*
X019302Y008924D01*
X019302Y009321D01*
X019244Y009379D01*
X019215Y009379D01*
X019309Y009473D01*
X019309Y009571D01*
X019356Y009571D01*
X019356Y009907D01*
X019356Y010242D01*
X019278Y010242D01*
X019265Y010237D01*
X019260Y010242D01*
X019112Y010242D01*
X019112Y010394D01*
X019182Y010463D01*
X019182Y010628D01*
X019065Y010744D01*
X018932Y010744D01*
X018932Y010784D01*
X018815Y010900D01*
X018682Y010900D01*
X018682Y010940D01*
X018565Y011057D01*
X018432Y011057D01*
X018432Y011097D01*
X018315Y011213D01*
X018151Y011213D01*
X018035Y011097D01*
X018035Y011027D01*
X017829Y010822D01*
X017829Y010242D01*
X016500Y010242D01*
X016442Y010184D01*
X016442Y009629D01*
X016451Y009620D01*
X016451Y009513D01*
X016441Y009503D01*
X016441Y009338D01*
X016557Y009222D01*
X016722Y009222D01*
X016838Y009338D01*
X016838Y009503D01*
X016769Y009571D01*
X016845Y009571D01*
X016845Y007723D01*
X017146Y007421D01*
X017146Y007070D01*
X017130Y007070D01*
X016896Y006836D01*
X016896Y006505D01*
X017130Y006271D01*
X017461Y006271D01*
X017646Y006456D01*
X017646Y006232D01*
X017472Y006059D01*
X017461Y006070D01*
X017130Y006070D01*
X016896Y005836D01*
X016896Y005505D01*
X017130Y005271D01*
X017461Y005271D01*
X017695Y005505D01*
X017695Y005836D01*
X017684Y005847D01*
X017945Y006109D01*
X017945Y006456D01*
X018130Y006271D01*
X018461Y006271D01*
X018695Y006505D01*
X018695Y006836D01*
X018461Y007070D01*
X018130Y007070D01*
X017945Y006885D01*
X017945Y007709D01*
X018026Y007628D01*
X018190Y007628D01*
X018307Y007745D01*
X018307Y007909D01*
X018190Y008025D01*
X018121Y008025D01*
X017871Y008275D01*
X017980Y008275D01*
X018334Y007921D01*
X018421Y007834D01*
X019390Y007834D01*
X019589Y007635D01*
X019676Y007548D01*
X019817Y007548D01*
X019825Y007539D01*
X019809Y007523D01*
X019809Y007241D01*
X019867Y007183D01*
X020349Y007183D01*
X020407Y007241D01*
X020407Y007523D01*
X020391Y007539D01*
X020407Y007556D01*
X020407Y007838D01*
X020407Y007872D02*
X020459Y007872D01*
X020459Y007871D02*
X020475Y007854D01*
X020459Y007838D01*
X020459Y007556D01*
X020475Y007539D01*
X020459Y007523D01*
X020459Y007241D01*
X020517Y007183D01*
X020609Y007183D01*
X020609Y007164D01*
X020609Y007164D01*
X020452Y007164D01*
X020296Y007007D01*
X020209Y006920D01*
X020209Y006320D01*
X019682Y006320D01*
X019695Y006351D01*
X019695Y006631D01*
X019335Y006631D01*
X019335Y006710D01*
X019256Y006710D01*
X019256Y006631D01*
X018896Y006631D01*
X018896Y006351D01*
X018909Y006320D01*
X018734Y006320D01*
X018646Y006232D01*
X018472Y006059D01*
X018461Y006070D01*
X018130Y006070D01*
X017896Y005836D01*
X017896Y005505D01*
X018130Y005271D01*
X018461Y005271D01*
X018695Y005505D01*
X018695Y005836D01*
X018684Y005847D01*
X018857Y006021D01*
X018909Y006021D01*
X018896Y005990D01*
X018896Y005710D01*
X019256Y005710D01*
X019256Y005631D01*
X018896Y005631D01*
X018896Y005351D01*
X018911Y005314D01*
X018939Y005286D01*
X018976Y005271D01*
X019256Y005271D01*
X019256Y005631D01*
X019335Y005631D01*
X019335Y005271D01*
X019615Y005271D01*
X019652Y005286D01*
X019680Y005314D01*
X019695Y005351D01*
X019695Y005631D01*
X019335Y005631D01*
X019335Y005710D01*
X019695Y005710D01*
X019695Y005990D01*
X019682Y006021D01*
X020296Y006021D01*
X020385Y005932D01*
X020385Y005377D01*
X020443Y005319D01*
X020986Y005319D01*
X021014Y005348D01*
X021043Y005319D01*
X021586Y005319D01*
X021644Y005377D01*
X021644Y006089D01*
X021586Y006147D01*
X021476Y006147D01*
X021476Y006391D01*
X021503Y006418D01*
X021503Y006736D01*
X021494Y006745D01*
X021494Y006909D01*
X021378Y007025D01*
X021213Y007025D01*
X021097Y006909D01*
X021097Y006745D01*
X021107Y006735D01*
X021107Y006719D01*
X021094Y006751D01*
X021066Y006779D01*
X021029Y006794D01*
X020921Y006794D01*
X020921Y006587D01*
X020901Y006587D01*
X020901Y006567D01*
X020713Y006567D01*
X020713Y006439D01*
X020729Y006402D01*
X020757Y006375D01*
X020793Y006359D01*
X020901Y006359D01*
X020901Y006567D01*
X020921Y006567D01*
X020921Y006359D01*
X021029Y006359D01*
X021066Y006375D01*
X021094Y006402D01*
X021107Y006434D01*
X021107Y006418D01*
X021165Y006359D01*
X021178Y006359D01*
X021178Y006147D01*
X021043Y006147D01*
X021014Y006119D01*
X020986Y006147D01*
X020592Y006147D01*
X020507Y006232D01*
X020507Y006796D01*
X020576Y006865D01*
X020732Y006865D01*
X020820Y006952D01*
X020907Y007040D01*
X020907Y007183D01*
X020999Y007183D01*
X021057Y007241D01*
X021057Y007523D01*
X021041Y007539D01*
X021057Y007556D01*
X021057Y007838D01*
X021041Y007854D01*
X021057Y007871D01*
X021057Y008153D01*
X021041Y008169D01*
X021049Y008178D01*
X021241Y008178D01*
X021274Y008144D01*
X021577Y008144D01*
X021635Y008202D01*
X021635Y008784D01*
X021627Y008792D01*
X021628Y008793D01*
X021628Y009111D01*
X021620Y009118D01*
X021657Y009155D01*
X021657Y009749D01*
X021638Y009768D01*
X021668Y009840D01*
X021668Y009939D01*
X021630Y010029D01*
X021561Y010099D01*
X021470Y010136D01*
X021371Y010136D01*
X021281Y010099D01*
X021211Y010029D01*
X021174Y009939D01*
X021174Y009840D01*
X021203Y009769D01*
X021182Y009749D01*
X021182Y009158D01*
X021154Y009169D01*
X021046Y009169D01*
X021046Y008962D01*
X021026Y008962D01*
X021026Y008942D01*
X020838Y008942D01*
X020838Y008814D01*
X020854Y008777D01*
X020882Y008750D01*
X020918Y008734D01*
X021026Y008734D01*
X021026Y008942D01*
X021046Y008942D01*
X021046Y008734D01*
X021154Y008734D01*
X021191Y008750D01*
X021216Y008775D01*
X021216Y008476D01*
X021049Y008476D01*
X020999Y008526D01*
X020517Y008526D01*
X020459Y008468D01*
X020459Y008186D01*
X020475Y008169D01*
X020459Y008153D01*
X020459Y007871D01*
X020459Y007950D02*
X020407Y007950D01*
X020407Y008027D02*
X020459Y008027D01*
X020459Y008104D02*
X020407Y008104D01*
X020403Y008181D02*
X020463Y008181D01*
X020459Y008258D02*
X020407Y008258D01*
X020407Y008336D02*
X020459Y008336D01*
X020459Y008413D02*
X020407Y008413D01*
X020385Y008490D02*
X020481Y008490D01*
X020845Y008799D02*
X017734Y008799D01*
X017734Y008876D02*
X017773Y008876D01*
X018193Y008876D02*
X018310Y008876D01*
X018258Y008954D02*
X018240Y008954D01*
X018240Y009031D02*
X018258Y009031D01*
X018240Y009108D02*
X018475Y009108D01*
X018475Y009031D02*
X018554Y009031D01*
X018554Y009083D02*
X018554Y008865D01*
X018692Y008865D01*
X018728Y008880D01*
X018756Y008908D01*
X018771Y008945D01*
X018771Y009083D01*
X018554Y009083D01*
X018554Y009108D02*
X018789Y009108D01*
X018789Y009031D02*
X018771Y009031D01*
X018771Y008954D02*
X018789Y008954D01*
X018836Y008876D02*
X018718Y008876D01*
X018771Y008722D02*
X018789Y008722D01*
X018789Y008645D02*
X018771Y008645D01*
X018771Y008567D02*
X018789Y008567D01*
X018789Y008490D02*
X018771Y008490D01*
X019302Y008722D02*
X021216Y008722D01*
X021216Y008645D02*
X019564Y008645D01*
X019641Y008567D02*
X021216Y008567D01*
X021216Y008490D02*
X021035Y008490D01*
X021026Y008799D02*
X021046Y008799D01*
X021046Y008876D02*
X021026Y008876D01*
X021026Y008954D02*
X019828Y008954D01*
X019838Y008963D02*
X019838Y009128D01*
X019828Y009138D01*
X019828Y009153D01*
X019841Y009121D01*
X019869Y009093D01*
X019906Y009078D01*
X020014Y009078D01*
X020014Y009286D01*
X020034Y009286D01*
X020034Y009305D01*
X020222Y009305D01*
X020222Y009433D01*
X020206Y009470D01*
X020178Y009498D01*
X020142Y009513D01*
X020034Y009513D01*
X020034Y009305D01*
X020014Y009305D01*
X020014Y009513D01*
X019906Y009513D01*
X019869Y009498D01*
X019841Y009470D01*
X019828Y009438D01*
X019828Y009455D01*
X019770Y009513D01*
X019703Y009513D01*
X019703Y009620D01*
X019712Y009629D01*
X019712Y010184D01*
X019653Y010242D01*
X019453Y010242D01*
X019448Y010237D01*
X019435Y010242D01*
X019356Y010242D01*
X019356Y009907D01*
X019356Y009907D01*
X019356Y009907D01*
X019356Y009571D01*
X019404Y009571D01*
X019404Y009311D01*
X019432Y009282D01*
X019432Y009136D01*
X019441Y009128D01*
X019441Y008963D01*
X019557Y008847D01*
X019722Y008847D01*
X019838Y008963D01*
X019838Y009031D02*
X020838Y009031D01*
X020838Y009090D02*
X020838Y008962D01*
X021026Y008962D01*
X021026Y009169D01*
X020918Y009169D01*
X020903Y009163D01*
X020909Y009176D01*
X020909Y009422D01*
X020701Y009422D01*
X020701Y009097D01*
X020829Y009097D01*
X020844Y009103D01*
X020838Y009090D01*
X020909Y009185D02*
X021182Y009185D01*
X021182Y009263D02*
X020909Y009263D01*
X020909Y009340D02*
X021182Y009340D01*
X021182Y009417D02*
X020909Y009417D01*
X020909Y009481D02*
X020909Y009728D01*
X020894Y009764D01*
X020866Y009792D01*
X020829Y009807D01*
X020701Y009807D01*
X020701Y009481D01*
X020909Y009481D01*
X020909Y009494D02*
X021182Y009494D01*
X021182Y009572D02*
X020909Y009572D01*
X020909Y009649D02*
X021182Y009649D01*
X021182Y009726D02*
X020909Y009726D01*
X020933Y009807D02*
X020970Y009822D01*
X020998Y009850D01*
X021013Y009887D01*
X021013Y009995D01*
X020805Y009995D01*
X020805Y009807D01*
X020933Y009807D01*
X020839Y009803D02*
X021189Y009803D01*
X021174Y009881D02*
X021010Y009881D01*
X021013Y009958D02*
X021182Y009958D01*
X021217Y010035D02*
X021013Y010035D01*
X021013Y010015D02*
X021013Y010123D01*
X021000Y010154D01*
X021026Y010128D01*
X021190Y010128D01*
X021307Y010245D01*
X021307Y010409D01*
X021190Y010525D01*
X021121Y010525D01*
X021107Y010539D01*
X021013Y010539D01*
X020955Y010597D01*
X020945Y010597D01*
X020945Y010670D01*
X020857Y010757D01*
X020771Y010844D01*
X020676Y010844D01*
X020676Y011332D01*
X020829Y011332D01*
X021021Y011140D01*
X021021Y010827D01*
X021271Y010577D01*
X021359Y010490D01*
X021460Y010490D01*
X021493Y010458D01*
X022599Y010458D01*
X022657Y010516D01*
X022657Y010756D01*
X022599Y010814D01*
X021493Y010814D01*
X021475Y010796D01*
X021320Y010951D01*
X021320Y011264D01*
X021232Y011351D01*
X021156Y011428D01*
X021468Y011428D01*
X021493Y011402D01*
X022599Y011402D01*
X022657Y011461D01*
X022657Y011700D01*
X022599Y011759D01*
X021493Y011759D01*
X021460Y011726D01*
X021139Y011726D01*
X021132Y011733D01*
X021264Y011865D01*
X021351Y011952D01*
X021351Y012016D01*
X021389Y012054D01*
X021428Y012016D01*
X021707Y012016D01*
X021765Y012074D01*
X021765Y012091D01*
X021779Y012059D01*
X021807Y012031D01*
X021843Y012016D01*
X021951Y012016D01*
X021951Y012223D01*
X021971Y012223D01*
X021971Y012016D01*
X022079Y012016D01*
X022116Y012031D01*
X022144Y012059D01*
X022159Y012095D01*
X022159Y012223D01*
X021971Y012223D01*
X021971Y012243D01*
X021951Y012243D01*
X021951Y012451D01*
X021927Y012451D01*
X021935Y012454D01*
X021963Y012482D01*
X021978Y012519D01*
X021978Y012637D01*
X021722Y012637D01*
X021722Y012676D01*
X021978Y012676D01*
X021978Y012794D01*
X021963Y012831D01*
X021935Y012859D01*
X021899Y012874D01*
X021722Y012874D01*
X021722Y012676D01*
X021682Y012676D01*
X021682Y012637D01*
X021425Y012637D01*
X021425Y012519D01*
X021440Y012482D01*
X021468Y012454D01*
X021477Y012451D01*
X021428Y012451D01*
X021389Y012412D01*
X021351Y012451D01*
X021072Y012451D01*
X021014Y012393D01*
X020994Y012414D01*
X020994Y012534D01*
X020878Y012650D01*
X020713Y012650D01*
X020676Y012613D01*
X020676Y012763D01*
X020671Y012768D01*
X020676Y012781D01*
X020676Y012860D01*
X020676Y012907D01*
X020967Y012907D01*
X020953Y012873D01*
X020953Y012765D01*
X021161Y012765D01*
X021161Y012745D01*
X021180Y012745D01*
X021180Y012557D01*
X021308Y012557D01*
X021345Y012572D01*
X021373Y012600D01*
X021388Y012637D01*
X021388Y012745D01*
X021180Y012745D01*
X021180Y012765D01*
X021388Y012765D01*
X021388Y012873D01*
X021373Y012910D01*
X021345Y012938D01*
X021313Y012951D01*
X021330Y012951D01*
X021388Y013009D01*
X021388Y013084D01*
X021429Y013084D01*
X021484Y013030D01*
X021920Y013030D01*
X021956Y013066D01*
X022097Y013066D01*
X022213Y013182D01*
X022213Y013347D01*
X022194Y013365D01*
X022827Y013365D01*
X023035Y013158D01*
X023035Y013088D01*
X023151Y012972D01*
X023315Y012972D01*
X023378Y013034D01*
X023378Y012754D01*
X023436Y012696D01*
X024413Y012696D01*
X024413Y012645D01*
X023436Y012645D01*
X023378Y012587D01*
X023378Y012320D01*
X023364Y012320D01*
X023315Y012369D01*
X023151Y012369D01*
X023035Y012253D01*
X023035Y012088D01*
X023151Y011972D01*
X023315Y011972D01*
X023364Y012021D01*
X023378Y012021D01*
X023378Y011754D01*
X023436Y011696D01*
X024413Y011696D01*
X024413Y011645D01*
X023436Y011645D01*
X023378Y011587D01*
X023378Y011320D01*
X023296Y011320D01*
X023171Y011195D01*
X023084Y011107D01*
X023084Y011083D01*
X023035Y011034D01*
X023035Y010870D01*
X023151Y010753D01*
X023315Y010753D01*
X023378Y010816D01*
X023378Y010754D01*
X023436Y010696D01*
X024413Y010696D01*
X024413Y010645D01*
X023436Y010645D01*
X023409Y010619D01*
X023315Y010713D01*
X023151Y010713D01*
X023035Y010597D01*
X023035Y010432D01*
X023084Y010383D01*
X023084Y010296D01*
X023171Y010209D01*
X023359Y010021D01*
X023378Y010021D01*
X023378Y009754D01*
X023436Y009696D01*
X024413Y009696D01*
X024413Y009645D01*
X023436Y009645D01*
X023378Y009587D01*
X023378Y009470D01*
X023111Y009470D01*
X023001Y009424D01*
X022917Y009340D01*
X022871Y009230D01*
X022871Y009111D01*
X022917Y009001D01*
X023001Y008917D01*
X023111Y008871D01*
X023378Y008871D01*
X023378Y008754D01*
X023436Y008696D01*
X024413Y008696D01*
X024413Y008645D01*
X024016Y008645D01*
X024016Y008210D01*
X023938Y008210D01*
X023938Y008645D01*
X023457Y008645D01*
X023421Y008630D01*
X023393Y008602D01*
X023378Y008565D01*
X023378Y008210D01*
X023937Y008210D01*
X023937Y008131D01*
X023378Y008131D01*
X023378Y007776D01*
X023393Y007739D01*
X023421Y007711D01*
X023457Y007696D01*
X023938Y007696D01*
X023938Y008131D01*
X024016Y008131D01*
X024016Y007696D01*
X024497Y007696D01*
X024533Y007711D01*
X024540Y007718D01*
X024688Y007718D01*
X024688Y007707D01*
X025517Y006877D01*
X025517Y006772D01*
X025472Y006850D01*
X025160Y007112D01*
X025160Y007112D01*
X024777Y007251D01*
X024370Y007251D01*
X023988Y007112D01*
X023988Y007112D01*
X023676Y006850D01*
X023472Y006498D01*
X023402Y006097D01*
X023472Y005696D01*
X023676Y005344D01*
X023902Y005154D01*
X013237Y005154D01*
X013464Y005344D01*
X013667Y005696D01*
X013667Y005696D01*
X013738Y006097D01*
X013667Y006498D01*
X013464Y006850D01*
X013464Y006850D01*
X013464Y006850D01*
X013152Y007112D01*
X013152Y007112D01*
X012769Y007251D01*
X012362Y007251D01*
X012006Y007122D01*
X012385Y007500D01*
X012466Y007582D01*
X012466Y007957D01*
X013226Y007957D01*
X013284Y008015D01*
X013284Y008311D01*
X014171Y008311D01*
X014229Y008370D01*
X014229Y009033D01*
X014224Y009038D01*
X014229Y009050D01*
X014229Y009154D01*
X013863Y009154D01*
X013863Y009164D01*
X014229Y009164D01*
X014229Y009267D01*
X014224Y009280D01*
X014229Y009285D01*
X014229Y009521D01*
X014482Y009521D01*
X014972Y010011D01*
X014972Y009995D01*
X015088Y009878D01*
X015218Y009878D01*
X015203Y009842D01*
X015203Y009734D01*
X015411Y009734D01*
X015411Y009714D01*
X015430Y009714D01*
X015430Y009526D01*
X015558Y009526D01*
X015595Y009541D01*
X015623Y009569D01*
X015638Y009606D01*
X015638Y009714D01*
X015430Y009714D01*
X015430Y009734D01*
X015638Y009734D01*
X015638Y009842D01*
X015623Y009878D01*
X015595Y009906D01*
X015563Y009920D01*
X015580Y009920D01*
X015638Y009978D01*
X015638Y010257D01*
X015580Y010315D01*
X015570Y010315D01*
X015570Y010515D01*
X015591Y010536D01*
X016090Y010536D01*
X016149Y010594D01*
X016149Y010794D01*
X016143Y010800D01*
X016149Y010812D01*
X016149Y010891D01*
X015813Y010891D01*
X015478Y010891D01*
X015478Y010844D01*
X015476Y010844D01*
X015419Y010787D01*
X015419Y010957D01*
X015362Y011014D01*
X015419Y011072D01*
X015419Y011135D01*
X015478Y011135D01*
X015478Y010988D01*
X015483Y010983D01*
X015478Y010970D01*
X015478Y010891D01*
X015813Y010891D01*
X015813Y010891D01*
X015813Y010891D01*
X016149Y010891D01*
X016149Y010939D01*
X016379Y010939D01*
X016441Y010877D01*
X016441Y010807D01*
X016557Y010691D01*
X016722Y010691D01*
X016838Y010807D01*
X016838Y010972D01*
X016722Y011088D01*
X016652Y011088D01*
X016503Y011237D01*
X016149Y011237D01*
X016149Y011349D01*
X016245Y011253D01*
X016409Y011253D01*
X016525Y011370D01*
X016525Y011472D01*
X016659Y011472D01*
X016775Y011588D01*
X016775Y011753D01*
X016659Y011869D01*
X016590Y011869D01*
X016522Y011937D01*
X016434Y012025D01*
X016149Y012025D01*
X016149Y013301D01*
X016392Y013301D01*
X016584Y013109D01*
X016584Y013021D01*
X016535Y012972D01*
X016535Y012807D01*
X016651Y012691D01*
X016660Y012691D01*
X016660Y012690D01*
X016660Y012526D01*
X016734Y012452D01*
X016660Y012378D01*
X016660Y012213D01*
X016776Y012097D01*
X016940Y012097D01*
X017057Y012213D01*
X017057Y012378D01*
X016982Y012452D01*
X016989Y012459D01*
X017921Y012459D01*
X018260Y012120D01*
X019527Y012120D01*
X019503Y012097D01*
X019503Y011945D01*
X018521Y011945D01*
X018472Y011994D01*
X018307Y011994D01*
X018191Y011878D01*
X018191Y011713D01*
X018307Y011597D01*
X018472Y011597D01*
X018521Y011646D01*
X019857Y011646D01*
X019937Y011726D01*
X020005Y011726D01*
X020005Y010594D01*
X020063Y010536D01*
X020578Y010536D01*
X020578Y010259D01*
X020636Y010201D01*
X020653Y010201D01*
X020621Y010188D01*
X020593Y010160D01*
X020578Y010123D01*
X020578Y010015D01*
X020786Y010015D01*
X020786Y009995D01*
X020805Y009995D01*
X020805Y010015D01*
X021013Y010015D01*
X021013Y010112D02*
X021313Y010112D01*
X021251Y010189D02*
X023191Y010189D01*
X023268Y010112D02*
X021528Y010112D01*
X021624Y010035D02*
X023345Y010035D01*
X023378Y009958D02*
X021660Y009958D01*
X021668Y009881D02*
X023378Y009881D01*
X023378Y009803D02*
X021652Y009803D01*
X021657Y009726D02*
X023406Y009726D01*
X023378Y009572D02*
X021657Y009572D01*
X021657Y009649D02*
X024413Y009649D01*
X023378Y009494D02*
X022385Y009494D01*
X022388Y009486D02*
X022373Y009522D01*
X022345Y009550D01*
X022308Y009565D01*
X022180Y009565D01*
X022180Y009377D01*
X022161Y009377D01*
X022161Y009358D01*
X021953Y009358D01*
X021953Y009249D01*
X021968Y009213D01*
X021996Y009185D01*
X022028Y009172D01*
X022011Y009172D01*
X021953Y009113D01*
X021953Y008834D01*
X021980Y008808D01*
X021956Y008784D01*
X021956Y008202D01*
X022014Y008144D01*
X022317Y008144D01*
X022375Y008202D01*
X022375Y008784D01*
X022357Y008803D01*
X022388Y008834D01*
X022388Y009113D01*
X022330Y009172D01*
X022313Y009172D01*
X022345Y009185D01*
X022373Y009213D01*
X022388Y009249D01*
X022388Y009358D01*
X022180Y009358D01*
X022180Y009377D01*
X022388Y009377D01*
X022388Y009486D01*
X022388Y009417D02*
X022994Y009417D01*
X022917Y009340D02*
X022388Y009340D01*
X022388Y009263D02*
X022885Y009263D01*
X022871Y009185D02*
X022346Y009185D01*
X022388Y009108D02*
X022872Y009108D01*
X022904Y009031D02*
X022388Y009031D01*
X022388Y008954D02*
X022964Y008954D01*
X023099Y008876D02*
X022388Y008876D01*
X022360Y008799D02*
X023378Y008799D01*
X023410Y008722D02*
X022812Y008722D01*
X022811Y008724D02*
X022720Y008761D01*
X022621Y008761D01*
X022531Y008724D01*
X022461Y008654D01*
X022424Y008564D01*
X022424Y008465D01*
X022461Y008374D01*
X022491Y008344D01*
X022491Y008076D01*
X022463Y008049D01*
X022463Y007748D01*
X022440Y007725D01*
X022375Y007725D01*
X022375Y007764D01*
X022345Y007794D01*
X022345Y007875D01*
X022194Y008026D01*
X022089Y008131D01*
X021503Y008131D01*
X021398Y008026D01*
X021246Y007875D01*
X021246Y007794D01*
X021216Y007764D01*
X021216Y007182D01*
X021274Y007124D01*
X021577Y007124D01*
X021611Y007158D01*
X021629Y007139D01*
X021666Y007124D01*
X021780Y007124D01*
X021780Y007457D01*
X021811Y007457D01*
X021811Y007124D01*
X021925Y007124D01*
X021962Y007139D01*
X021981Y007158D01*
X021986Y007152D01*
X021986Y006926D01*
X021972Y006911D01*
X021972Y006553D01*
X022030Y006495D01*
X022624Y006495D01*
X022682Y006553D01*
X022682Y006911D01*
X022624Y006969D01*
X022345Y006969D01*
X022345Y007152D01*
X022375Y007182D01*
X022375Y007366D01*
X022589Y007366D01*
X022736Y007513D01*
X022841Y007618D01*
X022841Y007712D01*
X022859Y007730D01*
X022859Y007747D01*
X022872Y007715D01*
X022900Y007687D01*
X022937Y007672D01*
X023045Y007672D01*
X023045Y007880D01*
X023065Y007880D01*
X023065Y007899D01*
X023253Y007899D01*
X023253Y008027D01*
X023238Y008064D01*
X023210Y008092D01*
X023173Y008107D01*
X023065Y008107D01*
X023065Y007899D01*
X023045Y007899D01*
X023045Y008107D01*
X022937Y008107D01*
X022900Y008092D01*
X022872Y008064D01*
X022859Y008032D01*
X022859Y008049D01*
X022850Y008058D01*
X022850Y008344D01*
X022880Y008374D01*
X022918Y008465D01*
X022918Y008564D01*
X022880Y008654D01*
X022811Y008724D01*
X022884Y008645D02*
X023456Y008645D01*
X023378Y008567D02*
X022916Y008567D01*
X022918Y008490D02*
X023378Y008490D01*
X023378Y008413D02*
X022896Y008413D01*
X022850Y008336D02*
X023378Y008336D01*
X023378Y008258D02*
X022850Y008258D01*
X022850Y008181D02*
X023937Y008181D01*
X023938Y008104D02*
X024016Y008104D01*
X024016Y008027D02*
X023938Y008027D01*
X023938Y007950D02*
X024016Y007950D01*
X024016Y007872D02*
X023938Y007872D01*
X023938Y007795D02*
X024016Y007795D01*
X024016Y007718D02*
X023938Y007718D01*
X023414Y007718D02*
X023239Y007718D01*
X023238Y007715D02*
X023253Y007751D01*
X023253Y007880D01*
X023065Y007880D01*
X023065Y007672D01*
X023173Y007672D01*
X023210Y007687D01*
X023238Y007715D01*
X023253Y007795D02*
X023378Y007795D01*
X023378Y007872D02*
X023253Y007872D01*
X023253Y007950D02*
X023378Y007950D01*
X023378Y008027D02*
X023253Y008027D01*
X023180Y008104D02*
X023378Y008104D01*
X023065Y008104D02*
X023045Y008104D01*
X023045Y008027D02*
X023065Y008027D01*
X023065Y007950D02*
X023045Y007950D01*
X023045Y007872D02*
X023065Y007872D01*
X023065Y007795D02*
X023045Y007795D01*
X023045Y007718D02*
X023065Y007718D01*
X022871Y007718D02*
X022847Y007718D01*
X022841Y007641D02*
X024754Y007641D01*
X024688Y007718D02*
X024540Y007718D01*
X024831Y007563D02*
X022786Y007563D01*
X022708Y007486D02*
X024908Y007486D01*
X024985Y007409D02*
X022631Y007409D01*
X022375Y007332D02*
X025063Y007332D01*
X025140Y007254D02*
X022375Y007254D01*
X022370Y007177D02*
X024166Y007177D01*
X023973Y007100D02*
X022345Y007100D01*
X022345Y007023D02*
X023881Y007023D01*
X023789Y006945D02*
X022648Y006945D01*
X022682Y006868D02*
X023697Y006868D01*
X023676Y006850D02*
X023676Y006850D01*
X023641Y006791D02*
X022682Y006791D01*
X022682Y006714D02*
X023597Y006714D01*
X023552Y006636D02*
X022682Y006636D01*
X022682Y006559D02*
X023508Y006559D01*
X023472Y006498D02*
X023472Y006498D01*
X023469Y006482D02*
X021503Y006482D01*
X021503Y006559D02*
X021972Y006559D01*
X021972Y006636D02*
X021503Y006636D01*
X021503Y006714D02*
X021972Y006714D01*
X021972Y006791D02*
X021494Y006791D01*
X021494Y006868D02*
X021972Y006868D01*
X021986Y006945D02*
X021458Y006945D01*
X021380Y007023D02*
X021986Y007023D01*
X021986Y007100D02*
X020907Y007100D01*
X020907Y007177D02*
X021221Y007177D01*
X021216Y007254D02*
X021057Y007254D01*
X021057Y007332D02*
X021216Y007332D01*
X021216Y007409D02*
X021057Y007409D01*
X021057Y007486D02*
X021216Y007486D01*
X021216Y007563D02*
X021057Y007563D01*
X021057Y007641D02*
X021216Y007641D01*
X021216Y007718D02*
X021057Y007718D01*
X021057Y007795D02*
X021246Y007795D01*
X021246Y007872D02*
X021057Y007872D01*
X021057Y007950D02*
X021321Y007950D01*
X021398Y008027D02*
X021057Y008027D01*
X021057Y008104D02*
X021475Y008104D01*
X021614Y008181D02*
X021977Y008181D01*
X021956Y008258D02*
X021635Y008258D01*
X021635Y008336D02*
X021956Y008336D01*
X021956Y008413D02*
X021635Y008413D01*
X021635Y008490D02*
X021956Y008490D01*
X021956Y008567D02*
X021635Y008567D01*
X021635Y008645D02*
X021956Y008645D01*
X021956Y008722D02*
X021635Y008722D01*
X021628Y008799D02*
X021971Y008799D01*
X021953Y008876D02*
X021628Y008876D01*
X021628Y008954D02*
X021953Y008954D01*
X021953Y009031D02*
X021628Y009031D01*
X021628Y009108D02*
X021953Y009108D01*
X021996Y009185D02*
X021657Y009185D01*
X021657Y009263D02*
X021953Y009263D01*
X021953Y009340D02*
X021657Y009340D01*
X021657Y009417D02*
X021953Y009417D01*
X021953Y009377D02*
X021953Y009486D01*
X021968Y009522D01*
X021996Y009550D01*
X022033Y009565D01*
X022161Y009565D01*
X022161Y009377D01*
X021953Y009377D01*
X021957Y009494D02*
X021657Y009494D01*
X022161Y009494D02*
X022180Y009494D01*
X022180Y009417D02*
X022161Y009417D01*
X022375Y008722D02*
X022529Y008722D01*
X022457Y008645D02*
X022375Y008645D01*
X022375Y008567D02*
X022425Y008567D01*
X022424Y008490D02*
X022375Y008490D01*
X022375Y008413D02*
X022445Y008413D01*
X022491Y008336D02*
X022375Y008336D01*
X022375Y008258D02*
X022491Y008258D01*
X022491Y008181D02*
X022354Y008181D01*
X022491Y008104D02*
X022116Y008104D01*
X022193Y008027D02*
X022463Y008027D01*
X022463Y007950D02*
X022270Y007950D01*
X022345Y007872D02*
X022463Y007872D01*
X022463Y007795D02*
X022345Y007795D01*
X022850Y008104D02*
X022930Y008104D01*
X023938Y008258D02*
X024016Y008258D01*
X024016Y008336D02*
X023938Y008336D01*
X023938Y008413D02*
X024016Y008413D01*
X024016Y008490D02*
X023938Y008490D01*
X023938Y008567D02*
X024016Y008567D01*
X024016Y008645D02*
X023938Y008645D01*
X024981Y007177D02*
X025217Y007177D01*
X025174Y007100D02*
X025294Y007100D01*
X025266Y007023D02*
X025372Y007023D01*
X025358Y006945D02*
X025449Y006945D01*
X025450Y006868D02*
X025517Y006868D01*
X025506Y006791D02*
X025517Y006791D01*
X023456Y006405D02*
X021490Y006405D01*
X021476Y006327D02*
X023442Y006327D01*
X023429Y006250D02*
X021476Y006250D01*
X021476Y006173D02*
X021985Y006173D01*
X021987Y006178D02*
X021972Y006142D01*
X021972Y006014D01*
X022297Y006014D01*
X022297Y006221D01*
X022051Y006221D01*
X022015Y006206D01*
X021987Y006178D01*
X021972Y006096D02*
X021637Y006096D01*
X021644Y006018D02*
X021972Y006018D01*
X021972Y005955D02*
X021972Y005827D01*
X021987Y005790D01*
X022015Y005762D01*
X022051Y005747D01*
X022297Y005747D01*
X022297Y005955D01*
X021972Y005955D01*
X021972Y005941D02*
X021644Y005941D01*
X021644Y005864D02*
X021972Y005864D01*
X021990Y005787D02*
X021644Y005787D01*
X021644Y005710D02*
X023470Y005710D01*
X023472Y005696D02*
X023472Y005696D01*
X023509Y005632D02*
X021644Y005632D01*
X021644Y005555D02*
X023554Y005555D01*
X023598Y005478D02*
X021644Y005478D01*
X021644Y005401D02*
X023643Y005401D01*
X023676Y005344D02*
X023676Y005344D01*
X023676Y005344D01*
X023700Y005323D02*
X021590Y005323D01*
X021039Y005323D02*
X020990Y005323D01*
X020439Y005323D02*
X019684Y005323D01*
X019695Y005401D02*
X020385Y005401D01*
X020385Y005478D02*
X019695Y005478D01*
X019695Y005555D02*
X020385Y005555D01*
X020385Y005632D02*
X019335Y005632D01*
X019335Y005555D02*
X019256Y005555D01*
X019256Y005478D02*
X019335Y005478D01*
X019335Y005401D02*
X019256Y005401D01*
X019256Y005323D02*
X019335Y005323D01*
X018908Y005323D02*
X018513Y005323D01*
X018590Y005401D02*
X018896Y005401D01*
X018896Y005478D02*
X018668Y005478D01*
X018695Y005555D02*
X018896Y005555D01*
X018695Y005632D02*
X019256Y005632D01*
X019256Y005710D02*
X018695Y005710D01*
X018695Y005787D02*
X018896Y005787D01*
X018896Y005864D02*
X018700Y005864D01*
X018777Y005941D02*
X018896Y005941D01*
X018908Y006018D02*
X018855Y006018D01*
X018646Y006232D02*
X018646Y006232D01*
X018664Y006250D02*
X017945Y006250D01*
X017945Y006173D02*
X018587Y006173D01*
X018509Y006096D02*
X017932Y006096D01*
X017855Y006018D02*
X018079Y006018D01*
X018001Y005941D02*
X017777Y005941D01*
X017700Y005864D02*
X017924Y005864D01*
X017896Y005787D02*
X017695Y005787D01*
X017695Y005710D02*
X017896Y005710D01*
X017896Y005632D02*
X017695Y005632D01*
X017695Y005555D02*
X017896Y005555D01*
X017924Y005478D02*
X017668Y005478D01*
X017590Y005401D02*
X018001Y005401D01*
X018078Y005323D02*
X017513Y005323D01*
X017078Y005323D02*
X016513Y005323D01*
X016461Y005271D02*
X016695Y005505D01*
X016695Y005836D01*
X016461Y006070D01*
X016130Y006070D01*
X015896Y005836D01*
X015896Y005505D01*
X016130Y005271D01*
X016461Y005271D01*
X016590Y005401D02*
X017001Y005401D01*
X016924Y005478D02*
X016668Y005478D01*
X016695Y005555D02*
X016896Y005555D01*
X016896Y005632D02*
X016695Y005632D01*
X016695Y005710D02*
X016896Y005710D01*
X016896Y005787D02*
X016695Y005787D01*
X016667Y005864D02*
X016924Y005864D01*
X017001Y005941D02*
X016590Y005941D01*
X016513Y006018D02*
X017079Y006018D01*
X017074Y006327D02*
X016517Y006327D01*
X016461Y006271D02*
X016695Y006505D01*
X016695Y006836D01*
X016461Y007070D01*
X016130Y007070D01*
X015896Y006836D01*
X015896Y006505D01*
X016130Y006271D01*
X016461Y006271D01*
X016594Y006405D02*
X016997Y006405D01*
X016920Y006482D02*
X016672Y006482D01*
X016695Y006559D02*
X016896Y006559D01*
X016896Y006636D02*
X016695Y006636D01*
X016695Y006714D02*
X016896Y006714D01*
X016896Y006791D02*
X016695Y006791D01*
X016663Y006868D02*
X016928Y006868D01*
X017006Y006945D02*
X016586Y006945D01*
X016508Y007023D02*
X017083Y007023D01*
X017146Y007100D02*
X013166Y007100D01*
X013258Y007023D02*
X015083Y007023D01*
X015130Y007070D02*
X014896Y006836D01*
X014896Y006505D01*
X015130Y006271D01*
X015461Y006271D01*
X015695Y006505D01*
X015695Y006836D01*
X015461Y007070D01*
X015130Y007070D01*
X015006Y006945D02*
X013350Y006945D01*
X013443Y006868D02*
X014928Y006868D01*
X014896Y006791D02*
X013498Y006791D01*
X013543Y006714D02*
X014896Y006714D01*
X014896Y006636D02*
X013587Y006636D01*
X013632Y006559D02*
X014896Y006559D01*
X014920Y006482D02*
X013670Y006482D01*
X013667Y006498D02*
X013667Y006498D01*
X013684Y006405D02*
X014997Y006405D01*
X015074Y006327D02*
X013697Y006327D01*
X013711Y006250D02*
X017646Y006250D01*
X017646Y006327D02*
X017517Y006327D01*
X017594Y006405D02*
X017646Y006405D01*
X017587Y006173D02*
X013724Y006173D01*
X013738Y006097D02*
X013738Y006097D01*
X013738Y006096D02*
X017509Y006096D01*
X017945Y006327D02*
X018074Y006327D01*
X017997Y006405D02*
X017945Y006405D01*
X018517Y006327D02*
X018906Y006327D01*
X018896Y006405D02*
X018594Y006405D01*
X018672Y006482D02*
X018896Y006482D01*
X018896Y006559D02*
X018695Y006559D01*
X018695Y006636D02*
X019256Y006636D01*
X019256Y006710D02*
X018896Y006710D01*
X018896Y006990D01*
X018911Y007027D01*
X018939Y007055D01*
X018976Y007070D01*
X019256Y007070D01*
X019256Y006710D01*
X019256Y006714D02*
X019335Y006714D01*
X019335Y006710D02*
X019335Y007070D01*
X019615Y007070D01*
X019652Y007055D01*
X019680Y007027D01*
X019695Y006990D01*
X019695Y006710D01*
X019335Y006710D01*
X019335Y006636D02*
X020209Y006636D01*
X020209Y006559D02*
X019695Y006559D01*
X019695Y006482D02*
X020209Y006482D01*
X020209Y006405D02*
X019695Y006405D01*
X019685Y006327D02*
X020209Y006327D01*
X020507Y006327D02*
X021178Y006327D01*
X021178Y006250D02*
X020507Y006250D01*
X020567Y006173D02*
X021178Y006173D01*
X021120Y006405D02*
X021095Y006405D01*
X020921Y006405D02*
X020901Y006405D01*
X020901Y006482D02*
X020921Y006482D01*
X020921Y006559D02*
X020901Y006559D01*
X020901Y006587D02*
X020713Y006587D01*
X020713Y006715D01*
X020729Y006751D01*
X020757Y006779D01*
X020793Y006794D01*
X020901Y006794D01*
X020901Y006587D01*
X020901Y006636D02*
X020921Y006636D01*
X020921Y006714D02*
X020901Y006714D01*
X020901Y006791D02*
X020921Y006791D01*
X021038Y006791D02*
X021097Y006791D01*
X021097Y006868D02*
X020736Y006868D01*
X020785Y006791D02*
X020507Y006791D01*
X020507Y006714D02*
X020713Y006714D01*
X020713Y006636D02*
X020507Y006636D01*
X020507Y006559D02*
X020713Y006559D01*
X020713Y006482D02*
X020507Y006482D01*
X020507Y006405D02*
X020728Y006405D01*
X020299Y006018D02*
X019683Y006018D01*
X019695Y005941D02*
X020376Y005941D01*
X020385Y005864D02*
X019695Y005864D01*
X019695Y005787D02*
X020385Y005787D01*
X020385Y005710D02*
X019335Y005710D01*
X019695Y006714D02*
X020209Y006714D01*
X020209Y006791D02*
X019695Y006791D01*
X019695Y006868D02*
X020209Y006868D01*
X020234Y006945D02*
X019695Y006945D01*
X019682Y007023D02*
X020311Y007023D01*
X020389Y007100D02*
X017945Y007100D01*
X017945Y007177D02*
X020609Y007177D01*
X020459Y007254D02*
X020407Y007254D01*
X020407Y007332D02*
X020459Y007332D01*
X020459Y007409D02*
X020407Y007409D01*
X020407Y007486D02*
X020459Y007486D01*
X020459Y007563D02*
X020407Y007563D01*
X020407Y007641D02*
X020459Y007641D01*
X019809Y007486D02*
X017945Y007486D01*
X017945Y007409D02*
X019809Y007409D01*
X019809Y007332D02*
X017945Y007332D01*
X017945Y007254D02*
X019809Y007254D01*
X019660Y007563D02*
X017945Y007563D01*
X017945Y007641D02*
X018014Y007641D01*
X018202Y007641D02*
X019583Y007641D01*
X019506Y007718D02*
X018280Y007718D01*
X018307Y007795D02*
X019429Y007795D01*
X019719Y008490D02*
X019831Y008490D01*
X019751Y008876D02*
X020838Y008876D01*
X021026Y009031D02*
X021046Y009031D01*
X021046Y009108D02*
X021026Y009108D01*
X020701Y009108D02*
X020642Y009108D01*
X020642Y009097D02*
X020642Y009422D01*
X020701Y009422D01*
X020701Y009481D01*
X020642Y009481D01*
X020642Y009422D01*
X020434Y009422D01*
X020434Y009176D01*
X020450Y009140D01*
X020478Y009112D01*
X020514Y009097D01*
X020642Y009097D01*
X020642Y009185D02*
X020701Y009185D01*
X020701Y009263D02*
X020642Y009263D01*
X020642Y009340D02*
X020701Y009340D01*
X020701Y009417D02*
X020642Y009417D01*
X020642Y009481D02*
X020434Y009481D01*
X020434Y009728D01*
X020450Y009764D01*
X020478Y009792D01*
X020514Y009807D01*
X020642Y009807D01*
X020642Y009481D01*
X020642Y009494D02*
X020701Y009494D01*
X020701Y009572D02*
X020642Y009572D01*
X020642Y009649D02*
X020701Y009649D01*
X020701Y009726D02*
X020642Y009726D01*
X020642Y009803D02*
X020701Y009803D01*
X020658Y009807D02*
X020786Y009807D01*
X020786Y009995D01*
X020578Y009995D01*
X020578Y009887D01*
X020593Y009850D01*
X020621Y009822D01*
X020658Y009807D01*
X020581Y009881D02*
X019712Y009881D01*
X019712Y009958D02*
X020578Y009958D01*
X020578Y010035D02*
X019712Y010035D01*
X019712Y010112D02*
X020578Y010112D01*
X020626Y010189D02*
X019706Y010189D01*
X019356Y010189D02*
X019356Y010189D01*
X019356Y010112D02*
X019356Y010112D01*
X019356Y010035D02*
X019356Y010035D01*
X019356Y009958D02*
X019356Y009958D01*
X019356Y009881D02*
X019356Y009881D01*
X019356Y009803D02*
X019356Y009803D01*
X019356Y009726D02*
X019356Y009726D01*
X019356Y009649D02*
X019356Y009649D01*
X019356Y009572D02*
X019356Y009572D01*
X019309Y009494D02*
X019404Y009494D01*
X019404Y009417D02*
X019253Y009417D01*
X019283Y009340D02*
X019404Y009340D01*
X019432Y009263D02*
X019302Y009263D01*
X019302Y009185D02*
X019432Y009185D01*
X019441Y009108D02*
X019302Y009108D01*
X019302Y009031D02*
X019441Y009031D01*
X019451Y008954D02*
X019302Y008954D01*
X019255Y008876D02*
X019528Y008876D01*
X019838Y009108D02*
X019854Y009108D01*
X020014Y009108D02*
X020034Y009108D01*
X020034Y009078D02*
X020034Y009286D01*
X020222Y009286D01*
X020222Y009158D01*
X020206Y009121D01*
X020178Y009093D01*
X020142Y009078D01*
X020034Y009078D01*
X020034Y009185D02*
X020014Y009185D01*
X020014Y009263D02*
X020034Y009263D01*
X020034Y009340D02*
X020014Y009340D01*
X020014Y009417D02*
X020034Y009417D01*
X020034Y009494D02*
X020014Y009494D01*
X019865Y009494D02*
X019788Y009494D01*
X019703Y009572D02*
X020434Y009572D01*
X020434Y009649D02*
X019712Y009649D01*
X019712Y009726D02*
X020434Y009726D01*
X020505Y009803D02*
X019712Y009803D01*
X020182Y009494D02*
X020434Y009494D01*
X020434Y009417D02*
X020222Y009417D01*
X020222Y009340D02*
X020434Y009340D01*
X020434Y009263D02*
X020222Y009263D01*
X020222Y009185D02*
X020434Y009185D01*
X020486Y009108D02*
X020193Y009108D01*
X020786Y009881D02*
X020805Y009881D01*
X020805Y009958D02*
X020786Y009958D01*
X020578Y010267D02*
X019112Y010267D01*
X019112Y010344D02*
X020578Y010344D01*
X020578Y010421D02*
X019139Y010421D01*
X019182Y010498D02*
X020578Y010498D01*
X020885Y010730D02*
X021119Y010730D01*
X021196Y010653D02*
X020945Y010653D01*
X020976Y010576D02*
X021273Y010576D01*
X021217Y010498D02*
X021350Y010498D01*
X021294Y010421D02*
X023046Y010421D01*
X023035Y010498D02*
X022639Y010498D01*
X022657Y010576D02*
X023035Y010576D01*
X023091Y010653D02*
X022657Y010653D01*
X022657Y010730D02*
X023402Y010730D01*
X023378Y010807D02*
X023369Y010807D01*
X023375Y010653D02*
X024413Y010653D01*
X023378Y011348D02*
X021236Y011348D01*
X021313Y011271D02*
X021477Y011271D01*
X021478Y011271D02*
X021450Y011243D01*
X021434Y011207D01*
X021434Y011108D01*
X021434Y011010D01*
X021450Y010973D01*
X021478Y010945D01*
X021514Y010930D01*
X022046Y010930D01*
X022577Y010930D01*
X022614Y010945D01*
X022642Y010973D01*
X022657Y011010D01*
X022657Y011108D01*
X022046Y011108D01*
X022046Y011108D01*
X022657Y011108D01*
X022657Y011207D01*
X022642Y011243D01*
X022614Y011271D01*
X023247Y011271D01*
X023170Y011194D02*
X022657Y011194D01*
X022657Y011116D02*
X023093Y011116D01*
X023040Y011039D02*
X022657Y011039D01*
X022630Y010962D02*
X023035Y010962D01*
X023035Y010885D02*
X021387Y010885D01*
X021320Y010962D02*
X021461Y010962D01*
X021434Y011039D02*
X021320Y011039D01*
X021320Y011116D02*
X021434Y011116D01*
X021434Y011108D02*
X022046Y011108D01*
X022046Y010930D01*
X022046Y011108D01*
X022046Y011108D01*
X022046Y011108D01*
X022046Y011286D01*
X022577Y011286D01*
X022614Y011271D01*
X022621Y011425D02*
X023378Y011425D01*
X023378Y011503D02*
X022657Y011503D01*
X022657Y011580D02*
X023378Y011580D01*
X023398Y011734D02*
X022623Y011734D01*
X022657Y011657D02*
X024413Y011657D01*
X023378Y011812D02*
X021210Y011812D01*
X021288Y011889D02*
X023378Y011889D01*
X023378Y011966D02*
X021351Y011966D01*
X021378Y012043D02*
X021400Y012043D01*
X021735Y012043D02*
X021794Y012043D01*
X021951Y012043D02*
X021971Y012043D01*
X021971Y012120D02*
X021951Y012120D01*
X021951Y012198D02*
X021971Y012198D01*
X021971Y012243D02*
X022159Y012243D01*
X022159Y012371D01*
X022144Y012408D01*
X022116Y012435D01*
X022079Y012451D01*
X021971Y012451D01*
X021971Y012243D01*
X021971Y012275D02*
X021951Y012275D01*
X021951Y012352D02*
X021971Y012352D01*
X021971Y012429D02*
X021951Y012429D01*
X021973Y012507D02*
X023378Y012507D01*
X023378Y012584D02*
X021978Y012584D01*
X021978Y012738D02*
X023394Y012738D01*
X023378Y012816D02*
X021970Y012816D01*
X021938Y013047D02*
X023076Y013047D01*
X023035Y013125D02*
X022155Y013125D01*
X022213Y013202D02*
X022991Y013202D01*
X022913Y013279D02*
X022213Y013279D01*
X022203Y013356D02*
X022836Y013356D01*
X023378Y012970D02*
X021349Y012970D01*
X021380Y012893D02*
X023378Y012893D01*
X023378Y012429D02*
X022122Y012429D01*
X022159Y012352D02*
X023134Y012352D01*
X023057Y012275D02*
X022159Y012275D01*
X022159Y012198D02*
X023035Y012198D01*
X023035Y012120D02*
X022159Y012120D01*
X022128Y012043D02*
X023080Y012043D01*
X023332Y012352D02*
X023378Y012352D01*
X024413Y012661D02*
X021722Y012661D01*
X021722Y012637D02*
X021722Y012439D01*
X021815Y012439D01*
X021807Y012435D01*
X021779Y012408D01*
X021765Y012376D01*
X021765Y012392D01*
X021707Y012451D01*
X021682Y012451D01*
X021682Y012637D01*
X021722Y012637D01*
X021682Y012661D02*
X021388Y012661D01*
X021425Y012676D02*
X021682Y012676D01*
X021682Y012874D01*
X021505Y012874D01*
X021468Y012859D01*
X021440Y012831D01*
X021425Y012794D01*
X021425Y012676D01*
X021425Y012738D02*
X021388Y012738D01*
X021388Y012816D02*
X021434Y012816D01*
X021425Y012584D02*
X021357Y012584D01*
X021430Y012507D02*
X020994Y012507D01*
X021033Y012557D02*
X021161Y012557D01*
X021161Y012745D01*
X020953Y012745D01*
X020953Y012637D01*
X020968Y012600D01*
X020996Y012572D01*
X021033Y012557D01*
X020985Y012584D02*
X020944Y012584D01*
X020953Y012661D02*
X020676Y012661D01*
X020676Y012738D02*
X020953Y012738D01*
X020953Y012816D02*
X020676Y012816D01*
X020676Y012860D02*
X020341Y012860D01*
X020676Y012860D01*
X020676Y012893D02*
X020961Y012893D01*
X021161Y012738D02*
X021180Y012738D01*
X021180Y012661D02*
X021161Y012661D01*
X021161Y012584D02*
X021180Y012584D01*
X021050Y012429D02*
X020994Y012429D01*
X021372Y012429D02*
X021407Y012429D01*
X021682Y012507D02*
X021722Y012507D01*
X021722Y012584D02*
X021682Y012584D01*
X021682Y012738D02*
X021722Y012738D01*
X021722Y012816D02*
X021682Y012816D01*
X021466Y013047D02*
X021388Y013047D01*
X021728Y012429D02*
X021800Y012429D01*
X021468Y011734D02*
X021133Y011734D01*
X021158Y011425D02*
X021470Y011425D01*
X021514Y011286D02*
X021478Y011271D01*
X021514Y011286D02*
X022046Y011286D01*
X022046Y011108D01*
X021434Y011108D01*
X021434Y011194D02*
X021320Y011194D01*
X021021Y011116D02*
X020676Y011116D01*
X020676Y011039D02*
X021021Y011039D01*
X021021Y010962D02*
X020676Y010962D01*
X020676Y010885D02*
X021021Y010885D01*
X021041Y010807D02*
X020808Y010807D01*
X021464Y010807D02*
X021486Y010807D01*
X022046Y010962D02*
X022046Y010962D01*
X022046Y011039D02*
X022046Y011039D01*
X022046Y011108D02*
X022046Y011108D01*
X022046Y011116D02*
X022046Y011116D01*
X022046Y011194D02*
X022046Y011194D01*
X022046Y011271D02*
X022046Y011271D01*
X022605Y010807D02*
X023097Y010807D01*
X023084Y010344D02*
X021307Y010344D01*
X021307Y010267D02*
X023113Y010267D01*
X020968Y011194D02*
X020676Y011194D01*
X020676Y011271D02*
X020890Y011271D01*
X020005Y011271D02*
X016426Y011271D01*
X016504Y011348D02*
X020005Y011348D01*
X020005Y011425D02*
X016525Y011425D01*
X016689Y011503D02*
X020005Y011503D01*
X020005Y011580D02*
X016767Y011580D01*
X016775Y011657D02*
X018247Y011657D01*
X018191Y011734D02*
X016775Y011734D01*
X016717Y011812D02*
X018191Y011812D01*
X018202Y011889D02*
X016570Y011889D01*
X016493Y011966D02*
X018279Y011966D01*
X018260Y012120D02*
X016964Y012120D01*
X017041Y012198D02*
X018182Y012198D01*
X018105Y012275D02*
X017057Y012275D01*
X017057Y012352D02*
X018028Y012352D01*
X017951Y012429D02*
X017005Y012429D01*
X016711Y012429D02*
X016149Y012429D01*
X016149Y012352D02*
X016660Y012352D01*
X016660Y012275D02*
X016149Y012275D01*
X016149Y012198D02*
X016675Y012198D01*
X016753Y012120D02*
X016149Y012120D01*
X016149Y012043D02*
X019503Y012043D01*
X019503Y011966D02*
X018500Y011966D01*
X018562Y012615D02*
X018525Y012652D01*
X018525Y012722D01*
X018409Y012838D01*
X018245Y012838D01*
X018128Y012722D01*
X018128Y012674D01*
X018045Y012757D01*
X016989Y012757D01*
X016940Y012807D01*
X016931Y012807D01*
X016932Y012807D01*
X016932Y012972D01*
X016882Y013021D01*
X016882Y013232D01*
X016795Y013320D01*
X016606Y013509D01*
X016653Y013557D01*
X016653Y013722D01*
X016537Y013838D01*
X016373Y013838D01*
X016331Y013796D01*
X016100Y013796D01*
X016090Y013805D01*
X015570Y013805D01*
X015570Y013959D01*
X015682Y013847D01*
X015847Y013847D01*
X015963Y013963D01*
X015963Y014128D01*
X015847Y014244D01*
X015682Y014244D01*
X015570Y014132D01*
X015570Y014139D01*
X014917Y014792D01*
X014829Y014879D01*
X014684Y014879D01*
X014684Y014889D01*
X014646Y014927D01*
X014684Y014964D01*
X014684Y015283D01*
X014646Y015320D01*
X014669Y015343D01*
X014684Y015379D01*
X014684Y015498D01*
X014299Y015498D01*
X014299Y015537D01*
X014260Y015537D01*
X014260Y015735D01*
X013954Y015735D01*
X013918Y015720D01*
X013890Y015692D01*
X013875Y015655D01*
X013875Y015537D01*
X014260Y015537D01*
X014260Y015498D01*
X013875Y015498D01*
X013875Y015379D01*
X013890Y015343D01*
X013912Y015320D01*
X013895Y015303D01*
X013700Y015303D01*
X013686Y015318D01*
X013595Y015355D01*
X013496Y015355D01*
X013406Y015318D01*
X013336Y015248D01*
X013299Y015157D01*
X013299Y015059D01*
X013336Y014968D01*
X013406Y014899D01*
X013496Y014861D01*
X013595Y014861D01*
X013686Y014899D01*
X013731Y014944D01*
X013895Y014944D01*
X013912Y014927D01*
X013875Y014889D01*
X013875Y014571D01*
X013912Y014533D01*
X013875Y014495D01*
X013875Y014177D01*
X013912Y014139D01*
X013875Y014102D01*
X013875Y013783D01*
X013912Y013746D01*
X013875Y013708D01*
X013875Y013390D01*
X013912Y013352D01*
X013875Y013314D01*
X013875Y012996D01*
X013912Y012958D01*
X013875Y012921D01*
X013875Y012602D01*
X013933Y012544D01*
X014524Y012544D01*
X014846Y012222D01*
X014729Y012222D01*
X014489Y011982D01*
X014353Y011982D01*
X014295Y011924D01*
X014295Y011907D01*
X014281Y011939D01*
X014253Y011967D01*
X014217Y011982D01*
X014109Y011982D01*
X014109Y011774D01*
X014295Y011774D01*
X014295Y011755D01*
X014109Y011755D01*
X014109Y011774D01*
X014089Y011774D01*
X014089Y011755D01*
X013901Y011755D01*
X013901Y011626D01*
X013916Y011590D01*
X013944Y011562D01*
X013981Y011547D01*
X014089Y011547D01*
X014089Y011755D01*
X014109Y011755D01*
X014109Y011547D01*
X014217Y011547D01*
X014253Y011562D01*
X014281Y011590D01*
X014295Y011622D01*
X014295Y011605D01*
X014298Y011602D01*
X014266Y011570D01*
X014266Y011290D01*
X014323Y011233D01*
X014266Y011176D01*
X014266Y010897D01*
X014285Y010878D01*
X014285Y010713D01*
X014334Y010664D01*
X014334Y010451D01*
X014229Y010347D01*
X014229Y010972D01*
X014171Y011030D01*
X013284Y011030D01*
X013284Y011326D01*
X013226Y011384D01*
X012466Y011384D01*
X012466Y011914D01*
X013149Y011914D01*
X013207Y011972D01*
X013207Y012527D01*
X013149Y012585D01*
X012466Y012585D01*
X012466Y015694D01*
X013149Y015694D01*
X013207Y015752D01*
X013207Y016307D01*
X013149Y016365D01*
X012466Y016365D01*
X012466Y016635D01*
X012029Y017072D01*
X012362Y016951D01*
X012769Y016951D01*
X013152Y017090D01*
X013464Y017352D01*
X013667Y017704D01*
X013667Y017704D01*
X013738Y018105D01*
X013738Y018105D01*
X013667Y018506D01*
X013464Y018858D01*
X013237Y019048D01*
X023902Y019048D01*
X023676Y018858D01*
X023472Y018506D01*
X023402Y018105D01*
X023472Y017704D01*
X023676Y017352D01*
X023676Y017352D01*
X023988Y017090D01*
X024370Y016951D01*
X024777Y016951D01*
X025133Y017080D01*
X024769Y016716D01*
X024688Y016635D01*
X024688Y016623D01*
X024540Y016623D01*
X024533Y016630D01*
X024497Y016645D01*
X024016Y016645D01*
X024016Y016210D01*
X023938Y016210D01*
X023938Y016645D01*
X023457Y016645D01*
X023421Y016630D01*
X023393Y016602D01*
X023378Y016565D01*
X023378Y016210D01*
X023937Y016210D01*
X023937Y016131D01*
X023378Y016131D01*
X023378Y015776D01*
X023393Y015739D01*
X023421Y015711D01*
X023457Y015696D01*
X023938Y015696D01*
X023938Y016131D01*
X024016Y016131D01*
X024016Y015696D01*
X024413Y015696D01*
X024413Y015645D01*
X023436Y015645D01*
X023378Y015587D01*
X023378Y015520D01*
X023093Y015520D01*
X023043Y015570D01*
X022361Y015570D01*
X022303Y015512D01*
X022303Y015138D01*
X022099Y014934D01*
X021872Y014934D01*
X021872Y014992D01*
X021814Y015050D01*
X021338Y015050D01*
X021280Y014992D01*
X021280Y014358D01*
X021338Y014300D01*
X021814Y014300D01*
X021872Y014358D01*
X021872Y014416D01*
X022258Y014416D01*
X022353Y014455D01*
X022669Y014771D01*
X023043Y014771D01*
X023093Y014821D01*
X023378Y014821D01*
X023378Y014754D01*
X023436Y014696D01*
X024413Y014696D01*
X024413Y014645D01*
X023436Y014645D01*
X023378Y014587D01*
X023378Y014320D01*
X023077Y014320D01*
X023002Y014245D01*
X020783Y014245D01*
X020734Y014195D01*
X019712Y014195D01*
X019712Y014712D01*
X019653Y014770D01*
X019453Y014770D01*
X019448Y014765D01*
X019435Y014770D01*
X019356Y014770D01*
X019309Y014770D01*
X019309Y014828D01*
X019395Y014828D01*
X019453Y014886D01*
X019453Y014903D01*
X019466Y014871D01*
X019494Y014843D01*
X019531Y014828D01*
X019639Y014828D01*
X019639Y015036D01*
X019659Y015036D01*
X019659Y015055D01*
X019847Y015055D01*
X019847Y015183D01*
X019831Y015220D01*
X019803Y015248D01*
X019767Y015263D01*
X019659Y015263D01*
X019659Y015055D01*
X019639Y015055D01*
X019639Y015263D01*
X019531Y015263D01*
X019494Y015248D01*
X019494Y015396D01*
X019795Y015396D01*
X020482Y016084D01*
X020570Y016171D01*
X020570Y018014D01*
X020482Y018101D01*
X020195Y018389D01*
X020107Y018476D01*
X019507Y018476D01*
X019557Y018526D01*
X019557Y018690D01*
X019440Y018807D01*
X019276Y018807D01*
X019160Y018690D01*
X019160Y018621D01*
X019084Y018545D01*
X018928Y018701D01*
X018840Y018789D01*
X018621Y018789D01*
X018621Y018858D01*
X018563Y018916D01*
X018244Y018916D01*
X018186Y018858D01*
X018186Y018421D01*
X018238Y018369D01*
X018213Y018369D01*
X018097Y018253D01*
X018097Y018088D01*
X018213Y017972D01*
X018283Y017972D01*
X018405Y017850D01*
X018122Y017850D01*
X018115Y017843D01*
X017670Y017843D01*
X017639Y017874D01*
X017202Y017874D01*
X017144Y017816D01*
X017144Y017789D01*
X017013Y017789D01*
X017013Y017851D01*
X016955Y017909D01*
X016862Y017909D01*
X016857Y017914D01*
X016820Y017951D01*
X016732Y018039D01*
X016314Y018039D01*
X016314Y018268D01*
X016261Y018320D01*
X016297Y018355D01*
X016297Y018372D01*
X016310Y018340D01*
X016338Y018312D01*
X016374Y018297D01*
X016483Y018297D01*
X016483Y018505D01*
X016502Y018505D01*
X016502Y018524D01*
X016483Y018524D01*
X016483Y018732D01*
X016374Y018732D01*
X016338Y018717D01*
X016310Y018689D01*
X016297Y018657D01*
X016297Y018674D01*
X016238Y018732D01*
X015959Y018732D01*
X015901Y018674D01*
X015901Y018664D01*
X015609Y018664D01*
X015521Y018576D01*
X015455Y018510D01*
X015455Y018326D01*
X015445Y018326D01*
X015387Y018268D01*
X015387Y018241D01*
X015330Y018241D01*
X015330Y018246D01*
X015314Y018283D01*
X015286Y018311D01*
X015250Y018326D01*
X015132Y018326D01*
X015132Y018241D01*
X015092Y018241D01*
X015092Y018326D01*
X014974Y018326D01*
X014938Y018311D01*
X014910Y018283D01*
X014895Y018246D01*
X014895Y018241D01*
X014837Y018241D01*
X014837Y018268D01*
X014779Y018326D01*
X014461Y018326D01*
X014402Y018268D01*
X014402Y017752D01*
X014461Y017694D01*
X014506Y017694D01*
X014506Y017460D01*
X014461Y017460D01*
X014402Y017401D01*
X014402Y016886D01*
X014461Y016828D01*
X014779Y016828D01*
X014837Y016886D01*
X014837Y016913D01*
X014895Y016913D01*
X014895Y016886D01*
X014953Y016828D01*
X015271Y016828D01*
X015330Y016886D01*
X015330Y016913D01*
X015387Y016913D01*
X015387Y016886D01*
X015445Y016828D01*
X015455Y016828D01*
X015455Y016642D01*
X015410Y016597D01*
X015410Y016432D01*
X015526Y016316D01*
X015690Y016316D01*
X015807Y016432D01*
X015807Y016597D01*
X015754Y016650D01*
X015754Y016828D01*
X015763Y016828D01*
X015822Y016886D01*
X015822Y016913D01*
X015879Y016913D01*
X015879Y016886D01*
X015937Y016828D01*
X015947Y016828D01*
X015947Y016665D01*
X015878Y016597D01*
X015878Y016432D01*
X015995Y016316D01*
X016159Y016316D01*
X016275Y016432D01*
X016275Y016597D01*
X016246Y016626D01*
X016246Y016828D01*
X016256Y016828D01*
X016314Y016886D01*
X016314Y017401D01*
X016256Y017460D01*
X016210Y017460D01*
X016210Y017694D01*
X016256Y017694D01*
X016302Y017740D01*
X016578Y017740D01*
X016578Y017572D01*
X016636Y017513D01*
X016653Y017513D01*
X016621Y017500D01*
X016593Y017472D01*
X016578Y017436D01*
X016578Y017327D01*
X016786Y017327D01*
X016786Y017308D01*
X016578Y017308D01*
X016578Y017199D01*
X016593Y017163D01*
X016621Y017135D01*
X016658Y017120D01*
X016786Y017120D01*
X016786Y017308D01*
X016805Y017308D01*
X016805Y017120D01*
X016933Y017120D01*
X016970Y017135D01*
X016998Y017163D01*
X017013Y017199D01*
X017013Y017308D01*
X016805Y017308D01*
X016805Y017327D01*
X017013Y017327D01*
X017013Y017436D01*
X016998Y017472D01*
X016980Y017490D01*
X017151Y017490D01*
X017173Y017468D01*
X017124Y017419D01*
X017124Y016904D01*
X017183Y016846D01*
X017659Y016846D01*
X017717Y016904D01*
X017717Y017419D01*
X017668Y017468D01*
X017697Y017497D01*
X017697Y017545D01*
X018064Y017545D01*
X018064Y017399D01*
X018064Y017399D01*
X018064Y017399D01*
X018064Y017202D01*
X018064Y017202D01*
X018064Y017202D01*
X018064Y017005D01*
X018064Y017005D01*
X018064Y017005D01*
X018064Y016808D01*
X018070Y016802D01*
X018064Y016787D01*
X018064Y016710D01*
X018321Y016710D01*
X018578Y016710D01*
X018578Y016787D01*
X018571Y016802D01*
X018578Y016808D01*
X018578Y017005D01*
X018577Y017005D01*
X018578Y017005D01*
X018578Y017202D01*
X018578Y017399D01*
X018578Y017595D01*
X018577Y017596D01*
X018578Y017596D01*
X018578Y017732D01*
X018714Y017732D01*
X018714Y017733D01*
X018715Y017732D01*
X018911Y017732D01*
X018911Y017733D01*
X018911Y017732D01*
X019108Y017732D01*
X019108Y017733D01*
X019108Y017732D01*
X019305Y017732D01*
X019502Y017732D01*
X019639Y017732D01*
X019639Y017596D01*
X019639Y017596D01*
X019639Y017595D01*
X019639Y017399D01*
X019639Y017399D01*
X019639Y017399D01*
X019639Y017202D01*
X019639Y017202D01*
X019639Y017202D01*
X019639Y017005D01*
X019639Y017005D01*
X019639Y017005D01*
X019639Y016808D01*
X019645Y016802D01*
X019639Y016787D01*
X019639Y016710D01*
X019896Y016710D01*
X020152Y016710D01*
X020152Y016787D01*
X020146Y016802D01*
X020152Y016808D01*
X020152Y017005D01*
X020152Y017005D01*
X020152Y017005D01*
X020152Y017202D01*
X020152Y017202D01*
X020152Y017202D01*
X020152Y017399D01*
X020152Y017399D01*
X020152Y017399D01*
X020152Y017595D01*
X020152Y017596D01*
X020152Y017792D01*
X020094Y017850D01*
X019757Y017850D01*
X019757Y018178D01*
X019984Y018178D01*
X020271Y017890D01*
X020271Y016295D01*
X019671Y015695D01*
X019609Y015695D01*
X019531Y015695D01*
X019750Y015913D01*
X019750Y016209D01*
X019757Y016216D01*
X019757Y016553D01*
X019896Y016553D01*
X020073Y016553D01*
X020109Y016568D01*
X020137Y016596D01*
X020152Y016633D01*
X020152Y016710D01*
X019896Y016710D01*
X019896Y016710D01*
X019896Y016553D01*
X019896Y016710D01*
X019896Y016710D01*
X019896Y016710D01*
X019639Y016710D01*
X019639Y016671D01*
X019502Y016671D01*
X019502Y016671D01*
X019502Y016671D01*
X019305Y016671D01*
X019305Y016671D01*
X019305Y016671D01*
X019108Y016671D01*
X019108Y016671D01*
X019108Y016671D01*
X018911Y016671D01*
X018911Y016671D01*
X018911Y016671D01*
X018715Y016671D01*
X018714Y016671D01*
X018578Y016671D01*
X018578Y016710D01*
X018321Y016710D01*
X018321Y016710D01*
X018321Y016553D01*
X018460Y016553D01*
X018460Y016216D01*
X018518Y016158D01*
X018663Y016158D01*
X018663Y016147D01*
X018618Y016101D01*
X018503Y016101D01*
X018503Y016111D01*
X018445Y016169D01*
X018165Y016169D01*
X018107Y016111D01*
X018107Y016094D01*
X018094Y016126D01*
X018066Y016154D01*
X018029Y016169D01*
X017921Y016169D01*
X017921Y015962D01*
X017901Y015962D01*
X017901Y015942D01*
X017713Y015942D01*
X017713Y015814D01*
X017729Y015777D01*
X017757Y015750D01*
X017793Y015734D01*
X017901Y015734D01*
X017901Y015942D01*
X017921Y015942D01*
X017921Y015734D01*
X018029Y015734D01*
X018066Y015750D01*
X018094Y015777D01*
X018107Y015809D01*
X018107Y015793D01*
X018165Y015734D01*
X018298Y015734D01*
X018253Y015690D01*
X018253Y015621D01*
X018078Y015445D01*
X018077Y015445D01*
X017990Y015357D01*
X017990Y014770D01*
X017537Y014770D01*
X017537Y015160D01*
X017565Y015160D01*
X017682Y015276D01*
X017682Y015440D01*
X017666Y015456D01*
X017701Y015490D01*
X017701Y015770D01*
X017643Y015827D01*
X017701Y015884D01*
X017701Y016163D01*
X017673Y016191D01*
X017717Y016235D01*
X017717Y016750D01*
X017659Y016808D01*
X017183Y016808D01*
X017124Y016750D01*
X017124Y016650D01*
X017026Y016650D01*
X016910Y016534D01*
X016910Y016370D01*
X017026Y016253D01*
X017124Y016253D01*
X017124Y016235D01*
X017137Y016222D01*
X016949Y016222D01*
X016891Y016163D01*
X016891Y015884D01*
X016948Y015827D01*
X016891Y015770D01*
X016891Y015490D01*
X016941Y015440D01*
X016941Y015362D01*
X016559Y015743D01*
X016545Y015757D01*
X016527Y015757D01*
X016527Y015826D01*
X016469Y015885D01*
X016150Y015885D01*
X016092Y015826D01*
X016092Y015390D01*
X016150Y015332D01*
X016469Y015332D01*
X016509Y015371D01*
X016845Y015035D01*
X016845Y014770D01*
X016797Y014770D01*
X016750Y014770D01*
X016750Y014928D01*
X016545Y015132D01*
X016409Y015132D01*
X016409Y015142D01*
X016351Y015201D01*
X016072Y015201D01*
X016013Y015142D01*
X016013Y015126D01*
X016000Y015158D01*
X015972Y015185D01*
X015936Y015201D01*
X015827Y015201D01*
X015827Y014993D01*
X015808Y014993D01*
X015808Y015201D01*
X015699Y015201D01*
X015663Y015185D01*
X015635Y015158D01*
X015620Y015121D01*
X015620Y014993D01*
X015808Y014993D01*
X015808Y014973D01*
X015827Y014973D01*
X015827Y014766D01*
X015936Y014766D01*
X015972Y014781D01*
X016000Y014809D01*
X016013Y014841D01*
X016013Y014824D01*
X016006Y014824D01*
X016013Y014824D02*
X016044Y014793D01*
X016035Y014784D01*
X016035Y014620D01*
X016151Y014503D01*
X016315Y014503D01*
X016432Y014620D01*
X016432Y014784D01*
X016400Y014815D01*
X016409Y014824D01*
X016431Y014824D01*
X016421Y014834D02*
X016451Y014804D01*
X016451Y014721D01*
X016442Y014712D01*
X016442Y014157D01*
X016500Y014099D01*
X016701Y014099D01*
X016706Y014104D01*
X016719Y014099D01*
X016797Y014099D01*
X016797Y014434D01*
X016797Y014434D01*
X016797Y014099D01*
X016876Y014099D01*
X016889Y014104D01*
X016894Y014099D01*
X017632Y014099D01*
X017632Y013935D01*
X018053Y013515D01*
X018140Y013428D01*
X018977Y013428D01*
X019026Y013378D01*
X019190Y013378D01*
X019307Y013495D01*
X019307Y013535D01*
X019440Y013535D01*
X019557Y013651D01*
X019557Y013815D01*
X019440Y013932D01*
X019371Y013932D01*
X019326Y013976D01*
X018264Y013976D01*
X018141Y014099D01*
X019260Y014099D01*
X019265Y014104D01*
X019278Y014099D01*
X019356Y014099D01*
X019356Y014434D01*
X019356Y014434D01*
X019356Y014099D01*
X019404Y014099D01*
X019404Y014070D01*
X019490Y013984D01*
X019577Y013896D01*
X020716Y013896D01*
X020622Y013802D01*
X020618Y013805D01*
X020063Y013805D01*
X020005Y013747D01*
X020005Y012956D01*
X020010Y012951D01*
X020005Y012938D01*
X020005Y012860D01*
X020341Y012860D01*
X020341Y012860D01*
X020341Y012860D01*
X020005Y012860D01*
X020005Y012781D01*
X020010Y012768D01*
X020005Y012763D01*
X020005Y012615D01*
X018562Y012615D01*
X018525Y012661D02*
X020005Y012661D01*
X020005Y012738D02*
X018508Y012738D01*
X018431Y012816D02*
X020005Y012816D01*
X020005Y012893D02*
X016932Y012893D01*
X016932Y012970D02*
X020005Y012970D01*
X020005Y013047D02*
X016882Y013047D01*
X016882Y013125D02*
X020005Y013125D01*
X020005Y013202D02*
X016882Y013202D01*
X016836Y013279D02*
X020005Y013279D01*
X020005Y013356D02*
X016759Y013356D01*
X016681Y013434D02*
X018134Y013434D01*
X018057Y013511D02*
X016607Y013511D01*
X016653Y013588D02*
X017979Y013588D01*
X018053Y013515D02*
X018053Y013515D01*
X017902Y013665D02*
X016653Y013665D01*
X016633Y013743D02*
X017825Y013743D01*
X017748Y013820D02*
X016555Y013820D01*
X016355Y013820D02*
X015570Y013820D01*
X015570Y013897D02*
X015632Y013897D01*
X015896Y013897D02*
X017670Y013897D01*
X017632Y013974D02*
X015963Y013974D01*
X015963Y014051D02*
X017632Y014051D01*
X018188Y014051D02*
X019422Y014051D01*
X019356Y014129D02*
X019356Y014129D01*
X019356Y014206D02*
X019356Y014206D01*
X019356Y014283D02*
X019356Y014283D01*
X019356Y014360D02*
X019356Y014360D01*
X019356Y014434D02*
X019356Y014770D01*
X019356Y014434D01*
X019356Y014434D01*
X019356Y014438D02*
X019356Y014438D01*
X019356Y014515D02*
X019356Y014515D01*
X019356Y014592D02*
X019356Y014592D01*
X019356Y014669D02*
X019356Y014669D01*
X019356Y014747D02*
X019356Y014747D01*
X019309Y014824D02*
X020532Y014824D01*
X020532Y014757D02*
X020296Y014757D01*
X020220Y014682D01*
X020151Y014682D01*
X020035Y014565D01*
X020035Y014401D01*
X020151Y014285D01*
X020315Y014285D01*
X020432Y014401D01*
X020432Y014459D01*
X020532Y014459D01*
X020532Y014358D01*
X020590Y014300D01*
X021066Y014300D01*
X021124Y014358D01*
X021124Y014992D01*
X021066Y015050D01*
X020590Y015050D01*
X020532Y014992D01*
X020532Y014757D01*
X020532Y014901D02*
X019844Y014901D01*
X019847Y014908D02*
X019847Y015036D01*
X019659Y015036D01*
X019659Y014828D01*
X019767Y014828D01*
X019803Y014843D01*
X019831Y014871D01*
X019847Y014908D01*
X019847Y014978D02*
X020532Y014978D01*
X020285Y014747D02*
X019677Y014747D01*
X019712Y014669D02*
X020139Y014669D01*
X020062Y014592D02*
X019712Y014592D01*
X019712Y014515D02*
X020035Y014515D01*
X020035Y014438D02*
X019712Y014438D01*
X019712Y014360D02*
X020075Y014360D01*
X020391Y014360D02*
X020532Y014360D01*
X020532Y014438D02*
X020432Y014438D01*
X020745Y014206D02*
X019712Y014206D01*
X019712Y014283D02*
X023041Y014283D01*
X023378Y014360D02*
X021872Y014360D01*
X022311Y014438D02*
X023378Y014438D01*
X023378Y014515D02*
X022413Y014515D01*
X022490Y014592D02*
X023383Y014592D01*
X023385Y014747D02*
X022645Y014747D01*
X022567Y014669D02*
X024413Y014669D01*
X024413Y015674D02*
X021818Y015674D01*
X021836Y015628D02*
X021797Y015724D01*
X021724Y015797D01*
X021628Y015836D01*
X021498Y015836D01*
X021498Y015858D01*
X021440Y015916D01*
X020964Y015916D01*
X020906Y015858D01*
X020906Y015224D01*
X020964Y015166D01*
X021440Y015166D01*
X021498Y015224D01*
X021498Y015318D01*
X021628Y015318D01*
X021724Y015357D01*
X021797Y015430D01*
X021836Y015525D01*
X021836Y015628D01*
X021836Y015596D02*
X023387Y015596D01*
X023388Y015751D02*
X021770Y015751D01*
X021648Y015828D02*
X022480Y015828D01*
X022536Y015771D02*
X022303Y016005D01*
X022303Y016131D01*
X022662Y016131D01*
X022662Y016210D01*
X022303Y016210D01*
X022303Y016336D01*
X022536Y016570D01*
X022663Y016570D01*
X022663Y016210D01*
X022741Y016210D01*
X022741Y016570D01*
X022867Y016570D01*
X023101Y016336D01*
X023101Y016210D01*
X022741Y016210D01*
X022741Y016131D01*
X022741Y015771D01*
X022867Y015771D01*
X023101Y016005D01*
X023101Y016131D01*
X022741Y016131D01*
X022663Y016131D01*
X022663Y015771D01*
X022536Y015771D01*
X022663Y015828D02*
X022741Y015828D01*
X022741Y015905D02*
X022663Y015905D01*
X022663Y015983D02*
X022741Y015983D01*
X022741Y016060D02*
X022663Y016060D01*
X022662Y016137D02*
X021244Y016137D01*
X021244Y016120D02*
X021244Y016284D01*
X021196Y016333D01*
X021284Y016333D01*
X021342Y016391D01*
X021342Y016459D01*
X021437Y016459D01*
X021437Y016391D01*
X021495Y016333D01*
X021971Y016333D01*
X022029Y016391D01*
X022029Y016906D01*
X021971Y016964D01*
X021495Y016964D01*
X021437Y016906D01*
X021437Y016757D01*
X021342Y016757D01*
X021342Y016906D01*
X021284Y016964D01*
X020808Y016964D01*
X020749Y016906D01*
X020749Y016391D01*
X020808Y016333D01*
X020896Y016333D01*
X020847Y016284D01*
X020847Y016120D01*
X020963Y016003D01*
X021128Y016003D01*
X021244Y016120D01*
X021184Y016060D02*
X022303Y016060D01*
X022325Y015983D02*
X020381Y015983D01*
X020458Y016060D02*
X020907Y016060D01*
X020847Y016137D02*
X020536Y016137D01*
X020570Y016214D02*
X020847Y016214D01*
X020855Y016291D02*
X020570Y016291D01*
X020570Y016369D02*
X020771Y016369D01*
X020749Y016446D02*
X020570Y016446D01*
X020570Y016523D02*
X020749Y016523D01*
X020749Y016600D02*
X020570Y016600D01*
X020570Y016678D02*
X020749Y016678D01*
X020749Y016755D02*
X020570Y016755D01*
X020570Y016832D02*
X020749Y016832D01*
X020753Y016909D02*
X020570Y016909D01*
X020570Y016987D02*
X022321Y016987D01*
X022303Y017005D02*
X022536Y016771D01*
X022867Y016771D01*
X023101Y017005D01*
X023101Y017336D01*
X022867Y017570D01*
X022536Y017570D01*
X022303Y017336D01*
X022303Y017320D01*
X022029Y017320D01*
X022029Y017575D01*
X021971Y017634D01*
X021495Y017634D01*
X021437Y017575D01*
X021437Y017060D01*
X021495Y017002D01*
X021971Y017002D01*
X021991Y017021D01*
X022303Y017021D01*
X022303Y017005D01*
X022398Y016909D02*
X022026Y016909D01*
X022029Y016832D02*
X022476Y016832D01*
X022490Y016523D02*
X022029Y016523D01*
X022029Y016446D02*
X022412Y016446D01*
X022335Y016369D02*
X022007Y016369D01*
X022029Y016600D02*
X023392Y016600D01*
X023378Y016523D02*
X022914Y016523D01*
X022991Y016446D02*
X023378Y016446D01*
X023378Y016369D02*
X023069Y016369D01*
X023101Y016291D02*
X023378Y016291D01*
X023378Y016214D02*
X023101Y016214D01*
X023101Y016060D02*
X023378Y016060D01*
X023378Y015983D02*
X023079Y015983D01*
X023001Y015905D02*
X023378Y015905D01*
X023378Y015828D02*
X022924Y015828D01*
X022741Y016137D02*
X023937Y016137D01*
X023938Y016214D02*
X024016Y016214D01*
X024016Y016291D02*
X023938Y016291D01*
X023938Y016369D02*
X024016Y016369D01*
X024016Y016446D02*
X023938Y016446D01*
X023938Y016523D02*
X024016Y016523D01*
X024016Y016600D02*
X023938Y016600D01*
X024059Y017064D02*
X023101Y017064D01*
X023101Y017141D02*
X023927Y017141D01*
X023988Y017090D02*
X023988Y017090D01*
X023835Y017218D02*
X023101Y017218D01*
X023101Y017296D02*
X023743Y017296D01*
X023676Y017352D02*
X023676Y017352D01*
X023664Y017373D02*
X023064Y017373D01*
X022987Y017450D02*
X023619Y017450D01*
X023574Y017527D02*
X022910Y017527D01*
X022867Y017771D02*
X023101Y018005D01*
X023101Y018131D01*
X022741Y018131D01*
X022741Y017771D01*
X022867Y017771D01*
X022932Y017836D02*
X023449Y017836D01*
X023463Y017759D02*
X020570Y017759D01*
X020570Y017682D02*
X023485Y017682D01*
X023472Y017704D02*
X023472Y017704D01*
X023530Y017605D02*
X022000Y017605D01*
X022029Y017527D02*
X022494Y017527D01*
X022417Y017450D02*
X022029Y017450D01*
X022029Y017373D02*
X022339Y017373D01*
X022536Y017771D02*
X022303Y018005D01*
X022303Y018131D01*
X022662Y018131D01*
X022662Y018210D01*
X022303Y018210D01*
X022303Y018336D01*
X022536Y018570D01*
X022663Y018570D01*
X022663Y018210D01*
X022741Y018210D01*
X022741Y018570D01*
X022867Y018570D01*
X023101Y018336D01*
X023101Y018210D01*
X022741Y018210D01*
X022741Y018131D01*
X022663Y018131D01*
X022663Y017771D01*
X022536Y017771D01*
X022471Y017836D02*
X020570Y017836D01*
X020570Y017914D02*
X022394Y017914D01*
X022317Y017991D02*
X020570Y017991D01*
X020516Y018068D02*
X022303Y018068D01*
X022303Y018222D02*
X020361Y018222D01*
X020438Y018145D02*
X022662Y018145D01*
X022663Y018068D02*
X022741Y018068D01*
X022741Y018145D02*
X023409Y018145D01*
X023402Y018105D02*
X023402Y018105D01*
X023408Y018068D02*
X023101Y018068D01*
X023087Y017991D02*
X023422Y017991D01*
X023435Y017914D02*
X023010Y017914D01*
X022741Y017914D02*
X022663Y017914D01*
X022663Y017991D02*
X022741Y017991D01*
X022741Y017836D02*
X022663Y017836D01*
X022663Y018222D02*
X022741Y018222D01*
X022741Y018300D02*
X022663Y018300D01*
X022663Y018377D02*
X022741Y018377D01*
X022741Y018454D02*
X022663Y018454D01*
X022663Y018531D02*
X022741Y018531D01*
X022906Y018531D02*
X023487Y018531D01*
X023472Y018506D02*
X023472Y018506D01*
X023463Y018454D02*
X022983Y018454D01*
X023060Y018377D02*
X023450Y018377D01*
X023436Y018300D02*
X023101Y018300D01*
X023101Y018222D02*
X023422Y018222D01*
X023532Y018609D02*
X019557Y018609D01*
X019557Y018686D02*
X023576Y018686D01*
X023621Y018763D02*
X019484Y018763D01*
X019557Y018531D02*
X022498Y018531D01*
X022421Y018454D02*
X020130Y018454D01*
X020195Y018389D02*
X020195Y018389D01*
X020207Y018377D02*
X022343Y018377D01*
X022303Y018300D02*
X020284Y018300D01*
X020482Y018101D02*
X020482Y018101D01*
X020248Y017914D02*
X019757Y017914D01*
X019757Y017991D02*
X020170Y017991D01*
X020093Y018068D02*
X019757Y018068D01*
X019757Y018145D02*
X020016Y018145D01*
X020108Y017836D02*
X020271Y017836D01*
X020271Y017759D02*
X020152Y017759D01*
X020152Y017682D02*
X020271Y017682D01*
X020271Y017605D02*
X020152Y017605D01*
X020152Y017596D02*
X020152Y017596D01*
X020152Y017527D02*
X020271Y017527D01*
X020271Y017450D02*
X020152Y017450D01*
X020152Y017373D02*
X020271Y017373D01*
X020271Y017296D02*
X020152Y017296D01*
X020152Y017218D02*
X020271Y017218D01*
X020271Y017141D02*
X020152Y017141D01*
X020152Y017064D02*
X020271Y017064D01*
X020271Y016987D02*
X020152Y016987D01*
X020152Y016909D02*
X020271Y016909D01*
X020271Y016832D02*
X020152Y016832D01*
X020152Y016755D02*
X020271Y016755D01*
X020271Y016678D02*
X020152Y016678D01*
X020139Y016600D02*
X020271Y016600D01*
X020271Y016523D02*
X019757Y016523D01*
X019757Y016446D02*
X020271Y016446D01*
X020271Y016369D02*
X019757Y016369D01*
X019757Y016291D02*
X020268Y016291D01*
X020190Y016214D02*
X019755Y016214D01*
X019750Y016137D02*
X020113Y016137D01*
X020036Y016060D02*
X019750Y016060D01*
X019750Y015983D02*
X019959Y015983D01*
X019882Y015905D02*
X019742Y015905D01*
X019804Y015828D02*
X019664Y015828D01*
X019727Y015751D02*
X019587Y015751D01*
X019494Y015365D02*
X020906Y015365D01*
X020906Y015442D02*
X019841Y015442D01*
X019918Y015519D02*
X020906Y015519D01*
X020906Y015596D02*
X019995Y015596D01*
X020072Y015674D02*
X020906Y015674D01*
X020906Y015751D02*
X020150Y015751D01*
X020227Y015828D02*
X020906Y015828D01*
X020953Y015905D02*
X020304Y015905D01*
X019896Y016600D02*
X019896Y016600D01*
X019896Y016678D02*
X019896Y016678D01*
X019639Y016678D02*
X018578Y016678D01*
X018578Y016755D02*
X019639Y016755D01*
X019639Y016832D02*
X018578Y016832D01*
X018578Y016909D02*
X018866Y016909D01*
X018870Y016906D02*
X019346Y016906D01*
X019404Y016964D01*
X019404Y017440D01*
X019346Y017498D01*
X018870Y017498D01*
X018812Y017440D01*
X018812Y016964D01*
X018870Y016906D01*
X018812Y016987D02*
X018578Y016987D01*
X018578Y017064D02*
X018812Y017064D01*
X018812Y017141D02*
X018578Y017141D01*
X018578Y017202D02*
X018577Y017202D01*
X018578Y017202D01*
X018578Y017218D02*
X018812Y017218D01*
X018812Y017296D02*
X018578Y017296D01*
X018578Y017373D02*
X018812Y017373D01*
X018822Y017450D02*
X018578Y017450D01*
X018577Y017399D02*
X018578Y017399D01*
X018577Y017399D01*
X018578Y017527D02*
X019639Y017527D01*
X019639Y017450D02*
X019394Y017450D01*
X019404Y017373D02*
X019639Y017373D01*
X019639Y017296D02*
X019404Y017296D01*
X019404Y017218D02*
X019639Y017218D01*
X019639Y017141D02*
X019404Y017141D01*
X019404Y017064D02*
X019639Y017064D01*
X019639Y016987D02*
X019404Y016987D01*
X019350Y016909D02*
X019639Y016909D01*
X018714Y016671D02*
X018714Y016671D01*
X018460Y016523D02*
X017717Y016523D01*
X017717Y016446D02*
X018460Y016446D01*
X018460Y016369D02*
X017717Y016369D01*
X017717Y016291D02*
X018460Y016291D01*
X018461Y016214D02*
X017697Y016214D01*
X017701Y016137D02*
X017739Y016137D01*
X017729Y016126D02*
X017713Y016090D01*
X017713Y015962D01*
X017901Y015962D01*
X017901Y016169D01*
X017793Y016169D01*
X017757Y016154D01*
X017729Y016126D01*
X017713Y016060D02*
X017701Y016060D01*
X017701Y015983D02*
X017713Y015983D01*
X017701Y015905D02*
X017713Y015905D01*
X017713Y015828D02*
X017644Y015828D01*
X017701Y015751D02*
X017755Y015751D01*
X017701Y015674D02*
X018253Y015674D01*
X018229Y015596D02*
X017701Y015596D01*
X017701Y015519D02*
X018152Y015519D01*
X018074Y015442D02*
X017680Y015442D01*
X017682Y015365D02*
X017997Y015365D01*
X017990Y015287D02*
X017682Y015287D01*
X017616Y015210D02*
X017990Y015210D01*
X017990Y015133D02*
X017537Y015133D01*
X017537Y015056D02*
X017990Y015056D01*
X017990Y014978D02*
X017537Y014978D01*
X017537Y014901D02*
X017990Y014901D01*
X017990Y014824D02*
X017537Y014824D01*
X016845Y014824D02*
X016750Y014824D01*
X016797Y014770D02*
X016797Y014434D01*
X016797Y014434D01*
X016797Y014770D01*
X016797Y014747D02*
X016797Y014747D01*
X016797Y014669D02*
X016797Y014669D01*
X016797Y014592D02*
X016797Y014592D01*
X016797Y014515D02*
X016797Y014515D01*
X016797Y014438D02*
X016797Y014438D01*
X016797Y014360D02*
X016797Y014360D01*
X016797Y014283D02*
X016797Y014283D01*
X016797Y014206D02*
X016797Y014206D01*
X016797Y014129D02*
X016797Y014129D01*
X016470Y014129D02*
X015962Y014129D01*
X015885Y014206D02*
X016442Y014206D01*
X016442Y014283D02*
X015426Y014283D01*
X015503Y014206D02*
X015644Y014206D01*
X015348Y014360D02*
X016442Y014360D01*
X016442Y014438D02*
X015271Y014438D01*
X015194Y014515D02*
X016139Y014515D01*
X016062Y014592D02*
X015117Y014592D01*
X015039Y014669D02*
X016035Y014669D01*
X016035Y014747D02*
X014962Y014747D01*
X014885Y014824D02*
X015629Y014824D01*
X015635Y014809D02*
X015663Y014781D01*
X015699Y014766D01*
X015808Y014766D01*
X015808Y014973D01*
X015620Y014973D01*
X015620Y014845D01*
X015635Y014809D01*
X015620Y014901D02*
X014672Y014901D01*
X014684Y014978D02*
X015808Y014978D01*
X015808Y014901D02*
X015827Y014901D01*
X015827Y014824D02*
X015808Y014824D01*
X015808Y015056D02*
X015827Y015056D01*
X015827Y015133D02*
X015808Y015133D01*
X015625Y015133D02*
X014684Y015133D01*
X014684Y015210D02*
X016670Y015210D01*
X016747Y015133D02*
X016409Y015133D01*
X016622Y015056D02*
X016824Y015056D01*
X016845Y014978D02*
X016699Y014978D01*
X016750Y014901D02*
X016845Y014901D01*
X016593Y015287D02*
X014679Y015287D01*
X014678Y015365D02*
X015527Y015365D01*
X015517Y015375D02*
X015545Y015347D01*
X015581Y015332D01*
X015699Y015332D01*
X015699Y015588D01*
X015502Y015588D01*
X015502Y015411D01*
X015517Y015375D01*
X015502Y015442D02*
X014684Y015442D01*
X014684Y015537D02*
X014684Y015655D01*
X014669Y015692D01*
X014641Y015720D01*
X014604Y015735D01*
X014299Y015735D01*
X014299Y015537D01*
X014684Y015537D01*
X014684Y015596D02*
X015699Y015596D01*
X015699Y015588D02*
X015699Y015628D01*
X015502Y015628D01*
X015502Y015805D01*
X015517Y015842D01*
X015545Y015870D01*
X015581Y015885D01*
X015699Y015885D01*
X015699Y015628D01*
X015739Y015628D01*
X015739Y015885D01*
X015857Y015885D01*
X015893Y015870D01*
X015921Y015842D01*
X015937Y015805D01*
X015937Y015628D01*
X015739Y015628D01*
X015739Y015588D01*
X015739Y015332D01*
X015857Y015332D01*
X015893Y015347D01*
X015921Y015375D01*
X015937Y015411D01*
X015937Y015588D01*
X015739Y015588D01*
X015699Y015588D01*
X015739Y015596D02*
X016092Y015596D01*
X016092Y015519D02*
X015937Y015519D01*
X015937Y015442D02*
X016092Y015442D01*
X016117Y015365D02*
X015911Y015365D01*
X015739Y015365D02*
X015699Y015365D01*
X015699Y015442D02*
X015739Y015442D01*
X015739Y015519D02*
X015699Y015519D01*
X015699Y015674D02*
X015739Y015674D01*
X015739Y015751D02*
X015699Y015751D01*
X015699Y015828D02*
X015739Y015828D01*
X015927Y015828D02*
X016094Y015828D01*
X016092Y015751D02*
X015937Y015751D01*
X015937Y015674D02*
X016092Y015674D01*
X015502Y015674D02*
X014676Y015674D01*
X014299Y015674D02*
X014260Y015674D01*
X014260Y015596D02*
X014299Y015596D01*
X014299Y015519D02*
X015502Y015519D01*
X015502Y015751D02*
X013207Y015751D01*
X013207Y015828D02*
X015511Y015828D01*
X015123Y016180D02*
X015193Y016249D01*
X015230Y016340D01*
X015230Y016439D01*
X015193Y016529D01*
X015123Y016599D01*
X015032Y016636D01*
X014934Y016636D01*
X014843Y016599D01*
X014774Y016529D01*
X014736Y016439D01*
X014736Y016340D01*
X014774Y016249D01*
X014843Y016180D01*
X014934Y016142D01*
X015032Y016142D01*
X015123Y016180D01*
X015157Y016214D02*
X016942Y016214D01*
X016988Y016291D02*
X015210Y016291D01*
X015230Y016369D02*
X015473Y016369D01*
X015410Y016446D02*
X015227Y016446D01*
X015195Y016523D02*
X015410Y016523D01*
X015414Y016600D02*
X015119Y016600D01*
X014847Y016600D02*
X012466Y016600D01*
X012466Y016523D02*
X014771Y016523D01*
X014739Y016446D02*
X012466Y016446D01*
X012466Y016369D02*
X014736Y016369D01*
X014756Y016291D02*
X013207Y016291D01*
X013207Y016214D02*
X014809Y016214D01*
X014783Y016832D02*
X014949Y016832D01*
X014895Y016909D02*
X014837Y016909D01*
X014456Y016832D02*
X012269Y016832D01*
X012346Y016755D02*
X015455Y016755D01*
X015455Y016678D02*
X012423Y016678D01*
X012191Y016909D02*
X014402Y016909D01*
X014402Y016987D02*
X012868Y016987D01*
X013080Y017064D02*
X014402Y017064D01*
X014402Y017141D02*
X013213Y017141D01*
X013152Y017090D02*
X013152Y017090D01*
X013305Y017218D02*
X014402Y017218D01*
X014402Y017296D02*
X013397Y017296D01*
X013464Y017352D02*
X013464Y017352D01*
X013476Y017373D02*
X014402Y017373D01*
X014451Y017450D02*
X013521Y017450D01*
X013565Y017527D02*
X014506Y017527D01*
X014506Y017605D02*
X013610Y017605D01*
X013654Y017682D02*
X014506Y017682D01*
X014402Y017759D02*
X013677Y017759D01*
X013690Y017836D02*
X014402Y017836D01*
X014402Y017914D02*
X013704Y017914D01*
X013718Y017991D02*
X014402Y017991D01*
X014402Y018068D02*
X013731Y018068D01*
X013731Y018145D02*
X014402Y018145D01*
X014402Y018222D02*
X013717Y018222D01*
X013703Y018300D02*
X014435Y018300D01*
X014805Y018300D02*
X014927Y018300D01*
X015092Y018300D02*
X015132Y018300D01*
X015297Y018300D02*
X015419Y018300D01*
X015455Y018377D02*
X013690Y018377D01*
X013676Y018454D02*
X015455Y018454D01*
X015476Y018531D02*
X013652Y018531D01*
X013667Y018506D02*
X013667Y018506D01*
X013608Y018609D02*
X015554Y018609D01*
X015913Y018686D02*
X013563Y018686D01*
X013519Y018763D02*
X017595Y018763D01*
X017595Y018836D02*
X017595Y018659D01*
X017793Y018659D01*
X017793Y018620D01*
X017595Y018620D01*
X017595Y018465D01*
X017440Y018465D01*
X017440Y018267D01*
X017401Y018267D01*
X017401Y018465D01*
X017224Y018465D01*
X017187Y018449D01*
X017159Y018422D01*
X017144Y018385D01*
X017144Y018267D01*
X017401Y018267D01*
X017401Y018227D01*
X017440Y018227D01*
X017440Y018030D01*
X017618Y018030D01*
X017654Y018045D01*
X017682Y018073D01*
X017697Y018109D01*
X017697Y018227D01*
X017440Y018227D01*
X017440Y018267D01*
X017697Y018267D01*
X017697Y018363D01*
X017793Y018363D01*
X017793Y018620D01*
X017833Y018620D01*
X017833Y018659D01*
X018030Y018659D01*
X018030Y018836D01*
X018015Y018873D01*
X017987Y018901D01*
X017951Y018916D01*
X017833Y018916D01*
X017833Y018659D01*
X017793Y018659D01*
X017793Y018916D01*
X017675Y018916D01*
X017638Y018901D01*
X017610Y018873D01*
X017595Y018836D01*
X017597Y018840D02*
X013474Y018840D01*
X013393Y018918D02*
X023747Y018918D01*
X023676Y018858D02*
X023676Y018858D01*
X023665Y018840D02*
X018621Y018840D01*
X018866Y018763D02*
X019233Y018763D01*
X019160Y018686D02*
X018943Y018686D01*
X019020Y018609D02*
X019147Y018609D01*
X018230Y018377D02*
X017985Y018377D01*
X017987Y018378D02*
X018015Y018406D01*
X018030Y018442D01*
X018030Y018620D01*
X017833Y018620D01*
X017833Y018363D01*
X017951Y018363D01*
X017987Y018378D01*
X018030Y018454D02*
X018186Y018454D01*
X018186Y018531D02*
X018030Y018531D01*
X018030Y018609D02*
X018186Y018609D01*
X018186Y018686D02*
X018030Y018686D01*
X018030Y018763D02*
X018186Y018763D01*
X018186Y018840D02*
X018029Y018840D01*
X017833Y018840D02*
X017793Y018840D01*
X017793Y018763D02*
X017833Y018763D01*
X017833Y018686D02*
X017793Y018686D01*
X017793Y018609D02*
X017833Y018609D01*
X017833Y018531D02*
X017793Y018531D01*
X017793Y018454D02*
X017833Y018454D01*
X017833Y018377D02*
X017793Y018377D01*
X017697Y018300D02*
X018144Y018300D01*
X018097Y018222D02*
X017697Y018222D01*
X017697Y018145D02*
X018097Y018145D01*
X018118Y018068D02*
X017677Y018068D01*
X017440Y018068D02*
X017401Y018068D01*
X017401Y018030D02*
X017401Y018227D01*
X017144Y018227D01*
X017144Y018109D01*
X017159Y018073D01*
X017187Y018045D01*
X017224Y018030D01*
X017401Y018030D01*
X017401Y018145D02*
X017440Y018145D01*
X017440Y018222D02*
X017401Y018222D01*
X017401Y018300D02*
X017440Y018300D01*
X017440Y018377D02*
X017401Y018377D01*
X017401Y018454D02*
X017440Y018454D01*
X017595Y018531D02*
X016690Y018531D01*
X016690Y018524D02*
X016690Y018652D01*
X016675Y018689D01*
X016647Y018717D01*
X016611Y018732D01*
X016502Y018732D01*
X016502Y018524D01*
X016690Y018524D01*
X016690Y018505D02*
X016502Y018505D01*
X016502Y018297D01*
X016611Y018297D01*
X016647Y018312D01*
X016675Y018340D01*
X016690Y018376D01*
X016690Y018505D01*
X016690Y018454D02*
X017199Y018454D01*
X017144Y018377D02*
X016690Y018377D01*
X016617Y018300D02*
X017144Y018300D01*
X017144Y018222D02*
X016314Y018222D01*
X016314Y018145D02*
X017144Y018145D01*
X017164Y018068D02*
X016314Y018068D01*
X016282Y018300D02*
X016367Y018300D01*
X016483Y018300D02*
X016502Y018300D01*
X016502Y018377D02*
X016483Y018377D01*
X016483Y018454D02*
X016502Y018454D01*
X016502Y018531D02*
X016483Y018531D01*
X016483Y018609D02*
X016502Y018609D01*
X016502Y018686D02*
X016483Y018686D01*
X016309Y018686D02*
X016284Y018686D01*
X016676Y018686D02*
X017595Y018686D01*
X017595Y018609D02*
X016690Y018609D01*
X016780Y017991D02*
X018195Y017991D01*
X018341Y017914D02*
X016858Y017914D01*
X017013Y017836D02*
X017164Y017836D01*
X016578Y017682D02*
X016210Y017682D01*
X016210Y017605D02*
X016578Y017605D01*
X016622Y017527D02*
X016210Y017527D01*
X016265Y017450D02*
X016584Y017450D01*
X016578Y017373D02*
X016314Y017373D01*
X016314Y017296D02*
X016578Y017296D01*
X016578Y017218D02*
X016314Y017218D01*
X016314Y017141D02*
X016615Y017141D01*
X016786Y017141D02*
X016805Y017141D01*
X016805Y017218D02*
X016786Y017218D01*
X016786Y017296D02*
X016805Y017296D01*
X017013Y017296D02*
X017124Y017296D01*
X017124Y017373D02*
X017013Y017373D01*
X017007Y017450D02*
X017155Y017450D01*
X017124Y017218D02*
X017013Y017218D01*
X016976Y017141D02*
X017124Y017141D01*
X017124Y017064D02*
X016314Y017064D01*
X016314Y016987D02*
X017124Y016987D01*
X017124Y016909D02*
X016314Y016909D01*
X016260Y016832D02*
X018064Y016832D01*
X018064Y016755D02*
X017712Y016755D01*
X017717Y016678D02*
X018064Y016678D01*
X018064Y016710D02*
X018064Y016633D01*
X018079Y016596D01*
X018107Y016568D01*
X018143Y016553D01*
X018321Y016553D01*
X018321Y016710D01*
X018321Y016710D01*
X018321Y016710D01*
X018064Y016710D01*
X018077Y016600D02*
X017717Y016600D01*
X017717Y016909D02*
X018064Y016909D01*
X018064Y016987D02*
X017717Y016987D01*
X017717Y017064D02*
X018064Y017064D01*
X018064Y017141D02*
X017717Y017141D01*
X017717Y017218D02*
X018064Y017218D01*
X018064Y017296D02*
X017717Y017296D01*
X017717Y017373D02*
X018064Y017373D01*
X018064Y017450D02*
X017686Y017450D01*
X017697Y017527D02*
X018064Y017527D01*
X018578Y017605D02*
X019639Y017605D01*
X019639Y017682D02*
X018578Y017682D01*
X019305Y017732D02*
X019305Y017733D01*
X019305Y017732D01*
X019502Y017732D02*
X019502Y017733D01*
X019502Y017732D01*
X020570Y017605D02*
X020778Y017605D01*
X020792Y017619D02*
X020765Y017591D01*
X020749Y017554D01*
X020749Y017357D01*
X021006Y017357D01*
X021006Y017278D01*
X021085Y017278D01*
X021085Y017002D01*
X021262Y017002D01*
X021299Y017017D01*
X021327Y017045D01*
X021342Y017081D01*
X021342Y017278D01*
X021085Y017278D01*
X021085Y017357D01*
X021342Y017357D01*
X021342Y017554D01*
X021327Y017591D01*
X021299Y017619D01*
X021262Y017634D01*
X021085Y017634D01*
X021085Y017357D01*
X021006Y017357D01*
X021006Y017634D01*
X020829Y017634D01*
X020792Y017619D01*
X020749Y017527D02*
X020570Y017527D01*
X020570Y017450D02*
X020749Y017450D01*
X020749Y017373D02*
X020570Y017373D01*
X020570Y017296D02*
X021006Y017296D01*
X021006Y017278D02*
X020749Y017278D01*
X020749Y017081D01*
X020765Y017045D01*
X020792Y017017D01*
X020829Y017002D01*
X021006Y017002D01*
X021006Y017278D01*
X021006Y017218D02*
X021085Y017218D01*
X021085Y017141D02*
X021006Y017141D01*
X021006Y017064D02*
X021085Y017064D01*
X021085Y017296D02*
X021437Y017296D01*
X021437Y017373D02*
X021342Y017373D01*
X021342Y017450D02*
X021437Y017450D01*
X021437Y017527D02*
X021342Y017527D01*
X021313Y017605D02*
X021466Y017605D01*
X021085Y017605D02*
X021006Y017605D01*
X021006Y017527D02*
X021085Y017527D01*
X021085Y017450D02*
X021006Y017450D01*
X021006Y017373D02*
X021085Y017373D01*
X021342Y017218D02*
X021437Y017218D01*
X021437Y017141D02*
X021342Y017141D01*
X021335Y017064D02*
X021437Y017064D01*
X021440Y016909D02*
X021339Y016909D01*
X021342Y016832D02*
X021437Y016832D01*
X021437Y016446D02*
X021342Y016446D01*
X021320Y016369D02*
X021459Y016369D01*
X021237Y016291D02*
X022303Y016291D01*
X022303Y016214D02*
X021244Y016214D01*
X021451Y015905D02*
X022402Y015905D01*
X022310Y015519D02*
X021834Y015519D01*
X021802Y015442D02*
X022303Y015442D01*
X022303Y015365D02*
X021731Y015365D01*
X021498Y015287D02*
X022303Y015287D01*
X022303Y015210D02*
X021484Y015210D01*
X021280Y014978D02*
X021124Y014978D01*
X021124Y014901D02*
X021280Y014901D01*
X021280Y014824D02*
X021124Y014824D01*
X021124Y014747D02*
X021280Y014747D01*
X021280Y014669D02*
X021124Y014669D01*
X021124Y014592D02*
X021280Y014592D01*
X021280Y014515D02*
X021124Y014515D01*
X021124Y014438D02*
X021280Y014438D01*
X021280Y014360D02*
X021124Y014360D01*
X020640Y013820D02*
X019552Y013820D01*
X019557Y013743D02*
X020005Y013743D01*
X020005Y013665D02*
X019557Y013665D01*
X019494Y013588D02*
X020005Y013588D01*
X020005Y013511D02*
X019307Y013511D01*
X019245Y013434D02*
X020005Y013434D01*
X019577Y013897D02*
X019475Y013897D01*
X019499Y013974D02*
X019328Y013974D01*
X019453Y014901D02*
X019454Y014901D01*
X019639Y014901D02*
X019659Y014901D01*
X019659Y014978D02*
X019639Y014978D01*
X019639Y015056D02*
X019659Y015056D01*
X019659Y015133D02*
X019639Y015133D01*
X019639Y015210D02*
X019659Y015210D01*
X019835Y015210D02*
X020920Y015210D01*
X020906Y015287D02*
X019494Y015287D01*
X019847Y015133D02*
X022297Y015133D01*
X022220Y015056D02*
X019847Y015056D01*
X018654Y016137D02*
X018477Y016137D01*
X018133Y016137D02*
X018083Y016137D01*
X017921Y016137D02*
X017901Y016137D01*
X017901Y016060D02*
X017921Y016060D01*
X017921Y015983D02*
X017901Y015983D01*
X017901Y015905D02*
X017921Y015905D01*
X017921Y015828D02*
X017901Y015828D01*
X017901Y015751D02*
X017921Y015751D01*
X018067Y015751D02*
X018149Y015751D01*
X016947Y015828D02*
X016526Y015828D01*
X016552Y015751D02*
X016891Y015751D01*
X016891Y015674D02*
X016629Y015674D01*
X016706Y015596D02*
X016891Y015596D01*
X016891Y015519D02*
X016783Y015519D01*
X016861Y015442D02*
X016939Y015442D01*
X016938Y015365D02*
X016941Y015365D01*
X016515Y015365D02*
X016502Y015365D01*
X016013Y015133D02*
X016010Y015133D01*
X015620Y015056D02*
X014684Y015056D01*
X014260Y015519D02*
X012466Y015519D01*
X012466Y015442D02*
X013875Y015442D01*
X013881Y015365D02*
X012466Y015365D01*
X012466Y015287D02*
X013376Y015287D01*
X013321Y015210D02*
X012466Y015210D01*
X012466Y015133D02*
X013299Y015133D01*
X013300Y015056D02*
X012466Y015056D01*
X012466Y014978D02*
X013332Y014978D01*
X013403Y014901D02*
X012466Y014901D01*
X012466Y014824D02*
X013875Y014824D01*
X013875Y014747D02*
X012466Y014747D01*
X012466Y014669D02*
X013875Y014669D01*
X013875Y014592D02*
X012466Y014592D01*
X012466Y014515D02*
X013894Y014515D01*
X013875Y014438D02*
X012466Y014438D01*
X012466Y014360D02*
X013875Y014360D01*
X013875Y014283D02*
X012466Y014283D01*
X012466Y014206D02*
X013875Y014206D01*
X013902Y014129D02*
X012466Y014129D01*
X012466Y014051D02*
X013875Y014051D01*
X013875Y013974D02*
X012466Y013974D01*
X012466Y013897D02*
X013875Y013897D01*
X013875Y013820D02*
X012466Y013820D01*
X012466Y013743D02*
X013909Y013743D01*
X013875Y013665D02*
X012466Y013665D01*
X012466Y013588D02*
X013875Y013588D01*
X013875Y013511D02*
X012466Y013511D01*
X012466Y013434D02*
X013875Y013434D01*
X013908Y013356D02*
X012466Y013356D01*
X012466Y013279D02*
X013875Y013279D01*
X013875Y013202D02*
X012466Y013202D01*
X012466Y013125D02*
X013875Y013125D01*
X013875Y013047D02*
X012466Y013047D01*
X012466Y012970D02*
X013901Y012970D01*
X013875Y012893D02*
X012466Y012893D01*
X012466Y012816D02*
X013875Y012816D01*
X013875Y012738D02*
X012466Y012738D01*
X012466Y012661D02*
X013875Y012661D01*
X013893Y012584D02*
X013151Y012584D01*
X013207Y012507D02*
X014561Y012507D01*
X014638Y012429D02*
X013207Y012429D01*
X013207Y012352D02*
X014715Y012352D01*
X014793Y012275D02*
X013207Y012275D01*
X013207Y012198D02*
X014705Y012198D01*
X014628Y012120D02*
X013207Y012120D01*
X013207Y012043D02*
X014551Y012043D01*
X014337Y011966D02*
X014254Y011966D01*
X014109Y011966D02*
X014089Y011966D01*
X014089Y011982D02*
X014089Y011774D01*
X013901Y011774D01*
X013901Y011902D01*
X013916Y011939D01*
X013944Y011967D01*
X013981Y011982D01*
X014089Y011982D01*
X014089Y011889D02*
X014109Y011889D01*
X014109Y011812D02*
X014089Y011812D01*
X014089Y011734D02*
X014109Y011734D01*
X014109Y011657D02*
X014089Y011657D01*
X014089Y011580D02*
X014109Y011580D01*
X014271Y011580D02*
X014276Y011580D01*
X014266Y011503D02*
X012466Y011503D01*
X012466Y011580D02*
X013926Y011580D01*
X013901Y011657D02*
X012466Y011657D01*
X012466Y011734D02*
X013901Y011734D01*
X013901Y011812D02*
X012466Y011812D01*
X012466Y011889D02*
X013901Y011889D01*
X013943Y011966D02*
X013201Y011966D01*
X013262Y011348D02*
X014266Y011348D01*
X014266Y011425D02*
X012466Y011425D01*
X013284Y011271D02*
X014285Y011271D01*
X014283Y011194D02*
X013284Y011194D01*
X013284Y011116D02*
X014266Y011116D01*
X014266Y011039D02*
X013284Y011039D01*
X014229Y010962D02*
X014266Y010962D01*
X014278Y010885D02*
X014229Y010885D01*
X014229Y010807D02*
X014285Y010807D01*
X014285Y010730D02*
X014229Y010730D01*
X014229Y010653D02*
X014334Y010653D01*
X014334Y010576D02*
X014229Y010576D01*
X014229Y010498D02*
X014334Y010498D01*
X014304Y010421D02*
X014229Y010421D01*
X013487Y010250D02*
X013284Y010250D01*
X013284Y009721D01*
X013228Y009665D01*
X013284Y009608D01*
X013284Y009091D01*
X013487Y009091D01*
X013487Y009154D01*
X013853Y009154D01*
X013853Y009164D01*
X013487Y009164D01*
X013487Y009267D01*
X013492Y009280D01*
X013487Y009285D01*
X013487Y010250D01*
X013487Y010189D02*
X013284Y010189D01*
X013284Y010112D02*
X013487Y010112D01*
X013487Y010035D02*
X013284Y010035D01*
X013284Y009958D02*
X013487Y009958D01*
X013487Y009881D02*
X013284Y009881D01*
X013284Y009803D02*
X013487Y009803D01*
X013487Y009726D02*
X013284Y009726D01*
X013244Y009649D02*
X013487Y009649D01*
X013487Y009572D02*
X013284Y009572D01*
X013284Y009494D02*
X013487Y009494D01*
X013487Y009417D02*
X013284Y009417D01*
X013284Y009340D02*
X013487Y009340D01*
X013487Y009263D02*
X013284Y009263D01*
X013284Y009185D02*
X013487Y009185D01*
X013487Y009108D02*
X013284Y009108D01*
X014229Y009108D02*
X016845Y009108D01*
X016845Y009031D02*
X016747Y009031D01*
X016722Y009057D02*
X016557Y009057D01*
X016441Y008940D01*
X016441Y008776D01*
X016557Y008660D01*
X016722Y008660D01*
X016838Y008776D01*
X016838Y008940D01*
X016722Y009057D01*
X016824Y008954D02*
X016845Y008954D01*
X016838Y008876D02*
X016845Y008876D01*
X016838Y008799D02*
X016845Y008799D01*
X016845Y008722D02*
X016784Y008722D01*
X016845Y008645D02*
X015695Y008645D01*
X015695Y008722D02*
X016495Y008722D01*
X016441Y008799D02*
X015695Y008799D01*
X015695Y008836D02*
X015461Y009070D01*
X015130Y009070D01*
X014896Y008836D01*
X014896Y008505D01*
X015130Y008271D01*
X015461Y008271D01*
X015695Y008505D01*
X015695Y008836D01*
X015655Y008876D02*
X016441Y008876D01*
X016454Y008954D02*
X015577Y008954D01*
X015500Y009031D02*
X016532Y009031D01*
X016517Y009263D02*
X014229Y009263D01*
X014229Y009340D02*
X016441Y009340D01*
X016441Y009417D02*
X014229Y009417D01*
X014229Y009494D02*
X016441Y009494D01*
X016451Y009572D02*
X015624Y009572D01*
X015638Y009649D02*
X016442Y009649D01*
X016442Y009726D02*
X015430Y009726D01*
X015411Y009726D02*
X014687Y009726D01*
X014610Y009649D02*
X015203Y009649D01*
X015203Y009606D02*
X015218Y009569D01*
X015246Y009541D01*
X015283Y009526D01*
X015411Y009526D01*
X015411Y009714D01*
X015203Y009714D01*
X015203Y009606D01*
X015217Y009572D02*
X014533Y009572D01*
X014765Y009803D02*
X015203Y009803D01*
X015086Y009881D02*
X014842Y009881D01*
X014919Y009958D02*
X015009Y009958D01*
X015411Y009649D02*
X015430Y009649D01*
X015430Y009572D02*
X015411Y009572D01*
X015638Y009803D02*
X016442Y009803D01*
X016442Y009881D02*
X015621Y009881D01*
X015618Y009958D02*
X016442Y009958D01*
X016442Y010035D02*
X015638Y010035D01*
X015638Y010112D02*
X016442Y010112D01*
X016447Y010189D02*
X015638Y010189D01*
X015628Y010267D02*
X017829Y010267D01*
X017829Y010344D02*
X015570Y010344D01*
X015570Y010421D02*
X017829Y010421D01*
X017829Y010498D02*
X015570Y010498D01*
X015440Y010807D02*
X015419Y010807D01*
X015419Y010885D02*
X015478Y010885D01*
X015478Y010962D02*
X015415Y010962D01*
X015387Y011039D02*
X015478Y011039D01*
X015478Y011116D02*
X015419Y011116D01*
X016149Y011271D02*
X016227Y011271D01*
X016150Y011348D02*
X016149Y011348D01*
X016546Y011194D02*
X018132Y011194D01*
X018054Y011116D02*
X016624Y011116D01*
X016770Y011039D02*
X018035Y011039D01*
X017969Y010962D02*
X016838Y010962D01*
X016838Y010885D02*
X017892Y010885D01*
X017829Y010807D02*
X016838Y010807D01*
X016761Y010730D02*
X017829Y010730D01*
X017829Y010653D02*
X016149Y010653D01*
X016149Y010730D02*
X016518Y010730D01*
X016441Y010807D02*
X016147Y010807D01*
X016149Y010885D02*
X016433Y010885D01*
X016130Y010576D02*
X017829Y010576D01*
X018583Y011039D02*
X020005Y011039D01*
X020005Y010962D02*
X018660Y010962D01*
X018831Y010885D02*
X020005Y010885D01*
X020005Y010807D02*
X018908Y010807D01*
X019079Y010730D02*
X020005Y010730D01*
X020005Y010653D02*
X019156Y010653D01*
X019182Y010576D02*
X020023Y010576D01*
X020005Y011116D02*
X018412Y011116D01*
X018335Y011194D02*
X020005Y011194D01*
X020005Y011657D02*
X019868Y011657D01*
X018223Y012816D02*
X016932Y012816D01*
X016660Y012661D02*
X016149Y012661D01*
X016149Y012584D02*
X016660Y012584D01*
X016679Y012507D02*
X016149Y012507D01*
X016149Y012738D02*
X016603Y012738D01*
X016535Y012816D02*
X016149Y012816D01*
X016149Y012893D02*
X016535Y012893D01*
X016535Y012970D02*
X016149Y012970D01*
X016149Y013047D02*
X016584Y013047D01*
X016568Y013125D02*
X016149Y013125D01*
X016149Y013202D02*
X016491Y013202D01*
X016413Y013279D02*
X016149Y013279D01*
X018064Y012738D02*
X018145Y012738D01*
X016442Y014515D02*
X016327Y014515D01*
X016404Y014592D02*
X016442Y014592D01*
X016432Y014669D02*
X016442Y014669D01*
X016432Y014747D02*
X016451Y014747D01*
X016409Y014824D02*
X016409Y014834D01*
X016421Y014834D01*
X016891Y015905D02*
X013207Y015905D01*
X013207Y015983D02*
X016891Y015983D01*
X016891Y016060D02*
X013207Y016060D01*
X013207Y016137D02*
X016891Y016137D01*
X016911Y016369D02*
X016212Y016369D01*
X016275Y016446D02*
X016910Y016446D01*
X016910Y016523D02*
X016275Y016523D01*
X016271Y016600D02*
X016976Y016600D01*
X017124Y016678D02*
X016246Y016678D01*
X016246Y016755D02*
X017129Y016755D01*
X015947Y016755D02*
X015754Y016755D01*
X015754Y016678D02*
X015947Y016678D01*
X015882Y016600D02*
X015803Y016600D01*
X015807Y016523D02*
X015878Y016523D01*
X015878Y016446D02*
X015807Y016446D01*
X015743Y016369D02*
X015942Y016369D01*
X015933Y016832D02*
X015768Y016832D01*
X015822Y016909D02*
X015879Y016909D01*
X015441Y016832D02*
X015276Y016832D01*
X015330Y016909D02*
X015387Y016909D01*
X013882Y015674D02*
X012466Y015674D01*
X012466Y015596D02*
X013875Y015596D01*
X013887Y014901D02*
X013688Y014901D01*
X012263Y016987D02*
X012114Y016987D01*
X012051Y017064D02*
X012037Y017064D01*
X013301Y018995D02*
X023839Y018995D01*
X024271Y016987D02*
X023083Y016987D01*
X023005Y016909D02*
X024962Y016909D01*
X024885Y016832D02*
X022928Y016832D01*
X022741Y016523D02*
X022663Y016523D01*
X022663Y016446D02*
X022741Y016446D01*
X022741Y016369D02*
X022663Y016369D01*
X022663Y016291D02*
X022741Y016291D01*
X022741Y016214D02*
X022663Y016214D01*
X022029Y016678D02*
X024731Y016678D01*
X024769Y016716D02*
X024769Y016716D01*
X024808Y016755D02*
X022029Y016755D01*
X020757Y017064D02*
X020570Y017064D01*
X020570Y017141D02*
X020749Y017141D01*
X020749Y017218D02*
X020570Y017218D01*
X018321Y016678D02*
X018321Y016678D01*
X018321Y016600D02*
X018321Y016600D01*
X021872Y014978D02*
X022143Y014978D01*
X023938Y015751D02*
X024016Y015751D01*
X024016Y015828D02*
X023938Y015828D01*
X023938Y015905D02*
X024016Y015905D01*
X024016Y015983D02*
X023938Y015983D01*
X023938Y016060D02*
X024016Y016060D01*
X024876Y016987D02*
X025040Y016987D01*
X025088Y017064D02*
X025117Y017064D01*
X018566Y009494D02*
X018487Y009494D01*
X018410Y009417D02*
X018566Y009417D01*
X018554Y009340D02*
X018475Y009340D01*
X018475Y009263D02*
X018554Y009263D01*
X018554Y009185D02*
X018475Y009185D01*
X018258Y009185D02*
X018240Y009185D01*
X018240Y009263D02*
X018258Y009263D01*
X018475Y008954D02*
X018554Y008954D01*
X018554Y008876D02*
X018475Y008876D01*
X018258Y008722D02*
X018240Y008722D01*
X018240Y008645D02*
X018258Y008645D01*
X018258Y008567D02*
X018240Y008567D01*
X018240Y008490D02*
X018258Y008490D01*
X017997Y008258D02*
X017888Y008258D01*
X017965Y008181D02*
X018074Y008181D01*
X018042Y008104D02*
X018151Y008104D01*
X018119Y008027D02*
X018228Y008027D01*
X018266Y007950D02*
X018305Y007950D01*
X018334Y007921D02*
X018334Y007921D01*
X018307Y007872D02*
X018383Y007872D01*
X018508Y007023D02*
X018910Y007023D01*
X018896Y006945D02*
X018586Y006945D01*
X018663Y006868D02*
X018896Y006868D01*
X018896Y006791D02*
X018695Y006791D01*
X018695Y006714D02*
X018896Y006714D01*
X019256Y006791D02*
X019335Y006791D01*
X019335Y006868D02*
X019256Y006868D01*
X019256Y006945D02*
X019335Y006945D01*
X019335Y007023D02*
X019256Y007023D01*
X018083Y007023D02*
X017945Y007023D01*
X017945Y006945D02*
X018006Y006945D01*
X017146Y007177D02*
X012973Y007177D01*
X012448Y007563D02*
X014896Y007563D01*
X014896Y007505D02*
X015130Y007271D01*
X015461Y007271D01*
X015695Y007505D01*
X015695Y007836D01*
X015461Y008070D01*
X015130Y008070D01*
X014896Y007836D01*
X014896Y007505D01*
X014915Y007486D02*
X012371Y007486D01*
X012293Y007409D02*
X014993Y007409D01*
X015070Y007332D02*
X012216Y007332D01*
X012139Y007254D02*
X017146Y007254D01*
X017146Y007332D02*
X015521Y007332D01*
X015599Y007409D02*
X017146Y007409D01*
X017081Y007486D02*
X015676Y007486D01*
X015695Y007563D02*
X017004Y007563D01*
X016927Y007641D02*
X015695Y007641D01*
X015695Y007718D02*
X016850Y007718D01*
X016845Y007795D02*
X015695Y007795D01*
X015659Y007872D02*
X016845Y007872D01*
X016845Y007950D02*
X015582Y007950D01*
X015504Y008027D02*
X016845Y008027D01*
X016845Y008104D02*
X013284Y008104D01*
X013284Y008181D02*
X016845Y008181D01*
X016845Y008258D02*
X013284Y008258D01*
X013284Y008027D02*
X015087Y008027D01*
X015010Y007950D02*
X012466Y007950D01*
X012466Y007872D02*
X014932Y007872D01*
X014896Y007795D02*
X012466Y007795D01*
X012466Y007718D02*
X014896Y007718D01*
X014896Y007641D02*
X012466Y007641D01*
X012158Y007177D02*
X012062Y007177D01*
X013724Y006018D02*
X014908Y006018D01*
X014911Y006027D02*
X014896Y005990D01*
X014896Y005710D01*
X015256Y005710D01*
X015256Y005631D01*
X015335Y005631D01*
X015335Y005271D01*
X015615Y005271D01*
X015652Y005286D01*
X015680Y005314D01*
X015695Y005351D01*
X015695Y005631D01*
X015335Y005631D01*
X015335Y005710D01*
X015256Y005710D01*
X015256Y006070D01*
X014976Y006070D01*
X014939Y006055D01*
X014911Y006027D01*
X014896Y005941D02*
X013710Y005941D01*
X013697Y005864D02*
X014896Y005864D01*
X014896Y005787D02*
X013683Y005787D01*
X013670Y005710D02*
X015256Y005710D01*
X015256Y005787D02*
X015335Y005787D01*
X015335Y005710D02*
X015335Y006070D01*
X015615Y006070D01*
X015652Y006055D01*
X015680Y006027D01*
X015695Y005990D01*
X015695Y005710D01*
X015335Y005710D01*
X015896Y005710D01*
X015896Y005787D02*
X015695Y005787D01*
X015695Y005864D02*
X015924Y005864D01*
X016001Y005941D02*
X015695Y005941D01*
X015683Y006018D02*
X016079Y006018D01*
X016074Y006327D02*
X015517Y006327D01*
X015594Y006405D02*
X015997Y006405D01*
X015920Y006482D02*
X015672Y006482D01*
X015695Y006559D02*
X015896Y006559D01*
X015896Y006636D02*
X015695Y006636D01*
X015695Y006714D02*
X015896Y006714D01*
X015896Y006791D02*
X015695Y006791D01*
X015663Y006868D02*
X015928Y006868D01*
X016006Y006945D02*
X015586Y006945D01*
X015508Y007023D02*
X016083Y007023D01*
X015335Y006018D02*
X015256Y006018D01*
X015256Y005941D02*
X015335Y005941D01*
X015335Y005864D02*
X015256Y005864D01*
X015256Y005632D02*
X013630Y005632D01*
X013586Y005555D02*
X014896Y005555D01*
X014896Y005631D02*
X014896Y005351D01*
X014911Y005314D01*
X014939Y005286D01*
X014976Y005271D01*
X015256Y005271D01*
X015256Y005631D01*
X014896Y005631D01*
X014896Y005478D02*
X013541Y005478D01*
X013496Y005401D02*
X014896Y005401D01*
X014908Y005323D02*
X013439Y005323D01*
X013464Y005344D02*
X013464Y005344D01*
X013347Y005246D02*
X023792Y005246D01*
X023884Y005169D02*
X013255Y005169D01*
X015256Y005323D02*
X015335Y005323D01*
X015335Y005401D02*
X015256Y005401D01*
X015256Y005478D02*
X015335Y005478D01*
X015335Y005555D02*
X015256Y005555D01*
X015335Y005632D02*
X015896Y005632D01*
X015896Y005555D02*
X015695Y005555D01*
X015695Y005478D02*
X015924Y005478D01*
X016001Y005401D02*
X015695Y005401D01*
X015684Y005323D02*
X016078Y005323D01*
X015526Y008336D02*
X016845Y008336D01*
X016845Y008413D02*
X015603Y008413D01*
X015680Y008490D02*
X016845Y008490D01*
X016845Y008567D02*
X015695Y008567D01*
X015066Y008336D02*
X014195Y008336D01*
X014229Y008413D02*
X014988Y008413D01*
X014911Y008490D02*
X014229Y008490D01*
X014229Y008567D02*
X014896Y008567D01*
X014896Y008645D02*
X014229Y008645D01*
X014229Y008722D02*
X014896Y008722D01*
X014896Y008799D02*
X014229Y008799D01*
X014229Y008876D02*
X014937Y008876D01*
X015014Y008954D02*
X014229Y008954D01*
X014229Y009031D02*
X015091Y009031D01*
X014229Y009185D02*
X016845Y009185D01*
X016845Y009263D02*
X016762Y009263D01*
X016838Y009340D02*
X016845Y009340D01*
X016838Y009417D02*
X016845Y009417D01*
X016838Y009494D02*
X016845Y009494D01*
X018771Y009263D02*
X018789Y009263D01*
X018789Y009185D02*
X018771Y009185D01*
X021780Y007409D02*
X021811Y007409D01*
X021811Y007332D02*
X021780Y007332D01*
X021780Y007254D02*
X021811Y007254D01*
X021811Y007177D02*
X021780Y007177D01*
X021211Y007023D02*
X020890Y007023D01*
X020813Y006945D02*
X021134Y006945D01*
X022356Y006221D02*
X022356Y006014D01*
X022297Y006014D01*
X022297Y005955D01*
X022356Y005955D01*
X022356Y005747D01*
X022603Y005747D01*
X022639Y005762D01*
X022667Y005790D01*
X022682Y005827D01*
X022682Y005955D01*
X022356Y005955D01*
X022356Y006014D01*
X022682Y006014D01*
X022682Y006142D01*
X022667Y006178D01*
X022639Y006206D01*
X022603Y006221D01*
X022356Y006221D01*
X022356Y006173D02*
X022297Y006173D01*
X022297Y006096D02*
X022356Y006096D01*
X022356Y006018D02*
X022297Y006018D01*
X022297Y005941D02*
X022356Y005941D01*
X022356Y005864D02*
X022297Y005864D01*
X022297Y005787D02*
X022356Y005787D01*
X022664Y005787D02*
X023456Y005787D01*
X023443Y005864D02*
X022682Y005864D01*
X022682Y005941D02*
X023429Y005941D01*
X023415Y006018D02*
X022682Y006018D01*
X022682Y006096D02*
X023402Y006096D01*
X023402Y006097D02*
X023402Y006097D01*
X023415Y006173D02*
X022669Y006173D01*
D40*
X022889Y005483D03*
X023233Y006702D03*
X024108Y007483D03*
X024671Y007483D03*
X021796Y007046D03*
X021296Y006827D03*
X021796Y008546D03*
X020483Y008921D03*
X020046Y008921D03*
X019639Y009046D03*
X018764Y009483D03*
X019858Y009639D03*
X020358Y009639D03*
X020358Y010077D03*
X019858Y010077D03*
X018983Y010546D03*
X018733Y010702D03*
X018483Y010858D03*
X018233Y011014D03*
X019108Y011421D03*
X018389Y011796D03*
X018327Y012639D03*
X018483Y013264D03*
X019108Y013577D03*
X019358Y013733D03*
X019827Y013764D03*
X019889Y014264D03*
X020233Y014483D03*
X020452Y014264D03*
X019921Y014702D03*
X020046Y014983D03*
X020514Y015514D03*
X020764Y015827D03*
X021046Y016202D03*
X021421Y016202D03*
X022202Y016671D03*
X023514Y016858D03*
X024296Y016733D03*
X023264Y015702D03*
X023233Y013889D03*
X023233Y013171D03*
X023233Y012858D03*
X023233Y012483D03*
X023233Y012171D03*
X022202Y012639D03*
X022202Y012952D03*
X022014Y013264D03*
X020796Y012764D03*
X020796Y012452D03*
X021358Y011827D03*
X021858Y011827D03*
X023233Y010952D03*
X023233Y010514D03*
X022046Y009889D03*
X021108Y010327D03*
X023233Y009639D03*
X019702Y012014D03*
X019827Y012921D03*
X017452Y013733D03*
X016455Y013639D03*
X016327Y013171D03*
X016733Y012889D03*
X016858Y012608D03*
X016858Y012296D03*
X016483Y012202D03*
X016577Y011671D03*
X016327Y011452D03*
X016639Y010889D03*
X016389Y010733D03*
X016389Y010452D03*
X017014Y010921D03*
X017014Y011421D03*
X015171Y010077D03*
X015514Y009358D03*
X014858Y009233D03*
X014608Y008608D03*
X013358Y009202D03*
X013358Y009671D03*
X013358Y010139D03*
X014483Y010796D03*
X013389Y011296D03*
X012858Y011671D03*
X014452Y012296D03*
X012858Y013327D03*
X012858Y014327D03*
X012858Y015389D03*
X014296Y016577D03*
X013358Y016639D03*
X012764Y016639D03*
X013921Y017608D03*
X015046Y018764D03*
X015671Y018764D03*
X016796Y018139D03*
X017889Y018171D03*
X018296Y018171D03*
X019358Y018608D03*
X019671Y018889D03*
X018858Y018889D03*
X019921Y018014D03*
X021046Y017796D03*
X021171Y018889D03*
X022483Y018889D03*
X023233Y018046D03*
X020171Y016483D03*
X019921Y016327D03*
X019046Y015952D03*
X019296Y015327D03*
X018733Y015264D03*
X018733Y014952D03*
X018452Y015608D03*
X018046Y015608D03*
X017796Y015421D03*
X017483Y015358D03*
X017139Y015358D03*
X017671Y014952D03*
X016233Y014702D03*
X016139Y014046D03*
X015764Y014046D03*
X015389Y015233D03*
X015389Y015514D03*
X015389Y015796D03*
X015389Y016077D03*
X015608Y016514D03*
X016077Y016514D03*
X016421Y016514D03*
X017108Y016452D03*
X017858Y016577D03*
X018077Y016389D03*
X017233Y018889D03*
X016358Y009514D03*
X016639Y009421D03*
X016358Y009108D03*
X016639Y008858D03*
X016358Y008046D03*
X017358Y007827D03*
X018108Y007827D03*
X013858Y006514D03*
X012702Y007514D03*
X013858Y005358D03*
D41*
X014108Y005421D02*
X014108Y006546D01*
X012608Y007483D02*
X012608Y008608D01*
X012608Y008671D02*
X012608Y011421D01*
X012858Y011483D02*
X013733Y011483D01*
X013733Y010608D01*
X014296Y010608D01*
X014483Y010796D02*
X014483Y010389D01*
X014276Y010182D01*
X013858Y010182D01*
X013858Y009927D02*
X014364Y009927D01*
X014733Y010296D01*
X014733Y010389D01*
X014858Y010514D01*
X014858Y010818D01*
X015202Y010818D02*
X015202Y010514D01*
X014952Y010264D01*
X014952Y010255D01*
X014952Y010202D01*
X014421Y009671D01*
X013858Y009671D01*
X013733Y010608D02*
X012858Y010608D01*
X012858Y008671D01*
X013733Y008671D01*
X014421Y008671D01*
X014421Y007577D01*
X013733Y007577D01*
X013733Y008671D01*
X012858Y008671D02*
X012858Y007546D01*
X012889Y007577D01*
X013733Y007577D01*
X016600Y009459D02*
X016639Y009421D01*
X016600Y009459D02*
X016600Y009907D01*
X016994Y009907D02*
X016994Y007785D01*
X017296Y007483D01*
X017296Y006671D01*
X017796Y006171D02*
X017796Y007827D01*
X017388Y008235D01*
X017388Y009907D01*
X017585Y009907D02*
X017585Y008350D01*
X018108Y007827D01*
X018483Y007983D02*
X019452Y007983D01*
X019738Y007697D01*
X020108Y007697D01*
X020758Y007697D02*
X020758Y007382D01*
X020758Y007102D01*
X020671Y007014D01*
X020514Y007014D01*
X020358Y006858D01*
X020358Y006171D01*
X019796Y006171D01*
X019733Y006171D01*
X018796Y006171D01*
X018296Y005671D01*
X017796Y006171D02*
X017296Y005671D01*
X020358Y005452D02*
X020358Y005421D01*
X020714Y005733D02*
X020714Y005814D01*
X020702Y005827D01*
X020358Y006171D01*
X021296Y006586D02*
X021296Y006827D01*
X021296Y006586D02*
X021305Y006577D01*
X021327Y006555D01*
X021327Y005733D01*
X021314Y005733D01*
X022167Y006732D02*
X022166Y006733D01*
X022167Y006732D02*
X022327Y006732D01*
X023108Y006358D02*
X023108Y005233D01*
X022166Y007473D02*
X022166Y007542D01*
X022170Y007546D01*
X022661Y007880D02*
X022671Y007889D01*
X022671Y007952D01*
X022166Y008493D02*
X022166Y008969D01*
X022171Y008974D01*
X021430Y008952D02*
X021430Y008930D01*
X021421Y008921D01*
X021426Y008493D02*
X021426Y008426D01*
X021327Y008327D01*
X020758Y008327D01*
X020758Y008012D01*
X020758Y007697D01*
X020108Y008012D02*
X019704Y008012D01*
X019514Y008202D01*
X018796Y008202D01*
X018514Y008483D01*
X018514Y008532D01*
X017983Y008532D02*
X017983Y008483D01*
X018483Y007983D01*
X019046Y008532D02*
X019466Y008532D01*
X019671Y008327D01*
X020108Y008327D01*
X019639Y009046D02*
X019630Y009055D01*
X019630Y009296D01*
X019553Y009372D01*
X019553Y009907D01*
X019160Y009907D02*
X019160Y009535D01*
X019046Y009421D01*
X019046Y009122D01*
X018764Y009483D02*
X018764Y009905D01*
X018766Y009907D01*
X018963Y009907D02*
X018963Y010525D01*
X018983Y010546D01*
X018733Y010702D02*
X018569Y010538D01*
X018569Y009907D01*
X018372Y009907D02*
X018372Y009591D01*
X018233Y009452D01*
X018046Y009452D01*
X017983Y009389D01*
X017983Y009122D01*
X017193Y009086D02*
X017191Y009088D01*
X017191Y009907D01*
X017978Y009907D02*
X017978Y010760D01*
X018233Y011014D01*
X018483Y010858D02*
X018175Y010550D01*
X018175Y009907D01*
X017193Y009086D02*
X017193Y007992D01*
X017358Y007827D01*
X015421Y010108D02*
X015421Y010117D01*
X015411Y010108D01*
X015421Y010108D01*
X015421Y010117D02*
X015421Y010577D01*
X015538Y010694D01*
X015813Y010694D01*
X015813Y011088D02*
X016441Y011088D01*
X016639Y010889D01*
X016327Y011452D02*
X016327Y011608D01*
X016256Y011678D01*
X015813Y011678D01*
X015813Y011482D02*
X014950Y011482D01*
X014858Y011389D01*
X014858Y011211D01*
X015202Y011211D02*
X015275Y011285D01*
X015813Y011285D01*
X016372Y011875D02*
X016577Y011671D01*
X016372Y011875D02*
X015813Y011875D01*
X015813Y012072D02*
X014791Y012072D01*
X014514Y011796D01*
X014483Y011764D01*
X014492Y011764D01*
X014483Y011764D02*
X014483Y011452D01*
X014514Y011452D01*
X014521Y011446D01*
X014483Y011443D02*
X014483Y011452D01*
X014483Y011443D01*
X014483Y011430D01*
X014483Y011036D02*
X014483Y010796D01*
X015202Y010108D02*
X015171Y010077D01*
X015202Y010108D02*
X015411Y010108D01*
X012858Y010608D02*
X012858Y011483D01*
X012858Y011671D01*
X012764Y011671D01*
X012764Y016639D01*
X015604Y016518D02*
X015608Y016514D01*
X015604Y016518D02*
X015604Y017144D01*
X016096Y017144D02*
X016096Y016534D01*
X016077Y016514D01*
X017108Y016452D02*
X017421Y016452D01*
X017421Y016492D01*
X017483Y016430D01*
X017483Y016024D01*
X017483Y016014D01*
X017474Y016024D01*
X017108Y016024D01*
X017108Y015630D02*
X017108Y015389D01*
X017139Y015358D01*
X017191Y015306D01*
X017191Y014434D01*
X016997Y014437D02*
X016994Y014434D01*
X016994Y015097D01*
X016497Y015594D01*
X016483Y015608D01*
X016310Y015608D01*
X016233Y014983D02*
X016233Y014702D01*
X016211Y014983D02*
X016233Y014983D01*
X016483Y014983D01*
X016600Y014866D01*
X016600Y014434D01*
X017388Y014434D02*
X017388Y015263D01*
X017483Y015358D01*
X017483Y015630D01*
X018139Y015296D02*
X018139Y014733D01*
X018175Y014697D01*
X018175Y014434D01*
X017978Y014434D02*
X017978Y014050D01*
X018202Y013827D01*
X019264Y013827D01*
X019358Y013733D01*
X019108Y013577D02*
X018202Y013577D01*
X017782Y013997D01*
X017782Y014434D01*
X018372Y014434D02*
X018372Y014750D01*
X018327Y014796D01*
X018327Y015171D01*
X018889Y015733D01*
X019358Y015733D01*
X019600Y015975D01*
X019600Y016414D01*
X019403Y016414D02*
X019403Y016122D01*
X019233Y015952D01*
X019046Y015952D01*
X018813Y016085D02*
X018680Y015952D01*
X018305Y015952D01*
X018452Y015608D02*
X018139Y015296D01*
X018514Y015046D02*
X018733Y015264D01*
X018963Y015307D02*
X019014Y015358D01*
X019014Y015358D01*
X019202Y015546D01*
X019671Y015546D01*
X019733Y015546D01*
X020421Y016233D01*
X020421Y016327D01*
X020421Y017952D01*
X020046Y018327D01*
X019483Y018327D01*
X019403Y018247D01*
X019403Y017989D01*
X019207Y017989D02*
X019207Y018457D01*
X019358Y018608D01*
X019010Y018408D02*
X018778Y018639D01*
X018403Y018639D01*
X019010Y018408D02*
X019010Y017989D01*
X018616Y017989D02*
X018477Y017989D01*
X018296Y018171D01*
X018321Y017694D02*
X017428Y017694D01*
X017421Y017686D01*
X017421Y017657D01*
X017421Y017162D01*
X017403Y017639D02*
X016921Y017639D01*
X016796Y017764D01*
X016796Y017711D01*
X016796Y017764D02*
X016671Y017889D01*
X016084Y017889D01*
X016096Y017901D01*
X016096Y018010D01*
X016096Y018512D01*
X016099Y018514D01*
X016046Y018514D01*
X016096Y018464D01*
X016099Y018514D02*
X015671Y018514D01*
X015604Y018448D01*
X015604Y018010D01*
X017403Y017639D02*
X017421Y017657D01*
X017428Y017694D02*
X017421Y017702D01*
X018813Y016414D02*
X018813Y016085D01*
X019296Y015327D02*
X019296Y015296D01*
X019255Y015255D01*
X019255Y015046D01*
X019160Y014950D01*
X019160Y014434D01*
X018963Y014434D02*
X018963Y015307D01*
X018733Y014952D02*
X018766Y014919D01*
X018766Y014434D01*
X018569Y014434D02*
X018569Y014803D01*
X018514Y014858D01*
X018514Y015046D01*
X019553Y014434D02*
X019553Y014132D01*
X019639Y014046D01*
X020796Y014046D01*
X020845Y014095D01*
X023064Y014095D01*
X023139Y014171D01*
X023977Y014171D01*
X023242Y013898D02*
X023233Y013889D01*
X020921Y013889D01*
X020678Y013647D01*
X020341Y013647D01*
X020341Y013450D02*
X020763Y013450D01*
X021014Y013702D01*
X023014Y013702D01*
X023296Y013421D01*
X023671Y013421D01*
X023921Y013171D01*
X023977Y013171D01*
X023233Y013171D02*
X022889Y013514D01*
X021108Y013514D01*
X020847Y013253D01*
X020341Y013253D01*
X020341Y013056D02*
X020931Y013056D01*
X020983Y013108D01*
X021161Y013108D01*
X021161Y013139D01*
X021171Y013149D01*
X021211Y013149D01*
X021296Y013233D01*
X021671Y013233D01*
X021680Y013242D01*
X021693Y013242D01*
X021697Y013247D01*
X021702Y013247D01*
X021782Y013247D01*
X021764Y013264D01*
X022014Y013264D01*
X021702Y013247D02*
X021702Y013202D01*
X020796Y012452D02*
X020796Y012233D01*
X020818Y012233D01*
X021193Y012224D02*
X021202Y012233D01*
X021202Y012283D01*
X021202Y012233D02*
X021202Y012224D01*
X021211Y012233D01*
X021202Y012233D01*
X021211Y012233D02*
X021568Y012233D01*
X021202Y012224D02*
X021202Y012014D01*
X021063Y011875D01*
X020341Y011875D01*
X019875Y011875D01*
X019796Y011796D01*
X018389Y011796D01*
X018322Y012269D02*
X017983Y012608D01*
X016858Y012608D01*
X016733Y012889D02*
X016733Y013171D01*
X016454Y013450D01*
X015813Y013450D01*
X015813Y013253D02*
X015494Y013253D01*
X015421Y013327D01*
X015421Y014077D01*
X014768Y014730D01*
X014279Y014730D01*
X014279Y014336D02*
X014755Y014336D01*
X015233Y013858D01*
X015233Y013233D01*
X015410Y013056D01*
X015813Y013056D01*
X015813Y012860D02*
X015325Y012860D01*
X015046Y013139D01*
X015046Y013671D01*
X014774Y013943D01*
X014279Y013943D01*
X014279Y013549D02*
X014761Y013549D01*
X014858Y013452D01*
X014858Y013046D01*
X015241Y012663D01*
X015813Y012663D01*
X015813Y012466D02*
X015125Y012466D01*
X015094Y012466D01*
X014702Y012858D01*
X014702Y012952D01*
X014499Y013155D01*
X014279Y013155D01*
X014233Y012764D02*
X014421Y012764D01*
X014514Y012764D01*
X014517Y012761D01*
X014514Y012764D01*
X015010Y012269D01*
X015813Y012269D01*
X014279Y012761D02*
X014236Y012761D01*
X014233Y012764D01*
X015813Y013647D02*
X016447Y013647D01*
X016455Y013639D01*
X018327Y012639D02*
X018500Y012466D01*
X018528Y012466D01*
X020341Y012466D01*
X020341Y012269D02*
X018322Y012269D01*
X019702Y012014D02*
X019760Y012072D01*
X020341Y012072D01*
X020341Y011678D02*
X020975Y011678D01*
X021077Y011577D01*
X022042Y011577D01*
X022046Y011581D01*
X021171Y011202D02*
X021171Y010889D01*
X021421Y010639D01*
X022042Y010639D01*
X022046Y010636D01*
X021108Y010327D02*
X021046Y010389D01*
X020796Y010389D01*
X020796Y010399D01*
X020796Y010608D01*
X020709Y010694D01*
X020341Y010694D01*
X020341Y011482D02*
X020891Y011482D01*
X021171Y011202D01*
X021193Y012211D02*
X021193Y012224D01*
X023233Y012171D02*
X023977Y012171D01*
X023252Y012190D02*
X023233Y012171D01*
X023358Y011171D02*
X023233Y011046D01*
X023233Y010952D01*
X023358Y011171D02*
X023977Y011171D01*
X023233Y010514D02*
X023233Y010358D01*
X023421Y010171D01*
X023977Y010171D01*
X021421Y009452D02*
X021420Y009452D01*
X021426Y008493D02*
X021426Y008488D01*
X021421Y008483D01*
X023224Y013880D02*
X023233Y013889D01*
X020828Y014609D02*
X020827Y014608D01*
X020358Y014608D01*
X020233Y014483D01*
X020828Y014609D02*
X020828Y014675D01*
X021046Y016202D02*
X021046Y016608D01*
X021046Y016639D01*
X021046Y016648D01*
X021046Y016639D01*
X021046Y016608D02*
X021733Y016608D01*
X021733Y016639D01*
X021733Y016648D01*
X021733Y017171D02*
X021733Y017318D01*
X021733Y017233D01*
X021796Y017171D01*
X021836Y017171D01*
X021733Y017171D02*
X022702Y017171D01*
D42*
X015112Y017952D02*
X015112Y018010D01*
X015108Y017952D02*
X015112Y017952D01*
X015108Y017952D02*
X015108Y018639D01*
X014279Y015124D02*
X013561Y015124D01*
X013546Y015108D01*
X021421Y009889D02*
X021421Y009452D01*
X021421Y008921D01*
X021421Y008483D01*
X021577Y007952D02*
X021426Y007801D01*
X021426Y007473D01*
X021577Y007952D02*
X022014Y007952D01*
X022166Y007801D01*
X022166Y007473D01*
X022166Y006733D01*
X022170Y007546D02*
X022514Y007546D01*
X022661Y007693D01*
X022661Y007889D01*
X022661Y007880D01*
X022671Y007889D02*
X022671Y008514D01*
D43*
X022671Y008514D03*
X023171Y009171D03*
X021421Y009889D03*
X013546Y015108D03*
X014983Y016389D03*
X021577Y015577D03*
D44*
X021233Y015577D01*
X021202Y015546D01*
X021202Y015541D01*
X021576Y014675D02*
X022206Y014675D01*
X022702Y015171D01*
X022701Y015172D01*
D45*
X023171Y009171D02*
X023977Y009171D01*
D46*
X023977Y015171D02*
X022702Y015171D01*
M02*
