%
M48
M72
T01C0.0118
T02C0.0197
T03C0.0400
T04C0.1181
%
T01
X12702Y7514
X13858Y6514
X13858Y5358
X17358Y7827
X18108Y7827
X16639Y8858
X16358Y9108
X16358Y9514
X16639Y9421
X15514Y9358
X14858Y9233
X14608Y8608
X13358Y9202
X13358Y9671
X13358Y10139
X14483Y10796
X15171Y10077
X16389Y10452
X16389Y10733
X16639Y10889
X17014Y10921
X17014Y11421
X16577Y11671
X16327Y11452
X16483Y12202
X16858Y12296
X16858Y12608
X16733Y12889
X16327Y13171
X16455Y13639
X16139Y14046
X15764Y14046
X16233Y14702
X15389Y15233
X15389Y15514
X15389Y15796
X15389Y16077
X15608Y16514
X16077Y16514
X16421Y16514
X17108Y16452
X17858Y16577
X18077Y16389
X18046Y15608
X17796Y15421
X17483Y15358
X17139Y15358
X17671Y14952
X18452Y15608
X18733Y15264
X18733Y14952
X19296Y15327
X19046Y15952
X19921Y16327
X20171Y16483
X21046Y16202
X21421Y16202
X20764Y15827
X20514Y15514
X20046Y14983
X19921Y14702
X20233Y14483
X20452Y14264
X19889Y14264
X19827Y13764
X19358Y13733
X19108Y13577
X18483Y13264
X18327Y12639
X18389Y11796
X19108Y11421
X18733Y10702
X18483Y10858
X18233Y11014
X18983Y10546
X19858Y10077
X20358Y10077
X20358Y9639
X19858Y9639
X19639Y9046
X20046Y8921
X20483Y8921
X21796Y8546
X23233Y9639
X22046Y9889
X21108Y10327
X23233Y10514
X23233Y10952
X21858Y11827
X21358Y11827
X20796Y12452
X20796Y12764
X19827Y12921
X19702Y12014
X22202Y12639
X22202Y12952
X22014Y13264
X23233Y13171
X23233Y12858
X23233Y12483
X23233Y12171
X23233Y13889
X23264Y15702
X23514Y16858
X24296Y16733
X23233Y18046
X22483Y18889
X21171Y18889
X19921Y18014
X19358Y18608
X19671Y18889
X18858Y18889
X18296Y18171
X17889Y18171
X16796Y18139
X15671Y18764
X15046Y18764
X13921Y17608
X13358Y16639
X12764Y16639
X14296Y16577
X12858Y15389
X12858Y14327
X12858Y13327
X14452Y12296
X13389Y11296
X12858Y11671
X17452Y13733
X22202Y16671
X21046Y17796
X17233Y18889
X18764Y9483
X16358Y8046
X21296Y6827
X21796Y7046
X23233Y6702
X24108Y7483
X24671Y7483
X22889Y5483
T02
X22671Y8514
X23171Y9171
X21421Y9889
X13546Y15108
X14983Y16389
X21577Y15577
T03
X22702Y15171
X22702Y16171
X22702Y17171
X22702Y18171
X15296Y8671
X15296Y7671
X15296Y6671
X16296Y6671
X17296Y6671
X18296Y6671
X19296Y6671
X19296Y5671
X18296Y5671
X17296Y5671
X16296Y5671
X15296Y5671
T04
X12566Y6097
X24574Y6097
X24574Y18105
X12566Y18105
M30
