G75*
G70*
%OFA0B0*%
%FSLAX24Y24*%
%IPPOS*%
%LPD*%
%AMOC8*
5,1,8,0,0,1.08239X$1,22.5*
%
%ADD10C,0.0000*%
%ADD11C,0.0100*%
%ADD12C,0.0040*%
%ADD13C,0.0160*%
%ADD14C,0.0080*%
%ADD15C,0.0060*%
%ADD16C,0.0039*%
%ADD17C,0.0020*%
%ADD18C,0.0197*%
%ADD19C,0.0030*%
%ADD20R,0.1100X0.0250*%
%ADD21C,0.0295*%
%ADD22C,0.0050*%
%ADD23R,0.0300X0.0180*%
%ADD24R,0.0060X0.0236*%
%ADD25R,0.0236X0.0060*%
%ADD26R,0.0098X0.0098*%
D10*
X011483Y005999D02*
X011483Y006796D01*
X012327Y007639D01*
X012327Y016577D01*
X011483Y017421D01*
X011483Y018203D01*
X011485Y018265D01*
X011491Y018326D01*
X011500Y018387D01*
X011514Y018448D01*
X011531Y018507D01*
X011552Y018565D01*
X011577Y018622D01*
X011605Y018677D01*
X011636Y018730D01*
X011671Y018781D01*
X011709Y018830D01*
X011750Y018877D01*
X011793Y018920D01*
X011840Y018961D01*
X011889Y018999D01*
X011940Y019034D01*
X011993Y019065D01*
X012048Y019093D01*
X012105Y019118D01*
X012163Y019139D01*
X012222Y019156D01*
X012283Y019170D01*
X012344Y019179D01*
X012405Y019185D01*
X012467Y019187D01*
X012467Y019188D02*
X024672Y019188D01*
X024672Y019187D02*
X024734Y019185D01*
X024795Y019179D01*
X024856Y019170D01*
X024917Y019156D01*
X024976Y019139D01*
X025034Y019118D01*
X025091Y019093D01*
X025146Y019065D01*
X025199Y019034D01*
X025250Y018999D01*
X025299Y018961D01*
X025346Y018920D01*
X025389Y018877D01*
X025430Y018830D01*
X025468Y018781D01*
X025503Y018730D01*
X025534Y018677D01*
X025562Y018622D01*
X025587Y018565D01*
X025608Y018507D01*
X025625Y018448D01*
X025639Y018387D01*
X025648Y018326D01*
X025654Y018265D01*
X025656Y018203D01*
X025656Y017406D01*
X024827Y016577D01*
X024827Y007764D01*
X025656Y006935D01*
X025656Y005999D01*
X025654Y005937D01*
X025648Y005876D01*
X025639Y005815D01*
X025625Y005754D01*
X025608Y005695D01*
X025587Y005637D01*
X025562Y005580D01*
X025534Y005525D01*
X025503Y005472D01*
X025468Y005421D01*
X025430Y005372D01*
X025389Y005325D01*
X025346Y005282D01*
X025299Y005241D01*
X025250Y005203D01*
X025199Y005168D01*
X025146Y005137D01*
X025091Y005109D01*
X025034Y005084D01*
X024976Y005063D01*
X024917Y005046D01*
X024856Y005032D01*
X024795Y005023D01*
X024734Y005017D01*
X024672Y005015D01*
X024672Y005014D02*
X012467Y005014D01*
X012467Y005015D02*
X012405Y005017D01*
X012344Y005023D01*
X012283Y005032D01*
X012222Y005046D01*
X012163Y005063D01*
X012105Y005084D01*
X012048Y005109D01*
X011993Y005137D01*
X011940Y005168D01*
X011889Y005203D01*
X011840Y005241D01*
X011793Y005282D01*
X011750Y005325D01*
X011709Y005372D01*
X011671Y005421D01*
X011636Y005472D01*
X011605Y005525D01*
X011577Y005580D01*
X011552Y005637D01*
X011531Y005695D01*
X011514Y005754D01*
X011500Y005815D01*
X011491Y005876D01*
X011485Y005937D01*
X011483Y005999D01*
X011975Y006097D02*
X011977Y006145D01*
X011983Y006193D01*
X011993Y006240D01*
X012006Y006286D01*
X012024Y006331D01*
X012044Y006375D01*
X012069Y006417D01*
X012097Y006456D01*
X012127Y006493D01*
X012161Y006527D01*
X012198Y006559D01*
X012236Y006588D01*
X012277Y006613D01*
X012320Y006635D01*
X012365Y006653D01*
X012411Y006667D01*
X012458Y006678D01*
X012506Y006685D01*
X012554Y006688D01*
X012602Y006687D01*
X012650Y006682D01*
X012698Y006673D01*
X012744Y006661D01*
X012789Y006644D01*
X012833Y006624D01*
X012875Y006601D01*
X012915Y006574D01*
X012953Y006544D01*
X012988Y006511D01*
X013020Y006475D01*
X013050Y006437D01*
X013076Y006396D01*
X013098Y006353D01*
X013118Y006309D01*
X013133Y006264D01*
X013145Y006217D01*
X013153Y006169D01*
X013157Y006121D01*
X013157Y006073D01*
X013153Y006025D01*
X013145Y005977D01*
X013133Y005930D01*
X013118Y005885D01*
X013098Y005841D01*
X013076Y005798D01*
X013050Y005757D01*
X013020Y005719D01*
X012988Y005683D01*
X012953Y005650D01*
X012915Y005620D01*
X012875Y005593D01*
X012833Y005570D01*
X012789Y005550D01*
X012744Y005533D01*
X012698Y005521D01*
X012650Y005512D01*
X012602Y005507D01*
X012554Y005506D01*
X012506Y005509D01*
X012458Y005516D01*
X012411Y005527D01*
X012365Y005541D01*
X012320Y005559D01*
X012277Y005581D01*
X012236Y005606D01*
X012198Y005635D01*
X012161Y005667D01*
X012127Y005701D01*
X012097Y005738D01*
X012069Y005777D01*
X012044Y005819D01*
X012024Y005863D01*
X012006Y005908D01*
X011993Y005954D01*
X011983Y006001D01*
X011977Y006049D01*
X011975Y006097D01*
X023983Y006097D02*
X023985Y006145D01*
X023991Y006193D01*
X024001Y006240D01*
X024014Y006286D01*
X024032Y006331D01*
X024052Y006375D01*
X024077Y006417D01*
X024105Y006456D01*
X024135Y006493D01*
X024169Y006527D01*
X024206Y006559D01*
X024244Y006588D01*
X024285Y006613D01*
X024328Y006635D01*
X024373Y006653D01*
X024419Y006667D01*
X024466Y006678D01*
X024514Y006685D01*
X024562Y006688D01*
X024610Y006687D01*
X024658Y006682D01*
X024706Y006673D01*
X024752Y006661D01*
X024797Y006644D01*
X024841Y006624D01*
X024883Y006601D01*
X024923Y006574D01*
X024961Y006544D01*
X024996Y006511D01*
X025028Y006475D01*
X025058Y006437D01*
X025084Y006396D01*
X025106Y006353D01*
X025126Y006309D01*
X025141Y006264D01*
X025153Y006217D01*
X025161Y006169D01*
X025165Y006121D01*
X025165Y006073D01*
X025161Y006025D01*
X025153Y005977D01*
X025141Y005930D01*
X025126Y005885D01*
X025106Y005841D01*
X025084Y005798D01*
X025058Y005757D01*
X025028Y005719D01*
X024996Y005683D01*
X024961Y005650D01*
X024923Y005620D01*
X024883Y005593D01*
X024841Y005570D01*
X024797Y005550D01*
X024752Y005533D01*
X024706Y005521D01*
X024658Y005512D01*
X024610Y005507D01*
X024562Y005506D01*
X024514Y005509D01*
X024466Y005516D01*
X024419Y005527D01*
X024373Y005541D01*
X024328Y005559D01*
X024285Y005581D01*
X024244Y005606D01*
X024206Y005635D01*
X024169Y005667D01*
X024135Y005701D01*
X024105Y005738D01*
X024077Y005777D01*
X024052Y005819D01*
X024032Y005863D01*
X024014Y005908D01*
X024001Y005954D01*
X023991Y006001D01*
X023985Y006049D01*
X023983Y006097D01*
X023983Y018105D02*
X023985Y018153D01*
X023991Y018201D01*
X024001Y018248D01*
X024014Y018294D01*
X024032Y018339D01*
X024052Y018383D01*
X024077Y018425D01*
X024105Y018464D01*
X024135Y018501D01*
X024169Y018535D01*
X024206Y018567D01*
X024244Y018596D01*
X024285Y018621D01*
X024328Y018643D01*
X024373Y018661D01*
X024419Y018675D01*
X024466Y018686D01*
X024514Y018693D01*
X024562Y018696D01*
X024610Y018695D01*
X024658Y018690D01*
X024706Y018681D01*
X024752Y018669D01*
X024797Y018652D01*
X024841Y018632D01*
X024883Y018609D01*
X024923Y018582D01*
X024961Y018552D01*
X024996Y018519D01*
X025028Y018483D01*
X025058Y018445D01*
X025084Y018404D01*
X025106Y018361D01*
X025126Y018317D01*
X025141Y018272D01*
X025153Y018225D01*
X025161Y018177D01*
X025165Y018129D01*
X025165Y018081D01*
X025161Y018033D01*
X025153Y017985D01*
X025141Y017938D01*
X025126Y017893D01*
X025106Y017849D01*
X025084Y017806D01*
X025058Y017765D01*
X025028Y017727D01*
X024996Y017691D01*
X024961Y017658D01*
X024923Y017628D01*
X024883Y017601D01*
X024841Y017578D01*
X024797Y017558D01*
X024752Y017541D01*
X024706Y017529D01*
X024658Y017520D01*
X024610Y017515D01*
X024562Y017514D01*
X024514Y017517D01*
X024466Y017524D01*
X024419Y017535D01*
X024373Y017549D01*
X024328Y017567D01*
X024285Y017589D01*
X024244Y017614D01*
X024206Y017643D01*
X024169Y017675D01*
X024135Y017709D01*
X024105Y017746D01*
X024077Y017785D01*
X024052Y017827D01*
X024032Y017871D01*
X024014Y017916D01*
X024001Y017962D01*
X023991Y018009D01*
X023985Y018057D01*
X023983Y018105D01*
X011975Y018105D02*
X011977Y018153D01*
X011983Y018201D01*
X011993Y018248D01*
X012006Y018294D01*
X012024Y018339D01*
X012044Y018383D01*
X012069Y018425D01*
X012097Y018464D01*
X012127Y018501D01*
X012161Y018535D01*
X012198Y018567D01*
X012236Y018596D01*
X012277Y018621D01*
X012320Y018643D01*
X012365Y018661D01*
X012411Y018675D01*
X012458Y018686D01*
X012506Y018693D01*
X012554Y018696D01*
X012602Y018695D01*
X012650Y018690D01*
X012698Y018681D01*
X012744Y018669D01*
X012789Y018652D01*
X012833Y018632D01*
X012875Y018609D01*
X012915Y018582D01*
X012953Y018552D01*
X012988Y018519D01*
X013020Y018483D01*
X013050Y018445D01*
X013076Y018404D01*
X013098Y018361D01*
X013118Y018317D01*
X013133Y018272D01*
X013145Y018225D01*
X013153Y018177D01*
X013157Y018129D01*
X013157Y018081D01*
X013153Y018033D01*
X013145Y017985D01*
X013133Y017938D01*
X013118Y017893D01*
X013098Y017849D01*
X013076Y017806D01*
X013050Y017765D01*
X013020Y017727D01*
X012988Y017691D01*
X012953Y017658D01*
X012915Y017628D01*
X012875Y017601D01*
X012833Y017578D01*
X012789Y017558D01*
X012744Y017541D01*
X012698Y017529D01*
X012650Y017520D01*
X012602Y017515D01*
X012554Y017514D01*
X012506Y017517D01*
X012458Y017524D01*
X012411Y017535D01*
X012365Y017549D01*
X012320Y017567D01*
X012277Y017589D01*
X012236Y017614D01*
X012198Y017643D01*
X012161Y017675D01*
X012127Y017709D01*
X012097Y017746D01*
X012069Y017785D01*
X012044Y017827D01*
X012024Y017871D01*
X012006Y017916D01*
X011993Y017962D01*
X011983Y018009D01*
X011977Y018057D01*
X011975Y018105D01*
D11*
X013305Y016058D02*
X014101Y016058D01*
X014101Y015911D01*
X012528Y015517D02*
X012528Y012761D01*
X013305Y012221D02*
X014101Y012221D01*
X014101Y012368D01*
X020327Y017796D02*
X020327Y018921D01*
X020702Y018546D01*
X020327Y018921D02*
X019952Y018546D01*
D12*
X021270Y018498D02*
X021270Y018191D01*
X021577Y018191D02*
X021577Y018498D01*
X021423Y018651D01*
X021270Y018498D01*
X021270Y018421D02*
X021577Y018421D01*
X021730Y018651D02*
X021960Y018651D01*
X022037Y018574D01*
X022037Y018267D01*
X021960Y018191D01*
X021730Y018191D01*
X021730Y018651D01*
X015244Y015679D02*
X015244Y015526D01*
X015168Y015449D01*
X015014Y015449D01*
X015014Y015679D01*
X015091Y015756D01*
X015168Y015756D01*
X015244Y015679D01*
X015014Y015449D02*
X014861Y015602D01*
X014784Y015756D01*
X014784Y015296D02*
X015168Y015296D01*
X015244Y015219D01*
X015244Y015065D01*
X015168Y014989D01*
X014784Y014989D01*
X014784Y014835D02*
X015244Y014528D01*
X015244Y014221D02*
X014784Y014221D01*
X014784Y014068D02*
X014784Y014375D01*
X014784Y013914D02*
X015168Y013914D01*
X015244Y013838D01*
X015244Y013684D01*
X015168Y013607D01*
X014784Y013607D01*
X014861Y013454D02*
X015014Y013454D01*
X015091Y013377D01*
X015091Y013147D01*
X015244Y013147D02*
X014784Y013147D01*
X014784Y013377D01*
X014861Y013454D01*
X014784Y012994D02*
X015244Y012994D01*
X014784Y012687D01*
X015244Y012687D01*
X015244Y012533D02*
X015244Y012380D01*
X015244Y012456D02*
X014784Y012456D01*
X014784Y012380D02*
X014784Y012533D01*
X016066Y008870D02*
X016066Y008486D01*
X016142Y008409D01*
X016296Y008409D01*
X016373Y008486D01*
X016373Y008870D01*
X016526Y008716D02*
X016679Y008870D01*
X016679Y008409D01*
X016526Y008409D02*
X016833Y008409D01*
X016756Y007870D02*
X016526Y007640D01*
X016833Y007640D01*
X016756Y007870D02*
X016756Y007409D01*
X016986Y007409D02*
X017293Y007870D01*
X017447Y007870D02*
X017447Y007640D01*
X017600Y007716D01*
X017677Y007716D01*
X017754Y007640D01*
X017754Y007486D01*
X017677Y007409D01*
X017524Y007409D01*
X017447Y007486D01*
X017447Y007870D02*
X017754Y007870D01*
X018214Y007870D02*
X017907Y007409D01*
X018368Y007486D02*
X018444Y007409D01*
X018598Y007409D01*
X018675Y007486D01*
X018675Y007563D01*
X018598Y007640D01*
X018444Y007640D01*
X018368Y007716D01*
X018368Y007793D01*
X018444Y007870D01*
X018598Y007870D01*
X018675Y007793D01*
X018828Y007870D02*
X019058Y007870D01*
X019135Y007793D01*
X019135Y007640D01*
X019058Y007563D01*
X018828Y007563D01*
X018828Y007409D02*
X018828Y007870D01*
X019288Y007870D02*
X019442Y007870D01*
X019365Y007870D02*
X019365Y007409D01*
X019288Y007409D02*
X019442Y007409D01*
X021816Y005714D02*
X022046Y005714D01*
X022123Y005637D01*
X022123Y005560D01*
X022046Y005483D01*
X021816Y005483D01*
X022046Y005483D02*
X022123Y005407D01*
X022123Y005330D01*
X022046Y005253D01*
X021816Y005253D01*
X021816Y005714D01*
X016373Y007486D02*
X016373Y007870D01*
X016066Y007870D02*
X016066Y007486D01*
X016142Y007409D01*
X016296Y007409D01*
X016373Y007486D01*
X021672Y010242D02*
X022420Y010242D01*
X022668Y010171D02*
X022821Y010248D01*
X022898Y010248D01*
X022975Y010171D01*
X022975Y010017D01*
X022898Y009941D01*
X022744Y009941D01*
X022668Y010017D01*
X022668Y010171D02*
X022668Y010401D01*
X022975Y010401D01*
X022898Y010941D02*
X022898Y011401D01*
X022668Y011171D01*
X022975Y011171D01*
X022898Y011941D02*
X022744Y011941D01*
X022668Y012017D01*
X022821Y012171D02*
X022898Y012171D01*
X022975Y012094D01*
X022975Y012017D01*
X022898Y011941D01*
X022898Y012171D02*
X022975Y012248D01*
X022975Y012324D01*
X022898Y012401D01*
X022744Y012401D01*
X022668Y012324D01*
X022420Y011974D02*
X021672Y011974D01*
X022668Y012941D02*
X022975Y013248D01*
X022975Y013324D01*
X022898Y013401D01*
X022744Y013401D01*
X022668Y013324D01*
X022668Y012941D02*
X022975Y012941D01*
X022975Y013941D02*
X022668Y013941D01*
X022821Y013941D02*
X022821Y014401D01*
X022668Y014248D01*
D13*
X023393Y018105D02*
X023395Y018174D01*
X023401Y018242D01*
X023411Y018310D01*
X023425Y018377D01*
X023443Y018444D01*
X023464Y018509D01*
X023490Y018573D01*
X023519Y018635D01*
X023551Y018695D01*
X023587Y018754D01*
X023627Y018810D01*
X023669Y018864D01*
X023715Y018915D01*
X023764Y018964D01*
X023815Y019010D01*
X023869Y019052D01*
X023925Y019092D01*
X023983Y019128D01*
X024044Y019160D01*
X024106Y019189D01*
X024170Y019215D01*
X024235Y019236D01*
X024302Y019254D01*
X024369Y019268D01*
X024437Y019278D01*
X024505Y019284D01*
X024574Y019286D01*
X024643Y019284D01*
X024711Y019278D01*
X024779Y019268D01*
X024846Y019254D01*
X024913Y019236D01*
X024978Y019215D01*
X025042Y019189D01*
X025104Y019160D01*
X025164Y019128D01*
X025223Y019092D01*
X025279Y019052D01*
X025333Y019010D01*
X025384Y018964D01*
X025433Y018915D01*
X025479Y018864D01*
X025521Y018810D01*
X025561Y018754D01*
X025597Y018695D01*
X025629Y018635D01*
X025658Y018573D01*
X025684Y018509D01*
X025705Y018444D01*
X025723Y018377D01*
X025737Y018310D01*
X025747Y018242D01*
X025753Y018174D01*
X025755Y018105D01*
X025753Y018036D01*
X025747Y017968D01*
X025737Y017900D01*
X025723Y017833D01*
X025705Y017766D01*
X025684Y017701D01*
X025658Y017637D01*
X025629Y017575D01*
X025597Y017514D01*
X025561Y017456D01*
X025521Y017400D01*
X025479Y017346D01*
X025433Y017295D01*
X025384Y017246D01*
X025333Y017200D01*
X025279Y017158D01*
X025223Y017118D01*
X025165Y017082D01*
X025104Y017050D01*
X025042Y017021D01*
X024978Y016995D01*
X024913Y016974D01*
X024846Y016956D01*
X024779Y016942D01*
X024711Y016932D01*
X024643Y016926D01*
X024574Y016924D01*
X024505Y016926D01*
X024437Y016932D01*
X024369Y016942D01*
X024302Y016956D01*
X024235Y016974D01*
X024170Y016995D01*
X024106Y017021D01*
X024044Y017050D01*
X023983Y017082D01*
X023925Y017118D01*
X023869Y017158D01*
X023815Y017200D01*
X023764Y017246D01*
X023715Y017295D01*
X023669Y017346D01*
X023627Y017400D01*
X023587Y017456D01*
X023551Y017514D01*
X023519Y017575D01*
X023490Y017637D01*
X023464Y017701D01*
X023443Y017766D01*
X023425Y017833D01*
X023411Y017900D01*
X023401Y017968D01*
X023395Y018036D01*
X023393Y018105D01*
X011385Y018105D02*
X011387Y018174D01*
X011393Y018242D01*
X011403Y018310D01*
X011417Y018377D01*
X011435Y018444D01*
X011456Y018509D01*
X011482Y018573D01*
X011511Y018635D01*
X011543Y018695D01*
X011579Y018754D01*
X011619Y018810D01*
X011661Y018864D01*
X011707Y018915D01*
X011756Y018964D01*
X011807Y019010D01*
X011861Y019052D01*
X011917Y019092D01*
X011975Y019128D01*
X012036Y019160D01*
X012098Y019189D01*
X012162Y019215D01*
X012227Y019236D01*
X012294Y019254D01*
X012361Y019268D01*
X012429Y019278D01*
X012497Y019284D01*
X012566Y019286D01*
X012635Y019284D01*
X012703Y019278D01*
X012771Y019268D01*
X012838Y019254D01*
X012905Y019236D01*
X012970Y019215D01*
X013034Y019189D01*
X013096Y019160D01*
X013156Y019128D01*
X013215Y019092D01*
X013271Y019052D01*
X013325Y019010D01*
X013376Y018964D01*
X013425Y018915D01*
X013471Y018864D01*
X013513Y018810D01*
X013553Y018754D01*
X013589Y018695D01*
X013621Y018635D01*
X013650Y018573D01*
X013676Y018509D01*
X013697Y018444D01*
X013715Y018377D01*
X013729Y018310D01*
X013739Y018242D01*
X013745Y018174D01*
X013747Y018105D01*
X013745Y018036D01*
X013739Y017968D01*
X013729Y017900D01*
X013715Y017833D01*
X013697Y017766D01*
X013676Y017701D01*
X013650Y017637D01*
X013621Y017575D01*
X013589Y017514D01*
X013553Y017456D01*
X013513Y017400D01*
X013471Y017346D01*
X013425Y017295D01*
X013376Y017246D01*
X013325Y017200D01*
X013271Y017158D01*
X013215Y017118D01*
X013157Y017082D01*
X013096Y017050D01*
X013034Y017021D01*
X012970Y016995D01*
X012905Y016974D01*
X012838Y016956D01*
X012771Y016942D01*
X012703Y016932D01*
X012635Y016926D01*
X012566Y016924D01*
X012497Y016926D01*
X012429Y016932D01*
X012361Y016942D01*
X012294Y016956D01*
X012227Y016974D01*
X012162Y016995D01*
X012098Y017021D01*
X012036Y017050D01*
X011975Y017082D01*
X011917Y017118D01*
X011861Y017158D01*
X011807Y017200D01*
X011756Y017246D01*
X011707Y017295D01*
X011661Y017346D01*
X011619Y017400D01*
X011579Y017456D01*
X011543Y017514D01*
X011511Y017575D01*
X011482Y017637D01*
X011456Y017701D01*
X011435Y017766D01*
X011417Y017833D01*
X011403Y017900D01*
X011393Y017968D01*
X011387Y018036D01*
X011385Y018105D01*
X011385Y006097D02*
X011387Y006166D01*
X011393Y006234D01*
X011403Y006302D01*
X011417Y006369D01*
X011435Y006436D01*
X011456Y006501D01*
X011482Y006565D01*
X011511Y006627D01*
X011543Y006687D01*
X011579Y006746D01*
X011619Y006802D01*
X011661Y006856D01*
X011707Y006907D01*
X011756Y006956D01*
X011807Y007002D01*
X011861Y007044D01*
X011917Y007084D01*
X011975Y007120D01*
X012036Y007152D01*
X012098Y007181D01*
X012162Y007207D01*
X012227Y007228D01*
X012294Y007246D01*
X012361Y007260D01*
X012429Y007270D01*
X012497Y007276D01*
X012566Y007278D01*
X012635Y007276D01*
X012703Y007270D01*
X012771Y007260D01*
X012838Y007246D01*
X012905Y007228D01*
X012970Y007207D01*
X013034Y007181D01*
X013096Y007152D01*
X013156Y007120D01*
X013215Y007084D01*
X013271Y007044D01*
X013325Y007002D01*
X013376Y006956D01*
X013425Y006907D01*
X013471Y006856D01*
X013513Y006802D01*
X013553Y006746D01*
X013589Y006687D01*
X013621Y006627D01*
X013650Y006565D01*
X013676Y006501D01*
X013697Y006436D01*
X013715Y006369D01*
X013729Y006302D01*
X013739Y006234D01*
X013745Y006166D01*
X013747Y006097D01*
X013745Y006028D01*
X013739Y005960D01*
X013729Y005892D01*
X013715Y005825D01*
X013697Y005758D01*
X013676Y005693D01*
X013650Y005629D01*
X013621Y005567D01*
X013589Y005506D01*
X013553Y005448D01*
X013513Y005392D01*
X013471Y005338D01*
X013425Y005287D01*
X013376Y005238D01*
X013325Y005192D01*
X013271Y005150D01*
X013215Y005110D01*
X013157Y005074D01*
X013096Y005042D01*
X013034Y005013D01*
X012970Y004987D01*
X012905Y004966D01*
X012838Y004948D01*
X012771Y004934D01*
X012703Y004924D01*
X012635Y004918D01*
X012566Y004916D01*
X012497Y004918D01*
X012429Y004924D01*
X012361Y004934D01*
X012294Y004948D01*
X012227Y004966D01*
X012162Y004987D01*
X012098Y005013D01*
X012036Y005042D01*
X011975Y005074D01*
X011917Y005110D01*
X011861Y005150D01*
X011807Y005192D01*
X011756Y005238D01*
X011707Y005287D01*
X011661Y005338D01*
X011619Y005392D01*
X011579Y005448D01*
X011543Y005506D01*
X011511Y005567D01*
X011482Y005629D01*
X011456Y005693D01*
X011435Y005758D01*
X011417Y005825D01*
X011403Y005892D01*
X011393Y005960D01*
X011387Y006028D01*
X011385Y006097D01*
X023393Y006097D02*
X023395Y006166D01*
X023401Y006234D01*
X023411Y006302D01*
X023425Y006369D01*
X023443Y006436D01*
X023464Y006501D01*
X023490Y006565D01*
X023519Y006627D01*
X023551Y006687D01*
X023587Y006746D01*
X023627Y006802D01*
X023669Y006856D01*
X023715Y006907D01*
X023764Y006956D01*
X023815Y007002D01*
X023869Y007044D01*
X023925Y007084D01*
X023983Y007120D01*
X024044Y007152D01*
X024106Y007181D01*
X024170Y007207D01*
X024235Y007228D01*
X024302Y007246D01*
X024369Y007260D01*
X024437Y007270D01*
X024505Y007276D01*
X024574Y007278D01*
X024643Y007276D01*
X024711Y007270D01*
X024779Y007260D01*
X024846Y007246D01*
X024913Y007228D01*
X024978Y007207D01*
X025042Y007181D01*
X025104Y007152D01*
X025164Y007120D01*
X025223Y007084D01*
X025279Y007044D01*
X025333Y007002D01*
X025384Y006956D01*
X025433Y006907D01*
X025479Y006856D01*
X025521Y006802D01*
X025561Y006746D01*
X025597Y006687D01*
X025629Y006627D01*
X025658Y006565D01*
X025684Y006501D01*
X025705Y006436D01*
X025723Y006369D01*
X025737Y006302D01*
X025747Y006234D01*
X025753Y006166D01*
X025755Y006097D01*
X025753Y006028D01*
X025747Y005960D01*
X025737Y005892D01*
X025723Y005825D01*
X025705Y005758D01*
X025684Y005693D01*
X025658Y005629D01*
X025629Y005567D01*
X025597Y005506D01*
X025561Y005448D01*
X025521Y005392D01*
X025479Y005338D01*
X025433Y005287D01*
X025384Y005238D01*
X025333Y005192D01*
X025279Y005150D01*
X025223Y005110D01*
X025165Y005074D01*
X025104Y005042D01*
X025042Y005013D01*
X024978Y004987D01*
X024913Y004966D01*
X024846Y004948D01*
X024779Y004934D01*
X024711Y004924D01*
X024643Y004918D01*
X024574Y004916D01*
X024505Y004918D01*
X024437Y004924D01*
X024369Y004934D01*
X024302Y004948D01*
X024235Y004966D01*
X024170Y004987D01*
X024106Y005013D01*
X024044Y005042D01*
X023983Y005074D01*
X023925Y005110D01*
X023869Y005150D01*
X023815Y005192D01*
X023764Y005238D01*
X023715Y005287D01*
X023669Y005338D01*
X023627Y005392D01*
X023587Y005448D01*
X023551Y005506D01*
X023519Y005567D01*
X023490Y005629D01*
X023464Y005693D01*
X023443Y005758D01*
X023425Y005825D01*
X023411Y005892D01*
X023401Y005960D01*
X023395Y006028D01*
X023393Y006097D01*
D14*
X020758Y007177D02*
X020108Y007177D01*
X020108Y008527D02*
X020758Y008527D01*
X019758Y016414D02*
X019896Y016552D01*
X018459Y016414D02*
X018321Y016414D01*
X018321Y016552D01*
X018321Y017851D02*
X018321Y017989D01*
X018459Y017989D01*
X019758Y017989D02*
X019896Y017989D01*
X019896Y017851D01*
X016441Y018069D02*
X016244Y018266D01*
X016441Y017085D02*
X016441Y016888D01*
X016244Y016888D01*
X014472Y016888D02*
X014275Y016888D01*
X014275Y017085D01*
X014275Y018069D02*
X014275Y018266D01*
X014472Y018266D01*
D15*
X016296Y018510D02*
X016296Y018518D01*
X016792Y017514D02*
X016800Y017514D01*
X018108Y015956D02*
X018108Y015948D01*
X019452Y015050D02*
X019452Y015042D01*
X020642Y015048D02*
X020642Y015368D01*
X020862Y015368D01*
X021542Y015368D02*
X021762Y015368D01*
X021762Y015048D01*
X022202Y014921D02*
X022452Y014671D01*
X022952Y014671D01*
X023202Y014921D01*
X023202Y015421D01*
X022952Y015671D01*
X023202Y015921D01*
X023202Y016421D01*
X022952Y016671D01*
X022452Y016671D01*
X022202Y016421D01*
X022202Y015921D01*
X022452Y015671D01*
X022952Y015671D01*
X022452Y015671D02*
X022202Y015421D01*
X022202Y014921D01*
X022452Y016671D02*
X022202Y016921D01*
X022202Y017421D01*
X022452Y017671D01*
X022202Y017921D01*
X022202Y018421D01*
X022452Y018671D01*
X022952Y018671D01*
X023202Y018421D01*
X023202Y017921D01*
X022952Y017671D01*
X023202Y017421D01*
X023202Y016921D01*
X022952Y016671D01*
X022952Y017671D02*
X022452Y017671D01*
X016014Y014987D02*
X016014Y014979D01*
X021167Y012952D02*
X021175Y012952D01*
X021764Y012237D02*
X021764Y012229D01*
X020800Y010202D02*
X020792Y010202D01*
X019827Y009300D02*
X019827Y009292D01*
X021233Y008956D02*
X021233Y008948D01*
X022167Y009171D02*
X022175Y009171D01*
X021926Y008323D02*
X021666Y008323D01*
X021196Y008193D02*
X021196Y008103D01*
X021196Y007863D01*
X021196Y007773D01*
X021196Y007863D02*
X021217Y007865D01*
X021237Y007870D01*
X021256Y007879D01*
X021273Y007891D01*
X021288Y007906D01*
X021300Y007923D01*
X021309Y007942D01*
X021314Y007962D01*
X021316Y007983D01*
X021314Y008004D01*
X021309Y008024D01*
X021300Y008043D01*
X021288Y008060D01*
X021273Y008075D01*
X021256Y008087D01*
X021237Y008096D01*
X021217Y008101D01*
X021196Y008103D01*
X022396Y008193D02*
X022396Y007773D01*
X022858Y007885D02*
X022858Y007893D01*
X021564Y006133D02*
X020464Y006133D01*
X020447Y006131D01*
X020430Y006127D01*
X020414Y006120D01*
X020400Y006110D01*
X020387Y006097D01*
X020377Y006083D01*
X020370Y006067D01*
X020366Y006050D01*
X020364Y006033D01*
X020364Y005433D01*
X020366Y005416D01*
X020370Y005399D01*
X020377Y005383D01*
X020387Y005369D01*
X020400Y005356D01*
X020414Y005346D01*
X020430Y005339D01*
X020447Y005335D01*
X020464Y005333D01*
X021564Y005333D01*
X021581Y005335D01*
X021598Y005339D01*
X021614Y005346D01*
X021628Y005356D01*
X021641Y005369D01*
X021651Y005383D01*
X021658Y005399D01*
X021662Y005416D01*
X021664Y005433D01*
X021664Y006033D01*
X021662Y006050D01*
X021658Y006067D01*
X021651Y006083D01*
X021641Y006097D01*
X021628Y006110D01*
X021614Y006120D01*
X021598Y006127D01*
X021581Y006131D01*
X021564Y006133D01*
X019796Y005921D02*
X019796Y005421D01*
X019546Y005171D01*
X019046Y005171D01*
X018796Y005421D01*
X018546Y005171D01*
X018046Y005171D01*
X017796Y005421D01*
X017796Y005921D01*
X018046Y006171D01*
X018546Y006171D01*
X018796Y005921D01*
X019046Y006171D01*
X019546Y006171D01*
X019796Y005921D01*
X019546Y006171D02*
X019796Y006421D01*
X019796Y006921D01*
X019546Y007171D01*
X019046Y007171D01*
X018796Y006921D01*
X018546Y007171D01*
X018046Y007171D01*
X017796Y006921D01*
X017796Y006421D01*
X018046Y006171D01*
X018546Y006171D01*
X018796Y006421D01*
X018796Y006921D01*
X018796Y006421D02*
X019046Y006171D01*
X019546Y006171D01*
X018796Y005921D02*
X018796Y005421D01*
X017796Y005421D02*
X017546Y005171D01*
X017046Y005171D01*
X016796Y005421D01*
X016546Y005171D01*
X016046Y005171D01*
X015796Y005421D01*
X015796Y005921D01*
X016046Y006171D01*
X016546Y006171D01*
X016796Y005921D01*
X017046Y006171D01*
X017546Y006171D01*
X017796Y005921D01*
X017546Y006171D02*
X017046Y006171D01*
X016796Y006421D01*
X016546Y006171D01*
X016046Y006171D01*
X015796Y006421D01*
X015546Y006171D01*
X015796Y005921D01*
X015796Y005421D01*
X015546Y005171D01*
X015046Y005171D01*
X014796Y005421D01*
X014796Y005921D01*
X015046Y006171D01*
X014796Y006421D01*
X014796Y006921D01*
X015046Y007171D01*
X015546Y007171D01*
X015796Y006921D01*
X015796Y006421D01*
X015796Y006921D01*
X016046Y007171D01*
X016546Y007171D01*
X016796Y006921D01*
X017046Y007171D01*
X017546Y007171D01*
X017796Y006921D01*
X017796Y006421D02*
X017546Y006171D01*
X016796Y006421D02*
X016796Y006921D01*
X015796Y007421D02*
X015546Y007171D01*
X015796Y007421D02*
X015796Y007921D01*
X015546Y008171D01*
X015796Y008421D01*
X015796Y008921D01*
X015546Y009171D01*
X015046Y009171D01*
X014796Y008921D01*
X014796Y008421D01*
X015046Y008171D01*
X015546Y008171D01*
X015046Y008171D02*
X014796Y007921D01*
X014796Y007421D01*
X015046Y007171D01*
X015046Y006171D02*
X015546Y006171D01*
X016796Y005921D02*
X016796Y005421D01*
X015425Y009921D02*
X015417Y009921D01*
D16*
X019502Y017163D02*
X019462Y017241D01*
X019541Y017241D01*
X019502Y017163D01*
X019502Y017517D01*
X019446Y017517D02*
X019448Y017531D01*
X019454Y017545D01*
X019462Y017557D01*
X019474Y017565D01*
X019488Y017571D01*
X019502Y017573D01*
X019516Y017571D01*
X019530Y017565D01*
X019542Y017557D01*
X019550Y017545D01*
X019556Y017531D01*
X019558Y017517D01*
X019556Y017503D01*
X019550Y017489D01*
X019542Y017477D01*
X019530Y017469D01*
X019516Y017463D01*
X019502Y017461D01*
X019488Y017463D01*
X019474Y017469D01*
X019462Y017477D01*
X019454Y017489D01*
X019448Y017503D01*
X019446Y017517D01*
X019502Y017517D02*
X019147Y017517D01*
X019226Y017477D01*
X019226Y017556D01*
X019147Y017517D01*
D17*
X019026Y017566D02*
X018961Y017664D01*
X019026Y017664D02*
X018961Y017566D01*
X019551Y017645D02*
X019617Y017645D01*
X019551Y017645D02*
X019551Y017661D01*
X019617Y017727D01*
X019617Y017743D01*
X019551Y017743D01*
X019577Y017074D02*
X019577Y017057D01*
X019545Y017025D01*
X019545Y016976D01*
X019545Y017025D02*
X019512Y017057D01*
X019512Y017074D01*
D18*
X017441Y017952D02*
X017401Y017952D01*
X018108Y018619D02*
X018108Y018659D01*
X016014Y015628D02*
X016014Y015588D01*
X021682Y012952D02*
X021722Y012952D01*
D19*
X021116Y007487D02*
X021116Y007408D01*
X021037Y007408D01*
X021037Y007487D01*
X021116Y007487D01*
D20*
X024277Y008171D03*
X024277Y009171D03*
X024277Y010171D03*
X024277Y011171D03*
X024277Y012171D03*
X024277Y013171D03*
X024277Y014171D03*
X024277Y015171D03*
X024277Y016171D03*
D21*
X021046Y009472D02*
X021046Y009432D01*
X022307Y006358D02*
X022347Y006358D01*
D22*
X020045Y010202D02*
X020045Y014139D01*
X016108Y014139D01*
X016108Y010202D01*
X020045Y010202D01*
X019700Y010430D02*
X019702Y010452D01*
X019708Y010473D01*
X019717Y010492D01*
X019730Y010510D01*
X019746Y010525D01*
X019764Y010537D01*
X019784Y010545D01*
X019805Y010550D01*
X019826Y010551D01*
X019848Y010548D01*
X019869Y010541D01*
X019888Y010531D01*
X019905Y010517D01*
X019919Y010501D01*
X019930Y010482D01*
X019938Y010462D01*
X019942Y010441D01*
X019942Y010419D01*
X019938Y010398D01*
X019930Y010378D01*
X019919Y010359D01*
X019905Y010343D01*
X019888Y010329D01*
X019869Y010319D01*
X019848Y010312D01*
X019826Y010309D01*
X019805Y010310D01*
X019784Y010315D01*
X019764Y010323D01*
X019746Y010335D01*
X019730Y010350D01*
X019717Y010368D01*
X019708Y010387D01*
X019702Y010408D01*
X019700Y010430D01*
X014114Y011049D02*
X014114Y011147D01*
X013307Y011147D01*
X012323Y011147D02*
X011976Y011147D01*
X011976Y008194D01*
X012323Y008194D01*
X013307Y008194D02*
X014114Y008194D01*
X014114Y008293D01*
D23*
X017421Y016827D03*
X021046Y016983D03*
X021733Y016983D03*
D24*
X021014Y012233D03*
X014296Y011764D03*
X021108Y006577D03*
D25*
X015202Y011014D03*
X014858Y011014D03*
X014483Y011233D03*
X017108Y015827D03*
X017483Y015827D03*
D26*
X017983Y008876D03*
X018514Y008876D03*
X019046Y008876D03*
M02*
