G75*
G70*
%OFA0B0*%
%FSLAX24Y24*%
%IPPOS*%
%LPD*%
%AMOC8*
5,1,8,0,0,1.08239X$1,22.5*
%
%ADD10C,0.0000*%
%ADD11C,0.0600*%
%ADD12C,0.0198*%
%ADD13C,0.0295*%
%ADD14C,0.0100*%
%ADD15C,0.0320*%
D10*
X011483Y005999D02*
X011483Y006796D01*
X012327Y007639D01*
X012327Y016577D01*
X011483Y017421D01*
X011483Y018203D01*
X011485Y018265D01*
X011491Y018326D01*
X011500Y018387D01*
X011514Y018448D01*
X011531Y018507D01*
X011552Y018565D01*
X011577Y018622D01*
X011605Y018677D01*
X011636Y018730D01*
X011671Y018781D01*
X011709Y018830D01*
X011750Y018877D01*
X011793Y018920D01*
X011840Y018961D01*
X011889Y018999D01*
X011940Y019034D01*
X011993Y019065D01*
X012048Y019093D01*
X012105Y019118D01*
X012163Y019139D01*
X012222Y019156D01*
X012283Y019170D01*
X012344Y019179D01*
X012405Y019185D01*
X012467Y019187D01*
X012467Y019188D02*
X024672Y019188D01*
X024672Y019187D02*
X024734Y019185D01*
X024795Y019179D01*
X024856Y019170D01*
X024917Y019156D01*
X024976Y019139D01*
X025034Y019118D01*
X025091Y019093D01*
X025146Y019065D01*
X025199Y019034D01*
X025250Y018999D01*
X025299Y018961D01*
X025346Y018920D01*
X025389Y018877D01*
X025430Y018830D01*
X025468Y018781D01*
X025503Y018730D01*
X025534Y018677D01*
X025562Y018622D01*
X025587Y018565D01*
X025608Y018507D01*
X025625Y018448D01*
X025639Y018387D01*
X025648Y018326D01*
X025654Y018265D01*
X025656Y018203D01*
X025656Y017406D01*
X024827Y016577D01*
X024827Y007764D01*
X025656Y006935D01*
X025656Y005999D01*
X025654Y005937D01*
X025648Y005876D01*
X025639Y005815D01*
X025625Y005754D01*
X025608Y005695D01*
X025587Y005637D01*
X025562Y005580D01*
X025534Y005525D01*
X025503Y005472D01*
X025468Y005421D01*
X025430Y005372D01*
X025389Y005325D01*
X025346Y005282D01*
X025299Y005241D01*
X025250Y005203D01*
X025199Y005168D01*
X025146Y005137D01*
X025091Y005109D01*
X025034Y005084D01*
X024976Y005063D01*
X024917Y005046D01*
X024856Y005032D01*
X024795Y005023D01*
X024734Y005017D01*
X024672Y005015D01*
X024672Y005014D02*
X012467Y005014D01*
X012467Y005015D02*
X012405Y005017D01*
X012344Y005023D01*
X012283Y005032D01*
X012222Y005046D01*
X012163Y005063D01*
X012105Y005084D01*
X012048Y005109D01*
X011993Y005137D01*
X011940Y005168D01*
X011889Y005203D01*
X011840Y005241D01*
X011793Y005282D01*
X011750Y005325D01*
X011709Y005372D01*
X011671Y005421D01*
X011636Y005472D01*
X011605Y005525D01*
X011577Y005580D01*
X011552Y005637D01*
X011531Y005695D01*
X011514Y005754D01*
X011500Y005815D01*
X011491Y005876D01*
X011485Y005937D01*
X011483Y005999D01*
X011975Y006097D02*
X011977Y006145D01*
X011983Y006193D01*
X011993Y006240D01*
X012006Y006286D01*
X012024Y006331D01*
X012044Y006375D01*
X012069Y006417D01*
X012097Y006456D01*
X012127Y006493D01*
X012161Y006527D01*
X012198Y006559D01*
X012236Y006588D01*
X012277Y006613D01*
X012320Y006635D01*
X012365Y006653D01*
X012411Y006667D01*
X012458Y006678D01*
X012506Y006685D01*
X012554Y006688D01*
X012602Y006687D01*
X012650Y006682D01*
X012698Y006673D01*
X012744Y006661D01*
X012789Y006644D01*
X012833Y006624D01*
X012875Y006601D01*
X012915Y006574D01*
X012953Y006544D01*
X012988Y006511D01*
X013020Y006475D01*
X013050Y006437D01*
X013076Y006396D01*
X013098Y006353D01*
X013118Y006309D01*
X013133Y006264D01*
X013145Y006217D01*
X013153Y006169D01*
X013157Y006121D01*
X013157Y006073D01*
X013153Y006025D01*
X013145Y005977D01*
X013133Y005930D01*
X013118Y005885D01*
X013098Y005841D01*
X013076Y005798D01*
X013050Y005757D01*
X013020Y005719D01*
X012988Y005683D01*
X012953Y005650D01*
X012915Y005620D01*
X012875Y005593D01*
X012833Y005570D01*
X012789Y005550D01*
X012744Y005533D01*
X012698Y005521D01*
X012650Y005512D01*
X012602Y005507D01*
X012554Y005506D01*
X012506Y005509D01*
X012458Y005516D01*
X012411Y005527D01*
X012365Y005541D01*
X012320Y005559D01*
X012277Y005581D01*
X012236Y005606D01*
X012198Y005635D01*
X012161Y005667D01*
X012127Y005701D01*
X012097Y005738D01*
X012069Y005777D01*
X012044Y005819D01*
X012024Y005863D01*
X012006Y005908D01*
X011993Y005954D01*
X011983Y006001D01*
X011977Y006049D01*
X011975Y006097D01*
X023983Y006097D02*
X023985Y006145D01*
X023991Y006193D01*
X024001Y006240D01*
X024014Y006286D01*
X024032Y006331D01*
X024052Y006375D01*
X024077Y006417D01*
X024105Y006456D01*
X024135Y006493D01*
X024169Y006527D01*
X024206Y006559D01*
X024244Y006588D01*
X024285Y006613D01*
X024328Y006635D01*
X024373Y006653D01*
X024419Y006667D01*
X024466Y006678D01*
X024514Y006685D01*
X024562Y006688D01*
X024610Y006687D01*
X024658Y006682D01*
X024706Y006673D01*
X024752Y006661D01*
X024797Y006644D01*
X024841Y006624D01*
X024883Y006601D01*
X024923Y006574D01*
X024961Y006544D01*
X024996Y006511D01*
X025028Y006475D01*
X025058Y006437D01*
X025084Y006396D01*
X025106Y006353D01*
X025126Y006309D01*
X025141Y006264D01*
X025153Y006217D01*
X025161Y006169D01*
X025165Y006121D01*
X025165Y006073D01*
X025161Y006025D01*
X025153Y005977D01*
X025141Y005930D01*
X025126Y005885D01*
X025106Y005841D01*
X025084Y005798D01*
X025058Y005757D01*
X025028Y005719D01*
X024996Y005683D01*
X024961Y005650D01*
X024923Y005620D01*
X024883Y005593D01*
X024841Y005570D01*
X024797Y005550D01*
X024752Y005533D01*
X024706Y005521D01*
X024658Y005512D01*
X024610Y005507D01*
X024562Y005506D01*
X024514Y005509D01*
X024466Y005516D01*
X024419Y005527D01*
X024373Y005541D01*
X024328Y005559D01*
X024285Y005581D01*
X024244Y005606D01*
X024206Y005635D01*
X024169Y005667D01*
X024135Y005701D01*
X024105Y005738D01*
X024077Y005777D01*
X024052Y005819D01*
X024032Y005863D01*
X024014Y005908D01*
X024001Y005954D01*
X023991Y006001D01*
X023985Y006049D01*
X023983Y006097D01*
X023983Y018105D02*
X023985Y018153D01*
X023991Y018201D01*
X024001Y018248D01*
X024014Y018294D01*
X024032Y018339D01*
X024052Y018383D01*
X024077Y018425D01*
X024105Y018464D01*
X024135Y018501D01*
X024169Y018535D01*
X024206Y018567D01*
X024244Y018596D01*
X024285Y018621D01*
X024328Y018643D01*
X024373Y018661D01*
X024419Y018675D01*
X024466Y018686D01*
X024514Y018693D01*
X024562Y018696D01*
X024610Y018695D01*
X024658Y018690D01*
X024706Y018681D01*
X024752Y018669D01*
X024797Y018652D01*
X024841Y018632D01*
X024883Y018609D01*
X024923Y018582D01*
X024961Y018552D01*
X024996Y018519D01*
X025028Y018483D01*
X025058Y018445D01*
X025084Y018404D01*
X025106Y018361D01*
X025126Y018317D01*
X025141Y018272D01*
X025153Y018225D01*
X025161Y018177D01*
X025165Y018129D01*
X025165Y018081D01*
X025161Y018033D01*
X025153Y017985D01*
X025141Y017938D01*
X025126Y017893D01*
X025106Y017849D01*
X025084Y017806D01*
X025058Y017765D01*
X025028Y017727D01*
X024996Y017691D01*
X024961Y017658D01*
X024923Y017628D01*
X024883Y017601D01*
X024841Y017578D01*
X024797Y017558D01*
X024752Y017541D01*
X024706Y017529D01*
X024658Y017520D01*
X024610Y017515D01*
X024562Y017514D01*
X024514Y017517D01*
X024466Y017524D01*
X024419Y017535D01*
X024373Y017549D01*
X024328Y017567D01*
X024285Y017589D01*
X024244Y017614D01*
X024206Y017643D01*
X024169Y017675D01*
X024135Y017709D01*
X024105Y017746D01*
X024077Y017785D01*
X024052Y017827D01*
X024032Y017871D01*
X024014Y017916D01*
X024001Y017962D01*
X023991Y018009D01*
X023985Y018057D01*
X023983Y018105D01*
X011975Y018105D02*
X011977Y018153D01*
X011983Y018201D01*
X011993Y018248D01*
X012006Y018294D01*
X012024Y018339D01*
X012044Y018383D01*
X012069Y018425D01*
X012097Y018464D01*
X012127Y018501D01*
X012161Y018535D01*
X012198Y018567D01*
X012236Y018596D01*
X012277Y018621D01*
X012320Y018643D01*
X012365Y018661D01*
X012411Y018675D01*
X012458Y018686D01*
X012506Y018693D01*
X012554Y018696D01*
X012602Y018695D01*
X012650Y018690D01*
X012698Y018681D01*
X012744Y018669D01*
X012789Y018652D01*
X012833Y018632D01*
X012875Y018609D01*
X012915Y018582D01*
X012953Y018552D01*
X012988Y018519D01*
X013020Y018483D01*
X013050Y018445D01*
X013076Y018404D01*
X013098Y018361D01*
X013118Y018317D01*
X013133Y018272D01*
X013145Y018225D01*
X013153Y018177D01*
X013157Y018129D01*
X013157Y018081D01*
X013153Y018033D01*
X013145Y017985D01*
X013133Y017938D01*
X013118Y017893D01*
X013098Y017849D01*
X013076Y017806D01*
X013050Y017765D01*
X013020Y017727D01*
X012988Y017691D01*
X012953Y017658D01*
X012915Y017628D01*
X012875Y017601D01*
X012833Y017578D01*
X012789Y017558D01*
X012744Y017541D01*
X012698Y017529D01*
X012650Y017520D01*
X012602Y017515D01*
X012554Y017514D01*
X012506Y017517D01*
X012458Y017524D01*
X012411Y017535D01*
X012365Y017549D01*
X012320Y017567D01*
X012277Y017589D01*
X012236Y017614D01*
X012198Y017643D01*
X012161Y017675D01*
X012127Y017709D01*
X012097Y017746D01*
X012069Y017785D01*
X012044Y017827D01*
X012024Y017871D01*
X012006Y017916D01*
X011993Y017962D01*
X011983Y018009D01*
X011977Y018057D01*
X011975Y018105D01*
D11*
X022702Y018171D03*
X022702Y017171D03*
X022702Y016171D03*
X022702Y015171D03*
X015296Y008671D03*
X015296Y007671D03*
X015296Y006671D03*
X016296Y006671D03*
X017296Y006671D03*
X018296Y006671D03*
X019296Y006671D03*
X019296Y005671D03*
X018296Y005671D03*
X017296Y005671D03*
X016296Y005671D03*
X015296Y005671D03*
D12*
X013858Y005358D03*
X013858Y006514D03*
X012702Y007514D03*
X014608Y008608D03*
X014858Y009233D03*
X015514Y009358D03*
X016358Y009514D03*
X016639Y009421D03*
X016358Y009108D03*
X016639Y008858D03*
X016358Y008046D03*
X017358Y007827D03*
X018108Y007827D03*
X019639Y009046D03*
X020046Y008921D03*
X020483Y008921D03*
X020358Y009639D03*
X019858Y009639D03*
X019858Y010077D03*
X020358Y010077D03*
X021108Y010327D03*
X022046Y009889D03*
X023233Y009639D03*
X023233Y010514D03*
X023233Y010952D03*
X021858Y011827D03*
X021358Y011827D03*
X020796Y012452D03*
X020796Y012764D03*
X019827Y012921D03*
X019358Y013733D03*
X019108Y013577D03*
X018483Y013264D03*
X018327Y012639D03*
X018389Y011796D03*
X019108Y011421D03*
X018733Y010702D03*
X018483Y010858D03*
X018233Y011014D03*
X018983Y010546D03*
X018764Y009483D03*
X017014Y010921D03*
X016639Y010889D03*
X016389Y010733D03*
X016389Y010452D03*
X015171Y010077D03*
X014483Y010796D03*
X013389Y011296D03*
X012858Y011671D03*
X014452Y012296D03*
X012858Y013327D03*
X012858Y014327D03*
X012858Y015389D03*
X014296Y016577D03*
X013358Y016639D03*
X012764Y016639D03*
X013921Y017608D03*
X015046Y018764D03*
X015671Y018764D03*
X016796Y018139D03*
X017889Y018171D03*
X018296Y018171D03*
X019358Y018608D03*
X019671Y018889D03*
X018858Y018889D03*
X019921Y018014D03*
X021046Y017796D03*
X021171Y018889D03*
X022483Y018889D03*
X023233Y018046D03*
X023514Y016858D03*
X024296Y016733D03*
X023264Y015702D03*
X022202Y016671D03*
X021421Y016202D03*
X021046Y016202D03*
X020764Y015827D03*
X020514Y015514D03*
X020046Y014983D03*
X019921Y014702D03*
X020233Y014483D03*
X020452Y014264D03*
X019889Y014264D03*
X019827Y013764D03*
X018733Y014952D03*
X018733Y015264D03*
X019296Y015327D03*
X019046Y015952D03*
X018452Y015608D03*
X018046Y015608D03*
X017796Y015421D03*
X017483Y015358D03*
X017139Y015358D03*
X017671Y014952D03*
X016233Y014702D03*
X016139Y014046D03*
X015764Y014046D03*
X016455Y013639D03*
X016327Y013171D03*
X016733Y012889D03*
X016858Y012608D03*
X016858Y012296D03*
X016483Y012202D03*
X016577Y011671D03*
X016327Y011452D03*
X017014Y011421D03*
X019702Y012014D03*
X022202Y012639D03*
X022202Y012952D03*
X022014Y013264D03*
X023233Y013171D03*
X023233Y012858D03*
X023233Y012483D03*
X023233Y012171D03*
X023233Y013889D03*
X019921Y016327D03*
X020171Y016483D03*
X018077Y016389D03*
X017858Y016577D03*
X017108Y016452D03*
X016421Y016514D03*
X016077Y016514D03*
X015608Y016514D03*
X015389Y016077D03*
X015389Y015796D03*
X015389Y015514D03*
X015389Y015233D03*
X017452Y013733D03*
X013358Y010139D03*
X013358Y009671D03*
X013358Y009202D03*
X021296Y006827D03*
X021796Y007046D03*
X023233Y006702D03*
X024108Y007483D03*
X024671Y007483D03*
X021796Y008546D03*
X022889Y005483D03*
X017233Y018889D03*
D13*
X014983Y016389D03*
X013546Y015108D03*
X021577Y015577D03*
X021421Y009889D03*
X023171Y009171D03*
X022671Y008514D03*
D14*
X022566Y008222D02*
X022609Y008204D01*
X022732Y008204D01*
X022846Y008252D01*
X022933Y008339D01*
X022981Y008453D01*
X022981Y014045D01*
X022952Y014114D01*
X022952Y014171D01*
X022202Y014921D01*
X022202Y015421D01*
X022452Y015671D01*
X022889Y015671D01*
X023047Y015828D01*
X023015Y015751D01*
X022970Y015751D01*
X023015Y015751D02*
X023015Y015652D01*
X023053Y015561D01*
X023123Y015491D01*
X023215Y015453D01*
X023314Y015453D01*
X023405Y015491D01*
X023476Y015561D01*
X023513Y015652D01*
X023513Y015751D01*
X024677Y015751D01*
X024677Y015849D02*
X023469Y015849D01*
X023476Y015843D02*
X023405Y015913D01*
X023314Y015951D01*
X023215Y015951D01*
X023138Y015919D01*
X023858Y016639D01*
X023858Y017143D01*
X023885Y017123D01*
X023887Y017115D01*
X023917Y017099D01*
X023944Y017078D01*
X023952Y017079D01*
X024027Y017039D01*
X024030Y017031D01*
X024063Y017019D01*
X024093Y017003D01*
X024100Y017005D01*
X024180Y016975D01*
X024185Y016968D01*
X024203Y016964D01*
X024155Y016944D01*
X024084Y016874D01*
X024047Y016783D01*
X024047Y016684D01*
X024084Y016592D01*
X024155Y016522D01*
X024246Y016484D01*
X024345Y016484D01*
X024437Y016522D01*
X024507Y016592D01*
X024545Y016684D01*
X024545Y016783D01*
X024507Y016874D01*
X024461Y016920D01*
X024501Y016917D01*
X024504Y016914D01*
X024542Y016914D01*
X024580Y016912D01*
X024583Y016914D01*
X024952Y016914D01*
X024677Y016639D01*
X024677Y007732D01*
X024621Y007732D01*
X024530Y007694D01*
X024459Y007624D01*
X024422Y007533D01*
X024422Y007434D01*
X024459Y007342D01*
X024504Y007298D01*
X024446Y007295D01*
X024440Y007299D01*
X024406Y007292D01*
X024372Y007290D01*
X024366Y007284D01*
X024276Y007266D01*
X024269Y007269D01*
X024237Y007258D01*
X024203Y007251D01*
X024199Y007244D01*
X024112Y007213D01*
X024105Y007216D01*
X024074Y007200D01*
X024042Y007188D01*
X024038Y007181D01*
X023957Y007138D01*
X023949Y007139D01*
X023922Y007119D01*
X023891Y007103D01*
X023889Y007096D01*
X023815Y007042D01*
X023807Y007042D01*
X023782Y007018D01*
X023754Y006998D01*
X023753Y006990D01*
X023687Y006926D01*
X023679Y006925D01*
X023658Y006898D01*
X023634Y006874D01*
X023634Y006865D01*
X023578Y006793D01*
X023570Y006791D01*
X023553Y006761D01*
X023532Y006734D01*
X023533Y006726D01*
X023488Y006646D01*
X023480Y006642D01*
X023468Y006610D01*
X023456Y006589D01*
X023482Y006652D01*
X023482Y006751D01*
X023444Y006843D01*
X023374Y006913D01*
X023283Y006951D01*
X023184Y006951D01*
X023092Y006913D01*
X023022Y006843D01*
X022984Y006751D01*
X022984Y006652D01*
X023022Y006561D01*
X023092Y006491D01*
X023184Y006453D01*
X023283Y006453D01*
X023374Y006491D01*
X023444Y006561D01*
X023452Y006579D01*
X023453Y006573D01*
X023420Y006487D01*
X023413Y006483D01*
X023405Y006450D01*
X023393Y006418D01*
X023396Y006410D01*
X023376Y006321D01*
X023369Y006316D01*
X023366Y006282D01*
X023359Y006248D01*
X023363Y006241D01*
X023355Y006151D01*
X023351Y006147D01*
X023352Y006111D01*
X023349Y006075D01*
X023353Y006070D01*
X023378Y005164D01*
X014017Y005164D01*
X014069Y005217D01*
X014107Y005309D01*
X014107Y005408D01*
X014069Y005499D01*
X013999Y005569D01*
X013908Y005607D01*
X013809Y005607D01*
X013771Y005591D01*
X013771Y006071D01*
X013773Y006074D01*
X013771Y006112D01*
X013771Y006150D01*
X013768Y006152D01*
X013762Y006238D01*
X013766Y006245D01*
X013759Y006278D01*
X013758Y006286D01*
X013809Y006265D01*
X013908Y006265D01*
X013999Y006303D01*
X014069Y006373D01*
X014107Y006465D01*
X014107Y006564D01*
X014069Y006655D01*
X013999Y006726D01*
X013908Y006763D01*
X013809Y006763D01*
X013717Y006726D01*
X013647Y006655D01*
X013642Y006643D01*
X013601Y006718D01*
X013602Y006726D01*
X013581Y006754D01*
X013565Y006784D01*
X013557Y006786D01*
X013503Y006858D01*
X013503Y006866D01*
X013479Y006890D01*
X013459Y006917D01*
X013451Y006919D01*
X013387Y006982D01*
X013386Y006990D01*
X013359Y007010D01*
X013335Y007035D01*
X013326Y007035D01*
X013255Y007088D01*
X013252Y007096D01*
X013222Y007113D01*
X013195Y007133D01*
X013187Y007132D01*
X013108Y007175D01*
X013105Y007182D01*
X013073Y007194D01*
X013043Y007211D01*
X013035Y007208D01*
X012951Y007240D01*
X012947Y007246D01*
X012913Y007254D01*
X012881Y007266D01*
X012874Y007262D01*
X012789Y007281D01*
X012843Y007303D01*
X012913Y007373D01*
X012951Y007465D01*
X012951Y007564D01*
X012913Y007655D01*
X012843Y007726D01*
X012751Y007763D01*
X012652Y007763D01*
X012561Y007726D01*
X012491Y007655D01*
X012477Y007622D01*
X012477Y016639D01*
X012201Y016914D01*
X012539Y016914D01*
X012541Y016912D01*
X012580Y016914D01*
X012618Y016914D01*
X012621Y016917D01*
X012703Y016921D01*
X012710Y016917D01*
X012743Y016924D01*
X012778Y016926D01*
X012783Y016932D01*
X012868Y016949D01*
X012876Y016946D01*
X012908Y016957D01*
X012942Y016964D01*
X012946Y016971D01*
X013028Y017000D01*
X013036Y016998D01*
X013066Y017014D01*
X013099Y017025D01*
X013102Y017032D01*
X013179Y017073D01*
X013187Y017072D01*
X013215Y017092D01*
X013246Y017108D01*
X013248Y017116D01*
X013319Y017167D01*
X013327Y017167D01*
X013351Y017191D01*
X013379Y017211D01*
X013380Y017219D01*
X013443Y017280D01*
X013451Y017281D01*
X013472Y017308D01*
X013496Y017332D01*
X013497Y017340D01*
X013550Y017409D01*
X013558Y017411D01*
X013575Y017441D01*
X013596Y017468D01*
X013594Y017476D01*
X013637Y017552D01*
X013645Y017556D01*
X013657Y017587D01*
X013671Y017611D01*
X013671Y008139D01*
X014327Y007483D01*
X014886Y007483D01*
X014914Y007416D01*
X015041Y007289D01*
X015206Y007221D01*
X015385Y007221D01*
X015551Y007289D01*
X015677Y007416D01*
X015705Y007483D01*
X021827Y007483D01*
X022566Y008222D01*
X022510Y008166D02*
X024677Y008166D01*
X024677Y008068D02*
X022412Y008068D01*
X022313Y007969D02*
X024677Y007969D01*
X024677Y007871D02*
X022215Y007871D01*
X022116Y007772D02*
X024677Y007772D01*
X024509Y007674D02*
X024270Y007674D01*
X024249Y007694D02*
X024158Y007732D01*
X024059Y007732D01*
X023967Y007694D01*
X023897Y007624D01*
X023859Y007533D01*
X023859Y007434D01*
X023897Y007342D01*
X023967Y007272D01*
X024059Y007234D01*
X024158Y007234D01*
X024249Y007272D01*
X024319Y007342D01*
X024357Y007434D01*
X024357Y007533D01*
X024319Y007624D01*
X024249Y007694D01*
X024339Y007575D02*
X024439Y007575D01*
X024422Y007477D02*
X024357Y007477D01*
X024334Y007378D02*
X024444Y007378D01*
X024345Y007280D02*
X024257Y007280D01*
X024039Y007181D02*
X022009Y007181D01*
X022007Y007187D02*
X021937Y007257D01*
X021845Y007295D01*
X021746Y007295D01*
X021655Y007257D01*
X021584Y007187D01*
X021547Y007095D01*
X021547Y006996D01*
X021584Y006905D01*
X021655Y006834D01*
X021746Y006797D01*
X021845Y006797D01*
X021937Y006834D01*
X022007Y006905D01*
X022045Y006996D01*
X022045Y007095D01*
X022007Y007187D01*
X022045Y007083D02*
X023871Y007083D01*
X023748Y006984D02*
X022040Y006984D01*
X021988Y006886D02*
X023065Y006886D01*
X022999Y006787D02*
X021545Y006787D01*
X021545Y006777D02*
X021507Y006686D01*
X021437Y006616D01*
X021345Y006578D01*
X021246Y006578D01*
X021155Y006616D01*
X021084Y006686D01*
X021047Y006777D01*
X021047Y006876D01*
X021084Y006968D01*
X021155Y007038D01*
X021246Y007076D01*
X021345Y007076D01*
X021437Y007038D01*
X021507Y006968D01*
X021545Y006876D01*
X021545Y006777D01*
X021508Y006689D02*
X022984Y006689D01*
X023010Y006590D02*
X021375Y006590D01*
X021216Y006590D02*
X019746Y006590D01*
X019746Y006581D02*
X019677Y006416D01*
X019551Y006289D01*
X019385Y006221D01*
X019206Y006221D01*
X019041Y006289D01*
X018914Y006416D01*
X018846Y006581D01*
X018846Y006760D01*
X018914Y006926D01*
X019041Y007052D01*
X019206Y007121D01*
X019385Y007121D01*
X019551Y007052D01*
X019677Y006926D01*
X019746Y006760D01*
X019746Y006581D01*
X019709Y006492D02*
X023091Y006492D01*
X023375Y006492D02*
X023422Y006492D01*
X023392Y006393D02*
X019655Y006393D01*
X019556Y006295D02*
X023368Y006295D01*
X023359Y006196D02*
X013765Y006196D01*
X013772Y006098D02*
X015151Y006098D01*
X015206Y006121D02*
X015041Y006052D01*
X014914Y005926D01*
X014846Y005760D01*
X014846Y005581D01*
X014914Y005416D01*
X015041Y005289D01*
X015206Y005221D01*
X015385Y005221D01*
X015551Y005289D01*
X015677Y005416D01*
X015746Y005581D01*
X015746Y005760D01*
X015677Y005926D01*
X015551Y006052D01*
X015385Y006121D01*
X015206Y006121D01*
X015246Y006263D02*
X015246Y006621D01*
X014888Y006621D01*
X014896Y006575D01*
X014916Y006513D01*
X014945Y006456D01*
X014983Y006404D01*
X015029Y006358D01*
X015081Y006320D01*
X015138Y006291D01*
X015200Y006271D01*
X015246Y006263D01*
X015246Y006295D02*
X015346Y006295D01*
X015346Y006263D02*
X015392Y006271D01*
X015453Y006291D01*
X015511Y006320D01*
X015563Y006358D01*
X015608Y006404D01*
X015646Y006456D01*
X015676Y006513D01*
X015696Y006575D01*
X015703Y006621D01*
X015346Y006621D01*
X015346Y006721D01*
X015246Y006721D01*
X015246Y007078D01*
X015200Y007071D01*
X015138Y007051D01*
X015081Y007021D01*
X015029Y006983D01*
X014983Y006938D01*
X014945Y006886D01*
X013483Y006886D01*
X013556Y006787D02*
X014902Y006787D01*
X014896Y006767D02*
X014888Y006721D01*
X015246Y006721D01*
X015246Y006621D01*
X015346Y006621D01*
X015346Y006263D01*
X015461Y006295D02*
X016035Y006295D01*
X016041Y006289D02*
X016206Y006221D01*
X016385Y006221D01*
X016551Y006289D01*
X016677Y006416D01*
X016746Y006581D01*
X016746Y006760D01*
X016677Y006926D01*
X016551Y007052D01*
X016385Y007121D01*
X016206Y007121D01*
X016041Y007052D01*
X015914Y006926D01*
X015846Y006760D01*
X015846Y006581D01*
X015914Y006416D01*
X016041Y006289D01*
X015936Y006393D02*
X015598Y006393D01*
X015665Y006492D02*
X015883Y006492D01*
X015846Y006590D02*
X015698Y006590D01*
X015703Y006721D02*
X015346Y006721D01*
X015346Y007078D01*
X015392Y007071D01*
X015453Y007051D01*
X015511Y007021D01*
X015563Y006983D01*
X015608Y006938D01*
X015646Y006886D01*
X015898Y006886D01*
X015857Y006787D02*
X015689Y006787D01*
X015696Y006767D02*
X015676Y006828D01*
X015646Y006886D01*
X015696Y006767D02*
X015703Y006721D01*
X015846Y006689D02*
X015346Y006689D01*
X015346Y006787D02*
X015246Y006787D01*
X015246Y006689D02*
X014036Y006689D01*
X014096Y006590D02*
X014893Y006590D01*
X014927Y006492D02*
X014107Y006492D01*
X014078Y006393D02*
X014993Y006393D01*
X015130Y006295D02*
X013979Y006295D01*
X013771Y005999D02*
X014988Y005999D01*
X014904Y005901D02*
X013771Y005901D01*
X013771Y005802D02*
X014863Y005802D01*
X014846Y005704D02*
X013771Y005704D01*
X013771Y005605D02*
X013804Y005605D01*
X013912Y005605D02*
X014846Y005605D01*
X014876Y005507D02*
X014062Y005507D01*
X014107Y005408D02*
X014921Y005408D01*
X015020Y005310D02*
X014107Y005310D01*
X014064Y005211D02*
X023377Y005211D01*
X023374Y005310D02*
X023068Y005310D01*
X023101Y005342D02*
X023030Y005272D01*
X022939Y005234D01*
X022840Y005234D01*
X022748Y005272D01*
X022678Y005342D01*
X022640Y005434D01*
X022640Y005533D01*
X022678Y005624D01*
X022748Y005694D01*
X022840Y005732D01*
X022939Y005732D01*
X023030Y005694D01*
X023101Y005624D01*
X023138Y005533D01*
X023138Y005434D01*
X023101Y005342D01*
X023128Y005408D02*
X023371Y005408D01*
X023369Y005507D02*
X023138Y005507D01*
X023108Y005605D02*
X023366Y005605D01*
X023363Y005704D02*
X023007Y005704D01*
X022772Y005704D02*
X019746Y005704D01*
X019746Y005760D02*
X019677Y005926D01*
X019551Y006052D01*
X019385Y006121D01*
X019206Y006121D01*
X019041Y006052D01*
X018914Y005926D01*
X018846Y005760D01*
X018846Y005581D01*
X018914Y005416D01*
X019041Y005289D01*
X019206Y005221D01*
X019385Y005221D01*
X019551Y005289D01*
X019677Y005416D01*
X019746Y005581D01*
X019746Y005760D01*
X019728Y005802D02*
X023360Y005802D01*
X023358Y005901D02*
X019687Y005901D01*
X019603Y005999D02*
X023355Y005999D01*
X023351Y006098D02*
X019440Y006098D01*
X019151Y006098D02*
X018440Y006098D01*
X018385Y006121D02*
X018206Y006121D01*
X018041Y006052D01*
X017914Y005926D01*
X017846Y005760D01*
X017846Y005581D01*
X017914Y005416D01*
X018041Y005289D01*
X018206Y005221D01*
X018385Y005221D01*
X018551Y005289D01*
X018677Y005416D01*
X018746Y005581D01*
X018746Y005760D01*
X018677Y005926D01*
X018551Y006052D01*
X018385Y006121D01*
X018346Y006263D02*
X018392Y006271D01*
X018453Y006291D01*
X018511Y006320D01*
X018563Y006358D01*
X018608Y006404D01*
X018646Y006456D01*
X018676Y006513D01*
X018696Y006575D01*
X018703Y006621D01*
X018346Y006621D01*
X018346Y006721D01*
X018703Y006721D01*
X018696Y006767D01*
X018676Y006828D01*
X018646Y006886D01*
X018898Y006886D01*
X018857Y006787D02*
X018689Y006787D01*
X018646Y006886D02*
X018608Y006938D01*
X018563Y006983D01*
X018511Y007021D01*
X018453Y007051D01*
X018392Y007071D01*
X018346Y007078D01*
X018346Y006721D01*
X018246Y006721D01*
X018246Y007078D01*
X018200Y007071D01*
X018138Y007051D01*
X018081Y007021D01*
X018029Y006983D01*
X017983Y006938D01*
X017945Y006886D01*
X017694Y006886D01*
X017677Y006926D02*
X017551Y007052D01*
X017385Y007121D01*
X017206Y007121D01*
X017041Y007052D01*
X016914Y006926D01*
X016846Y006760D01*
X016846Y006581D01*
X016914Y006416D01*
X017041Y006289D01*
X017206Y006221D01*
X017385Y006221D01*
X017551Y006289D01*
X017677Y006416D01*
X017746Y006581D01*
X017746Y006760D01*
X017677Y006926D01*
X017618Y006984D02*
X018030Y006984D01*
X017945Y006886D02*
X017916Y006828D01*
X017896Y006767D01*
X017888Y006721D01*
X018246Y006721D01*
X018246Y006621D01*
X018346Y006621D01*
X018346Y006263D01*
X018346Y006295D02*
X018246Y006295D01*
X018246Y006263D02*
X018246Y006621D01*
X017888Y006621D01*
X017896Y006575D01*
X017916Y006513D01*
X017945Y006456D01*
X017983Y006404D01*
X018029Y006358D01*
X018081Y006320D01*
X018138Y006291D01*
X018200Y006271D01*
X018246Y006263D01*
X018130Y006295D02*
X017556Y006295D01*
X017655Y006393D02*
X017993Y006393D01*
X017927Y006492D02*
X017709Y006492D01*
X017746Y006590D02*
X017893Y006590D01*
X017746Y006689D02*
X018246Y006689D01*
X018246Y006787D02*
X018346Y006787D01*
X018346Y006689D02*
X018846Y006689D01*
X018846Y006590D02*
X018698Y006590D01*
X018665Y006492D02*
X018883Y006492D01*
X018936Y006393D02*
X018598Y006393D01*
X018461Y006295D02*
X019035Y006295D01*
X018988Y005999D02*
X018603Y005999D01*
X018687Y005901D02*
X018904Y005901D01*
X018863Y005802D02*
X018728Y005802D01*
X018746Y005704D02*
X018846Y005704D01*
X018846Y005605D02*
X018746Y005605D01*
X018715Y005507D02*
X018876Y005507D01*
X018921Y005408D02*
X018670Y005408D01*
X018571Y005310D02*
X019020Y005310D01*
X019571Y005310D02*
X022710Y005310D01*
X022651Y005408D02*
X019670Y005408D01*
X019715Y005507D02*
X022640Y005507D01*
X022670Y005605D02*
X019746Y005605D01*
X018346Y006393D02*
X018246Y006393D01*
X018246Y006492D02*
X018346Y006492D01*
X018346Y006590D02*
X018246Y006590D01*
X017902Y006787D02*
X017734Y006787D01*
X017476Y007083D02*
X019115Y007083D01*
X018973Y006984D02*
X018561Y006984D01*
X018346Y006984D02*
X018246Y006984D01*
X018246Y006886D02*
X018346Y006886D01*
X019476Y007083D02*
X021547Y007083D01*
X021551Y006984D02*
X021490Y006984D01*
X021541Y006886D02*
X021603Y006886D01*
X021582Y007181D02*
X013105Y007181D01*
X013262Y007083D02*
X016115Y007083D01*
X015973Y006984D02*
X015561Y006984D01*
X015346Y006984D02*
X015246Y006984D01*
X015246Y006886D02*
X015346Y006886D01*
X015030Y006984D02*
X013387Y006984D01*
X013617Y006689D02*
X013680Y006689D01*
X012915Y007378D02*
X014951Y007378D01*
X014889Y007477D02*
X012951Y007477D01*
X012946Y007575D02*
X014235Y007575D01*
X014136Y007674D02*
X012895Y007674D01*
X012509Y007674D02*
X012477Y007674D01*
X012477Y007772D02*
X014038Y007772D01*
X013939Y007871D02*
X012477Y007871D01*
X012477Y007969D02*
X013841Y007969D01*
X013742Y008068D02*
X012477Y008068D01*
X012477Y008166D02*
X013671Y008166D01*
X013671Y008265D02*
X012477Y008265D01*
X012477Y008363D02*
X013671Y008363D01*
X013671Y008462D02*
X012477Y008462D01*
X012477Y008560D02*
X013671Y008560D01*
X013671Y008659D02*
X012477Y008659D01*
X012477Y008757D02*
X013671Y008757D01*
X013671Y008856D02*
X012477Y008856D01*
X012477Y008954D02*
X013305Y008954D01*
X013309Y008953D02*
X013408Y008953D01*
X013499Y008991D01*
X013569Y009061D01*
X013607Y009152D01*
X013607Y009251D01*
X013569Y009343D01*
X013499Y009413D01*
X013443Y009436D01*
X013499Y009459D01*
X013569Y009530D01*
X013607Y009621D01*
X013607Y009720D01*
X013569Y009812D01*
X013499Y009882D01*
X013443Y009905D01*
X013499Y009928D01*
X013569Y009998D01*
X013607Y010090D01*
X013607Y010189D01*
X013569Y010280D01*
X013499Y010351D01*
X013408Y010388D01*
X013309Y010388D01*
X013217Y010351D01*
X013147Y010280D01*
X013109Y010189D01*
X013109Y010090D01*
X013147Y009998D01*
X013217Y009928D01*
X013273Y009905D01*
X013217Y009882D01*
X013147Y009812D01*
X013109Y009720D01*
X013109Y009621D01*
X013147Y009530D01*
X013217Y009459D01*
X013273Y009436D01*
X013217Y009413D01*
X013147Y009343D01*
X013109Y009251D01*
X013109Y009152D01*
X013147Y009061D01*
X013217Y008991D01*
X013309Y008953D01*
X013411Y008954D02*
X013671Y008954D01*
X013671Y009053D02*
X013561Y009053D01*
X013607Y009151D02*
X013671Y009151D01*
X013671Y009250D02*
X013607Y009250D01*
X013564Y009348D02*
X013671Y009348D01*
X013671Y009447D02*
X013469Y009447D01*
X013576Y009545D02*
X013671Y009545D01*
X013671Y009644D02*
X013607Y009644D01*
X013598Y009742D02*
X013671Y009742D01*
X013671Y009841D02*
X013540Y009841D01*
X013510Y009939D02*
X013671Y009939D01*
X013671Y010038D02*
X013586Y010038D01*
X013607Y010136D02*
X013671Y010136D01*
X013671Y010235D02*
X013588Y010235D01*
X013516Y010333D02*
X013671Y010333D01*
X013671Y010432D02*
X012477Y010432D01*
X012477Y010530D02*
X013671Y010530D01*
X013671Y010629D02*
X012477Y010629D01*
X012477Y010727D02*
X013671Y010727D01*
X013671Y010826D02*
X012477Y010826D01*
X012477Y010924D02*
X013671Y010924D01*
X013671Y011023D02*
X012477Y011023D01*
X012477Y011121D02*
X013211Y011121D01*
X013178Y011155D02*
X013248Y011084D01*
X013340Y011047D01*
X013439Y011047D01*
X013530Y011084D01*
X013601Y011155D01*
X013638Y011246D01*
X013638Y011345D01*
X013601Y011437D01*
X013530Y011507D01*
X013439Y011545D01*
X013340Y011545D01*
X013248Y011507D01*
X013178Y011437D01*
X013140Y011345D01*
X013140Y011246D01*
X013178Y011155D01*
X013151Y011220D02*
X012477Y011220D01*
X012477Y011318D02*
X013140Y011318D01*
X013170Y011417D02*
X012477Y011417D01*
X012477Y011515D02*
X012661Y011515D01*
X012647Y011530D02*
X012717Y011459D01*
X012809Y011422D01*
X012908Y011422D01*
X012999Y011459D01*
X013069Y011530D01*
X013107Y011621D01*
X013107Y011720D01*
X013069Y011812D01*
X012999Y011882D01*
X012908Y011920D01*
X012809Y011920D01*
X012717Y011882D01*
X012647Y011812D01*
X012609Y011720D01*
X012609Y011621D01*
X012647Y011530D01*
X012612Y011614D02*
X012477Y011614D01*
X012477Y011712D02*
X012609Y011712D01*
X012647Y011811D02*
X012477Y011811D01*
X012477Y011909D02*
X012784Y011909D01*
X012932Y011909D02*
X013671Y011909D01*
X013671Y011811D02*
X013070Y011811D01*
X013107Y011712D02*
X013671Y011712D01*
X013671Y011614D02*
X013104Y011614D01*
X013055Y011515D02*
X013269Y011515D01*
X013510Y011515D02*
X013671Y011515D01*
X013671Y011417D02*
X013609Y011417D01*
X013638Y011318D02*
X013671Y011318D01*
X013671Y011220D02*
X013628Y011220D01*
X013671Y011121D02*
X013567Y011121D01*
X013921Y011121D02*
X016549Y011121D01*
X016590Y011138D02*
X016498Y011101D01*
X016428Y011030D01*
X016408Y010982D01*
X016340Y010982D01*
X016248Y010944D01*
X016178Y010874D01*
X016140Y010783D01*
X016140Y010684D01*
X016178Y010592D01*
X016140Y010501D01*
X016140Y010402D01*
X016178Y010311D01*
X016248Y010241D01*
X016340Y010203D01*
X016439Y010203D01*
X016530Y010241D01*
X016601Y010311D01*
X016638Y010402D01*
X016638Y010501D01*
X016601Y010592D01*
X016621Y010640D01*
X016689Y010640D01*
X016780Y010678D01*
X016842Y010740D01*
X016873Y010709D01*
X016965Y010672D01*
X017064Y010672D01*
X017155Y010709D01*
X017226Y010780D01*
X017263Y010871D01*
X017263Y010970D01*
X017226Y011062D01*
X017155Y011132D01*
X017064Y011170D01*
X016965Y011170D01*
X016873Y011132D01*
X016811Y011070D01*
X016780Y011101D01*
X016689Y011138D01*
X016590Y011138D01*
X016730Y011121D02*
X016863Y011121D01*
X016873Y011209D02*
X016965Y011172D01*
X017064Y011172D01*
X017155Y011209D01*
X017226Y011280D01*
X017263Y011371D01*
X017263Y011470D01*
X017226Y011562D01*
X017155Y011632D01*
X017064Y011670D01*
X016965Y011670D01*
X016873Y011632D01*
X016803Y011562D01*
X016765Y011470D01*
X016765Y011371D01*
X016803Y011280D01*
X016873Y011209D01*
X016863Y011220D02*
X016418Y011220D01*
X016376Y011203D02*
X016468Y011241D01*
X016538Y011311D01*
X016576Y011402D01*
X016576Y011422D01*
X016626Y011422D01*
X016718Y011459D01*
X016788Y011530D01*
X016826Y011621D01*
X016826Y011720D01*
X016788Y011812D01*
X016718Y011882D01*
X016626Y011920D01*
X016527Y011920D01*
X016436Y011882D01*
X016366Y011812D01*
X016328Y011720D01*
X016328Y011701D01*
X016277Y011701D01*
X016186Y011663D01*
X016116Y011593D01*
X016078Y011501D01*
X016078Y011402D01*
X016116Y011311D01*
X016186Y011241D01*
X016277Y011203D01*
X016376Y011203D01*
X016236Y011220D02*
X013921Y011220D01*
X013921Y011318D02*
X016113Y011318D01*
X016078Y011417D02*
X013921Y011417D01*
X013921Y011515D02*
X016084Y011515D01*
X016137Y011614D02*
X013921Y011614D01*
X013921Y011712D02*
X016328Y011712D01*
X016365Y011811D02*
X013921Y011811D01*
X013921Y011909D02*
X016502Y011909D01*
X016533Y011953D02*
X016624Y011991D01*
X016694Y012061D01*
X016732Y012152D01*
X016732Y012251D01*
X016694Y012343D01*
X016624Y012413D01*
X016533Y012451D01*
X016434Y012451D01*
X016342Y012413D01*
X016272Y012343D01*
X016234Y012251D01*
X016234Y012152D01*
X016272Y012061D01*
X016342Y011991D01*
X016434Y011953D01*
X016533Y011953D01*
X016641Y012008D02*
X018251Y012008D01*
X018248Y012007D02*
X018178Y011937D01*
X018140Y011845D01*
X018140Y011746D01*
X018178Y011655D01*
X018248Y011584D01*
X018340Y011547D01*
X018439Y011547D01*
X018530Y011584D01*
X018601Y011655D01*
X018638Y011746D01*
X018638Y011845D01*
X018601Y011937D01*
X018530Y012007D01*
X018439Y012045D01*
X018340Y012045D01*
X018248Y012007D01*
X018167Y011909D02*
X016651Y011909D01*
X016788Y011811D02*
X018140Y011811D01*
X018154Y011712D02*
X016826Y011712D01*
X016823Y011614D02*
X016855Y011614D01*
X016784Y011515D02*
X016774Y011515D01*
X016765Y011417D02*
X016576Y011417D01*
X016541Y011318D02*
X016787Y011318D01*
X017166Y011220D02*
X018086Y011220D01*
X018092Y011226D02*
X018022Y011155D01*
X017984Y011064D01*
X017984Y010965D01*
X018022Y010873D01*
X018092Y010803D01*
X018184Y010765D01*
X018252Y010765D01*
X018272Y010717D01*
X018342Y010647D01*
X018434Y010609D01*
X018502Y010609D01*
X018522Y010561D01*
X018592Y010491D01*
X018684Y010453D01*
X018752Y010453D01*
X018772Y010405D01*
X018842Y010334D01*
X018934Y010297D01*
X019033Y010297D01*
X019124Y010334D01*
X019194Y010405D01*
X019232Y010496D01*
X019232Y010595D01*
X019194Y010687D01*
X019124Y010757D01*
X019033Y010795D01*
X018964Y010795D01*
X018944Y010843D01*
X018874Y010913D01*
X018783Y010951D01*
X018714Y010951D01*
X018694Y010999D01*
X018624Y011069D01*
X018533Y011107D01*
X018464Y011107D01*
X018444Y011155D01*
X018374Y011226D01*
X018283Y011263D01*
X018184Y011263D01*
X018092Y011226D01*
X018008Y011121D02*
X017166Y011121D01*
X017242Y011023D02*
X017984Y011023D01*
X018001Y010924D02*
X017263Y010924D01*
X017245Y010826D02*
X018069Y010826D01*
X018268Y010727D02*
X017173Y010727D01*
X016855Y010727D02*
X016830Y010727D01*
X016616Y010629D02*
X018386Y010629D01*
X018552Y010530D02*
X016626Y010530D01*
X016638Y010432D02*
X018761Y010432D01*
X018845Y010333D02*
X016610Y010333D01*
X016516Y010235D02*
X019664Y010235D01*
X019647Y010218D02*
X019609Y010126D01*
X019609Y010027D01*
X019647Y009936D01*
X019717Y009866D01*
X019735Y009858D01*
X019717Y009851D01*
X019647Y009780D01*
X019609Y009689D01*
X019609Y009590D01*
X019647Y009498D01*
X019717Y009428D01*
X019809Y009390D01*
X019908Y009390D01*
X019999Y009428D01*
X020069Y009498D01*
X020107Y009590D01*
X020107Y009689D01*
X020069Y009780D01*
X019999Y009851D01*
X019981Y009858D01*
X019999Y009866D01*
X020069Y009936D01*
X020107Y010027D01*
X020107Y010126D01*
X020069Y010218D01*
X019999Y010288D01*
X019908Y010326D01*
X019809Y010326D01*
X019717Y010288D01*
X019647Y010218D01*
X019613Y010136D02*
X013921Y010136D01*
X013921Y010038D02*
X019609Y010038D01*
X019645Y009939D02*
X013921Y009939D01*
X013921Y009841D02*
X019707Y009841D01*
X019631Y009742D02*
X016458Y009742D01*
X016499Y009726D02*
X016408Y009763D01*
X016309Y009763D01*
X016217Y009726D01*
X016147Y009655D01*
X016109Y009564D01*
X016109Y009465D01*
X016147Y009373D01*
X016209Y009311D01*
X016147Y009249D01*
X016109Y009158D01*
X016109Y009059D01*
X016147Y008967D01*
X016217Y008897D01*
X016309Y008859D01*
X016408Y008859D01*
X016499Y008897D01*
X016569Y008967D01*
X016607Y009059D01*
X016607Y009158D01*
X016601Y009172D01*
X016689Y009172D01*
X016780Y009209D01*
X016851Y009280D01*
X016888Y009371D01*
X016888Y009470D01*
X016851Y009562D01*
X016780Y009632D01*
X016689Y009670D01*
X016590Y009670D01*
X016565Y009659D01*
X016499Y009726D01*
X016258Y009742D02*
X013921Y009742D01*
X013921Y009644D02*
X016142Y009644D01*
X016109Y009545D02*
X015679Y009545D01*
X015655Y009569D02*
X015564Y009607D01*
X015465Y009607D01*
X015373Y009569D01*
X015303Y009499D01*
X015265Y009408D01*
X015265Y009309D01*
X015303Y009217D01*
X015373Y009147D01*
X015465Y009109D01*
X015564Y009109D01*
X015655Y009147D01*
X015726Y009217D01*
X015763Y009309D01*
X015763Y009408D01*
X015726Y009499D01*
X015655Y009569D01*
X015747Y009447D02*
X016116Y009447D01*
X016172Y009348D02*
X015763Y009348D01*
X015739Y009250D02*
X016148Y009250D01*
X016109Y009151D02*
X015660Y009151D01*
X015551Y009052D02*
X015385Y009121D01*
X015206Y009121D01*
X015041Y009052D01*
X014914Y008926D01*
X014846Y008760D01*
X014846Y008686D01*
X014819Y008749D01*
X014749Y008819D01*
X014658Y008857D01*
X014559Y008857D01*
X014467Y008819D01*
X014397Y008749D01*
X014359Y008658D01*
X014359Y008559D01*
X014397Y008467D01*
X014467Y008397D01*
X014559Y008359D01*
X014658Y008359D01*
X014749Y008397D01*
X014819Y008467D01*
X014856Y008556D01*
X014914Y008416D01*
X015041Y008289D01*
X015206Y008221D01*
X015385Y008221D01*
X015551Y008289D01*
X015677Y008416D01*
X015746Y008581D01*
X015746Y008760D01*
X015677Y008926D01*
X015551Y009052D01*
X015549Y009053D02*
X016111Y009053D01*
X016160Y008954D02*
X015648Y008954D01*
X015706Y008856D02*
X019803Y008856D01*
X019797Y008871D02*
X019834Y008780D01*
X019905Y008709D01*
X019996Y008672D01*
X020095Y008672D01*
X020187Y008709D01*
X020257Y008780D01*
X020264Y008798D01*
X020272Y008780D01*
X020342Y008709D01*
X020434Y008672D01*
X020533Y008672D01*
X020624Y008709D01*
X020694Y008780D01*
X020732Y008871D01*
X020732Y008970D01*
X020694Y009062D01*
X020624Y009132D01*
X020533Y009170D01*
X020434Y009170D01*
X020342Y009132D01*
X020272Y009062D01*
X020264Y009043D01*
X020257Y009062D01*
X020187Y009132D01*
X020095Y009170D01*
X019996Y009170D01*
X019905Y009132D01*
X019834Y009062D01*
X019797Y008970D01*
X019797Y008871D01*
X019797Y008954D02*
X016557Y008954D01*
X016605Y009053D02*
X019831Y009053D01*
X019952Y009151D02*
X016607Y009151D01*
X016821Y009250D02*
X018677Y009250D01*
X018715Y009234D02*
X018814Y009234D01*
X018905Y009272D01*
X018976Y009342D01*
X019013Y009434D01*
X019013Y009533D01*
X018976Y009624D01*
X018905Y009694D01*
X018814Y009732D01*
X018715Y009732D01*
X018623Y009694D01*
X018553Y009624D01*
X018515Y009533D01*
X018515Y009434D01*
X018553Y009342D01*
X018623Y009272D01*
X018715Y009234D01*
X018852Y009250D02*
X022327Y009250D01*
X022327Y009348D02*
X018978Y009348D01*
X019013Y009447D02*
X019698Y009447D01*
X019627Y009545D02*
X019008Y009545D01*
X018956Y009644D02*
X019609Y009644D01*
X020009Y009841D02*
X020207Y009841D01*
X020217Y009851D02*
X020147Y009780D01*
X020109Y009689D01*
X020109Y009590D01*
X020147Y009498D01*
X020217Y009428D01*
X020309Y009390D01*
X020408Y009390D01*
X020499Y009428D01*
X020569Y009498D01*
X020607Y009590D01*
X020607Y009689D01*
X020569Y009780D01*
X020499Y009851D01*
X020481Y009858D01*
X020499Y009866D01*
X020569Y009936D01*
X020607Y010027D01*
X020607Y010126D01*
X020569Y010218D01*
X020499Y010288D01*
X020408Y010326D01*
X020309Y010326D01*
X020217Y010288D01*
X020147Y010218D01*
X020109Y010126D01*
X020109Y010027D01*
X020147Y009936D01*
X020217Y009866D01*
X020235Y009858D01*
X020217Y009851D01*
X020145Y009939D02*
X020071Y009939D01*
X020107Y010038D02*
X020109Y010038D01*
X020103Y010136D02*
X020113Y010136D01*
X020164Y010235D02*
X020052Y010235D01*
X020552Y010235D02*
X022327Y010235D01*
X022327Y010333D02*
X019122Y010333D01*
X019206Y010432D02*
X022327Y010432D01*
X022327Y010530D02*
X019232Y010530D01*
X019218Y010629D02*
X022327Y010629D01*
X022327Y010727D02*
X019154Y010727D01*
X018951Y010826D02*
X022327Y010826D01*
X022327Y010924D02*
X018847Y010924D01*
X018671Y011023D02*
X022327Y011023D01*
X022327Y011121D02*
X018458Y011121D01*
X018380Y011220D02*
X018957Y011220D01*
X018967Y011209D02*
X019059Y011172D01*
X019158Y011172D01*
X019249Y011209D01*
X019319Y011280D01*
X019357Y011371D01*
X019357Y011470D01*
X019319Y011562D01*
X019249Y011632D01*
X019158Y011670D01*
X019059Y011670D01*
X018967Y011632D01*
X018897Y011562D01*
X018859Y011470D01*
X018859Y011371D01*
X018897Y011280D01*
X018967Y011209D01*
X018881Y011318D02*
X017242Y011318D01*
X017263Y011417D02*
X018859Y011417D01*
X018878Y011515D02*
X017245Y011515D01*
X017173Y011614D02*
X018219Y011614D01*
X018560Y011614D02*
X018949Y011614D01*
X019267Y011614D02*
X021221Y011614D01*
X021217Y011616D02*
X021309Y011578D01*
X021408Y011578D01*
X021499Y011616D01*
X021569Y011686D01*
X021607Y011777D01*
X021607Y011876D01*
X021569Y011968D01*
X021499Y012038D01*
X021408Y012076D01*
X021309Y012076D01*
X021217Y012038D01*
X021147Y011968D01*
X021109Y011876D01*
X021109Y011777D01*
X021147Y011686D01*
X021217Y011616D01*
X021136Y011712D02*
X018624Y011712D01*
X018638Y011811D02*
X019553Y011811D01*
X019561Y011803D02*
X019652Y011765D01*
X019751Y011765D01*
X019843Y011803D01*
X019913Y011873D01*
X019951Y011965D01*
X019951Y012064D01*
X019913Y012155D01*
X019843Y012226D01*
X019751Y012263D01*
X019652Y012263D01*
X019561Y012226D01*
X019491Y012155D01*
X019453Y012064D01*
X019453Y011965D01*
X019491Y011873D01*
X019561Y011803D01*
X019476Y011909D02*
X018612Y011909D01*
X018528Y012008D02*
X019453Y012008D01*
X019470Y012106D02*
X016713Y012106D01*
X016732Y012205D02*
X019540Y012205D01*
X019864Y012205D02*
X022327Y012205D01*
X022327Y012303D02*
X016711Y012303D01*
X016717Y012397D02*
X016809Y012359D01*
X016908Y012359D01*
X016999Y012397D01*
X017069Y012467D01*
X017107Y012559D01*
X017107Y012658D01*
X017069Y012749D01*
X016999Y012819D01*
X016977Y012828D01*
X016982Y012840D01*
X016982Y012939D01*
X016944Y013030D01*
X016874Y013101D01*
X016783Y013138D01*
X016684Y013138D01*
X016592Y013101D01*
X016550Y013058D01*
X016576Y013121D01*
X016576Y013220D01*
X016538Y013312D01*
X016468Y013382D01*
X016447Y013390D01*
X016505Y013390D01*
X016596Y013428D01*
X016666Y013498D01*
X016704Y013590D01*
X016704Y013689D01*
X016666Y013780D01*
X016596Y013851D01*
X016505Y013888D01*
X016406Y013888D01*
X016314Y013851D01*
X016244Y013780D01*
X016206Y013689D01*
X016206Y013590D01*
X016244Y013498D01*
X016314Y013428D01*
X016335Y013420D01*
X016277Y013420D01*
X016186Y013382D01*
X016116Y013312D01*
X016078Y013220D01*
X016078Y013121D01*
X016116Y013030D01*
X016186Y012959D01*
X016277Y012922D01*
X016376Y012922D01*
X016468Y012959D01*
X016510Y013002D01*
X016484Y012939D01*
X016484Y012840D01*
X016522Y012748D01*
X016592Y012678D01*
X016614Y012669D01*
X016609Y012658D01*
X016609Y012559D01*
X016647Y012467D01*
X016717Y012397D01*
X016712Y012402D02*
X016635Y012402D01*
X016633Y012500D02*
X014599Y012500D01*
X014593Y012507D02*
X014501Y012545D01*
X014402Y012545D01*
X014311Y012507D01*
X014241Y012437D01*
X014203Y012345D01*
X014203Y012246D01*
X014241Y012155D01*
X014311Y012084D01*
X014402Y012047D01*
X014501Y012047D01*
X014593Y012084D01*
X014663Y012155D01*
X014701Y012246D01*
X014701Y012345D01*
X014663Y012437D01*
X014593Y012507D01*
X014677Y012402D02*
X016331Y012402D01*
X016256Y012303D02*
X014701Y012303D01*
X014684Y012205D02*
X016234Y012205D01*
X016253Y012106D02*
X014615Y012106D01*
X014289Y012106D02*
X013921Y012106D01*
X013921Y012008D02*
X016325Y012008D01*
X016609Y012599D02*
X013921Y012599D01*
X013921Y012697D02*
X016573Y012697D01*
X016502Y012796D02*
X013921Y012796D01*
X013921Y012894D02*
X016484Y012894D01*
X016501Y012993D02*
X016506Y012993D01*
X016564Y013091D02*
X016583Y013091D01*
X016576Y013190D02*
X018244Y013190D01*
X018234Y013215D02*
X018272Y013123D01*
X018342Y013053D01*
X018434Y013015D01*
X018533Y013015D01*
X018624Y013053D01*
X018694Y013123D01*
X018732Y013215D01*
X018732Y013314D01*
X018694Y013405D01*
X018624Y013476D01*
X018533Y013513D01*
X018434Y013513D01*
X018342Y013476D01*
X018272Y013405D01*
X018234Y013314D01*
X018234Y013215D01*
X018234Y013288D02*
X016548Y013288D01*
X016456Y013387D02*
X018264Y013387D01*
X018366Y013485D02*
X017505Y013485D01*
X017501Y013484D02*
X017593Y013522D01*
X017663Y013592D01*
X017701Y013684D01*
X017701Y013783D01*
X017663Y013874D01*
X017593Y013944D01*
X017501Y013982D01*
X017402Y013982D01*
X017311Y013944D01*
X017241Y013874D01*
X017203Y013783D01*
X017203Y013684D01*
X017241Y013592D01*
X017311Y013522D01*
X017402Y013484D01*
X017501Y013484D01*
X017399Y013485D02*
X016653Y013485D01*
X016702Y013584D02*
X017249Y013584D01*
X017203Y013682D02*
X016704Y013682D01*
X016666Y013781D02*
X017203Y013781D01*
X017246Y013879D02*
X016526Y013879D01*
X016384Y013879D02*
X016325Y013879D01*
X016351Y013905D02*
X016388Y013996D01*
X016388Y014095D01*
X016351Y014187D01*
X016280Y014257D01*
X016189Y014295D01*
X016090Y014295D01*
X015998Y014257D01*
X015928Y014187D01*
X015890Y014095D01*
X015890Y013996D01*
X015928Y013905D01*
X015998Y013834D01*
X016090Y013797D01*
X016189Y013797D01*
X016280Y013834D01*
X016351Y013905D01*
X016381Y013978D02*
X017392Y013978D01*
X017512Y013978D02*
X019298Y013978D01*
X019309Y013982D02*
X019217Y013944D01*
X019147Y013874D01*
X019127Y013826D01*
X019059Y013826D01*
X018967Y013788D01*
X018897Y013718D01*
X018859Y013626D01*
X018859Y013527D01*
X018897Y013436D01*
X018967Y013366D01*
X019059Y013328D01*
X019158Y013328D01*
X019249Y013366D01*
X019319Y013436D01*
X019339Y013484D01*
X019408Y013484D01*
X019499Y013522D01*
X019569Y013592D01*
X019599Y013664D01*
X019616Y013623D01*
X019686Y013553D01*
X019777Y013515D01*
X019876Y013515D01*
X019968Y013553D01*
X020038Y013623D01*
X020076Y013715D01*
X020076Y013814D01*
X020038Y013905D01*
X019968Y013976D01*
X019876Y014013D01*
X019777Y014013D01*
X019686Y013976D01*
X019616Y013905D01*
X019586Y013834D01*
X019569Y013874D01*
X019499Y013944D01*
X019408Y013982D01*
X019309Y013982D01*
X019418Y013978D02*
X019692Y013978D01*
X019748Y014053D02*
X019678Y014123D01*
X019640Y014215D01*
X019640Y014314D01*
X019678Y014405D01*
X019748Y014476D01*
X019782Y014490D01*
X019780Y014491D01*
X019709Y014561D01*
X019672Y014652D01*
X019672Y014751D01*
X019709Y014843D01*
X019780Y014913D01*
X019801Y014922D01*
X019797Y014934D01*
X019797Y015033D01*
X019834Y015124D01*
X019905Y015194D01*
X019996Y015232D01*
X020095Y015232D01*
X020187Y015194D01*
X020257Y015124D01*
X020295Y015033D01*
X020295Y014934D01*
X020257Y014842D01*
X020187Y014772D01*
X020165Y014763D01*
X020170Y014751D01*
X020170Y014726D01*
X020184Y014732D01*
X020283Y014732D01*
X020374Y014694D01*
X020444Y014624D01*
X020482Y014533D01*
X020482Y014513D01*
X020501Y014513D01*
X020593Y014476D01*
X020663Y014405D01*
X020701Y014314D01*
X020701Y014215D01*
X020663Y014123D01*
X020593Y014053D01*
X020501Y014015D01*
X020402Y014015D01*
X020311Y014053D01*
X020241Y014123D01*
X020203Y014215D01*
X020203Y014234D01*
X020184Y014234D01*
X020138Y014253D01*
X020138Y014215D01*
X020101Y014123D01*
X020030Y014053D01*
X019939Y014015D01*
X019840Y014015D01*
X019748Y014053D01*
X019725Y014076D02*
X016388Y014076D01*
X016355Y014175D02*
X019657Y014175D01*
X019640Y014273D02*
X016240Y014273D01*
X016038Y014273D02*
X013921Y014273D01*
X013921Y014175D02*
X015923Y014175D01*
X015890Y014076D02*
X013921Y014076D01*
X013921Y013978D02*
X015898Y013978D01*
X015953Y013879D02*
X013921Y013879D01*
X013921Y013781D02*
X016244Y013781D01*
X016206Y013682D02*
X013921Y013682D01*
X013921Y013584D02*
X016208Y013584D01*
X016257Y013485D02*
X013921Y013485D01*
X013921Y013387D02*
X016198Y013387D01*
X016106Y013288D02*
X013921Y013288D01*
X013921Y013190D02*
X016078Y013190D01*
X016090Y013091D02*
X013921Y013091D01*
X013921Y012993D02*
X016152Y012993D01*
X016883Y013091D02*
X018304Y013091D01*
X018277Y012888D02*
X018186Y012851D01*
X018116Y012780D01*
X018078Y012689D01*
X018078Y012590D01*
X018116Y012498D01*
X018186Y012428D01*
X018277Y012390D01*
X018376Y012390D01*
X018468Y012428D01*
X018538Y012498D01*
X018576Y012590D01*
X018576Y012689D01*
X018538Y012780D01*
X018468Y012851D01*
X018376Y012888D01*
X018277Y012888D01*
X018131Y012796D02*
X017023Y012796D01*
X016982Y012894D02*
X019578Y012894D01*
X019578Y012871D02*
X019616Y012780D01*
X019686Y012709D01*
X019777Y012672D01*
X019876Y012672D01*
X019968Y012709D01*
X020038Y012780D01*
X020076Y012871D01*
X020076Y012970D01*
X020038Y013062D01*
X019968Y013132D01*
X019876Y013170D01*
X019777Y013170D01*
X019686Y013132D01*
X019616Y013062D01*
X019578Y012970D01*
X019578Y012871D01*
X019609Y012796D02*
X018523Y012796D01*
X018572Y012697D02*
X019715Y012697D01*
X019939Y012697D02*
X020554Y012697D01*
X020547Y012715D02*
X020584Y012623D01*
X020655Y012553D01*
X020746Y012515D01*
X020845Y012515D01*
X020937Y012553D01*
X021007Y012623D01*
X021045Y012715D01*
X021045Y012814D01*
X021007Y012905D01*
X020937Y012976D01*
X020845Y013013D01*
X020746Y013013D01*
X020655Y012976D01*
X020584Y012905D01*
X020547Y012814D01*
X020547Y012715D01*
X020547Y012796D02*
X020045Y012796D01*
X020076Y012894D02*
X020580Y012894D01*
X020697Y012993D02*
X020067Y012993D01*
X020008Y013091D02*
X021990Y013091D01*
X021991Y013093D02*
X021953Y013001D01*
X021953Y012902D01*
X021991Y012811D01*
X022006Y012796D01*
X021045Y012796D01*
X021037Y012697D02*
X021956Y012697D01*
X021953Y012689D02*
X021953Y012590D01*
X021991Y012498D01*
X022061Y012428D01*
X022152Y012390D01*
X022251Y012390D01*
X022327Y012422D01*
X022327Y008733D01*
X022013Y008419D01*
X022045Y008496D01*
X022045Y008595D01*
X022007Y008687D01*
X021937Y008757D01*
X021845Y008795D01*
X021746Y008795D01*
X021655Y008757D01*
X021584Y008687D01*
X021547Y008595D01*
X021547Y008496D01*
X021584Y008405D01*
X021655Y008334D01*
X021746Y008297D01*
X021845Y008297D01*
X021922Y008328D01*
X021546Y007952D01*
X018326Y007952D01*
X018319Y007968D01*
X018249Y008038D01*
X018158Y008076D01*
X018059Y008076D01*
X017967Y008038D01*
X017897Y007968D01*
X017890Y007952D01*
X017576Y007952D01*
X017569Y007968D01*
X017499Y008038D01*
X017408Y008076D01*
X017309Y008076D01*
X017217Y008038D01*
X017147Y007968D01*
X017140Y007952D01*
X016589Y007952D01*
X016607Y007996D01*
X016607Y008095D01*
X016569Y008187D01*
X016499Y008257D01*
X016408Y008295D01*
X016309Y008295D01*
X016217Y008257D01*
X016147Y008187D01*
X016109Y008095D01*
X016109Y007996D01*
X016127Y007952D01*
X015651Y007952D01*
X015551Y008052D01*
X015385Y008121D01*
X015206Y008121D01*
X015041Y008052D01*
X014940Y007952D01*
X014327Y007952D01*
X013921Y008358D01*
X013921Y015829D01*
X014795Y015829D01*
X014909Y015877D01*
X014996Y015964D01*
X015140Y016108D01*
X015140Y016027D01*
X015178Y015936D01*
X015140Y015845D01*
X015140Y015746D01*
X015178Y015655D01*
X015140Y015564D01*
X015140Y015465D01*
X015178Y015374D01*
X015140Y015283D01*
X015140Y015184D01*
X015178Y015092D01*
X015248Y015022D01*
X015340Y014984D01*
X015439Y014984D01*
X015530Y015022D01*
X015601Y015092D01*
X015638Y015184D01*
X015638Y015283D01*
X015601Y015374D01*
X015638Y015465D01*
X015638Y015564D01*
X015601Y015655D01*
X015638Y015746D01*
X015638Y015845D01*
X015601Y015936D01*
X015638Y016027D01*
X015638Y016126D01*
X015601Y016218D01*
X015549Y016269D01*
X015559Y016265D01*
X015658Y016265D01*
X015749Y016303D01*
X015819Y016373D01*
X015842Y016429D01*
X015866Y016373D01*
X015936Y016303D01*
X016027Y016265D01*
X016126Y016265D01*
X016218Y016303D01*
X016249Y016334D01*
X016280Y016303D01*
X016371Y016265D01*
X016470Y016265D01*
X016562Y016303D01*
X016632Y016373D01*
X016670Y016465D01*
X016670Y016564D01*
X016632Y016655D01*
X016562Y016726D01*
X016470Y016763D01*
X016371Y016763D01*
X016280Y016726D01*
X016249Y016695D01*
X016218Y016726D01*
X016126Y016763D01*
X016027Y016763D01*
X015936Y016726D01*
X015866Y016655D01*
X015842Y016599D01*
X015819Y016655D01*
X015749Y016726D01*
X015658Y016763D01*
X015559Y016763D01*
X015467Y016726D01*
X015397Y016655D01*
X015359Y016564D01*
X015359Y016465D01*
X015397Y016373D01*
X015448Y016322D01*
X015439Y016326D01*
X015340Y016326D01*
X015283Y016302D01*
X015293Y016328D01*
X015293Y016451D01*
X015246Y016565D01*
X015159Y016652D01*
X015045Y016699D01*
X014921Y016699D01*
X014808Y016652D01*
X014605Y016449D01*
X014512Y016449D01*
X014545Y016527D01*
X014545Y016626D01*
X014507Y016718D01*
X014437Y016788D01*
X014345Y016826D01*
X014246Y016826D01*
X014155Y016788D01*
X014084Y016718D01*
X014047Y016626D01*
X014047Y016527D01*
X014079Y016449D01*
X013921Y016449D01*
X013921Y017359D01*
X013970Y017359D01*
X014062Y017397D01*
X014132Y017467D01*
X014170Y017559D01*
X014170Y017658D01*
X014132Y017749D01*
X014062Y017819D01*
X013970Y017857D01*
X013921Y017857D01*
X013921Y019038D01*
X017029Y019038D01*
X017022Y019030D01*
X016984Y018939D01*
X016984Y018840D01*
X017022Y018748D01*
X017092Y018678D01*
X017184Y018640D01*
X017283Y018640D01*
X017374Y018678D01*
X017444Y018748D01*
X017482Y018840D01*
X017482Y018939D01*
X017444Y019030D01*
X017437Y019038D01*
X018654Y019038D01*
X018647Y019030D01*
X018609Y018939D01*
X018609Y018840D01*
X018647Y018748D01*
X018717Y018678D01*
X018809Y018640D01*
X018908Y018640D01*
X018999Y018678D01*
X019069Y018748D01*
X019107Y018840D01*
X019107Y018939D01*
X019069Y019030D01*
X019062Y019038D01*
X019467Y019038D01*
X019459Y019030D01*
X019422Y018939D01*
X019422Y018851D01*
X019408Y018857D01*
X019309Y018857D01*
X019217Y018819D01*
X019147Y018749D01*
X019109Y018658D01*
X019109Y018559D01*
X019147Y018467D01*
X019217Y018397D01*
X019309Y018359D01*
X019408Y018359D01*
X019499Y018397D01*
X019569Y018467D01*
X019607Y018559D01*
X019607Y018646D01*
X019621Y018640D01*
X019720Y018640D01*
X019812Y018678D01*
X019882Y018748D01*
X019920Y018840D01*
X019920Y018939D01*
X019882Y019030D01*
X019875Y019038D01*
X020967Y019038D01*
X020959Y019030D01*
X020922Y018939D01*
X020922Y018840D01*
X020959Y018748D01*
X021030Y018678D01*
X021121Y018640D01*
X021220Y018640D01*
X021312Y018678D01*
X021382Y018748D01*
X021420Y018840D01*
X021420Y018939D01*
X021382Y019030D01*
X021375Y019038D01*
X022279Y019038D01*
X022272Y019030D01*
X022234Y018939D01*
X022234Y018840D01*
X022272Y018748D01*
X022342Y018678D01*
X022434Y018640D01*
X022533Y018640D01*
X022624Y018678D01*
X022694Y018748D01*
X022732Y018840D01*
X022732Y018939D01*
X022694Y019030D01*
X022687Y019038D01*
X023383Y019038D01*
X023383Y018248D01*
X023374Y018257D01*
X023283Y018295D01*
X023184Y018295D01*
X023144Y018278D01*
X023083Y018426D01*
X022957Y018552D01*
X022791Y018621D01*
X022612Y018621D01*
X022447Y018552D01*
X022320Y018426D01*
X022252Y018260D01*
X022252Y018081D01*
X022320Y017916D01*
X022447Y017789D01*
X022612Y017721D01*
X021284Y017721D01*
X021295Y017746D02*
X021257Y017655D01*
X021187Y017584D01*
X021095Y017547D01*
X020996Y017547D01*
X020905Y017584D01*
X020834Y017655D01*
X020797Y017746D01*
X020797Y017845D01*
X020834Y017937D01*
X020905Y018007D01*
X020996Y018045D01*
X021095Y018045D01*
X021187Y018007D01*
X021257Y017937D01*
X021295Y017845D01*
X021295Y017746D01*
X021295Y017819D02*
X022417Y017819D01*
X022319Y017918D02*
X021265Y017918D01*
X021163Y018016D02*
X022279Y018016D01*
X022252Y018115D02*
X020149Y018115D01*
X020132Y018155D02*
X020062Y018226D01*
X019970Y018263D01*
X019871Y018263D01*
X019780Y018226D01*
X019709Y018155D01*
X019672Y018064D01*
X019672Y017965D01*
X019709Y017873D01*
X019780Y017803D01*
X019871Y017765D01*
X019970Y017765D01*
X020062Y017803D01*
X020132Y017873D01*
X020170Y017965D01*
X020170Y018064D01*
X020132Y018155D01*
X020074Y018213D02*
X022252Y018213D01*
X022273Y018312D02*
X018507Y018312D01*
X018437Y018382D01*
X018345Y018420D01*
X018246Y018420D01*
X018155Y018382D01*
X018092Y018320D01*
X018030Y018382D01*
X017939Y018420D01*
X017840Y018420D01*
X017748Y018382D01*
X017678Y018312D01*
X017640Y018220D01*
X017640Y018121D01*
X017678Y018030D01*
X017748Y017959D01*
X017840Y017922D01*
X017939Y017922D01*
X018030Y017959D01*
X018092Y018022D01*
X018155Y017959D01*
X018246Y017922D01*
X018345Y017922D01*
X018437Y017959D01*
X018507Y018030D01*
X018545Y018121D01*
X018545Y018220D01*
X018507Y018312D01*
X018545Y018213D02*
X019767Y018213D01*
X019693Y018115D02*
X018542Y018115D01*
X018494Y018016D02*
X019672Y018016D01*
X019691Y017918D02*
X016912Y017918D01*
X016937Y017928D02*
X017007Y017998D01*
X017045Y018090D01*
X017045Y018189D01*
X017007Y018280D01*
X016937Y018351D01*
X016845Y018388D01*
X016746Y018388D01*
X016655Y018351D01*
X016584Y018280D01*
X016547Y018189D01*
X016547Y018090D01*
X016584Y017998D01*
X016655Y017928D01*
X016746Y017890D01*
X016845Y017890D01*
X016937Y017928D01*
X017014Y018016D02*
X017691Y018016D01*
X017643Y018115D02*
X017045Y018115D01*
X017035Y018213D02*
X017640Y018213D01*
X017678Y018312D02*
X016975Y018312D01*
X016616Y018312D02*
X013921Y018312D01*
X013921Y018410D02*
X017817Y018410D01*
X017961Y018410D02*
X018224Y018410D01*
X018368Y018410D02*
X019204Y018410D01*
X019130Y018509D02*
X013921Y018509D01*
X013921Y018607D02*
X014850Y018607D01*
X014834Y018623D02*
X014905Y018553D01*
X014996Y018515D01*
X015095Y018515D01*
X015187Y018553D01*
X015257Y018623D01*
X015295Y018715D01*
X015295Y018814D01*
X015257Y018905D01*
X015187Y018976D01*
X015095Y019013D01*
X014996Y019013D01*
X014905Y018976D01*
X014834Y018905D01*
X014797Y018814D01*
X014797Y018715D01*
X014834Y018623D01*
X014800Y018706D02*
X013921Y018706D01*
X013921Y018804D02*
X014797Y018804D01*
X014833Y018903D02*
X013921Y018903D01*
X013921Y019001D02*
X014967Y019001D01*
X015124Y019001D02*
X015592Y019001D01*
X015621Y019013D02*
X015530Y018976D01*
X015459Y018905D01*
X015422Y018814D01*
X015422Y018715D01*
X015459Y018623D01*
X015530Y018553D01*
X015621Y018515D01*
X015720Y018515D01*
X015812Y018553D01*
X015882Y018623D01*
X015920Y018715D01*
X015920Y018814D01*
X015882Y018905D01*
X015812Y018976D01*
X015720Y019013D01*
X015621Y019013D01*
X015749Y019001D02*
X017010Y019001D01*
X016984Y018903D02*
X015883Y018903D01*
X015920Y018804D02*
X016999Y018804D01*
X017064Y018706D02*
X015916Y018706D01*
X015866Y018607D02*
X019109Y018607D01*
X019129Y018706D02*
X019027Y018706D01*
X019093Y018804D02*
X019202Y018804D01*
X019107Y018903D02*
X019422Y018903D01*
X019447Y019001D02*
X019081Y019001D01*
X018635Y019001D02*
X017456Y019001D01*
X017482Y018903D02*
X018609Y018903D01*
X018624Y018804D02*
X017468Y018804D01*
X017402Y018706D02*
X018689Y018706D01*
X019513Y018410D02*
X022314Y018410D01*
X022404Y018509D02*
X019587Y018509D01*
X019607Y018607D02*
X022580Y018607D01*
X022652Y018706D02*
X023383Y018706D01*
X023383Y018804D02*
X022718Y018804D01*
X022732Y018903D02*
X023383Y018903D01*
X023383Y019001D02*
X022706Y019001D01*
X022260Y019001D02*
X021394Y019001D01*
X021420Y018903D02*
X022234Y018903D01*
X022249Y018804D02*
X021405Y018804D01*
X021339Y018706D02*
X022314Y018706D01*
X022823Y018607D02*
X023383Y018607D01*
X023383Y018509D02*
X023000Y018509D01*
X023090Y018410D02*
X023383Y018410D01*
X023383Y018312D02*
X023130Y018312D01*
X023047Y017879D02*
X023092Y017834D01*
X023184Y017797D01*
X023283Y017797D01*
X023374Y017834D01*
X023405Y017865D01*
X023421Y017789D01*
X023418Y017781D01*
X023430Y017749D01*
X023437Y017716D01*
X023444Y017711D01*
X023474Y017632D01*
X023472Y017624D01*
X023488Y017594D01*
X023500Y017562D01*
X023507Y017558D01*
X023548Y017484D01*
X023547Y017476D01*
X023567Y017448D01*
X023584Y017418D01*
X023592Y017416D01*
X023608Y017394D01*
X023608Y017089D01*
X023564Y017107D01*
X023465Y017107D01*
X023373Y017069D01*
X023303Y016999D01*
X023265Y016908D01*
X023265Y016809D01*
X023303Y016717D01*
X023373Y016647D01*
X023465Y016609D01*
X023484Y016609D01*
X023171Y016296D01*
X023137Y016296D01*
X023083Y016426D01*
X022957Y016552D01*
X022791Y016621D01*
X022612Y016621D01*
X022447Y016552D01*
X022320Y016426D01*
X022267Y016296D01*
X022264Y016296D01*
X021952Y015952D01*
X021952Y015140D01*
X021887Y015205D01*
X021887Y015639D01*
X021840Y015752D01*
X021752Y015840D01*
X021639Y015887D01*
X021515Y015887D01*
X021401Y015840D01*
X021314Y015752D01*
X021267Y015639D01*
X021267Y015015D01*
X021314Y014901D01*
X021401Y014814D01*
X022327Y013888D01*
X022327Y013170D01*
X022251Y013201D01*
X022152Y013201D01*
X022061Y013163D01*
X021991Y013093D01*
X021953Y012993D02*
X020895Y012993D01*
X021011Y012894D02*
X021956Y012894D01*
X022006Y012796D02*
X021991Y012780D01*
X021953Y012689D01*
X021953Y012599D02*
X020982Y012599D01*
X020609Y012599D02*
X018576Y012599D01*
X018539Y012500D02*
X021990Y012500D01*
X022124Y012402D02*
X018404Y012402D01*
X018249Y012402D02*
X017004Y012402D01*
X017083Y012500D02*
X018115Y012500D01*
X018078Y012599D02*
X017107Y012599D01*
X017091Y012697D02*
X018081Y012697D01*
X018662Y013091D02*
X019645Y013091D01*
X019587Y012993D02*
X016960Y012993D01*
X017655Y013584D02*
X018859Y013584D01*
X018876Y013485D02*
X018600Y013485D01*
X018702Y013387D02*
X018946Y013387D01*
X018732Y013288D02*
X022327Y013288D01*
X022327Y013190D02*
X022278Y013190D01*
X022126Y013190D02*
X018722Y013190D01*
X019270Y013387D02*
X022327Y013387D01*
X022327Y013485D02*
X019411Y013485D01*
X019561Y013584D02*
X019655Y013584D01*
X019605Y013879D02*
X019564Y013879D01*
X019962Y013978D02*
X022237Y013978D01*
X022327Y013879D02*
X020049Y013879D01*
X020076Y013781D02*
X022327Y013781D01*
X022327Y013682D02*
X020062Y013682D01*
X019999Y013584D02*
X022327Y013584D01*
X022139Y014076D02*
X020616Y014076D01*
X020684Y014175D02*
X022040Y014175D01*
X021942Y014273D02*
X020701Y014273D01*
X020677Y014372D02*
X021843Y014372D01*
X021745Y014470D02*
X020598Y014470D01*
X020467Y014569D02*
X021646Y014569D01*
X021548Y014667D02*
X020401Y014667D01*
X020266Y014864D02*
X021351Y014864D01*
X021289Y014963D02*
X020295Y014963D01*
X020283Y015061D02*
X021267Y015061D01*
X021267Y015160D02*
X020221Y015160D01*
X020373Y015303D02*
X020465Y015265D01*
X020564Y015265D01*
X020655Y015303D01*
X020726Y015373D01*
X020763Y015465D01*
X020763Y015564D01*
X020758Y015578D01*
X020814Y015578D01*
X020905Y015616D01*
X020976Y015686D01*
X021013Y015777D01*
X021013Y015876D01*
X020979Y015960D01*
X020996Y015953D01*
X021095Y015953D01*
X021187Y015991D01*
X021233Y016037D01*
X021280Y015991D01*
X021371Y015953D01*
X021470Y015953D01*
X021562Y015991D01*
X021632Y016061D01*
X021670Y016152D01*
X021670Y016251D01*
X021632Y016343D01*
X021562Y016413D01*
X021470Y016451D01*
X021371Y016451D01*
X021280Y016413D01*
X021233Y016367D01*
X021187Y016413D01*
X021095Y016451D01*
X020996Y016451D01*
X020905Y016413D01*
X020834Y016343D01*
X020797Y016251D01*
X020797Y016152D01*
X020831Y016069D01*
X020814Y016076D01*
X020715Y016076D01*
X020623Y016038D01*
X020553Y015968D01*
X020515Y015876D01*
X020515Y015777D01*
X020521Y015763D01*
X020465Y015763D01*
X020373Y015726D01*
X020303Y015655D01*
X020265Y015564D01*
X020265Y015465D01*
X020303Y015373D01*
X020373Y015303D01*
X020320Y015357D02*
X018964Y015357D01*
X018982Y015314D02*
X018944Y015405D01*
X018874Y015476D01*
X018783Y015513D01*
X018684Y015513D01*
X018682Y015513D01*
X018701Y015559D01*
X018701Y015658D01*
X018663Y015749D01*
X018593Y015819D01*
X018501Y015857D01*
X018402Y015857D01*
X018311Y015819D01*
X018249Y015757D01*
X018187Y015819D01*
X018095Y015857D01*
X017996Y015857D01*
X017905Y015819D01*
X017834Y015749D01*
X017802Y015670D01*
X017746Y015670D01*
X017655Y015632D01*
X017601Y015579D01*
X017533Y015607D01*
X017434Y015607D01*
X017342Y015569D01*
X017311Y015538D01*
X017280Y015569D01*
X017189Y015607D01*
X017090Y015607D01*
X016998Y015569D01*
X016928Y015499D01*
X016890Y015408D01*
X016890Y015309D01*
X016928Y015217D01*
X016998Y015147D01*
X017090Y015109D01*
X017189Y015109D01*
X017280Y015147D01*
X017311Y015178D01*
X017342Y015147D01*
X017434Y015109D01*
X017476Y015109D01*
X017459Y015093D01*
X017422Y015001D01*
X017422Y014902D01*
X017459Y014811D01*
X017530Y014741D01*
X017621Y014703D01*
X017720Y014703D01*
X017812Y014741D01*
X017882Y014811D01*
X017920Y014902D01*
X017920Y015001D01*
X017882Y015093D01*
X017812Y015163D01*
X017791Y015172D01*
X017845Y015172D01*
X017937Y015209D01*
X018007Y015280D01*
X018040Y015359D01*
X018095Y015359D01*
X018187Y015397D01*
X018249Y015459D01*
X018311Y015397D01*
X018402Y015359D01*
X018501Y015359D01*
X018503Y015360D01*
X018484Y015314D01*
X018484Y015215D01*
X018522Y015123D01*
X018537Y015108D01*
X018522Y015093D01*
X018484Y015001D01*
X018484Y014902D01*
X018522Y014811D01*
X018592Y014741D01*
X018684Y014703D01*
X018783Y014703D01*
X018874Y014741D01*
X018944Y014811D01*
X018982Y014902D01*
X018982Y015001D01*
X018944Y015093D01*
X018929Y015108D01*
X018944Y015123D01*
X018982Y015215D01*
X018982Y015314D01*
X018982Y015258D02*
X021267Y015258D01*
X021267Y015357D02*
X020709Y015357D01*
X020760Y015455D02*
X021267Y015455D01*
X021267Y015554D02*
X020763Y015554D01*
X020942Y015652D02*
X021273Y015652D01*
X021313Y015751D02*
X021002Y015751D01*
X021013Y015849D02*
X021425Y015849D01*
X021617Y016046D02*
X022038Y016046D01*
X021952Y015948D02*
X020984Y015948D01*
X020800Y016145D02*
X020091Y016145D01*
X020062Y016116D02*
X020132Y016186D01*
X020152Y016234D01*
X020220Y016234D01*
X020312Y016272D01*
X020382Y016342D01*
X020420Y016434D01*
X020420Y016533D01*
X020382Y016624D01*
X020312Y016694D01*
X020220Y016732D01*
X020121Y016732D01*
X020030Y016694D01*
X019959Y016624D01*
X019939Y016576D01*
X019871Y016576D01*
X019780Y016538D01*
X019709Y016468D01*
X019672Y016376D01*
X019672Y016277D01*
X019709Y016186D01*
X019780Y016116D01*
X019871Y016078D01*
X019970Y016078D01*
X020062Y016116D01*
X020243Y016243D02*
X020797Y016243D01*
X020834Y016342D02*
X020382Y016342D01*
X020420Y016440D02*
X020971Y016440D01*
X021121Y016440D02*
X021346Y016440D01*
X021496Y016440D02*
X022107Y016440D01*
X022152Y016422D02*
X022251Y016422D01*
X022343Y016459D01*
X022413Y016530D01*
X022451Y016621D01*
X022451Y016720D01*
X022413Y016812D01*
X022343Y016882D01*
X022251Y016920D01*
X022152Y016920D01*
X022061Y016882D01*
X021991Y016812D01*
X021953Y016720D01*
X021953Y016621D01*
X021991Y016530D01*
X022061Y016459D01*
X022152Y016422D01*
X022297Y016440D02*
X022335Y016440D01*
X022286Y016342D02*
X021632Y016342D01*
X021670Y016243D02*
X022217Y016243D01*
X022127Y016145D02*
X021667Y016145D01*
X021729Y015849D02*
X021952Y015849D01*
X021952Y015751D02*
X021840Y015751D01*
X021881Y015652D02*
X021952Y015652D01*
X021952Y015554D02*
X021887Y015554D01*
X021887Y015455D02*
X021952Y015455D01*
X021952Y015357D02*
X021887Y015357D01*
X021887Y015258D02*
X021952Y015258D01*
X021952Y015160D02*
X021932Y015160D01*
X022202Y015160D02*
X022652Y015160D01*
X022652Y015121D02*
X022295Y015121D01*
X022302Y015075D01*
X022322Y015013D01*
X022351Y014956D01*
X022389Y014904D01*
X022435Y014858D01*
X022487Y014820D01*
X022544Y014791D01*
X022606Y014771D01*
X022652Y014763D01*
X022652Y015121D01*
X022652Y015221D01*
X022652Y015578D01*
X022606Y015571D01*
X022544Y015551D01*
X022487Y015521D01*
X022435Y015483D01*
X022389Y015438D01*
X022351Y015386D01*
X022322Y015328D01*
X022302Y015267D01*
X022295Y015221D01*
X022652Y015221D01*
X022752Y015221D01*
X022752Y015578D01*
X022798Y015571D01*
X022859Y015551D01*
X022917Y015521D01*
X022969Y015483D01*
X023015Y015438D01*
X023053Y015386D01*
X023082Y015328D01*
X023102Y015267D01*
X023109Y015221D01*
X022752Y015221D01*
X022752Y015121D01*
X023109Y015121D01*
X023102Y015075D01*
X023082Y015013D01*
X023053Y014956D01*
X023015Y014904D01*
X022969Y014858D01*
X022917Y014820D01*
X022859Y014791D01*
X022798Y014771D01*
X022752Y014763D01*
X022752Y015121D01*
X022652Y015121D01*
X022652Y015061D02*
X022752Y015061D01*
X022752Y014963D02*
X022652Y014963D01*
X022652Y014864D02*
X022752Y014864D01*
X022752Y014766D02*
X022652Y014766D01*
X022636Y014766D02*
X022357Y014766D01*
X022428Y014864D02*
X022258Y014864D01*
X022202Y014963D02*
X022348Y014963D01*
X022306Y015061D02*
X022202Y015061D01*
X022202Y015258D02*
X022301Y015258D01*
X022337Y015357D02*
X022202Y015357D01*
X022237Y015455D02*
X022407Y015455D01*
X022335Y015554D02*
X022555Y015554D01*
X022652Y015554D02*
X022752Y015554D01*
X022849Y015554D02*
X023060Y015554D01*
X023015Y015652D02*
X022434Y015652D01*
X022652Y015455D02*
X022752Y015455D01*
X022752Y015357D02*
X022652Y015357D01*
X022652Y015258D02*
X022752Y015258D01*
X022752Y015160D02*
X024677Y015160D01*
X024677Y015258D02*
X023103Y015258D01*
X023067Y015357D02*
X024677Y015357D01*
X024677Y015455D02*
X023320Y015455D01*
X023209Y015455D02*
X022997Y015455D01*
X023469Y015554D02*
X024677Y015554D01*
X024677Y015652D02*
X023513Y015652D01*
X023513Y015751D02*
X023476Y015843D01*
X023321Y015948D02*
X024677Y015948D01*
X024677Y016046D02*
X023265Y016046D01*
X023208Y015948D02*
X023167Y015948D01*
X023364Y016145D02*
X024677Y016145D01*
X024677Y016243D02*
X023462Y016243D01*
X023561Y016342D02*
X024677Y016342D01*
X024677Y016440D02*
X023659Y016440D01*
X023758Y016539D02*
X024138Y016539D01*
X024066Y016637D02*
X023856Y016637D01*
X023858Y016736D02*
X024047Y016736D01*
X024068Y016834D02*
X023858Y016834D01*
X023858Y016933D02*
X024143Y016933D01*
X024030Y017031D02*
X023858Y017031D01*
X023858Y017130D02*
X023875Y017130D01*
X023608Y017130D02*
X023152Y017130D01*
X023152Y017081D02*
X023152Y017260D01*
X023083Y017426D01*
X022957Y017552D01*
X022791Y017621D01*
X022612Y017621D01*
X022447Y017552D01*
X022320Y017426D01*
X022252Y017260D01*
X022252Y017081D01*
X022320Y016916D01*
X022447Y016789D01*
X022612Y016721D01*
X022791Y016721D01*
X022957Y016789D01*
X023083Y016916D01*
X023152Y017081D01*
X023131Y017031D02*
X023335Y017031D01*
X023276Y016933D02*
X023090Y016933D01*
X023002Y016834D02*
X023265Y016834D01*
X023295Y016736D02*
X022828Y016736D01*
X022970Y016539D02*
X023414Y016539D01*
X023396Y016637D02*
X022451Y016637D01*
X022444Y016736D02*
X022575Y016736D01*
X022402Y016834D02*
X022390Y016834D01*
X022313Y016933D02*
X013921Y016933D01*
X013921Y017031D02*
X022272Y017031D01*
X022252Y017130D02*
X013921Y017130D01*
X013921Y017228D02*
X022252Y017228D01*
X022280Y017327D02*
X013921Y017327D01*
X014090Y017425D02*
X022320Y017425D01*
X022419Y017524D02*
X014155Y017524D01*
X014170Y017622D02*
X020867Y017622D01*
X020807Y017721D02*
X014143Y017721D01*
X014061Y017819D02*
X019763Y017819D01*
X020078Y017819D02*
X020797Y017819D01*
X020827Y017918D02*
X020150Y017918D01*
X020170Y018016D02*
X020928Y018016D01*
X021225Y017622D02*
X023472Y017622D01*
X023436Y017721D02*
X022792Y017721D01*
X022791Y017721D02*
X022957Y017789D01*
X023047Y017879D01*
X022987Y017819D02*
X023128Y017819D01*
X023338Y017819D02*
X023415Y017819D01*
X023526Y017524D02*
X022985Y017524D01*
X023083Y017425D02*
X023580Y017425D01*
X023608Y017327D02*
X023124Y017327D01*
X023152Y017228D02*
X023608Y017228D01*
X022791Y017721D02*
X022612Y017721D01*
X022013Y016834D02*
X013921Y016834D01*
X013921Y016736D02*
X014102Y016736D01*
X014051Y016637D02*
X013921Y016637D01*
X013921Y016539D02*
X014047Y016539D01*
X013671Y016539D02*
X013586Y016539D01*
X013569Y016498D02*
X013607Y016590D01*
X013607Y016689D01*
X013569Y016780D01*
X013499Y016851D01*
X013408Y016888D01*
X013309Y016888D01*
X013217Y016851D01*
X013147Y016780D01*
X013109Y016689D01*
X013109Y016590D01*
X013147Y016498D01*
X013217Y016428D01*
X013309Y016390D01*
X013408Y016390D01*
X013499Y016428D01*
X013569Y016498D01*
X013511Y016440D02*
X013671Y016440D01*
X013671Y016342D02*
X012477Y016342D01*
X012477Y016440D02*
X012611Y016440D01*
X012623Y016428D02*
X012715Y016390D01*
X012814Y016390D01*
X012905Y016428D01*
X012976Y016498D01*
X013013Y016590D01*
X013013Y016689D01*
X012976Y016780D01*
X012905Y016851D01*
X012814Y016888D01*
X012715Y016888D01*
X012623Y016851D01*
X012553Y016780D01*
X012515Y016689D01*
X012515Y016590D01*
X012553Y016498D01*
X012623Y016428D01*
X012536Y016539D02*
X012477Y016539D01*
X012477Y016637D02*
X012515Y016637D01*
X012535Y016736D02*
X012380Y016736D01*
X012281Y016834D02*
X012607Y016834D01*
X012789Y016933D02*
X013671Y016933D01*
X013671Y017031D02*
X013102Y017031D01*
X013267Y017130D02*
X013671Y017130D01*
X013671Y017228D02*
X013390Y017228D01*
X013491Y017327D02*
X013671Y017327D01*
X013671Y017425D02*
X013566Y017425D01*
X013621Y017524D02*
X013671Y017524D01*
X013921Y017918D02*
X016679Y017918D01*
X016577Y018016D02*
X013921Y018016D01*
X013921Y018115D02*
X016547Y018115D01*
X016557Y018213D02*
X013921Y018213D01*
X015241Y018607D02*
X015475Y018607D01*
X015425Y018706D02*
X015291Y018706D01*
X015295Y018804D02*
X015422Y018804D01*
X015458Y018903D02*
X015258Y018903D01*
X018087Y018016D02*
X018098Y018016D01*
X019839Y018706D02*
X021002Y018706D01*
X020936Y018804D02*
X019905Y018804D01*
X019920Y018903D02*
X020922Y018903D01*
X020947Y019001D02*
X019894Y019001D01*
X017999Y016788D02*
X017908Y016826D01*
X017809Y016826D01*
X017717Y016788D01*
X017647Y016718D01*
X017609Y016626D01*
X017609Y016527D01*
X017647Y016436D01*
X017717Y016366D01*
X017809Y016328D01*
X017833Y016328D01*
X017866Y016248D01*
X017936Y016178D01*
X018027Y016140D01*
X018126Y016140D01*
X018218Y016178D01*
X018288Y016248D01*
X018326Y016340D01*
X018326Y016439D01*
X018288Y016530D01*
X018218Y016601D01*
X018126Y016638D01*
X018102Y016638D01*
X018069Y016718D01*
X017999Y016788D01*
X018051Y016736D02*
X021959Y016736D01*
X021953Y016637D02*
X020369Y016637D01*
X020417Y016539D02*
X021987Y016539D01*
X022417Y016539D02*
X022434Y016539D01*
X023068Y016440D02*
X023315Y016440D01*
X023217Y016342D02*
X023118Y016342D01*
X024454Y016539D02*
X024677Y016539D01*
X024677Y016637D02*
X024526Y016637D01*
X024545Y016736D02*
X024774Y016736D01*
X024872Y016834D02*
X024523Y016834D01*
X024677Y015061D02*
X023097Y015061D01*
X023056Y014963D02*
X024677Y014963D01*
X024677Y014864D02*
X022975Y014864D01*
X022767Y014766D02*
X024677Y014766D01*
X024677Y014667D02*
X022455Y014667D01*
X022554Y014569D02*
X024677Y014569D01*
X024677Y014470D02*
X022652Y014470D01*
X022751Y014372D02*
X024677Y014372D01*
X024677Y014273D02*
X022849Y014273D01*
X022948Y014175D02*
X024677Y014175D01*
X024677Y014076D02*
X023398Y014076D01*
X023374Y014101D02*
X023283Y014138D01*
X023184Y014138D01*
X023092Y014101D01*
X023022Y014030D01*
X022984Y013939D01*
X022984Y013840D01*
X023022Y013748D01*
X023092Y013678D01*
X023184Y013640D01*
X023283Y013640D01*
X023374Y013678D01*
X023444Y013748D01*
X023482Y013840D01*
X023482Y013939D01*
X023444Y014030D01*
X023374Y014101D01*
X023466Y013978D02*
X024677Y013978D01*
X024677Y013879D02*
X023482Y013879D01*
X023458Y013781D02*
X024677Y013781D01*
X024677Y013682D02*
X023378Y013682D01*
X023283Y013420D02*
X023184Y013420D01*
X023092Y013382D01*
X023022Y013312D01*
X022984Y013220D01*
X022984Y013121D01*
X023022Y013030D01*
X023037Y013014D01*
X023022Y012999D01*
X022984Y012908D01*
X022984Y012809D01*
X023022Y012717D01*
X023068Y012671D01*
X023022Y012624D01*
X022984Y012533D01*
X022984Y012434D01*
X023022Y012342D01*
X023037Y012327D01*
X023022Y012312D01*
X022984Y012220D01*
X022984Y012121D01*
X023022Y012030D01*
X023092Y011959D01*
X023184Y011922D01*
X023283Y011922D01*
X023374Y011959D01*
X023444Y012030D01*
X023482Y012121D01*
X023482Y012220D01*
X023444Y012312D01*
X023429Y012327D01*
X023444Y012342D01*
X023482Y012434D01*
X023482Y012533D01*
X023444Y012624D01*
X023398Y012671D01*
X023444Y012717D01*
X023482Y012809D01*
X023482Y012908D01*
X023444Y012999D01*
X023429Y013014D01*
X023444Y013030D01*
X023482Y013121D01*
X023482Y013220D01*
X023444Y013312D01*
X023374Y013382D01*
X023283Y013420D01*
X023362Y013387D02*
X024677Y013387D01*
X024677Y013485D02*
X022981Y013485D01*
X022981Y013387D02*
X023104Y013387D01*
X023012Y013288D02*
X022981Y013288D01*
X022981Y013190D02*
X022984Y013190D01*
X022981Y013091D02*
X022996Y013091D01*
X022981Y012993D02*
X023019Y012993D01*
X022984Y012894D02*
X022981Y012894D01*
X022981Y012796D02*
X022989Y012796D01*
X022981Y012697D02*
X023042Y012697D01*
X023011Y012599D02*
X022981Y012599D01*
X022981Y012500D02*
X022984Y012500D01*
X022981Y012402D02*
X022997Y012402D01*
X022981Y012303D02*
X023019Y012303D01*
X022984Y012205D02*
X022981Y012205D01*
X022981Y012106D02*
X022990Y012106D01*
X022981Y012008D02*
X023044Y012008D01*
X022981Y011909D02*
X024677Y011909D01*
X024677Y011811D02*
X022981Y011811D01*
X022981Y011712D02*
X024677Y011712D01*
X024677Y011614D02*
X022981Y011614D01*
X022981Y011515D02*
X024677Y011515D01*
X024677Y011417D02*
X022981Y011417D01*
X022981Y011318D02*
X024677Y011318D01*
X024677Y011220D02*
X022981Y011220D01*
X022981Y011121D02*
X023050Y011121D01*
X023022Y011093D02*
X022984Y011001D01*
X022984Y010902D01*
X023022Y010811D01*
X023092Y010741D01*
X023110Y010733D01*
X023092Y010726D01*
X023022Y010655D01*
X022984Y010564D01*
X022984Y010465D01*
X023022Y010373D01*
X023092Y010303D01*
X023184Y010265D01*
X023283Y010265D01*
X023374Y010303D01*
X023444Y010373D01*
X023482Y010465D01*
X023482Y010564D01*
X023444Y010655D01*
X023374Y010726D01*
X023356Y010733D01*
X023374Y010741D01*
X023444Y010811D01*
X023482Y010902D01*
X023482Y011001D01*
X023444Y011093D01*
X023374Y011163D01*
X023283Y011201D01*
X023184Y011201D01*
X023092Y011163D01*
X023022Y011093D01*
X022993Y011023D02*
X022981Y011023D01*
X022981Y010924D02*
X022984Y010924D01*
X022981Y010826D02*
X023016Y010826D01*
X022981Y010727D02*
X023097Y010727D01*
X023011Y010629D02*
X022981Y010629D01*
X022981Y010530D02*
X022984Y010530D01*
X022981Y010432D02*
X022998Y010432D01*
X022981Y010333D02*
X023062Y010333D01*
X022981Y010235D02*
X024677Y010235D01*
X024677Y010333D02*
X023404Y010333D01*
X023469Y010432D02*
X024677Y010432D01*
X024677Y010530D02*
X023482Y010530D01*
X023455Y010629D02*
X024677Y010629D01*
X024677Y010727D02*
X023370Y010727D01*
X023451Y010826D02*
X024677Y010826D01*
X024677Y010924D02*
X023482Y010924D01*
X023473Y011023D02*
X024677Y011023D01*
X024677Y011121D02*
X023416Y011121D01*
X022327Y011220D02*
X019260Y011220D01*
X019335Y011318D02*
X022327Y011318D01*
X022327Y011417D02*
X019357Y011417D01*
X019338Y011515D02*
X022327Y011515D01*
X022327Y011614D02*
X021995Y011614D01*
X021999Y011616D02*
X022069Y011686D01*
X022107Y011777D01*
X022107Y011876D01*
X022069Y011968D01*
X021999Y012038D01*
X021908Y012076D01*
X021809Y012076D01*
X021717Y012038D01*
X021647Y011968D01*
X021609Y011876D01*
X021609Y011777D01*
X021647Y011686D01*
X021717Y011616D01*
X021809Y011578D01*
X021908Y011578D01*
X021999Y011616D01*
X022080Y011712D02*
X022327Y011712D01*
X022327Y011811D02*
X022107Y011811D01*
X022094Y011909D02*
X022327Y011909D01*
X022327Y012008D02*
X022029Y012008D01*
X022327Y012106D02*
X019933Y012106D01*
X019951Y012008D02*
X021187Y012008D01*
X021123Y011909D02*
X019928Y011909D01*
X019851Y011811D02*
X021109Y011811D01*
X021495Y011614D02*
X021721Y011614D01*
X021636Y011712D02*
X021580Y011712D01*
X021607Y011811D02*
X021609Y011811D01*
X021623Y011909D02*
X021594Y011909D01*
X021529Y012008D02*
X021687Y012008D01*
X022279Y012402D02*
X022327Y012402D01*
X023448Y012303D02*
X024677Y012303D01*
X024677Y012205D02*
X023482Y012205D01*
X023476Y012106D02*
X024677Y012106D01*
X024677Y012008D02*
X023423Y012008D01*
X023469Y012402D02*
X024677Y012402D01*
X024677Y012500D02*
X023482Y012500D01*
X023455Y012599D02*
X024677Y012599D01*
X024677Y012697D02*
X023425Y012697D01*
X023477Y012796D02*
X024677Y012796D01*
X024677Y012894D02*
X023482Y012894D01*
X023447Y012993D02*
X024677Y012993D01*
X024677Y013091D02*
X023470Y013091D01*
X023482Y013190D02*
X024677Y013190D01*
X024677Y013288D02*
X023454Y013288D01*
X023088Y013682D02*
X022981Y013682D01*
X022981Y013584D02*
X024677Y013584D01*
X023008Y013781D02*
X022981Y013781D01*
X022981Y013879D02*
X022984Y013879D01*
X022981Y013978D02*
X023000Y013978D01*
X022968Y014076D02*
X023068Y014076D01*
X021449Y014766D02*
X020172Y014766D01*
X019797Y014963D02*
X018982Y014963D01*
X018966Y014864D02*
X019731Y014864D01*
X019678Y014766D02*
X018899Y014766D01*
X018957Y015061D02*
X019808Y015061D01*
X019870Y015160D02*
X018959Y015160D01*
X018894Y015455D02*
X020269Y015455D01*
X020265Y015554D02*
X018699Y015554D01*
X018701Y015652D02*
X020302Y015652D01*
X020435Y015751D02*
X019197Y015751D01*
X019187Y015741D02*
X019257Y015811D01*
X019295Y015902D01*
X019295Y016001D01*
X019257Y016093D01*
X019187Y016163D01*
X019095Y016201D01*
X018996Y016201D01*
X018905Y016163D01*
X018834Y016093D01*
X018797Y016001D01*
X018797Y015902D01*
X018834Y015811D01*
X018905Y015741D01*
X018996Y015703D01*
X019095Y015703D01*
X019187Y015741D01*
X019273Y015849D02*
X020515Y015849D01*
X020545Y015948D02*
X019295Y015948D01*
X019276Y016046D02*
X020644Y016046D01*
X019973Y016637D02*
X018129Y016637D01*
X018280Y016539D02*
X019782Y016539D01*
X019698Y016440D02*
X018325Y016440D01*
X018326Y016342D02*
X019672Y016342D01*
X019686Y016243D02*
X018283Y016243D01*
X018137Y016145D02*
X018886Y016145D01*
X018815Y016046D02*
X015638Y016046D01*
X015631Y016145D02*
X018016Y016145D01*
X017871Y016243D02*
X015575Y016243D01*
X015428Y016342D02*
X015293Y016342D01*
X015293Y016440D02*
X015369Y016440D01*
X015359Y016539D02*
X015257Y016539D01*
X015173Y016637D02*
X015390Y016637D01*
X015492Y016736D02*
X014489Y016736D01*
X014540Y016637D02*
X014793Y016637D01*
X014694Y016539D02*
X014545Y016539D01*
X015079Y016046D02*
X015140Y016046D01*
X015173Y015948D02*
X014980Y015948D01*
X014843Y015849D02*
X015142Y015849D01*
X015140Y015751D02*
X013921Y015751D01*
X013921Y015652D02*
X015177Y015652D01*
X015140Y015554D02*
X013921Y015554D01*
X013921Y015455D02*
X015144Y015455D01*
X015171Y015357D02*
X013921Y015357D01*
X013921Y015258D02*
X015140Y015258D01*
X015150Y015160D02*
X013921Y015160D01*
X013921Y015061D02*
X015209Y015061D01*
X015570Y015061D02*
X017446Y015061D01*
X017422Y014963D02*
X013921Y014963D01*
X013921Y014864D02*
X017437Y014864D01*
X017504Y014766D02*
X013921Y014766D01*
X013921Y014667D02*
X019672Y014667D01*
X019706Y014569D02*
X013921Y014569D01*
X013921Y014470D02*
X019743Y014470D01*
X019664Y014372D02*
X013921Y014372D01*
X013671Y014372D02*
X013107Y014372D01*
X013107Y014376D02*
X013069Y014468D01*
X012999Y014538D01*
X012908Y014576D01*
X012809Y014576D01*
X012717Y014538D01*
X012647Y014468D01*
X012609Y014376D01*
X012609Y014277D01*
X012647Y014186D01*
X012717Y014116D01*
X012809Y014078D01*
X012908Y014078D01*
X012999Y014116D01*
X013069Y014186D01*
X013107Y014277D01*
X013107Y014376D01*
X013067Y014470D02*
X013671Y014470D01*
X013671Y014569D02*
X012925Y014569D01*
X012792Y014569D02*
X012477Y014569D01*
X012477Y014667D02*
X013671Y014667D01*
X013671Y014766D02*
X012477Y014766D01*
X012477Y014864D02*
X013671Y014864D01*
X013671Y014963D02*
X012477Y014963D01*
X012477Y015061D02*
X013671Y015061D01*
X013671Y015160D02*
X012955Y015160D01*
X012999Y015178D02*
X013069Y015248D01*
X013107Y015340D01*
X013107Y015439D01*
X013069Y015530D01*
X012999Y015601D01*
X012908Y015638D01*
X012809Y015638D01*
X012717Y015601D01*
X012647Y015530D01*
X012609Y015439D01*
X012609Y015340D01*
X012647Y015248D01*
X012717Y015178D01*
X012809Y015140D01*
X012908Y015140D01*
X012999Y015178D01*
X013073Y015258D02*
X013671Y015258D01*
X013671Y015357D02*
X013107Y015357D01*
X013100Y015455D02*
X013671Y015455D01*
X013671Y015554D02*
X013046Y015554D01*
X012670Y015554D02*
X012477Y015554D01*
X012477Y015652D02*
X013671Y015652D01*
X013671Y015751D02*
X012477Y015751D01*
X012477Y015849D02*
X013671Y015849D01*
X013671Y015948D02*
X012477Y015948D01*
X012477Y016046D02*
X013671Y016046D01*
X013671Y016145D02*
X012477Y016145D01*
X012477Y016243D02*
X013671Y016243D01*
X013671Y016637D02*
X013607Y016637D01*
X013588Y016736D02*
X013671Y016736D01*
X013671Y016834D02*
X013515Y016834D01*
X013201Y016834D02*
X012922Y016834D01*
X012994Y016736D02*
X013129Y016736D01*
X013109Y016637D02*
X013013Y016637D01*
X012992Y016539D02*
X013130Y016539D01*
X013205Y016440D02*
X012918Y016440D01*
X012616Y015455D02*
X012477Y015455D01*
X012477Y015357D02*
X012609Y015357D01*
X012643Y015258D02*
X012477Y015258D01*
X012477Y015160D02*
X012761Y015160D01*
X012649Y014470D02*
X012477Y014470D01*
X012477Y014372D02*
X012609Y014372D01*
X012611Y014273D02*
X012477Y014273D01*
X012477Y014175D02*
X012658Y014175D01*
X012477Y014076D02*
X013671Y014076D01*
X013671Y013978D02*
X012477Y013978D01*
X012477Y013879D02*
X013671Y013879D01*
X013671Y013781D02*
X012477Y013781D01*
X012477Y013682D02*
X013671Y013682D01*
X013671Y013584D02*
X012477Y013584D01*
X012477Y013485D02*
X012664Y013485D01*
X012647Y013468D02*
X012609Y013376D01*
X012609Y013277D01*
X012647Y013186D01*
X012717Y013116D01*
X012809Y013078D01*
X012908Y013078D01*
X012999Y013116D01*
X013069Y013186D01*
X013107Y013277D01*
X013107Y013376D01*
X013069Y013468D01*
X012999Y013538D01*
X012908Y013576D01*
X012809Y013576D01*
X012717Y013538D01*
X012647Y013468D01*
X012613Y013387D02*
X012477Y013387D01*
X012477Y013288D02*
X012609Y013288D01*
X012645Y013190D02*
X012477Y013190D01*
X012477Y013091D02*
X012776Y013091D01*
X012940Y013091D02*
X013671Y013091D01*
X013671Y012993D02*
X012477Y012993D01*
X012477Y012894D02*
X013671Y012894D01*
X013671Y012796D02*
X012477Y012796D01*
X012477Y012697D02*
X013671Y012697D01*
X013671Y012599D02*
X012477Y012599D01*
X012477Y012500D02*
X013671Y012500D01*
X013671Y012402D02*
X012477Y012402D01*
X012477Y012303D02*
X013671Y012303D01*
X013671Y012205D02*
X012477Y012205D01*
X012477Y012106D02*
X013671Y012106D01*
X013671Y012008D02*
X012477Y012008D01*
X013921Y012205D02*
X014220Y012205D01*
X014203Y012303D02*
X013921Y012303D01*
X013921Y012402D02*
X014226Y012402D01*
X014304Y012500D02*
X013921Y012500D01*
X013671Y013190D02*
X013071Y013190D01*
X013107Y013288D02*
X013671Y013288D01*
X013671Y013387D02*
X013103Y013387D01*
X013052Y013485D02*
X013671Y013485D01*
X013671Y014175D02*
X013058Y014175D01*
X013106Y014273D02*
X013671Y014273D01*
X015629Y015160D02*
X016985Y015160D01*
X016911Y015258D02*
X015638Y015258D01*
X015608Y015357D02*
X016890Y015357D01*
X016910Y015455D02*
X015635Y015455D01*
X015638Y015554D02*
X016983Y015554D01*
X017296Y015554D02*
X017327Y015554D01*
X017704Y015652D02*
X015602Y015652D01*
X015638Y015751D02*
X017836Y015751D01*
X017977Y015849D02*
X015637Y015849D01*
X015606Y015948D02*
X018797Y015948D01*
X018818Y015849D02*
X018520Y015849D01*
X018384Y015849D02*
X018114Y015849D01*
X018245Y015455D02*
X018252Y015455D01*
X018039Y015357D02*
X018502Y015357D01*
X018484Y015258D02*
X017986Y015258D01*
X017815Y015160D02*
X018507Y015160D01*
X018509Y015061D02*
X017895Y015061D01*
X017920Y014963D02*
X018484Y014963D01*
X018500Y014864D02*
X017904Y014864D01*
X017837Y014766D02*
X018567Y014766D01*
X017329Y015160D02*
X017293Y015160D01*
X018661Y015751D02*
X018894Y015751D01*
X019205Y016145D02*
X019750Y016145D01*
X017775Y016342D02*
X016600Y016342D01*
X016660Y016440D02*
X017645Y016440D01*
X017609Y016539D02*
X016670Y016539D01*
X016639Y016637D02*
X017614Y016637D01*
X017665Y016736D02*
X016537Y016736D01*
X016305Y016736D02*
X016193Y016736D01*
X015961Y016736D02*
X015724Y016736D01*
X015827Y016637D02*
X015858Y016637D01*
X015897Y016342D02*
X015788Y016342D01*
X017658Y013879D02*
X019152Y013879D01*
X018960Y013781D02*
X017701Y013781D01*
X017700Y013682D02*
X018882Y013682D01*
X020054Y014076D02*
X020288Y014076D01*
X020219Y014175D02*
X020122Y014175D01*
X016425Y011023D02*
X014585Y011023D01*
X014624Y011007D02*
X014533Y011045D01*
X014434Y011045D01*
X014342Y011007D01*
X014272Y010937D01*
X014234Y010845D01*
X014234Y010746D01*
X014272Y010655D01*
X014342Y010584D01*
X014434Y010547D01*
X014533Y010547D01*
X014624Y010584D01*
X014694Y010655D01*
X014732Y010746D01*
X014732Y010845D01*
X014694Y010937D01*
X014624Y011007D01*
X014699Y010924D02*
X016228Y010924D01*
X016158Y010826D02*
X014732Y010826D01*
X014724Y010727D02*
X016140Y010727D01*
X016163Y010629D02*
X014669Y010629D01*
X014298Y010629D02*
X013921Y010629D01*
X013921Y010727D02*
X014242Y010727D01*
X014234Y010826D02*
X013921Y010826D01*
X013921Y010924D02*
X014267Y010924D01*
X014381Y011023D02*
X013921Y011023D01*
X013921Y010530D02*
X016152Y010530D01*
X016140Y010432D02*
X013921Y010432D01*
X013921Y010333D02*
X016169Y010333D01*
X016262Y010235D02*
X013921Y010235D01*
X013200Y010333D02*
X012477Y010333D01*
X012477Y010235D02*
X013128Y010235D01*
X013109Y010136D02*
X012477Y010136D01*
X012477Y010038D02*
X013131Y010038D01*
X013206Y009939D02*
X012477Y009939D01*
X012477Y009841D02*
X013176Y009841D01*
X013118Y009742D02*
X012477Y009742D01*
X012477Y009644D02*
X013109Y009644D01*
X013140Y009545D02*
X012477Y009545D01*
X012477Y009447D02*
X013247Y009447D01*
X013152Y009348D02*
X012477Y009348D01*
X012477Y009250D02*
X013109Y009250D01*
X013109Y009151D02*
X012477Y009151D01*
X012477Y009053D02*
X013155Y009053D01*
X013921Y009053D02*
X014686Y009053D01*
X014717Y009022D02*
X014809Y008984D01*
X014908Y008984D01*
X014999Y009022D01*
X015069Y009092D01*
X015107Y009184D01*
X015107Y009283D01*
X015069Y009374D01*
X014999Y009444D01*
X014908Y009482D01*
X014809Y009482D01*
X014717Y009444D01*
X014647Y009374D01*
X014609Y009283D01*
X014609Y009184D01*
X014647Y009092D01*
X014717Y009022D01*
X014622Y009151D02*
X013921Y009151D01*
X013921Y009250D02*
X014609Y009250D01*
X014636Y009348D02*
X013921Y009348D01*
X013921Y009447D02*
X014723Y009447D01*
X014993Y009447D02*
X015282Y009447D01*
X015265Y009348D02*
X015080Y009348D01*
X015107Y009250D02*
X015290Y009250D01*
X015369Y009151D02*
X015094Y009151D01*
X015043Y009053D02*
X015030Y009053D01*
X014943Y008954D02*
X013921Y008954D01*
X013921Y008856D02*
X014555Y008856D01*
X014661Y008856D02*
X014885Y008856D01*
X014846Y008757D02*
X014811Y008757D01*
X014814Y008462D02*
X014895Y008462D01*
X014966Y008363D02*
X014668Y008363D01*
X014548Y008363D02*
X013921Y008363D01*
X013921Y008462D02*
X014402Y008462D01*
X014359Y008560D02*
X013921Y008560D01*
X013921Y008659D02*
X014360Y008659D01*
X014405Y008757D02*
X013921Y008757D01*
X014014Y008265D02*
X015099Y008265D01*
X015079Y008068D02*
X014211Y008068D01*
X014309Y007969D02*
X014958Y007969D01*
X015512Y008068D02*
X016109Y008068D01*
X016120Y007969D02*
X015633Y007969D01*
X015492Y008265D02*
X016237Y008265D01*
X016139Y008166D02*
X014112Y008166D01*
X015063Y007280D02*
X012793Y007280D01*
X014896Y006767D02*
X014916Y006828D01*
X014945Y006886D01*
X015246Y006590D02*
X015346Y006590D01*
X015346Y006492D02*
X015246Y006492D01*
X015246Y006393D02*
X015346Y006393D01*
X015440Y006098D02*
X016151Y006098D01*
X016206Y006121D02*
X016041Y006052D01*
X015914Y005926D01*
X015846Y005760D01*
X015846Y005581D01*
X015914Y005416D01*
X016041Y005289D01*
X016206Y005221D01*
X016385Y005221D01*
X016551Y005289D01*
X016677Y005416D01*
X016746Y005581D01*
X016746Y005760D01*
X016677Y005926D01*
X016551Y006052D01*
X016385Y006121D01*
X016206Y006121D01*
X016440Y006098D02*
X017151Y006098D01*
X017206Y006121D02*
X017041Y006052D01*
X016914Y005926D01*
X016846Y005760D01*
X016846Y005581D01*
X016914Y005416D01*
X017041Y005289D01*
X017206Y005221D01*
X017385Y005221D01*
X017551Y005289D01*
X017677Y005416D01*
X017746Y005581D01*
X017746Y005760D01*
X017677Y005926D01*
X017551Y006052D01*
X017385Y006121D01*
X017206Y006121D01*
X017440Y006098D02*
X018151Y006098D01*
X017988Y005999D02*
X017603Y005999D01*
X017687Y005901D02*
X017904Y005901D01*
X017863Y005802D02*
X017728Y005802D01*
X017746Y005704D02*
X017846Y005704D01*
X017846Y005605D02*
X017746Y005605D01*
X017715Y005507D02*
X017876Y005507D01*
X017921Y005408D02*
X017670Y005408D01*
X017571Y005310D02*
X018020Y005310D01*
X017020Y005310D02*
X016571Y005310D01*
X016670Y005408D02*
X016921Y005408D01*
X016876Y005507D02*
X016715Y005507D01*
X016746Y005605D02*
X016846Y005605D01*
X016846Y005704D02*
X016746Y005704D01*
X016728Y005802D02*
X016863Y005802D01*
X016904Y005901D02*
X016687Y005901D01*
X016603Y005999D02*
X016988Y005999D01*
X017035Y006295D02*
X016556Y006295D01*
X016655Y006393D02*
X016936Y006393D01*
X016883Y006492D02*
X016709Y006492D01*
X016746Y006590D02*
X016846Y006590D01*
X016846Y006689D02*
X016746Y006689D01*
X016734Y006787D02*
X016857Y006787D01*
X016898Y006886D02*
X016694Y006886D01*
X016618Y006984D02*
X016973Y006984D01*
X017115Y007083D02*
X016476Y007083D01*
X015702Y007477D02*
X023859Y007477D01*
X023877Y007575D02*
X021919Y007575D01*
X022018Y007674D02*
X023947Y007674D01*
X023882Y007378D02*
X015640Y007378D01*
X015528Y007280D02*
X021710Y007280D01*
X021881Y007280D02*
X023959Y007280D01*
X023646Y006886D02*
X023401Y006886D01*
X023467Y006787D02*
X023568Y006787D01*
X023512Y006689D02*
X023482Y006689D01*
X023457Y006590D02*
X023457Y006590D01*
X021563Y007969D02*
X018318Y007969D01*
X018177Y008068D02*
X021662Y008068D01*
X021760Y008166D02*
X016578Y008166D01*
X016607Y008068D02*
X017289Y008068D01*
X017427Y008068D02*
X018039Y008068D01*
X017898Y007969D02*
X017568Y007969D01*
X017148Y007969D02*
X016596Y007969D01*
X016480Y008265D02*
X021859Y008265D01*
X021626Y008363D02*
X015625Y008363D01*
X015696Y008462D02*
X021561Y008462D01*
X021547Y008560D02*
X015737Y008560D01*
X015746Y008659D02*
X021573Y008659D01*
X021656Y008757D02*
X020672Y008757D01*
X020726Y008856D02*
X022327Y008856D01*
X022327Y008954D02*
X020732Y008954D01*
X020698Y009053D02*
X022327Y009053D01*
X022327Y009151D02*
X020577Y009151D01*
X020389Y009151D02*
X020139Y009151D01*
X020260Y009053D02*
X020268Y009053D01*
X020235Y008757D02*
X020294Y008757D01*
X019857Y008757D02*
X015746Y008757D01*
X015349Y009545D02*
X013921Y009545D01*
X016751Y009644D02*
X018573Y009644D01*
X018521Y009545D02*
X016857Y009545D01*
X016888Y009447D02*
X018515Y009447D01*
X018551Y009348D02*
X016879Y009348D01*
X020018Y009447D02*
X020198Y009447D01*
X020127Y009545D02*
X020089Y009545D01*
X020107Y009644D02*
X020109Y009644D01*
X020085Y009742D02*
X020131Y009742D01*
X020509Y009841D02*
X021797Y009841D01*
X021797Y009840D02*
X021834Y009748D01*
X021905Y009678D01*
X021996Y009640D01*
X022095Y009640D01*
X022187Y009678D01*
X022257Y009748D01*
X022295Y009840D01*
X022295Y009939D01*
X022257Y010030D01*
X022187Y010101D01*
X022095Y010138D01*
X021996Y010138D01*
X021905Y010101D01*
X021834Y010030D01*
X021797Y009939D01*
X021797Y009840D01*
X021797Y009939D02*
X020571Y009939D01*
X020607Y010038D02*
X021842Y010038D01*
X021991Y010136D02*
X020603Y010136D01*
X020585Y009742D02*
X021840Y009742D01*
X021987Y009644D02*
X020607Y009644D01*
X020589Y009545D02*
X022327Y009545D01*
X022327Y009447D02*
X020518Y009447D01*
X021935Y008757D02*
X022327Y008757D01*
X022253Y008659D02*
X022018Y008659D01*
X022045Y008560D02*
X022154Y008560D01*
X022056Y008462D02*
X022031Y008462D01*
X022860Y008265D02*
X024677Y008265D01*
X024677Y008363D02*
X022944Y008363D01*
X022981Y008462D02*
X024677Y008462D01*
X024677Y008560D02*
X022981Y008560D01*
X022981Y008659D02*
X024677Y008659D01*
X024677Y008757D02*
X022981Y008757D01*
X022981Y008856D02*
X024677Y008856D01*
X024677Y008954D02*
X022981Y008954D01*
X022981Y009053D02*
X024677Y009053D01*
X024677Y009151D02*
X022981Y009151D01*
X022981Y009250D02*
X024677Y009250D01*
X024677Y009348D02*
X022981Y009348D01*
X022981Y009447D02*
X023073Y009447D01*
X023092Y009428D02*
X023184Y009390D01*
X023283Y009390D01*
X023374Y009428D01*
X023444Y009498D01*
X023482Y009590D01*
X023482Y009689D01*
X023444Y009780D01*
X023374Y009851D01*
X023283Y009888D01*
X023184Y009888D01*
X023092Y009851D01*
X023022Y009780D01*
X022984Y009689D01*
X022984Y009590D01*
X023022Y009498D01*
X023092Y009428D01*
X023002Y009545D02*
X022981Y009545D01*
X022981Y009644D02*
X022984Y009644D01*
X022981Y009742D02*
X023006Y009742D01*
X022981Y009841D02*
X023082Y009841D01*
X022981Y009939D02*
X024677Y009939D01*
X024677Y009841D02*
X023384Y009841D01*
X023460Y009742D02*
X024677Y009742D01*
X024677Y009644D02*
X023482Y009644D01*
X023464Y009545D02*
X024677Y009545D01*
X024677Y009447D02*
X023393Y009447D01*
X022981Y010038D02*
X024677Y010038D01*
X024677Y010136D02*
X022981Y010136D01*
X022327Y010136D02*
X022100Y010136D01*
X022249Y010038D02*
X022327Y010038D01*
X022327Y009939D02*
X022294Y009939D01*
X022295Y009841D02*
X022327Y009841D01*
X022327Y009742D02*
X022251Y009742D01*
X022327Y009644D02*
X022104Y009644D01*
X021101Y006984D02*
X019618Y006984D01*
X019694Y006886D02*
X021050Y006886D01*
X021047Y006787D02*
X019734Y006787D01*
X019746Y006689D02*
X021083Y006689D01*
X015988Y005999D02*
X015603Y005999D01*
X015687Y005901D02*
X015904Y005901D01*
X015863Y005802D02*
X015728Y005802D01*
X015746Y005704D02*
X015846Y005704D01*
X015846Y005605D02*
X015746Y005605D01*
X015715Y005507D02*
X015876Y005507D01*
X015921Y005408D02*
X015670Y005408D01*
X015571Y005310D02*
X016020Y005310D01*
D15*
X022671Y008514D02*
X022671Y013983D01*
X021577Y015077D01*
X021577Y015577D01*
X014983Y016389D02*
X014733Y016139D01*
X013546Y016139D01*
X013546Y015108D01*
M02*
