G75*
G70*
%OFA0B0*%
%FSLAX24Y24*%
%IPPOS*%
%LPD*%
%AMOC8*
5,1,8,0,0,1.08239X$1,22.5*
%
%ADD10C,0.0000*%
%ADD11C,0.0600*%
%ADD12C,0.0198*%
%ADD13C,0.0100*%
%ADD14C,0.0295*%
D10*
X011483Y005999D02*
X011483Y006796D01*
X012327Y007639D01*
X012327Y016577D01*
X011483Y017421D01*
X011483Y018203D01*
X011485Y018265D01*
X011491Y018326D01*
X011500Y018387D01*
X011514Y018448D01*
X011531Y018507D01*
X011552Y018565D01*
X011577Y018622D01*
X011605Y018677D01*
X011636Y018730D01*
X011671Y018781D01*
X011709Y018830D01*
X011750Y018877D01*
X011793Y018920D01*
X011840Y018961D01*
X011889Y018999D01*
X011940Y019034D01*
X011993Y019065D01*
X012048Y019093D01*
X012105Y019118D01*
X012163Y019139D01*
X012222Y019156D01*
X012283Y019170D01*
X012344Y019179D01*
X012405Y019185D01*
X012467Y019187D01*
X012467Y019188D02*
X024672Y019188D01*
X024672Y019187D02*
X024734Y019185D01*
X024795Y019179D01*
X024856Y019170D01*
X024917Y019156D01*
X024976Y019139D01*
X025034Y019118D01*
X025091Y019093D01*
X025146Y019065D01*
X025199Y019034D01*
X025250Y018999D01*
X025299Y018961D01*
X025346Y018920D01*
X025389Y018877D01*
X025430Y018830D01*
X025468Y018781D01*
X025503Y018730D01*
X025534Y018677D01*
X025562Y018622D01*
X025587Y018565D01*
X025608Y018507D01*
X025625Y018448D01*
X025639Y018387D01*
X025648Y018326D01*
X025654Y018265D01*
X025656Y018203D01*
X025656Y017406D01*
X024827Y016577D01*
X024827Y007764D01*
X025656Y006935D01*
X025656Y005999D01*
X025654Y005937D01*
X025648Y005876D01*
X025639Y005815D01*
X025625Y005754D01*
X025608Y005695D01*
X025587Y005637D01*
X025562Y005580D01*
X025534Y005525D01*
X025503Y005472D01*
X025468Y005421D01*
X025430Y005372D01*
X025389Y005325D01*
X025346Y005282D01*
X025299Y005241D01*
X025250Y005203D01*
X025199Y005168D01*
X025146Y005137D01*
X025091Y005109D01*
X025034Y005084D01*
X024976Y005063D01*
X024917Y005046D01*
X024856Y005032D01*
X024795Y005023D01*
X024734Y005017D01*
X024672Y005015D01*
X024672Y005014D02*
X012467Y005014D01*
X012467Y005015D02*
X012405Y005017D01*
X012344Y005023D01*
X012283Y005032D01*
X012222Y005046D01*
X012163Y005063D01*
X012105Y005084D01*
X012048Y005109D01*
X011993Y005137D01*
X011940Y005168D01*
X011889Y005203D01*
X011840Y005241D01*
X011793Y005282D01*
X011750Y005325D01*
X011709Y005372D01*
X011671Y005421D01*
X011636Y005472D01*
X011605Y005525D01*
X011577Y005580D01*
X011552Y005637D01*
X011531Y005695D01*
X011514Y005754D01*
X011500Y005815D01*
X011491Y005876D01*
X011485Y005937D01*
X011483Y005999D01*
X011975Y006097D02*
X011977Y006145D01*
X011983Y006193D01*
X011993Y006240D01*
X012006Y006286D01*
X012024Y006331D01*
X012044Y006375D01*
X012069Y006417D01*
X012097Y006456D01*
X012127Y006493D01*
X012161Y006527D01*
X012198Y006559D01*
X012236Y006588D01*
X012277Y006613D01*
X012320Y006635D01*
X012365Y006653D01*
X012411Y006667D01*
X012458Y006678D01*
X012506Y006685D01*
X012554Y006688D01*
X012602Y006687D01*
X012650Y006682D01*
X012698Y006673D01*
X012744Y006661D01*
X012789Y006644D01*
X012833Y006624D01*
X012875Y006601D01*
X012915Y006574D01*
X012953Y006544D01*
X012988Y006511D01*
X013020Y006475D01*
X013050Y006437D01*
X013076Y006396D01*
X013098Y006353D01*
X013118Y006309D01*
X013133Y006264D01*
X013145Y006217D01*
X013153Y006169D01*
X013157Y006121D01*
X013157Y006073D01*
X013153Y006025D01*
X013145Y005977D01*
X013133Y005930D01*
X013118Y005885D01*
X013098Y005841D01*
X013076Y005798D01*
X013050Y005757D01*
X013020Y005719D01*
X012988Y005683D01*
X012953Y005650D01*
X012915Y005620D01*
X012875Y005593D01*
X012833Y005570D01*
X012789Y005550D01*
X012744Y005533D01*
X012698Y005521D01*
X012650Y005512D01*
X012602Y005507D01*
X012554Y005506D01*
X012506Y005509D01*
X012458Y005516D01*
X012411Y005527D01*
X012365Y005541D01*
X012320Y005559D01*
X012277Y005581D01*
X012236Y005606D01*
X012198Y005635D01*
X012161Y005667D01*
X012127Y005701D01*
X012097Y005738D01*
X012069Y005777D01*
X012044Y005819D01*
X012024Y005863D01*
X012006Y005908D01*
X011993Y005954D01*
X011983Y006001D01*
X011977Y006049D01*
X011975Y006097D01*
X023983Y006097D02*
X023985Y006145D01*
X023991Y006193D01*
X024001Y006240D01*
X024014Y006286D01*
X024032Y006331D01*
X024052Y006375D01*
X024077Y006417D01*
X024105Y006456D01*
X024135Y006493D01*
X024169Y006527D01*
X024206Y006559D01*
X024244Y006588D01*
X024285Y006613D01*
X024328Y006635D01*
X024373Y006653D01*
X024419Y006667D01*
X024466Y006678D01*
X024514Y006685D01*
X024562Y006688D01*
X024610Y006687D01*
X024658Y006682D01*
X024706Y006673D01*
X024752Y006661D01*
X024797Y006644D01*
X024841Y006624D01*
X024883Y006601D01*
X024923Y006574D01*
X024961Y006544D01*
X024996Y006511D01*
X025028Y006475D01*
X025058Y006437D01*
X025084Y006396D01*
X025106Y006353D01*
X025126Y006309D01*
X025141Y006264D01*
X025153Y006217D01*
X025161Y006169D01*
X025165Y006121D01*
X025165Y006073D01*
X025161Y006025D01*
X025153Y005977D01*
X025141Y005930D01*
X025126Y005885D01*
X025106Y005841D01*
X025084Y005798D01*
X025058Y005757D01*
X025028Y005719D01*
X024996Y005683D01*
X024961Y005650D01*
X024923Y005620D01*
X024883Y005593D01*
X024841Y005570D01*
X024797Y005550D01*
X024752Y005533D01*
X024706Y005521D01*
X024658Y005512D01*
X024610Y005507D01*
X024562Y005506D01*
X024514Y005509D01*
X024466Y005516D01*
X024419Y005527D01*
X024373Y005541D01*
X024328Y005559D01*
X024285Y005581D01*
X024244Y005606D01*
X024206Y005635D01*
X024169Y005667D01*
X024135Y005701D01*
X024105Y005738D01*
X024077Y005777D01*
X024052Y005819D01*
X024032Y005863D01*
X024014Y005908D01*
X024001Y005954D01*
X023991Y006001D01*
X023985Y006049D01*
X023983Y006097D01*
X023983Y018105D02*
X023985Y018153D01*
X023991Y018201D01*
X024001Y018248D01*
X024014Y018294D01*
X024032Y018339D01*
X024052Y018383D01*
X024077Y018425D01*
X024105Y018464D01*
X024135Y018501D01*
X024169Y018535D01*
X024206Y018567D01*
X024244Y018596D01*
X024285Y018621D01*
X024328Y018643D01*
X024373Y018661D01*
X024419Y018675D01*
X024466Y018686D01*
X024514Y018693D01*
X024562Y018696D01*
X024610Y018695D01*
X024658Y018690D01*
X024706Y018681D01*
X024752Y018669D01*
X024797Y018652D01*
X024841Y018632D01*
X024883Y018609D01*
X024923Y018582D01*
X024961Y018552D01*
X024996Y018519D01*
X025028Y018483D01*
X025058Y018445D01*
X025084Y018404D01*
X025106Y018361D01*
X025126Y018317D01*
X025141Y018272D01*
X025153Y018225D01*
X025161Y018177D01*
X025165Y018129D01*
X025165Y018081D01*
X025161Y018033D01*
X025153Y017985D01*
X025141Y017938D01*
X025126Y017893D01*
X025106Y017849D01*
X025084Y017806D01*
X025058Y017765D01*
X025028Y017727D01*
X024996Y017691D01*
X024961Y017658D01*
X024923Y017628D01*
X024883Y017601D01*
X024841Y017578D01*
X024797Y017558D01*
X024752Y017541D01*
X024706Y017529D01*
X024658Y017520D01*
X024610Y017515D01*
X024562Y017514D01*
X024514Y017517D01*
X024466Y017524D01*
X024419Y017535D01*
X024373Y017549D01*
X024328Y017567D01*
X024285Y017589D01*
X024244Y017614D01*
X024206Y017643D01*
X024169Y017675D01*
X024135Y017709D01*
X024105Y017746D01*
X024077Y017785D01*
X024052Y017827D01*
X024032Y017871D01*
X024014Y017916D01*
X024001Y017962D01*
X023991Y018009D01*
X023985Y018057D01*
X023983Y018105D01*
X011975Y018105D02*
X011977Y018153D01*
X011983Y018201D01*
X011993Y018248D01*
X012006Y018294D01*
X012024Y018339D01*
X012044Y018383D01*
X012069Y018425D01*
X012097Y018464D01*
X012127Y018501D01*
X012161Y018535D01*
X012198Y018567D01*
X012236Y018596D01*
X012277Y018621D01*
X012320Y018643D01*
X012365Y018661D01*
X012411Y018675D01*
X012458Y018686D01*
X012506Y018693D01*
X012554Y018696D01*
X012602Y018695D01*
X012650Y018690D01*
X012698Y018681D01*
X012744Y018669D01*
X012789Y018652D01*
X012833Y018632D01*
X012875Y018609D01*
X012915Y018582D01*
X012953Y018552D01*
X012988Y018519D01*
X013020Y018483D01*
X013050Y018445D01*
X013076Y018404D01*
X013098Y018361D01*
X013118Y018317D01*
X013133Y018272D01*
X013145Y018225D01*
X013153Y018177D01*
X013157Y018129D01*
X013157Y018081D01*
X013153Y018033D01*
X013145Y017985D01*
X013133Y017938D01*
X013118Y017893D01*
X013098Y017849D01*
X013076Y017806D01*
X013050Y017765D01*
X013020Y017727D01*
X012988Y017691D01*
X012953Y017658D01*
X012915Y017628D01*
X012875Y017601D01*
X012833Y017578D01*
X012789Y017558D01*
X012744Y017541D01*
X012698Y017529D01*
X012650Y017520D01*
X012602Y017515D01*
X012554Y017514D01*
X012506Y017517D01*
X012458Y017524D01*
X012411Y017535D01*
X012365Y017549D01*
X012320Y017567D01*
X012277Y017589D01*
X012236Y017614D01*
X012198Y017643D01*
X012161Y017675D01*
X012127Y017709D01*
X012097Y017746D01*
X012069Y017785D01*
X012044Y017827D01*
X012024Y017871D01*
X012006Y017916D01*
X011993Y017962D01*
X011983Y018009D01*
X011977Y018057D01*
X011975Y018105D01*
D11*
X022702Y018171D03*
X022702Y017171D03*
X022702Y016171D03*
X022702Y015171D03*
X015296Y008671D03*
X015296Y007671D03*
X015296Y006671D03*
X016296Y006671D03*
X017296Y006671D03*
X018296Y006671D03*
X019296Y006671D03*
X019296Y005671D03*
X018296Y005671D03*
X017296Y005671D03*
X016296Y005671D03*
X015296Y005671D03*
D12*
X013858Y005358D03*
X013858Y006514D03*
X012702Y007514D03*
X014608Y008608D03*
X014858Y009233D03*
X015514Y009358D03*
X016358Y009514D03*
X016639Y009421D03*
X016358Y009108D03*
X016639Y008858D03*
X016358Y008046D03*
X017358Y007827D03*
X018108Y007827D03*
X019639Y009046D03*
X020046Y008921D03*
X020483Y008921D03*
X020358Y009639D03*
X019858Y009639D03*
X019858Y010077D03*
X020358Y010077D03*
X021108Y010327D03*
X022046Y009889D03*
X023233Y009639D03*
X023233Y010514D03*
X023233Y010952D03*
X021858Y011827D03*
X021358Y011827D03*
X020796Y012452D03*
X020796Y012764D03*
X019827Y012921D03*
X019358Y013733D03*
X019108Y013577D03*
X018483Y013264D03*
X018327Y012639D03*
X018389Y011796D03*
X019108Y011421D03*
X018733Y010702D03*
X018483Y010858D03*
X018233Y011014D03*
X018983Y010546D03*
X018764Y009483D03*
X017014Y010921D03*
X016639Y010889D03*
X016389Y010733D03*
X016389Y010452D03*
X015171Y010077D03*
X014483Y010796D03*
X013389Y011296D03*
X012858Y011671D03*
X014452Y012296D03*
X012858Y013327D03*
X012858Y014327D03*
X012858Y015389D03*
X014296Y016577D03*
X013358Y016639D03*
X012764Y016639D03*
X013921Y017608D03*
X015046Y018764D03*
X015671Y018764D03*
X016796Y018139D03*
X017889Y018171D03*
X018296Y018171D03*
X019358Y018608D03*
X019671Y018889D03*
X018858Y018889D03*
X019921Y018014D03*
X021046Y017796D03*
X021171Y018889D03*
X022483Y018889D03*
X023233Y018046D03*
X023514Y016858D03*
X024296Y016733D03*
X023264Y015702D03*
X022202Y016671D03*
X021421Y016202D03*
X021046Y016202D03*
X020764Y015827D03*
X020514Y015514D03*
X020046Y014983D03*
X019921Y014702D03*
X020233Y014483D03*
X020452Y014264D03*
X019889Y014264D03*
X019827Y013764D03*
X018733Y014952D03*
X018733Y015264D03*
X019296Y015327D03*
X019046Y015952D03*
X018452Y015608D03*
X018046Y015608D03*
X017796Y015421D03*
X017483Y015358D03*
X017139Y015358D03*
X017671Y014952D03*
X016233Y014702D03*
X016139Y014046D03*
X015764Y014046D03*
X016455Y013639D03*
X016327Y013171D03*
X016733Y012889D03*
X016858Y012608D03*
X016858Y012296D03*
X016483Y012202D03*
X016577Y011671D03*
X016327Y011452D03*
X017014Y011421D03*
X019702Y012014D03*
X022202Y012639D03*
X022202Y012952D03*
X022014Y013264D03*
X023233Y013171D03*
X023233Y012858D03*
X023233Y012483D03*
X023233Y012171D03*
X023233Y013889D03*
X019921Y016327D03*
X020171Y016483D03*
X018077Y016389D03*
X017858Y016577D03*
X017108Y016452D03*
X016421Y016514D03*
X016077Y016514D03*
X015608Y016514D03*
X015389Y016077D03*
X015389Y015796D03*
X015389Y015514D03*
X015389Y015233D03*
X017452Y013733D03*
X013358Y010139D03*
X013358Y009671D03*
X013358Y009202D03*
X021296Y006827D03*
X021796Y007046D03*
X023233Y006702D03*
X024108Y007483D03*
X024671Y007483D03*
X021796Y008546D03*
X022889Y005483D03*
X017233Y018889D03*
D13*
X018155Y018382D02*
X018246Y018420D01*
X018345Y018420D01*
X018437Y018382D01*
X018507Y018312D01*
X018545Y018220D01*
X018545Y018121D01*
X018507Y018030D01*
X018437Y017959D01*
X018345Y017922D01*
X018246Y017922D01*
X018155Y017959D01*
X018084Y018030D01*
X018047Y018121D01*
X018047Y018220D01*
X018084Y018312D01*
X018155Y018382D01*
X018224Y018410D02*
X013771Y018410D01*
X013771Y018312D02*
X018085Y018312D01*
X018047Y018213D02*
X013771Y018213D01*
X013771Y018115D02*
X018049Y018115D01*
X018098Y018016D02*
X013766Y018016D01*
X013767Y018032D02*
X013771Y018035D01*
X013771Y018073D01*
X013774Y018110D01*
X013771Y018113D01*
X013771Y019038D01*
X023383Y019038D01*
X023383Y018114D01*
X023380Y018111D01*
X023383Y018073D01*
X023383Y018035D01*
X023386Y018033D01*
X023392Y017952D01*
X023387Y017945D01*
X023395Y017911D01*
X023397Y017877D01*
X023403Y017872D01*
X023421Y017789D01*
X023418Y017781D01*
X023430Y017749D01*
X023437Y017716D01*
X023444Y017711D01*
X023474Y017632D01*
X023472Y017624D01*
X023488Y017594D01*
X023500Y017562D01*
X023507Y017558D01*
X023548Y017484D01*
X023547Y017476D01*
X023567Y017448D01*
X023584Y017418D01*
X023592Y017416D01*
X023643Y017348D01*
X023643Y017340D01*
X023667Y017315D01*
X023687Y017288D01*
X023695Y017287D01*
X023756Y017227D01*
X023757Y017219D01*
X023784Y017198D01*
X023808Y017174D01*
X023817Y017174D01*
X023885Y017123D01*
X023887Y017115D01*
X023917Y017099D01*
X023944Y017078D01*
X023952Y017079D01*
X024027Y017039D01*
X024030Y017031D01*
X024063Y017019D01*
X024093Y017003D01*
X024100Y017005D01*
X024180Y016975D01*
X024185Y016968D01*
X024218Y016961D01*
X024250Y016949D01*
X024258Y016953D01*
X024341Y016935D01*
X024346Y016928D01*
X024380Y016926D01*
X024414Y016919D01*
X024420Y016923D01*
X024501Y016917D01*
X024504Y016914D01*
X024542Y016914D01*
X024580Y016912D01*
X024583Y016914D01*
X024952Y016914D01*
X024677Y016639D01*
X024677Y007702D01*
X025077Y007302D01*
X024615Y007302D01*
X024612Y007304D01*
X024574Y007302D01*
X024535Y007302D01*
X024533Y007300D01*
X024446Y007295D01*
X024440Y007299D01*
X024406Y007292D01*
X024372Y007290D01*
X024366Y007284D01*
X024276Y007266D01*
X024269Y007269D01*
X024237Y007258D01*
X024203Y007251D01*
X024199Y007244D01*
X024112Y007213D01*
X024105Y007216D01*
X024074Y007200D01*
X024042Y007188D01*
X024038Y007181D01*
X023957Y007138D01*
X023949Y007139D01*
X023922Y007119D01*
X023891Y007103D01*
X023889Y007096D01*
X023815Y007042D01*
X023807Y007042D01*
X023782Y007018D01*
X023754Y006998D01*
X023753Y006990D01*
X023687Y006926D01*
X023679Y006925D01*
X023658Y006898D01*
X023634Y006874D01*
X023634Y006865D01*
X023578Y006793D01*
X023570Y006791D01*
X023553Y006761D01*
X023532Y006734D01*
X023533Y006726D01*
X023488Y006646D01*
X023480Y006642D01*
X023468Y006610D01*
X023451Y006581D01*
X023453Y006573D01*
X023420Y006487D01*
X023413Y006483D01*
X023405Y006450D01*
X023393Y006418D01*
X023396Y006410D01*
X023376Y006321D01*
X023369Y006316D01*
X023366Y006282D01*
X023359Y006248D01*
X023363Y006241D01*
X023355Y006151D01*
X023351Y006147D01*
X023352Y006111D01*
X023349Y006075D01*
X023353Y006070D01*
X023378Y005164D01*
X013771Y005164D01*
X013771Y006071D01*
X013773Y006074D01*
X013771Y006112D01*
X013771Y006150D01*
X013768Y006152D01*
X013762Y006238D01*
X013766Y006245D01*
X013759Y006278D01*
X013756Y006312D01*
X013750Y006318D01*
X013731Y006405D01*
X013734Y006412D01*
X013723Y006445D01*
X013715Y006478D01*
X013708Y006482D01*
X013677Y006566D01*
X013679Y006574D01*
X013663Y006604D01*
X013651Y006636D01*
X013644Y006640D01*
X013601Y006718D01*
X013602Y006726D01*
X013581Y006754D01*
X013565Y006784D01*
X013557Y006786D01*
X013503Y006858D01*
X013503Y006866D01*
X013479Y006890D01*
X013459Y006917D01*
X013451Y006919D01*
X013387Y006982D01*
X013386Y006990D01*
X013359Y007010D01*
X013335Y007035D01*
X013326Y007035D01*
X013255Y007088D01*
X013252Y007096D01*
X013222Y007113D01*
X013195Y007133D01*
X013187Y007132D01*
X013108Y007175D01*
X013105Y007182D01*
X013073Y007194D01*
X013043Y007211D01*
X013035Y007208D01*
X012951Y007240D01*
X012947Y007246D01*
X012913Y007254D01*
X012881Y007266D01*
X012874Y007262D01*
X012786Y007281D01*
X012781Y007288D01*
X012747Y007290D01*
X012713Y007297D01*
X012706Y007293D01*
X012621Y007299D01*
X012618Y007302D01*
X012580Y007302D01*
X012543Y007305D01*
X012540Y007302D01*
X012201Y007302D01*
X012389Y007489D01*
X012477Y007577D01*
X012477Y016639D01*
X012201Y016914D01*
X012539Y016914D01*
X012541Y016912D01*
X012580Y016914D01*
X012618Y016914D01*
X012621Y016917D01*
X012703Y016921D01*
X012710Y016917D01*
X012743Y016924D01*
X012778Y016926D01*
X012783Y016932D01*
X012868Y016949D01*
X012876Y016946D01*
X012908Y016957D01*
X012942Y016964D01*
X012946Y016971D01*
X013028Y017000D01*
X013036Y016998D01*
X013066Y017014D01*
X013099Y017025D01*
X013102Y017032D01*
X013179Y017073D01*
X013187Y017072D01*
X013215Y017092D01*
X013246Y017108D01*
X013248Y017116D01*
X013319Y017167D01*
X013327Y017167D01*
X013351Y017191D01*
X013379Y017211D01*
X013380Y017219D01*
X013443Y017280D01*
X013451Y017281D01*
X013472Y017308D01*
X013496Y017332D01*
X013497Y017340D01*
X013550Y017409D01*
X013558Y017411D01*
X013575Y017441D01*
X013596Y017468D01*
X013594Y017476D01*
X013637Y017552D01*
X013645Y017556D01*
X013657Y017587D01*
X013674Y017617D01*
X013672Y017625D01*
X013704Y017706D01*
X013711Y017711D01*
X013718Y017744D01*
X013731Y017776D01*
X013727Y017784D01*
X013747Y017869D01*
X013753Y017874D01*
X013756Y017908D01*
X013764Y017941D01*
X013760Y017948D01*
X013767Y018032D01*
X013759Y017918D02*
X022379Y017918D01*
X022389Y017904D02*
X022435Y017858D01*
X022487Y017820D01*
X022544Y017791D01*
X022606Y017771D01*
X022652Y017763D01*
X022652Y018121D01*
X022295Y018121D01*
X022302Y018075D01*
X022322Y018013D01*
X022351Y017956D01*
X022389Y017904D01*
X022488Y017819D02*
X013736Y017819D01*
X013713Y017721D02*
X023436Y017721D01*
X023415Y017819D02*
X022916Y017819D01*
X022917Y017820D02*
X022969Y017858D01*
X023015Y017904D01*
X023053Y017956D01*
X023082Y018013D01*
X023102Y018075D01*
X023109Y018121D01*
X022752Y018121D01*
X022752Y018221D01*
X022652Y018221D01*
X022652Y018578D01*
X022606Y018571D01*
X022544Y018551D01*
X022487Y018521D01*
X022435Y018483D01*
X022389Y018438D01*
X022351Y018386D01*
X022322Y018328D01*
X022302Y018267D01*
X022295Y018221D01*
X022652Y018221D01*
X022652Y018121D01*
X022752Y018121D01*
X022752Y017763D01*
X022798Y017771D01*
X022859Y017791D01*
X022917Y017820D01*
X023025Y017918D02*
X023393Y017918D01*
X023387Y018016D02*
X023083Y018016D01*
X023108Y018115D02*
X023383Y018115D01*
X023383Y018213D02*
X022752Y018213D01*
X022752Y018221D02*
X023109Y018221D01*
X023102Y018267D01*
X023082Y018328D01*
X023053Y018386D01*
X023015Y018438D01*
X022969Y018483D01*
X022917Y018521D01*
X022859Y018551D01*
X022798Y018571D01*
X022752Y018578D01*
X022752Y018221D01*
X022752Y018312D02*
X022652Y018312D01*
X022652Y018410D02*
X022752Y018410D01*
X022752Y018509D02*
X022652Y018509D01*
X022470Y018509D02*
X019587Y018509D01*
X019569Y018467D02*
X019607Y018559D01*
X019607Y018658D01*
X019569Y018749D01*
X019499Y018819D01*
X019408Y018857D01*
X019309Y018857D01*
X019217Y018819D01*
X019147Y018749D01*
X019109Y018658D01*
X019109Y018559D01*
X019147Y018467D01*
X019217Y018397D01*
X019309Y018359D01*
X019408Y018359D01*
X019499Y018397D01*
X019569Y018467D01*
X019513Y018410D02*
X022369Y018410D01*
X022317Y018312D02*
X018507Y018312D01*
X018545Y018213D02*
X022652Y018213D01*
X022652Y018115D02*
X022752Y018115D01*
X022752Y018016D02*
X022652Y018016D01*
X022652Y017918D02*
X022752Y017918D01*
X022752Y017819D02*
X022652Y017819D01*
X022612Y017621D02*
X022447Y017552D01*
X022320Y017426D01*
X022252Y017260D01*
X022252Y017081D01*
X022320Y016916D01*
X022447Y016789D01*
X022612Y016721D01*
X022791Y016721D01*
X022957Y016789D01*
X023083Y016916D01*
X023152Y017081D01*
X023152Y017260D01*
X023083Y017426D01*
X022957Y017552D01*
X022791Y017621D01*
X022612Y017621D01*
X022419Y017524D02*
X013621Y017524D01*
X013673Y017622D02*
X023472Y017622D01*
X023526Y017524D02*
X022985Y017524D01*
X023083Y017425D02*
X023580Y017425D01*
X023655Y017327D02*
X023124Y017327D01*
X023152Y017228D02*
X023754Y017228D01*
X023875Y017130D02*
X023152Y017130D01*
X023131Y017031D02*
X024030Y017031D01*
X024342Y016933D02*
X023090Y016933D01*
X023002Y016834D02*
X024872Y016834D01*
X024774Y016736D02*
X022828Y016736D01*
X022798Y016571D02*
X022752Y016578D01*
X022752Y016221D01*
X022652Y016221D01*
X022652Y016578D01*
X022606Y016571D01*
X022544Y016551D01*
X022487Y016521D01*
X022435Y016483D01*
X022389Y016438D01*
X022351Y016386D01*
X022322Y016328D01*
X022302Y016267D01*
X022295Y016221D01*
X022652Y016221D01*
X022652Y016121D01*
X022295Y016121D01*
X022302Y016075D01*
X022322Y016013D01*
X022351Y015956D01*
X022389Y015904D01*
X022435Y015858D01*
X022487Y015820D01*
X022544Y015791D01*
X022606Y015771D01*
X022652Y015763D01*
X022652Y016121D01*
X022752Y016121D01*
X022752Y016221D01*
X023109Y016221D01*
X023102Y016267D01*
X023082Y016328D01*
X023053Y016386D01*
X023015Y016438D01*
X022969Y016483D01*
X022917Y016521D01*
X022859Y016551D01*
X022798Y016571D01*
X022752Y016539D02*
X022652Y016539D01*
X022652Y016440D02*
X022752Y016440D01*
X022752Y016342D02*
X022652Y016342D01*
X022652Y016243D02*
X022752Y016243D01*
X022752Y016145D02*
X024677Y016145D01*
X024677Y016243D02*
X023105Y016243D01*
X023075Y016342D02*
X024677Y016342D01*
X024677Y016440D02*
X023012Y016440D01*
X022882Y016539D02*
X024677Y016539D01*
X024677Y016637D02*
X017275Y016637D01*
X017249Y016663D02*
X017319Y016593D01*
X017357Y016501D01*
X017357Y016402D01*
X017319Y016311D01*
X017249Y016241D01*
X017158Y016203D01*
X017059Y016203D01*
X016967Y016241D01*
X016897Y016311D01*
X016859Y016402D01*
X016859Y016501D01*
X016897Y016593D01*
X016967Y016663D01*
X017059Y016701D01*
X017158Y016701D01*
X017249Y016663D01*
X017342Y016539D02*
X022522Y016539D01*
X022392Y016440D02*
X021121Y016440D01*
X021095Y016451D02*
X020996Y016451D01*
X020905Y016413D01*
X020834Y016343D01*
X020797Y016251D01*
X020797Y016152D01*
X020834Y016061D01*
X020905Y015991D01*
X020996Y015953D01*
X021095Y015953D01*
X021187Y015991D01*
X021257Y016061D01*
X021295Y016152D01*
X021295Y016251D01*
X021257Y016343D01*
X021187Y016413D01*
X021095Y016451D01*
X020971Y016440D02*
X017357Y016440D01*
X017332Y016342D02*
X020834Y016342D01*
X020797Y016243D02*
X017252Y016243D01*
X016964Y016243D02*
X015245Y016243D01*
X015235Y016221D02*
X015281Y016330D01*
X015281Y016449D01*
X015235Y016558D01*
X015152Y016642D01*
X015042Y016687D01*
X014924Y016687D01*
X014815Y016642D01*
X014731Y016558D01*
X014685Y016449D01*
X014685Y016330D01*
X014731Y016221D01*
X014815Y016137D01*
X014924Y016092D01*
X015042Y016092D01*
X015152Y016137D01*
X015235Y016221D01*
X015160Y016145D02*
X018886Y016145D01*
X018905Y016163D02*
X018834Y016093D01*
X018797Y016001D01*
X018797Y015902D01*
X018834Y015811D01*
X018905Y015741D01*
X018996Y015703D01*
X019095Y015703D01*
X019187Y015741D01*
X019257Y015811D01*
X019295Y015902D01*
X019295Y016001D01*
X019257Y016093D01*
X019187Y016163D01*
X019095Y016201D01*
X018996Y016201D01*
X018905Y016163D01*
X018815Y016046D02*
X012477Y016046D01*
X012477Y015948D02*
X018797Y015948D01*
X018818Y015849D02*
X018520Y015849D01*
X018501Y015857D02*
X018402Y015857D01*
X018311Y015819D01*
X018241Y015749D01*
X018203Y015658D01*
X018203Y015559D01*
X018241Y015467D01*
X018311Y015397D01*
X018402Y015359D01*
X018501Y015359D01*
X018503Y015360D01*
X018484Y015314D01*
X018484Y015215D01*
X018522Y015123D01*
X018537Y015108D01*
X018522Y015093D01*
X018484Y015001D01*
X018484Y014902D01*
X018522Y014811D01*
X018592Y014741D01*
X018684Y014703D01*
X018783Y014703D01*
X018874Y014741D01*
X018944Y014811D01*
X018982Y014902D01*
X018982Y015001D01*
X018944Y015093D01*
X018929Y015108D01*
X018944Y015123D01*
X018982Y015215D01*
X018982Y015314D01*
X018944Y015405D01*
X018874Y015476D01*
X018783Y015513D01*
X018684Y015513D01*
X018682Y015513D01*
X018701Y015559D01*
X018701Y015658D01*
X018663Y015749D01*
X018593Y015819D01*
X018501Y015857D01*
X018384Y015849D02*
X012477Y015849D01*
X012477Y015751D02*
X018242Y015751D01*
X018203Y015652D02*
X012477Y015652D01*
X012477Y015554D02*
X016983Y015554D01*
X016998Y015569D02*
X016928Y015499D01*
X016890Y015408D01*
X016890Y015309D01*
X016928Y015217D01*
X016998Y015147D01*
X017090Y015109D01*
X017189Y015109D01*
X017280Y015147D01*
X017311Y015178D01*
X017342Y015147D01*
X017434Y015109D01*
X017533Y015109D01*
X017624Y015147D01*
X017694Y015217D01*
X017732Y015309D01*
X017732Y015408D01*
X017694Y015499D01*
X017624Y015569D01*
X017533Y015607D01*
X017434Y015607D01*
X017342Y015569D01*
X017311Y015538D01*
X017280Y015569D01*
X017189Y015607D01*
X017090Y015607D01*
X016998Y015569D01*
X016910Y015455D02*
X012477Y015455D01*
X012477Y015357D02*
X013373Y015357D01*
X013377Y015360D02*
X013293Y015277D01*
X013248Y015167D01*
X013248Y015049D01*
X013293Y014940D01*
X013377Y014856D01*
X013486Y014810D01*
X013605Y014810D01*
X013714Y014856D01*
X013798Y014940D01*
X013843Y015049D01*
X013843Y015167D01*
X013798Y015277D01*
X013714Y015360D01*
X013605Y015406D01*
X013486Y015406D01*
X013377Y015360D01*
X013286Y015258D02*
X012477Y015258D01*
X012477Y015160D02*
X013248Y015160D01*
X013248Y015061D02*
X012477Y015061D01*
X012477Y014963D02*
X013284Y014963D01*
X013368Y014864D02*
X012477Y014864D01*
X012477Y014766D02*
X015990Y014766D01*
X015984Y014751D02*
X015984Y014652D01*
X016022Y014561D01*
X016092Y014491D01*
X016184Y014453D01*
X016283Y014453D01*
X016374Y014491D01*
X016444Y014561D01*
X016482Y014652D01*
X016482Y014751D01*
X016444Y014843D01*
X016374Y014913D01*
X016283Y014951D01*
X016184Y014951D01*
X016092Y014913D01*
X016022Y014843D01*
X015984Y014751D01*
X015984Y014667D02*
X012477Y014667D01*
X012477Y014569D02*
X016019Y014569D01*
X016141Y014470D02*
X012477Y014470D01*
X012477Y014372D02*
X020010Y014372D01*
X020022Y014342D02*
X020092Y014272D01*
X020184Y014234D01*
X020283Y014234D01*
X020374Y014272D01*
X020444Y014342D01*
X020482Y014434D01*
X020482Y014533D01*
X020444Y014624D01*
X020374Y014694D01*
X020283Y014732D01*
X020184Y014732D01*
X020092Y014694D01*
X020022Y014624D01*
X019984Y014533D01*
X019984Y014434D01*
X020022Y014342D01*
X020091Y014273D02*
X015865Y014273D01*
X015905Y014257D02*
X015814Y014295D01*
X015715Y014295D01*
X015623Y014257D01*
X015553Y014187D01*
X015515Y014095D01*
X015515Y013996D01*
X015553Y013905D01*
X015623Y013834D01*
X015715Y013797D01*
X015814Y013797D01*
X015905Y013834D01*
X015976Y013905D01*
X016013Y013996D01*
X016013Y014095D01*
X015976Y014187D01*
X015905Y014257D01*
X015980Y014175D02*
X024677Y014175D01*
X024677Y014273D02*
X020376Y014273D01*
X020457Y014372D02*
X024677Y014372D01*
X024677Y014470D02*
X020482Y014470D01*
X020467Y014569D02*
X024677Y014569D01*
X024677Y014667D02*
X020401Y014667D01*
X020065Y014667D02*
X016482Y014667D01*
X016476Y014766D02*
X018567Y014766D01*
X018500Y014864D02*
X016423Y014864D01*
X016043Y014864D02*
X013723Y014864D01*
X013808Y014963D02*
X018484Y014963D01*
X018509Y015061D02*
X013843Y015061D01*
X013843Y015160D02*
X016985Y015160D01*
X016911Y015258D02*
X013806Y015258D01*
X013718Y015357D02*
X016890Y015357D01*
X017293Y015160D02*
X017329Y015160D01*
X017637Y015160D02*
X018507Y015160D01*
X018484Y015258D02*
X017711Y015258D01*
X017732Y015357D02*
X018502Y015357D01*
X018252Y015455D02*
X017712Y015455D01*
X017640Y015554D02*
X018205Y015554D01*
X018699Y015554D02*
X019193Y015554D01*
X019155Y015538D02*
X019084Y015468D01*
X019047Y015376D01*
X019047Y015277D01*
X019084Y015186D01*
X019155Y015116D01*
X019246Y015078D01*
X019345Y015078D01*
X019437Y015116D01*
X019507Y015186D01*
X019545Y015277D01*
X019545Y015376D01*
X019507Y015468D01*
X019437Y015538D01*
X019345Y015576D01*
X019246Y015576D01*
X019155Y015538D01*
X019079Y015455D02*
X018894Y015455D01*
X018964Y015357D02*
X019047Y015357D01*
X019054Y015258D02*
X018982Y015258D01*
X018959Y015160D02*
X019110Y015160D01*
X018957Y015061D02*
X022260Y015061D01*
X022252Y015081D02*
X022320Y014916D01*
X022447Y014789D01*
X022612Y014721D01*
X022791Y014721D01*
X022957Y014789D01*
X023083Y014916D01*
X023152Y015081D01*
X023152Y015260D01*
X023083Y015426D01*
X022957Y015552D01*
X022791Y015621D01*
X022612Y015621D01*
X022447Y015552D01*
X022320Y015426D01*
X022252Y015260D01*
X022252Y015081D01*
X022252Y015160D02*
X019481Y015160D01*
X019537Y015258D02*
X022252Y015258D01*
X022292Y015357D02*
X021778Y015357D01*
X021745Y015325D02*
X021829Y015408D01*
X021875Y015518D01*
X021875Y015636D01*
X021829Y015745D01*
X021745Y015829D01*
X021636Y015875D01*
X021518Y015875D01*
X021408Y015829D01*
X021325Y015745D01*
X021279Y015636D01*
X021279Y015518D01*
X021325Y015408D01*
X021408Y015325D01*
X021518Y015279D01*
X021636Y015279D01*
X021745Y015325D01*
X021849Y015455D02*
X022350Y015455D01*
X022451Y015554D02*
X021875Y015554D01*
X021868Y015652D02*
X024677Y015652D01*
X024677Y015554D02*
X022952Y015554D01*
X023053Y015455D02*
X024677Y015455D01*
X024677Y015357D02*
X023112Y015357D01*
X023152Y015258D02*
X024677Y015258D01*
X024677Y015160D02*
X023152Y015160D01*
X023144Y015061D02*
X024677Y015061D01*
X024677Y014963D02*
X023103Y014963D01*
X023032Y014864D02*
X024677Y014864D01*
X024677Y014766D02*
X022901Y014766D01*
X022503Y014766D02*
X018899Y014766D01*
X018966Y014864D02*
X022372Y014864D01*
X022301Y014963D02*
X018982Y014963D01*
X019545Y015357D02*
X021376Y015357D01*
X021305Y015455D02*
X019512Y015455D01*
X019398Y015554D02*
X021279Y015554D01*
X021286Y015652D02*
X018701Y015652D01*
X018661Y015751D02*
X018894Y015751D01*
X019197Y015751D02*
X021330Y015751D01*
X021457Y015849D02*
X019273Y015849D01*
X019295Y015948D02*
X022357Y015948D01*
X022311Y016046D02*
X021242Y016046D01*
X021292Y016145D02*
X022652Y016145D01*
X022652Y016046D02*
X022752Y016046D01*
X022752Y016121D02*
X022752Y015763D01*
X022798Y015771D01*
X022859Y015791D01*
X022917Y015820D01*
X022969Y015858D01*
X023015Y015904D01*
X023053Y015956D01*
X023082Y016013D01*
X023102Y016075D01*
X023109Y016121D01*
X022752Y016121D01*
X022752Y015948D02*
X022652Y015948D01*
X022652Y015849D02*
X022752Y015849D01*
X022957Y015849D02*
X024677Y015849D01*
X024677Y015751D02*
X021824Y015751D01*
X021697Y015849D02*
X022446Y015849D01*
X022298Y016243D02*
X021295Y016243D01*
X021257Y016342D02*
X022329Y016342D01*
X022575Y016736D02*
X016193Y016736D01*
X016218Y016726D02*
X016126Y016763D01*
X016027Y016763D01*
X015936Y016726D01*
X015866Y016655D01*
X015842Y016599D01*
X015819Y016655D01*
X015749Y016726D01*
X015658Y016763D01*
X015559Y016763D01*
X015467Y016726D01*
X015397Y016655D01*
X015359Y016564D01*
X015359Y016465D01*
X015397Y016373D01*
X015467Y016303D01*
X015559Y016265D01*
X015658Y016265D01*
X015749Y016303D01*
X015819Y016373D01*
X015842Y016429D01*
X015866Y016373D01*
X015936Y016303D01*
X016027Y016265D01*
X016126Y016265D01*
X016218Y016303D01*
X016288Y016373D01*
X016326Y016465D01*
X016326Y016564D01*
X016288Y016655D01*
X016218Y016726D01*
X016295Y016637D02*
X016941Y016637D01*
X016875Y016539D02*
X016326Y016539D01*
X016316Y016440D02*
X016859Y016440D01*
X016884Y016342D02*
X016257Y016342D01*
X015897Y016342D02*
X015788Y016342D01*
X015827Y016637D02*
X015858Y016637D01*
X015961Y016736D02*
X015724Y016736D01*
X015492Y016736D02*
X012380Y016736D01*
X012477Y016637D02*
X014810Y016637D01*
X014723Y016539D02*
X012477Y016539D01*
X012477Y016440D02*
X014685Y016440D01*
X014685Y016342D02*
X012477Y016342D01*
X012477Y016243D02*
X014721Y016243D01*
X014807Y016145D02*
X012477Y016145D01*
X012281Y016834D02*
X022402Y016834D01*
X022313Y016933D02*
X012789Y016933D01*
X013102Y017031D02*
X022272Y017031D01*
X022252Y017130D02*
X013267Y017130D01*
X013390Y017228D02*
X022252Y017228D01*
X022280Y017327D02*
X013491Y017327D01*
X013566Y017425D02*
X022320Y017425D01*
X022321Y018016D02*
X018494Y018016D01*
X018542Y018115D02*
X022296Y018115D01*
X022934Y018509D02*
X023383Y018509D01*
X023383Y018607D02*
X019607Y018607D01*
X019587Y018706D02*
X023383Y018706D01*
X023383Y018804D02*
X019514Y018804D01*
X019202Y018804D02*
X013771Y018804D01*
X013771Y018706D02*
X019129Y018706D01*
X019109Y018607D02*
X013771Y018607D01*
X013771Y018509D02*
X019130Y018509D01*
X019204Y018410D02*
X018368Y018410D01*
X015390Y016637D02*
X015156Y016637D01*
X015243Y016539D02*
X015359Y016539D01*
X015369Y016440D02*
X015281Y016440D01*
X015281Y016342D02*
X015428Y016342D01*
X017296Y015554D02*
X017327Y015554D01*
X016448Y014569D02*
X019999Y014569D01*
X019984Y014470D02*
X016325Y014470D01*
X016013Y014076D02*
X023068Y014076D01*
X023092Y014101D02*
X023022Y014030D01*
X022984Y013939D01*
X022984Y013840D01*
X023022Y013748D01*
X023092Y013678D01*
X023184Y013640D01*
X023283Y013640D01*
X023374Y013678D01*
X023444Y013748D01*
X023482Y013840D01*
X023482Y013939D01*
X023444Y014030D01*
X023374Y014101D01*
X023283Y014138D01*
X023184Y014138D01*
X023092Y014101D01*
X023000Y013978D02*
X019418Y013978D01*
X019408Y013982D02*
X019309Y013982D01*
X019217Y013944D01*
X019147Y013874D01*
X019127Y013826D01*
X019059Y013826D01*
X018967Y013788D01*
X018897Y013718D01*
X018859Y013626D01*
X018859Y013527D01*
X018897Y013436D01*
X018967Y013366D01*
X019059Y013328D01*
X019158Y013328D01*
X019249Y013366D01*
X019319Y013436D01*
X019339Y013484D01*
X019408Y013484D01*
X019499Y013522D01*
X019569Y013592D01*
X019607Y013684D01*
X019607Y013783D01*
X019569Y013874D01*
X019499Y013944D01*
X019408Y013982D01*
X019298Y013978D02*
X016006Y013978D01*
X015950Y013879D02*
X016384Y013879D01*
X016406Y013888D02*
X016314Y013851D01*
X016244Y013780D01*
X016206Y013689D01*
X016206Y013590D01*
X016244Y013498D01*
X016314Y013428D01*
X016406Y013390D01*
X016505Y013390D01*
X016596Y013428D01*
X016666Y013498D01*
X016704Y013590D01*
X016704Y013689D01*
X016666Y013780D01*
X016596Y013851D01*
X016505Y013888D01*
X016406Y013888D01*
X016526Y013879D02*
X019152Y013879D01*
X018960Y013781D02*
X016666Y013781D01*
X016704Y013682D02*
X018882Y013682D01*
X018859Y013584D02*
X016702Y013584D01*
X016653Y013485D02*
X018876Y013485D01*
X018946Y013387D02*
X012477Y013387D01*
X012477Y013485D02*
X016257Y013485D01*
X016208Y013584D02*
X012477Y013584D01*
X012477Y013682D02*
X016206Y013682D01*
X016244Y013781D02*
X012477Y013781D01*
X012477Y013879D02*
X015578Y013879D01*
X015523Y013978D02*
X012477Y013978D01*
X012477Y014076D02*
X015515Y014076D01*
X015548Y014175D02*
X012477Y014175D01*
X012477Y014273D02*
X015663Y014273D01*
X016592Y013101D02*
X016522Y013030D01*
X016484Y012939D01*
X016484Y012840D01*
X016522Y012748D01*
X016592Y012678D01*
X016614Y012669D01*
X016609Y012658D01*
X016609Y012559D01*
X016647Y012467D01*
X016662Y012452D01*
X016647Y012437D01*
X016609Y012345D01*
X016609Y012246D01*
X016647Y012155D01*
X016717Y012084D01*
X016809Y012047D01*
X016908Y012047D01*
X016999Y012084D01*
X017069Y012155D01*
X017107Y012246D01*
X017107Y012345D01*
X017069Y012437D01*
X017054Y012452D01*
X017069Y012467D01*
X017107Y012559D01*
X017107Y012658D01*
X017069Y012749D01*
X016999Y012819D01*
X016977Y012828D01*
X016982Y012840D01*
X016982Y012939D01*
X016944Y013030D01*
X016874Y013101D01*
X016783Y013138D01*
X016684Y013138D01*
X016592Y013101D01*
X016583Y013091D02*
X012477Y013091D01*
X012477Y012993D02*
X016506Y012993D01*
X016484Y012894D02*
X012477Y012894D01*
X012477Y012796D02*
X016502Y012796D01*
X016573Y012697D02*
X012477Y012697D01*
X012477Y012599D02*
X016609Y012599D01*
X016633Y012500D02*
X012477Y012500D01*
X012477Y012402D02*
X016633Y012402D01*
X016609Y012303D02*
X012477Y012303D01*
X012477Y012205D02*
X016626Y012205D01*
X016695Y012106D02*
X012477Y012106D01*
X012477Y012008D02*
X018251Y012008D01*
X018248Y012007D02*
X018178Y011937D01*
X018140Y011845D01*
X018140Y011746D01*
X018178Y011655D01*
X018248Y011584D01*
X018340Y011547D01*
X018439Y011547D01*
X018530Y011584D01*
X018601Y011655D01*
X018638Y011746D01*
X018638Y011845D01*
X018601Y011937D01*
X018530Y012007D01*
X018439Y012045D01*
X018340Y012045D01*
X018248Y012007D01*
X018167Y011909D02*
X016651Y011909D01*
X016626Y011920D02*
X016527Y011920D01*
X016436Y011882D01*
X016366Y011812D01*
X016328Y011720D01*
X016328Y011701D01*
X016277Y011701D01*
X016186Y011663D01*
X016116Y011593D01*
X016078Y011501D01*
X016078Y011402D01*
X016116Y011311D01*
X016186Y011241D01*
X016277Y011203D01*
X016376Y011203D01*
X016468Y011241D01*
X016538Y011311D01*
X016576Y011402D01*
X016576Y011422D01*
X016626Y011422D01*
X016718Y011459D01*
X016788Y011530D01*
X016826Y011621D01*
X016826Y011720D01*
X016788Y011812D01*
X016718Y011882D01*
X016626Y011920D01*
X016502Y011909D02*
X012477Y011909D01*
X012477Y011811D02*
X016365Y011811D01*
X016328Y011712D02*
X012477Y011712D01*
X012477Y011614D02*
X016137Y011614D01*
X016084Y011515D02*
X012477Y011515D01*
X012477Y011417D02*
X016078Y011417D01*
X016113Y011318D02*
X012477Y011318D01*
X012477Y011220D02*
X016236Y011220D01*
X016418Y011220D02*
X018086Y011220D01*
X018092Y011226D02*
X018022Y011155D01*
X017984Y011064D01*
X017984Y010965D01*
X018022Y010873D01*
X018092Y010803D01*
X018184Y010765D01*
X018252Y010765D01*
X018272Y010717D01*
X018342Y010647D01*
X018434Y010609D01*
X018502Y010609D01*
X018522Y010561D01*
X018592Y010491D01*
X018684Y010453D01*
X018752Y010453D01*
X018772Y010405D01*
X018842Y010334D01*
X018934Y010297D01*
X019033Y010297D01*
X019124Y010334D01*
X019194Y010405D01*
X019232Y010496D01*
X019232Y010595D01*
X019194Y010687D01*
X019124Y010757D01*
X019033Y010795D01*
X018964Y010795D01*
X018944Y010843D01*
X018874Y010913D01*
X018783Y010951D01*
X018714Y010951D01*
X018694Y010999D01*
X018624Y011069D01*
X018533Y011107D01*
X018464Y011107D01*
X018444Y011155D01*
X018374Y011226D01*
X018283Y011263D01*
X018184Y011263D01*
X018092Y011226D01*
X018008Y011121D02*
X016730Y011121D01*
X016689Y011138D02*
X016590Y011138D01*
X016498Y011101D01*
X016428Y011030D01*
X016390Y010939D01*
X016390Y010840D01*
X016428Y010748D01*
X016498Y010678D01*
X016590Y010640D01*
X016689Y010640D01*
X016780Y010678D01*
X016851Y010748D01*
X016888Y010840D01*
X016888Y010939D01*
X016851Y011030D01*
X016780Y011101D01*
X016689Y011138D01*
X016549Y011121D02*
X012477Y011121D01*
X012477Y011023D02*
X014381Y011023D01*
X014342Y011007D02*
X014272Y010937D01*
X014234Y010845D01*
X014234Y010746D01*
X014272Y010655D01*
X014342Y010584D01*
X014434Y010547D01*
X014533Y010547D01*
X014624Y010584D01*
X014694Y010655D01*
X014732Y010746D01*
X014732Y010845D01*
X014694Y010937D01*
X014624Y011007D01*
X014533Y011045D01*
X014434Y011045D01*
X014342Y011007D01*
X014267Y010924D02*
X012477Y010924D01*
X012477Y010826D02*
X014234Y010826D01*
X014242Y010727D02*
X012477Y010727D01*
X012477Y010629D02*
X014298Y010629D01*
X014669Y010629D02*
X018386Y010629D01*
X018268Y010727D02*
X016830Y010727D01*
X016883Y010826D02*
X018069Y010826D01*
X018001Y010924D02*
X016888Y010924D01*
X016854Y011023D02*
X017984Y011023D01*
X018380Y011220D02*
X024677Y011220D01*
X024677Y011318D02*
X016541Y011318D01*
X016576Y011417D02*
X024677Y011417D01*
X024677Y011515D02*
X016774Y011515D01*
X016823Y011614D02*
X018219Y011614D01*
X018154Y011712D02*
X016826Y011712D01*
X016788Y011811D02*
X018140Y011811D01*
X018528Y012008D02*
X019453Y012008D01*
X019453Y011965D02*
X019453Y012064D01*
X019491Y012155D01*
X019561Y012226D01*
X019652Y012263D01*
X019751Y012263D01*
X019843Y012226D01*
X019913Y012155D01*
X019951Y012064D01*
X019951Y011965D01*
X019913Y011873D01*
X019843Y011803D01*
X019751Y011765D01*
X019652Y011765D01*
X019561Y011803D01*
X019491Y011873D01*
X019453Y011965D01*
X019476Y011909D02*
X018612Y011909D01*
X018638Y011811D02*
X019553Y011811D01*
X019851Y011811D02*
X024677Y011811D01*
X024677Y011909D02*
X019928Y011909D01*
X019951Y012008D02*
X023044Y012008D01*
X023022Y012030D02*
X023092Y011959D01*
X023184Y011922D01*
X023283Y011922D01*
X023374Y011959D01*
X023444Y012030D01*
X023482Y012121D01*
X023482Y012220D01*
X023444Y012312D01*
X023374Y012382D01*
X023283Y012420D01*
X023184Y012420D01*
X023092Y012382D01*
X023022Y012312D01*
X022984Y012220D01*
X022984Y012121D01*
X023022Y012030D01*
X022990Y012106D02*
X019933Y012106D01*
X019864Y012205D02*
X020741Y012205D01*
X020746Y012203D02*
X020845Y012203D01*
X020937Y012241D01*
X021007Y012311D01*
X021045Y012402D01*
X021045Y012501D01*
X021007Y012593D01*
X020937Y012663D01*
X020845Y012701D01*
X020746Y012701D01*
X020655Y012663D01*
X020584Y012593D01*
X020547Y012501D01*
X020547Y012402D01*
X018404Y012402D01*
X018376Y012390D02*
X018468Y012428D01*
X018538Y012498D01*
X018576Y012590D01*
X018576Y012689D01*
X018538Y012780D01*
X018468Y012851D01*
X018376Y012888D01*
X018277Y012888D01*
X018186Y012851D01*
X018116Y012780D01*
X018078Y012689D01*
X018078Y012590D01*
X018116Y012498D01*
X018186Y012428D01*
X018277Y012390D01*
X018376Y012390D01*
X018249Y012402D02*
X017084Y012402D01*
X017083Y012500D02*
X018115Y012500D01*
X018078Y012599D02*
X017107Y012599D01*
X017091Y012697D02*
X018081Y012697D01*
X018131Y012796D02*
X017023Y012796D01*
X016982Y012894D02*
X024677Y012894D01*
X024677Y012796D02*
X018523Y012796D01*
X018572Y012697D02*
X020738Y012697D01*
X020854Y012697D02*
X024677Y012697D01*
X024677Y012599D02*
X021001Y012599D01*
X021045Y012500D02*
X024677Y012500D01*
X024677Y012402D02*
X023326Y012402D01*
X023448Y012303D02*
X024677Y012303D01*
X024677Y012205D02*
X023482Y012205D01*
X023476Y012106D02*
X024677Y012106D01*
X024677Y012008D02*
X023423Y012008D01*
X022984Y012205D02*
X020850Y012205D01*
X020746Y012203D02*
X020655Y012241D01*
X020584Y012311D01*
X020547Y012402D01*
X020547Y012500D02*
X018539Y012500D01*
X018576Y012599D02*
X020590Y012599D01*
X020592Y012303D02*
X017107Y012303D01*
X017090Y012205D02*
X019540Y012205D01*
X019470Y012106D02*
X017021Y012106D01*
X016960Y012993D02*
X023059Y012993D01*
X023092Y012959D02*
X023184Y012922D01*
X023283Y012922D01*
X023374Y012959D01*
X023444Y013030D01*
X023482Y013121D01*
X023482Y013220D01*
X023444Y013312D01*
X023374Y013382D01*
X023283Y013420D01*
X023184Y013420D01*
X023092Y013382D01*
X023022Y013312D01*
X022984Y013220D01*
X022984Y013121D01*
X023022Y013030D01*
X023092Y012959D01*
X022996Y013091D02*
X022194Y013091D01*
X022226Y013123D02*
X022155Y013053D01*
X022064Y013015D01*
X021965Y013015D01*
X021873Y013053D01*
X021803Y013123D01*
X021765Y013215D01*
X021765Y013314D01*
X021803Y013405D01*
X021873Y013476D01*
X021965Y013513D01*
X022064Y013513D01*
X022155Y013476D01*
X022226Y013405D01*
X022263Y013314D01*
X022263Y013215D01*
X022226Y013123D01*
X022253Y013190D02*
X022984Y013190D01*
X023012Y013288D02*
X022263Y013288D01*
X022233Y013387D02*
X023104Y013387D01*
X023362Y013387D02*
X024677Y013387D01*
X024677Y013485D02*
X022132Y013485D01*
X021897Y013485D02*
X019411Y013485D01*
X019270Y013387D02*
X021796Y013387D01*
X021765Y013288D02*
X012477Y013288D01*
X012477Y013190D02*
X021776Y013190D01*
X021835Y013091D02*
X016883Y013091D01*
X018624Y011712D02*
X024677Y011712D01*
X024677Y011614D02*
X018560Y011614D01*
X018458Y011121D02*
X023050Y011121D01*
X023022Y011093D02*
X022984Y011001D01*
X022984Y010902D01*
X023022Y010811D01*
X023092Y010741D01*
X023110Y010733D01*
X023092Y010726D01*
X023022Y010655D01*
X022984Y010564D01*
X022984Y010465D01*
X023022Y010373D01*
X023092Y010303D01*
X023184Y010265D01*
X023283Y010265D01*
X023374Y010303D01*
X023444Y010373D01*
X023482Y010465D01*
X023482Y010564D01*
X023444Y010655D01*
X023374Y010726D01*
X023356Y010733D01*
X023374Y010741D01*
X023444Y010811D01*
X023482Y010902D01*
X023482Y011001D01*
X023444Y011093D01*
X023374Y011163D01*
X023283Y011201D01*
X023184Y011201D01*
X023092Y011163D01*
X023022Y011093D01*
X022993Y011023D02*
X018671Y011023D01*
X018847Y010924D02*
X022984Y010924D01*
X023016Y010826D02*
X018951Y010826D01*
X019154Y010727D02*
X023097Y010727D01*
X023011Y010629D02*
X019218Y010629D01*
X019232Y010530D02*
X020959Y010530D01*
X020967Y010538D02*
X020897Y010468D01*
X020859Y010376D01*
X020859Y010277D01*
X020897Y010186D01*
X020967Y010116D01*
X021059Y010078D01*
X021158Y010078D01*
X021210Y010099D01*
X021168Y010058D01*
X021123Y009949D01*
X021123Y009830D01*
X021168Y009721D01*
X021252Y009637D01*
X021361Y009592D01*
X021480Y009592D01*
X021589Y009637D01*
X021673Y009721D01*
X021718Y009830D01*
X021718Y009949D01*
X021673Y010058D01*
X021589Y010142D01*
X021480Y010187D01*
X021361Y010187D01*
X021292Y010158D01*
X021319Y010186D01*
X021357Y010277D01*
X021357Y010376D01*
X021319Y010468D01*
X021249Y010538D01*
X021158Y010576D01*
X021059Y010576D01*
X020967Y010538D01*
X020882Y010432D02*
X019206Y010432D01*
X019122Y010333D02*
X020859Y010333D01*
X020877Y010235D02*
X015365Y010235D01*
X015382Y010218D02*
X015312Y010288D01*
X015220Y010326D01*
X015121Y010326D01*
X015030Y010288D01*
X014959Y010218D01*
X014922Y010126D01*
X014922Y010027D01*
X014959Y009936D01*
X015030Y009866D01*
X015121Y009828D01*
X015220Y009828D01*
X015312Y009866D01*
X015382Y009936D01*
X015420Y010027D01*
X015420Y010126D01*
X015382Y010218D01*
X015416Y010136D02*
X020946Y010136D01*
X021160Y010038D02*
X015420Y010038D01*
X015383Y009939D02*
X021123Y009939D01*
X021123Y009841D02*
X015252Y009841D01*
X015090Y009841D02*
X012477Y009841D01*
X012477Y009939D02*
X014958Y009939D01*
X014922Y010038D02*
X012477Y010038D01*
X012477Y010136D02*
X014926Y010136D01*
X014976Y010235D02*
X012477Y010235D01*
X012477Y010333D02*
X018845Y010333D01*
X018761Y010432D02*
X012477Y010432D01*
X012477Y010530D02*
X018552Y010530D01*
X018715Y009732D02*
X018623Y009694D01*
X018553Y009624D01*
X018515Y009533D01*
X018515Y009434D01*
X018553Y009342D01*
X018623Y009272D01*
X018715Y009234D01*
X018814Y009234D01*
X018905Y009272D01*
X018976Y009342D01*
X019013Y009434D01*
X019013Y009533D01*
X018976Y009624D01*
X018905Y009694D01*
X018814Y009732D01*
X018715Y009732D01*
X018573Y009644D02*
X016751Y009644D01*
X016780Y009632D02*
X016689Y009670D01*
X016590Y009670D01*
X016498Y009632D01*
X016428Y009562D01*
X016390Y009470D01*
X016390Y009371D01*
X016428Y009280D01*
X016498Y009209D01*
X016590Y009172D01*
X016689Y009172D01*
X016780Y009209D01*
X016851Y009280D01*
X016888Y009371D01*
X016888Y009470D01*
X016851Y009562D01*
X016780Y009632D01*
X016857Y009545D02*
X018521Y009545D01*
X018515Y009447D02*
X016888Y009447D01*
X016879Y009348D02*
X018551Y009348D01*
X018677Y009250D02*
X016821Y009250D01*
X016780Y009069D02*
X016689Y009107D01*
X016590Y009107D01*
X016498Y009069D01*
X016428Y008999D01*
X016390Y008908D01*
X016390Y008809D01*
X016428Y008717D01*
X016498Y008647D01*
X016590Y008609D01*
X016689Y008609D01*
X016780Y008647D01*
X016851Y008717D01*
X016888Y008809D01*
X016888Y008908D01*
X016851Y008999D01*
X016780Y009069D01*
X016797Y009053D02*
X019390Y009053D01*
X019390Y009095D02*
X019390Y008996D01*
X019428Y008905D01*
X019498Y008834D01*
X019590Y008797D01*
X019689Y008797D01*
X019780Y008834D01*
X019851Y008905D01*
X019888Y008996D01*
X019888Y009095D01*
X019851Y009187D01*
X019780Y009257D01*
X019689Y009295D01*
X019590Y009295D01*
X019498Y009257D01*
X019428Y009187D01*
X019390Y009095D01*
X019414Y009151D02*
X012477Y009151D01*
X012477Y009053D02*
X015043Y009053D01*
X015041Y009052D02*
X014914Y008926D01*
X014846Y008760D01*
X014846Y008581D01*
X014914Y008416D01*
X015041Y008289D01*
X015206Y008221D01*
X015385Y008221D01*
X015551Y008289D01*
X015677Y008416D01*
X015746Y008581D01*
X015746Y008760D01*
X015677Y008926D01*
X015551Y009052D01*
X015385Y009121D01*
X015206Y009121D01*
X015041Y009052D01*
X014943Y008954D02*
X012477Y008954D01*
X012477Y008856D02*
X014885Y008856D01*
X014846Y008757D02*
X012477Y008757D01*
X012477Y008659D02*
X014846Y008659D01*
X014854Y008560D02*
X012477Y008560D01*
X012477Y008462D02*
X014895Y008462D01*
X014966Y008363D02*
X012477Y008363D01*
X012477Y008265D02*
X015099Y008265D01*
X015206Y008121D02*
X015041Y008052D01*
X014914Y007926D01*
X014846Y007760D01*
X014846Y007581D01*
X014914Y007416D01*
X015041Y007289D01*
X015206Y007221D01*
X015385Y007221D01*
X015551Y007289D01*
X015677Y007416D01*
X015746Y007581D01*
X015746Y007760D01*
X015677Y007926D01*
X015551Y008052D01*
X015385Y008121D01*
X015206Y008121D01*
X015079Y008068D02*
X012477Y008068D01*
X012477Y008166D02*
X024677Y008166D01*
X024677Y008068D02*
X018177Y008068D01*
X018158Y008076D02*
X018059Y008076D01*
X017967Y008038D01*
X017897Y007968D01*
X017859Y007876D01*
X017859Y007777D01*
X017897Y007686D01*
X017967Y007616D01*
X018059Y007578D01*
X018158Y007578D01*
X018249Y007616D01*
X018319Y007686D01*
X018357Y007777D01*
X018357Y007876D01*
X018319Y007968D01*
X018249Y008038D01*
X018158Y008076D01*
X018039Y008068D02*
X017427Y008068D01*
X017408Y008076D02*
X017309Y008076D01*
X017217Y008038D01*
X017147Y007968D01*
X017109Y007876D01*
X017109Y007777D01*
X017147Y007686D01*
X017217Y007616D01*
X017309Y007578D01*
X017408Y007578D01*
X017499Y007616D01*
X017569Y007686D01*
X017607Y007777D01*
X017607Y007876D01*
X017569Y007968D01*
X017499Y008038D01*
X017408Y008076D01*
X017289Y008068D02*
X015512Y008068D01*
X015633Y007969D02*
X017148Y007969D01*
X017109Y007871D02*
X015700Y007871D01*
X015741Y007772D02*
X017111Y007772D01*
X017159Y007674D02*
X015746Y007674D01*
X015743Y007575D02*
X024804Y007575D01*
X024902Y007477D02*
X015702Y007477D01*
X015640Y007378D02*
X025001Y007378D01*
X024705Y007674D02*
X018307Y007674D01*
X018355Y007772D02*
X024677Y007772D01*
X024677Y007871D02*
X018357Y007871D01*
X018318Y007969D02*
X024677Y007969D01*
X024677Y008265D02*
X022842Y008265D01*
X022839Y008262D02*
X022923Y008346D01*
X022968Y008455D01*
X022968Y008574D01*
X022923Y008683D01*
X022839Y008767D01*
X022730Y008812D01*
X022611Y008812D01*
X022502Y008767D01*
X022418Y008683D01*
X022373Y008574D01*
X022373Y008455D01*
X022418Y008346D01*
X022502Y008262D01*
X022611Y008217D01*
X022730Y008217D01*
X022839Y008262D01*
X022930Y008363D02*
X024677Y008363D01*
X024677Y008462D02*
X022968Y008462D01*
X022968Y008560D02*
X024677Y008560D01*
X024677Y008659D02*
X022933Y008659D01*
X022849Y008757D02*
X024677Y008757D01*
X024677Y008856D02*
X019802Y008856D01*
X019871Y008954D02*
X022966Y008954D01*
X023002Y008918D02*
X023111Y008873D01*
X023230Y008873D01*
X023339Y008918D01*
X023423Y009002D01*
X023468Y009111D01*
X023468Y009230D01*
X023423Y009339D01*
X023339Y009423D01*
X023230Y009468D01*
X023111Y009468D01*
X023002Y009423D01*
X022918Y009339D01*
X022873Y009230D01*
X022873Y009111D01*
X022918Y009002D01*
X023002Y008918D01*
X022897Y009053D02*
X019888Y009053D01*
X019865Y009151D02*
X022873Y009151D01*
X022881Y009250D02*
X019787Y009250D01*
X019491Y009250D02*
X018852Y009250D01*
X018978Y009348D02*
X022927Y009348D01*
X023060Y009447D02*
X019013Y009447D01*
X019008Y009545D02*
X024677Y009545D01*
X024677Y009447D02*
X023281Y009447D01*
X023414Y009348D02*
X024677Y009348D01*
X024677Y009250D02*
X023460Y009250D01*
X023468Y009151D02*
X024677Y009151D01*
X024677Y009053D02*
X023444Y009053D01*
X023375Y008954D02*
X024677Y008954D01*
X024677Y009644D02*
X021596Y009644D01*
X021682Y009742D02*
X024677Y009742D01*
X024677Y009841D02*
X021718Y009841D01*
X021718Y009939D02*
X024677Y009939D01*
X024677Y010038D02*
X021681Y010038D01*
X021595Y010136D02*
X024677Y010136D01*
X024677Y010235D02*
X021340Y010235D01*
X021357Y010333D02*
X023062Y010333D01*
X022998Y010432D02*
X021334Y010432D01*
X021257Y010530D02*
X022984Y010530D01*
X023370Y010727D02*
X024677Y010727D01*
X024677Y010629D02*
X023455Y010629D01*
X023482Y010530D02*
X024677Y010530D01*
X024677Y010432D02*
X023469Y010432D01*
X023404Y010333D02*
X024677Y010333D01*
X024677Y010826D02*
X023451Y010826D01*
X023482Y010924D02*
X024677Y010924D01*
X024677Y011023D02*
X023473Y011023D01*
X023416Y011121D02*
X024677Y011121D01*
X023141Y012402D02*
X021044Y012402D01*
X020999Y012303D02*
X023019Y012303D01*
X023408Y012993D02*
X024677Y012993D01*
X024677Y013091D02*
X023470Y013091D01*
X023482Y013190D02*
X024677Y013190D01*
X024677Y013288D02*
X023454Y013288D01*
X023378Y013682D02*
X024677Y013682D01*
X024677Y013584D02*
X019561Y013584D01*
X019607Y013682D02*
X023088Y013682D01*
X023008Y013781D02*
X019607Y013781D01*
X019564Y013879D02*
X022984Y013879D01*
X023398Y014076D02*
X024677Y014076D01*
X024677Y013978D02*
X023466Y013978D01*
X023482Y013879D02*
X024677Y013879D01*
X024677Y013781D02*
X023458Y013781D01*
X023047Y015948D02*
X024677Y015948D01*
X024677Y016046D02*
X023093Y016046D01*
X020849Y016046D02*
X019276Y016046D01*
X019205Y016145D02*
X020800Y016145D01*
X023087Y018312D02*
X023383Y018312D01*
X023383Y018410D02*
X023034Y018410D01*
X023383Y018903D02*
X013771Y018903D01*
X013771Y019001D02*
X023383Y019001D01*
X016425Y011023D02*
X014585Y011023D01*
X014699Y010924D02*
X016390Y010924D01*
X016396Y010826D02*
X014732Y010826D01*
X014724Y010727D02*
X016449Y010727D01*
X016528Y009644D02*
X012477Y009644D01*
X012477Y009742D02*
X021159Y009742D01*
X021245Y009644D02*
X018956Y009644D01*
X019408Y008954D02*
X016869Y008954D01*
X016888Y008856D02*
X019477Y008856D01*
X017898Y007969D02*
X017568Y007969D01*
X017607Y007871D02*
X017859Y007871D01*
X017861Y007772D02*
X017605Y007772D01*
X017557Y007674D02*
X017909Y007674D01*
X018206Y007121D02*
X018041Y007052D01*
X017914Y006926D01*
X017846Y006760D01*
X017846Y006581D01*
X017914Y006416D01*
X018041Y006289D01*
X018206Y006221D01*
X018385Y006221D01*
X018551Y006289D01*
X018677Y006416D01*
X018746Y006581D01*
X018746Y006760D01*
X018677Y006926D01*
X018551Y007052D01*
X018385Y007121D01*
X018206Y007121D01*
X018115Y007083D02*
X017476Y007083D01*
X017551Y007052D02*
X017385Y007121D01*
X017206Y007121D01*
X017041Y007052D01*
X016914Y006926D01*
X016846Y006760D01*
X016846Y006581D01*
X016914Y006416D01*
X017041Y006289D01*
X017206Y006221D01*
X017385Y006221D01*
X017551Y006289D01*
X017677Y006416D01*
X017746Y006581D01*
X017746Y006760D01*
X017677Y006926D01*
X017551Y007052D01*
X017618Y006984D02*
X017973Y006984D01*
X017898Y006886D02*
X017694Y006886D01*
X017734Y006787D02*
X017857Y006787D01*
X017846Y006689D02*
X017746Y006689D01*
X017746Y006590D02*
X017846Y006590D01*
X017883Y006492D02*
X017709Y006492D01*
X017655Y006393D02*
X017936Y006393D01*
X018035Y006295D02*
X017556Y006295D01*
X017440Y006098D02*
X018151Y006098D01*
X018206Y006121D02*
X018041Y006052D01*
X017914Y005926D01*
X017846Y005760D01*
X017846Y005581D01*
X017914Y005416D01*
X018041Y005289D01*
X018206Y005221D01*
X018385Y005221D01*
X018551Y005289D01*
X018677Y005416D01*
X018746Y005581D01*
X018746Y005760D01*
X018677Y005926D01*
X018551Y006052D01*
X018385Y006121D01*
X018206Y006121D01*
X018440Y006098D02*
X023351Y006098D01*
X023355Y005999D02*
X019541Y005999D01*
X019563Y005983D02*
X019511Y006021D01*
X019453Y006051D01*
X019392Y006071D01*
X019346Y006078D01*
X019346Y005721D01*
X019703Y005721D01*
X019696Y005767D01*
X019676Y005828D01*
X019646Y005886D01*
X019608Y005938D01*
X019563Y005983D01*
X019635Y005901D02*
X023358Y005901D01*
X023360Y005802D02*
X019684Y005802D01*
X019703Y005621D02*
X019346Y005621D01*
X019346Y005721D01*
X019246Y005721D01*
X019246Y006078D01*
X019200Y006071D01*
X019138Y006051D01*
X019081Y006021D01*
X019029Y005983D01*
X018983Y005938D01*
X018945Y005886D01*
X018916Y005828D01*
X018896Y005767D01*
X018888Y005721D01*
X019246Y005721D01*
X019246Y005621D01*
X019346Y005621D01*
X019346Y005263D01*
X019392Y005271D01*
X019453Y005291D01*
X019511Y005320D01*
X019563Y005358D01*
X019608Y005404D01*
X019646Y005456D01*
X019676Y005513D01*
X019696Y005575D01*
X019703Y005621D01*
X019700Y005605D02*
X023366Y005605D01*
X023369Y005507D02*
X019672Y005507D01*
X019612Y005408D02*
X023371Y005408D01*
X023374Y005310D02*
X019491Y005310D01*
X019346Y005310D02*
X019246Y005310D01*
X019246Y005263D02*
X019246Y005621D01*
X018888Y005621D01*
X018896Y005575D01*
X018916Y005513D01*
X018945Y005456D01*
X018983Y005404D01*
X019029Y005358D01*
X019081Y005320D01*
X019138Y005291D01*
X019200Y005271D01*
X019246Y005263D01*
X019246Y005408D02*
X019346Y005408D01*
X019346Y005507D02*
X019246Y005507D01*
X019246Y005605D02*
X019346Y005605D01*
X019346Y005704D02*
X023363Y005704D01*
X023359Y006196D02*
X013765Y006196D01*
X013772Y006098D02*
X016151Y006098D01*
X016206Y006121D02*
X016041Y006052D01*
X015914Y005926D01*
X015846Y005760D01*
X015846Y005581D01*
X015914Y005416D01*
X016041Y005289D01*
X016206Y005221D01*
X016385Y005221D01*
X016551Y005289D01*
X016677Y005416D01*
X016746Y005581D01*
X016746Y005760D01*
X016677Y005926D01*
X016551Y006052D01*
X016385Y006121D01*
X016206Y006121D01*
X016206Y006221D02*
X016041Y006289D01*
X015914Y006416D01*
X015846Y006581D01*
X015846Y006760D01*
X015914Y006926D01*
X016041Y007052D01*
X016206Y007121D01*
X016385Y007121D01*
X016551Y007052D01*
X016677Y006926D01*
X016746Y006760D01*
X016746Y006581D01*
X016677Y006416D01*
X016551Y006289D01*
X016385Y006221D01*
X016206Y006221D01*
X016035Y006295D02*
X015556Y006295D01*
X015551Y006289D02*
X015677Y006416D01*
X015746Y006581D01*
X015746Y006760D01*
X015677Y006926D01*
X015551Y007052D01*
X015385Y007121D01*
X015206Y007121D01*
X015041Y007052D01*
X014914Y006926D01*
X014846Y006760D01*
X014846Y006581D01*
X014914Y006416D01*
X015041Y006289D01*
X015206Y006221D01*
X015385Y006221D01*
X015551Y006289D01*
X015655Y006393D02*
X015936Y006393D01*
X015883Y006492D02*
X015709Y006492D01*
X015746Y006590D02*
X015846Y006590D01*
X015846Y006689D02*
X015746Y006689D01*
X015734Y006787D02*
X015857Y006787D01*
X015898Y006886D02*
X015694Y006886D01*
X015618Y006984D02*
X015973Y006984D01*
X016115Y007083D02*
X015476Y007083D01*
X015528Y007280D02*
X024345Y007280D01*
X024039Y007181D02*
X013105Y007181D01*
X013262Y007083D02*
X015115Y007083D01*
X014973Y006984D02*
X013387Y006984D01*
X013483Y006886D02*
X014898Y006886D01*
X014857Y006787D02*
X013556Y006787D01*
X013617Y006689D02*
X014846Y006689D01*
X014846Y006590D02*
X013670Y006590D01*
X013705Y006492D02*
X014883Y006492D01*
X014936Y006393D02*
X013734Y006393D01*
X013758Y006295D02*
X015035Y006295D01*
X015138Y006051D02*
X015081Y006021D01*
X015029Y005983D01*
X014983Y005938D01*
X014945Y005886D01*
X014916Y005828D01*
X014896Y005767D01*
X014888Y005721D01*
X015246Y005721D01*
X015246Y006078D01*
X015200Y006071D01*
X015138Y006051D01*
X015051Y005999D02*
X013771Y005999D01*
X013771Y005901D02*
X014956Y005901D01*
X014907Y005802D02*
X013771Y005802D01*
X013771Y005704D02*
X015246Y005704D01*
X015246Y005721D02*
X015246Y005621D01*
X014888Y005621D01*
X014896Y005575D01*
X014916Y005513D01*
X014945Y005456D01*
X014983Y005404D01*
X015029Y005358D01*
X015081Y005320D01*
X015138Y005291D01*
X015200Y005271D01*
X015246Y005263D01*
X015246Y005621D01*
X015346Y005621D01*
X015346Y005721D01*
X015246Y005721D01*
X015246Y005802D02*
X015346Y005802D01*
X015346Y005721D02*
X015346Y006078D01*
X015392Y006071D01*
X015453Y006051D01*
X015511Y006021D01*
X015563Y005983D01*
X015608Y005938D01*
X015646Y005886D01*
X015676Y005828D01*
X015696Y005767D01*
X015703Y005721D01*
X015346Y005721D01*
X015346Y005704D02*
X015846Y005704D01*
X015846Y005605D02*
X015700Y005605D01*
X015703Y005621D02*
X015346Y005621D01*
X015346Y005263D01*
X015392Y005271D01*
X015453Y005291D01*
X015511Y005320D01*
X015563Y005358D01*
X015608Y005404D01*
X015646Y005456D01*
X015676Y005513D01*
X015696Y005575D01*
X015703Y005621D01*
X015672Y005507D02*
X015876Y005507D01*
X015921Y005408D02*
X015612Y005408D01*
X015491Y005310D02*
X016020Y005310D01*
X016571Y005310D02*
X017020Y005310D01*
X017041Y005289D02*
X017206Y005221D01*
X017385Y005221D01*
X017551Y005289D01*
X017677Y005416D01*
X017746Y005581D01*
X017746Y005760D01*
X017677Y005926D01*
X017551Y006052D01*
X017385Y006121D01*
X017206Y006121D01*
X017041Y006052D01*
X016914Y005926D01*
X016846Y005760D01*
X016846Y005581D01*
X016914Y005416D01*
X017041Y005289D01*
X016921Y005408D02*
X016670Y005408D01*
X016715Y005507D02*
X016876Y005507D01*
X016846Y005605D02*
X016746Y005605D01*
X016746Y005704D02*
X016846Y005704D01*
X016863Y005802D02*
X016728Y005802D01*
X016687Y005901D02*
X016904Y005901D01*
X016988Y005999D02*
X016603Y005999D01*
X016440Y006098D02*
X017151Y006098D01*
X017035Y006295D02*
X016556Y006295D01*
X016655Y006393D02*
X016936Y006393D01*
X016883Y006492D02*
X016709Y006492D01*
X016746Y006590D02*
X016846Y006590D01*
X016846Y006689D02*
X016746Y006689D01*
X016734Y006787D02*
X016857Y006787D01*
X016898Y006886D02*
X016694Y006886D01*
X016618Y006984D02*
X016973Y006984D01*
X017115Y007083D02*
X016476Y007083D01*
X015988Y005999D02*
X015541Y005999D01*
X015635Y005901D02*
X015904Y005901D01*
X015863Y005802D02*
X015684Y005802D01*
X015346Y005901D02*
X015246Y005901D01*
X015246Y005999D02*
X015346Y005999D01*
X015346Y005605D02*
X015246Y005605D01*
X015246Y005507D02*
X015346Y005507D01*
X015346Y005408D02*
X015246Y005408D01*
X015246Y005310D02*
X015346Y005310D01*
X015101Y005310D02*
X013771Y005310D01*
X013771Y005408D02*
X014979Y005408D01*
X014919Y005507D02*
X013771Y005507D01*
X013771Y005605D02*
X014891Y005605D01*
X013771Y005211D02*
X023377Y005211D01*
X023368Y006295D02*
X019461Y006295D01*
X019453Y006291D02*
X019511Y006320D01*
X019563Y006358D01*
X019608Y006404D01*
X019646Y006456D01*
X019676Y006513D01*
X019696Y006575D01*
X019703Y006621D01*
X019346Y006621D01*
X019346Y006721D01*
X019703Y006721D01*
X019696Y006767D01*
X019676Y006828D01*
X019646Y006886D01*
X021050Y006886D01*
X021047Y006876D02*
X021084Y006968D01*
X021155Y007038D01*
X021246Y007076D01*
X021345Y007076D01*
X021437Y007038D01*
X021507Y006968D01*
X021545Y006876D01*
X021545Y006777D01*
X021507Y006686D01*
X021437Y006616D01*
X021345Y006578D01*
X021246Y006578D01*
X021155Y006616D01*
X021084Y006686D01*
X021047Y006777D01*
X021047Y006876D01*
X021047Y006787D02*
X019689Y006787D01*
X019646Y006886D02*
X019608Y006938D01*
X019563Y006983D01*
X019511Y007021D01*
X019453Y007051D01*
X019392Y007071D01*
X019346Y007078D01*
X019346Y006721D01*
X019246Y006721D01*
X019246Y007078D01*
X019200Y007071D01*
X019138Y007051D01*
X019081Y007021D01*
X019029Y006983D01*
X018983Y006938D01*
X018945Y006886D01*
X018694Y006886D01*
X018734Y006787D02*
X018902Y006787D01*
X018896Y006767D02*
X018888Y006721D01*
X019246Y006721D01*
X019246Y006621D01*
X019346Y006621D01*
X019346Y006263D01*
X019392Y006271D01*
X019453Y006291D01*
X019346Y006295D02*
X019246Y006295D01*
X019246Y006263D02*
X019246Y006621D01*
X018888Y006621D01*
X018896Y006575D01*
X018916Y006513D01*
X018945Y006456D01*
X018983Y006404D01*
X019029Y006358D01*
X019081Y006320D01*
X019138Y006291D01*
X019200Y006271D01*
X019246Y006263D01*
X019130Y006295D02*
X018556Y006295D01*
X018655Y006393D02*
X018993Y006393D01*
X018927Y006492D02*
X018709Y006492D01*
X018746Y006590D02*
X018893Y006590D01*
X018896Y006767D02*
X018916Y006828D01*
X018945Y006886D01*
X019030Y006984D02*
X018618Y006984D01*
X018476Y007083D02*
X023871Y007083D01*
X023748Y006984D02*
X021490Y006984D01*
X021541Y006886D02*
X023646Y006886D01*
X023568Y006787D02*
X021545Y006787D01*
X021508Y006689D02*
X023512Y006689D01*
X023457Y006590D02*
X021375Y006590D01*
X021216Y006590D02*
X019698Y006590D01*
X019665Y006492D02*
X023422Y006492D01*
X023392Y006393D02*
X019598Y006393D01*
X019346Y006393D02*
X019246Y006393D01*
X019246Y006492D02*
X019346Y006492D01*
X019346Y006590D02*
X019246Y006590D01*
X019246Y006689D02*
X018746Y006689D01*
X019246Y006787D02*
X019346Y006787D01*
X019346Y006689D02*
X021083Y006689D01*
X021101Y006984D02*
X019561Y006984D01*
X019346Y006984D02*
X019246Y006984D01*
X019246Y006886D02*
X019346Y006886D01*
X019346Y005999D02*
X019246Y005999D01*
X019246Y005901D02*
X019346Y005901D01*
X019346Y005802D02*
X019246Y005802D01*
X019246Y005704D02*
X018746Y005704D01*
X018746Y005605D02*
X018891Y005605D01*
X018919Y005507D02*
X018715Y005507D01*
X018670Y005408D02*
X018979Y005408D01*
X019101Y005310D02*
X018571Y005310D01*
X018020Y005310D02*
X017571Y005310D01*
X017670Y005408D02*
X017921Y005408D01*
X017876Y005507D02*
X017715Y005507D01*
X017746Y005605D02*
X017846Y005605D01*
X017846Y005704D02*
X017746Y005704D01*
X017728Y005802D02*
X017863Y005802D01*
X017904Y005901D02*
X017687Y005901D01*
X017603Y005999D02*
X017988Y005999D01*
X018603Y005999D02*
X019051Y005999D01*
X018956Y005901D02*
X018687Y005901D01*
X018728Y005802D02*
X018907Y005802D01*
X015063Y007280D02*
X012793Y007280D01*
X012377Y007477D02*
X014889Y007477D01*
X014848Y007575D02*
X012475Y007575D01*
X012477Y007674D02*
X014846Y007674D01*
X014851Y007772D02*
X012477Y007772D01*
X012477Y007871D02*
X014891Y007871D01*
X014958Y007969D02*
X012477Y007969D01*
X012278Y007378D02*
X014951Y007378D01*
X015492Y008265D02*
X022499Y008265D01*
X022411Y008363D02*
X015625Y008363D01*
X015696Y008462D02*
X022373Y008462D01*
X022373Y008560D02*
X015737Y008560D01*
X015746Y008659D02*
X016486Y008659D01*
X016412Y008757D02*
X015746Y008757D01*
X015706Y008856D02*
X016390Y008856D01*
X016410Y008954D02*
X015648Y008954D01*
X015549Y009053D02*
X016482Y009053D01*
X016458Y009250D02*
X012477Y009250D01*
X012477Y009348D02*
X016400Y009348D01*
X016390Y009447D02*
X012477Y009447D01*
X012477Y009545D02*
X016421Y009545D01*
X016867Y008757D02*
X022493Y008757D01*
X022408Y008659D02*
X016792Y008659D01*
D14*
X021421Y009889D03*
X023171Y009171D03*
X022671Y008514D03*
X013546Y015108D03*
X014983Y016389D03*
X021577Y015577D03*
M02*
